<?xml version="1.0" encoding="UTF-8" standalone="no"?>
<!DOCTYPE svg PUBLIC "-//W3C//DTD SVG 1.1//EN"
 "http://www.w3.org/Graphics/SVG/1.1/DTD/svg11.dtd">
<!-- Generated by graphviz version 2.43.0 (0)
 -->
<!-- Title: src/Astar.cpp Pages: 1 -->
<svg width="864pt" height="252pt"
 viewBox="0.00 0.00 863.50 252.00" xmlns="http://www.w3.org/2000/svg" xmlns:xlink="http://www.w3.org/1999/xlink">
<g id="graph0" class="graph" transform="scale(1 1) rotate(0) translate(4 248)">
<title>src/Astar.cpp</title>
<polygon fill="white" stroke="transparent" points="-4,4 -4,-248 859.5,-248 859.5,4 -4,4"/>
<!-- Node1 -->
<g id="node1" class="node">
<title>Node1</title>
<g id="a_node1"><a xlink:title=" ">
<polygon fill="#bfbfbf" stroke="black" points="607.5,-224.5 607.5,-243.5 687.5,-243.5 687.5,-224.5 607.5,-224.5"/>
<text text-anchor="middle" x="647.5" y="-231.5" font-family="Helvetica,sans-Serif" font-size="10.00">src/Astar.cpp</text>
</a>
</g>
</g>
<!-- Node2 -->
<g id="node2" class="node">
<title>Node2</title>
<g id="a_node2"><a xlink:href="AStar_8hpp.html" target="_top" xlink:title=" ">
<polygon fill="white" stroke="black" points="209.5,-168.5 209.5,-187.5 341.5,-187.5 341.5,-168.5 209.5,-168.5"/>
<text text-anchor="middle" x="275.5" y="-175.5" font-family="Helvetica,sans-Serif" font-size="10.00">artgslam_vsc/AStar.hpp</text>
</a>
</g>
</g>
<!-- Node1&#45;&gt;Node2 -->
<g id="edge1" class="edge">
<title>Node1&#45;&gt;Node2</title>
<path fill="none" stroke="midnightblue" d="M607.34,-227.17C544.32,-218.02 421.44,-200.18 344.19,-188.97"/>
<polygon fill="midnightblue" stroke="midnightblue" points="344.46,-185.47 334.07,-187.5 343.46,-192.4 344.46,-185.47"/>
</g>
<!-- Node3 -->
<g id="node3" class="node">
<title>Node3</title>
<g id="a_node3"><a xlink:title=" ">
<polygon fill="white" stroke="#bfbfbf" points="553,-56.5 553,-75.5 600,-75.5 600,-56.5 553,-56.5"/>
<text text-anchor="middle" x="576.5" y="-63.5" font-family="Helvetica,sans-Serif" font-size="10.00">cmath</text>
</a>
</g>
</g>
<!-- Node1&#45;&gt;Node3 -->
<g id="edge14" class="edge">
<title>Node1&#45;&gt;Node3</title>
<path fill="none" stroke="midnightblue" d="M617.62,-224.39C599.96,-217.59 579.05,-206.15 568.5,-188 549.79,-155.81 560.75,-110.36 569.31,-85.32"/>
<polygon fill="midnightblue" stroke="midnightblue" points="572.7,-86.25 572.85,-75.66 566.12,-83.85 572.7,-86.25"/>
</g>
<!-- Node10 -->
<g id="node10" class="node">
<title>Node10</title>
<g id="a_node10"><a xlink:title=" ">
<polygon fill="white" stroke="#bfbfbf" points="577.5,-168.5 577.5,-187.5 637.5,-187.5 637.5,-168.5 577.5,-168.5"/>
<text text-anchor="middle" x="607.5" y="-175.5" font-family="Helvetica,sans-Serif" font-size="10.00">iostream</text>
</a>
</g>
</g>
<!-- Node1&#45;&gt;Node10 -->
<g id="edge13" class="edge">
<title>Node1&#45;&gt;Node10</title>
<path fill="none" stroke="midnightblue" d="M640.89,-224.08C635.24,-216.46 626.96,-205.26 620.05,-195.94"/>
<polygon fill="midnightblue" stroke="midnightblue" points="622.75,-193.7 613.98,-187.75 617.12,-197.87 622.75,-193.7"/>
</g>
<!-- Node11 -->
<g id="node11" class="node">
<title>Node11</title>
<g id="a_node11"><a xlink:title=" ">
<polygon fill="white" stroke="#bfbfbf" points="655.5,-168.5 655.5,-187.5 719.5,-187.5 719.5,-168.5 655.5,-168.5"/>
<text text-anchor="middle" x="687.5" y="-175.5" font-family="Helvetica,sans-Serif" font-size="10.00">algorithm</text>
</a>
</g>
</g>
<!-- Node1&#45;&gt;Node11 -->
<g id="edge15" class="edge">
<title>Node1&#45;&gt;Node11</title>
<path fill="none" stroke="midnightblue" d="M654.11,-224.08C659.76,-216.46 668.04,-205.26 674.95,-195.94"/>
<polygon fill="midnightblue" stroke="midnightblue" points="677.88,-197.87 681.02,-187.75 672.25,-193.7 677.88,-197.87"/>
</g>
<!-- Node12 -->
<g id="node12" class="node">
<title>Node12</title>
<g id="a_node12"><a xlink:title=" ">
<polygon fill="white" stroke="#bfbfbf" points="737.5,-168.5 737.5,-187.5 781.5,-187.5 781.5,-168.5 737.5,-168.5"/>
<text text-anchor="middle" x="759.5" y="-175.5" font-family="Helvetica,sans-Serif" font-size="10.00">limits</text>
</a>
</g>
</g>
<!-- Node1&#45;&gt;Node12 -->
<g id="edge16" class="edge">
<title>Node1&#45;&gt;Node12</title>
<path fill="none" stroke="midnightblue" d="M665.49,-224.32C683.54,-215.62 711.55,-202.12 732.3,-192.11"/>
<polygon fill="midnightblue" stroke="midnightblue" points="734.06,-195.15 741.55,-187.65 731.02,-188.84 734.06,-195.15"/>
</g>
<!-- Node13 -->
<g id="node13" class="node">
<title>Node13</title>
<g id="a_node13"><a xlink:title=" ">
<polygon fill="white" stroke="#bfbfbf" points="799.5,-168.5 799.5,-187.5 855.5,-187.5 855.5,-168.5 799.5,-168.5"/>
<text text-anchor="middle" x="827.5" y="-175.5" font-family="Helvetica,sans-Serif" font-size="10.00">unistd.h</text>
</a>
</g>
</g>
<!-- Node1&#45;&gt;Node13 -->
<g id="edge17" class="edge">
<title>Node1&#45;&gt;Node13</title>
<path fill="none" stroke="midnightblue" d="M676.02,-224.44C706.66,-215.25 755.49,-200.6 789.4,-190.43"/>
<polygon fill="midnightblue" stroke="midnightblue" points="790.84,-193.65 799.41,-187.43 788.82,-186.95 790.84,-193.65"/>
</g>
<!-- Node2&#45;&gt;Node3 -->
<g id="edge2" class="edge">
<title>Node2&#45;&gt;Node3</title>
<path fill="none" stroke="midnightblue" d="M302.07,-168.49C329.2,-159.7 372.47,-145.42 409.5,-132 457.48,-114.62 512.54,-92.82 545.9,-79.41"/>
<polygon fill="midnightblue" stroke="midnightblue" points="547.56,-82.51 555.53,-75.53 544.95,-76.02 547.56,-82.51"/>
</g>
<!-- Node4 -->
<g id="node4" class="node">
<title>Node4</title>
<g id="a_node4"><a xlink:title=" ">
<polygon fill="white" stroke="#bfbfbf" points="0,-112.5 0,-131.5 47,-131.5 47,-112.5 0,-112.5"/>
<text text-anchor="middle" x="23.5" y="-119.5" font-family="Helvetica,sans-Serif" font-size="10.00">queue</text>
</a>
</g>
</g>
<!-- Node2&#45;&gt;Node4 -->
<g id="edge3" class="edge">
<title>Node2&#45;&gt;Node4</title>
<path fill="none" stroke="midnightblue" d="M228.93,-168.49C186.43,-160.49 121.69,-147.75 57.15,-132.28"/>
<polygon fill="midnightblue" stroke="midnightblue" points="57.76,-128.83 47.22,-129.88 56.11,-135.63 57.76,-128.83"/>
</g>
<!-- Node5 -->
<g id="node5" class="node">
<title>Node5</title>
<g id="a_node5"><a xlink:title=" ">
<polygon fill="white" stroke="#bfbfbf" points="188.5,-0.5 188.5,-19.5 298.5,-19.5 298.5,-0.5 188.5,-0.5"/>
<text text-anchor="middle" x="243.5" y="-7.5" font-family="Helvetica,sans-Serif" font-size="10.00">SFML/Graphics.hpp</text>
</a>
</g>
</g>
<!-- Node2&#45;&gt;Node5 -->
<g id="edge4" class="edge">
<title>Node2&#45;&gt;Node5</title>
<path fill="none" stroke="midnightblue" d="M267.04,-168.23C259.49,-159.74 248.95,-146.11 244.5,-132 233.53,-97.24 236.97,-54.01 240.33,-29.76"/>
<polygon fill="midnightblue" stroke="midnightblue" points="243.8,-30.19 241.86,-19.78 236.88,-29.13 243.8,-30.19"/>
</g>
<!-- Node6 -->
<g id="node6" class="node">
<title>Node6</title>
<g id="a_node6"><a xlink:href="GridMap_8hpp.html" target="_top" xlink:title=" ">
<polygon fill="white" stroke="black" points="253,-112.5 253,-131.5 400,-131.5 400,-112.5 253,-112.5"/>
<text text-anchor="middle" x="326.5" y="-119.5" font-family="Helvetica,sans-Serif" font-size="10.00">artgslam_vsc/GridMap.hpp</text>
</a>
</g>
</g>
<!-- Node2&#45;&gt;Node6 -->
<g id="edge5" class="edge">
<title>Node2&#45;&gt;Node6</title>
<path fill="none" stroke="midnightblue" d="M283.92,-168.08C291.35,-160.22 302.35,-148.57 311.31,-139.08"/>
<polygon fill="midnightblue" stroke="midnightblue" points="313.91,-141.42 318.24,-131.75 308.82,-136.62 313.91,-141.42"/>
</g>
<!-- Node9 -->
<g id="node9" class="node">
<title>Node9</title>
<g id="a_node9"><a xlink:href="Node_8hpp.html" target="_top" xlink:title=" ">
<polygon fill="white" stroke="black" points="65,-112.5 65,-131.5 196,-131.5 196,-112.5 65,-112.5"/>
<text text-anchor="middle" x="130.5" y="-119.5" font-family="Helvetica,sans-Serif" font-size="10.00">artgslam_vsc/Node.hpp</text>
</a>
</g>
</g>
<!-- Node2&#45;&gt;Node9 -->
<g id="edge11" class="edge">
<title>Node2&#45;&gt;Node9</title>
<path fill="none" stroke="midnightblue" d="M252.52,-168.44C228.34,-159.44 190.08,-145.19 162.85,-135.05"/>
<polygon fill="midnightblue" stroke="midnightblue" points="163.96,-131.73 153.37,-131.52 161.52,-138.29 163.96,-131.73"/>
</g>
<!-- Node6&#45;&gt;Node3 -->
<g id="edge7" class="edge">
<title>Node6&#45;&gt;Node3</title>
<path fill="none" stroke="midnightblue" d="M371.56,-112.5C413.43,-104.41 477.73,-91.51 542.74,-76.06"/>
<polygon fill="midnightblue" stroke="midnightblue" points="543.84,-79.4 552.75,-73.67 542.21,-72.59 543.84,-79.4"/>
</g>
<!-- Node6&#45;&gt;Node5 -->
<g id="edge8" class="edge">
<title>Node6&#45;&gt;Node5</title>
<path fill="none" stroke="midnightblue" d="M316.73,-112.27C307.34,-103.61 293.05,-89.67 282.5,-76 270.97,-61.06 260.11,-42.45 252.8,-28.98"/>
<polygon fill="midnightblue" stroke="midnightblue" points="255.72,-27.02 247.94,-19.83 249.54,-30.3 255.72,-27.02"/>
</g>
<!-- Node7 -->
<g id="node7" class="node">
<title>Node7</title>
<g id="a_node7"><a xlink:title=" ">
<polygon fill="white" stroke="#bfbfbf" points="291,-56.5 291,-75.5 338,-75.5 338,-56.5 291,-56.5"/>
<text text-anchor="middle" x="314.5" y="-63.5" font-family="Helvetica,sans-Serif" font-size="10.00">vector</text>
</a>
</g>
</g>
<!-- Node6&#45;&gt;Node7 -->
<g id="edge6" class="edge">
<title>Node6&#45;&gt;Node7</title>
<path fill="none" stroke="midnightblue" d="M324.52,-112.08C322.93,-104.93 320.64,-94.64 318.65,-85.69"/>
<polygon fill="midnightblue" stroke="midnightblue" points="322.03,-84.75 316.44,-75.75 315.2,-86.27 322.03,-84.75"/>
</g>
<!-- Node8 -->
<g id="node8" class="node">
<title>Node8</title>
<g id="a_node8"><a xlink:href="ViewController_8hpp.html" target="_top" xlink:title=" ">
<polygon fill="white" stroke="black" points="356.5,-56.5 356.5,-75.5 534.5,-75.5 534.5,-56.5 356.5,-56.5"/>
<text text-anchor="middle" x="445.5" y="-63.5" font-family="Helvetica,sans-Serif" font-size="10.00">artgslam_vsc/ViewController.hpp</text>
</a>
</g>
</g>
<!-- Node6&#45;&gt;Node8 -->
<g id="edge9" class="edge">
<title>Node6&#45;&gt;Node8</title>
<path fill="none" stroke="midnightblue" d="M345.36,-112.44C364.77,-103.64 395.23,-89.81 417.46,-79.72"/>
<polygon fill="midnightblue" stroke="midnightblue" points="419.07,-82.84 426.73,-75.52 416.18,-76.46 419.07,-82.84"/>
</g>
<!-- Node8&#45;&gt;Node5 -->
<g id="edge10" class="edge">
<title>Node8&#45;&gt;Node5</title>
<path fill="none" stroke="midnightblue" d="M413.49,-56.44C378.77,-47.16 323.21,-32.31 285.12,-22.13"/>
<polygon fill="midnightblue" stroke="midnightblue" points="285.92,-18.72 275.36,-19.52 284.11,-25.48 285.92,-18.72"/>
</g>
<!-- Node9&#45;&gt;Node5 -->
<g id="edge12" class="edge">
<title>Node9&#45;&gt;Node5</title>
<path fill="none" stroke="midnightblue" d="M139.37,-112.37C158.35,-93.89 203.14,-50.29 227.33,-26.74"/>
<polygon fill="midnightblue" stroke="midnightblue" points="229.95,-29.07 234.67,-19.59 225.07,-24.06 229.95,-29.07"/>
</g>
</g>
</svg>
