<?xml version="1.0" encoding="UTF-8" standalone="no"?>
<!DOCTYPE svg PUBLIC "-//W3C//DTD SVG 1.1//EN"
 "http://www.w3.org/Graphics/SVG/1.1/DTD/svg11.dtd">
<!-- Generated by graphviz version 2.43.0 (0)
 -->
<!-- Title: include/artgslam_vsc/AStar.hpp Pages: 1 -->
<svg width="391pt" height="162pt"
 viewBox="0.00 0.00 390.50 162.00" xmlns="http://www.w3.org/2000/svg" xmlns:xlink="http://www.w3.org/1999/xlink">
<g id="graph0" class="graph" transform="scale(1 1) rotate(0) translate(4 158)">
<title>include/artgslam_vsc/AStar.hpp</title>
<polygon fill="white" stroke="transparent" points="-4,4 -4,-158 386.5,-158 386.5,4 -4,4"/>
<!-- Node1 -->
<g id="node1" class="node">
<title>Node1</title>
<g id="a_node1"><a xlink:title=" ">
<polygon fill="#bfbfbf" stroke="black" points="86,-123.5 86,-153.5 206,-153.5 206,-123.5 86,-123.5"/>
<text text-anchor="start" x="94" y="-141.5" font-family="Helvetica,sans-Serif" font-size="10.00">include/artgslam_vsc</text>
<text text-anchor="middle" x="146" y="-130.5" font-family="Helvetica,sans-Serif" font-size="10.00">/AStar.hpp</text>
</a>
</g>
</g>
<!-- Node2 -->
<g id="node2" class="node">
<title>Node2</title>
<g id="a_node2"><a xlink:href="Astar_8cpp.html" target="_top" xlink:title=" ">
<polygon fill="white" stroke="black" points="0,-62 0,-81 80,-81 80,-62 0,-62"/>
<text text-anchor="middle" x="40" y="-69" font-family="Helvetica,sans-Serif" font-size="10.00">src/Astar.cpp</text>
</a>
</g>
</g>
<!-- Node1&#45;&gt;Node2 -->
<g id="edge1" class="edge">
<title>Node1&#45;&gt;Node2</title>
<path fill="none" stroke="midnightblue" d="M114.43,-118.14C94.28,-105.79 69.17,-90.39 53.87,-81.01"/>
<polygon fill="midnightblue" stroke="midnightblue" points="112.65,-121.15 123,-123.4 116.3,-115.18 112.65,-121.15"/>
</g>
<!-- Node3 -->
<g id="node3" class="node">
<title>Node3</title>
<g id="a_node3"><a xlink:href="GridMap_8cpp.html" target="_top" xlink:title=" ">
<polygon fill="white" stroke="black" points="98.5,-62 98.5,-81 193.5,-81 193.5,-62 98.5,-62"/>
<text text-anchor="middle" x="146" y="-69" font-family="Helvetica,sans-Serif" font-size="10.00">src/GridMap.cpp</text>
</a>
</g>
</g>
<!-- Node1&#45;&gt;Node3 -->
<g id="edge2" class="edge">
<title>Node1&#45;&gt;Node3</title>
<path fill="none" stroke="midnightblue" d="M146,-113.25C146,-102.02 146,-89.38 146,-81.19"/>
<polygon fill="midnightblue" stroke="midnightblue" points="142.5,-113.4 146,-123.4 149.5,-113.4 142.5,-113.4"/>
</g>
<!-- Node4 -->
<g id="node4" class="node">
<title>Node4</title>
<g id="a_node4"><a xlink:href="MapViewer_8hpp.html" target="_top" xlink:title=" ">
<polygon fill="white" stroke="black" points="212,-56.5 212,-86.5 332,-86.5 332,-56.5 212,-56.5"/>
<text text-anchor="start" x="220" y="-74.5" font-family="Helvetica,sans-Serif" font-size="10.00">include/artgslam_vsc</text>
<text text-anchor="middle" x="272" y="-63.5" font-family="Helvetica,sans-Serif" font-size="10.00">/MapViewer.hpp</text>
</a>
</g>
</g>
<!-- Node1&#45;&gt;Node4 -->
<g id="edge3" class="edge">
<title>Node1&#45;&gt;Node4</title>
<path fill="none" stroke="midnightblue" d="M182.42,-118.71C202.29,-108.46 226.48,-95.98 244.71,-86.58"/>
<polygon fill="midnightblue" stroke="midnightblue" points="180.62,-115.7 173.34,-123.4 183.83,-121.92 180.62,-115.7"/>
</g>
<!-- Node5 -->
<g id="node5" class="node">
<title>Node5</title>
<g id="a_node5"><a xlink:href="main_8cpp.html" target="_top" xlink:title=" ">
<polygon fill="white" stroke="black" points="176.5,-0.5 176.5,-19.5 255.5,-19.5 255.5,-0.5 176.5,-0.5"/>
<text text-anchor="middle" x="216" y="-7.5" font-family="Helvetica,sans-Serif" font-size="10.00">src/main.cpp</text>
</a>
</g>
</g>
<!-- Node4&#45;&gt;Node5 -->
<g id="edge4" class="edge">
<title>Node4&#45;&gt;Node5</title>
<path fill="none" stroke="midnightblue" d="M251.77,-49C242.22,-38.86 231.37,-27.33 224.15,-19.66"/>
<polygon fill="midnightblue" stroke="midnightblue" points="249.33,-51.52 258.73,-56.4 254.42,-46.72 249.33,-51.52"/>
</g>
<!-- Node6 -->
<g id="node6" class="node">
<title>Node6</title>
<g id="a_node6"><a xlink:href="MapViewer_8cpp.html" target="_top" xlink:title=" ">
<polygon fill="white" stroke="black" points="273.5,-0.5 273.5,-19.5 382.5,-19.5 382.5,-0.5 273.5,-0.5"/>
<text text-anchor="middle" x="328" y="-7.5" font-family="Helvetica,sans-Serif" font-size="10.00">src/MapViewer.cpp</text>
</a>
</g>
</g>
<!-- Node4&#45;&gt;Node6 -->
<g id="edge5" class="edge">
<title>Node4&#45;&gt;Node6</title>
<path fill="none" stroke="midnightblue" d="M292.23,-49C301.78,-38.86 312.63,-27.33 319.85,-19.66"/>
<polygon fill="midnightblue" stroke="midnightblue" points="289.58,-46.72 285.27,-56.4 294.67,-51.52 289.58,-46.72"/>
</g>
</g>
</svg>
