<?xml version="1.0" encoding="UTF-8" standalone="no"?>
<!DOCTYPE svg PUBLIC "-//W3C//DTD SVG 1.1//EN"
 "http://www.w3.org/Graphics/SVG/1.1/DTD/svg11.dtd">
<!-- Generated by graphviz version 2.43.0 (0)
 -->
<!-- Title: include/artgslam_vsc/AStar.hpp Pages: 1 -->
<svg width="439pt" height="207pt"
 viewBox="0.00 0.00 439.26 207.00" xmlns="http://www.w3.org/2000/svg" xmlns:xlink="http://www.w3.org/1999/xlink">
<g id="graph0" class="graph" transform="scale(1 1) rotate(0) translate(4 203)">
<title>include/artgslam_vsc/AStar.hpp</title>
<polygon fill="white" stroke="transparent" points="-4,4 -4,-203 435.26,-203 435.26,4 -4,4"/>
<!-- Node1 -->
<g id="node1" class="node">
<title>Node1</title>
<g id="a_node1"><a xlink:title=" ">
<polygon fill="#bfbfbf" stroke="black" points="130.5,-168.5 130.5,-198.5 250.5,-198.5 250.5,-168.5 130.5,-168.5"/>
<text text-anchor="start" x="138.5" y="-186.5" font-family="Helvetica,sans-Serif" font-size="10.00">include/artgslam_vsc</text>
<text text-anchor="middle" x="190.5" y="-175.5" font-family="Helvetica,sans-Serif" font-size="10.00">/AStar.hpp</text>
</a>
</g>
</g>
<!-- Node2 -->
<g id="node2" class="node">
<title>Node2</title>
<g id="a_node2"><a xlink:title=" ">
<polygon fill="white" stroke="#bfbfbf" points="0,-56.5 0,-75.5 47,-75.5 47,-56.5 0,-56.5"/>
<text text-anchor="middle" x="23.5" y="-63.5" font-family="Helvetica,sans-Serif" font-size="10.00">cmath</text>
</a>
</g>
</g>
<!-- Node1&#45;&gt;Node2 -->
<g id="edge1" class="edge">
<title>Node1&#45;&gt;Node2</title>
<path fill="none" stroke="midnightblue" d="M130.49,-175.23C100.36,-168.63 65.49,-156.03 42.5,-132 30.7,-119.66 26.17,-100.41 24.47,-86.06"/>
<polygon fill="midnightblue" stroke="midnightblue" points="27.93,-85.5 23.61,-75.82 20.96,-86.08 27.93,-85.5"/>
</g>
<!-- Node3 -->
<g id="node3" class="node">
<title>Node3</title>
<g id="a_node3"><a xlink:title=" ">
<polygon fill="white" stroke="#bfbfbf" points="52,-112.5 52,-131.5 99,-131.5 99,-112.5 52,-112.5"/>
<text text-anchor="middle" x="75.5" y="-119.5" font-family="Helvetica,sans-Serif" font-size="10.00">queue</text>
</a>
</g>
</g>
<!-- Node1&#45;&gt;Node3 -->
<g id="edge2" class="edge">
<title>Node1&#45;&gt;Node3</title>
<path fill="none" stroke="midnightblue" d="M163.25,-168.4C144.47,-158.68 119.67,-145.86 101.23,-136.31"/>
<polygon fill="midnightblue" stroke="midnightblue" points="102.72,-133.14 92.23,-131.66 99.51,-139.36 102.72,-133.14"/>
</g>
<!-- Node4 -->
<g id="node4" class="node">
<title>Node4</title>
<g id="a_node4"><a xlink:title=" ">
<polygon fill="white" stroke="#bfbfbf" points="301.5,-0.5 301.5,-19.5 411.5,-19.5 411.5,-0.5 301.5,-0.5"/>
<text text-anchor="middle" x="356.5" y="-7.5" font-family="Helvetica,sans-Serif" font-size="10.00">SFML/Graphics.hpp</text>
</a>
</g>
</g>
<!-- Node1&#45;&gt;Node4 -->
<g id="edge3" class="edge">
<title>Node1&#45;&gt;Node4</title>
<path fill="none" stroke="midnightblue" d="M250.64,-177.82C312.04,-171.64 401.29,-158.32 422.5,-132 450.12,-97.72 403.96,-50.22 375.8,-26.21"/>
<polygon fill="midnightblue" stroke="midnightblue" points="377.67,-23.22 367.73,-19.55 373.22,-28.61 377.67,-23.22"/>
</g>
<!-- Node5 -->
<g id="node5" class="node">
<title>Node5</title>
<g id="a_node5"><a xlink:href="GridMap_8hpp.html" target="_top" xlink:title=" ">
<polygon fill="white" stroke="black" points="117,-112.5 117,-131.5 264,-131.5 264,-112.5 117,-112.5"/>
<text text-anchor="middle" x="190.5" y="-119.5" font-family="Helvetica,sans-Serif" font-size="10.00">artgslam_vsc/GridMap.hpp</text>
</a>
</g>
</g>
<!-- Node1&#45;&gt;Node5 -->
<g id="edge4" class="edge">
<title>Node1&#45;&gt;Node5</title>
<path fill="none" stroke="midnightblue" d="M190.5,-168.4C190.5,-160.47 190.5,-150.46 190.5,-141.86"/>
<polygon fill="midnightblue" stroke="midnightblue" points="194,-141.66 190.5,-131.66 187,-141.66 194,-141.66"/>
</g>
<!-- Node8 -->
<g id="node8" class="node">
<title>Node8</title>
<g id="a_node8"><a xlink:href="Node_8hpp.html" target="_top" xlink:title=" ">
<polygon fill="white" stroke="black" points="282,-112.5 282,-131.5 413,-131.5 413,-112.5 282,-112.5"/>
<text text-anchor="middle" x="347.5" y="-119.5" font-family="Helvetica,sans-Serif" font-size="10.00">artgslam_vsc/Node.hpp</text>
</a>
</g>
</g>
<!-- Node1&#45;&gt;Node8 -->
<g id="edge10" class="edge">
<title>Node1&#45;&gt;Node8</title>
<path fill="none" stroke="midnightblue" d="M227.71,-168.4C254.28,-158.33 289.69,-144.91 315.11,-135.28"/>
<polygon fill="midnightblue" stroke="midnightblue" points="316.54,-138.47 324.66,-131.66 314.06,-131.93 316.54,-138.47"/>
</g>
<!-- Node5&#45;&gt;Node2 -->
<g id="edge6" class="edge">
<title>Node5&#45;&gt;Node2</title>
<path fill="none" stroke="midnightblue" d="M164.04,-112.44C134.99,-103.05 88.31,-87.96 56.79,-77.77"/>
<polygon fill="midnightblue" stroke="midnightblue" points="57.73,-74.39 47.14,-74.64 55.58,-81.05 57.73,-74.39"/>
</g>
<!-- Node5&#45;&gt;Node4 -->
<g id="edge7" class="edge">
<title>Node5&#45;&gt;Node4</title>
<path fill="none" stroke="midnightblue" d="M238.91,-112.43C264.74,-105.91 295.79,-94.74 318.5,-76 333.43,-63.68 343.8,-43.87 349.89,-29.35"/>
<polygon fill="midnightblue" stroke="midnightblue" points="353.21,-30.49 353.58,-19.9 346.68,-27.95 353.21,-30.49"/>
</g>
<!-- Node6 -->
<g id="node6" class="node">
<title>Node6</title>
<g id="a_node6"><a xlink:title=" ">
<polygon fill="white" stroke="#bfbfbf" points="262,-56.5 262,-75.5 309,-75.5 309,-56.5 262,-56.5"/>
<text text-anchor="middle" x="285.5" y="-63.5" font-family="Helvetica,sans-Serif" font-size="10.00">vector</text>
</a>
</g>
</g>
<!-- Node5&#45;&gt;Node6 -->
<g id="edge5" class="edge">
<title>Node5&#45;&gt;Node6</title>
<path fill="none" stroke="midnightblue" d="M205.76,-112.32C220.72,-103.82 243.75,-90.73 261.23,-80.8"/>
<polygon fill="midnightblue" stroke="midnightblue" points="263.31,-83.64 270.27,-75.65 259.85,-77.55 263.31,-83.64"/>
</g>
<!-- Node7 -->
<g id="node7" class="node">
<title>Node7</title>
<g id="a_node7"><a xlink:href="ViewController_8hpp.html" target="_top" xlink:title=" ">
<polygon fill="white" stroke="black" points="65.5,-56.5 65.5,-75.5 243.5,-75.5 243.5,-56.5 65.5,-56.5"/>
<text text-anchor="middle" x="154.5" y="-63.5" font-family="Helvetica,sans-Serif" font-size="10.00">artgslam_vsc/ViewController.hpp</text>
</a>
</g>
</g>
<!-- Node5&#45;&gt;Node7 -->
<g id="edge8" class="edge">
<title>Node5&#45;&gt;Node7</title>
<path fill="none" stroke="midnightblue" d="M184.56,-112.08C179.52,-104.53 172.16,-93.49 165.99,-84.23"/>
<polygon fill="midnightblue" stroke="midnightblue" points="168.79,-82.13 160.33,-75.75 162.97,-86.01 168.79,-82.13"/>
</g>
<!-- Node7&#45;&gt;Node4 -->
<g id="edge9" class="edge">
<title>Node7&#45;&gt;Node4</title>
<path fill="none" stroke="midnightblue" d="M186.51,-56.44C221.23,-47.16 276.79,-32.31 314.88,-22.13"/>
<polygon fill="midnightblue" stroke="midnightblue" points="315.89,-25.48 324.64,-19.52 314.08,-18.72 315.89,-25.48"/>
</g>
<!-- Node8&#45;&gt;Node4 -->
<g id="edge11" class="edge">
<title>Node8&#45;&gt;Node4</title>
<path fill="none" stroke="midnightblue" d="M348.3,-112.38C349.13,-103.32 350.45,-88.66 351.5,-76 352.79,-60.47 354.14,-42.85 355.11,-29.87"/>
<polygon fill="midnightblue" stroke="midnightblue" points="358.6,-30.07 355.85,-19.83 351.62,-29.55 358.6,-30.07"/>
</g>
</g>
</svg>
