<?xml version="1.0" encoding="UTF-8" standalone="no"?>
<!DOCTYPE svg PUBLIC "-//W3C//DTD SVG 1.1//EN"
 "http://www.w3.org/Graphics/SVG/1.1/DTD/svg11.dtd">
<!-- Generated by graphviz version 2.43.0 (0)
 -->
<!-- Title: FileManager::loadDialog Pages: 1 -->
<svg width="305pt" height="256pt"
 viewBox="0.00 0.00 305.00 256.00" xmlns="http://www.w3.org/2000/svg" xmlns:xlink="http://www.w3.org/1999/xlink">
<g id="graph0" class="graph" transform="scale(1 1) rotate(0) translate(4 252)">
<title>FileManager::loadDialog</title>
<polygon fill="white" stroke="transparent" points="-4,4 -4,-252 301,-252 301,4 -4,4"/>
<!-- Node1 -->
<g id="node1" class="node">
<title>Node1</title>
<g id="a_node1"><a xlink:title="Opens a file dialog to select a file and loads its data into the map.">
<polygon fill="#bfbfbf" stroke="black" points="0,-114.5 0,-133.5 134,-133.5 134,-114.5 0,-114.5"/>
<text text-anchor="middle" x="67" y="-121.5" font-family="Helvetica,sans-Serif" font-size="10.00">FileManager::loadDialog</text>
</a>
</g>
</g>
<!-- Node2 -->
<g id="node2" class="node">
<title>Node2</title>
<g id="a_node2"><a xlink:href="classFileManager.html#ad30d0502c151865459ba32f7f3880477" target="_top" xlink:title="Loads coordinate data from a file into x and y vectors.">
<polygon fill="white" stroke="black" points="170,-228.5 170,-247.5 297,-247.5 297,-228.5 170,-228.5"/>
<text text-anchor="middle" x="233.5" y="-235.5" font-family="Helvetica,sans-Serif" font-size="10.00">FileManager::dataLoad</text>
</a>
</g>
</g>
<!-- Node1&#45;&gt;Node2 -->
<g id="edge1" class="edge">
<title>Node1&#45;&gt;Node2</title>
<path fill="none" stroke="midnightblue" d="M75.65,-133.6C91.33,-152.66 129.11,-195.45 170,-219 173.7,-221.13 177.67,-223.05 181.75,-224.77"/>
<polygon fill="midnightblue" stroke="midnightblue" points="180.78,-228.14 191.37,-228.42 183.26,-221.6 180.78,-228.14"/>
</g>
<!-- Node3 -->
<g id="node3" class="node">
<title>Node3</title>
<g id="a_node3"><a xlink:href="classGridMap.html#ad404a1752c771bd142a46e579c47ec6d" target="_top" xlink:title="Fill the occupancy grid using grid index vectors.">
<polygon fill="white" stroke="black" points="185,-190.5 185,-209.5 282,-209.5 282,-190.5 185,-190.5"/>
<text text-anchor="middle" x="233.5" y="-197.5" font-family="Helvetica,sans-Serif" font-size="10.00">GridMap::fillGrid</text>
</a>
</g>
</g>
<!-- Node1&#45;&gt;Node3 -->
<g id="edge2" class="edge">
<title>Node1&#45;&gt;Node3</title>
<path fill="none" stroke="midnightblue" d="M82.69,-133.54C102.07,-145.81 137.52,-167.18 170,-181 175.35,-183.28 181.06,-185.4 186.78,-187.35"/>
<polygon fill="midnightblue" stroke="midnightblue" points="185.74,-190.69 196.33,-190.44 187.9,-184.03 185.74,-190.69"/>
</g>
<!-- Node4 -->
<g id="node4" class="node">
<title>Node4</title>
<g id="a_node4"><a xlink:href="classGridMap.html#ad20af94e5a3cc2872a274a732b5e3f72" target="_top" xlink:title="Getters for real&#45;world x coordinates.">
<polygon fill="white" stroke="black" points="179.5,-152.5 179.5,-171.5 287.5,-171.5 287.5,-152.5 179.5,-152.5"/>
<text text-anchor="middle" x="233.5" y="-159.5" font-family="Helvetica,sans-Serif" font-size="10.00">GridMap::getRealX</text>
</a>
</g>
</g>
<!-- Node1&#45;&gt;Node4 -->
<g id="edge3" class="edge">
<title>Node1&#45;&gt;Node4</title>
<path fill="none" stroke="midnightblue" d="M109.51,-133.59C131.32,-138.63 158.23,-144.84 181.32,-150.18"/>
<polygon fill="midnightblue" stroke="midnightblue" points="180.76,-153.64 191.29,-152.48 182.33,-146.82 180.76,-153.64"/>
</g>
<!-- Node5 -->
<g id="node5" class="node">
<title>Node5</title>
<g id="a_node5"><a xlink:href="classGridMap.html#af4fe1dc74416535a7463b7e168a326d1" target="_top" xlink:title="Getters for real&#45;world y coordinates.">
<polygon fill="white" stroke="black" points="180,-114.5 180,-133.5 287,-133.5 287,-114.5 180,-114.5"/>
<text text-anchor="middle" x="233.5" y="-121.5" font-family="Helvetica,sans-Serif" font-size="10.00">GridMap::getRealY</text>
</a>
</g>
</g>
<!-- Node1&#45;&gt;Node5 -->
<g id="edge4" class="edge">
<title>Node1&#45;&gt;Node5</title>
<path fill="none" stroke="midnightblue" d="M134.43,-124C146.16,-124 158.33,-124 169.94,-124"/>
<polygon fill="midnightblue" stroke="midnightblue" points="169.98,-127.5 179.98,-124 169.98,-120.5 169.98,-127.5"/>
</g>
<!-- Node6 -->
<g id="node6" class="node">
<title>Node6</title>
<g id="a_node6"><a xlink:href="classGridMap.html#a83c5f50b869d134d31a43e58a7757eac" target="_top" xlink:title="Replace all current points with new ones.">
<polygon fill="white" stroke="black" points="179,-76.5 179,-95.5 288,-95.5 288,-76.5 179,-76.5"/>
<text text-anchor="middle" x="233.5" y="-83.5" font-family="Helvetica,sans-Serif" font-size="10.00">GridMap::setPoints</text>
</a>
</g>
</g>
<!-- Node1&#45;&gt;Node6 -->
<g id="edge5" class="edge">
<title>Node1&#45;&gt;Node6</title>
<path fill="none" stroke="midnightblue" d="M109.51,-114.41C131.32,-109.37 158.23,-103.16 181.32,-97.82"/>
<polygon fill="midnightblue" stroke="midnightblue" points="182.33,-101.18 191.29,-95.52 180.76,-94.36 182.33,-101.18"/>
</g>
<!-- Node7 -->
<g id="node7" class="node">
<title>Node7</title>
<g id="a_node7"><a xlink:href="tinyfiledialogs_8h.html#a8918e9f47e1532c1d055f563a32b215c" target="_top" xlink:title=" ">
<polygon fill="white" stroke="black" points="172.5,-38.5 172.5,-57.5 294.5,-57.5 294.5,-38.5 172.5,-38.5"/>
<text text-anchor="middle" x="233.5" y="-45.5" font-family="Helvetica,sans-Serif" font-size="10.00">tinyfd_openFileDialog</text>
</a>
</g>
</g>
<!-- Node1&#45;&gt;Node7 -->
<g id="edge6" class="edge">
<title>Node1&#45;&gt;Node7</title>
<path fill="none" stroke="midnightblue" d="M82.69,-114.46C102.07,-102.19 137.52,-80.82 170,-67 175.35,-64.72 181.06,-62.6 186.78,-60.65"/>
<polygon fill="midnightblue" stroke="midnightblue" points="187.9,-63.97 196.33,-57.56 185.74,-57.31 187.9,-63.97"/>
</g>
<!-- Node8 -->
<g id="node8" class="node">
<title>Node8</title>
<g id="a_node8"><a xlink:href="classGridMap.html#a41f7d52629250938bd87dac7c8cfbb76" target="_top" xlink:title="Convert real&#45;world coordinates to grid indices.">
<polygon fill="white" stroke="black" points="182.5,-0.5 182.5,-19.5 284.5,-19.5 284.5,-0.5 182.5,-0.5"/>
<text text-anchor="middle" x="233.5" y="-7.5" font-family="Helvetica,sans-Serif" font-size="10.00">GridMap::xy2Grid</text>
</a>
</g>
</g>
<!-- Node1&#45;&gt;Node8 -->
<g id="edge7" class="edge">
<title>Node1&#45;&gt;Node8</title>
<path fill="none" stroke="midnightblue" d="M75.65,-114.4C91.33,-95.34 129.11,-52.55 170,-29 173.7,-26.87 177.67,-24.95 181.75,-23.23"/>
<polygon fill="midnightblue" stroke="midnightblue" points="183.26,-26.4 191.37,-19.58 180.78,-19.86 183.26,-26.4"/>
</g>
</g>
</svg>
