<?xml version="1.0" encoding="UTF-8" standalone="no"?>
<!DOCTYPE svg PUBLIC "-//W3C//DTD SVG 1.1//EN"
 "http://www.w3.org/Graphics/SVG/1.1/DTD/svg11.dtd">
<!-- Generated by graphviz version 2.43.0 (0)
 -->
<!-- Title: RobotCreator::isRunning Pages: 1 -->
<svg width="450pt" height="28pt"
 viewBox="0.00 0.00 450.00 28.00" xmlns="http://www.w3.org/2000/svg" xmlns:xlink="http://www.w3.org/1999/xlink">
<g id="graph0" class="graph" transform="scale(1 1) rotate(0) translate(4 24)">
<title>RobotCreator::isRunning</title>
<polygon fill="white" stroke="transparent" points="-4,4 -4,-24 446,-24 446,4 -4,4"/>
<!-- Node1 -->
<g id="node1" class="node">
<title>Node1</title>
<g id="a_node1"><a xlink:title="Returns true if the creation window is currently open and running.">
<polygon fill="#bfbfbf" stroke="black" points="307,-0.5 307,-19.5 442,-19.5 442,-0.5 307,-0.5"/>
<text text-anchor="middle" x="374.5" y="-7.5" font-family="Helvetica,sans-Serif" font-size="10.00">RobotCreator::isRunning</text>
</a>
</g>
</g>
<!-- Node2 -->
<g id="node2" class="node">
<title>Node2</title>
<g id="a_node2"><a xlink:href="classRobotCreator.html#a6aaa86f6cbd1426e862987d1f3d9f8fa" target="_top" xlink:title="Main loop entry point to run the creation window.">
<polygon fill="white" stroke="black" points="168,-0.5 168,-19.5 271,-19.5 271,-0.5 168,-0.5"/>
<text text-anchor="middle" x="219.5" y="-7.5" font-family="Helvetica,sans-Serif" font-size="10.00">RobotCreator::run</text>
</a>
</g>
</g>
<!-- Node1&#45;&gt;Node2 -->
<g id="edge1" class="edge">
<title>Node1&#45;&gt;Node2</title>
<path fill="none" stroke="midnightblue" d="M296.73,-10C288.1,-10 279.48,-10 271.29,-10"/>
<polygon fill="midnightblue" stroke="midnightblue" points="296.84,-13.5 306.84,-10 296.84,-6.5 296.84,-13.5"/>
</g>
<!-- Node3 -->
<g id="node3" class="node">
<title>Node3</title>
<g id="a_node3"><a xlink:href="classMapViewer.html#a6690a879cd4af2058afccd2920c03c0d" target="_top" xlink:title="Constructor.">
<polygon fill="white" stroke="black" points="0,-0.5 0,-19.5 132,-19.5 132,-0.5 0,-0.5"/>
<text text-anchor="middle" x="66" y="-7.5" font-family="Helvetica,sans-Serif" font-size="10.00">MapViewer::MapViewer</text>
</a>
</g>
</g>
<!-- Node2&#45;&gt;Node3 -->
<g id="edge2" class="edge">
<title>Node2&#45;&gt;Node3</title>
<path fill="none" stroke="midnightblue" d="M157.61,-10C149.27,-10 140.68,-10 132.26,-10"/>
<polygon fill="midnightblue" stroke="midnightblue" points="157.63,-13.5 167.63,-10 157.63,-6.5 157.63,-13.5"/>
</g>
</g>
</svg>
