<?xml version="1.0" encoding="UTF-8" standalone="no"?>
<!DOCTYPE svg PUBLIC "-//W3C//DTD SVG 1.1//EN"
 "http://www.w3.org/Graphics/SVG/1.1/DTD/svg11.dtd">
<!-- Generated by graphviz version 2.43.0 (0)
 -->
<!-- Title: GridMap::getRealX Pages: 1 -->
<svg width="457pt" height="66pt"
 viewBox="0.00 0.00 457.00 66.00" xmlns="http://www.w3.org/2000/svg" xmlns:xlink="http://www.w3.org/1999/xlink">
<g id="graph0" class="graph" transform="scale(1 1) rotate(0) translate(4 62)">
<title>GridMap::getRealX</title>
<polygon fill="white" stroke="transparent" points="-4,4 -4,-62 453,-62 453,4 -4,4"/>
<!-- Node1 -->
<g id="node1" class="node">
<title>Node1</title>
<g id="a_node1"><a xlink:title="Getters for real&#45;world x coordinates.">
<polygon fill="#bfbfbf" stroke="black" points="341,-19.5 341,-38.5 449,-38.5 449,-19.5 341,-19.5"/>
<text text-anchor="middle" x="395" y="-26.5" font-family="Helvetica,sans-Serif" font-size="10.00">GridMap::getRealX</text>
</a>
</g>
</g>
<!-- Node2 -->
<g id="node2" class="node">
<title>Node2</title>
<g id="a_node2"><a xlink:href="classFileManager.html#ae8a61fd55c9a1b8ac7804420015f3385" target="_top" xlink:title="Opens a file dialog to select a file and loads its data into the map.">
<polygon fill="white" stroke="black" points="169.5,-38.5 169.5,-57.5 303.5,-57.5 303.5,-38.5 169.5,-38.5"/>
<text text-anchor="middle" x="236.5" y="-45.5" font-family="Helvetica,sans-Serif" font-size="10.00">FileManager::loadDialog</text>
</a>
</g>
</g>
<!-- Node1&#45;&gt;Node2 -->
<g id="edge1" class="edge">
<title>Node1&#45;&gt;Node2</title>
<path fill="none" stroke="midnightblue" d="M330.39,-36.72C321.59,-37.79 312.54,-38.89 303.69,-39.96"/>
<polygon fill="midnightblue" stroke="midnightblue" points="331.07,-40.17 340.58,-35.49 330.23,-33.22 331.07,-40.17"/>
</g>
<!-- Node4 -->
<g id="node4" class="node">
<title>Node4</title>
<g id="a_node4"><a xlink:href="classFileManager.html#aebbfa817fd1a8055c738128a22fe0f6f" target="_top" xlink:title="Opens a file dialog to save the current data (coordinates).">
<polygon fill="white" stroke="black" points="168,-0.5 168,-19.5 305,-19.5 305,-0.5 168,-0.5"/>
<text text-anchor="middle" x="236.5" y="-7.5" font-family="Helvetica,sans-Serif" font-size="10.00">FileManager::saveDialog</text>
</a>
</g>
</g>
<!-- Node1&#45;&gt;Node4 -->
<g id="edge3" class="edge">
<title>Node1&#45;&gt;Node4</title>
<path fill="none" stroke="midnightblue" d="M330.5,-21.29C322.13,-20.27 313.51,-19.23 305.07,-18.2"/>
<polygon fill="midnightblue" stroke="midnightblue" points="330.23,-24.78 340.58,-22.51 331.07,-17.83 330.23,-24.78"/>
</g>
<!-- Node3 -->
<g id="node3" class="node">
<title>Node3</title>
<g id="a_node3"><a xlink:href="classMapViewer.html#a6690a879cd4af2058afccd2920c03c0d" target="_top" xlink:title="Constructor.">
<polygon fill="white" stroke="black" points="0,-19.5 0,-38.5 132,-38.5 132,-19.5 0,-19.5"/>
<text text-anchor="middle" x="66" y="-26.5" font-family="Helvetica,sans-Serif" font-size="10.00">MapViewer::MapViewer</text>
</a>
</g>
</g>
<!-- Node2&#45;&gt;Node3 -->
<g id="edge2" class="edge">
<title>Node2&#45;&gt;Node3</title>
<path fill="none" stroke="midnightblue" d="M159.23,-39.4C150.17,-38.38 140.98,-37.34 132.09,-36.34"/>
<polygon fill="midnightblue" stroke="midnightblue" points="159.06,-42.9 169.39,-40.55 159.84,-35.95 159.06,-42.9"/>
</g>
<!-- Node4&#45;&gt;Node3 -->
<g id="edge4" class="edge">
<title>Node4&#45;&gt;Node3</title>
<path fill="none" stroke="midnightblue" d="M157.88,-18.75C149.27,-19.72 140.55,-20.71 132.11,-21.66"/>
<polygon fill="midnightblue" stroke="midnightblue" points="158.39,-22.22 167.94,-17.62 157.61,-15.26 158.39,-22.22"/>
</g>
</g>
</svg>
