<?xml version="1.0" encoding="UTF-8" standalone="no"?>
<!DOCTYPE svg PUBLIC "-//W3C//DTD SVG 1.1//EN"
 "http://www.w3.org/Graphics/SVG/1.1/DTD/svg11.dtd">
<!-- Generated by graphviz version 2.43.0 (0)
 -->
<!-- Title: FileManager::saveData Pages: 1 -->
<svg width="477pt" height="28pt"
 viewBox="0.00 0.00 477.00 28.00" xmlns="http://www.w3.org/2000/svg" xmlns:xlink="http://www.w3.org/1999/xlink">
<g id="graph0" class="graph" transform="scale(1 1) rotate(0) translate(4 24)">
<title>FileManager::saveData</title>
<polygon fill="white" stroke="transparent" points="-4,4 -4,-24 473,-24 473,4 -4,4"/>
<!-- Node1 -->
<g id="node1" class="node">
<title>Node1</title>
<g id="a_node1"><a xlink:title="Saves x and y coordinate data to a file.">
<polygon fill="#bfbfbf" stroke="black" points="341,-0.5 341,-19.5 469,-19.5 469,-0.5 341,-0.5"/>
<text text-anchor="middle" x="405" y="-7.5" font-family="Helvetica,sans-Serif" font-size="10.00">FileManager::saveData</text>
</a>
</g>
</g>
<!-- Node2 -->
<g id="node2" class="node">
<title>Node2</title>
<g id="a_node2"><a xlink:href="classFileManager.html#aebbfa817fd1a8055c738128a22fe0f6f" target="_top" xlink:title="Opens a file dialog to save the current data (coordinates).">
<polygon fill="white" stroke="black" points="168,-0.5 168,-19.5 305,-19.5 305,-0.5 168,-0.5"/>
<text text-anchor="middle" x="236.5" y="-7.5" font-family="Helvetica,sans-Serif" font-size="10.00">FileManager::saveDialog</text>
</a>
</g>
</g>
<!-- Node1&#45;&gt;Node2 -->
<g id="edge1" class="edge">
<title>Node1&#45;&gt;Node2</title>
<path fill="none" stroke="midnightblue" d="M330.42,-10C322.03,-10 313.49,-10 305.18,-10"/>
<polygon fill="midnightblue" stroke="midnightblue" points="330.58,-13.5 340.58,-10 330.58,-6.5 330.58,-13.5"/>
</g>
<!-- Node3 -->
<g id="node3" class="node">
<title>Node3</title>
<g id="a_node3"><a xlink:href="classMapViewer.html#a6690a879cd4af2058afccd2920c03c0d" target="_top" xlink:title="Constructor.">
<polygon fill="white" stroke="black" points="0,-0.5 0,-19.5 132,-19.5 132,-0.5 0,-0.5"/>
<text text-anchor="middle" x="66" y="-7.5" font-family="Helvetica,sans-Serif" font-size="10.00">MapViewer::MapViewer</text>
</a>
</g>
</g>
<!-- Node2&#45;&gt;Node3 -->
<g id="edge2" class="edge">
<title>Node2&#45;&gt;Node3</title>
<path fill="none" stroke="midnightblue" d="M157.88,-10C149.27,-10 140.55,-10 132.11,-10"/>
<polygon fill="midnightblue" stroke="midnightblue" points="157.94,-13.5 167.94,-10 157.94,-6.5 157.94,-13.5"/>
</g>
</g>
</svg>
