<?xml version="1.0" encoding="UTF-8" standalone="no"?>
<!DOCTYPE svg PUBLIC "-//W3C//DTD SVG 1.1//EN"
 "http://www.w3.org/Graphics/SVG/1.1/DTD/svg11.dtd">
<!-- Generated by graphviz version 2.43.0 (0)
 -->
<!-- Title: LiveMap::getIsActive Pages: 1 -->
<svg width="468pt" height="78pt"
 viewBox="0.00 0.00 468.00 77.50" xmlns="http://www.w3.org/2000/svg" xmlns:xlink="http://www.w3.org/1999/xlink">
<g id="graph0" class="graph" transform="scale(1 1) rotate(0) translate(4 73.5)">
<title>LiveMap::getIsActive</title>
<polygon fill="white" stroke="transparent" points="-4,4 -4,-73.5 464,-73.5 464,4 -4,4"/>
<!-- Node1 -->
<g id="node1" class="node">
<title>Node1</title>
<g id="a_node1"><a xlink:title="Returns whether live mode is currently active.">
<polygon fill="#bfbfbf" stroke="black" points="341,-28 341,-47 460,-47 460,-28 341,-28"/>
<text text-anchor="middle" x="400.5" y="-35" font-family="Helvetica,sans-Serif" font-size="10.00">LiveMap::getIsActive</text>
</a>
</g>
</g>
<!-- Node2 -->
<g id="node2" class="node">
<title>Node2</title>
<g id="a_node2"><a xlink:href="classRightClickMapMenu.html#add5bb68773931eb8ba5cd455e6847dba" target="_top" xlink:title="Connects internal widget signals to their callbacks (e.g., button clicks).">
<polygon fill="white" stroke="black" points="176.5,-0.5 176.5,-30.5 296.5,-30.5 296.5,-0.5 176.5,-0.5"/>
<text text-anchor="start" x="184.5" y="-18.5" font-family="Helvetica,sans-Serif" font-size="10.00">RightClickMapMenu::</text>
<text text-anchor="middle" x="236.5" y="-7.5" font-family="Helvetica,sans-Serif" font-size="10.00">connectSignals</text>
</a>
</g>
</g>
<!-- Node1&#45;&gt;Node2 -->
<g id="edge1" class="edge">
<title>Node1&#45;&gt;Node2</title>
<path fill="none" stroke="midnightblue" d="M330.37,-28.11C319.15,-26.59 307.62,-25.02 296.67,-23.54"/>
<polygon fill="midnightblue" stroke="midnightblue" points="330.18,-31.62 340.56,-29.5 331.12,-24.68 330.18,-31.62"/>
</g>
<!-- Node5 -->
<g id="node5" class="node">
<title>Node5</title>
<g id="a_node5"><a xlink:href="classFileManager.html#aebbfa817fd1a8055c738128a22fe0f6f" target="_top" xlink:title="Opens a file dialog to save the current data (coordinates).">
<polygon fill="white" stroke="black" points="168,-50 168,-69 305,-69 305,-50 168,-50"/>
<text text-anchor="middle" x="236.5" y="-57" font-family="Helvetica,sans-Serif" font-size="10.00">FileManager::saveDialog</text>
</a>
</g>
</g>
<!-- Node1&#45;&gt;Node5 -->
<g id="edge4" class="edge">
<title>Node1&#45;&gt;Node5</title>
<path fill="none" stroke="midnightblue" d="M330.46,-46.88C322.09,-48.01 313.54,-49.17 305.19,-50.31"/>
<polygon fill="midnightblue" stroke="midnightblue" points="331.12,-50.32 340.56,-45.5 330.18,-43.38 331.12,-50.32"/>
</g>
<!-- Node3 -->
<g id="node3" class="node">
<title>Node3</title>
<g id="a_node3"><a xlink:href="classMapViewer.html#a6690a879cd4af2058afccd2920c03c0d" target="_top" xlink:title="Constructor.">
<polygon fill="white" stroke="black" points="0,-50 0,-69 132,-69 132,-50 0,-50"/>
<text text-anchor="middle" x="66" y="-57" font-family="Helvetica,sans-Serif" font-size="10.00">MapViewer::MapViewer</text>
</a>
</g>
</g>
<!-- Node2&#45;&gt;Node3 -->
<g id="edge2" class="edge">
<title>Node2&#45;&gt;Node3</title>
<path fill="none" stroke="midnightblue" d="M168.28,-33.05C146.15,-38.83 122.38,-45.04 103.43,-49.99"/>
<polygon fill="midnightblue" stroke="midnightblue" points="169.19,-36.43 177.98,-30.52 167.42,-29.66 169.19,-36.43"/>
</g>
<!-- Node4 -->
<g id="node4" class="node">
<title>Node4</title>
<g id="a_node4"><a xlink:href="classRightClickMapMenu.html#a99fb3feef15efd62845960340c4ca0fa" target="_top" xlink:title="Constructor: initializes the menu with references to the TGUI GUI system and map instances.">
<polygon fill="white" stroke="black" points="6,-0.5 6,-30.5 126,-30.5 126,-0.5 6,-0.5"/>
<text text-anchor="start" x="14" y="-18.5" font-family="Helvetica,sans-Serif" font-size="10.00">RightClickMapMenu::</text>
<text text-anchor="middle" x="66" y="-7.5" font-family="Helvetica,sans-Serif" font-size="10.00">RightClickMapMenu</text>
</a>
</g>
</g>
<!-- Node2&#45;&gt;Node4 -->
<g id="edge3" class="edge">
<title>Node2&#45;&gt;Node4</title>
<path fill="none" stroke="midnightblue" d="M166.08,-15.5C152.82,-15.5 139.05,-15.5 126.15,-15.5"/>
<polygon fill="midnightblue" stroke="midnightblue" points="166.09,-19 176.09,-15.5 166.09,-12 166.09,-19"/>
</g>
<!-- Node5&#45;&gt;Node3 -->
<g id="edge5" class="edge">
<title>Node5&#45;&gt;Node3</title>
<path fill="none" stroke="midnightblue" d="M157.88,-59.5C149.27,-59.5 140.55,-59.5 132.11,-59.5"/>
<polygon fill="midnightblue" stroke="midnightblue" points="157.94,-63 167.94,-59.5 157.94,-56 157.94,-63"/>
</g>
</g>
</svg>
