<?xml version="1.0" encoding="UTF-8" standalone="no"?>
<!DOCTYPE svg PUBLIC "-//W3C//DTD SVG 1.1//EN"
 "http://www.w3.org/Graphics/SVG/1.1/DTD/svg11.dtd">
<!-- Generated by graphviz version 2.43.0 (0)
 -->
<!-- Title: AStar::octileHeuristic Pages: 1 -->
<svg width="479pt" height="104pt"
 viewBox="0.00 0.00 479.00 104.00" xmlns="http://www.w3.org/2000/svg" xmlns:xlink="http://www.w3.org/1999/xlink">
<g id="graph0" class="graph" transform="scale(1 1) rotate(0) translate(4 100)">
<title>AStar::octileHeuristic</title>
<polygon fill="white" stroke="transparent" points="-4,4 -4,-100 475,-100 475,4 -4,4"/>
<!-- Node1 -->
<g id="node1" class="node">
<title>Node1</title>
<g id="a_node1"><a xlink:title="Octile distance heuristic (better suited for 8&#45;connected grids).">
<polygon fill="#bfbfbf" stroke="black" points="352,-38.5 352,-57.5 471,-57.5 471,-38.5 352,-38.5"/>
<text text-anchor="middle" x="411.5" y="-45.5" font-family="Helvetica,sans-Serif" font-size="10.00">AStar::octileHeuristic</text>
</a>
</g>
</g>
<!-- Node2 -->
<g id="node2" class="node">
<title>Node2</title>
<g id="a_node2"><a xlink:href="classAStar.html#addce30fb4dd4735c1e0275b93324b2cc" target="_top" xlink:title="Initializes the A* algorithm.">
<polygon fill="white" stroke="black" points="245,-57.5 245,-76.5 316,-76.5 316,-57.5 245,-57.5"/>
<text text-anchor="middle" x="280.5" y="-64.5" font-family="Helvetica,sans-Serif" font-size="10.00">AStar::start</text>
</a>
</g>
</g>
<!-- Node1&#45;&gt;Node2 -->
<g id="edge1" class="edge">
<title>Node1&#45;&gt;Node2</title>
<path fill="none" stroke="midnightblue" d="M341.72,-58.13C332.92,-59.43 324.22,-60.71 316.3,-61.87"/>
<polygon fill="midnightblue" stroke="midnightblue" points="342.28,-61.59 351.66,-56.67 341.26,-54.66 342.28,-61.59"/>
</g>
<!-- Node5 -->
<g id="node5" class="node">
<title>Node5</title>
<g id="a_node5"><a xlink:href="classAStar.html#a0c3d34d32a97828112f6ee453e75121b" target="_top" xlink:title="Performs one step of the A* algorithm.">
<polygon fill="white" stroke="black" points="245.5,-19.5 245.5,-38.5 315.5,-38.5 315.5,-19.5 245.5,-19.5"/>
<text text-anchor="middle" x="280.5" y="-26.5" font-family="Helvetica,sans-Serif" font-size="10.00">AStar::step</text>
</a>
</g>
</g>
<!-- Node1&#45;&gt;Node5 -->
<g id="edge4" class="edge">
<title>Node1&#45;&gt;Node5</title>
<path fill="none" stroke="midnightblue" d="M341.5,-37.84C332.51,-36.51 323.63,-35.21 315.58,-34.02"/>
<polygon fill="midnightblue" stroke="midnightblue" points="341.26,-41.34 351.66,-39.33 342.28,-34.41 341.26,-41.34"/>
</g>
<!-- Node3 -->
<g id="node3" class="node">
<title>Node3</title>
<g id="a_node3"><a xlink:href="classAStar.html#ac1635080ee8fbca765f9bfd83ce2c4d2" target="_top" xlink:title="Executes the full A* algorithm from start to goal in one call.">
<polygon fill="white" stroke="black" points="98.5,-38.5 98.5,-57.5 187.5,-57.5 187.5,-38.5 98.5,-38.5"/>
<text text-anchor="middle" x="143" y="-45.5" font-family="Helvetica,sans-Serif" font-size="10.00">AStar::findPath</text>
</a>
</g>
</g>
<!-- Node2&#45;&gt;Node3 -->
<g id="edge2" class="edge">
<title>Node2&#45;&gt;Node3</title>
<path fill="none" stroke="midnightblue" d="M234.8,-60.73C219.66,-58.61 202.78,-56.24 187.72,-54.13"/>
<polygon fill="midnightblue" stroke="midnightblue" points="234.57,-64.23 244.96,-62.16 235.54,-57.3 234.57,-64.23"/>
</g>
<!-- Node4 -->
<g id="node4" class="node">
<title>Node4</title>
<g id="a_node4"><a xlink:href="classMapViewer.html#a6690a879cd4af2058afccd2920c03c0d" target="_top" xlink:title="Constructor.">
<polygon fill="white" stroke="black" points="77,-76.5 77,-95.5 209,-95.5 209,-76.5 77,-76.5"/>
<text text-anchor="middle" x="143" y="-83.5" font-family="Helvetica,sans-Serif" font-size="10.00">MapViewer::MapViewer</text>
</a>
</g>
</g>
<!-- Node2&#45;&gt;Node4 -->
<g id="edge3" class="edge">
<title>Node2&#45;&gt;Node4</title>
<path fill="none" stroke="midnightblue" d="M234.82,-73.27C226.56,-74.42 217.78,-75.66 209.06,-76.88"/>
<polygon fill="midnightblue" stroke="midnightblue" points="235.54,-76.7 244.96,-71.84 234.57,-69.77 235.54,-76.7"/>
</g>
<!-- Node5&#45;&gt;Node3 -->
<g id="edge5" class="edge">
<title>Node5&#45;&gt;Node3</title>
<path fill="none" stroke="midnightblue" d="M235.1,-35.23C219.87,-37.36 202.85,-39.75 187.68,-41.87"/>
<polygon fill="midnightblue" stroke="midnightblue" points="235.89,-38.65 245.31,-33.79 234.92,-31.72 235.89,-38.65"/>
</g>
<!-- Node6 -->
<g id="node6" class="node">
<title>Node6</title>
<g id="a_node6"><a xlink:href="classMapViewer.html#a323a6ee85f1257b6e7c758ebf3d694bd" target="_top" xlink:title="Manages logic updates and user interaction.">
<polygon fill="white" stroke="black" points="87.5,-0.5 87.5,-19.5 198.5,-19.5 198.5,-0.5 87.5,-0.5"/>
<text text-anchor="middle" x="143" y="-7.5" font-family="Helvetica,sans-Serif" font-size="10.00">MapViewer::update</text>
</a>
</g>
</g>
<!-- Node5&#45;&gt;Node6 -->
<g id="edge6" class="edge">
<title>Node5&#45;&gt;Node6</title>
<path fill="none" stroke="midnightblue" d="M235.36,-22.81C223.67,-21.17 210.92,-19.38 198.75,-17.68"/>
<polygon fill="midnightblue" stroke="midnightblue" points="234.92,-26.28 245.31,-24.21 235.89,-19.35 234.92,-26.28"/>
</g>
<!-- Node7 -->
<g id="node7" class="node">
<title>Node7</title>
<g id="a_node7"><a xlink:href="main_8cpp.html#a3c04138a5bfe5d72780bb7e82a18e627" target="_top" xlink:title="Main entry point for the ARTG SLAM visualization node.">
<polygon fill="white" stroke="black" points="0,-0.5 0,-19.5 41,-19.5 41,-0.5 0,-0.5"/>
<text text-anchor="middle" x="20.5" y="-7.5" font-family="Helvetica,sans-Serif" font-size="10.00">main</text>
</a>
</g>
</g>
<!-- Node6&#45;&gt;Node7 -->
<g id="edge7" class="edge">
<title>Node6&#45;&gt;Node7</title>
<path fill="none" stroke="midnightblue" d="M77.27,-10C64.05,-10 51.12,-10 41.04,-10"/>
<polygon fill="midnightblue" stroke="midnightblue" points="77.39,-13.5 87.39,-10 77.39,-6.5 77.39,-13.5"/>
</g>
</g>
</svg>
