<?xml version="1.0" encoding="UTF-8" standalone="no"?>
<!DOCTYPE svg PUBLIC "-//W3C//DTD SVG 1.1//EN"
 "http://www.w3.org/Graphics/SVG/1.1/DTD/svg11.dtd">
<!-- Generated by graphviz version 2.43.0 (0)
 -->
<!-- Title: Node::fCost Pages: 1 -->
<svg width="440pt" height="85pt"
 viewBox="0.00 0.00 440.00 85.00" xmlns="http://www.w3.org/2000/svg" xmlns:xlink="http://www.w3.org/1999/xlink">
<g id="graph0" class="graph" transform="scale(1 1) rotate(0) translate(4 81)">
<title>Node::fCost</title>
<polygon fill="white" stroke="transparent" points="-4,4 -4,-81 436,-81 436,4 -4,4"/>
<!-- Node1 -->
<g id="node1" class="node">
<title>Node1</title>
<g id="a_node1"><a xlink:title="Returns the total estimated cost (f&#45;cost) of the node: f = g + h.">
<polygon fill="#bfbfbf" stroke="black" points="358,-38.5 358,-57.5 432,-57.5 432,-38.5 358,-38.5"/>
<text text-anchor="middle" x="395" y="-45.5" font-family="Helvetica,sans-Serif" font-size="10.00">Node::fCost</text>
</a>
</g>
</g>
<!-- Node2 -->
<g id="node2" class="node">
<title>Node2</title>
<g id="a_node2"><a xlink:href="classNode.html#ad258e5e22898c8232316d8e2a8c10456" target="_top" xlink:title="Comparison operator for use with priority queues (min&#45;heap).">
<polygon fill="white" stroke="black" points="224,-57.5 224,-76.5 322,-76.5 322,-57.5 224,-57.5"/>
<text text-anchor="middle" x="273" y="-64.5" font-family="Helvetica,sans-Serif" font-size="10.00">Node::operator&gt;</text>
</a>
</g>
</g>
<!-- Node1&#45;&gt;Node2 -->
<g id="edge1" class="edge">
<title>Node1&#45;&gt;Node2</title>
<path fill="none" stroke="midnightblue" d="M348.01,-55.28C339.63,-56.61 330.86,-58 322.41,-59.33"/>
<polygon fill="midnightblue" stroke="midnightblue" points="348.67,-58.72 358,-53.7 347.57,-51.81 348.67,-58.72"/>
</g>
<!-- Node3 -->
<g id="node3" class="node">
<title>Node3</title>
<g id="a_node3"><a xlink:href="classAStar.html#a0c3d34d32a97828112f6ee453e75121b" target="_top" xlink:title="Performs one step of the A* algorithm.">
<polygon fill="white" stroke="black" points="238,-19.5 238,-38.5 308,-38.5 308,-19.5 238,-19.5"/>
<text text-anchor="middle" x="273" y="-26.5" font-family="Helvetica,sans-Serif" font-size="10.00">AStar::step</text>
</a>
</g>
</g>
<!-- Node1&#45;&gt;Node3 -->
<g id="edge2" class="edge">
<title>Node1&#45;&gt;Node3</title>
<path fill="none" stroke="midnightblue" d="M347.73,-40.67C334.63,-38.6 320.6,-36.38 308.33,-34.44"/>
<polygon fill="midnightblue" stroke="midnightblue" points="347.57,-44.19 358,-42.3 348.67,-37.28 347.57,-44.19"/>
</g>
<!-- Node4 -->
<g id="node4" class="node">
<title>Node4</title>
<g id="a_node4"><a xlink:href="classAStar.html#ac1635080ee8fbca765f9bfd83ce2c4d2" target="_top" xlink:title="Executes the full A* algorithm from start to goal in one call.">
<polygon fill="white" stroke="black" points="88,-38.5 88,-57.5 177,-57.5 177,-38.5 88,-38.5"/>
<text text-anchor="middle" x="132.5" y="-45.5" font-family="Helvetica,sans-Serif" font-size="10.00">AStar::findPath</text>
</a>
</g>
</g>
<!-- Node3&#45;&gt;Node4 -->
<g id="edge3" class="edge">
<title>Node3&#45;&gt;Node4</title>
<path fill="none" stroke="midnightblue" d="M227.49,-35.11C211.33,-37.32 193.11,-39.82 177.04,-42.03"/>
<polygon fill="midnightblue" stroke="midnightblue" points="228.33,-38.52 237.76,-33.7 227.38,-31.59 228.33,-38.52"/>
</g>
<!-- Node5 -->
<g id="node5" class="node">
<title>Node5</title>
<g id="a_node5"><a xlink:href="classMapViewer.html#a323a6ee85f1257b6e7c758ebf3d694bd" target="_top" xlink:title="Manages logic updates and user interaction.">
<polygon fill="white" stroke="black" points="77,-0.5 77,-19.5 188,-19.5 188,-0.5 77,-0.5"/>
<text text-anchor="middle" x="132.5" y="-7.5" font-family="Helvetica,sans-Serif" font-size="10.00">MapViewer::update</text>
</a>
</g>
</g>
<!-- Node3&#45;&gt;Node5 -->
<g id="edge4" class="edge">
<title>Node3&#45;&gt;Node5</title>
<path fill="none" stroke="midnightblue" d="M227.55,-22.9C214.99,-21.18 201.18,-19.28 188.09,-17.49"/>
<polygon fill="midnightblue" stroke="midnightblue" points="227.38,-26.41 237.76,-24.3 228.33,-19.48 227.38,-26.41"/>
</g>
<!-- Node6 -->
<g id="node6" class="node">
<title>Node6</title>
<g id="a_node6"><a xlink:href="main_8cpp.html#a3c04138a5bfe5d72780bb7e82a18e627" target="_top" xlink:title="Main entry point for the ARTG SLAM visualization node.">
<polygon fill="white" stroke="black" points="0,-0.5 0,-19.5 41,-19.5 41,-0.5 0,-0.5"/>
<text text-anchor="middle" x="20.5" y="-7.5" font-family="Helvetica,sans-Serif" font-size="10.00">main</text>
</a>
</g>
</g>
<!-- Node5&#45;&gt;Node6 -->
<g id="edge5" class="edge">
<title>Node5&#45;&gt;Node6</title>
<path fill="none" stroke="midnightblue" d="M66.64,-10C57.35,-10 48.45,-10 41.05,-10"/>
<polygon fill="midnightblue" stroke="midnightblue" points="66.82,-13.5 76.82,-10 66.82,-6.5 66.82,-13.5"/>
</g>
</g>
</svg>
