<?xml version="1.0" encoding="UTF-8" standalone="no"?>
<!DOCTYPE svg PUBLIC "-//W3C//DTD SVG 1.1//EN"
 "http://www.w3.org/Graphics/SVG/1.1/DTD/svg11.dtd">
<!-- Generated by graphviz version 2.43.0 (0)
 -->
<!-- Title: UnicicleWmr::reset Pages: 1 -->
<svg width="294pt" height="66pt"
 viewBox="0.00 0.00 294.00 66.00" xmlns="http://www.w3.org/2000/svg" xmlns:xlink="http://www.w3.org/1999/xlink">
<g id="graph0" class="graph" transform="scale(1 1) rotate(0) translate(4 62)">
<title>UnicicleWmr::reset</title>
<polygon fill="white" stroke="transparent" points="-4,4 -4,-62 290,-62 290,4 -4,4"/>
<!-- Node1 -->
<g id="node1" class="node">
<title>Node1</title>
<g id="a_node1"><a xlink:title="Resets the robot pose and velocities.">
<polygon fill="#bfbfbf" stroke="black" points="0,-19.5 0,-38.5 110,-38.5 110,-19.5 0,-19.5"/>
<text text-anchor="middle" x="55" y="-26.5" font-family="Helvetica,sans-Serif" font-size="10.00">UnicicleWmr::reset</text>
</a>
</g>
</g>
<!-- Node2 -->
<g id="node2" class="node">
<title>Node2</title>
<g id="a_node2"><a xlink:href="classUnicicleWmr.html#afc2d48283645201bac1bf69310b967ed" target="_top" xlink:title="Sets the robot&#39;s pose.">
<polygon fill="white" stroke="black" points="154.5,-38.5 154.5,-57.5 277.5,-57.5 277.5,-38.5 154.5,-38.5"/>
<text text-anchor="middle" x="216" y="-45.5" font-family="Helvetica,sans-Serif" font-size="10.00">UnicicleWmr::setPose</text>
</a>
</g>
</g>
<!-- Node1&#45;&gt;Node2 -->
<g id="edge1" class="edge">
<title>Node1&#45;&gt;Node2</title>
<path fill="none" stroke="midnightblue" d="M110.27,-35.49C121.27,-36.8 132.98,-38.2 144.44,-39.57"/>
<polygon fill="midnightblue" stroke="midnightblue" points="144.08,-43.05 154.42,-40.76 144.91,-36.1 144.08,-43.05"/>
</g>
<!-- Node3 -->
<g id="node3" class="node">
<title>Node3</title>
<g id="a_node3"><a xlink:href="classUnicicleWmr.html#aefb8cacc4cf6bb5a77f76bbbb6d6048a" target="_top" xlink:title="Sets the linear and angular velocity of the robot.">
<polygon fill="white" stroke="black" points="146,-0.5 146,-19.5 286,-19.5 286,-0.5 146,-0.5"/>
<text text-anchor="middle" x="216" y="-7.5" font-family="Helvetica,sans-Serif" font-size="10.00">UnicicleWmr::setVelocity</text>
</a>
</g>
</g>
<!-- Node1&#45;&gt;Node3 -->
<g id="edge2" class="edge">
<title>Node1&#45;&gt;Node3</title>
<path fill="none" stroke="midnightblue" d="M110.27,-22.51C118.49,-21.53 127.1,-20.5 135.71,-19.48"/>
<polygon fill="midnightblue" stroke="midnightblue" points="136.27,-22.93 145.79,-18.27 135.44,-15.98 136.27,-22.93"/>
</g>
</g>
</svg>
