<?xml version="1.0" encoding="UTF-8" standalone="no"?>
<!DOCTYPE svg PUBLIC "-//W3C//DTD SVG 1.1//EN"
 "http://www.w3.org/Graphics/SVG/1.1/DTD/svg11.dtd">
<!-- Generated by graphviz version 2.43.0 (0)
 -->
<!-- Title: RightClickMapMenu::RightClickMapMenu Pages: 1 -->
<svg width="461pt" height="180pt"
 viewBox="0.00 0.00 461.00 180.00" xmlns="http://www.w3.org/2000/svg" xmlns:xlink="http://www.w3.org/1999/xlink">
<g id="graph0" class="graph" transform="scale(1 1) rotate(0) translate(4 176)">
<title>RightClickMapMenu::RightClickMapMenu</title>
<polygon fill="white" stroke="transparent" points="-4,4 -4,-176 457,-176 457,4 -4,4"/>
<!-- Node1 -->
<g id="node1" class="node">
<title>Node1</title>
<g id="a_node1"><a xlink:title="Constructor: initializes the menu with references to the TGUI GUI system and map instances.">
<polygon fill="#bfbfbf" stroke="black" points="0,-46 0,-76 120,-76 120,-46 0,-46"/>
<text text-anchor="start" x="8" y="-64" font-family="Helvetica,sans-Serif" font-size="10.00">RightClickMapMenu::</text>
<text text-anchor="middle" x="60" y="-53" font-family="Helvetica,sans-Serif" font-size="10.00">RightClickMapMenu</text>
</a>
</g>
</g>
<!-- Node2 -->
<g id="node2" class="node">
<title>Node2</title>
<g id="a_node2"><a xlink:href="classRightClickMapMenu.html#add5bb68773931eb8ba5cd455e6847dba" target="_top" xlink:title="Connects internal widget signals to their callbacks (e.g., button clicks).">
<polygon fill="white" stroke="black" points="156,-71 156,-101 276,-101 276,-71 156,-71"/>
<text text-anchor="start" x="164" y="-89" font-family="Helvetica,sans-Serif" font-size="10.00">RightClickMapMenu::</text>
<text text-anchor="middle" x="216" y="-78" font-family="Helvetica,sans-Serif" font-size="10.00">connectSignals</text>
</a>
</g>
</g>
<!-- Node1&#45;&gt;Node2 -->
<g id="edge1" class="edge">
<title>Node1&#45;&gt;Node2</title>
<path fill="none" stroke="midnightblue" d="M120.1,-70.59C128.51,-71.96 137.23,-73.37 145.81,-74.77"/>
<polygon fill="midnightblue" stroke="midnightblue" points="145.37,-78.24 155.8,-76.39 146.49,-71.33 145.37,-78.24"/>
</g>
<!-- Node8 -->
<g id="node8" class="node">
<title>Node8</title>
<g id="a_node8"><a xlink:href="classRightClickMapMenu.html#ad63b3f74c4414abe368d6580ea5ae099" target="_top" xlink:title="Sets up the menu layout and widgets (start, goal, clear, etc.).">
<polygon fill="white" stroke="black" points="156,-22 156,-52 276,-52 276,-22 156,-22"/>
<text text-anchor="start" x="164" y="-40" font-family="Helvetica,sans-Serif" font-size="10.00">RightClickMapMenu::</text>
<text text-anchor="middle" x="216" y="-29" font-family="Helvetica,sans-Serif" font-size="10.00">setupWidgets</text>
</a>
</g>
</g>
<!-- Node1&#45;&gt;Node8 -->
<g id="edge7" class="edge">
<title>Node1&#45;&gt;Node8</title>
<path fill="none" stroke="midnightblue" d="M120.1,-51.79C128.51,-50.48 137.23,-49.12 145.81,-47.78"/>
<polygon fill="midnightblue" stroke="midnightblue" points="146.46,-51.22 155.8,-46.23 145.38,-44.31 146.46,-51.22"/>
</g>
<!-- Node3 -->
<g id="node3" class="node">
<title>Node3</title>
<g id="a_node3"><a xlink:href="classGridMap.html#a3d6043e9e2cd951f5df2958b9d13b3e9" target="_top" xlink:title="Clear start or goal markers from a cell.">
<polygon fill="white" stroke="black" points="315.5,-152.5 315.5,-171.5 449.5,-171.5 449.5,-152.5 315.5,-152.5"/>
<text text-anchor="middle" x="382.5" y="-159.5" font-family="Helvetica,sans-Serif" font-size="10.00">GridMap::clearSetPoints</text>
</a>
</g>
</g>
<!-- Node2&#45;&gt;Node3 -->
<g id="edge2" class="edge">
<title>Node2&#45;&gt;Node3</title>
<path fill="none" stroke="midnightblue" d="M238.36,-101.14C257.04,-113.81 285.29,-131.59 312,-143 317.53,-145.36 323.43,-147.5 329.37,-149.43"/>
<polygon fill="midnightblue" stroke="midnightblue" points="328.75,-152.9 339.34,-152.46 330.79,-146.2 328.75,-152.9"/>
</g>
<!-- Node4 -->
<g id="node4" class="node">
<title>Node4</title>
<g id="a_node4"><a xlink:href="classLiveMap.html#ae9af41b07f81f3dc2e021d5dd683093e" target="_top" xlink:title="Returns whether live mode is currently active.">
<polygon fill="white" stroke="black" points="323,-114.5 323,-133.5 442,-133.5 442,-114.5 323,-114.5"/>
<text text-anchor="middle" x="382.5" y="-121.5" font-family="Helvetica,sans-Serif" font-size="10.00">LiveMap::getIsActive</text>
</a>
</g>
</g>
<!-- Node2&#45;&gt;Node4 -->
<g id="edge3" class="edge">
<title>Node2&#45;&gt;Node4</title>
<path fill="none" stroke="midnightblue" d="M276.39,-99.72C294.08,-103.81 313.31,-108.25 330.42,-112.2"/>
<polygon fill="midnightblue" stroke="midnightblue" points="329.7,-115.63 340.23,-114.47 331.27,-108.81 329.7,-115.63"/>
</g>
<!-- Node5 -->
<g id="node5" class="node">
<title>Node5</title>
<g id="a_node5"><a xlink:href="classRightClickMapMenu.html#a2c5b4eeacd87606b754a6d190252acef" target="_top" xlink:title="Hides the context menu.">
<polygon fill="white" stroke="black" points="312,-76.5 312,-95.5 453,-95.5 453,-76.5 312,-76.5"/>
<text text-anchor="middle" x="382.5" y="-83.5" font-family="Helvetica,sans-Serif" font-size="10.00">RightClickMapMenu::hide</text>
</a>
</g>
</g>
<!-- Node2&#45;&gt;Node5 -->
<g id="edge4" class="edge">
<title>Node2&#45;&gt;Node5</title>
<path fill="none" stroke="midnightblue" d="M276.39,-86C284.66,-86 293.26,-86 301.83,-86"/>
<polygon fill="midnightblue" stroke="midnightblue" points="301.84,-89.5 311.84,-86 301.84,-82.5 301.84,-89.5"/>
</g>
<!-- Node6 -->
<g id="node6" class="node">
<title>Node6</title>
<g id="a_node6"><a xlink:href="classGridMap.html#a063197bc2b493578f0da0905a2e7dd90" target="_top" xlink:title="Set the goal point in the grid (stored as ASCII &#39;g&#39;).">
<polygon fill="white" stroke="black" points="332,-38.5 332,-57.5 433,-57.5 433,-38.5 332,-38.5"/>
<text text-anchor="middle" x="382.5" y="-45.5" font-family="Helvetica,sans-Serif" font-size="10.00">GridMap::setGoal</text>
</a>
</g>
</g>
<!-- Node2&#45;&gt;Node6 -->
<g id="edge5" class="edge">
<title>Node2&#45;&gt;Node6</title>
<path fill="none" stroke="midnightblue" d="M276.39,-72.28C294.08,-68.19 313.31,-63.75 330.42,-59.8"/>
<polygon fill="midnightblue" stroke="midnightblue" points="331.27,-63.19 340.23,-57.53 329.7,-56.37 331.27,-63.19"/>
</g>
<!-- Node7 -->
<g id="node7" class="node">
<title>Node7</title>
<g id="a_node7"><a xlink:href="classLiveMap.html#a347e694d1d773cd4b6dae3619ece738e" target="_top" xlink:title="Sets a special goal cell in the grid (value = &#39;g&#39;)">
<polygon fill="white" stroke="black" points="332,-0.5 332,-19.5 433,-19.5 433,-0.5 332,-0.5"/>
<text text-anchor="middle" x="382.5" y="-7.5" font-family="Helvetica,sans-Serif" font-size="10.00">LiveMap::setGoal</text>
</a>
</g>
</g>
<!-- Node2&#45;&gt;Node7 -->
<g id="edge6" class="edge">
<title>Node2&#45;&gt;Node7</title>
<path fill="none" stroke="midnightblue" d="M259.5,-70.86C265.21,-68.21 270.86,-65.25 276,-62 294.34,-50.39 293,-39.49 312,-29 316.16,-26.7 320.62,-24.67 325.19,-22.87"/>
<polygon fill="midnightblue" stroke="midnightblue" points="326.43,-26.14 334.69,-19.5 324.09,-19.55 326.43,-26.14"/>
</g>
</g>
</svg>
