<?xml version="1.0" encoding="UTF-8" standalone="no"?>
<!DOCTYPE svg PUBLIC "-//W3C//DTD SVG 1.1//EN"
 "http://www.w3.org/Graphics/SVG/1.1/DTD/svg11.dtd">
<!-- Generated by graphviz version 2.43.0 (0)
 -->
<!-- Title: ViewController::getPixelsPerMeter Pages: 1 -->
<svg width="535pt" height="53pt"
 viewBox="0.00 0.00 535.00 52.50" xmlns="http://www.w3.org/2000/svg" xmlns:xlink="http://www.w3.org/1999/xlink">
<g id="graph0" class="graph" transform="scale(1 1) rotate(0) translate(4 48.5)">
<title>ViewController::getPixelsPerMeter</title>
<polygon fill="white" stroke="transparent" points="-4,4 -4,-48.5 531,-48.5 531,4 -4,4"/>
<!-- Node1 -->
<g id="node1" class="node">
<title>Node1</title>
<g id="a_node1"><a xlink:title="Returns the pixels per meter scale factor.">
<polygon fill="#bfbfbf" stroke="black" points="387,-0.5 387,-30.5 527,-30.5 527,-0.5 387,-0.5"/>
<text text-anchor="start" x="395" y="-18.5" font-family="Helvetica,sans-Serif" font-size="10.00">ViewController::getPixels</text>
<text text-anchor="middle" x="457" y="-7.5" font-family="Helvetica,sans-Serif" font-size="10.00">PerMeter</text>
</a>
</g>
</g>
<!-- Node2 -->
<g id="node2" class="node">
<title>Node2</title>
<g id="a_node2"><a xlink:href="classLiveMap.html#a0157071646700aba0cbb45a6767b7487" target="_top" xlink:title="Draws the live grid using the ViewController.">
<polygon fill="white" stroke="black" points="222,-25 222,-44 351,-44 351,-25 222,-25"/>
<text text-anchor="middle" x="286.5" y="-32" font-family="Helvetica,sans-Serif" font-size="10.00">LiveMap::drawLiveMap</text>
</a>
</g>
</g>
<!-- Node1&#45;&gt;Node2 -->
<g id="edge1" class="edge">
<title>Node1&#45;&gt;Node2</title>
<path fill="none" stroke="midnightblue" d="M376.93,-24.42C368.33,-25.39 359.65,-26.36 351.26,-27.31"/>
<polygon fill="midnightblue" stroke="midnightblue" points="377.43,-27.88 386.98,-23.28 376.65,-20.93 377.43,-27.88"/>
</g>
<!-- Node3 -->
<g id="node3" class="node">
<title>Node3</title>
<g id="a_node3"><a xlink:href="classMapViewer.html#a7eaeb9b44dd34c1865462914957a6aac" target="_top" xlink:title="Renders all visual components to the screen.">
<polygon fill="white" stroke="black" points="77,-6 77,-25 186,-25 186,-6 77,-6"/>
<text text-anchor="middle" x="131.5" y="-13" font-family="Helvetica,sans-Serif" font-size="10.00">MapViewer::render</text>
</a>
</g>
</g>
<!-- Node1&#45;&gt;Node3 -->
<g id="edge4" class="edge">
<title>Node1&#45;&gt;Node3</title>
<path fill="none" stroke="midnightblue" d="M376.93,-15.5C317.68,-15.5 238.19,-15.5 186.18,-15.5"/>
<polygon fill="midnightblue" stroke="midnightblue" points="377,-19 387,-15.5 377,-12 377,-19"/>
</g>
<!-- Node2&#45;&gt;Node3 -->
<g id="edge2" class="edge">
<title>Node2&#45;&gt;Node3</title>
<path fill="none" stroke="midnightblue" d="M211.89,-25.36C203.29,-24.29 194.64,-23.22 186.37,-22.19"/>
<polygon fill="midnightblue" stroke="midnightblue" points="211.59,-28.85 221.94,-26.61 212.45,-21.9 211.59,-28.85"/>
</g>
<!-- Node4 -->
<g id="node4" class="node">
<title>Node4</title>
<g id="a_node4"><a xlink:href="main_8cpp.html#a3c04138a5bfe5d72780bb7e82a18e627" target="_top" xlink:title="Main entry point for the ARTG SLAM visualization node.">
<polygon fill="white" stroke="black" points="0,-6 0,-25 41,-25 41,-6 0,-6"/>
<text text-anchor="middle" x="20.5" y="-13" font-family="Helvetica,sans-Serif" font-size="10.00">main</text>
</a>
</g>
</g>
<!-- Node3&#45;&gt;Node4 -->
<g id="edge3" class="edge">
<title>Node3&#45;&gt;Node4</title>
<path fill="none" stroke="midnightblue" d="M66.79,-15.5C57.49,-15.5 48.57,-15.5 41.14,-15.5"/>
<polygon fill="midnightblue" stroke="midnightblue" points="66.96,-19 76.96,-15.5 66.96,-12 66.96,-19"/>
</g>
</g>
</svg>
