<?xml version="1.0" encoding="UTF-8" standalone="no"?>
<!DOCTYPE svg PUBLIC "-//W3C//DTD SVG 1.1//EN"
 "http://www.w3.org/Graphics/SVG/1.1/DTD/svg11.dtd">
<!-- Generated by graphviz version 2.43.0 (0)
 -->
<!-- Title: ViewController::zoomController Pages: 1 -->
<svg width="625pt" height="28pt"
 viewBox="0.00 0.00 625.00 28.00" xmlns="http://www.w3.org/2000/svg" xmlns:xlink="http://www.w3.org/1999/xlink">
<g id="graph0" class="graph" transform="scale(1 1) rotate(0) translate(4 24)">
<title>ViewController::zoomController</title>
<polygon fill="white" stroke="transparent" points="-4,4 -4,-24 621,-24 621,4 -4,4"/>
<!-- Node1 -->
<g id="node1" class="node">
<title>Node1</title>
<g id="a_node1"><a xlink:title="Handles zoom in/out based on user input events.">
<polygon fill="#bfbfbf" stroke="black" points="447,-0.5 447,-19.5 617,-19.5 617,-0.5 447,-0.5"/>
<text text-anchor="middle" x="532" y="-7.5" font-family="Helvetica,sans-Serif" font-size="10.00">ViewController::zoomController</text>
</a>
</g>
</g>
<!-- Node2 -->
<g id="node2" class="node">
<title>Node2</title>
<g id="a_node2"><a xlink:href="classViewController.html#ac54a72b053247207a1ee00cd07e3cb0e" target="_top" xlink:title="Handles mouse movement events for panning and zooming.">
<polygon fill="white" stroke="black" points="256,-0.5 256,-19.5 411,-19.5 411,-0.5 256,-0.5"/>
<text text-anchor="middle" x="333.5" y="-7.5" font-family="Helvetica,sans-Serif" font-size="10.00">ViewController::handleEvent</text>
</a>
</g>
</g>
<!-- Node1&#45;&gt;Node2 -->
<g id="edge1" class="edge">
<title>Node1&#45;&gt;Node2</title>
<path fill="none" stroke="midnightblue" d="M436.74,-10C428.13,-10 419.48,-10 411.06,-10"/>
<polygon fill="midnightblue" stroke="midnightblue" points="436.81,-13.5 446.81,-10 436.81,-6.5 436.81,-13.5"/>
</g>
<!-- Node3 -->
<g id="node3" class="node">
<title>Node3</title>
<g id="a_node3"><a xlink:href="classMapViewer.html#abcde24a9cc11f7e9ea3e6ef0d7ed6063" target="_top" xlink:title="Handles input events (mouse and keyboard)">
<polygon fill="white" stroke="black" points="77,-0.5 77,-19.5 220,-19.5 220,-0.5 77,-0.5"/>
<text text-anchor="middle" x="148.5" y="-7.5" font-family="Helvetica,sans-Serif" font-size="10.00">MapViewer::processEvent</text>
</a>
</g>
</g>
<!-- Node2&#45;&gt;Node3 -->
<g id="edge2" class="edge">
<title>Node2&#45;&gt;Node3</title>
<path fill="none" stroke="midnightblue" d="M245.89,-10C237.28,-10 228.61,-10 220.19,-10"/>
<polygon fill="midnightblue" stroke="midnightblue" points="245.95,-13.5 255.95,-10 245.95,-6.5 245.95,-13.5"/>
</g>
<!-- Node4 -->
<g id="node4" class="node">
<title>Node4</title>
<g id="a_node4"><a xlink:href="main_8cpp.html#a3c04138a5bfe5d72780bb7e82a18e627" target="_top" xlink:title="Main entry point for the ARTG SLAM visualization node.">
<polygon fill="white" stroke="black" points="0,-0.5 0,-19.5 41,-19.5 41,-0.5 0,-0.5"/>
<text text-anchor="middle" x="20.5" y="-7.5" font-family="Helvetica,sans-Serif" font-size="10.00">main</text>
</a>
</g>
</g>
<!-- Node3&#45;&gt;Node4 -->
<g id="edge3" class="edge">
<title>Node3&#45;&gt;Node4</title>
<path fill="none" stroke="midnightblue" d="M66.74,-10C57.29,-10 48.42,-10 41.08,-10"/>
<polygon fill="midnightblue" stroke="midnightblue" points="66.77,-13.5 76.77,-10 66.77,-6.5 66.77,-13.5"/>
</g>
</g>
</svg>
