<?xml version="1.0" encoding="UTF-8" standalone="no"?>
<!DOCTYPE svg PUBLIC "-//W3C//DTD SVG 1.1//EN"
 "http://www.w3.org/Graphics/SVG/1.1/DTD/svg11.dtd">
<!-- Generated by graphviz version 2.43.0 (0)
 -->
<!-- Title: MenuBar::MenuBar Pages: 1 -->
<svg width="297pt" height="104pt"
 viewBox="0.00 0.00 297.00 104.00" xmlns="http://www.w3.org/2000/svg" xmlns:xlink="http://www.w3.org/1999/xlink">
<g id="graph0" class="graph" transform="scale(1 1) rotate(0) translate(4 100)">
<title>MenuBar::MenuBar</title>
<polygon fill="white" stroke="transparent" points="-4,4 -4,-100 293,-100 293,4 -4,4"/>
<!-- Node1 -->
<g id="node1" class="node">
<title>Node1</title>
<g id="a_node1"><a xlink:title="Constructor: initializes and places the menu elements within the given GUI.">
<polygon fill="#bfbfbf" stroke="black" points="0,-38.5 0,-57.5 110,-57.5 110,-38.5 0,-38.5"/>
<text text-anchor="middle" x="55" y="-45.5" font-family="Helvetica,sans-Serif" font-size="10.00">MenuBar::MenuBar</text>
</a>
</g>
</g>
<!-- Node2 -->
<g id="node2" class="node">
<title>Node2</title>
<g id="a_node2"><a xlink:href="classMenuBar.html#a00fceb6edf16b945279408d034b77eb1" target="_top" xlink:title="Helper to set up the label that shows mouse grid coordinates.">
<polygon fill="white" stroke="black" points="146.5,-76.5 146.5,-95.5 288.5,-95.5 288.5,-76.5 146.5,-76.5"/>
<text text-anchor="middle" x="217.5" y="-83.5" font-family="Helvetica,sans-Serif" font-size="10.00">MenuBar::setupCordLable</text>
</a>
</g>
</g>
<!-- Node1&#45;&gt;Node2 -->
<g id="edge1" class="edge">
<title>Node1&#45;&gt;Node2</title>
<path fill="none" stroke="midnightblue" d="M96.5,-57.59C117.68,-62.6 143.8,-68.79 166.26,-74.11"/>
<polygon fill="midnightblue" stroke="midnightblue" points="165.75,-77.58 176.29,-76.48 167.37,-70.77 165.75,-77.58"/>
</g>
<!-- Node3 -->
<g id="node3" class="node">
<title>Node3</title>
<g id="a_node3"><a xlink:href="classMenuBar.html#aa755e1a4c2d8ed9f66febe5397fed657" target="_top" xlink:title="Helper to set up the toggle button for live mode (ROS streaming).">
<polygon fill="white" stroke="black" points="146,-38.5 146,-57.5 289,-57.5 289,-38.5 146,-38.5"/>
<text text-anchor="middle" x="217.5" y="-45.5" font-family="Helvetica,sans-Serif" font-size="10.00">MenuBar::setupliveToggle</text>
</a>
</g>
</g>
<!-- Node1&#45;&gt;Node3 -->
<g id="edge2" class="edge">
<title>Node1&#45;&gt;Node3</title>
<path fill="none" stroke="midnightblue" d="M110.34,-48C118.51,-48 127.08,-48 135.66,-48"/>
<polygon fill="midnightblue" stroke="midnightblue" points="135.72,-51.5 145.72,-48 135.72,-44.5 135.72,-51.5"/>
</g>
<!-- Node4 -->
<g id="node4" class="node">
<title>Node4</title>
<g id="a_node4"><a xlink:href="classMenuBar.html#a960511444212d092307581bb43e28e9f" target="_top" xlink:title="Helper to set up the main menu bar structure and entries.">
<polygon fill="white" stroke="black" points="157.5,-0.5 157.5,-19.5 277.5,-19.5 277.5,-0.5 157.5,-0.5"/>
<text text-anchor="middle" x="217.5" y="-7.5" font-family="Helvetica,sans-Serif" font-size="10.00">MenuBar::setupMenu</text>
</a>
</g>
</g>
<!-- Node1&#45;&gt;Node4 -->
<g id="edge3" class="edge">
<title>Node1&#45;&gt;Node4</title>
<path fill="none" stroke="midnightblue" d="M96.5,-38.41C117.68,-33.4 143.8,-27.21 166.26,-21.89"/>
<polygon fill="midnightblue" stroke="midnightblue" points="167.37,-25.23 176.29,-19.52 165.75,-18.42 167.37,-25.23"/>
</g>
</g>
</svg>
