<?xml version="1.0" encoding="UTF-8" standalone="no"?>
<!DOCTYPE svg PUBLIC "-//W3C//DTD SVG 1.1//EN"
 "http://www.w3.org/Graphics/SVG/1.1/DTD/svg11.dtd">
<!-- Generated by graphviz version 2.43.0 (0)
 -->
<!-- Title: FileManager::saveDialog Pages: 1 -->
<svg width="309pt" height="256pt"
 viewBox="0.00 0.00 309.00 256.00" xmlns="http://www.w3.org/2000/svg" xmlns:xlink="http://www.w3.org/1999/xlink">
<g id="graph0" class="graph" transform="scale(1 1) rotate(0) translate(4 252)">
<title>FileManager::saveDialog</title>
<polygon fill="white" stroke="transparent" points="-4,4 -4,-252 305,-252 305,4 -4,4"/>
<!-- Node1 -->
<g id="node1" class="node">
<title>Node1</title>
<g id="a_node1"><a xlink:title="Opens a file dialog to save the current data (coordinates).">
<polygon fill="#bfbfbf" stroke="black" points="0,-114.5 0,-133.5 137,-133.5 137,-114.5 0,-114.5"/>
<text text-anchor="middle" x="68.5" y="-121.5" font-family="Helvetica,sans-Serif" font-size="10.00">FileManager::saveDialog</text>
</a>
</g>
</g>
<!-- Node2 -->
<g id="node2" class="node">
<title>Node2</title>
<g id="a_node2"><a xlink:href="classLiveMap.html#ae9af41b07f81f3dc2e021d5dd683093e" target="_top" xlink:title="Returns whether live mode is currently active.">
<polygon fill="white" stroke="black" points="177.5,-228.5 177.5,-247.5 296.5,-247.5 296.5,-228.5 177.5,-228.5"/>
<text text-anchor="middle" x="237" y="-235.5" font-family="Helvetica,sans-Serif" font-size="10.00">LiveMap::getIsActive</text>
</a>
</g>
</g>
<!-- Node1&#45;&gt;Node2 -->
<g id="edge1" class="edge">
<title>Node1&#45;&gt;Node2</title>
<path fill="none" stroke="midnightblue" d="M77.29,-133.6C93.25,-152.66 131.67,-195.46 173,-219 176.85,-221.19 180.97,-223.15 185.2,-224.91"/>
<polygon fill="midnightblue" stroke="midnightblue" points="183.97,-228.18 194.56,-228.42 186.43,-221.63 183.97,-228.18"/>
</g>
<!-- Node3 -->
<g id="node3" class="node">
<title>Node3</title>
<g id="a_node3"><a xlink:href="classGridMap.html#ad20af94e5a3cc2872a274a732b5e3f72" target="_top" xlink:title="Getters for real&#45;world x coordinates.">
<polygon fill="white" stroke="black" points="183,-190.5 183,-209.5 291,-209.5 291,-190.5 183,-190.5"/>
<text text-anchor="middle" x="237" y="-197.5" font-family="Helvetica,sans-Serif" font-size="10.00">GridMap::getRealX</text>
</a>
</g>
</g>
<!-- Node1&#45;&gt;Node3 -->
<g id="edge2" class="edge">
<title>Node1&#45;&gt;Node3</title>
<path fill="none" stroke="midnightblue" d="M84.43,-133.54C104.11,-145.8 140.1,-167.16 173,-181 178.4,-183.27 184.16,-185.39 189.92,-187.34"/>
<polygon fill="midnightblue" stroke="midnightblue" points="188.97,-190.71 199.56,-190.43 191.11,-184.04 188.97,-190.71"/>
</g>
<!-- Node4 -->
<g id="node4" class="node">
<title>Node4</title>
<g id="a_node4"><a xlink:href="classLiveMap.html#a67c0957dbfe3d3c375359b039cd3612a" target="_top" xlink:title="Getters for real&#45;world x coordinates.">
<polygon fill="white" stroke="black" points="183,-152.5 183,-171.5 291,-171.5 291,-152.5 183,-152.5"/>
<text text-anchor="middle" x="237" y="-159.5" font-family="Helvetica,sans-Serif" font-size="10.00">LiveMap::getRealX</text>
</a>
</g>
</g>
<!-- Node1&#45;&gt;Node4 -->
<g id="edge3" class="edge">
<title>Node1&#45;&gt;Node4</title>
<path fill="none" stroke="midnightblue" d="M111.51,-133.59C133.68,-138.65 161.07,-144.9 184.51,-150.25"/>
<polygon fill="midnightblue" stroke="midnightblue" points="183.76,-153.67 194.29,-152.48 185.32,-146.84 183.76,-153.67"/>
</g>
<!-- Node5 -->
<g id="node5" class="node">
<title>Node5</title>
<g id="a_node5"><a xlink:href="classGridMap.html#af4fe1dc74416535a7463b7e168a326d1" target="_top" xlink:title="Getters for real&#45;world y coordinates.">
<polygon fill="white" stroke="black" points="183.5,-114.5 183.5,-133.5 290.5,-133.5 290.5,-114.5 183.5,-114.5"/>
<text text-anchor="middle" x="237" y="-121.5" font-family="Helvetica,sans-Serif" font-size="10.00">GridMap::getRealY</text>
</a>
</g>
</g>
<!-- Node1&#45;&gt;Node5 -->
<g id="edge4" class="edge">
<title>Node1&#45;&gt;Node5</title>
<path fill="none" stroke="midnightblue" d="M137.22,-124C149.13,-124 161.48,-124 173.24,-124"/>
<polygon fill="midnightblue" stroke="midnightblue" points="173.4,-127.5 183.4,-124 173.4,-120.5 173.4,-127.5"/>
</g>
<!-- Node6 -->
<g id="node6" class="node">
<title>Node6</title>
<g id="a_node6"><a xlink:href="classLiveMap.html#ac7ca767a14f0376869e63be6e246001e" target="_top" xlink:title="Getters for real&#45;world y coordinates.">
<polygon fill="white" stroke="black" points="183.5,-76.5 183.5,-95.5 290.5,-95.5 290.5,-76.5 183.5,-76.5"/>
<text text-anchor="middle" x="237" y="-83.5" font-family="Helvetica,sans-Serif" font-size="10.00">LiveMap::getRealY</text>
</a>
</g>
</g>
<!-- Node1&#45;&gt;Node6 -->
<g id="edge5" class="edge">
<title>Node1&#45;&gt;Node6</title>
<path fill="none" stroke="midnightblue" d="M111.51,-114.41C133.68,-109.35 161.07,-103.1 184.51,-97.75"/>
<polygon fill="midnightblue" stroke="midnightblue" points="185.32,-101.16 194.29,-95.52 183.76,-94.33 185.32,-101.16"/>
</g>
<!-- Node7 -->
<g id="node7" class="node">
<title>Node7</title>
<g id="a_node7"><a xlink:href="classFileManager.html#ae4178789b8d0ae7653db505ba276640a" target="_top" xlink:title="Saves x and y coordinate data to a file.">
<polygon fill="white" stroke="black" points="173,-38.5 173,-57.5 301,-57.5 301,-38.5 173,-38.5"/>
<text text-anchor="middle" x="237" y="-45.5" font-family="Helvetica,sans-Serif" font-size="10.00">FileManager::saveData</text>
</a>
</g>
</g>
<!-- Node1&#45;&gt;Node7 -->
<g id="edge6" class="edge">
<title>Node1&#45;&gt;Node7</title>
<path fill="none" stroke="midnightblue" d="M84.43,-114.46C104.11,-102.2 140.1,-80.84 173,-67 178.4,-64.73 184.16,-62.61 189.92,-60.66"/>
<polygon fill="midnightblue" stroke="midnightblue" points="191.11,-63.96 199.56,-57.57 188.97,-57.29 191.11,-63.96"/>
</g>
<!-- Node8 -->
<g id="node8" class="node">
<title>Node8</title>
<g id="a_node8"><a xlink:href="tinyfiledialogs_8h.html#a7a17e17150593bf3b04253ea819fc5bc" target="_top" xlink:title=" ">
<polygon fill="white" stroke="black" points="176,-0.5 176,-19.5 298,-19.5 298,-0.5 176,-0.5"/>
<text text-anchor="middle" x="237" y="-7.5" font-family="Helvetica,sans-Serif" font-size="10.00">tinyfd_saveFileDialog</text>
</a>
</g>
</g>
<!-- Node1&#45;&gt;Node8 -->
<g id="edge7" class="edge">
<title>Node1&#45;&gt;Node8</title>
<path fill="none" stroke="midnightblue" d="M77.29,-114.4C93.25,-95.34 131.67,-52.54 173,-29 176.85,-26.81 180.97,-24.85 185.2,-23.09"/>
<polygon fill="midnightblue" stroke="midnightblue" points="186.43,-26.37 194.56,-19.58 183.97,-19.82 186.43,-26.37"/>
</g>
</g>
</svg>
