<?xml version="1.0" encoding="UTF-8" standalone="no"?>
<!DOCTYPE svg PUBLIC "-//W3C//DTD SVG 1.1//EN"
 "http://www.w3.org/Graphics/SVG/1.1/DTD/svg11.dtd">
<!-- Generated by graphviz version 2.43.0 (0)
 -->
<!-- Title: MapViewer::render Pages: 1 -->
<svg width="479pt" height="484pt"
 viewBox="0.00 0.00 479.00 484.00" xmlns="http://www.w3.org/2000/svg" xmlns:xlink="http://www.w3.org/1999/xlink">
<g id="graph0" class="graph" transform="scale(1 1) rotate(0) translate(4 480)">
<title>MapViewer::render</title>
<polygon fill="white" stroke="transparent" points="-4,4 -4,-480 475,-480 475,4 -4,4"/>
<!-- Node1 -->
<g id="node1" class="node">
<title>Node1</title>
<g id="a_node1"><a xlink:title="Renders all visual components to the screen.">
<polygon fill="#bfbfbf" stroke="black" points="0,-228.5 0,-247.5 109,-247.5 109,-228.5 0,-228.5"/>
<text text-anchor="middle" x="54.5" y="-235.5" font-family="Helvetica,sans-Serif" font-size="10.00">MapViewer::render</text>
</a>
</g>
</g>
<!-- Node2 -->
<g id="node2" class="node">
<title>Node2</title>
<g id="a_node2"><a xlink:href="classViewController.html#a8eaa9725daebdd8f73efba9fb0bbaee6" target="_top" xlink:title="Applies the current view settings to the window.">
<polygon fill="white" stroke="black" points="145,-456.5 145,-475.5 291,-475.5 291,-456.5 145,-456.5"/>
<text text-anchor="middle" x="218" y="-463.5" font-family="Helvetica,sans-Serif" font-size="10.00">ViewController::applyView</text>
</a>
</g>
</g>
<!-- Node1&#45;&gt;Node2 -->
<g id="edge1" class="edge">
<title>Node1&#45;&gt;Node2</title>
<path fill="none" stroke="midnightblue" d="M56.65,-247.63C61.11,-280.8 80.46,-391.29 145,-447 146.97,-448.7 149.07,-450.25 151.28,-451.66"/>
<polygon fill="midnightblue" stroke="midnightblue" points="149.76,-454.82 160.23,-456.46 153.07,-448.65 149.76,-454.82"/>
</g>
<!-- Node3 -->
<g id="node3" class="node">
<title>Node3</title>
<g id="a_node3"><a xlink:href="classUnicicleWmr.html#a90cf366f26eedefd4d9f2fcc038fc8f4" target="_top" xlink:title="Draws the robot on the screen.">
<polygon fill="white" stroke="black" points="163.5,-418.5 163.5,-437.5 272.5,-437.5 272.5,-418.5 163.5,-418.5"/>
<text text-anchor="middle" x="218" y="-425.5" font-family="Helvetica,sans-Serif" font-size="10.00">UnicicleWmr::draw</text>
</a>
</g>
</g>
<!-- Node1&#45;&gt;Node3 -->
<g id="edge2" class="edge">
<title>Node1&#45;&gt;Node3</title>
<path fill="none" stroke="midnightblue" d="M57.7,-247.91C64.77,-277.33 89.73,-364.91 145,-409 147.9,-411.31 151.05,-413.35 154.37,-415.13"/>
<polygon fill="midnightblue" stroke="midnightblue" points="152.91,-418.31 163.45,-419.31 155.83,-411.95 152.91,-418.31"/>
</g>
<!-- Node4 -->
<g id="node4" class="node">
<title>Node4</title>
<g id="a_node4"><a xlink:href="classAStar.html#a6f489a0d3464a6c8263b47d009c25d04" target="_top" xlink:title="Draws the current algorithm state to the given SFML render target.">
<polygon fill="white" stroke="black" points="181.5,-380.5 181.5,-399.5 254.5,-399.5 254.5,-380.5 181.5,-380.5"/>
<text text-anchor="middle" x="218" y="-387.5" font-family="Helvetica,sans-Serif" font-size="10.00">AStar::draw</text>
</a>
</g>
</g>
<!-- Node1&#45;&gt;Node4 -->
<g id="edge3" class="edge">
<title>Node1&#45;&gt;Node4</title>
<path fill="none" stroke="midnightblue" d="M59.21,-247.8C69.08,-272.54 98.51,-337.93 145,-371 152.9,-376.62 162.34,-380.57 171.75,-383.36"/>
<polygon fill="midnightblue" stroke="midnightblue" points="170.92,-386.76 181.48,-385.86 172.67,-379.98 170.92,-386.76"/>
</g>
<!-- Node5 -->
<g id="node5" class="node">
<title>Node5</title>
<g id="a_node5"><a xlink:href="classGridMap.html#a0242886063d0cd50d5982a0c419be8b6" target="_top" xlink:title="Draw the map using SFML.">
<polygon fill="white" stroke="black" points="174,-342.5 174,-361.5 262,-361.5 262,-342.5 174,-342.5"/>
<text text-anchor="middle" x="218" y="-349.5" font-family="Helvetica,sans-Serif" font-size="10.00">GridMap::draw</text>
</a>
</g>
</g>
<!-- Node1&#45;&gt;Node5 -->
<g id="edge4" class="edge">
<title>Node1&#45;&gt;Node5</title>
<path fill="none" stroke="midnightblue" d="M61.85,-247.76C74.97,-267.11 107.02,-310.41 145,-333 150.9,-336.51 157.44,-339.38 164.12,-341.72"/>
<polygon fill="midnightblue" stroke="midnightblue" points="163.34,-345.15 173.93,-344.8 165.43,-338.47 163.34,-345.15"/>
</g>
<!-- Node6 -->
<g id="node6" class="node">
<title>Node6</title>
<g id="a_node6"><a xlink:href="classViewController.html#a59766cfd8ec65083a66af156324cc173" target="_top" xlink:title="Draws the axes lines and numeration on the render target.">
<polygon fill="white" stroke="black" points="146.5,-304.5 146.5,-323.5 289.5,-323.5 289.5,-304.5 146.5,-304.5"/>
<text text-anchor="middle" x="218" y="-311.5" font-family="Helvetica,sans-Serif" font-size="10.00">ViewController::drawAxes</text>
</a>
</g>
</g>
<!-- Node1&#45;&gt;Node6 -->
<g id="edge5" class="edge">
<title>Node1&#45;&gt;Node6</title>
<path fill="none" stroke="midnightblue" d="M67.84,-247.63C84.49,-260.18 115.47,-282.07 145,-295 150.46,-297.39 156.29,-299.54 162.18,-301.45"/>
<polygon fill="midnightblue" stroke="midnightblue" points="161.51,-304.9 172.1,-304.45 163.54,-298.2 161.51,-304.9"/>
</g>
<!-- Node7 -->
<g id="node7" class="node">
<title>Node7</title>
<g id="a_node7"><a xlink:href="classAStar.html#a12450d3a3c4d1baf327aec5e45abece3" target="_top" xlink:title="Draws the final path, if found.">
<polygon fill="white" stroke="black" points="156,-266.5 156,-285.5 280,-285.5 280,-266.5 156,-266.5"/>
<text text-anchor="middle" x="218" y="-273.5" font-family="Helvetica,sans-Serif" font-size="10.00">AStar::drawFoundPath</text>
</a>
</g>
</g>
<!-- Node1&#45;&gt;Node7 -->
<g id="edge6" class="edge">
<title>Node1&#45;&gt;Node7</title>
<path fill="none" stroke="midnightblue" d="M96.25,-247.59C117.66,-252.63 144.09,-258.84 166.75,-264.18"/>
<polygon fill="midnightblue" stroke="midnightblue" points="166,-267.6 176.54,-266.48 167.61,-260.78 166,-267.6"/>
</g>
<!-- Node8 -->
<g id="node8" class="node">
<title>Node8</title>
<g id="a_node8"><a xlink:href="classViewController.html#a2a830a80bbb229b763e72ec8d29d48b6" target="_top" xlink:title="Draws the grid lines on the provided render target.">
<polygon fill="white" stroke="black" points="148.5,-228.5 148.5,-247.5 287.5,-247.5 287.5,-228.5 148.5,-228.5"/>
<text text-anchor="middle" x="218" y="-235.5" font-family="Helvetica,sans-Serif" font-size="10.00">ViewController::drawGrid</text>
</a>
</g>
</g>
<!-- Node1&#45;&gt;Node8 -->
<g id="edge7" class="edge">
<title>Node1&#45;&gt;Node8</title>
<path fill="none" stroke="midnightblue" d="M109.28,-238C118.54,-238 128.34,-238 138.1,-238"/>
<polygon fill="midnightblue" stroke="midnightblue" points="138.23,-241.5 148.23,-238 138.23,-234.5 138.23,-241.5"/>
</g>
<!-- Node9 -->
<g id="node9" class="node">
<title>Node9</title>
<g id="a_node9"><a xlink:href="classLiveMap.html#a0157071646700aba0cbb45a6767b7487" target="_top" xlink:title="Draws the live grid using the ViewController.">
<polygon fill="white" stroke="black" points="153.5,-152.5 153.5,-171.5 282.5,-171.5 282.5,-152.5 153.5,-152.5"/>
<text text-anchor="middle" x="218" y="-159.5" font-family="Helvetica,sans-Serif" font-size="10.00">LiveMap::drawLiveMap</text>
</a>
</g>
</g>
<!-- Node1&#45;&gt;Node9 -->
<g id="edge8" class="edge">
<title>Node1&#45;&gt;Node9</title>
<path fill="none" stroke="midnightblue" d="M69.89,-228.39C87.18,-217.16 117.32,-198.5 145,-186 154.09,-181.9 164.1,-178.12 173.69,-174.84"/>
<polygon fill="midnightblue" stroke="midnightblue" points="175.08,-178.06 183.48,-171.6 172.89,-171.42 175.08,-178.06"/>
</g>
<!-- Node10 -->
<g id="node10" class="node">
<title>Node10</title>
<g id="a_node10"><a xlink:href="classViewController.html#ae16abf87a7514af7eda581ac04d23ec3" target="_top" xlink:title="Returns the size of each grid cell in meters.">
<polygon fill="white" stroke="black" points="327,-191 327,-221 471,-221 471,-191 327,-191"/>
<text text-anchor="start" x="335" y="-209" font-family="Helvetica,sans-Serif" font-size="10.00">ViewController::getMeters</text>
<text text-anchor="middle" x="399" y="-198" font-family="Helvetica,sans-Serif" font-size="10.00">PerCell</text>
</a>
</g>
</g>
<!-- Node1&#45;&gt;Node10 -->
<g id="edge15" class="edge">
<title>Node1&#45;&gt;Node10</title>
<path fill="none" stroke="midnightblue" d="M94.04,-228.43C109.75,-224.89 128.15,-221.21 145,-219 202.12,-211.52 267.02,-208.29 316.78,-206.92"/>
<polygon fill="midnightblue" stroke="midnightblue" points="316.94,-210.42 326.84,-206.66 316.76,-203.42 316.94,-210.42"/>
</g>
<!-- Node11 -->
<g id="node11" class="node">
<title>Node11</title>
<g id="a_node11"><a xlink:href="classViewController.html#a4371bcfa79ff09f98c5f49914e2a854d" target="_top" xlink:title="Returns the pixels per meter scale factor.">
<polygon fill="white" stroke="black" points="329,-103 329,-133 469,-133 469,-103 329,-103"/>
<text text-anchor="start" x="337" y="-121" font-family="Helvetica,sans-Serif" font-size="10.00">ViewController::getPixels</text>
<text text-anchor="middle" x="399" y="-110" font-family="Helvetica,sans-Serif" font-size="10.00">PerMeter</text>
</a>
</g>
</g>
<!-- Node1&#45;&gt;Node11 -->
<g id="edge16" class="edge">
<title>Node1&#45;&gt;Node11</title>
<path fill="none" stroke="midnightblue" d="M61.19,-228.33C73.53,-208.33 104.94,-162.69 145,-143 198.85,-116.53 266.84,-111.13 318.78,-111.87"/>
<polygon fill="midnightblue" stroke="midnightblue" points="318.87,-115.38 328.95,-112.1 319.03,-108.38 318.87,-115.38"/>
</g>
<!-- Node13 -->
<g id="node13" class="node">
<title>Node13</title>
<g id="a_node13"><a xlink:href="classLiveMap.html#af9c68de338a34ee872aac401122c10bb" target="_top" xlink:title="Returns a constant reference to the full occupancy grid.">
<polygon fill="white" stroke="black" points="168,-76.5 168,-95.5 268,-95.5 268,-76.5 168,-76.5"/>
<text text-anchor="middle" x="218" y="-83.5" font-family="Helvetica,sans-Serif" font-size="10.00">LiveMap::getGrid</text>
</a>
</g>
</g>
<!-- Node1&#45;&gt;Node13 -->
<g id="edge12" class="edge">
<title>Node1&#45;&gt;Node13</title>
<path fill="none" stroke="midnightblue" d="M59.59,-228.4C70.16,-204.72 100.67,-143.09 145,-110 150.6,-105.82 156.98,-102.34 163.57,-99.45"/>
<polygon fill="midnightblue" stroke="midnightblue" points="165.27,-102.54 173.3,-95.63 162.71,-96.02 165.27,-102.54"/>
</g>
<!-- Node14 -->
<g id="node14" class="node">
<title>Node14</title>
<g id="a_node14"><a xlink:href="classGridMap.html#abed9c97e44c2302a1586de01ed369c10" target="_top" xlink:title="Get a const reference to the occupancy grid.">
<polygon fill="white" stroke="black" points="168,-38.5 168,-57.5 268,-57.5 268,-38.5 168,-38.5"/>
<text text-anchor="middle" x="218" y="-45.5" font-family="Helvetica,sans-Serif" font-size="10.00">GridMap::getGrid</text>
</a>
</g>
</g>
<!-- Node1&#45;&gt;Node14 -->
<g id="edge13" class="edge">
<title>Node1&#45;&gt;Node14</title>
<path fill="none" stroke="midnightblue" d="M57.7,-228.09C64.77,-198.67 89.73,-111.09 145,-67 149.06,-63.76 153.63,-61.07 158.44,-58.83"/>
<polygon fill="midnightblue" stroke="midnightblue" points="159.91,-62.01 167.91,-55.07 157.33,-55.51 159.91,-62.01"/>
</g>
<!-- Node15 -->
<g id="node15" class="node">
<title>Node15</title>
<g id="a_node15"><a xlink:href="classMenuBar.html#a355bc5c82c36caf2693d65907ff92e64" target="_top" xlink:title="Returns whether live mode is currently enabled.">
<polygon fill="white" stroke="black" points="153.5,-0.5 153.5,-19.5 282.5,-19.5 282.5,-0.5 153.5,-0.5"/>
<text text-anchor="middle" x="218" y="-7.5" font-family="Helvetica,sans-Serif" font-size="10.00">MenuBar::getLiveMode</text>
</a>
</g>
</g>
<!-- Node1&#45;&gt;Node15 -->
<g id="edge14" class="edge">
<title>Node1&#45;&gt;Node15</title>
<path fill="none" stroke="midnightblue" d="M56.65,-228.37C61.11,-195.2 80.46,-84.71 145,-29 146.97,-27.3 149.07,-25.75 151.28,-24.34"/>
<polygon fill="midnightblue" stroke="midnightblue" points="153.07,-27.35 160.23,-19.54 149.76,-21.18 153.07,-27.35"/>
</g>
<!-- Node9&#45;&gt;Node10 -->
<g id="edge9" class="edge">
<title>Node9&#45;&gt;Node10</title>
<path fill="none" stroke="midnightblue" d="M257.84,-171.55C277.99,-176.5 303.26,-182.71 326.76,-188.49"/>
<polygon fill="midnightblue" stroke="midnightblue" points="326.16,-191.95 336.71,-190.93 327.84,-185.15 326.16,-191.95"/>
</g>
<!-- Node9&#45;&gt;Node11 -->
<g id="edge10" class="edge">
<title>Node9&#45;&gt;Node11</title>
<path fill="none" stroke="midnightblue" d="M257.84,-152.45C277.99,-147.5 303.26,-141.29 326.76,-135.51"/>
<polygon fill="midnightblue" stroke="midnightblue" points="327.84,-138.85 336.71,-133.07 326.16,-132.05 327.84,-138.85"/>
</g>
<!-- Node12 -->
<g id="node12" class="node">
<title>Node12</title>
<g id="a_node12"><a xlink:href="classViewController.html#ab3b39d154cf93e5eec28d2bbdead91e4" target="_top" xlink:title="Returns the current zoom level.">
<polygon fill="white" stroke="black" points="329.5,-152.5 329.5,-171.5 468.5,-171.5 468.5,-152.5 329.5,-152.5"/>
<text text-anchor="middle" x="399" y="-159.5" font-family="Helvetica,sans-Serif" font-size="10.00">ViewController::getZoom</text>
</a>
</g>
</g>
<!-- Node9&#45;&gt;Node12 -->
<g id="edge11" class="edge">
<title>Node9&#45;&gt;Node12</title>
<path fill="none" stroke="midnightblue" d="M282.61,-162C294.47,-162 306.98,-162 319.23,-162"/>
<polygon fill="midnightblue" stroke="midnightblue" points="319.43,-165.5 329.43,-162 319.43,-158.5 319.43,-165.5"/>
</g>
</g>
</svg>
