<?xml version="1.0" encoding="UTF-8" standalone="no"?>
<!DOCTYPE svg PUBLIC "-//W3C//DTD SVG 1.1//EN"
 "http://www.w3.org/Graphics/SVG/1.1/DTD/svg11.dtd">
<!-- Generated by graphviz version 2.43.0 (0)
 -->
<!-- Title: FileManager::saveDialog Pages: 1 -->
<svg width="309pt" height="142pt"
 viewBox="0.00 0.00 309.00 142.00" xmlns="http://www.w3.org/2000/svg" xmlns:xlink="http://www.w3.org/1999/xlink">
<g id="graph0" class="graph" transform="scale(1 1) rotate(0) translate(4 138)">
<title>FileManager::saveDialog</title>
<polygon fill="white" stroke="transparent" points="-4,4 -4,-138 305,-138 305,4 -4,4"/>
<!-- Node1 -->
<g id="node1" class="node">
<title>Node1</title>
<g id="a_node1"><a xlink:title="Opens a file dialog to save the current data (coordinates).">
<polygon fill="#bfbfbf" stroke="black" points="0,-57.5 0,-76.5 137,-76.5 137,-57.5 0,-57.5"/>
<text text-anchor="middle" x="68.5" y="-64.5" font-family="Helvetica,sans-Serif" font-size="10.00">FileManager::saveDialog</text>
</a>
</g>
</g>
<!-- Node2 -->
<g id="node2" class="node">
<title>Node2</title>
<g id="a_node2"><a xlink:href="classGridMap.html#ad20af94e5a3cc2872a274a732b5e3f72" target="_top" xlink:title="Getters for real&#45;world x coordinates.">
<polygon fill="white" stroke="black" points="183,-114.5 183,-133.5 291,-133.5 291,-114.5 183,-114.5"/>
<text text-anchor="middle" x="237" y="-121.5" font-family="Helvetica,sans-Serif" font-size="10.00">GridMap::getRealX</text>
</a>
</g>
</g>
<!-- Node1&#45;&gt;Node2 -->
<g id="edge1" class="edge">
<title>Node1&#45;&gt;Node2</title>
<path fill="none" stroke="midnightblue" d="M94.45,-76.63C115.32,-84.57 145.95,-95.96 173,-105 179.48,-107.16 186.37,-109.35 193.12,-111.44"/>
<polygon fill="midnightblue" stroke="midnightblue" points="192.27,-114.84 202.86,-114.41 194.31,-108.14 192.27,-114.84"/>
</g>
<!-- Node3 -->
<g id="node3" class="node">
<title>Node3</title>
<g id="a_node3"><a xlink:href="classGridMap.html#af4fe1dc74416535a7463b7e168a326d1" target="_top" xlink:title="Getters for real&#45;world y coordinates.">
<polygon fill="white" stroke="black" points="183.5,-76.5 183.5,-95.5 290.5,-95.5 290.5,-76.5 183.5,-76.5"/>
<text text-anchor="middle" x="237" y="-83.5" font-family="Helvetica,sans-Serif" font-size="10.00">GridMap::getRealY</text>
</a>
</g>
</g>
<!-- Node1&#45;&gt;Node3 -->
<g id="edge2" class="edge">
<title>Node1&#45;&gt;Node3</title>
<path fill="none" stroke="midnightblue" d="M137.22,-74.73C149.13,-76.09 161.48,-77.5 173.24,-78.84"/>
<polygon fill="midnightblue" stroke="midnightblue" points="173.07,-82.34 183.4,-80 173.87,-75.39 173.07,-82.34"/>
</g>
<!-- Node4 -->
<g id="node4" class="node">
<title>Node4</title>
<g id="a_node4"><a xlink:href="classFileManager.html#ae4178789b8d0ae7653db505ba276640a" target="_top" xlink:title="Saves x and y coordinate data to a file.">
<polygon fill="white" stroke="black" points="173,-38.5 173,-57.5 301,-57.5 301,-38.5 173,-38.5"/>
<text text-anchor="middle" x="237" y="-45.5" font-family="Helvetica,sans-Serif" font-size="10.00">FileManager::saveData</text>
</a>
</g>
</g>
<!-- Node1&#45;&gt;Node4 -->
<g id="edge3" class="edge">
<title>Node1&#45;&gt;Node4</title>
<path fill="none" stroke="midnightblue" d="M137.22,-59.27C145.7,-58.3 154.4,-57.31 162.95,-56.34"/>
<polygon fill="midnightblue" stroke="midnightblue" points="163.37,-59.81 172.91,-55.2 162.57,-52.86 163.37,-59.81"/>
</g>
<!-- Node5 -->
<g id="node5" class="node">
<title>Node5</title>
<g id="a_node5"><a xlink:href="tinyfiledialogs_8h.html#a7a17e17150593bf3b04253ea819fc5bc" target="_top" xlink:title=" ">
<polygon fill="white" stroke="black" points="176,-0.5 176,-19.5 298,-19.5 298,-0.5 176,-0.5"/>
<text text-anchor="middle" x="237" y="-7.5" font-family="Helvetica,sans-Serif" font-size="10.00">tinyfd_saveFileDialog</text>
</a>
</g>
</g>
<!-- Node1&#45;&gt;Node5 -->
<g id="edge4" class="edge">
<title>Node1&#45;&gt;Node5</title>
<path fill="none" stroke="midnightblue" d="M94.45,-57.37C115.32,-49.43 145.95,-38.04 173,-29 179.48,-26.84 186.37,-24.65 193.12,-22.56"/>
<polygon fill="midnightblue" stroke="midnightblue" points="194.31,-25.86 202.86,-19.59 192.27,-19.16 194.31,-25.86"/>
</g>
</g>
</svg>
