<?xml version="1.0" encoding="UTF-8" standalone="no"?>
<!DOCTYPE svg PUBLIC "-//W3C//DTD SVG 1.1//EN"
 "http://www.w3.org/Graphics/SVG/1.1/DTD/svg11.dtd">
<!-- Generated by graphviz version 2.43.0 (0)
 -->
<!-- Title: MapViewer Pages: 1 -->
<!--zoomable 1228 -->
<svg id="main" version="1.1" xmlns="http://www.w3.org/2000/svg" xmlns:xlink="http://www.w3.org/1999/xlink" xml:space="preserve" onload="init(evt)">
<style type="text/css"><![CDATA[
.edge:hover path { stroke: red; }
.edge:hover polygon { stroke: red; fill: red; }
]]></style>
<script type="text/javascript"><![CDATA[
var edges = document.getElementsByTagName('g');
if (edges && edges.length) {
  for (var i=0;i<edges.length;i++) {
    if (edges[i].id.substr(0,4)=='edge') {
      edges[i].setAttribute('class','edge');
    }
  }
}
]]></script>
        <defs>
                <circle id="rim" cx="0" cy="0" r="7"/>
                <circle id="rim2" cx="0" cy="0" r="3.5"/>
                <g id="zoomPlus">
                        <use xlink:href="#rim" fill="#404040">
                                <set attributeName="fill" to="#808080" begin="zoomplus.mouseover" end="zoomplus.mouseout"/>
                        </use>
                        <path d="M-4,0h8M0,-4v8" fill="none" stroke="white" stroke-width="1.5" pointer-events="none"/>
                </g>
                <g id="zoomMin">
                        <use xlink:href="#rim" fill="#404040">
                                <set attributeName="fill" to="#808080" begin="zoomminus.mouseover" end="zoomminus.mouseout"/>
                        </use>
                        <path d="M-4,0h8" fill="none" stroke="white" stroke-width="1.5" pointer-events="none"/>
                </g>
                <g id="dirArrow">
                        <path fill="none" stroke="white" stroke-width="1.5" d="M0,-3.0v7 M-2.5,-0.5L0,-3.0L2.5,-0.5"/>
                </g>
               <g id="resetDef">
                       <use xlink:href="#rim2" fill="#404040">
                               <set attributeName="fill" to="#808080" begin="reset.mouseover" end="reset.mouseout"/>
                       </use>
               </g>
        </defs>

<script type="text/javascript">
var viewWidth = 1080;
var viewHeight = 1228;
var sectionId = 'dynsection-0';
</script>
<script xlink:href="svgpan.js"/>
<svg id="graph" class="graph">
<g id="viewport">
<title>MapViewer</title>
<polygon fill="white" stroke="transparent" points="-4,4 -4,-1224 1075.71,-1224 1075.71,4 -4,4"/>
<!-- Node1 -->
<g id="node1" class="node">
<title>Node1</title>
<g id="a_node1"><a xlink:title="This is the main class. It manages mouse/keyboard events and GUI integration. It also coordinates the...">
<polygon fill="#bfbfbf" stroke="black" points="410.21,-0.5 410.21,-178.5 511.21,-178.5 511.21,-0.5 410.21,-0.5"/>
<text text-anchor="middle" x="460.71" y="-166.5" font-family="Helvetica,sans-Serif" font-size="10.00">MapViewer</text>
<polyline fill="none" stroke="black" points="410.21,-159.5 511.21,-159.5 "/>
<text text-anchor="start" x="418.21" y="-147.5" font-family="Helvetica,sans-Serif" font-size="10.00">&#45; window</text>
<text text-anchor="start" x="418.21" y="-136.5" font-family="Helvetica,sans-Serif" font-size="10.00">&#45; view</text>
<text text-anchor="start" x="418.21" y="-125.5" font-family="Helvetica,sans-Serif" font-size="10.00">&#45; gui</text>
<text text-anchor="start" x="418.21" y="-114.5" font-family="Helvetica,sans-Serif" font-size="10.00">&#45; running</text>
<text text-anchor="start" x="418.21" y="-103.5" font-family="Helvetica,sans-Serif" font-size="10.00">&#45; worldXY</text>
<text text-anchor="start" x="418.21" y="-92.5" font-family="Helvetica,sans-Serif" font-size="10.00">&#45; gridIndex</text>
<text text-anchor="start" x="418.21" y="-81.5" font-family="Helvetica,sans-Serif" font-size="10.00">&#45; gridIndex2copy</text>
<text text-anchor="start" x="418.21" y="-70.5" font-family="Helvetica,sans-Serif" font-size="10.00">&#45; astarAnimating</text>
<polyline fill="none" stroke="black" points="410.21,-63.5 511.21,-63.5 "/>
<text text-anchor="start" x="418.21" y="-51.5" font-family="Helvetica,sans-Serif" font-size="10.00">+ MapViewer()</text>
<text text-anchor="start" x="418.21" y="-40.5" font-family="Helvetica,sans-Serif" font-size="10.00">+ update()</text>
<text text-anchor="start" x="418.21" y="-29.5" font-family="Helvetica,sans-Serif" font-size="10.00">+ processEvent()</text>
<text text-anchor="start" x="418.21" y="-18.5" font-family="Helvetica,sans-Serif" font-size="10.00">+ render()</text>
<text text-anchor="start" x="418.21" y="-7.5" font-family="Helvetica,sans-Serif" font-size="10.00">+ isRunning()</text>
</a>
</g>
</g>
<!-- Node2 -->
<g id="node2" class="node">
<title>Node2</title>
<g id="a_node2"><a xlink:href="classRightClickMapMenu.html" target="_top" xlink:title="Manages a contextual right&#45;click menu displayed on top of a map. Allows users to set the start and go...">
<polygon fill="white" stroke="black" points="291.21,-259.5 291.21,-547.5 424.21,-547.5 424.21,-259.5 291.21,-259.5"/>
<text text-anchor="middle" x="357.71" y="-535.5" font-family="Helvetica,sans-Serif" font-size="10.00">RightClickMapMenu</text>
<polyline fill="none" stroke="black" points="291.21,-528.5 424.21,-528.5 "/>
<text text-anchor="start" x="299.21" y="-516.5" font-family="Helvetica,sans-Serif" font-size="10.00">&#45; gui</text>
<text text-anchor="start" x="299.21" y="-505.5" font-family="Helvetica,sans-Serif" font-size="10.00">&#45; container</text>
<text text-anchor="start" x="299.21" y="-494.5" font-family="Helvetica,sans-Serif" font-size="10.00">&#45; panel</text>
<text text-anchor="start" x="299.21" y="-483.5" font-family="Helvetica,sans-Serif" font-size="10.00">&#45; start</text>
<text text-anchor="start" x="299.21" y="-472.5" font-family="Helvetica,sans-Serif" font-size="10.00">&#45; goal</text>
<text text-anchor="start" x="299.21" y="-461.5" font-family="Helvetica,sans-Serif" font-size="10.00">&#45; clear</text>
<text text-anchor="start" x="299.21" y="-450.5" font-family="Helvetica,sans-Serif" font-size="10.00">&#45; clearView</text>
<text text-anchor="start" x="299.21" y="-439.5" font-family="Helvetica,sans-Serif" font-size="10.00">&#45; visible</text>
<text text-anchor="start" x="299.21" y="-428.5" font-family="Helvetica,sans-Serif" font-size="10.00">&#45; worldXY_copy</text>
<text text-anchor="start" x="299.21" y="-417.5" font-family="Helvetica,sans-Serif" font-size="10.00">&#45; gridIndex_copy</text>
<text text-anchor="start" x="299.21" y="-406.5" font-family="Helvetica,sans-Serif" font-size="10.00">&#45; startIndex</text>
<text text-anchor="start" x="299.21" y="-395.5" font-family="Helvetica,sans-Serif" font-size="10.00">&#45; goalIndex</text>
<text text-anchor="start" x="299.21" y="-384.5" font-family="Helvetica,sans-Serif" font-size="10.00">&#45; isGoalActive</text>
<text text-anchor="start" x="299.21" y="-373.5" font-family="Helvetica,sans-Serif" font-size="10.00">&#45; isStartActive</text>
<polyline fill="none" stroke="black" points="291.21,-366.5 424.21,-366.5 "/>
<text text-anchor="start" x="299.21" y="-354.5" font-family="Helvetica,sans-Serif" font-size="10.00">+ RightClickMapMenu()</text>
<text text-anchor="start" x="299.21" y="-343.5" font-family="Helvetica,sans-Serif" font-size="10.00">+ setupWidgets()</text>
<text text-anchor="start" x="299.21" y="-332.5" font-family="Helvetica,sans-Serif" font-size="10.00">+ show()</text>
<text text-anchor="start" x="299.21" y="-321.5" font-family="Helvetica,sans-Serif" font-size="10.00">+ hide()</text>
<text text-anchor="start" x="299.21" y="-310.5" font-family="Helvetica,sans-Serif" font-size="10.00">+ setVisible()</text>
<text text-anchor="start" x="299.21" y="-299.5" font-family="Helvetica,sans-Serif" font-size="10.00">+ isVisible()</text>
<text text-anchor="start" x="299.21" y="-288.5" font-family="Helvetica,sans-Serif" font-size="10.00">+ connectSignals()</text>
<text text-anchor="start" x="299.21" y="-277.5" font-family="Helvetica,sans-Serif" font-size="10.00">+ containsPoint()</text>
<text text-anchor="start" x="299.21" y="-266.5" font-family="Helvetica,sans-Serif" font-size="10.00">+ isSet()</text>
</a>
</g>
</g>
<!-- Node2&#45;&gt;Node1 -->
<g id="edge1" class="edge">
<title>Node2&#45;&gt;Node1</title>
<path fill="none" stroke="#404040" d="M383.54,-259.48C388.94,-238.25 395.3,-216.85 402.71,-197 403.6,-194.61 404.54,-192.21 405.51,-189.8"/>
<polygon fill="none" stroke="#404040" points="405.62,-189.55 404.3,-182.46 410.34,-178.52 411.66,-185.61 405.62,-189.55"/>
<text text-anchor="middle" x="424.71" y="-200" font-family="Helvetica,sans-Serif" font-size="10.00"> &#45;r_menu</text>
</g>
<!-- Node3 -->
<g id="node3" class="node">
<title>Node3</title>
<g id="a_node3"><a xlink:href="classGridMap.html" target="_top" xlink:title="Handles the creation and management of map data.">
<polygon fill="white" stroke="black" points="325.71,-661.5 325.71,-872.5 429.71,-872.5 429.71,-661.5 325.71,-661.5"/>
<text text-anchor="middle" x="377.71" y="-860.5" font-family="Helvetica,sans-Serif" font-size="10.00">GridMap</text>
<polyline fill="none" stroke="black" points="325.71,-853.5 429.71,-853.5 "/>
<text text-anchor="start" x="333.71" y="-841.5" font-family="Helvetica,sans-Serif" font-size="10.00">&#45; gridSize</text>
<text text-anchor="start" x="333.71" y="-830.5" font-family="Helvetica,sans-Serif" font-size="10.00">&#45; gridResolution</text>
<text text-anchor="start" x="333.71" y="-819.5" font-family="Helvetica,sans-Serif" font-size="10.00">&#45; posX</text>
<text text-anchor="start" x="333.71" y="-808.5" font-family="Helvetica,sans-Serif" font-size="10.00">&#45; posY</text>
<text text-anchor="start" x="333.71" y="-797.5" font-family="Helvetica,sans-Serif" font-size="10.00">&#45; grid</text>
<polyline fill="none" stroke="black" points="325.71,-790.5 429.71,-790.5 "/>
<text text-anchor="start" x="333.71" y="-778.5" font-family="Helvetica,sans-Serif" font-size="10.00">+ GridMap()</text>
<text text-anchor="start" x="333.71" y="-767.5" font-family="Helvetica,sans-Serif" font-size="10.00">+ getRealX()</text>
<text text-anchor="start" x="333.71" y="-756.5" font-family="Helvetica,sans-Serif" font-size="10.00">+ getRealY()</text>
<text text-anchor="start" x="333.71" y="-745.5" font-family="Helvetica,sans-Serif" font-size="10.00">+ getCellIndexX()</text>
<text text-anchor="start" x="333.71" y="-734.5" font-family="Helvetica,sans-Serif" font-size="10.00">+ getCellIndexY()</text>
<text text-anchor="start" x="333.71" y="-723.5" font-family="Helvetica,sans-Serif" font-size="10.00">+ addPoints()</text>
<text text-anchor="start" x="333.71" y="-712.5" font-family="Helvetica,sans-Serif" font-size="10.00">+ setPoints()</text>
<text text-anchor="start" x="333.71" y="-701.5" font-family="Helvetica,sans-Serif" font-size="10.00">+ clearPoints()</text>
<text text-anchor="start" x="333.71" y="-690.5" font-family="Helvetica,sans-Serif" font-size="10.00">+ setStart()</text>
<text text-anchor="start" x="333.71" y="-679.5" font-family="Helvetica,sans-Serif" font-size="10.00">+ setGoal()</text>
<text text-anchor="start" x="333.71" y="-668.5" font-family="Helvetica,sans-Serif" font-size="10.00">and 8 more...</text>
</a>
</g>
</g>
<!-- Node3&#45;&gt;Node1 -->
<g id="edge7" class="edge">
<title>Node3&#45;&gt;Node1</title>
<path fill="none" stroke="#404040" d="M409.88,-661.16C413.91,-647.66 417.94,-634.01 421.71,-621 426.83,-603.29 429.72,-599.19 432.71,-581 454.66,-447.28 460.15,-290.62 461.15,-190.99"/>
<polygon fill="none" stroke="#404040" points="461.15,-190.83 457.21,-184.8 461.26,-178.83 465.21,-184.87 461.15,-190.83"/>
<text text-anchor="middle" x="475.21" y="-401" font-family="Helvetica,sans-Serif" font-size="10.00"> &#45;map</text>
</g>
<!-- Node3&#45;&gt;Node2 -->
<g id="edge2" class="edge">
<title>Node3&#45;&gt;Node2</title>
<path fill="none" stroke="#404040" d="M371.92,-661.44C370.17,-629.73 368.2,-594.19 366.3,-559.89"/>
<polygon fill="none" stroke="#404040" points="366.3,-559.8 361.97,-554.03 365.64,-547.82 369.96,-553.59 366.3,-559.8"/>
<text text-anchor="middle" x="393.71" y="-607.5" font-family="Helvetica,sans-Serif" font-size="10.00"> &#45;gridmap</text>
</g>
<!-- Node8 -->
<g id="node8" class="node">
<title>Node8</title>
<g id="a_node8"><a xlink:href="classFileManager.html" target="_top" xlink:title="Manages file input/output operations for grid map visualization.">
<polygon fill="white" stroke="black" points="172.21,-347.5 172.21,-459.5 273.21,-459.5 273.21,-347.5 172.21,-347.5"/>
<text text-anchor="middle" x="222.71" y="-447.5" font-family="Helvetica,sans-Serif" font-size="10.00">FileManager</text>
<polyline fill="none" stroke="black" points="172.21,-440.5 273.21,-440.5 "/>
<text text-anchor="start" x="180.21" y="-428.5" font-family="Helvetica,sans-Serif" font-size="10.00">&#45; loadedFilename</text>
<polyline fill="none" stroke="black" points="172.21,-421.5 273.21,-421.5 "/>
<text text-anchor="start" x="180.21" y="-409.5" font-family="Helvetica,sans-Serif" font-size="10.00">+ FileManager()</text>
<text text-anchor="start" x="180.21" y="-398.5" font-family="Helvetica,sans-Serif" font-size="10.00">+ loadDialog()</text>
<text text-anchor="start" x="180.21" y="-387.5" font-family="Helvetica,sans-Serif" font-size="10.00">+ saveDialog()</text>
<text text-anchor="start" x="180.21" y="-376.5" font-family="Helvetica,sans-Serif" font-size="10.00">+ dataLoad()</text>
<text text-anchor="start" x="180.21" y="-365.5" font-family="Helvetica,sans-Serif" font-size="10.00">+ saveData()</text>
<text text-anchor="start" x="180.21" y="-354.5" font-family="Helvetica,sans-Serif" font-size="10.00">+ saveScreen()</text>
</a>
</g>
</g>
<!-- Node3&#45;&gt;Node8 -->
<g id="edge12" class="edge">
<title>Node3&#45;&gt;Node8</title>
<path fill="none" stroke="#404040" d="M340.25,-661.1C330.11,-639.49 317.93,-617.67 303.71,-599 296.05,-588.95 288.88,-591.4 281.71,-581 259.23,-548.41 244.75,-506.57 235.76,-471.81"/>
<polygon fill="none" stroke="#404040" points="235.68,-471.49 230.36,-466.62 232.81,-459.84 238.13,-464.71 235.68,-471.49"/>
<text text-anchor="middle" x="333.21" y="-607.5" font-family="Helvetica,sans-Serif" font-size="10.00"> &#45;map</text>
</g>
<!-- Node9 -->
<g id="node9" class="node">
<title>Node9</title>
<g id="a_node9"><a xlink:href="classAStar.html" target="_top" xlink:title="This class handles the A* algorithm for path planning. It receives start and goal coordinates from th...">
<polygon fill="white" stroke="black" points="507.71,-226.5 507.71,-580.5 635.71,-580.5 635.71,-226.5 507.71,-226.5"/>
<text text-anchor="middle" x="571.71" y="-568.5" font-family="Helvetica,sans-Serif" font-size="10.00">AStar</text>
<polyline fill="none" stroke="black" points="507.71,-561.5 635.71,-561.5 "/>
<text text-anchor="start" x="515.71" y="-549.5" font-family="Helvetica,sans-Serif" font-size="10.00">&#45; width</text>
<text text-anchor="start" x="515.71" y="-538.5" font-family="Helvetica,sans-Serif" font-size="10.00">&#45; height</text>
<text text-anchor="start" x="515.71" y="-527.5" font-family="Helvetica,sans-Serif" font-size="10.00">&#45; pathFound</text>
<text text-anchor="start" x="515.71" y="-516.5" font-family="Helvetica,sans-Serif" font-size="10.00">&#45; finished</text>
<text text-anchor="start" x="515.71" y="-505.5" font-family="Helvetica,sans-Serif" font-size="10.00">&#45; startIndex</text>
<text text-anchor="start" x="515.71" y="-494.5" font-family="Helvetica,sans-Serif" font-size="10.00">&#45; goalIndex</text>
<text text-anchor="start" x="515.71" y="-483.5" font-family="Helvetica,sans-Serif" font-size="10.00">&#45; openList</text>
<text text-anchor="start" x="515.71" y="-472.5" font-family="Helvetica,sans-Serif" font-size="10.00">&#45; closedList</text>
<text text-anchor="start" x="515.71" y="-461.5" font-family="Helvetica,sans-Serif" font-size="10.00">&#45; gScore</text>
<text text-anchor="start" x="515.71" y="-450.5" font-family="Helvetica,sans-Serif" font-size="10.00">&#45; parentMap</text>
<text text-anchor="start" x="515.71" y="-439.5" font-family="Helvetica,sans-Serif" font-size="10.00">&#45; stateMap</text>
<text text-anchor="start" x="515.71" y="-428.5" font-family="Helvetica,sans-Serif" font-size="10.00">&#45; finalPath</text>
<polyline fill="none" stroke="black" points="507.71,-421.5 635.71,-421.5 "/>
<text text-anchor="start" x="515.71" y="-409.5" font-family="Helvetica,sans-Serif" font-size="10.00">+ AStar()</text>
<text text-anchor="start" x="515.71" y="-398.5" font-family="Helvetica,sans-Serif" font-size="10.00">+ start()</text>
<text text-anchor="start" x="515.71" y="-387.5" font-family="Helvetica,sans-Serif" font-size="10.00">+ step()</text>
<text text-anchor="start" x="515.71" y="-376.5" font-family="Helvetica,sans-Serif" font-size="10.00">+ findPath()</text>
<text text-anchor="start" x="515.71" y="-365.5" font-family="Helvetica,sans-Serif" font-size="10.00">+ updatemap()</text>
<text text-anchor="start" x="515.71" y="-354.5" font-family="Helvetica,sans-Serif" font-size="10.00">+ draw()</text>
<text text-anchor="start" x="515.71" y="-343.5" font-family="Helvetica,sans-Serif" font-size="10.00">+ drawFoundPath()</text>
<text text-anchor="start" x="515.71" y="-332.5" font-family="Helvetica,sans-Serif" font-size="10.00">+ isFinished()</text>
<text text-anchor="start" x="515.71" y="-321.5" font-family="Helvetica,sans-Serif" font-size="10.00">+ isPathFound()</text>
<text text-anchor="start" x="515.71" y="-310.5" font-family="Helvetica,sans-Serif" font-size="10.00">+ getCurrentNode()</text>
<text text-anchor="start" x="515.71" y="-299.5" font-family="Helvetica,sans-Serif" font-size="10.00">+ getStateMap()</text>
<text text-anchor="start" x="515.71" y="-288.5" font-family="Helvetica,sans-Serif" font-size="10.00">&#45; euclideanHeuristic()</text>
<text text-anchor="start" x="515.71" y="-277.5" font-family="Helvetica,sans-Serif" font-size="10.00">&#45; octileHeuristic()</text>
<text text-anchor="start" x="515.71" y="-266.5" font-family="Helvetica,sans-Serif" font-size="10.00">&#45; manhattanHeuristic()</text>
<text text-anchor="start" x="515.71" y="-255.5" font-family="Helvetica,sans-Serif" font-size="10.00">&#45; isValidCell()</text>
<text text-anchor="start" x="515.71" y="-244.5" font-family="Helvetica,sans-Serif" font-size="10.00">&#45; getNeighbors()</text>
<text text-anchor="start" x="515.71" y="-233.5" font-family="Helvetica,sans-Serif" font-size="10.00">&#45; reconstructPath()</text>
</a>
</g>
</g>
<!-- Node3&#45;&gt;Node9 -->
<g id="edge16" class="edge">
<title>Node3&#45;&gt;Node9</title>
<path fill="none" stroke="#404040" d="M429.94,-692.43C445.08,-669.94 461.17,-644.83 474.71,-621 484.23,-604.24 493.51,-586.37 502.32,-568.36"/>
<polygon fill="none" stroke="#404040" points="502.37,-568.24 501.38,-561.1 507.6,-557.44 508.59,-564.58 502.37,-568.24"/>
<text text-anchor="middle" x="499.21" y="-607.5" font-family="Helvetica,sans-Serif" font-size="10.00"> &#45;map</text>
</g>
<!-- Node4 -->
<g id="node4" class="node">
<title>Node4</title>
<g id="a_node4"><a xlink:href="classViewController.html" target="_top" xlink:title="Controls view, zoom, and panning.">
<polygon fill="white" stroke="black" points="128.71,-942.5 128.71,-1219.5 272.71,-1219.5 272.71,-942.5 128.71,-942.5"/>
<text text-anchor="middle" x="200.71" y="-1207.5" font-family="Helvetica,sans-Serif" font-size="10.00">ViewController</text>
<polyline fill="none" stroke="black" points="128.71,-1200.5 272.71,-1200.5 "/>
<text text-anchor="start" x="136.71" y="-1188.5" font-family="Helvetica,sans-Serif" font-size="10.00">&#45; window</text>
<text text-anchor="start" x="136.71" y="-1177.5" font-family="Helvetica,sans-Serif" font-size="10.00">&#45; view</text>
<text text-anchor="start" x="136.71" y="-1166.5" font-family="Helvetica,sans-Serif" font-size="10.00">&#45; defaultView</text>
<text text-anchor="start" x="136.71" y="-1155.5" font-family="Helvetica,sans-Serif" font-size="10.00">&#45; customDefaultView</text>
<text text-anchor="start" x="136.71" y="-1144.5" font-family="Helvetica,sans-Serif" font-size="10.00">&#45; dragging</text>
<text text-anchor="start" x="136.71" y="-1133.5" font-family="Helvetica,sans-Serif" font-size="10.00">&#45; dragStart</text>
<text text-anchor="start" x="136.71" y="-1122.5" font-family="Helvetica,sans-Serif" font-size="10.00">&#45; mousePosition_W</text>
<text text-anchor="start" x="136.71" y="-1111.5" font-family="Helvetica,sans-Serif" font-size="10.00">&#45; mousePosition_G</text>
<text text-anchor="start" x="136.71" y="-1100.5" font-family="Helvetica,sans-Serif" font-size="10.00">&#45; pixelPos</text>
<text text-anchor="start" x="136.71" y="-1089.5" font-family="Helvetica,sans-Serif" font-size="10.00">&#45; metersPerCell</text>
<text text-anchor="start" x="136.71" y="-1078.5" font-family="Helvetica,sans-Serif" font-size="10.00">and 6 more...</text>
<polyline fill="none" stroke="black" points="128.71,-1071.5 272.71,-1071.5 "/>
<text text-anchor="start" x="136.71" y="-1059.5" font-family="Helvetica,sans-Serif" font-size="10.00">+ ViewController()</text>
<text text-anchor="start" x="136.71" y="-1048.5" font-family="Helvetica,sans-Serif" font-size="10.00">+ handleEvent()</text>
<text text-anchor="start" x="136.71" y="-1037.5" font-family="Helvetica,sans-Serif" font-size="10.00">+ applyView()</text>
<text text-anchor="start" x="136.71" y="-1026.5" font-family="Helvetica,sans-Serif" font-size="10.00">+ reset()</text>
<text text-anchor="start" x="136.71" y="-1015.5" font-family="Helvetica,sans-Serif" font-size="10.00">+ zoomController()</text>
<text text-anchor="start" x="136.71" y="-1004.5" font-family="Helvetica,sans-Serif" font-size="10.00">+ drawGrid()</text>
<text text-anchor="start" x="136.71" y="-993.5" font-family="Helvetica,sans-Serif" font-size="10.00">+ drawAxes()</text>
<text text-anchor="start" x="136.71" y="-982.5" font-family="Helvetica,sans-Serif" font-size="10.00">+ windowMousePosition()</text>
<text text-anchor="start" x="136.71" y="-971.5" font-family="Helvetica,sans-Serif" font-size="10.00">+ getMetersPerCell()</text>
<text text-anchor="start" x="136.71" y="-960.5" font-family="Helvetica,sans-Serif" font-size="10.00">+ getPixelsPerMeter()</text>
<text text-anchor="start" x="136.71" y="-949.5" font-family="Helvetica,sans-Serif" font-size="10.00">and 7 more...</text>
</a>
</g>
</g>
<!-- Node4&#45;&gt;Node1 -->
<g id="edge8" class="edge">
<title>Node4&#45;&gt;Node1</title>
<path fill="none" stroke="#404040" d="M128.57,-948.41C41.58,-770.05 -76.15,-448.36 67.71,-226 138.73,-116.22 306.06,-93.96 397.81,-90.32"/>
<polygon fill="none" stroke="#404040" points="397.97,-90.32 403.84,-86.13 409.97,-89.93 404.1,-94.12 397.97,-90.32"/>
<text text-anchor="middle" x="40.71" y="-607.5" font-family="Helvetica,sans-Serif" font-size="10.00"> &#45;controller</text>
</g>
<!-- Node4&#45;&gt;Node3 -->
<g id="edge3" class="edge">
<title>Node4&#45;&gt;Node3</title>
<path fill="none" stroke="#404040" d="M272.96,-952.65C288.41,-925.4 304.56,-896.94 319.41,-870.76"/>
<polygon fill="none" stroke="#404040" points="319.55,-870.51 319.03,-863.32 325.47,-860.07 325.99,-867.27 319.55,-870.51"/>
<text text-anchor="middle" x="321.71" y="-916" font-family="Helvetica,sans-Serif" font-size="10.00"> &#45;controller</text>
</g>
<!-- Node5 -->
<g id="node5" class="node">
<title>Node5</title>
<g id="a_node5"><a xlink:href="classLiveMap.html" target="_top" xlink:title="This class manages live map creation in &quot;live mode&quot;, by dynamically updating the map from incoming RO...">
<polygon fill="white" stroke="black" points="128.71,-639.5 128.71,-894.5 272.71,-894.5 272.71,-639.5 128.71,-639.5"/>
<text text-anchor="middle" x="200.71" y="-882.5" font-family="Helvetica,sans-Serif" font-size="10.00">LiveMap</text>
<polyline fill="none" stroke="black" points="128.71,-875.5 272.71,-875.5 "/>
<text text-anchor="start" x="136.71" y="-863.5" font-family="Helvetica,sans-Serif" font-size="10.00">&#45; gridSize</text>
<text text-anchor="start" x="136.71" y="-852.5" font-family="Helvetica,sans-Serif" font-size="10.00">&#45; gridResolution</text>
<text text-anchor="start" x="136.71" y="-841.5" font-family="Helvetica,sans-Serif" font-size="10.00">&#45; posX</text>
<text text-anchor="start" x="136.71" y="-830.5" font-family="Helvetica,sans-Serif" font-size="10.00">&#45; posY</text>
<text text-anchor="start" x="136.71" y="-819.5" font-family="Helvetica,sans-Serif" font-size="10.00">&#45; grid</text>
<text text-anchor="start" x="136.71" y="-808.5" font-family="Helvetica,sans-Serif" font-size="10.00">&#45; originSet</text>
<text text-anchor="start" x="136.71" y="-797.5" font-family="Helvetica,sans-Serif" font-size="10.00">&#45; originX</text>
<text text-anchor="start" x="136.71" y="-786.5" font-family="Helvetica,sans-Serif" font-size="10.00">&#45; originY</text>
<text text-anchor="start" x="136.71" y="-775.5" font-family="Helvetica,sans-Serif" font-size="10.00">&#45; isLivemodeActive</text>
<polyline fill="none" stroke="black" points="128.71,-768.5 272.71,-768.5 "/>
<text text-anchor="start" x="136.71" y="-756.5" font-family="Helvetica,sans-Serif" font-size="10.00">+ LiveMap()</text>
<text text-anchor="start" x="136.71" y="-745.5" font-family="Helvetica,sans-Serif" font-size="10.00">+ addPoint()</text>
<text text-anchor="start" x="136.71" y="-734.5" font-family="Helvetica,sans-Serif" font-size="10.00">+ setPoints()</text>
<text text-anchor="start" x="136.71" y="-723.5" font-family="Helvetica,sans-Serif" font-size="10.00">+ clearPoints()</text>
<text text-anchor="start" x="136.71" y="-712.5" font-family="Helvetica,sans-Serif" font-size="10.00">+ clearGrid()</text>
<text text-anchor="start" x="136.71" y="-701.5" font-family="Helvetica,sans-Serif" font-size="10.00">+ xy2Grid()</text>
<text text-anchor="start" x="136.71" y="-690.5" font-family="Helvetica,sans-Serif" font-size="10.00">+ fillGrid()</text>
<text text-anchor="start" x="136.71" y="-679.5" font-family="Helvetica,sans-Serif" font-size="10.00">+ getGrid()</text>
<text text-anchor="start" x="136.71" y="-668.5" font-family="Helvetica,sans-Serif" font-size="10.00">+ updateGridFromPoints()</text>
<text text-anchor="start" x="136.71" y="-657.5" font-family="Helvetica,sans-Serif" font-size="10.00">+ drawLiveMap()</text>
<text text-anchor="start" x="136.71" y="-646.5" font-family="Helvetica,sans-Serif" font-size="10.00">and 6 more...</text>
</a>
</g>
</g>
<!-- Node4&#45;&gt;Node5 -->
<g id="edge5" class="edge">
<title>Node4&#45;&gt;Node5</title>
<path fill="none" stroke="#404040" d="M200.71,-942.24C200.71,-930.49 200.71,-918.6 200.71,-906.84"/>
<polygon fill="none" stroke="#404040" points="200.71,-906.64 196.71,-900.64 200.71,-894.64 204.71,-900.64 200.71,-906.64"/>
<text text-anchor="middle" x="227.71" y="-916" font-family="Helvetica,sans-Serif" font-size="10.00"> &#45;controller</text>
</g>
<!-- Node5&#45;&gt;Node1 -->
<g id="edge10" class="edge">
<title>Node5&#45;&gt;Node1</title>
<path fill="none" stroke="#404040" d="M133.88,-639.46C82.21,-522.38 32.26,-348.43 115.71,-226 179.14,-132.94 317.09,-103.79 398.02,-94.66"/>
<polygon fill="none" stroke="#404040" points="398.08,-94.66 403.63,-90.05 410.01,-93.41 404.46,-98.01 398.08,-94.66"/>
<text text-anchor="middle" x="139.21" y="-401" font-family="Helvetica,sans-Serif" font-size="10.00"> &#45;livemap</text>
</g>
<!-- Node5&#45;&gt;Node2 -->
<g id="edge4" class="edge">
<title>Node5&#45;&gt;Node2</title>
<path fill="none" stroke="#404040" d="M229.29,-639.38C235.62,-624.97 243.32,-611.13 252.71,-599 261.99,-587 271.81,-592.49 281.71,-581 287.83,-573.89 293.53,-566.21 298.81,-558.18"/>
<polygon fill="none" stroke="#404040" points="298.93,-557.99 298.72,-550.79 305.29,-547.82 305.5,-555.03 298.93,-557.99"/>
<text text-anchor="middle" x="276.21" y="-607.5" font-family="Helvetica,sans-Serif" font-size="10.00"> &#45;livemap</text>
</g>
<!-- Node5&#45;&gt;Node8 -->
<g id="edge13" class="edge">
<title>Node5&#45;&gt;Node8</title>
<path fill="none" stroke="#404040" d="M200.12,-639.21C200.46,-625.63 200.97,-612.03 201.71,-599 204.11,-556.65 209.17,-509.34 213.72,-471.98"/>
<polygon fill="none" stroke="#404040" points="213.76,-471.62 210.53,-465.17 215.24,-459.71 218.47,-466.16 213.76,-471.62"/>
<text text-anchor="middle" x="217.71" y="-607.5" font-family="Helvetica,sans-Serif" font-size="10.00"> &#45;lmap</text>
</g>
<!-- Node6 -->
<g id="node6" class="node">
<title>Node6</title>
<g id="a_node6"><a xlink:href="classMenuBar.html" target="_top" xlink:title="Manages the menu bar located at the bottom of the screen. Provides options for file handling,...">
<polygon fill="white" stroke="black" points="653.71,-325.5 653.71,-481.5 781.71,-481.5 781.71,-325.5 653.71,-325.5"/>
<text text-anchor="middle" x="717.71" y="-469.5" font-family="Helvetica,sans-Serif" font-size="10.00">MenuBar</text>
<polyline fill="none" stroke="black" points="653.71,-462.5 781.71,-462.5 "/>
<text text-anchor="start" x="661.71" y="-450.5" font-family="Helvetica,sans-Serif" font-size="10.00">&#45; menuBar</text>
<text text-anchor="start" x="661.71" y="-439.5" font-family="Helvetica,sans-Serif" font-size="10.00">&#45; coordLabel</text>
<text text-anchor="start" x="661.71" y="-428.5" font-family="Helvetica,sans-Serif" font-size="10.00">&#45; liveToggle</text>
<text text-anchor="start" x="661.71" y="-417.5" font-family="Helvetica,sans-Serif" font-size="10.00">&#45; liveMode</text>
<polyline fill="none" stroke="black" points="653.71,-410.5 781.71,-410.5 "/>
<text text-anchor="start" x="661.71" y="-398.5" font-family="Helvetica,sans-Serif" font-size="10.00">+ MenuBar()</text>
<text text-anchor="start" x="661.71" y="-387.5" font-family="Helvetica,sans-Serif" font-size="10.00">+ setCallbacks()</text>
<text text-anchor="start" x="661.71" y="-376.5" font-family="Helvetica,sans-Serif" font-size="10.00">+ updateCoordinates()</text>
<text text-anchor="start" x="661.71" y="-365.5" font-family="Helvetica,sans-Serif" font-size="10.00">+ getLiveMode()</text>
<text text-anchor="start" x="661.71" y="-354.5" font-family="Helvetica,sans-Serif" font-size="10.00">&#45; setupMenu()</text>
<text text-anchor="start" x="661.71" y="-343.5" font-family="Helvetica,sans-Serif" font-size="10.00">&#45; setupCordLable()</text>
<text text-anchor="start" x="661.71" y="-332.5" font-family="Helvetica,sans-Serif" font-size="10.00">&#45; setupliveToggle()</text>
</a>
</g>
</g>
<!-- Node6&#45;&gt;Node1 -->
<g id="edge6" class="edge">
<title>Node6&#45;&gt;Node1</title>
<path fill="none" stroke="#404040" d="M695.97,-325.11C684.28,-292.35 667.5,-255.12 644.71,-226 611.38,-183.41 561.37,-147.76 521.9,-123.73"/>
<polygon fill="none" stroke="#404040" points="521.89,-123.73 514.69,-124.08 511.59,-117.57 518.79,-117.22 521.89,-123.73"/>
<text text-anchor="middle" x="645.21" y="-200" font-family="Helvetica,sans-Serif" font-size="10.00"> &#45;menu</text>
</g>
<!-- Node7 -->
<g id="node7" class="node">
<title>Node7</title>
<g id="a_node7"><a xlink:href="classUnicicleWmr.html" target="_top" xlink:title="Simulates a unicycle model robot with position, velocity, and rendering support.">
<polygon fill="white" stroke="black" points="799.71,-243 799.71,-564 909.71,-564 909.71,-243 799.71,-243"/>
<text text-anchor="middle" x="854.71" y="-552" font-family="Helvetica,sans-Serif" font-size="10.00">UnicicleWmr</text>
<polyline fill="none" stroke="black" points="799.71,-545 909.71,-545 "/>
<text text-anchor="start" x="807.71" y="-533" font-family="Helvetica,sans-Serif" font-size="10.00">&#45; pixelsPerMeter</text>
<text text-anchor="start" x="807.71" y="-522" font-family="Helvetica,sans-Serif" font-size="10.00">&#45; width</text>
<text text-anchor="start" x="807.71" y="-511" font-family="Helvetica,sans-Serif" font-size="10.00">&#45; height</text>
<text text-anchor="start" x="807.71" y="-500" font-family="Helvetica,sans-Serif" font-size="10.00">&#45; x</text>
<text text-anchor="start" x="807.71" y="-489" font-family="Helvetica,sans-Serif" font-size="10.00">&#45; y</text>
<text text-anchor="start" x="807.71" y="-478" font-family="Helvetica,sans-Serif" font-size="10.00">&#45; theta</text>
<text text-anchor="start" x="807.71" y="-467" font-family="Helvetica,sans-Serif" font-size="10.00">&#45; linear_v</text>
<text text-anchor="start" x="807.71" y="-456" font-family="Helvetica,sans-Serif" font-size="10.00">&#45; angular_omega</text>
<text text-anchor="start" x="807.71" y="-445" font-family="Helvetica,sans-Serif" font-size="10.00">&#45; robotShape</text>
<text text-anchor="start" x="807.71" y="-434" font-family="Helvetica,sans-Serif" font-size="10.00">&#45; robotcolor</text>
<text text-anchor="start" x="807.71" y="-423" font-family="Helvetica,sans-Serif" font-size="10.00">&#45; isRobotActive</text>
<polyline fill="none" stroke="black" points="799.71,-416 909.71,-416 "/>
<text text-anchor="start" x="807.71" y="-404" font-family="Helvetica,sans-Serif" font-size="10.00">+ UnicicleWmr()</text>
<text text-anchor="start" x="807.71" y="-393" font-family="Helvetica,sans-Serif" font-size="10.00">+ update()</text>
<text text-anchor="start" x="807.71" y="-382" font-family="Helvetica,sans-Serif" font-size="10.00">+ draw()</text>
<text text-anchor="start" x="807.71" y="-371" font-family="Helvetica,sans-Serif" font-size="10.00">+ setVelocity()</text>
<text text-anchor="start" x="807.71" y="-360" font-family="Helvetica,sans-Serif" font-size="10.00">+ reset()</text>
<text text-anchor="start" x="807.71" y="-349" font-family="Helvetica,sans-Serif" font-size="10.00">+ getX()</text>
<text text-anchor="start" x="807.71" y="-338" font-family="Helvetica,sans-Serif" font-size="10.00">+ getY()</text>
<text text-anchor="start" x="807.71" y="-327" font-family="Helvetica,sans-Serif" font-size="10.00">+ getTheta()</text>
<text text-anchor="start" x="807.71" y="-316" font-family="Helvetica,sans-Serif" font-size="10.00">+ getWidth()</text>
<text text-anchor="start" x="807.71" y="-305" font-family="Helvetica,sans-Serif" font-size="10.00">+ getheight()</text>
<text text-anchor="start" x="807.71" y="-294" font-family="Helvetica,sans-Serif" font-size="10.00">+ setRobotActive()</text>
<text text-anchor="start" x="807.71" y="-283" font-family="Helvetica,sans-Serif" font-size="10.00">+ getRobotActive()</text>
<text text-anchor="start" x="807.71" y="-272" font-family="Helvetica,sans-Serif" font-size="10.00">+ setPose()</text>
<text text-anchor="start" x="807.71" y="-261" font-family="Helvetica,sans-Serif" font-size="10.00">+ setColor()</text>
<text text-anchor="start" x="807.71" y="-250" font-family="Helvetica,sans-Serif" font-size="10.00">+ setDimensions()</text>
</a>
</g>
</g>
<!-- Node7&#45;&gt;Node1 -->
<g id="edge9" class="edge">
<title>Node7&#45;&gt;Node1</title>
<path fill="none" stroke="#404040" d="M804.49,-242.66C800.25,-236.76 795.67,-231.18 790.71,-226 718.02,-150.21 596.85,-115.37 523.31,-100.49"/>
<polygon fill="none" stroke="#404040" points="523.26,-100.48 516.61,-103.26 511.49,-98.19 518.14,-95.41 523.26,-100.48"/>
<text text-anchor="middle" x="784.21" y="-200" font-family="Helvetica,sans-Serif" font-size="10.00"> &#45;wmr</text>
</g>
<!-- Node8&#45;&gt;Node1 -->
<g id="edge11" class="edge">
<title>Node8&#45;&gt;Node1</title>
<path fill="none" stroke="#404040" d="M232.27,-347.25C240.7,-310.33 255.8,-262.09 281.71,-226 312.46,-183.17 360.7,-147.77 399.35,-123.9"/>
<polygon fill="none" stroke="#404040" points="399.71,-123.69 402.77,-117.16 409.98,-117.48 406.91,-124.01 399.71,-123.69"/>
<text text-anchor="middle" x="331.21" y="-200" font-family="Helvetica,sans-Serif" font-size="10.00"> &#45;manager</text>
</g>
<!-- Node9&#45;&gt;Node1 -->
<g id="edge14" class="edge">
<title>Node9&#45;&gt;Node1</title>
<path fill="none" stroke="#404040" d="M509.07,-226.44C504.68,-214.1 500.35,-201.94 496.2,-190.26"/>
<polygon fill="none" stroke="#404040" points="496.13,-190.06 490.35,-185.74 492.1,-178.75 497.88,-183.06 496.13,-190.06"/>
<text text-anchor="middle" x="526.21" y="-200" font-family="Helvetica,sans-Serif" font-size="10.00"> &#45;aStarsim</text>
</g>
<!-- Node10 -->
<g id="node10" class="node">
<title>Node10</title>
<g id="a_node10"><a xlink:href="classNode.html" target="_top" xlink:title="Represents a node in a grid used for path planning algorithms (e.g., A*). Each node corresponds to a ...">
<polygon fill="white" stroke="black" points="529.21,-689 529.21,-845 614.21,-845 614.21,-689 529.21,-689"/>
<text text-anchor="middle" x="571.71" y="-833" font-family="Helvetica,sans-Serif" font-size="10.00">Node</text>
<polyline fill="none" stroke="black" points="529.21,-826 614.21,-826 "/>
<text text-anchor="start" x="537.21" y="-814" font-family="Helvetica,sans-Serif" font-size="10.00">+ x</text>
<text text-anchor="start" x="537.21" y="-803" font-family="Helvetica,sans-Serif" font-size="10.00">+ y</text>
<text text-anchor="start" x="537.21" y="-792" font-family="Helvetica,sans-Serif" font-size="10.00">+ parent</text>
<text text-anchor="start" x="537.21" y="-781" font-family="Helvetica,sans-Serif" font-size="10.00">+ parentX</text>
<text text-anchor="start" x="537.21" y="-770" font-family="Helvetica,sans-Serif" font-size="10.00">+ parentY</text>
<text text-anchor="start" x="537.21" y="-759" font-family="Helvetica,sans-Serif" font-size="10.00">+ gCost</text>
<text text-anchor="start" x="537.21" y="-748" font-family="Helvetica,sans-Serif" font-size="10.00">+ hCost</text>
<polyline fill="none" stroke="black" points="529.21,-741 614.21,-741 "/>
<text text-anchor="start" x="537.21" y="-729" font-family="Helvetica,sans-Serif" font-size="10.00">+ Node()</text>
<text text-anchor="start" x="537.21" y="-718" font-family="Helvetica,sans-Serif" font-size="10.00">+ Node()</text>
<text text-anchor="start" x="537.21" y="-707" font-family="Helvetica,sans-Serif" font-size="10.00">+ fCost()</text>
<text text-anchor="start" x="537.21" y="-696" font-family="Helvetica,sans-Serif" font-size="10.00">+ operator&gt;()</text>
</a>
</g>
</g>
<!-- Node10&#45;&gt;Node9 -->
<g id="edge15" class="edge">
<title>Node10&#45;&gt;Node9</title>
<path fill="none" stroke="#404040" d="M571.71,-688.89C571.71,-660.42 571.71,-626.76 571.71,-592.75"/>
<polygon fill="none" stroke="#404040" points="571.71,-592.72 567.71,-586.72 571.71,-580.72 575.71,-586.72 571.71,-592.72"/>
<text text-anchor="middle" x="605.21" y="-613" font-family="Helvetica,sans-Serif" font-size="10.00"> &#45;currentNode</text>
<text text-anchor="middle" x="605.21" y="-602" font-family="Helvetica,sans-Serif" font-size="10.00">&#45;goalNode</text>
</g>
<!-- Node11 -->
<g id="node11" class="node">
<title>Node11</title>
<g id="a_node11"><a xlink:href="classRosHandler.html" target="_top" xlink:title="Handles ROS communication:">
<polygon fill="white" stroke="black" points="927.71,-254 927.71,-553 1071.71,-553 1071.71,-254 927.71,-254"/>
<text text-anchor="middle" x="999.71" y="-541" font-family="Helvetica,sans-Serif" font-size="10.00">RosHandler</text>
<polyline fill="none" stroke="black" points="927.71,-534 1071.71,-534 "/>
<text text-anchor="start" x="935.71" y="-522" font-family="Helvetica,sans-Serif" font-size="10.00">&#45; nh</text>
<text text-anchor="start" x="935.71" y="-511" font-family="Helvetica,sans-Serif" font-size="10.00">&#45; linear</text>
<text text-anchor="start" x="935.71" y="-500" font-family="Helvetica,sans-Serif" font-size="10.00">&#45; angular</text>
<text text-anchor="start" x="935.71" y="-489" font-family="Helvetica,sans-Serif" font-size="10.00">&#45; l_scale</text>
<text text-anchor="start" x="935.71" y="-478" font-family="Helvetica,sans-Serif" font-size="10.00">&#45; a_scale</text>
<text text-anchor="start" x="935.71" y="-467" font-family="Helvetica,sans-Serif" font-size="10.00">&#45; sonarPoints</text>
<text text-anchor="start" x="935.71" y="-456" font-family="Helvetica,sans-Serif" font-size="10.00">&#45; current_linear_velocity</text>
<text text-anchor="start" x="935.71" y="-445" font-family="Helvetica,sans-Serif" font-size="10.00">&#45; current_angular_velocity</text>
<text text-anchor="start" x="935.71" y="-434" font-family="Helvetica,sans-Serif" font-size="10.00">&#45; last_dt</text>
<text text-anchor="start" x="935.71" y="-423" font-family="Helvetica,sans-Serif" font-size="10.00">&#45; last_joy_time</text>
<text text-anchor="start" x="935.71" y="-412" font-family="Helvetica,sans-Serif" font-size="10.00">&#45; vel_pub</text>
<text text-anchor="start" x="935.71" y="-401" font-family="Helvetica,sans-Serif" font-size="10.00">&#45; sonar_sub</text>
<text text-anchor="start" x="935.71" y="-390" font-family="Helvetica,sans-Serif" font-size="10.00">&#45; joy_sub</text>
<text text-anchor="start" x="935.71" y="-379" font-family="Helvetica,sans-Serif" font-size="10.00">&#45; ram_pub</text>
<text text-anchor="start" x="935.71" y="-368" font-family="Helvetica,sans-Serif" font-size="10.00">&#45; ram_timer</text>
<polyline fill="none" stroke="black" points="927.71,-361 1071.71,-361 "/>
<text text-anchor="start" x="935.71" y="-349" font-family="Helvetica,sans-Serif" font-size="10.00">+ RosHandler()</text>
<text text-anchor="start" x="935.71" y="-338" font-family="Helvetica,sans-Serif" font-size="10.00">+ getSonarPoints()</text>
<text text-anchor="start" x="935.71" y="-327" font-family="Helvetica,sans-Serif" font-size="10.00">+ getLinearVelocity()</text>
<text text-anchor="start" x="935.71" y="-316" font-family="Helvetica,sans-Serif" font-size="10.00">+ getAngularVelocity()</text>
<text text-anchor="start" x="935.71" y="-305" font-family="Helvetica,sans-Serif" font-size="10.00">+ getLastDeltaTime()</text>
<text text-anchor="start" x="935.71" y="-294" font-family="Helvetica,sans-Serif" font-size="10.00">&#45; joyCallback()</text>
<text text-anchor="start" x="935.71" y="-283" font-family="Helvetica,sans-Serif" font-size="10.00">&#45; sonarPointReceiver()</text>
<text text-anchor="start" x="935.71" y="-272" font-family="Helvetica,sans-Serif" font-size="10.00">&#45; getMemoryUsageKB()</text>
<text text-anchor="start" x="935.71" y="-261" font-family="Helvetica,sans-Serif" font-size="10.00">&#45; publishMemoryUsage()</text>
</a>
</g>
</g>
<!-- Node11&#45;&gt;Node1 -->
<g id="edge17" class="edge">
<title>Node11&#45;&gt;Node1</title>
<path fill="none" stroke="#404040" d="M943.99,-253.93C936.53,-243.67 928.13,-234.17 918.71,-226 804.2,-126.76 619.8,-100.16 523.63,-93.06"/>
<polygon fill="none" stroke="#404040" points="523.48,-93.05 517.22,-96.63 511.51,-92.23 517.76,-88.65 523.48,-93.05"/>
<text text-anchor="middle" x="917.21" y="-200" font-family="Helvetica,sans-Serif" font-size="10.00"> &#45;roshandler</text>
</g>
</g>
</svg>
        <g id="navigator" transform="translate(0 0)" fill="#404254">
                <rect fill="#f2f5e9" fill-opacity="0.5" stroke="#606060" stroke-width=".5" x="0" y="0" width="60" height="60"/>
                <use id="zoomplus" xlink:href="#zoomPlus" x="17" y="9" onmousedown="handleZoom(evt,'in')"/>
                <use id="zoomminus" xlink:href="#zoomMin" x="42" y="9" onmousedown="handleZoom(evt,'out')"/>
                <use id="reset" xlink:href="#resetDef" x="30" y="36" onmousedown="handleReset()"/>
                <g id="arrowUp" xlink:href="#dirArrow" transform="translate(30 24)" onmousedown="handlePan(0,-1)">
                  <use xlink:href="#rim" fill="#404040">
                        <set attributeName="fill" to="#808080" begin="arrowUp.mouseover" end="arrowUp.mouseout"/>
                  </use>
                  <path fill="none" stroke="white" stroke-width="1.5" d="M0,-3.0v7 M-2.5,-0.5L0,-3.0L2.5,-0.5"/>
                </g>
                <g id="arrowRight" xlink:href="#dirArrow" transform="rotate(90) translate(36 -43)" onmousedown="handlePan(1,0)">
                  <use xlink:href="#rim" fill="#404040">
                        <set attributeName="fill" to="#808080" begin="arrowRight.mouseover" end="arrowRight.mouseout"/>
                  </use>
                  <path fill="none" stroke="white" stroke-width="1.5" d="M0,-3.0v7 M-2.5,-0.5L0,-3.0L2.5,-0.5"/>
                </g>
                <g id="arrowDown" xlink:href="#dirArrow" transform="rotate(180) translate(-30 -48)" onmousedown="handlePan(0,1)">
                  <use xlink:href="#rim" fill="#404040">
                        <set attributeName="fill" to="#808080" begin="arrowDown.mouseover" end="arrowDown.mouseout"/>
                  </use>
                  <path fill="none" stroke="white" stroke-width="1.5" d="M0,-3.0v7 M-2.5,-0.5L0,-3.0L2.5,-0.5"/>
                </g>
                <g id="arrowLeft" xlink:href="#dirArrow" transform="rotate(270) translate(-36 17)" onmousedown="handlePan(-1,0)">
                  <use xlink:href="#rim" fill="#404040">
                        <set attributeName="fill" to="#808080" begin="arrowLeft.mouseover" end="arrowLeft.mouseout"/>
                  </use>
                  <path fill="none" stroke="white" stroke-width="1.5" d="M0,-3.0v7 M-2.5,-0.5L0,-3.0L2.5,-0.5"/>
                </g>
        </g>
        <svg viewBox="0 0 15 15" width="100%" height="30px" preserveAspectRatio="xMaxYMin meet">
         <g id="arrow_out" transform="scale(0.3 0.3)">
          <a xlink:href="classMapViewer__coll__graph_org.svg" target="_base">
           <rect id="button" ry="5" rx="5" y="6" x="6" height="38" width="38"
                fill="#f2f5e9" fill-opacity="0.5" stroke="#606060" stroke-width="1.0"/>
           <path id="arrow"
             d="M 11.500037,31.436501 C 11.940474,20.09759 22.043105,11.32322 32.158766,21.979434 L 37.068811,17.246167 C 37.068811,17.246167 37.088388,32 37.088388,32 L 22.160133,31.978069 C 22.160133,31.978069 26.997745,27.140456 26.997745,27.140456 C 18.528582,18.264221 13.291696,25.230495 11.500037,31.436501 z"
             style="fill:#404040;"/>
          </a>
         </g>
        </svg>
</svg>
