<?xml version="1.0" encoding="UTF-8" standalone="no"?>
<!DOCTYPE svg PUBLIC "-//W3C//DTD SVG 1.1//EN"
 "http://www.w3.org/Graphics/SVG/1.1/DTD/svg11.dtd">
<!-- Generated by graphviz version 2.43.0 (0)
 -->
<!-- Title: AStar::reconstructPath Pages: 1 -->
<svg width="463pt" height="66pt"
 viewBox="0.00 0.00 463.00 66.00" xmlns="http://www.w3.org/2000/svg" xmlns:xlink="http://www.w3.org/1999/xlink">
<g id="graph0" class="graph" transform="scale(1 1) rotate(0) translate(4 62)">
<title>AStar::reconstructPath</title>
<polygon fill="white" stroke="transparent" points="-4,4 -4,-62 459,-62 459,4 -4,4"/>
<!-- Node1 -->
<g id="node1" class="node">
<title>Node1</title>
<g id="a_node1"><a xlink:title="Reconstructs the final path from the goal node by tracing the parent map.">
<polygon fill="#bfbfbf" stroke="black" points="330,-19.5 330,-38.5 455,-38.5 455,-19.5 330,-19.5"/>
<text text-anchor="middle" x="392.5" y="-26.5" font-family="Helvetica,sans-Serif" font-size="10.00">AStar::reconstructPath</text>
</a>
</g>
</g>
<!-- Node2 -->
<g id="node2" class="node">
<title>Node2</title>
<g id="a_node2"><a xlink:href="classAStar.html#ac1635080ee8fbca765f9bfd83ce2c4d2" target="_top" xlink:title="Executes the full A* algorithm from start to goal in one call.">
<polygon fill="white" stroke="black" points="88,-38.5 88,-57.5 177,-57.5 177,-38.5 88,-38.5"/>
<text text-anchor="middle" x="132.5" y="-45.5" font-family="Helvetica,sans-Serif" font-size="10.00">AStar::findPath</text>
</a>
</g>
</g>
<!-- Node1&#45;&gt;Node2 -->
<g id="edge1" class="edge">
<title>Node1&#45;&gt;Node2</title>
<path fill="none" stroke="midnightblue" d="M319.53,-34.3C273.75,-37.67 215.95,-41.93 177.03,-44.79"/>
<polygon fill="midnightblue" stroke="midnightblue" points="319.99,-37.78 329.7,-33.55 319.47,-30.79 319.99,-37.78"/>
</g>
<!-- Node3 -->
<g id="node3" class="node">
<title>Node3</title>
<g id="a_node3"><a xlink:href="classAStar.html#a0c3d34d32a97828112f6ee453e75121b" target="_top" xlink:title="Performs one step of the A* algorithm.">
<polygon fill="white" stroke="black" points="224,-0.5 224,-19.5 294,-19.5 294,-0.5 224,-0.5"/>
<text text-anchor="middle" x="259" y="-7.5" font-family="Helvetica,sans-Serif" font-size="10.00">AStar::step</text>
</a>
</g>
</g>
<!-- Node1&#45;&gt;Node3 -->
<g id="edge2" class="edge">
<title>Node1&#45;&gt;Node3</title>
<path fill="none" stroke="midnightblue" d="M319.89,-18.65C310.97,-17.36 302.19,-16.1 294.22,-14.94"/>
<polygon fill="midnightblue" stroke="midnightblue" points="319.59,-22.15 329.99,-20.11 320.59,-15.22 319.59,-22.15"/>
</g>
<!-- Node3&#45;&gt;Node2 -->
<g id="edge3" class="edge">
<title>Node3&#45;&gt;Node2</title>
<path fill="none" stroke="midnightblue" d="M216.93,-22.54C199.99,-27.7 180.68,-33.6 164.91,-38.41"/>
<polygon fill="midnightblue" stroke="midnightblue" points="218.04,-25.86 226.58,-19.59 216,-19.16 218.04,-25.86"/>
</g>
<!-- Node4 -->
<g id="node4" class="node">
<title>Node4</title>
<g id="a_node4"><a xlink:href="classMapViewer.html#a323a6ee85f1257b6e7c758ebf3d694bd" target="_top" xlink:title="Manages logic updates and user interaction.">
<polygon fill="white" stroke="black" points="77,-0.5 77,-19.5 188,-19.5 188,-0.5 77,-0.5"/>
<text text-anchor="middle" x="132.5" y="-7.5" font-family="Helvetica,sans-Serif" font-size="10.00">MapViewer::update</text>
</a>
</g>
</g>
<!-- Node3&#45;&gt;Node4 -->
<g id="edge4" class="edge">
<title>Node3&#45;&gt;Node4</title>
<path fill="none" stroke="midnightblue" d="M213.75,-10C205.44,-10 196.67,-10 188.08,-10"/>
<polygon fill="midnightblue" stroke="midnightblue" points="213.98,-13.5 223.98,-10 213.98,-6.5 213.98,-13.5"/>
</g>
<!-- Node5 -->
<g id="node5" class="node">
<title>Node5</title>
<g id="a_node5"><a xlink:href="main_8cpp.html#a3c04138a5bfe5d72780bb7e82a18e627" target="_top" xlink:title="Main entry point for the ARTG SLAM visualization node.">
<polygon fill="white" stroke="black" points="0,-0.5 0,-19.5 41,-19.5 41,-0.5 0,-0.5"/>
<text text-anchor="middle" x="20.5" y="-7.5" font-family="Helvetica,sans-Serif" font-size="10.00">main</text>
</a>
</g>
</g>
<!-- Node4&#45;&gt;Node5 -->
<g id="edge5" class="edge">
<title>Node4&#45;&gt;Node5</title>
<path fill="none" stroke="midnightblue" d="M66.64,-10C57.35,-10 48.45,-10 41.05,-10"/>
<polygon fill="midnightblue" stroke="midnightblue" points="66.82,-13.5 76.82,-10 66.82,-6.5 66.82,-13.5"/>
</g>
</g>
</svg>
