<?xml version="1.0" encoding="UTF-8" standalone="no"?>
<!DOCTYPE svg PUBLIC "-//W3C//DTD SVG 1.1//EN"
 "http://www.w3.org/Graphics/SVG/1.1/DTD/svg11.dtd">
<!-- Generated by graphviz version 2.43.0 (0)
 -->
<!-- Title: LiveMap::updateGridFromPoints Pages: 1 -->
<svg width="463pt" height="66pt"
 viewBox="0.00 0.00 463.00 66.00" xmlns="http://www.w3.org/2000/svg" xmlns:xlink="http://www.w3.org/1999/xlink">
<g id="graph0" class="graph" transform="scale(1 1) rotate(0) translate(4 62)">
<title>LiveMap::updateGridFromPoints</title>
<polygon fill="white" stroke="transparent" points="-4,4 -4,-62 459,-62 459,4 -4,4"/>
<!-- Node1 -->
<g id="node1" class="node">
<title>Node1</title>
<g id="a_node1"><a xlink:title="Updates the grid from the internal point buffer.">
<polygon fill="#bfbfbf" stroke="black" points="0,-19.5 0,-38.5 173,-38.5 173,-19.5 0,-19.5"/>
<text text-anchor="middle" x="86.5" y="-26.5" font-family="Helvetica,sans-Serif" font-size="10.00">LiveMap::updateGridFromPoints</text>
</a>
</g>
</g>
<!-- Node2 -->
<g id="node2" class="node">
<title>Node2</title>
<g id="a_node2"><a xlink:href="classLiveMap.html#aca9414f3b6a8d57ec31f8a35fb1bb5d2" target="_top" xlink:title="Fills the grid using the given grid indices, marking cells as occupied (1)">
<polygon fill="white" stroke="black" points="211.5,-38.5 211.5,-57.5 308.5,-57.5 308.5,-38.5 211.5,-38.5"/>
<text text-anchor="middle" x="260" y="-45.5" font-family="Helvetica,sans-Serif" font-size="10.00">LiveMap::fillGrid</text>
</a>
</g>
</g>
<!-- Node1&#45;&gt;Node2 -->
<g id="edge1" class="edge">
<title>Node1&#45;&gt;Node2</title>
<path fill="none" stroke="midnightblue" d="M173.25,-38.5C182.74,-39.55 192.23,-40.6 201.26,-41.6"/>
<polygon fill="midnightblue" stroke="midnightblue" points="200.9,-45.08 211.23,-42.71 201.67,-38.13 200.9,-45.08"/>
</g>
<!-- Node4 -->
<g id="node4" class="node">
<title>Node4</title>
<g id="a_node4"><a xlink:href="classLiveMap.html#a4c5f9a45946eb1fc48e3b50b28da724a" target="_top" xlink:title="Converts real&#45;world coordinates to grid indices.">
<polygon fill="white" stroke="black" points="209,-0.5 209,-19.5 311,-19.5 311,-0.5 209,-0.5"/>
<text text-anchor="middle" x="260" y="-7.5" font-family="Helvetica,sans-Serif" font-size="10.00">LiveMap::xy2Grid</text>
</a>
</g>
</g>
<!-- Node1&#45;&gt;Node4 -->
<g id="edge3" class="edge">
<title>Node1&#45;&gt;Node4</title>
<path fill="none" stroke="midnightblue" d="M173.25,-19.5C181.94,-18.54 190.63,-17.57 198.97,-16.65"/>
<polygon fill="midnightblue" stroke="midnightblue" points="199.38,-20.13 208.93,-15.55 198.61,-13.17 199.38,-20.13"/>
</g>
<!-- Node3 -->
<g id="node3" class="node">
<title>Node3</title>
<g id="a_node3"><a xlink:href="classLiveMap.html#aba698035fef23107bc3aa1abc7c2dd90" target="_top" xlink:title="Clears the occupancy grid (sets all cells to 0)">
<polygon fill="white" stroke="black" points="347,-38.5 347,-57.5 455,-57.5 455,-38.5 347,-38.5"/>
<text text-anchor="middle" x="401" y="-45.5" font-family="Helvetica,sans-Serif" font-size="10.00">LiveMap::clearGrid</text>
</a>
</g>
</g>
<!-- Node2&#45;&gt;Node3 -->
<g id="edge2" class="edge">
<title>Node2&#45;&gt;Node3</title>
<path fill="none" stroke="midnightblue" d="M308.84,-48C317.83,-48 327.37,-48 336.75,-48"/>
<polygon fill="midnightblue" stroke="midnightblue" points="336.84,-51.5 346.84,-48 336.84,-44.5 336.84,-51.5"/>
</g>
</g>
</svg>
