<?xml version="1.0" encoding="UTF-8" standalone="no"?>
<!DOCTYPE svg PUBLIC "-//W3C//DTD SVG 1.1//EN"
 "http://www.w3.org/Graphics/SVG/1.1/DTD/svg11.dtd">
<!-- Generated by graphviz version 2.43.0 (0)
 -->
<!-- Title: MapViewer::update Pages: 1 -->
<svg width="654pt" height="648pt"
 viewBox="0.00 0.00 654.00 648.00" xmlns="http://www.w3.org/2000/svg" xmlns:xlink="http://www.w3.org/1999/xlink">
<g id="graph0" class="graph" transform="scale(1 1) rotate(0) translate(4 644)">
<title>MapViewer::update</title>
<polygon fill="white" stroke="transparent" points="-4,4 -4,-644 650,-644 650,4 -4,4"/>
<!-- Node1 -->
<g id="node1" class="node">
<title>Node1</title>
<g id="a_node1"><a xlink:title="Manages logic updates and user interaction.">
<polygon fill="#bfbfbf" stroke="black" points="0,-316.5 0,-335.5 111,-335.5 111,-316.5 0,-316.5"/>
<text text-anchor="middle" x="55.5" y="-323.5" font-family="Helvetica,sans-Serif" font-size="10.00">MapViewer::update</text>
</a>
</g>
</g>
<!-- Node2 -->
<g id="node2" class="node">
<title>Node2</title>
<g id="a_node2"><a xlink:href="classLiveMap.html#a0a1bc92b03f9d2204553db4ed225c410" target="_top" xlink:title="Adds a single point (in real&#45;world coordinates) to the internal point buffer.">
<polygon fill="white" stroke="black" points="180,-620.5 180,-639.5 287,-639.5 287,-620.5 180,-620.5"/>
<text text-anchor="middle" x="233.5" y="-627.5" font-family="Helvetica,sans-Serif" font-size="10.00">LiveMap::addPoint</text>
</a>
</g>
</g>
<!-- Node1&#45;&gt;Node2 -->
<g id="edge1" class="edge">
<title>Node1&#45;&gt;Node2</title>
<path fill="none" stroke="midnightblue" d="M56.54,-335.61C57.27,-375.24 65.44,-527.56 147,-606 153.61,-612.36 161.76,-617.06 170.39,-620.52"/>
<polygon fill="midnightblue" stroke="midnightblue" points="169.29,-623.85 179.88,-623.82 171.58,-617.23 169.29,-623.85"/>
</g>
<!-- Node3 -->
<g id="node3" class="node">
<title>Node3</title>
<g id="a_node3"><a xlink:href="classLiveMap.html#aba698035fef23107bc3aa1abc7c2dd90" target="_top" xlink:title="Clears the occupancy grid (sets all cells to 0)">
<polygon fill="white" stroke="black" points="538,-563.5 538,-582.5 646,-582.5 646,-563.5 538,-563.5"/>
<text text-anchor="middle" x="592" y="-570.5" font-family="Helvetica,sans-Serif" font-size="10.00">LiveMap::clearGrid</text>
</a>
</g>
</g>
<!-- Node1&#45;&gt;Node3 -->
<g id="edge2" class="edge">
<title>Node1&#45;&gt;Node3</title>
<path fill="none" stroke="midnightblue" d="M56.48,-335.6C56.96,-373.76 64.45,-515.33 147,-573 206.69,-614.7 420.05,-594.86 527.79,-581.59"/>
<polygon fill="midnightblue" stroke="midnightblue" points="528.39,-585.04 537.88,-580.33 527.52,-578.1 528.39,-585.04"/>
</g>
<!-- Node4 -->
<g id="node4" class="node">
<title>Node4</title>
<g id="a_node4"><a xlink:href="classLiveMap.html#acb6cab34d7e2ae63d41ffcbdfbeece2e" target="_top" xlink:title="Clears all stored real&#45;world points.">
<polygon fill="white" stroke="black" points="174.5,-506.5 174.5,-525.5 292.5,-525.5 292.5,-506.5 174.5,-506.5"/>
<text text-anchor="middle" x="233.5" y="-513.5" font-family="Helvetica,sans-Serif" font-size="10.00">LiveMap::clearPoints</text>
</a>
</g>
</g>
<!-- Node1&#45;&gt;Node4 -->
<g id="edge3" class="edge">
<title>Node1&#45;&gt;Node4</title>
<path fill="none" stroke="midnightblue" d="M58.58,-335.59C65.47,-364.89 90.37,-453.83 147,-497 152.36,-501.09 158.43,-504.33 164.8,-506.9"/>
<polygon fill="midnightblue" stroke="midnightblue" points="163.71,-510.22 174.31,-510.19 166.01,-503.61 163.71,-510.22"/>
</g>
<!-- Node5 -->
<g id="node5" class="node">
<title>Node5</title>
<g id="a_node5"><a xlink:href="classRosHandler.html#a42df3df8aa66d76424ea3e7b14ad4710" target="_top" xlink:title=" ">
<polygon fill="white" stroke="black" points="147.5,-468.5 147.5,-487.5 319.5,-487.5 319.5,-468.5 147.5,-468.5"/>
<text text-anchor="middle" x="233.5" y="-475.5" font-family="Helvetica,sans-Serif" font-size="10.00">RosHandler::getAngularVelocity</text>
</a>
</g>
</g>
<!-- Node1&#45;&gt;Node5 -->
<g id="edge4" class="edge">
<title>Node1&#45;&gt;Node5</title>
<path fill="none" stroke="midnightblue" d="M60.06,-335.54C69.8,-360.26 99.39,-426.7 147,-459 149.92,-460.98 153.01,-462.76 156.22,-464.35"/>
<polygon fill="midnightblue" stroke="midnightblue" points="154.97,-467.62 165.54,-468.38 157.75,-461.2 154.97,-467.62"/>
</g>
<!-- Node6 -->
<g id="node6" class="node">
<title>Node6</title>
<g id="a_node6"><a xlink:href="classViewController.html#a6a75b71784feee666c971a20b5785aec" target="_top" xlink:title="Returns the grid cell index hovered by the mouse.">
<polygon fill="white" stroke="black" points="148.5,-430.5 148.5,-449.5 318.5,-449.5 318.5,-430.5 148.5,-430.5"/>
<text text-anchor="middle" x="233.5" y="-437.5" font-family="Helvetica,sans-Serif" font-size="10.00">ViewController::getHoveredCell</text>
</a>
</g>
</g>
<!-- Node1&#45;&gt;Node6 -->
<g id="edge5" class="edge">
<title>Node1&#45;&gt;Node6</title>
<path fill="none" stroke="midnightblue" d="M62.68,-335.59C75.73,-355.02 108.13,-399.04 147,-421 150.98,-423.25 155.2,-425.23 159.56,-426.98"/>
<polygon fill="midnightblue" stroke="midnightblue" points="158.67,-430.38 169.27,-430.44 161.02,-423.78 158.67,-430.38"/>
</g>
<!-- Node7 -->
<g id="node7" class="node">
<title>Node7</title>
<g id="a_node7"><a xlink:href="classRosHandler.html#af7228ab05a94f94465a8f0afea118377" target="_top" xlink:title=" ">
<polygon fill="white" stroke="black" points="151,-392.5 151,-411.5 316,-411.5 316,-392.5 151,-392.5"/>
<text text-anchor="middle" x="233.5" y="-399.5" font-family="Helvetica,sans-Serif" font-size="10.00">RosHandler::getLastDeltaTime</text>
</a>
</g>
</g>
<!-- Node1&#45;&gt;Node7 -->
<g id="edge6" class="edge">
<title>Node1&#45;&gt;Node7</title>
<path fill="none" stroke="midnightblue" d="M68.64,-335.58C85.34,-348.29 116.78,-370.56 147,-383 153.24,-385.57 159.88,-387.81 166.59,-389.77"/>
<polygon fill="midnightblue" stroke="midnightblue" points="165.89,-393.21 176.46,-392.45 167.72,-386.45 165.89,-393.21"/>
</g>
<!-- Node8 -->
<g id="node8" class="node">
<title>Node8</title>
<g id="a_node8"><a xlink:href="classRosHandler.html#affab703b7eb05afb33b68c7276616c39" target="_top" xlink:title=" ">
<polygon fill="white" stroke="black" points="151.5,-354.5 151.5,-373.5 315.5,-373.5 315.5,-354.5 151.5,-354.5"/>
<text text-anchor="middle" x="233.5" y="-361.5" font-family="Helvetica,sans-Serif" font-size="10.00">RosHandler::getLinearVelocity</text>
</a>
</g>
</g>
<!-- Node1&#45;&gt;Node8 -->
<g id="edge7" class="edge">
<title>Node1&#45;&gt;Node8</title>
<path fill="none" stroke="midnightblue" d="M100.91,-335.59C124.45,-340.67 153.56,-346.96 178.4,-352.32"/>
<polygon fill="midnightblue" stroke="midnightblue" points="177.89,-355.79 188.41,-354.48 179.37,-348.95 177.89,-355.79"/>
</g>
<!-- Node9 -->
<g id="node9" class="node">
<title>Node9</title>
<g id="a_node9"><a xlink:href="classMenuBar.html#a355bc5c82c36caf2693d65907ff92e64" target="_top" xlink:title="Returns whether live mode is currently enabled.">
<polygon fill="white" stroke="black" points="169,-316.5 169,-335.5 298,-335.5 298,-316.5 169,-316.5"/>
<text text-anchor="middle" x="233.5" y="-323.5" font-family="Helvetica,sans-Serif" font-size="10.00">MenuBar::getLiveMode</text>
</a>
</g>
</g>
<!-- Node1&#45;&gt;Node9 -->
<g id="edge8" class="edge">
<title>Node1&#45;&gt;Node9</title>
<path fill="none" stroke="midnightblue" d="M111.22,-326C126.21,-326 142.7,-326 158.56,-326"/>
<polygon fill="midnightblue" stroke="midnightblue" points="158.88,-329.5 168.88,-326 158.88,-322.5 158.88,-329.5"/>
</g>
<!-- Node10 -->
<g id="node10" class="node">
<title>Node10</title>
<g id="a_node10"><a xlink:href="classGridMap.html#a5dc821c5c3cb7883e62148573d75c57f" target="_top" xlink:title="Get the number of cells per side.">
<polygon fill="white" stroke="black" points="173,-278.5 173,-297.5 294,-297.5 294,-278.5 173,-278.5"/>
<text text-anchor="middle" x="233.5" y="-285.5" font-family="Helvetica,sans-Serif" font-size="10.00">GridMap::getMapSize</text>
</a>
</g>
</g>
<!-- Node1&#45;&gt;Node10 -->
<g id="edge9" class="edge">
<title>Node1&#45;&gt;Node10</title>
<path fill="none" stroke="midnightblue" d="M100.91,-316.41C124.45,-311.33 153.56,-305.04 178.4,-299.68"/>
<polygon fill="midnightblue" stroke="midnightblue" points="179.37,-303.05 188.41,-297.52 177.89,-296.21 179.37,-303.05"/>
</g>
<!-- Node11 -->
<g id="node11" class="node">
<title>Node11</title>
<g id="a_node11"><a xlink:href="classViewController.html#a718f7ee25b1eb61d7eb7a1d023fbc059" target="_top" xlink:title="Returns mouse position in world coordinates.">
<polygon fill="white" stroke="black" points="162,-229 162,-259 305,-259 305,-229 162,-229"/>
<text text-anchor="start" x="170" y="-247" font-family="Helvetica,sans-Serif" font-size="10.00">ViewController::getMouse</text>
<text text-anchor="middle" x="233.5" y="-236" font-family="Helvetica,sans-Serif" font-size="10.00">WorldPosition</text>
</a>
</g>
</g>
<!-- Node1&#45;&gt;Node11 -->
<g id="edge10" class="edge">
<title>Node1&#45;&gt;Node11</title>
<path fill="none" stroke="midnightblue" d="M69.34,-316.29C86.32,-303.83 117.54,-282.27 147,-269 152.24,-266.64 157.76,-264.44 163.37,-262.4"/>
<polygon fill="midnightblue" stroke="midnightblue" points="164.55,-265.69 172.85,-259.12 162.26,-259.08 164.55,-265.69"/>
</g>
<!-- Node12 -->
<g id="node12" class="node">
<title>Node12</title>
<g id="a_node12"><a xlink:href="classRosHandler.html#a7aba64be62c8bfd3480b3cd7a082a85d" target="_top" xlink:title="Gets the vector of sonar points received from the sensor.">
<polygon fill="white" stroke="black" points="157.5,-190.5 157.5,-209.5 309.5,-209.5 309.5,-190.5 157.5,-190.5"/>
<text text-anchor="middle" x="233.5" y="-197.5" font-family="Helvetica,sans-Serif" font-size="10.00">RosHandler::getSonarPoints</text>
</a>
</g>
</g>
<!-- Node1&#45;&gt;Node12 -->
<g id="edge11" class="edge">
<title>Node1&#45;&gt;Node12</title>
<path fill="none" stroke="midnightblue" d="M61.84,-316.3C74,-295.2 105.87,-245.04 147,-220 151.36,-217.34 156.05,-215.04 160.9,-213.04"/>
<polygon fill="midnightblue" stroke="midnightblue" points="162.2,-216.29 170.39,-209.56 159.79,-209.72 162.2,-216.29"/>
</g>
<!-- Node13 -->
<g id="node13" class="node">
<title>Node13</title>
<g id="a_node13"><a xlink:href="classAStar.html#a281c6749b8bc907e5be4902545aed4dd" target="_top" xlink:title="Returns whether the algorithm has finished executing.">
<polygon fill="white" stroke="black" points="185,-152.5 185,-171.5 282,-171.5 282,-152.5 185,-152.5"/>
<text text-anchor="middle" x="233.5" y="-159.5" font-family="Helvetica,sans-Serif" font-size="10.00">AStar::isFinished</text>
</a>
</g>
</g>
<!-- Node1&#45;&gt;Node13 -->
<g id="edge12" class="edge">
<title>Node1&#45;&gt;Node13</title>
<path fill="none" stroke="midnightblue" d="M59.54,-316.38C68.36,-290.09 96.61,-216.65 147,-181 155.29,-175.14 165.06,-171.04 174.99,-168.19"/>
<polygon fill="midnightblue" stroke="midnightblue" points="176.06,-171.53 184.92,-165.73 174.37,-164.73 176.06,-171.53"/>
</g>
<!-- Node14 -->
<g id="node14" class="node">
<title>Node14</title>
<g id="a_node14"><a xlink:href="classUnicicleWmr.html#aefb8cacc4cf6bb5a77f76bbbb6d6048a" target="_top" xlink:title="Sets the linear and angular velocity of the robot.">
<polygon fill="white" stroke="black" points="163.5,-114.5 163.5,-133.5 303.5,-133.5 303.5,-114.5 163.5,-114.5"/>
<text text-anchor="middle" x="233.5" y="-121.5" font-family="Helvetica,sans-Serif" font-size="10.00">UnicicleWmr::setVelocity</text>
</a>
</g>
</g>
<!-- Node1&#45;&gt;Node14 -->
<g id="edge13" class="edge">
<title>Node1&#45;&gt;Node14</title>
<path fill="none" stroke="midnightblue" d="M58.27,-316.19C64.39,-285.34 87.6,-189.59 147,-143 149.3,-141.2 151.74,-139.56 154.27,-138.07"/>
<polygon fill="midnightblue" stroke="midnightblue" points="155.89,-141.17 163.26,-133.55 152.75,-134.92 155.89,-141.17"/>
</g>
<!-- Node15 -->
<g id="node15" class="node">
<title>Node15</title>
<g id="a_node15"><a xlink:href="classAStar.html#a0c3d34d32a97828112f6ee453e75121b" target="_top" xlink:title="Performs one step of the A* algorithm.">
<polygon fill="white" stroke="black" points="198.5,-76.5 198.5,-95.5 268.5,-95.5 268.5,-76.5 198.5,-76.5"/>
<text text-anchor="middle" x="233.5" y="-83.5" font-family="Helvetica,sans-Serif" font-size="10.00">AStar::step</text>
</a>
</g>
</g>
<!-- Node1&#45;&gt;Node15 -->
<g id="edge14" class="edge">
<title>Node1&#45;&gt;Node15</title>
<path fill="none" stroke="midnightblue" d="M57.37,-316.21C61.01,-281.46 78.21,-162.99 147,-105 158.41,-95.38 173.65,-90.34 188.09,-87.79"/>
<polygon fill="midnightblue" stroke="midnightblue" points="188.99,-91.2 198.4,-86.34 188.02,-84.27 188.99,-91.2"/>
</g>
<!-- Node22 -->
<g id="node22" class="node">
<title>Node22</title>
<g id="a_node22"><a xlink:href="classUnicicleWmr.html#a2ea87f3299c071e959f15bec87420f4d" target="_top" xlink:title="Updates the robot&#39;s position and orientation using its velocity.">
<polygon fill="white" stroke="black" points="174,-38.5 174,-57.5 293,-57.5 293,-38.5 174,-38.5"/>
<text text-anchor="middle" x="233.5" y="-45.5" font-family="Helvetica,sans-Serif" font-size="10.00">UnicicleWmr::update</text>
</a>
</g>
</g>
<!-- Node1&#45;&gt;Node22 -->
<g id="edge21" class="edge">
<title>Node1&#45;&gt;Node22</title>
<path fill="none" stroke="midnightblue" d="M56.71,-316.47C58.09,-278.5 68.5,-136.78 147,-67 152.12,-62.45 158.08,-58.92 164.43,-56.18"/>
<polygon fill="midnightblue" stroke="midnightblue" points="165.76,-59.42 173.95,-52.71 163.36,-52.84 165.76,-59.42"/>
</g>
<!-- Node23 -->
<g id="node23" class="node">
<title>Node23</title>
<g id="a_node23"><a xlink:href="classMenuBar.html#a94cba4067d873ac499fe9f0327ba22dc" target="_top" xlink:title="Updates the label showing the current grid coordinates of the mouse.">
<polygon fill="white" stroke="black" points="154.5,-0.5 154.5,-19.5 312.5,-19.5 312.5,-0.5 154.5,-0.5"/>
<text text-anchor="middle" x="233.5" y="-7.5" font-family="Helvetica,sans-Serif" font-size="10.00">MenuBar::updateCoordinates</text>
</a>
</g>
</g>
<!-- Node1&#45;&gt;Node23 -->
<g id="edge22" class="edge">
<title>Node1&#45;&gt;Node23</title>
<path fill="none" stroke="midnightblue" d="M56.22,-316.26C55.6,-274.68 58.99,-110.47 147,-29 148.68,-27.45 150.45,-26.01 152.31,-24.68"/>
<polygon fill="midnightblue" stroke="midnightblue" points="154.13,-27.67 160.91,-19.53 150.53,-21.67 154.13,-27.67"/>
</g>
<!-- Node24 -->
<g id="node24" class="node">
<title>Node24</title>
<g id="a_node24"><a xlink:href="classLiveMap.html#af35f553cf7473ec20650328b423ddddf" target="_top" xlink:title="Updates the grid from the internal point buffer.">
<polygon fill="white" stroke="black" points="147,-544.5 147,-563.5 320,-563.5 320,-544.5 147,-544.5"/>
<text text-anchor="middle" x="233.5" y="-551.5" font-family="Helvetica,sans-Serif" font-size="10.00">LiveMap::updateGridFromPoints</text>
</a>
</g>
</g>
<!-- Node1&#45;&gt;Node24 -->
<g id="edge23" class="edge">
<title>Node1&#45;&gt;Node24</title>
<path fill="none" stroke="midnightblue" d="M57.62,-335.73C61.99,-369.21 81.15,-480.61 147,-535 149,-536.65 151.11,-538.17 153.32,-539.56"/>
<polygon fill="midnightblue" stroke="midnightblue" points="151.74,-542.68 162.2,-544.33 155.05,-536.52 151.74,-542.68"/>
</g>
<!-- Node16 -->
<g id="node16" class="node">
<title>Node16</title>
<g id="a_node16"><a xlink:href="classNode.html#ad4e8dcafa398a8613bc3ed8681f31933" target="_top" xlink:title="Returns the total estimated cost (f&#45;cost) of the node: f = g + h.">
<polygon fill="white" stroke="black" points="392,-152.5 392,-171.5 466,-171.5 466,-152.5 392,-152.5"/>
<text text-anchor="middle" x="429" y="-159.5" font-family="Helvetica,sans-Serif" font-size="10.00">Node::fCost</text>
</a>
</g>
</g>
<!-- Node15&#45;&gt;Node16 -->
<g id="edge15" class="edge">
<title>Node15&#45;&gt;Node16</title>
<path fill="none" stroke="midnightblue" d="M268.64,-88.9C285,-91.43 304.39,-96.15 320,-105 340.24,-116.47 335.99,-131.13 356,-143 363.84,-147.65 372.82,-151.18 381.71,-153.85"/>
<polygon fill="midnightblue" stroke="midnightblue" points="381.1,-157.31 391.66,-156.52 382.91,-150.55 381.1,-157.31"/>
</g>
<!-- Node17 -->
<g id="node17" class="node">
<title>Node17</title>
<g id="a_node17"><a xlink:href="classAStar.html#ad334648b94a68f85318faee06bdad851" target="_top" xlink:title="Returns the valid neighbor cells of a given node.">
<polygon fill="white" stroke="black" points="372,-114.5 372,-133.5 486,-133.5 486,-114.5 372,-114.5"/>
<text text-anchor="middle" x="429" y="-121.5" font-family="Helvetica,sans-Serif" font-size="10.00">AStar::getNeighbors</text>
</a>
</g>
</g>
<!-- Node15&#45;&gt;Node17 -->
<g id="edge16" class="edge">
<title>Node15&#45;&gt;Node17</title>
<path fill="none" stroke="midnightblue" d="M268.65,-92.71C296.47,-98.17 336.41,-106.01 369.34,-112.48"/>
<polygon fill="midnightblue" stroke="midnightblue" points="368.82,-115.95 379.31,-114.44 370.17,-109.08 368.82,-115.95"/>
</g>
<!-- Node19 -->
<g id="node19" class="node">
<title>Node19</title>
<g id="a_node19"><a xlink:href="classGridMap.html#a22d7a74bbf3b6a4663860f76e9cd4019" target="_top" xlink:title="Query cell status.">
<polygon fill="white" stroke="black" points="370.5,-76.5 370.5,-95.5 487.5,-95.5 487.5,-76.5 370.5,-76.5"/>
<text text-anchor="middle" x="429" y="-83.5" font-family="Helvetica,sans-Serif" font-size="10.00">GridMap::isOccupied</text>
</a>
</g>
</g>
<!-- Node15&#45;&gt;Node19 -->
<g id="edge18" class="edge">
<title>Node15&#45;&gt;Node19</title>
<path fill="none" stroke="midnightblue" d="M268.65,-86C293.9,-86 329.11,-86 360.01,-86"/>
<polygon fill="midnightblue" stroke="midnightblue" points="360.31,-89.5 370.31,-86 360.31,-82.5 360.31,-89.5"/>
</g>
<!-- Node20 -->
<g id="node20" class="node">
<title>Node20</title>
<g id="a_node20"><a xlink:href="classAStar.html#ab2c50db1e384318e1ae2f41aa48fe92f" target="_top" xlink:title=" ">
<polygon fill="white" stroke="black" points="356,-38.5 356,-57.5 502,-57.5 502,-38.5 356,-38.5"/>
<text text-anchor="middle" x="429" y="-45.5" font-family="Helvetica,sans-Serif" font-size="10.00">AStar::manhattanHeuristic</text>
</a>
</g>
</g>
<!-- Node15&#45;&gt;Node20 -->
<g id="edge19" class="edge">
<title>Node15&#45;&gt;Node20</title>
<path fill="none" stroke="midnightblue" d="M268.65,-79.29C296.47,-73.83 336.41,-65.99 369.34,-59.52"/>
<polygon fill="midnightblue" stroke="midnightblue" points="370.17,-62.92 379.31,-57.56 368.82,-56.05 370.17,-62.92"/>
</g>
<!-- Node21 -->
<g id="node21" class="node">
<title>Node21</title>
<g id="a_node21"><a xlink:href="classAStar.html#afbd7e300de5b7e171633d4be1982ce07" target="_top" xlink:title="Reconstructs the final path from the goal node by tracing the parent map.">
<polygon fill="white" stroke="black" points="366.5,-0.5 366.5,-19.5 491.5,-19.5 491.5,-0.5 366.5,-0.5"/>
<text text-anchor="middle" x="429" y="-7.5" font-family="Helvetica,sans-Serif" font-size="10.00">AStar::reconstructPath</text>
</a>
</g>
</g>
<!-- Node15&#45;&gt;Node21 -->
<g id="edge20" class="edge">
<title>Node15&#45;&gt;Node21</title>
<path fill="none" stroke="midnightblue" d="M268.64,-83.1C285,-80.57 304.39,-75.85 320,-67 340.24,-55.53 335.99,-40.87 356,-29 359.69,-26.81 363.63,-24.87 367.7,-23.15"/>
<polygon fill="midnightblue" stroke="midnightblue" points="369.23,-26.32 377.37,-19.53 366.77,-19.76 369.23,-26.32"/>
</g>
<!-- Node18 -->
<g id="node18" class="node">
<title>Node18</title>
<g id="a_node18"><a xlink:href="classAStar.html#a07010836e7ee9f2b37854031b872cc52" target="_top" xlink:title="Checks if the given cell coordinates are within the grid bounds.">
<polygon fill="white" stroke="black" points="541.5,-114.5 541.5,-133.5 642.5,-133.5 642.5,-114.5 541.5,-114.5"/>
<text text-anchor="middle" x="592" y="-121.5" font-family="Helvetica,sans-Serif" font-size="10.00">AStar::isValidCell</text>
</a>
</g>
</g>
<!-- Node17&#45;&gt;Node18 -->
<g id="edge17" class="edge">
<title>Node17&#45;&gt;Node18</title>
<path fill="none" stroke="midnightblue" d="M486.31,-124C500.9,-124 516.65,-124 531.4,-124"/>
<polygon fill="midnightblue" stroke="midnightblue" points="531.43,-127.5 541.43,-124 531.43,-120.5 531.43,-127.5"/>
</g>
<!-- Node25 -->
<g id="node25" class="node">
<title>Node25</title>
<g id="a_node25"><a xlink:href="classLiveMap.html#aca9414f3b6a8d57ec31f8a35fb1bb5d2" target="_top" xlink:title="Fills the grid using the given grid indices, marking cells as occupied (1)">
<polygon fill="white" stroke="black" points="380.5,-544.5 380.5,-563.5 477.5,-563.5 477.5,-544.5 380.5,-544.5"/>
<text text-anchor="middle" x="429" y="-551.5" font-family="Helvetica,sans-Serif" font-size="10.00">LiveMap::fillGrid</text>
</a>
</g>
</g>
<!-- Node24&#45;&gt;Node25 -->
<g id="edge24" class="edge">
<title>Node24&#45;&gt;Node25</title>
<path fill="none" stroke="midnightblue" d="M320.22,-554C337.13,-554 354.51,-554 370.23,-554"/>
<polygon fill="midnightblue" stroke="midnightblue" points="370.3,-557.5 380.3,-554 370.3,-550.5 370.3,-557.5"/>
</g>
<!-- Node26 -->
<g id="node26" class="node">
<title>Node26</title>
<g id="a_node26"><a xlink:href="classLiveMap.html#a4c5f9a45946eb1fc48e3b50b28da724a" target="_top" xlink:title="Converts real&#45;world coordinates to grid indices.">
<polygon fill="white" stroke="black" points="378,-506.5 378,-525.5 480,-525.5 480,-506.5 378,-506.5"/>
<text text-anchor="middle" x="429" y="-513.5" font-family="Helvetica,sans-Serif" font-size="10.00">LiveMap::xy2Grid</text>
</a>
</g>
</g>
<!-- Node24&#45;&gt;Node26 -->
<g id="edge26" class="edge">
<title>Node24&#45;&gt;Node26</title>
<path fill="none" stroke="midnightblue" d="M283.33,-544.41C309.55,-539.26 342.06,-532.88 369.62,-527.47"/>
<polygon fill="midnightblue" stroke="midnightblue" points="370.38,-530.88 379.52,-525.52 369.04,-524.01 370.38,-530.88"/>
</g>
<!-- Node25&#45;&gt;Node3 -->
<g id="edge25" class="edge">
<title>Node25&#45;&gt;Node3</title>
<path fill="none" stroke="midnightblue" d="M477.87,-559.65C493.53,-561.5 511.17,-563.58 527.78,-565.54"/>
<polygon fill="midnightblue" stroke="midnightblue" points="527.62,-569.05 537.97,-566.74 528.44,-562.09 527.62,-569.05"/>
</g>
</g>
</svg>
