<?xml version="1.0" encoding="UTF-8" standalone="no"?>
<!DOCTYPE svg PUBLIC "-//W3C//DTD SVG 1.1//EN"
 "http://www.w3.org/Graphics/SVG/1.1/DTD/svg11.dtd">
<!-- Generated by graphviz version 2.43.0 (0)
 -->
<!-- Title: MenuBar::getLiveMode Pages: 1 -->
<svg width="361pt" height="66pt"
 viewBox="0.00 0.00 361.00 66.00" xmlns="http://www.w3.org/2000/svg" xmlns:xlink="http://www.w3.org/1999/xlink">
<g id="graph0" class="graph" transform="scale(1 1) rotate(0) translate(4 62)">
<title>MenuBar::getLiveMode</title>
<polygon fill="white" stroke="transparent" points="-4,4 -4,-62 357,-62 357,4 -4,4"/>
<!-- Node1 -->
<g id="node1" class="node">
<title>Node1</title>
<g id="a_node1"><a xlink:title="Returns whether live mode is currently enabled.">
<polygon fill="#bfbfbf" stroke="black" points="224,-19.5 224,-38.5 353,-38.5 353,-19.5 224,-19.5"/>
<text text-anchor="middle" x="288.5" y="-26.5" font-family="Helvetica,sans-Serif" font-size="10.00">MenuBar::getLiveMode</text>
</a>
</g>
</g>
<!-- Node2 -->
<g id="node2" class="node">
<title>Node2</title>
<g id="a_node2"><a xlink:href="classMapViewer.html#a7eaeb9b44dd34c1865462914957a6aac" target="_top" xlink:title="Renders all visual components to the screen.">
<polygon fill="white" stroke="black" points="78,-38.5 78,-57.5 187,-57.5 187,-38.5 78,-38.5"/>
<text text-anchor="middle" x="132.5" y="-45.5" font-family="Helvetica,sans-Serif" font-size="10.00">MapViewer::render</text>
</a>
</g>
</g>
<!-- Node1&#45;&gt;Node2 -->
<g id="edge1" class="edge">
<title>Node1&#45;&gt;Node2</title>
<path fill="none" stroke="midnightblue" d="M213.84,-38.09C204.81,-39.2 195.72,-40.32 187.07,-41.39"/>
<polygon fill="midnightblue" stroke="midnightblue" points="214.48,-41.54 223.97,-36.84 213.62,-34.59 214.48,-41.54"/>
</g>
<!-- Node4 -->
<g id="node4" class="node">
<title>Node4</title>
<g id="a_node4"><a xlink:href="classMapViewer.html#a323a6ee85f1257b6e7c758ebf3d694bd" target="_top" xlink:title="Manages logic updates and user interaction.">
<polygon fill="white" stroke="black" points="77,-0.5 77,-19.5 188,-19.5 188,-0.5 77,-0.5"/>
<text text-anchor="middle" x="132.5" y="-7.5" font-family="Helvetica,sans-Serif" font-size="10.00">MapViewer::update</text>
</a>
</g>
</g>
<!-- Node1&#45;&gt;Node4 -->
<g id="edge3" class="edge">
<title>Node1&#45;&gt;Node4</title>
<path fill="none" stroke="midnightblue" d="M213.83,-19.91C205.14,-18.84 196.4,-17.76 188.04,-16.73"/>
<polygon fill="midnightblue" stroke="midnightblue" points="213.62,-23.41 223.97,-21.16 214.48,-16.46 213.62,-23.41"/>
</g>
<!-- Node3 -->
<g id="node3" class="node">
<title>Node3</title>
<g id="a_node3"><a xlink:href="main_8cpp.html#a3c04138a5bfe5d72780bb7e82a18e627" target="_top" xlink:title="Main entry point for the ARTG SLAM visualization node.">
<polygon fill="white" stroke="black" points="0,-19.5 0,-38.5 41,-38.5 41,-19.5 0,-19.5"/>
<text text-anchor="middle" x="20.5" y="-26.5" font-family="Helvetica,sans-Serif" font-size="10.00">main</text>
</a>
</g>
</g>
<!-- Node2&#45;&gt;Node3 -->
<g id="edge2" class="edge">
<title>Node2&#45;&gt;Node3</title>
<path fill="none" stroke="midnightblue" d="M67.7,-36.98C58.09,-35.32 48.85,-33.72 41.2,-32.4"/>
<polygon fill="midnightblue" stroke="midnightblue" points="67.34,-40.47 77.79,-38.72 68.53,-33.57 67.34,-40.47"/>
</g>
<!-- Node4&#45;&gt;Node3 -->
<g id="edge4" class="edge">
<title>Node4&#45;&gt;Node3</title>
<path fill="none" stroke="midnightblue" d="M66.94,-21.15C57.54,-22.77 48.53,-24.33 41.05,-25.62"/>
<polygon fill="midnightblue" stroke="midnightblue" points="67.56,-24.6 76.82,-19.44 66.37,-17.7 67.56,-24.6"/>
</g>
</g>
</svg>
