<?xml version="1.0" encoding="UTF-8" standalone="no"?>
<!DOCTYPE svg PUBLIC "-//W3C//DTD SVG 1.1//EN"
 "http://www.w3.org/Graphics/SVG/1.1/DTD/svg11.dtd">
<!-- Generated by graphviz version 2.43.0 (0)
 -->
<!-- Title: AStar::step Pages: 1 -->
<svg width="397pt" height="180pt"
 viewBox="0.00 0.00 397.00 180.00" xmlns="http://www.w3.org/2000/svg" xmlns:xlink="http://www.w3.org/1999/xlink">
<g id="graph0" class="graph" transform="scale(1 1) rotate(0) translate(4 176)">
<title>AStar::step</title>
<polygon fill="white" stroke="transparent" points="-4,4 -4,-176 393,-176 393,4 -4,4"/>
<!-- Node1 -->
<g id="node1" class="node">
<title>Node1</title>
<g id="a_node1"><a xlink:title="Performs one step of the A* algorithm.">
<polygon fill="#bfbfbf" stroke="black" points="0,-76.5 0,-95.5 70,-95.5 70,-76.5 0,-76.5"/>
<text text-anchor="middle" x="35" y="-83.5" font-family="Helvetica,sans-Serif" font-size="10.00">AStar::step</text>
</a>
</g>
</g>
<!-- Node2 -->
<g id="node2" class="node">
<title>Node2</title>
<g id="a_node2"><a xlink:href="classNode.html#ad4e8dcafa398a8613bc3ed8681f31933" target="_top" xlink:title="Returns the total estimated cost (f&#45;cost) of the node: f = g + h.">
<polygon fill="white" stroke="black" points="142,-152.5 142,-171.5 216,-171.5 216,-152.5 142,-152.5"/>
<text text-anchor="middle" x="179" y="-159.5" font-family="Helvetica,sans-Serif" font-size="10.00">Node::fCost</text>
</a>
</g>
</g>
<!-- Node1&#45;&gt;Node2 -->
<g id="edge1" class="edge">
<title>Node1&#45;&gt;Node2</title>
<path fill="none" stroke="midnightblue" d="M45.03,-95.56C57.55,-108.24 81.42,-130.49 106,-143 114.04,-147.09 123.04,-150.36 131.88,-152.96"/>
<polygon fill="midnightblue" stroke="midnightblue" points="131.18,-156.39 141.74,-155.61 133,-149.63 131.18,-156.39"/>
</g>
<!-- Node3 -->
<g id="node3" class="node">
<title>Node3</title>
<g id="a_node3"><a xlink:href="classAStar.html#ad334648b94a68f85318faee06bdad851" target="_top" xlink:title="Returns the valid neighbor cells of a given node.">
<polygon fill="white" stroke="black" points="122,-114.5 122,-133.5 236,-133.5 236,-114.5 122,-114.5"/>
<text text-anchor="middle" x="179" y="-121.5" font-family="Helvetica,sans-Serif" font-size="10.00">AStar::getNeighbors</text>
</a>
</g>
</g>
<!-- Node1&#45;&gt;Node3 -->
<g id="edge2" class="edge">
<title>Node1&#45;&gt;Node3</title>
<path fill="none" stroke="midnightblue" d="M70.17,-95.33C81.56,-98.42 94.32,-101.87 106,-105 114.35,-107.23 123.24,-109.6 131.84,-111.87"/>
<polygon fill="midnightblue" stroke="midnightblue" points="131.17,-115.31 141.73,-114.48 132.95,-108.54 131.17,-115.31"/>
</g>
<!-- Node5 -->
<g id="node5" class="node">
<title>Node5</title>
<g id="a_node5"><a xlink:href="classGridMap.html#a22d7a74bbf3b6a4663860f76e9cd4019" target="_top" xlink:title="Query cell status.">
<polygon fill="white" stroke="black" points="120.5,-76.5 120.5,-95.5 237.5,-95.5 237.5,-76.5 120.5,-76.5"/>
<text text-anchor="middle" x="179" y="-83.5" font-family="Helvetica,sans-Serif" font-size="10.00">GridMap::isOccupied</text>
</a>
</g>
</g>
<!-- Node1&#45;&gt;Node5 -->
<g id="edge4" class="edge">
<title>Node1&#45;&gt;Node5</title>
<path fill="none" stroke="midnightblue" d="M70.01,-86C82.16,-86 96.31,-86 110.3,-86"/>
<polygon fill="midnightblue" stroke="midnightblue" points="110.42,-89.5 120.42,-86 110.42,-82.5 110.42,-89.5"/>
</g>
<!-- Node6 -->
<g id="node6" class="node">
<title>Node6</title>
<g id="a_node6"><a xlink:href="classAStar.html#ab2c50db1e384318e1ae2f41aa48fe92f" target="_top" xlink:title=" ">
<polygon fill="white" stroke="black" points="106,-38.5 106,-57.5 252,-57.5 252,-38.5 106,-38.5"/>
<text text-anchor="middle" x="179" y="-45.5" font-family="Helvetica,sans-Serif" font-size="10.00">AStar::manhattanHeuristic</text>
</a>
</g>
</g>
<!-- Node1&#45;&gt;Node6 -->
<g id="edge5" class="edge">
<title>Node1&#45;&gt;Node6</title>
<path fill="none" stroke="midnightblue" d="M70.17,-76.67C81.56,-73.58 94.32,-70.13 106,-67 114.35,-64.77 123.24,-62.4 131.84,-60.13"/>
<polygon fill="midnightblue" stroke="midnightblue" points="132.95,-63.46 141.73,-57.52 131.17,-56.69 132.95,-63.46"/>
</g>
<!-- Node7 -->
<g id="node7" class="node">
<title>Node7</title>
<g id="a_node7"><a xlink:href="classAStar.html#afbd7e300de5b7e171633d4be1982ce07" target="_top" xlink:title="Reconstructs the final path from the goal node by tracing the parent map.">
<polygon fill="white" stroke="black" points="116.5,-0.5 116.5,-19.5 241.5,-19.5 241.5,-0.5 116.5,-0.5"/>
<text text-anchor="middle" x="179" y="-7.5" font-family="Helvetica,sans-Serif" font-size="10.00">AStar::reconstructPath</text>
</a>
</g>
</g>
<!-- Node1&#45;&gt;Node7 -->
<g id="edge6" class="edge">
<title>Node1&#45;&gt;Node7</title>
<path fill="none" stroke="midnightblue" d="M45.03,-76.44C57.55,-63.76 81.42,-41.51 106,-29 110.56,-26.68 115.44,-24.62 120.42,-22.8"/>
<polygon fill="midnightblue" stroke="midnightblue" points="121.69,-26.06 130.07,-19.58 119.48,-19.42 121.69,-26.06"/>
</g>
<!-- Node4 -->
<g id="node4" class="node">
<title>Node4</title>
<g id="a_node4"><a xlink:href="classAStar.html#a07010836e7ee9f2b37854031b872cc52" target="_top" xlink:title="Checks if the given cell coordinates are within the grid bounds.">
<polygon fill="white" stroke="black" points="288,-114.5 288,-133.5 389,-133.5 389,-114.5 288,-114.5"/>
<text text-anchor="middle" x="338.5" y="-121.5" font-family="Helvetica,sans-Serif" font-size="10.00">AStar::isValidCell</text>
</a>
</g>
</g>
<!-- Node3&#45;&gt;Node4 -->
<g id="edge3" class="edge">
<title>Node3&#45;&gt;Node4</title>
<path fill="none" stroke="midnightblue" d="M236.42,-124C249.78,-124 264.08,-124 277.59,-124"/>
<polygon fill="midnightblue" stroke="midnightblue" points="277.75,-127.5 287.75,-124 277.75,-120.5 277.75,-127.5"/>
</g>
</g>
</svg>
