<?xml version="1.0" encoding="UTF-8" standalone="no"?>
<!DOCTYPE svg PUBLIC "-//W3C//DTD SVG 1.1//EN"
 "http://www.w3.org/Graphics/SVG/1.1/DTD/svg11.dtd">
<!-- Generated by graphviz version 2.43.0 (0)
 -->
<!-- Title: GridMap::getGrid Pages: 1 -->
<svg width="421pt" height="66pt"
 viewBox="0.00 0.00 421.00 66.00" xmlns="http://www.w3.org/2000/svg" xmlns:xlink="http://www.w3.org/1999/xlink">
<g id="graph0" class="graph" transform="scale(1 1) rotate(0) translate(4 62)">
<title>GridMap::getGrid</title>
<polygon fill="white" stroke="transparent" points="-4,4 -4,-62 417,-62 417,4 -4,4"/>
<!-- Node1 -->
<g id="node1" class="node">
<title>Node1</title>
<g id="a_node1"><a xlink:title="Get a const reference to the occupancy grid.">
<polygon fill="#bfbfbf" stroke="black" points="313,-19.5 313,-38.5 413,-38.5 413,-19.5 313,-19.5"/>
<text text-anchor="middle" x="363" y="-26.5" font-family="Helvetica,sans-Serif" font-size="10.00">GridMap::getGrid</text>
</a>
</g>
</g>
<!-- Node2 -->
<g id="node2" class="node">
<title>Node2</title>
<g id="a_node2"><a xlink:href="classMapViewer.html#a7eaeb9b44dd34c1865462914957a6aac" target="_top" xlink:title="Renders all visual components to the screen.">
<polygon fill="white" stroke="black" points="168,-38.5 168,-57.5 277,-57.5 277,-38.5 168,-38.5"/>
<text text-anchor="middle" x="222.5" y="-45.5" font-family="Helvetica,sans-Serif" font-size="10.00">MapViewer::render</text>
</a>
</g>
</g>
<!-- Node1&#45;&gt;Node2 -->
<g id="edge1" class="edge">
<title>Node1&#45;&gt;Node2</title>
<path fill="none" stroke="midnightblue" d="M302.63,-37.14C294.21,-38.3 285.58,-39.48 277.26,-40.62"/>
<polygon fill="midnightblue" stroke="midnightblue" points="303.35,-40.58 312.78,-35.75 302.4,-33.64 303.35,-40.58"/>
</g>
<!-- Node4 -->
<g id="node4" class="node">
<title>Node4</title>
<g id="a_node4"><a xlink:href="classAStar.html#afaaae98c48d75edf9479adf38d68affe" target="_top" xlink:title="Updates the internal state map based on the current GridMap.">
<polygon fill="white" stroke="black" points="170.5,-0.5 170.5,-19.5 274.5,-19.5 274.5,-0.5 170.5,-0.5"/>
<text text-anchor="middle" x="222.5" y="-7.5" font-family="Helvetica,sans-Serif" font-size="10.00">AStar::updatemap</text>
</a>
</g>
</g>
<!-- Node1&#45;&gt;Node4 -->
<g id="edge3" class="edge">
<title>Node1&#45;&gt;Node4</title>
<path fill="none" stroke="midnightblue" d="M302.83,-20.88C293.54,-19.61 284,-18.3 274.9,-17.05"/>
<polygon fill="midnightblue" stroke="midnightblue" points="302.4,-24.36 312.78,-22.25 303.35,-17.42 302.4,-24.36"/>
</g>
<!-- Node3 -->
<g id="node3" class="node">
<title>Node3</title>
<g id="a_node3"><a xlink:href="main_8cpp.html#a3c04138a5bfe5d72780bb7e82a18e627" target="_top" xlink:title="Main entry point for the ARTG SLAM visualization node.">
<polygon fill="white" stroke="black" points="45.5,-38.5 45.5,-57.5 86.5,-57.5 86.5,-38.5 45.5,-38.5"/>
<text text-anchor="middle" x="66" y="-45.5" font-family="Helvetica,sans-Serif" font-size="10.00">main</text>
</a>
</g>
</g>
<!-- Node2&#45;&gt;Node3 -->
<g id="edge2" class="edge">
<title>Node2&#45;&gt;Node3</title>
<path fill="none" stroke="midnightblue" d="M157.87,-48C132.34,-48 104.77,-48 86.78,-48"/>
<polygon fill="midnightblue" stroke="midnightblue" points="157.9,-51.5 167.9,-48 157.9,-44.5 157.9,-51.5"/>
</g>
<!-- Node5 -->
<g id="node5" class="node">
<title>Node5</title>
<g id="a_node5"><a xlink:href="classMapViewer.html#a6690a879cd4af2058afccd2920c03c0d" target="_top" xlink:title="Constructor.">
<polygon fill="white" stroke="black" points="0,-0.5 0,-19.5 132,-19.5 132,-0.5 0,-0.5"/>
<text text-anchor="middle" x="66" y="-7.5" font-family="Helvetica,sans-Serif" font-size="10.00">MapViewer::MapViewer</text>
</a>
</g>
</g>
<!-- Node4&#45;&gt;Node5 -->
<g id="edge4" class="edge">
<title>Node4&#45;&gt;Node5</title>
<path fill="none" stroke="midnightblue" d="M160.19,-10C150.93,-10 141.35,-10 132.01,-10"/>
<polygon fill="midnightblue" stroke="midnightblue" points="160.48,-13.5 170.48,-10 160.48,-6.5 160.48,-13.5"/>
</g>
</g>
</svg>
