<?xml version="1.0" encoding="UTF-8" standalone="no"?>
<!DOCTYPE svg PUBLIC "-//W3C//DTD SVG 1.1//EN"
 "http://www.w3.org/Graphics/SVG/1.1/DTD/svg11.dtd">
<!-- Generated by graphviz version 2.43.0 (0)
 -->
<!-- Title: MapViewer Pages: 1 -->
<svg width="1116pt" height="1250pt"
 viewBox="0.00 0.00 1115.67 1250.00" xmlns="http://www.w3.org/2000/svg" xmlns:xlink="http://www.w3.org/1999/xlink">
<g id="graph0" class="graph" transform="scale(1 1) rotate(0) translate(4 1246)">
<title>MapViewer</title>
<polygon fill="white" stroke="transparent" points="-4,4 -4,-1246 1111.67,-1246 1111.67,4 -4,4"/>
<!-- Node1 -->
<g id="node1" class="node">
<title>Node1</title>
<g id="a_node1"><a xlink:title="This is the main class. It manages mouse/keyboard events and GUI integration. It also coordinates the...">
<polygon fill="#bfbfbf" stroke="black" points="471.17,-0.5 471.17,-178.5 572.17,-178.5 572.17,-0.5 471.17,-0.5"/>
<text text-anchor="middle" x="521.67" y="-166.5" font-family="Helvetica,sans-Serif" font-size="10.00">MapViewer</text>
<polyline fill="none" stroke="black" points="471.17,-159.5 572.17,-159.5 "/>
<text text-anchor="start" x="479.17" y="-147.5" font-family="Helvetica,sans-Serif" font-size="10.00">&#45; window</text>
<text text-anchor="start" x="479.17" y="-136.5" font-family="Helvetica,sans-Serif" font-size="10.00">&#45; view</text>
<text text-anchor="start" x="479.17" y="-125.5" font-family="Helvetica,sans-Serif" font-size="10.00">&#45; gui</text>
<text text-anchor="start" x="479.17" y="-114.5" font-family="Helvetica,sans-Serif" font-size="10.00">&#45; running</text>
<text text-anchor="start" x="479.17" y="-103.5" font-family="Helvetica,sans-Serif" font-size="10.00">&#45; worldXY</text>
<text text-anchor="start" x="479.17" y="-92.5" font-family="Helvetica,sans-Serif" font-size="10.00">&#45; gridIndex</text>
<text text-anchor="start" x="479.17" y="-81.5" font-family="Helvetica,sans-Serif" font-size="10.00">&#45; gridIndex2copy</text>
<text text-anchor="start" x="479.17" y="-70.5" font-family="Helvetica,sans-Serif" font-size="10.00">&#45; astarAnimating</text>
<polyline fill="none" stroke="black" points="471.17,-63.5 572.17,-63.5 "/>
<text text-anchor="start" x="479.17" y="-51.5" font-family="Helvetica,sans-Serif" font-size="10.00">+ MapViewer()</text>
<text text-anchor="start" x="479.17" y="-40.5" font-family="Helvetica,sans-Serif" font-size="10.00">+ update()</text>
<text text-anchor="start" x="479.17" y="-29.5" font-family="Helvetica,sans-Serif" font-size="10.00">+ processEvent()</text>
<text text-anchor="start" x="479.17" y="-18.5" font-family="Helvetica,sans-Serif" font-size="10.00">+ render()</text>
<text text-anchor="start" x="479.17" y="-7.5" font-family="Helvetica,sans-Serif" font-size="10.00">+ isRunning()</text>
</a>
</g>
</g>
<!-- Node2 -->
<g id="node2" class="node">
<title>Node2</title>
<g id="a_node2"><a xlink:href="classRightClickMapMenu.html" target="_top" xlink:title="Manages a contextual right&#45;click menu displayed on top of a map. Allows users to set the start and go...">
<polygon fill="white" stroke="black" points="455.17,-254 455.17,-542 588.17,-542 588.17,-254 455.17,-254"/>
<text text-anchor="middle" x="521.67" y="-530" font-family="Helvetica,sans-Serif" font-size="10.00">RightClickMapMenu</text>
<polyline fill="none" stroke="black" points="455.17,-523 588.17,-523 "/>
<text text-anchor="start" x="463.17" y="-511" font-family="Helvetica,sans-Serif" font-size="10.00">&#45; gui</text>
<text text-anchor="start" x="463.17" y="-500" font-family="Helvetica,sans-Serif" font-size="10.00">&#45; container</text>
<text text-anchor="start" x="463.17" y="-489" font-family="Helvetica,sans-Serif" font-size="10.00">&#45; panel</text>
<text text-anchor="start" x="463.17" y="-478" font-family="Helvetica,sans-Serif" font-size="10.00">&#45; start</text>
<text text-anchor="start" x="463.17" y="-467" font-family="Helvetica,sans-Serif" font-size="10.00">&#45; goal</text>
<text text-anchor="start" x="463.17" y="-456" font-family="Helvetica,sans-Serif" font-size="10.00">&#45; clear</text>
<text text-anchor="start" x="463.17" y="-445" font-family="Helvetica,sans-Serif" font-size="10.00">&#45; clearView</text>
<text text-anchor="start" x="463.17" y="-434" font-family="Helvetica,sans-Serif" font-size="10.00">&#45; visible</text>
<text text-anchor="start" x="463.17" y="-423" font-family="Helvetica,sans-Serif" font-size="10.00">&#45; worldXY_copy</text>
<text text-anchor="start" x="463.17" y="-412" font-family="Helvetica,sans-Serif" font-size="10.00">&#45; gridIndex_copy</text>
<text text-anchor="start" x="463.17" y="-401" font-family="Helvetica,sans-Serif" font-size="10.00">&#45; startIndex</text>
<text text-anchor="start" x="463.17" y="-390" font-family="Helvetica,sans-Serif" font-size="10.00">&#45; goalIndex</text>
<text text-anchor="start" x="463.17" y="-379" font-family="Helvetica,sans-Serif" font-size="10.00">&#45; isGoalActive</text>
<text text-anchor="start" x="463.17" y="-368" font-family="Helvetica,sans-Serif" font-size="10.00">&#45; isStartActive</text>
<polyline fill="none" stroke="black" points="455.17,-361 588.17,-361 "/>
<text text-anchor="start" x="463.17" y="-349" font-family="Helvetica,sans-Serif" font-size="10.00">+ RightClickMapMenu()</text>
<text text-anchor="start" x="463.17" y="-338" font-family="Helvetica,sans-Serif" font-size="10.00">+ setupWidgets()</text>
<text text-anchor="start" x="463.17" y="-327" font-family="Helvetica,sans-Serif" font-size="10.00">+ show()</text>
<text text-anchor="start" x="463.17" y="-316" font-family="Helvetica,sans-Serif" font-size="10.00">+ hide()</text>
<text text-anchor="start" x="463.17" y="-305" font-family="Helvetica,sans-Serif" font-size="10.00">+ setVisible()</text>
<text text-anchor="start" x="463.17" y="-294" font-family="Helvetica,sans-Serif" font-size="10.00">+ isVisible()</text>
<text text-anchor="start" x="463.17" y="-283" font-family="Helvetica,sans-Serif" font-size="10.00">+ connectSignals()</text>
<text text-anchor="start" x="463.17" y="-272" font-family="Helvetica,sans-Serif" font-size="10.00">+ containsPoint()</text>
<text text-anchor="start" x="463.17" y="-261" font-family="Helvetica,sans-Serif" font-size="10.00">+ isSet()</text>
</a>
</g>
</g>
<!-- Node2&#45;&gt;Node1 -->
<g id="edge1" class="edge">
<title>Node2&#45;&gt;Node1</title>
<path fill="none" stroke="#404040" d="M521.67,-253.62C521.67,-232.36 521.67,-210.85 521.67,-190.73"/>
<polygon fill="none" stroke="#404040" points="521.67,-190.72 517.67,-184.72 521.67,-178.72 525.67,-184.72 521.67,-190.72"/>
<text text-anchor="middle" x="543.67" y="-200" font-family="Helvetica,sans-Serif" font-size="10.00"> &#45;r_menu</text>
</g>
<!-- Node3 -->
<g id="node3" class="node">
<title>Node3</title>
<g id="a_node3"><a xlink:href="classGridMap.html" target="_top" xlink:title="Handles the creation and management of map data.">
<polygon fill="white" stroke="black" points="281.67,-667 281.67,-878 385.67,-878 385.67,-667 281.67,-667"/>
<text text-anchor="middle" x="333.67" y="-866" font-family="Helvetica,sans-Serif" font-size="10.00">GridMap</text>
<polyline fill="none" stroke="black" points="281.67,-859 385.67,-859 "/>
<text text-anchor="start" x="289.67" y="-847" font-family="Helvetica,sans-Serif" font-size="10.00">&#45; gridSize</text>
<text text-anchor="start" x="289.67" y="-836" font-family="Helvetica,sans-Serif" font-size="10.00">&#45; gridResolution</text>
<text text-anchor="start" x="289.67" y="-825" font-family="Helvetica,sans-Serif" font-size="10.00">&#45; posX</text>
<text text-anchor="start" x="289.67" y="-814" font-family="Helvetica,sans-Serif" font-size="10.00">&#45; posY</text>
<text text-anchor="start" x="289.67" y="-803" font-family="Helvetica,sans-Serif" font-size="10.00">&#45; grid</text>
<polyline fill="none" stroke="black" points="281.67,-796 385.67,-796 "/>
<text text-anchor="start" x="289.67" y="-784" font-family="Helvetica,sans-Serif" font-size="10.00">+ GridMap()</text>
<text text-anchor="start" x="289.67" y="-773" font-family="Helvetica,sans-Serif" font-size="10.00">+ getRealX()</text>
<text text-anchor="start" x="289.67" y="-762" font-family="Helvetica,sans-Serif" font-size="10.00">+ getRealY()</text>
<text text-anchor="start" x="289.67" y="-751" font-family="Helvetica,sans-Serif" font-size="10.00">+ getCellIndexX()</text>
<text text-anchor="start" x="289.67" y="-740" font-family="Helvetica,sans-Serif" font-size="10.00">+ getCellIndexY()</text>
<text text-anchor="start" x="289.67" y="-729" font-family="Helvetica,sans-Serif" font-size="10.00">+ addPoints()</text>
<text text-anchor="start" x="289.67" y="-718" font-family="Helvetica,sans-Serif" font-size="10.00">+ setPoints()</text>
<text text-anchor="start" x="289.67" y="-707" font-family="Helvetica,sans-Serif" font-size="10.00">+ clearPoints()</text>
<text text-anchor="start" x="289.67" y="-696" font-family="Helvetica,sans-Serif" font-size="10.00">+ setStart()</text>
<text text-anchor="start" x="289.67" y="-685" font-family="Helvetica,sans-Serif" font-size="10.00">+ setGoal()</text>
<text text-anchor="start" x="289.67" y="-674" font-family="Helvetica,sans-Serif" font-size="10.00">and 8 more...</text>
</a>
</g>
</g>
<!-- Node3&#45;&gt;Node1 -->
<g id="edge7" class="edge">
<title>Node3&#45;&gt;Node1</title>
<path fill="none" stroke="#404040" d="M311.36,-666.87C305.72,-635.84 300.48,-601.68 297.67,-570 290.92,-493.85 260.13,-292.59 297.67,-226 331.99,-165.14 405.86,-128.51 459.41,-108.96"/>
<polygon fill="none" stroke="#404040" points="459.53,-108.92 463.86,-103.15 470.84,-104.93 466.51,-110.7 459.53,-108.92"/>
<text text-anchor="middle" x="312.17" y="-395.5" font-family="Helvetica,sans-Serif" font-size="10.00"> &#45;map</text>
</g>
<!-- Node3&#45;&gt;Node2 -->
<g id="edge2" class="edge">
<title>Node3&#45;&gt;Node2</title>
<path fill="none" stroke="#404040" d="M385.73,-681.89C405.23,-647.29 427.13,-607.16 445.67,-570 448.41,-564.51 451.16,-558.9 453.9,-553.21"/>
<polygon fill="none" stroke="#404040" points="453.99,-553.03 452.97,-545.89 459.16,-542.2 460.19,-549.34 453.99,-553.03"/>
<text text-anchor="middle" x="458.67" y="-596.5" font-family="Helvetica,sans-Serif" font-size="10.00"> &#45;gridmap</text>
</g>
<!-- Node8 -->
<g id="node8" class="node">
<title>Node8</title>
<g id="a_node8"><a xlink:href="classFileManager.html" target="_top" xlink:title="Manages file input/output operations for grid map visualization.">
<polygon fill="white" stroke="black" points="336.17,-342 336.17,-454 437.17,-454 437.17,-342 336.17,-342"/>
<text text-anchor="middle" x="386.67" y="-442" font-family="Helvetica,sans-Serif" font-size="10.00">FileManager</text>
<polyline fill="none" stroke="black" points="336.17,-435 437.17,-435 "/>
<text text-anchor="start" x="344.17" y="-423" font-family="Helvetica,sans-Serif" font-size="10.00">&#45; loadedFilename</text>
<polyline fill="none" stroke="black" points="336.17,-416 437.17,-416 "/>
<text text-anchor="start" x="344.17" y="-404" font-family="Helvetica,sans-Serif" font-size="10.00">+ FileManager()</text>
<text text-anchor="start" x="344.17" y="-393" font-family="Helvetica,sans-Serif" font-size="10.00">+ loadDialog()</text>
<text text-anchor="start" x="344.17" y="-382" font-family="Helvetica,sans-Serif" font-size="10.00">+ saveDialog()</text>
<text text-anchor="start" x="344.17" y="-371" font-family="Helvetica,sans-Serif" font-size="10.00">+ dataLoad()</text>
<text text-anchor="start" x="344.17" y="-360" font-family="Helvetica,sans-Serif" font-size="10.00">+ saveData()</text>
<text text-anchor="start" x="344.17" y="-349" font-family="Helvetica,sans-Serif" font-size="10.00">+ saveScreen()</text>
</a>
</g>
</g>
<!-- Node3&#45;&gt;Node8 -->
<g id="edge12" class="edge">
<title>Node3&#45;&gt;Node8</title>
<path fill="none" stroke="#404040" d="M348.58,-666.75C357.71,-602.53 369.14,-522.21 377.09,-466.37"/>
<polygon fill="none" stroke="#404040" points="377.14,-466.02 374.02,-459.52 378.83,-454.14 381.94,-460.65 377.14,-466.02"/>
<text text-anchor="middle" x="373.17" y="-596.5" font-family="Helvetica,sans-Serif" font-size="10.00"> &#45;map</text>
</g>
<!-- Node9 -->
<g id="node9" class="node">
<title>Node9</title>
<g id="a_node9"><a xlink:href="classAStar.html" target="_top" xlink:title="This class handles the A* algorithm for path planning. It receives start and goal coordinates from th...">
<polygon fill="white" stroke="black" points="130.67,-226.5 130.67,-569.5 252.67,-569.5 252.67,-226.5 130.67,-226.5"/>
<text text-anchor="middle" x="191.67" y="-557.5" font-family="Helvetica,sans-Serif" font-size="10.00">AStar</text>
<polyline fill="none" stroke="black" points="130.67,-550.5 252.67,-550.5 "/>
<text text-anchor="start" x="138.67" y="-538.5" font-family="Helvetica,sans-Serif" font-size="10.00">&#45; width</text>
<text text-anchor="start" x="138.67" y="-527.5" font-family="Helvetica,sans-Serif" font-size="10.00">&#45; height</text>
<text text-anchor="start" x="138.67" y="-516.5" font-family="Helvetica,sans-Serif" font-size="10.00">&#45; pathFound</text>
<text text-anchor="start" x="138.67" y="-505.5" font-family="Helvetica,sans-Serif" font-size="10.00">&#45; finished</text>
<text text-anchor="start" x="138.67" y="-494.5" font-family="Helvetica,sans-Serif" font-size="10.00">&#45; startIndex</text>
<text text-anchor="start" x="138.67" y="-483.5" font-family="Helvetica,sans-Serif" font-size="10.00">&#45; goalIndex</text>
<text text-anchor="start" x="138.67" y="-472.5" font-family="Helvetica,sans-Serif" font-size="10.00">&#45; openList</text>
<text text-anchor="start" x="138.67" y="-461.5" font-family="Helvetica,sans-Serif" font-size="10.00">&#45; closedList</text>
<text text-anchor="start" x="138.67" y="-450.5" font-family="Helvetica,sans-Serif" font-size="10.00">&#45; gScore</text>
<text text-anchor="start" x="138.67" y="-439.5" font-family="Helvetica,sans-Serif" font-size="10.00">&#45; parentMap</text>
<text text-anchor="start" x="138.67" y="-428.5" font-family="Helvetica,sans-Serif" font-size="10.00">&#45; stateMap</text>
<text text-anchor="start" x="138.67" y="-417.5" font-family="Helvetica,sans-Serif" font-size="10.00">&#45; finalPath</text>
<polyline fill="none" stroke="black" points="130.67,-410.5 252.67,-410.5 "/>
<text text-anchor="start" x="138.67" y="-398.5" font-family="Helvetica,sans-Serif" font-size="10.00">+ AStar()</text>
<text text-anchor="start" x="138.67" y="-387.5" font-family="Helvetica,sans-Serif" font-size="10.00">+ start()</text>
<text text-anchor="start" x="138.67" y="-376.5" font-family="Helvetica,sans-Serif" font-size="10.00">+ step()</text>
<text text-anchor="start" x="138.67" y="-365.5" font-family="Helvetica,sans-Serif" font-size="10.00">+ findPath()</text>
<text text-anchor="start" x="138.67" y="-354.5" font-family="Helvetica,sans-Serif" font-size="10.00">+ updatemap()</text>
<text text-anchor="start" x="138.67" y="-343.5" font-family="Helvetica,sans-Serif" font-size="10.00">+ draw()</text>
<text text-anchor="start" x="138.67" y="-332.5" font-family="Helvetica,sans-Serif" font-size="10.00">+ drawFoundPath()</text>
<text text-anchor="start" x="138.67" y="-321.5" font-family="Helvetica,sans-Serif" font-size="10.00">+ isFinished()</text>
<text text-anchor="start" x="138.67" y="-310.5" font-family="Helvetica,sans-Serif" font-size="10.00">+ isPathFound()</text>
<text text-anchor="start" x="138.67" y="-299.5" font-family="Helvetica,sans-Serif" font-size="10.00">+ getCurrentNode()</text>
<text text-anchor="start" x="138.67" y="-288.5" font-family="Helvetica,sans-Serif" font-size="10.00">+ getStateMap()</text>
<text text-anchor="start" x="138.67" y="-277.5" font-family="Helvetica,sans-Serif" font-size="10.00">&#45; euclideanHeuristic()</text>
<text text-anchor="start" x="138.67" y="-266.5" font-family="Helvetica,sans-Serif" font-size="10.00">&#45; octileHeuristic()</text>
<text text-anchor="start" x="138.67" y="-255.5" font-family="Helvetica,sans-Serif" font-size="10.00">&#45; isValidCell()</text>
<text text-anchor="start" x="138.67" y="-244.5" font-family="Helvetica,sans-Serif" font-size="10.00">&#45; getNeighbors()</text>
<text text-anchor="start" x="138.67" y="-233.5" font-family="Helvetica,sans-Serif" font-size="10.00">&#45; reconstructPath()</text>
</a>
</g>
</g>
<!-- Node3&#45;&gt;Node9 -->
<g id="edge15" class="edge">
<title>Node3&#45;&gt;Node9</title>
<path fill="none" stroke="#404040" d="M282.7,-666.78C274.25,-648.05 265.9,-628.58 258.67,-610 255.02,-600.6 251.4,-590.92 247.87,-581.1"/>
<polygon fill="none" stroke="#404040" points="247.77,-580.83 241.99,-576.51 243.75,-569.52 249.53,-573.84 247.77,-580.83"/>
<text text-anchor="middle" x="273.17" y="-596.5" font-family="Helvetica,sans-Serif" font-size="10.00"> &#45;map</text>
</g>
<!-- Node4 -->
<g id="node4" class="node">
<title>Node4</title>
<g id="a_node4"><a xlink:href="classViewController.html" target="_top" xlink:title="Controls view, zoom, and panning.">
<polygon fill="white" stroke="black" points="261.67,-964.5 261.67,-1241.5 405.67,-1241.5 405.67,-964.5 261.67,-964.5"/>
<text text-anchor="middle" x="333.67" y="-1229.5" font-family="Helvetica,sans-Serif" font-size="10.00">ViewController</text>
<polyline fill="none" stroke="black" points="261.67,-1222.5 405.67,-1222.5 "/>
<text text-anchor="start" x="269.67" y="-1210.5" font-family="Helvetica,sans-Serif" font-size="10.00">&#45; window</text>
<text text-anchor="start" x="269.67" y="-1199.5" font-family="Helvetica,sans-Serif" font-size="10.00">&#45; view</text>
<text text-anchor="start" x="269.67" y="-1188.5" font-family="Helvetica,sans-Serif" font-size="10.00">&#45; defaultView</text>
<text text-anchor="start" x="269.67" y="-1177.5" font-family="Helvetica,sans-Serif" font-size="10.00">&#45; customDefaultView</text>
<text text-anchor="start" x="269.67" y="-1166.5" font-family="Helvetica,sans-Serif" font-size="10.00">&#45; dragging</text>
<text text-anchor="start" x="269.67" y="-1155.5" font-family="Helvetica,sans-Serif" font-size="10.00">&#45; dragStart</text>
<text text-anchor="start" x="269.67" y="-1144.5" font-family="Helvetica,sans-Serif" font-size="10.00">&#45; mousePosition_W</text>
<text text-anchor="start" x="269.67" y="-1133.5" font-family="Helvetica,sans-Serif" font-size="10.00">&#45; mousePosition_G</text>
<text text-anchor="start" x="269.67" y="-1122.5" font-family="Helvetica,sans-Serif" font-size="10.00">&#45; pixelPos</text>
<text text-anchor="start" x="269.67" y="-1111.5" font-family="Helvetica,sans-Serif" font-size="10.00">&#45; metersPerCell</text>
<text text-anchor="start" x="269.67" y="-1100.5" font-family="Helvetica,sans-Serif" font-size="10.00">and 6 more...</text>
<polyline fill="none" stroke="black" points="261.67,-1093.5 405.67,-1093.5 "/>
<text text-anchor="start" x="269.67" y="-1081.5" font-family="Helvetica,sans-Serif" font-size="10.00">+ ViewController()</text>
<text text-anchor="start" x="269.67" y="-1070.5" font-family="Helvetica,sans-Serif" font-size="10.00">+ handleEvent()</text>
<text text-anchor="start" x="269.67" y="-1059.5" font-family="Helvetica,sans-Serif" font-size="10.00">+ applyView()</text>
<text text-anchor="start" x="269.67" y="-1048.5" font-family="Helvetica,sans-Serif" font-size="10.00">+ reset()</text>
<text text-anchor="start" x="269.67" y="-1037.5" font-family="Helvetica,sans-Serif" font-size="10.00">+ zoomController()</text>
<text text-anchor="start" x="269.67" y="-1026.5" font-family="Helvetica,sans-Serif" font-size="10.00">+ drawGrid()</text>
<text text-anchor="start" x="269.67" y="-1015.5" font-family="Helvetica,sans-Serif" font-size="10.00">+ drawAxes()</text>
<text text-anchor="start" x="269.67" y="-1004.5" font-family="Helvetica,sans-Serif" font-size="10.00">+ windowMousePosition()</text>
<text text-anchor="start" x="269.67" y="-993.5" font-family="Helvetica,sans-Serif" font-size="10.00">+ getMetersPerCell()</text>
<text text-anchor="start" x="269.67" y="-982.5" font-family="Helvetica,sans-Serif" font-size="10.00">+ getPixelsPerMeter()</text>
<text text-anchor="start" x="269.67" y="-971.5" font-family="Helvetica,sans-Serif" font-size="10.00">and 7 more...</text>
</a>
</g>
</g>
<!-- Node4&#45;&gt;Node1 -->
<g id="edge8" class="edge">
<title>Node4&#45;&gt;Node1</title>
<path fill="none" stroke="#404040" d="M261.54,-1063.17C210.57,-1031.33 146.12,-981.12 115.67,-917 -16.07,-639.57 -61.41,-472.59 121.67,-226 200.75,-119.49 367.86,-95.85 459.06,-91.14"/>
<polygon fill="none" stroke="#404040" points="459.15,-91.14 464.97,-86.88 471.14,-90.61 465.32,-94.87 459.15,-91.14"/>
<text text-anchor="middle" x="32.67" y="-596.5" font-family="Helvetica,sans-Serif" font-size="10.00"> &#45;controller</text>
</g>
<!-- Node4&#45;&gt;Node3 -->
<g id="edge3" class="edge">
<title>Node4&#45;&gt;Node3</title>
<path fill="none" stroke="#404040" d="M333.67,-964.11C333.67,-939.48 333.67,-914.03 333.67,-890.07"/>
<polygon fill="none" stroke="#404040" points="333.67,-890.06 329.67,-884.06 333.67,-878.06 337.67,-884.06 333.67,-890.06"/>
<text text-anchor="middle" x="360.67" y="-938" font-family="Helvetica,sans-Serif" font-size="10.00"> &#45;controller</text>
</g>
<!-- Node5 -->
<g id="node5" class="node">
<title>Node5</title>
<g id="a_node5"><a xlink:href="classLiveMap.html" target="_top" xlink:title="This class manages live map creation in &quot;live mode&quot;, by dynamically updating the map from incoming RO...">
<polygon fill="white" stroke="black" points="449.67,-628.5 449.67,-916.5 593.67,-916.5 593.67,-628.5 449.67,-628.5"/>
<text text-anchor="middle" x="521.67" y="-904.5" font-family="Helvetica,sans-Serif" font-size="10.00">LiveMap</text>
<polyline fill="none" stroke="black" points="449.67,-897.5 593.67,-897.5 "/>
<text text-anchor="start" x="457.67" y="-885.5" font-family="Helvetica,sans-Serif" font-size="10.00">&#45; gridSize</text>
<text text-anchor="start" x="457.67" y="-874.5" font-family="Helvetica,sans-Serif" font-size="10.00">&#45; gridResolution</text>
<text text-anchor="start" x="457.67" y="-863.5" font-family="Helvetica,sans-Serif" font-size="10.00">&#45; posX</text>
<text text-anchor="start" x="457.67" y="-852.5" font-family="Helvetica,sans-Serif" font-size="10.00">&#45; posY</text>
<text text-anchor="start" x="457.67" y="-841.5" font-family="Helvetica,sans-Serif" font-size="10.00">&#45; grid</text>
<text text-anchor="start" x="457.67" y="-830.5" font-family="Helvetica,sans-Serif" font-size="10.00">&#45; originSet</text>
<text text-anchor="start" x="457.67" y="-819.5" font-family="Helvetica,sans-Serif" font-size="10.00">&#45; originX</text>
<text text-anchor="start" x="457.67" y="-808.5" font-family="Helvetica,sans-Serif" font-size="10.00">&#45; originY</text>
<text text-anchor="start" x="457.67" y="-797.5" font-family="Helvetica,sans-Serif" font-size="10.00">&#45; isLivemodeActive</text>
<polyline fill="none" stroke="black" points="449.67,-790.5 593.67,-790.5 "/>
<text text-anchor="start" x="457.67" y="-778.5" font-family="Helvetica,sans-Serif" font-size="10.00">+ LiveMap()</text>
<text text-anchor="start" x="457.67" y="-767.5" font-family="Helvetica,sans-Serif" font-size="10.00">+ addPoint()</text>
<text text-anchor="start" x="457.67" y="-756.5" font-family="Helvetica,sans-Serif" font-size="10.00">+ setPoints()</text>
<text text-anchor="start" x="457.67" y="-745.5" font-family="Helvetica,sans-Serif" font-size="10.00">+ clearPoints()</text>
<text text-anchor="start" x="457.67" y="-734.5" font-family="Helvetica,sans-Serif" font-size="10.00">+ clearGrid()</text>
<text text-anchor="start" x="457.67" y="-723.5" font-family="Helvetica,sans-Serif" font-size="10.00">+ xy2Grid()</text>
<text text-anchor="start" x="457.67" y="-712.5" font-family="Helvetica,sans-Serif" font-size="10.00">+ fillGrid()</text>
<text text-anchor="start" x="457.67" y="-701.5" font-family="Helvetica,sans-Serif" font-size="10.00">+ getGrid()</text>
<text text-anchor="start" x="457.67" y="-690.5" font-family="Helvetica,sans-Serif" font-size="10.00">+ updateGridFromPoints()</text>
<text text-anchor="start" x="457.67" y="-679.5" font-family="Helvetica,sans-Serif" font-size="10.00">+ drawLiveMap()</text>
<text text-anchor="start" x="457.67" y="-668.5" font-family="Helvetica,sans-Serif" font-size="10.00">+ setActive()</text>
<text text-anchor="start" x="457.67" y="-657.5" font-family="Helvetica,sans-Serif" font-size="10.00">+ getIsActive()</text>
<text text-anchor="start" x="457.67" y="-646.5" font-family="Helvetica,sans-Serif" font-size="10.00">+ setStart()</text>
<text text-anchor="start" x="457.67" y="-635.5" font-family="Helvetica,sans-Serif" font-size="10.00">+ setGoal()</text>
</a>
</g>
</g>
<!-- Node4&#45;&gt;Node5 -->
<g id="edge5" class="edge">
<title>Node4&#45;&gt;Node5</title>
<path fill="none" stroke="#404040" d="M405.82,-975.93C418.14,-954.4 431,-931.93 443.47,-910.14"/>
<polygon fill="none" stroke="#404040" points="443.6,-909.92 443.11,-902.72 449.56,-899.5 450.05,-906.7 443.6,-909.92"/>
<text text-anchor="middle" x="454.67" y="-938" font-family="Helvetica,sans-Serif" font-size="10.00"> &#45;controller</text>
</g>
<!-- Node5&#45;&gt;Node1 -->
<g id="edge10" class="edge">
<title>Node5&#45;&gt;Node1</title>
<path fill="none" stroke="#404040" d="M582.01,-628.23C588.05,-608.95 593.22,-589.19 596.67,-570 623.77,-419.53 634.91,-374.03 596.67,-226 592.38,-209.4 585.58,-192.65 577.77,-176.87"/>
<polygon fill="none" stroke="#404040" points="577.73,-176.78 571.42,-173.28 572.23,-166.12 578.53,-169.62 577.73,-176.78"/>
<text text-anchor="middle" x="645.17" y="-395.5" font-family="Helvetica,sans-Serif" font-size="10.00"> &#45;livemap</text>
</g>
<!-- Node5&#45;&gt;Node2 -->
<g id="edge4" class="edge">
<title>Node5&#45;&gt;Node2</title>
<path fill="none" stroke="#404040" d="M521.67,-628.28C521.67,-604.16 521.67,-579.02 521.67,-554.6"/>
<polygon fill="none" stroke="#404040" points="521.67,-554.3 517.67,-548.3 521.67,-542.3 525.67,-548.3 521.67,-554.3"/>
<text text-anchor="middle" x="545.17" y="-596.5" font-family="Helvetica,sans-Serif" font-size="10.00"> &#45;livemap</text>
</g>
<!-- Node6 -->
<g id="node6" class="node">
<title>Node6</title>
<g id="a_node6"><a xlink:href="classMenuBar.html" target="_top" xlink:title="Manages the menu bar located at the bottom of the screen. Provides options for file handling,...">
<polygon fill="white" stroke="black" points="689.67,-320 689.67,-476 817.67,-476 817.67,-320 689.67,-320"/>
<text text-anchor="middle" x="753.67" y="-464" font-family="Helvetica,sans-Serif" font-size="10.00">MenuBar</text>
<polyline fill="none" stroke="black" points="689.67,-457 817.67,-457 "/>
<text text-anchor="start" x="697.67" y="-445" font-family="Helvetica,sans-Serif" font-size="10.00">&#45; menuBar</text>
<text text-anchor="start" x="697.67" y="-434" font-family="Helvetica,sans-Serif" font-size="10.00">&#45; coordLabel</text>
<text text-anchor="start" x="697.67" y="-423" font-family="Helvetica,sans-Serif" font-size="10.00">&#45; liveToggle</text>
<text text-anchor="start" x="697.67" y="-412" font-family="Helvetica,sans-Serif" font-size="10.00">&#45; liveMode</text>
<polyline fill="none" stroke="black" points="689.67,-405 817.67,-405 "/>
<text text-anchor="start" x="697.67" y="-393" font-family="Helvetica,sans-Serif" font-size="10.00">+ MenuBar()</text>
<text text-anchor="start" x="697.67" y="-382" font-family="Helvetica,sans-Serif" font-size="10.00">+ setCallbacks()</text>
<text text-anchor="start" x="697.67" y="-371" font-family="Helvetica,sans-Serif" font-size="10.00">+ updateCoordinates()</text>
<text text-anchor="start" x="697.67" y="-360" font-family="Helvetica,sans-Serif" font-size="10.00">+ getLiveMode()</text>
<text text-anchor="start" x="697.67" y="-349" font-family="Helvetica,sans-Serif" font-size="10.00">&#45; setupMenu()</text>
<text text-anchor="start" x="697.67" y="-338" font-family="Helvetica,sans-Serif" font-size="10.00">&#45; setupCordLable()</text>
<text text-anchor="start" x="697.67" y="-327" font-family="Helvetica,sans-Serif" font-size="10.00">&#45; setupliveToggle()</text>
</a>
</g>
</g>
<!-- Node6&#45;&gt;Node1 -->
<g id="edge6" class="edge">
<title>Node6&#45;&gt;Node1</title>
<path fill="none" stroke="#404040" d="M726.67,-320C713.84,-289.15 696.68,-254.3 675.67,-226 649.62,-190.91 613.16,-158.32 582.25,-133.91"/>
<polygon fill="none" stroke="#404040" points="581.91,-133.64 574.72,-133.11 572.43,-126.27 579.63,-126.8 581.91,-133.64"/>
<text text-anchor="middle" x="675.17" y="-200" font-family="Helvetica,sans-Serif" font-size="10.00"> &#45;menu</text>
</g>
<!-- Node7 -->
<g id="node7" class="node">
<title>Node7</title>
<g id="a_node7"><a xlink:href="classUnicicleWmr.html" target="_top" xlink:title="Simulates a unicycle model robot with position, velocity, and rendering support.">
<polygon fill="white" stroke="black" points="835.67,-237.5 835.67,-558.5 945.67,-558.5 945.67,-237.5 835.67,-237.5"/>
<text text-anchor="middle" x="890.67" y="-546.5" font-family="Helvetica,sans-Serif" font-size="10.00">UnicicleWmr</text>
<polyline fill="none" stroke="black" points="835.67,-539.5 945.67,-539.5 "/>
<text text-anchor="start" x="843.67" y="-527.5" font-family="Helvetica,sans-Serif" font-size="10.00">&#45; pixelsPerMeter</text>
<text text-anchor="start" x="843.67" y="-516.5" font-family="Helvetica,sans-Serif" font-size="10.00">&#45; width</text>
<text text-anchor="start" x="843.67" y="-505.5" font-family="Helvetica,sans-Serif" font-size="10.00">&#45; height</text>
<text text-anchor="start" x="843.67" y="-494.5" font-family="Helvetica,sans-Serif" font-size="10.00">&#45; x</text>
<text text-anchor="start" x="843.67" y="-483.5" font-family="Helvetica,sans-Serif" font-size="10.00">&#45; y</text>
<text text-anchor="start" x="843.67" y="-472.5" font-family="Helvetica,sans-Serif" font-size="10.00">&#45; theta</text>
<text text-anchor="start" x="843.67" y="-461.5" font-family="Helvetica,sans-Serif" font-size="10.00">&#45; linear_v</text>
<text text-anchor="start" x="843.67" y="-450.5" font-family="Helvetica,sans-Serif" font-size="10.00">&#45; angular_omega</text>
<text text-anchor="start" x="843.67" y="-439.5" font-family="Helvetica,sans-Serif" font-size="10.00">&#45; robotShape</text>
<text text-anchor="start" x="843.67" y="-428.5" font-family="Helvetica,sans-Serif" font-size="10.00">&#45; robotcolor</text>
<text text-anchor="start" x="843.67" y="-417.5" font-family="Helvetica,sans-Serif" font-size="10.00">&#45; isRobotActive</text>
<polyline fill="none" stroke="black" points="835.67,-410.5 945.67,-410.5 "/>
<text text-anchor="start" x="843.67" y="-398.5" font-family="Helvetica,sans-Serif" font-size="10.00">+ UnicicleWmr()</text>
<text text-anchor="start" x="843.67" y="-387.5" font-family="Helvetica,sans-Serif" font-size="10.00">+ update()</text>
<text text-anchor="start" x="843.67" y="-376.5" font-family="Helvetica,sans-Serif" font-size="10.00">+ draw()</text>
<text text-anchor="start" x="843.67" y="-365.5" font-family="Helvetica,sans-Serif" font-size="10.00">+ setVelocity()</text>
<text text-anchor="start" x="843.67" y="-354.5" font-family="Helvetica,sans-Serif" font-size="10.00">+ reset()</text>
<text text-anchor="start" x="843.67" y="-343.5" font-family="Helvetica,sans-Serif" font-size="10.00">+ getX()</text>
<text text-anchor="start" x="843.67" y="-332.5" font-family="Helvetica,sans-Serif" font-size="10.00">+ getY()</text>
<text text-anchor="start" x="843.67" y="-321.5" font-family="Helvetica,sans-Serif" font-size="10.00">+ getTheta()</text>
<text text-anchor="start" x="843.67" y="-310.5" font-family="Helvetica,sans-Serif" font-size="10.00">+ getWidth()</text>
<text text-anchor="start" x="843.67" y="-299.5" font-family="Helvetica,sans-Serif" font-size="10.00">+ getheight()</text>
<text text-anchor="start" x="843.67" y="-288.5" font-family="Helvetica,sans-Serif" font-size="10.00">+ setRobotActive()</text>
<text text-anchor="start" x="843.67" y="-277.5" font-family="Helvetica,sans-Serif" font-size="10.00">+ getRobotActive()</text>
<text text-anchor="start" x="843.67" y="-266.5" font-family="Helvetica,sans-Serif" font-size="10.00">+ setPose()</text>
<text text-anchor="start" x="843.67" y="-255.5" font-family="Helvetica,sans-Serif" font-size="10.00">+ setColor()</text>
<text text-anchor="start" x="843.67" y="-244.5" font-family="Helvetica,sans-Serif" font-size="10.00">+ setDimensions()</text>
</a>
</g>
</g>
<!-- Node7&#45;&gt;Node1 -->
<g id="edge9" class="edge">
<title>Node7&#45;&gt;Node1</title>
<path fill="none" stroke="#404040" d="M836.27,-237.27C833.24,-233.35 830.04,-229.58 826.67,-226 760.81,-156.07 652.33,-119.88 584.06,-103.07"/>
<polygon fill="none" stroke="#404040" points="583.89,-103.03 577.12,-105.53 572.21,-100.24 578.98,-97.74 583.89,-103.03"/>
<text text-anchor="middle" x="821.17" y="-200" font-family="Helvetica,sans-Serif" font-size="10.00"> &#45;wmr</text>
</g>
<!-- Node8&#45;&gt;Node1 -->
<g id="edge11" class="edge">
<title>Node8&#45;&gt;Node1</title>
<path fill="none" stroke="#404040" d="M402.97,-341.74C413.66,-307.77 428.77,-263.68 445.67,-226 451.54,-212.93 458.24,-199.44 465.18,-186.28"/>
<polygon fill="none" stroke="#404040" points="465.39,-185.9 464.7,-178.72 471.06,-175.32 471.75,-182.5 465.39,-185.9"/>
<text text-anchor="middle" x="484.17" y="-200" font-family="Helvetica,sans-Serif" font-size="10.00"> &#45;manager</text>
</g>
<!-- Node9&#45;&gt;Node1 -->
<g id="edge13" class="edge">
<title>Node9&#45;&gt;Node1</title>
<path fill="none" stroke="#404040" d="M205.34,-226.43C210.22,-215.88 216.26,-205.93 223.67,-197 282.04,-126.73 390.29,-102.81 459.01,-94.68"/>
<polygon fill="none" stroke="#404040" points="459.01,-94.68 464.55,-90.05 470.94,-93.38 465.41,-98.01 459.01,-94.68"/>
<text text-anchor="middle" x="249.17" y="-200" font-family="Helvetica,sans-Serif" font-size="10.00"> &#45;aStarsim</text>
</g>
<!-- Node10 -->
<g id="node10" class="node">
<title>Node10</title>
<g id="a_node10"><a xlink:href="classNode.html" target="_top" xlink:title="Represents a node in a grid used for path planning algorithms (e.g., A*). Each node corresponds to a ...">
<polygon fill="white" stroke="black" points="125.17,-694.5 125.17,-850.5 210.17,-850.5 210.17,-694.5 125.17,-694.5"/>
<text text-anchor="middle" x="167.67" y="-838.5" font-family="Helvetica,sans-Serif" font-size="10.00">Node</text>
<polyline fill="none" stroke="black" points="125.17,-831.5 210.17,-831.5 "/>
<text text-anchor="start" x="133.17" y="-819.5" font-family="Helvetica,sans-Serif" font-size="10.00">+ x</text>
<text text-anchor="start" x="133.17" y="-808.5" font-family="Helvetica,sans-Serif" font-size="10.00">+ y</text>
<text text-anchor="start" x="133.17" y="-797.5" font-family="Helvetica,sans-Serif" font-size="10.00">+ parent</text>
<text text-anchor="start" x="133.17" y="-786.5" font-family="Helvetica,sans-Serif" font-size="10.00">+ parentX</text>
<text text-anchor="start" x="133.17" y="-775.5" font-family="Helvetica,sans-Serif" font-size="10.00">+ parentY</text>
<text text-anchor="start" x="133.17" y="-764.5" font-family="Helvetica,sans-Serif" font-size="10.00">+ gCost</text>
<text text-anchor="start" x="133.17" y="-753.5" font-family="Helvetica,sans-Serif" font-size="10.00">+ hCost</text>
<polyline fill="none" stroke="black" points="125.17,-746.5 210.17,-746.5 "/>
<text text-anchor="start" x="133.17" y="-734.5" font-family="Helvetica,sans-Serif" font-size="10.00">+ Node()</text>
<text text-anchor="start" x="133.17" y="-723.5" font-family="Helvetica,sans-Serif" font-size="10.00">+ Node()</text>
<text text-anchor="start" x="133.17" y="-712.5" font-family="Helvetica,sans-Serif" font-size="10.00">+ fCost()</text>
<text text-anchor="start" x="133.17" y="-701.5" font-family="Helvetica,sans-Serif" font-size="10.00">+ operator&gt;()</text>
</a>
</g>
</g>
<!-- Node10&#45;&gt;Node9 -->
<g id="edge14" class="edge">
<title>Node10&#45;&gt;Node9</title>
<path fill="none" stroke="#404040" d="M166.11,-694.2C165.96,-661.42 166.47,-622.81 168.67,-588 168.8,-585.93 168.94,-583.85 169.09,-581.76"/>
<polygon fill="none" stroke="#404040" points="169.1,-581.64 165.56,-575.36 169.99,-569.68 173.53,-575.96 169.1,-581.64"/>
<text text-anchor="middle" x="202.17" y="-602" font-family="Helvetica,sans-Serif" font-size="10.00"> &#45;currentNode</text>
<text text-anchor="middle" x="202.17" y="-591" font-family="Helvetica,sans-Serif" font-size="10.00">&#45;goalNode</text>
</g>
<!-- Node11 -->
<g id="node11" class="node">
<title>Node11</title>
<g id="a_node11"><a xlink:href="classRosHandler.html" target="_top" xlink:title="Handles ROS communication:">
<polygon fill="white" stroke="black" points="963.67,-248.5 963.67,-547.5 1107.67,-547.5 1107.67,-248.5 963.67,-248.5"/>
<text text-anchor="middle" x="1035.67" y="-535.5" font-family="Helvetica,sans-Serif" font-size="10.00">RosHandler</text>
<polyline fill="none" stroke="black" points="963.67,-528.5 1107.67,-528.5 "/>
<text text-anchor="start" x="971.67" y="-516.5" font-family="Helvetica,sans-Serif" font-size="10.00">&#45; nh</text>
<text text-anchor="start" x="971.67" y="-505.5" font-family="Helvetica,sans-Serif" font-size="10.00">&#45; linear</text>
<text text-anchor="start" x="971.67" y="-494.5" font-family="Helvetica,sans-Serif" font-size="10.00">&#45; angular</text>
<text text-anchor="start" x="971.67" y="-483.5" font-family="Helvetica,sans-Serif" font-size="10.00">&#45; l_scale</text>
<text text-anchor="start" x="971.67" y="-472.5" font-family="Helvetica,sans-Serif" font-size="10.00">&#45; a_scale</text>
<text text-anchor="start" x="971.67" y="-461.5" font-family="Helvetica,sans-Serif" font-size="10.00">&#45; sonarPoints</text>
<text text-anchor="start" x="971.67" y="-450.5" font-family="Helvetica,sans-Serif" font-size="10.00">&#45; current_linear_velocity</text>
<text text-anchor="start" x="971.67" y="-439.5" font-family="Helvetica,sans-Serif" font-size="10.00">&#45; current_angular_velocity</text>
<text text-anchor="start" x="971.67" y="-428.5" font-family="Helvetica,sans-Serif" font-size="10.00">&#45; last_dt</text>
<text text-anchor="start" x="971.67" y="-417.5" font-family="Helvetica,sans-Serif" font-size="10.00">&#45; last_joy_time</text>
<text text-anchor="start" x="971.67" y="-406.5" font-family="Helvetica,sans-Serif" font-size="10.00">&#45; vel_pub</text>
<text text-anchor="start" x="971.67" y="-395.5" font-family="Helvetica,sans-Serif" font-size="10.00">&#45; sonar_sub</text>
<text text-anchor="start" x="971.67" y="-384.5" font-family="Helvetica,sans-Serif" font-size="10.00">&#45; joy_sub</text>
<text text-anchor="start" x="971.67" y="-373.5" font-family="Helvetica,sans-Serif" font-size="10.00">&#45; ram_pub</text>
<text text-anchor="start" x="971.67" y="-362.5" font-family="Helvetica,sans-Serif" font-size="10.00">&#45; ram_timer</text>
<polyline fill="none" stroke="black" points="963.67,-355.5 1107.67,-355.5 "/>
<text text-anchor="start" x="971.67" y="-343.5" font-family="Helvetica,sans-Serif" font-size="10.00">+ RosHandler()</text>
<text text-anchor="start" x="971.67" y="-332.5" font-family="Helvetica,sans-Serif" font-size="10.00">+ getSonarPoints()</text>
<text text-anchor="start" x="971.67" y="-321.5" font-family="Helvetica,sans-Serif" font-size="10.00">+ getLinearVelocity()</text>
<text text-anchor="start" x="971.67" y="-310.5" font-family="Helvetica,sans-Serif" font-size="10.00">+ getAngularVelocity()</text>
<text text-anchor="start" x="971.67" y="-299.5" font-family="Helvetica,sans-Serif" font-size="10.00">+ getLastDeltaTime()</text>
<text text-anchor="start" x="971.67" y="-288.5" font-family="Helvetica,sans-Serif" font-size="10.00">&#45; joyCallback()</text>
<text text-anchor="start" x="971.67" y="-277.5" font-family="Helvetica,sans-Serif" font-size="10.00">&#45; sonarPointReceiver()</text>
<text text-anchor="start" x="971.67" y="-266.5" font-family="Helvetica,sans-Serif" font-size="10.00">&#45; getMemoryUsageKB()</text>
<text text-anchor="start" x="971.67" y="-255.5" font-family="Helvetica,sans-Serif" font-size="10.00">&#45; publishMemoryUsage()</text>
</a>
</g>
</g>
<!-- Node11&#45;&gt;Node1 -->
<g id="edge16" class="edge">
<title>Node11&#45;&gt;Node1</title>
<path fill="none" stroke="#404040" d="M975.75,-248.4C969.37,-240.25 962.36,-232.68 954.67,-226 847.42,-132.72 676.22,-103.62 584.52,-94.57"/>
<polygon fill="none" stroke="#404040" points="584.34,-94.55 578,-97.98 572.39,-93.44 578.73,-90.01 584.34,-94.55"/>
<text text-anchor="middle" x="955.17" y="-200" font-family="Helvetica,sans-Serif" font-size="10.00"> &#45;roshandler</text>
</g>
</g>
</svg>
