<?xml version="1.0" encoding="UTF-8" standalone="no"?>
<!DOCTYPE svg PUBLIC "-//W3C//DTD SVG 1.1//EN"
 "http://www.w3.org/Graphics/SVG/1.1/DTD/svg11.dtd">
<!-- Generated by graphviz version 2.43.0 (0)
 -->
<!-- Title: GridMap::getMapSize Pages: 1 -->
<svg width="385pt" height="104pt"
 viewBox="0.00 0.00 385.00 104.00" xmlns="http://www.w3.org/2000/svg" xmlns:xlink="http://www.w3.org/1999/xlink">
<g id="graph0" class="graph" transform="scale(1 1) rotate(0) translate(4 100)">
<title>GridMap::getMapSize</title>
<polygon fill="white" stroke="transparent" points="-4,4 -4,-100 381,-100 381,4 -4,4"/>
<!-- Node1 -->
<g id="node1" class="node">
<title>Node1</title>
<g id="a_node1"><a xlink:title="Get the number of cells per side.">
<polygon fill="#bfbfbf" stroke="black" points="256,-38.5 256,-57.5 377,-57.5 377,-38.5 256,-38.5"/>
<text text-anchor="middle" x="316.5" y="-45.5" font-family="Helvetica,sans-Serif" font-size="10.00">GridMap::getMapSize</text>
</a>
</g>
</g>
<!-- Node2 -->
<g id="node2" class="node">
<title>Node2</title>
<g id="a_node2"><a xlink:href="classAStar.html#aa6c73236c60671d0c1d54f9f12e76f62" target="_top" xlink:title="Constructor with GridMap reference.">
<polygon fill="white" stroke="black" points="111,-76.5 111,-95.5 186,-95.5 186,-76.5 111,-76.5"/>
<text text-anchor="middle" x="148.5" y="-83.5" font-family="Helvetica,sans-Serif" font-size="10.00">AStar::AStar</text>
</a>
</g>
</g>
<!-- Node1&#45;&gt;Node2 -->
<g id="edge1" class="edge">
<title>Node1&#45;&gt;Node2</title>
<path fill="none" stroke="midnightblue" d="M263.83,-59.83C238.6,-65.6 208.84,-72.42 186.01,-77.64"/>
<polygon fill="midnightblue" stroke="midnightblue" points="264.64,-63.23 273.61,-57.59 263.08,-56.41 264.64,-63.23"/>
</g>
<!-- Node3 -->
<g id="node3" class="node">
<title>Node3</title>
<g id="a_node3"><a xlink:href="classMapViewer.html#abcde24a9cc11f7e9ea3e6ef0d7ed6063" target="_top" xlink:title="Handles input events (mouse and keyboard)">
<polygon fill="white" stroke="black" points="77,-38.5 77,-57.5 220,-57.5 220,-38.5 77,-38.5"/>
<text text-anchor="middle" x="148.5" y="-45.5" font-family="Helvetica,sans-Serif" font-size="10.00">MapViewer::processEvent</text>
</a>
</g>
</g>
<!-- Node1&#45;&gt;Node3 -->
<g id="edge2" class="edge">
<title>Node1&#45;&gt;Node3</title>
<path fill="none" stroke="midnightblue" d="M245.45,-48C237.05,-48 228.48,-48 220.08,-48"/>
<polygon fill="midnightblue" stroke="midnightblue" points="245.57,-51.5 255.57,-48 245.57,-44.5 245.57,-51.5"/>
</g>
<!-- Node5 -->
<g id="node5" class="node">
<title>Node5</title>
<g id="a_node5"><a xlink:href="classMapViewer.html#a323a6ee85f1257b6e7c758ebf3d694bd" target="_top" xlink:title="Manages logic updates and user interaction.">
<polygon fill="white" stroke="black" points="93,-0.5 93,-19.5 204,-19.5 204,-0.5 93,-0.5"/>
<text text-anchor="middle" x="148.5" y="-7.5" font-family="Helvetica,sans-Serif" font-size="10.00">MapViewer::update</text>
</a>
</g>
</g>
<!-- Node1&#45;&gt;Node5 -->
<g id="edge4" class="edge">
<title>Node1&#45;&gt;Node5</title>
<path fill="none" stroke="midnightblue" d="M263.85,-36.18C240.44,-30.82 213.14,-24.57 191.09,-19.52"/>
<polygon fill="midnightblue" stroke="midnightblue" points="263.08,-39.59 273.61,-38.41 264.64,-32.77 263.08,-39.59"/>
</g>
<!-- Node4 -->
<g id="node4" class="node">
<title>Node4</title>
<g id="a_node4"><a xlink:href="main_8cpp.html#a3c04138a5bfe5d72780bb7e82a18e627" target="_top" xlink:title="Main entry point for the ARTG SLAM visualization node.">
<polygon fill="white" stroke="black" points="0,-19.5 0,-38.5 41,-38.5 41,-19.5 0,-19.5"/>
<text text-anchor="middle" x="20.5" y="-26.5" font-family="Helvetica,sans-Serif" font-size="10.00">main</text>
</a>
</g>
</g>
<!-- Node3&#45;&gt;Node4 -->
<g id="edge3" class="edge">
<title>Node3&#45;&gt;Node4</title>
<path fill="none" stroke="midnightblue" d="M73.88,-36.9C61.78,-35.07 50.22,-33.33 41.05,-31.95"/>
<polygon fill="midnightblue" stroke="midnightblue" points="73.72,-40.41 84.13,-38.44 74.76,-33.49 73.72,-40.41"/>
</g>
<!-- Node5&#45;&gt;Node4 -->
<g id="edge5" class="edge">
<title>Node5&#45;&gt;Node4</title>
<path fill="none" stroke="midnightblue" d="M82.94,-19.73C67.66,-22.04 52.49,-24.33 41.05,-26.05"/>
<polygon fill="midnightblue" stroke="midnightblue" points="83.6,-23.18 92.97,-18.22 82.56,-16.25 83.6,-23.18"/>
</g>
</g>
</svg>
