<?xml version="1.0" encoding="UTF-8" standalone="no"?>
<!DOCTYPE svg PUBLIC "-//W3C//DTD SVG 1.1//EN"
 "http://www.w3.org/Graphics/SVG/1.1/DTD/svg11.dtd">
<!-- Generated by graphviz version 2.43.0 (0)
 -->
<!-- Title: RosHandler::RosHandler Pages: 1 -->
<svg width="567pt" height="116pt"
 viewBox="0.00 0.00 567.00 116.00" xmlns="http://www.w3.org/2000/svg" xmlns:xlink="http://www.w3.org/1999/xlink">
<g id="graph0" class="graph" transform="scale(1 1) rotate(0) translate(4 112)">
<title>RosHandler::RosHandler</title>
<polygon fill="white" stroke="transparent" points="-4,4 -4,-112 563,-112 563,4 -4,4"/>
<!-- Node1 -->
<g id="node1" class="node">
<title>Node1</title>
<g id="a_node1"><a xlink:title="Constructor.">
<polygon fill="#bfbfbf" stroke="black" points="0,-44.5 0,-63.5 135,-63.5 135,-44.5 0,-44.5"/>
<text text-anchor="middle" x="67.5" y="-51.5" font-family="Helvetica,sans-Serif" font-size="10.00">RosHandler::RosHandler</text>
</a>
</g>
</g>
<!-- Node2 -->
<g id="node2" class="node">
<title>Node2</title>
<g id="a_node2"><a xlink:href="classRosHandler.html#a91c1e4b44d2a18c34132abfb48fb3079" target="_top" xlink:title="Callback for joystick messages.">
<polygon fill="white" stroke="black" points="189.5,-88.5 189.5,-107.5 325.5,-107.5 325.5,-88.5 189.5,-88.5"/>
<text text-anchor="middle" x="257.5" y="-95.5" font-family="Helvetica,sans-Serif" font-size="10.00">RosHandler::joyCallback</text>
</a>
</g>
</g>
<!-- Node1&#45;&gt;Node2 -->
<g id="edge1" class="edge">
<title>Node1&#45;&gt;Node2</title>
<path fill="none" stroke="midnightblue" d="M106.91,-63.57C126.13,-68.3 149.77,-74.05 171,-79 181.21,-81.38 192.13,-83.86 202.62,-86.2"/>
<polygon fill="midnightblue" stroke="midnightblue" points="202,-89.65 212.53,-88.41 203.53,-82.82 202,-89.65"/>
</g>
<!-- Node3 -->
<g id="node3" class="node">
<title>Node3</title>
<g id="a_node3"><a xlink:href="classRosHandler.html#aaf98b42cceb1fcadd1640be227bb5fff" target="_top" xlink:title="Periodically publishes the RAM usage to a ROS topic.">
<polygon fill="white" stroke="black" points="180,-39 180,-69 335,-69 335,-39 180,-39"/>
<text text-anchor="start" x="188" y="-57" font-family="Helvetica,sans-Serif" font-size="10.00">RosHandler::publishMemory</text>
<text text-anchor="middle" x="257.5" y="-46" font-family="Helvetica,sans-Serif" font-size="10.00">Usage</text>
</a>
</g>
</g>
<!-- Node1&#45;&gt;Node3 -->
<g id="edge2" class="edge">
<title>Node1&#45;&gt;Node3</title>
<path fill="none" stroke="midnightblue" d="M135.05,-54C146.24,-54 158,-54 169.62,-54"/>
<polygon fill="midnightblue" stroke="midnightblue" points="169.77,-57.5 179.77,-54 169.77,-50.5 169.77,-57.5"/>
</g>
<!-- Node5 -->
<g id="node5" class="node">
<title>Node5</title>
<g id="a_node5"><a xlink:href="classRosHandler.html#aea6fd461c46de62b9b598e01bf321089" target="_top" xlink:title="Callback for sonar point messages.">
<polygon fill="white" stroke="black" points="171,-0.5 171,-19.5 344,-19.5 344,-0.5 171,-0.5"/>
<text text-anchor="middle" x="257.5" y="-7.5" font-family="Helvetica,sans-Serif" font-size="10.00">RosHandler::sonarPointReceiver</text>
</a>
</g>
</g>
<!-- Node1&#45;&gt;Node5 -->
<g id="edge4" class="edge">
<title>Node1&#45;&gt;Node5</title>
<path fill="none" stroke="midnightblue" d="M109.4,-44.42C128.17,-40.03 150.71,-34.75 171,-30 182.25,-27.37 194.33,-24.54 205.77,-21.86"/>
<polygon fill="midnightblue" stroke="midnightblue" points="206.68,-25.25 215.62,-19.56 205.08,-18.43 206.68,-25.25"/>
</g>
<!-- Node4 -->
<g id="node4" class="node">
<title>Node4</title>
<g id="a_node4"><a xlink:href="classRosHandler.html#ac1e035daa32ccbcca02a9c55b5fc2da4" target="_top" xlink:title="Reads current RAM usage of the process in KB.">
<polygon fill="white" stroke="black" points="380,-44.5 380,-63.5 559,-63.5 559,-44.5 380,-44.5"/>
<text text-anchor="middle" x="469.5" y="-51.5" font-family="Helvetica,sans-Serif" font-size="10.00">RosHandler::getMemoryUsageKB</text>
</a>
</g>
</g>
<!-- Node3&#45;&gt;Node4 -->
<g id="edge3" class="edge">
<title>Node3&#45;&gt;Node4</title>
<path fill="none" stroke="midnightblue" d="M335.21,-54C346.44,-54 358.15,-54 369.75,-54"/>
<polygon fill="midnightblue" stroke="midnightblue" points="369.9,-57.5 379.9,-54 369.9,-50.5 369.9,-57.5"/>
</g>
</g>
</svg>
