<?xml version="1.0" encoding="UTF-8" standalone="no"?>
<!DOCTYPE svg PUBLIC "-//W3C//DTD SVG 1.1//EN"
 "http://www.w3.org/Graphics/SVG/1.1/DTD/svg11.dtd">
<!-- Generated by graphviz version 2.43.0 (0)
 -->
<!-- Title: RobotCreator::run Pages: 1 -->
<svg width="305pt" height="142pt"
 viewBox="0.00 0.00 305.00 142.00" xmlns="http://www.w3.org/2000/svg" xmlns:xlink="http://www.w3.org/1999/xlink">
<g id="graph0" class="graph" transform="scale(1 1) rotate(0) translate(4 138)">
<title>RobotCreator::run</title>
<polygon fill="white" stroke="transparent" points="-4,4 -4,-138 301,-138 301,4 -4,4"/>
<!-- Node1 -->
<g id="node1" class="node">
<title>Node1</title>
<g id="a_node1"><a xlink:title="Main loop entry point to run the creation window.">
<polygon fill="#bfbfbf" stroke="black" points="0,-57.5 0,-76.5 103,-76.5 103,-57.5 0,-57.5"/>
<text text-anchor="middle" x="51.5" y="-64.5" font-family="Helvetica,sans-Serif" font-size="10.00">RobotCreator::run</text>
</a>
</g>
</g>
<!-- Node2 -->
<g id="node2" class="node">
<title>Node2</title>
<g id="a_node2"><a xlink:href="classRobotCreator.html#a55c3f93cf65404a5c334c6a4be5ab67e" target="_top" xlink:title="Returns true if the creation window is currently open and running.">
<polygon fill="white" stroke="black" points="150.5,-114.5 150.5,-133.5 285.5,-133.5 285.5,-114.5 150.5,-114.5"/>
<text text-anchor="middle" x="218" y="-121.5" font-family="Helvetica,sans-Serif" font-size="10.00">RobotCreator::isRunning</text>
</a>
</g>
</g>
<!-- Node1&#45;&gt;Node2 -->
<g id="edge1" class="edge">
<title>Node1&#45;&gt;Node2</title>
<path fill="none" stroke="midnightblue" d="M71.7,-76.6C88.97,-84.95 115.23,-96.95 139,-105 146.43,-107.51 154.35,-109.84 162.21,-111.94"/>
<polygon fill="midnightblue" stroke="midnightblue" points="161.51,-115.38 172.07,-114.48 163.25,-108.6 161.51,-115.38"/>
</g>
<!-- Node3 -->
<g id="node3" class="node">
<title>Node3</title>
<g id="a_node3"><a xlink:href="classRobotCreator.html#a296898214fd76575c63de36ae1c5481f" target="_top" xlink:title="Handles user input events like keyboard and mouse.">
<polygon fill="white" stroke="black" points="139,-76.5 139,-95.5 297,-95.5 297,-76.5 139,-76.5"/>
<text text-anchor="middle" x="218" y="-83.5" font-family="Helvetica,sans-Serif" font-size="10.00">RobotCreator::processEvents</text>
</a>
</g>
</g>
<!-- Node1&#45;&gt;Node3 -->
<g id="edge2" class="edge">
<title>Node1&#45;&gt;Node3</title>
<path fill="none" stroke="midnightblue" d="M103.2,-72.86C111.43,-73.81 120.16,-74.81 128.97,-75.83"/>
<polygon fill="midnightblue" stroke="midnightblue" points="128.61,-79.31 138.94,-76.98 129.41,-72.36 128.61,-79.31"/>
</g>
<!-- Node4 -->
<g id="node4" class="node">
<title>Node4</title>
<g id="a_node4"><a xlink:href="classRobotCreator.html#ad774a314cafeb9eee4187a295b5739d1" target="_top" xlink:title="Renders the GUI window and widgets.">
<polygon fill="white" stroke="black" points="158.5,-38.5 158.5,-57.5 277.5,-57.5 277.5,-38.5 158.5,-38.5"/>
<text text-anchor="middle" x="218" y="-45.5" font-family="Helvetica,sans-Serif" font-size="10.00">RobotCreator::render</text>
</a>
</g>
</g>
<!-- Node1&#45;&gt;Node4 -->
<g id="edge3" class="edge">
<title>Node1&#45;&gt;Node4</title>
<path fill="none" stroke="midnightblue" d="M103.2,-61.14C117.39,-59.51 133.05,-57.7 148.11,-55.96"/>
<polygon fill="midnightblue" stroke="midnightblue" points="148.87,-59.39 158.41,-54.77 148.07,-52.44 148.87,-59.39"/>
</g>
<!-- Node5 -->
<g id="node5" class="node">
<title>Node5</title>
<g id="a_node5"><a xlink:href="classRobotCreator.html#a3b1852ea68b66abab751226c1cb6820f" target="_top" xlink:title="Updates internal state and GUI elements each frame.">
<polygon fill="white" stroke="black" points="157.5,-0.5 157.5,-19.5 278.5,-19.5 278.5,-0.5 157.5,-0.5"/>
<text text-anchor="middle" x="218" y="-7.5" font-family="Helvetica,sans-Serif" font-size="10.00">RobotCreator::update</text>
</a>
</g>
</g>
<!-- Node1&#45;&gt;Node5 -->
<g id="edge4" class="edge">
<title>Node1&#45;&gt;Node5</title>
<path fill="none" stroke="midnightblue" d="M71.7,-57.4C88.97,-49.05 115.23,-37.05 139,-29 146.43,-26.49 154.35,-24.16 162.21,-22.06"/>
<polygon fill="midnightblue" stroke="midnightblue" points="163.25,-25.4 172.07,-19.52 161.51,-18.62 163.25,-25.4"/>
</g>
</g>
</svg>
