<?xml version="1.0" encoding="UTF-8" standalone="no"?>
<!DOCTYPE svg PUBLIC "-//W3C//DTD SVG 1.1//EN"
 "http://www.w3.org/Graphics/SVG/1.1/DTD/svg11.dtd">
<!-- Generated by graphviz version 2.43.0 (0)
 -->
<!-- Title: ViewController::handleEvent Pages: 1 -->
<svg width="544pt" height="66pt"
 viewBox="0.00 0.00 544.00 66.00" xmlns="http://www.w3.org/2000/svg" xmlns:xlink="http://www.w3.org/1999/xlink">
<g id="graph0" class="graph" transform="scale(1 1) rotate(0) translate(4 62)">
<title>ViewController::handleEvent</title>
<polygon fill="white" stroke="transparent" points="-4,4 -4,-62 540,-62 540,4 -4,4"/>
<!-- Node1 -->
<g id="node1" class="node">
<title>Node1</title>
<g id="a_node1"><a xlink:title="Handles mouse movement events for panning and zooming.">
<polygon fill="#bfbfbf" stroke="black" points="0,-19.5 0,-38.5 155,-38.5 155,-19.5 0,-19.5"/>
<text text-anchor="middle" x="77.5" y="-26.5" font-family="Helvetica,sans-Serif" font-size="10.00">ViewController::handleEvent</text>
</a>
</g>
</g>
<!-- Node2 -->
<g id="node2" class="node">
<title>Node2</title>
<g id="a_node2"><a xlink:href="classViewController.html#a3ef5b86c4b69837a4d90b3a16f84379f" target="_top" xlink:title="Resets the view to its default state.">
<polygon fill="white" stroke="black" points="216.5,-38.5 216.5,-57.5 335.5,-57.5 335.5,-38.5 216.5,-38.5"/>
<text text-anchor="middle" x="276" y="-45.5" font-family="Helvetica,sans-Serif" font-size="10.00">ViewController::reset</text>
</a>
</g>
</g>
<!-- Node1&#45;&gt;Node2 -->
<g id="edge1" class="edge">
<title>Node1&#45;&gt;Node2</title>
<path fill="none" stroke="midnightblue" d="M155.03,-36.4C171.9,-38.03 189.67,-39.75 206.2,-41.35"/>
<polygon fill="midnightblue" stroke="midnightblue" points="206.03,-44.85 216.32,-42.33 206.71,-37.88 206.03,-44.85"/>
</g>
<!-- Node3 -->
<g id="node3" class="node">
<title>Node3</title>
<g id="a_node3"><a xlink:href="classViewController.html#a0b015ef0ad0da78f94e932eda5ed2197" target="_top" xlink:title="Handles zoom in/out based on user input events.">
<polygon fill="white" stroke="black" points="191,-0.5 191,-19.5 361,-19.5 361,-0.5 191,-0.5"/>
<text text-anchor="middle" x="276" y="-7.5" font-family="Helvetica,sans-Serif" font-size="10.00">ViewController::zoomController</text>
</a>
</g>
</g>
<!-- Node1&#45;&gt;Node3 -->
<g id="edge2" class="edge">
<title>Node1&#45;&gt;Node3</title>
<path fill="none" stroke="midnightblue" d="M155.03,-21.6C163.48,-20.78 172.14,-19.95 180.77,-19.11"/>
<polygon fill="midnightblue" stroke="midnightblue" points="181.25,-22.58 190.86,-18.14 180.57,-15.61 181.25,-22.58"/>
</g>
<!-- Node4 -->
<g id="node4" class="node">
<title>Node4</title>
<g id="a_node4"><a xlink:href="classViewController.html#ab3b39d154cf93e5eec28d2bbdead91e4" target="_top" xlink:title="Returns the current zoom level.">
<polygon fill="white" stroke="black" points="397,-0.5 397,-19.5 536,-19.5 536,-0.5 397,-0.5"/>
<text text-anchor="middle" x="466.5" y="-7.5" font-family="Helvetica,sans-Serif" font-size="10.00">ViewController::getZoom</text>
</a>
</g>
</g>
<!-- Node3&#45;&gt;Node4 -->
<g id="edge3" class="edge">
<title>Node3&#45;&gt;Node4</title>
<path fill="none" stroke="midnightblue" d="M361.05,-10C369.57,-10 378.19,-10 386.65,-10"/>
<polygon fill="midnightblue" stroke="midnightblue" points="386.86,-13.5 396.86,-10 386.86,-6.5 386.86,-13.5"/>
</g>
</g>
</svg>
