<?xml version="1.0" encoding="UTF-8" standalone="no"?>
<!DOCTYPE svg PUBLIC "-//W3C//DTD SVG 1.1//EN"
 "http://www.w3.org/Graphics/SVG/1.1/DTD/svg11.dtd">
<!-- Generated by graphviz version 2.43.0 (0)
 -->
<!-- Title: ViewController::getHoveredCell Pages: 1 -->
<svg width="434pt" height="66pt"
 viewBox="0.00 0.00 434.00 66.00" xmlns="http://www.w3.org/2000/svg" xmlns:xlink="http://www.w3.org/1999/xlink">
<g id="graph0" class="graph" transform="scale(1 1) rotate(0) translate(4 62)">
<title>ViewController::getHoveredCell</title>
<polygon fill="white" stroke="transparent" points="-4,4 -4,-62 430,-62 430,4 -4,4"/>
<!-- Node1 -->
<g id="node1" class="node">
<title>Node1</title>
<g id="a_node1"><a xlink:title="Returns the grid cell index hovered by the mouse.">
<polygon fill="#bfbfbf" stroke="black" points="256,-19.5 256,-38.5 426,-38.5 426,-19.5 256,-19.5"/>
<text text-anchor="middle" x="341" y="-26.5" font-family="Helvetica,sans-Serif" font-size="10.00">ViewController::getHoveredCell</text>
</a>
</g>
</g>
<!-- Node2 -->
<g id="node2" class="node">
<title>Node2</title>
<g id="a_node2"><a xlink:href="classMapViewer.html#abcde24a9cc11f7e9ea3e6ef0d7ed6063" target="_top" xlink:title="Handles input events (mouse and keyboard)">
<polygon fill="white" stroke="black" points="77,-38.5 77,-57.5 220,-57.5 220,-38.5 77,-38.5"/>
<text text-anchor="middle" x="148.5" y="-45.5" font-family="Helvetica,sans-Serif" font-size="10.00">MapViewer::processEvent</text>
</a>
</g>
</g>
<!-- Node1&#45;&gt;Node2 -->
<g id="edge1" class="edge">
<title>Node1&#45;&gt;Node2</title>
<path fill="none" stroke="midnightblue" d="M245.76,-38.4C237.11,-39.26 228.45,-40.13 220.06,-40.96"/>
<polygon fill="midnightblue" stroke="midnightblue" points="246.29,-41.86 255.89,-37.39 245.59,-34.9 246.29,-41.86"/>
</g>
<!-- Node4 -->
<g id="node4" class="node">
<title>Node4</title>
<g id="a_node4"><a xlink:href="classMapViewer.html#a323a6ee85f1257b6e7c758ebf3d694bd" target="_top" xlink:title="Manages logic updates and user interaction.">
<polygon fill="white" stroke="black" points="93,-0.5 93,-19.5 204,-19.5 204,-0.5 93,-0.5"/>
<text text-anchor="middle" x="148.5" y="-7.5" font-family="Helvetica,sans-Serif" font-size="10.00">MapViewer::update</text>
</a>
</g>
</g>
<!-- Node1&#45;&gt;Node4 -->
<g id="edge3" class="edge">
<title>Node1&#45;&gt;Node4</title>
<path fill="none" stroke="midnightblue" d="M245.57,-19.58C231.37,-18.17 217.14,-16.75 204.15,-15.45"/>
<polygon fill="midnightblue" stroke="midnightblue" points="245.59,-23.1 255.89,-20.61 246.29,-16.14 245.59,-23.1"/>
</g>
<!-- Node3 -->
<g id="node3" class="node">
<title>Node3</title>
<g id="a_node3"><a xlink:href="main_8cpp.html#a3c04138a5bfe5d72780bb7e82a18e627" target="_top" xlink:title="Main entry point for the ARTG SLAM visualization node.">
<polygon fill="white" stroke="black" points="0,-19.5 0,-38.5 41,-38.5 41,-19.5 0,-19.5"/>
<text text-anchor="middle" x="20.5" y="-26.5" font-family="Helvetica,sans-Serif" font-size="10.00">main</text>
</a>
</g>
</g>
<!-- Node2&#45;&gt;Node3 -->
<g id="edge2" class="edge">
<title>Node2&#45;&gt;Node3</title>
<path fill="none" stroke="midnightblue" d="M73.88,-36.9C61.78,-35.07 50.22,-33.33 41.05,-31.95"/>
<polygon fill="midnightblue" stroke="midnightblue" points="73.72,-40.41 84.13,-38.44 74.76,-33.49 73.72,-40.41"/>
</g>
<!-- Node4&#45;&gt;Node3 -->
<g id="edge4" class="edge">
<title>Node4&#45;&gt;Node3</title>
<path fill="none" stroke="midnightblue" d="M82.94,-19.73C67.66,-22.04 52.49,-24.33 41.05,-26.05"/>
<polygon fill="midnightblue" stroke="midnightblue" points="83.6,-23.18 92.97,-18.22 82.56,-16.25 83.6,-23.18"/>
</g>
</g>
</svg>
