<?xml version="1.0" encoding="UTF-8" standalone="no"?>
<!DOCTYPE svg PUBLIC "-//W3C//DTD SVG 1.1//EN"
 "http://www.w3.org/Graphics/SVG/1.1/DTD/svg11.dtd">
<!-- Generated by graphviz version 2.43.0 (0)
 -->
<!-- Title: AStar::step Pages: 1 -->
<svg width="376pt" height="180pt"
 viewBox="0.00 0.00 376.00 180.00" xmlns="http://www.w3.org/2000/svg" xmlns:xlink="http://www.w3.org/1999/xlink">
<g id="graph0" class="graph" transform="scale(1 1) rotate(0) translate(4 176)">
<title>AStar::step</title>
<polygon fill="white" stroke="transparent" points="-4,4 -4,-176 372,-176 372,4 -4,4"/>
<!-- Node1 -->
<g id="node1" class="node">
<title>Node1</title>
<g id="a_node1"><a xlink:title="Performs one step of the A* algorithm.">
<polygon fill="#bfbfbf" stroke="black" points="0,-76.5 0,-95.5 70,-95.5 70,-76.5 0,-76.5"/>
<text text-anchor="middle" x="35" y="-83.5" font-family="Helvetica,sans-Serif" font-size="10.00">AStar::step</text>
</a>
</g>
</g>
<!-- Node2 -->
<g id="node2" class="node">
<title>Node2</title>
<g id="a_node2"><a xlink:href="classNode.html#ad4e8dcafa398a8613bc3ed8681f31933" target="_top" xlink:title="Returns the total estimated cost (f&#45;cost) of the node: f = g + h.">
<polygon fill="white" stroke="black" points="131.5,-152.5 131.5,-171.5 205.5,-171.5 205.5,-152.5 131.5,-152.5"/>
<text text-anchor="middle" x="168.5" y="-159.5" font-family="Helvetica,sans-Serif" font-size="10.00">Node::fCost</text>
</a>
</g>
</g>
<!-- Node1&#45;&gt;Node2 -->
<g id="edge1" class="edge">
<title>Node1&#45;&gt;Node2</title>
<path fill="none" stroke="midnightblue" d="M45.55,-95.84C58.26,-108.42 81.96,-130.13 106,-143 110.93,-145.64 116.27,-147.97 121.69,-150.01"/>
<polygon fill="midnightblue" stroke="midnightblue" points="120.85,-153.42 131.44,-153.39 123.14,-146.81 120.85,-153.42"/>
</g>
<!-- Node3 -->
<g id="node3" class="node">
<title>Node3</title>
<g id="a_node3"><a xlink:href="classAStar.html#ad334648b94a68f85318faee06bdad851" target="_top" xlink:title="Returns the valid neighbor cells of a given node.">
<polygon fill="white" stroke="black" points="111.5,-114.5 111.5,-133.5 225.5,-133.5 225.5,-114.5 111.5,-114.5"/>
<text text-anchor="middle" x="168.5" y="-121.5" font-family="Helvetica,sans-Serif" font-size="10.00">AStar::getNeighbors</text>
</a>
</g>
</g>
<!-- Node1&#45;&gt;Node3 -->
<g id="edge2" class="edge">
<title>Node1&#45;&gt;Node3</title>
<path fill="none" stroke="midnightblue" d="M69.18,-95.59C86,-100.45 106.63,-106.41 124.63,-111.61"/>
<polygon fill="midnightblue" stroke="midnightblue" points="123.75,-115 134.33,-114.41 125.69,-108.28 123.75,-115"/>
</g>
<!-- Node5 -->
<g id="node5" class="node">
<title>Node5</title>
<g id="a_node5"><a xlink:href="classGridMap.html#a22d7a74bbf3b6a4663860f76e9cd4019" target="_top" xlink:title="Query cell status.">
<polygon fill="white" stroke="black" points="110,-76.5 110,-95.5 227,-95.5 227,-76.5 110,-76.5"/>
<text text-anchor="middle" x="168.5" y="-83.5" font-family="Helvetica,sans-Serif" font-size="10.00">GridMap::isOccupied</text>
</a>
</g>
</g>
<!-- Node1&#45;&gt;Node5 -->
<g id="edge4" class="edge">
<title>Node1&#45;&gt;Node5</title>
<path fill="none" stroke="midnightblue" d="M70.21,-86C79.28,-86 89.41,-86 99.6,-86"/>
<polygon fill="midnightblue" stroke="midnightblue" points="99.78,-89.5 109.78,-86 99.78,-82.5 99.78,-89.5"/>
</g>
<!-- Node6 -->
<g id="node6" class="node">
<title>Node6</title>
<g id="a_node6"><a xlink:href="classAStar.html#aa9a1a3a53f000075f201cf6373e8c912" target="_top" xlink:title="Octile distance heuristic (better suited for 8&#45;connected grids).">
<polygon fill="white" stroke="black" points="109,-38.5 109,-57.5 228,-57.5 228,-38.5 109,-38.5"/>
<text text-anchor="middle" x="168.5" y="-45.5" font-family="Helvetica,sans-Serif" font-size="10.00">AStar::octileHeuristic</text>
</a>
</g>
</g>
<!-- Node1&#45;&gt;Node6 -->
<g id="edge5" class="edge">
<title>Node1&#45;&gt;Node6</title>
<path fill="none" stroke="midnightblue" d="M69.18,-76.41C86,-71.55 106.63,-65.59 124.63,-60.39"/>
<polygon fill="midnightblue" stroke="midnightblue" points="125.69,-63.72 134.33,-57.59 123.75,-57 125.69,-63.72"/>
</g>
<!-- Node7 -->
<g id="node7" class="node">
<title>Node7</title>
<g id="a_node7"><a xlink:href="classAStar.html#afbd7e300de5b7e171633d4be1982ce07" target="_top" xlink:title="Reconstructs the final path from the goal node by tracing the parent map.">
<polygon fill="white" stroke="black" points="106,-0.5 106,-19.5 231,-19.5 231,-0.5 106,-0.5"/>
<text text-anchor="middle" x="168.5" y="-7.5" font-family="Helvetica,sans-Serif" font-size="10.00">AStar::reconstructPath</text>
</a>
</g>
</g>
<!-- Node1&#45;&gt;Node7 -->
<g id="edge6" class="edge">
<title>Node1&#45;&gt;Node7</title>
<path fill="none" stroke="midnightblue" d="M45.55,-76.16C58.26,-63.58 81.96,-41.87 106,-29 110.04,-26.84 114.37,-24.88 118.79,-23.11"/>
<polygon fill="midnightblue" stroke="midnightblue" points="120.33,-26.28 128.53,-19.56 117.93,-19.7 120.33,-26.28"/>
</g>
<!-- Node4 -->
<g id="node4" class="node">
<title>Node4</title>
<g id="a_node4"><a xlink:href="classAStar.html#a07010836e7ee9f2b37854031b872cc52" target="_top" xlink:title="Checks if the given cell coordinates are within the grid bounds.">
<polygon fill="white" stroke="black" points="267,-114.5 267,-133.5 368,-133.5 368,-114.5 267,-114.5"/>
<text text-anchor="middle" x="317.5" y="-121.5" font-family="Helvetica,sans-Serif" font-size="10.00">AStar::isValidCell</text>
</a>
</g>
</g>
<!-- Node3&#45;&gt;Node4 -->
<g id="edge3" class="edge">
<title>Node3&#45;&gt;Node4</title>
<path fill="none" stroke="midnightblue" d="M225.91,-124C235.99,-124 246.53,-124 256.7,-124"/>
<polygon fill="midnightblue" stroke="midnightblue" points="256.72,-127.5 266.72,-124 256.72,-120.5 256.72,-127.5"/>
</g>
</g>
</svg>
