<?xml version="1.0" encoding="UTF-8" standalone="no"?>
<!DOCTYPE svg PUBLIC "-//W3C//DTD SVG 1.1//EN"
 "http://www.w3.org/Graphics/SVG/1.1/DTD/svg11.dtd">
<!-- Generated by graphviz version 2.43.0 (0)
 -->
<!-- Title: GridMap::xy2Grid Pages: 1 -->
<svg width="448pt" height="28pt"
 viewBox="0.00 0.00 448.00 28.00" xmlns="http://www.w3.org/2000/svg" xmlns:xlink="http://www.w3.org/1999/xlink">
<g id="graph0" class="graph" transform="scale(1 1) rotate(0) translate(4 24)">
<title>GridMap::xy2Grid</title>
<polygon fill="white" stroke="transparent" points="-4,4 -4,-24 444,-24 444,4 -4,4"/>
<!-- Node1 -->
<g id="node1" class="node">
<title>Node1</title>
<g id="a_node1"><a xlink:title="Convert real&#45;world coordinates to grid indices.">
<polygon fill="#bfbfbf" stroke="black" points="338,-0.5 338,-19.5 440,-19.5 440,-0.5 338,-0.5"/>
<text text-anchor="middle" x="389" y="-7.5" font-family="Helvetica,sans-Serif" font-size="10.00">GridMap::xy2Grid</text>
</a>
</g>
</g>
<!-- Node2 -->
<g id="node2" class="node">
<title>Node2</title>
<g id="a_node2"><a xlink:href="classFileManager.html#ae8a61fd55c9a1b8ac7804420015f3385" target="_top" xlink:title="Opens a file dialog to select a file and loads its data into the map.">
<polygon fill="white" stroke="black" points="168,-0.5 168,-19.5 302,-19.5 302,-0.5 168,-0.5"/>
<text text-anchor="middle" x="235" y="-7.5" font-family="Helvetica,sans-Serif" font-size="10.00">FileManager::loadDialog</text>
</a>
</g>
</g>
<!-- Node1&#45;&gt;Node2 -->
<g id="edge1" class="edge">
<title>Node1&#45;&gt;Node2</title>
<path fill="none" stroke="midnightblue" d="M327.72,-10C319.31,-10 310.64,-10 302.13,-10"/>
<polygon fill="midnightblue" stroke="midnightblue" points="327.81,-13.5 337.81,-10 327.81,-6.5 327.81,-13.5"/>
</g>
<!-- Node3 -->
<g id="node3" class="node">
<title>Node3</title>
<g id="a_node3"><a xlink:href="classMapViewer.html#a6690a879cd4af2058afccd2920c03c0d" target="_top" xlink:title="Constructor.">
<polygon fill="white" stroke="black" points="0,-0.5 0,-19.5 132,-19.5 132,-0.5 0,-0.5"/>
<text text-anchor="middle" x="66" y="-7.5" font-family="Helvetica,sans-Serif" font-size="10.00">MapViewer::MapViewer</text>
</a>
</g>
</g>
<!-- Node2&#45;&gt;Node3 -->
<g id="edge2" class="edge">
<title>Node2&#45;&gt;Node3</title>
<path fill="none" stroke="midnightblue" d="M157.98,-10C149.39,-10 140.69,-10 132.25,-10"/>
<polygon fill="midnightblue" stroke="midnightblue" points="158,-13.5 168,-10 158,-6.5 158,-13.5"/>
</g>
</g>
</svg>
