<?xml version="1.0" encoding="UTF-8" standalone="no"?>
<!DOCTYPE svg PUBLIC "-//W3C//DTD SVG 1.1//EN"
 "http://www.w3.org/Graphics/SVG/1.1/DTD/svg11.dtd">
<!-- Generated by graphviz version 2.43.0 (0)
 -->
<!-- Title: RosHandler::getMemoryUsageKB Pages: 1 -->
<svg width="549pt" height="39pt"
 viewBox="0.00 0.00 549.00 39.00" xmlns="http://www.w3.org/2000/svg" xmlns:xlink="http://www.w3.org/1999/xlink">
<g id="graph0" class="graph" transform="scale(1 1) rotate(0) translate(4 35)">
<title>RosHandler::getMemoryUsageKB</title>
<polygon fill="white" stroke="transparent" points="-4,4 -4,-35 545,-35 545,4 -4,4"/>
<!-- Node1 -->
<g id="node1" class="node">
<title>Node1</title>
<g id="a_node1"><a xlink:title="Reads current RAM usage of the process in KB.">
<polygon fill="#bfbfbf" stroke="black" points="362,-6 362,-25 541,-25 541,-6 362,-6"/>
<text text-anchor="middle" x="451.5" y="-13" font-family="Helvetica,sans-Serif" font-size="10.00">RosHandler::getMemoryUsageKB</text>
</a>
</g>
</g>
<!-- Node2 -->
<g id="node2" class="node">
<title>Node2</title>
<g id="a_node2"><a xlink:href="classRosHandler.html#aaf98b42cceb1fcadd1640be227bb5fff" target="_top" xlink:title="Periodically publishes the RAM usage to a ROS topic.">
<polygon fill="white" stroke="black" points="171,-0.5 171,-30.5 326,-30.5 326,-0.5 171,-0.5"/>
<text text-anchor="start" x="179" y="-18.5" font-family="Helvetica,sans-Serif" font-size="10.00">RosHandler::publishMemory</text>
<text text-anchor="middle" x="248.5" y="-7.5" font-family="Helvetica,sans-Serif" font-size="10.00">Usage</text>
</a>
</g>
</g>
<!-- Node1&#45;&gt;Node2 -->
<g id="edge1" class="edge">
<title>Node1&#45;&gt;Node2</title>
<path fill="none" stroke="midnightblue" d="M351.69,-15.5C343.1,-15.5 334.49,-15.5 326.11,-15.5"/>
<polygon fill="midnightblue" stroke="midnightblue" points="351.75,-19 361.75,-15.5 351.75,-12 351.75,-19"/>
</g>
<!-- Node3 -->
<g id="node3" class="node">
<title>Node3</title>
<g id="a_node3"><a xlink:href="classRosHandler.html#a089ecb67061d919cd5b09bd75f608b42" target="_top" xlink:title="Constructor.">
<polygon fill="white" stroke="black" points="0,-6 0,-25 135,-25 135,-6 0,-6"/>
<text text-anchor="middle" x="67.5" y="-13" font-family="Helvetica,sans-Serif" font-size="10.00">RosHandler::RosHandler</text>
</a>
</g>
</g>
<!-- Node2&#45;&gt;Node3 -->
<g id="edge2" class="edge">
<title>Node2&#45;&gt;Node3</title>
<path fill="none" stroke="midnightblue" d="M160.75,-15.5C152.15,-15.5 143.51,-15.5 135.16,-15.5"/>
<polygon fill="midnightblue" stroke="midnightblue" points="160.81,-19 170.81,-15.5 160.81,-12 160.81,-19"/>
</g>
</g>
</svg>
