<?xml version="1.0" encoding="UTF-8" standalone="no"?>
<!DOCTYPE svg PUBLIC "-//W3C//DTD SVG 1.1//EN"
 "http://www.w3.org/Graphics/SVG/1.1/DTD/svg11.dtd">
<!-- Generated by graphviz version 2.43.0 (0)
 -->
<!-- Title: RobotCreator::isValidHexColor Pages: 1 -->
<svg width="533pt" height="39pt"
 viewBox="0.00 0.00 533.00 39.00" xmlns="http://www.w3.org/2000/svg" xmlns:xlink="http://www.w3.org/1999/xlink">
<g id="graph0" class="graph" transform="scale(1 1) rotate(0) translate(4 35)">
<title>RobotCreator::isValidHexColor</title>
<polygon fill="white" stroke="transparent" points="-4,4 -4,-35 529,-35 529,4 -4,4"/>
<!-- Node1 -->
<g id="node1" class="node">
<title>Node1</title>
<g id="a_node1"><a xlink:title="Helper function to validate if a string is a valid hexadecimal color code.">
<polygon fill="#bfbfbf" stroke="black" points="385,-0.5 385,-30.5 525,-30.5 525,-0.5 385,-0.5"/>
<text text-anchor="start" x="393" y="-18.5" font-family="Helvetica,sans-Serif" font-size="10.00">RobotCreator::isValidHex</text>
<text text-anchor="middle" x="455" y="-7.5" font-family="Helvetica,sans-Serif" font-size="10.00">Color</text>
</a>
</g>
</g>
<!-- Node2 -->
<g id="node2" class="node">
<title>Node2</title>
<g id="a_node2"><a xlink:href="classRobotCreator.html#a22c9b7970700b0c482682aa4db5c13bd" target="_top" xlink:title="Connects callbacks for button presses and other GUI events.">
<polygon fill="white" stroke="black" points="188,-6 188,-25 349,-25 349,-6 188,-6"/>
<text text-anchor="middle" x="268.5" y="-13" font-family="Helvetica,sans-Serif" font-size="10.00">RobotCreator::setupCallbacks</text>
</a>
</g>
</g>
<!-- Node1&#45;&gt;Node2 -->
<g id="edge1" class="edge">
<title>Node1&#45;&gt;Node2</title>
<path fill="none" stroke="midnightblue" d="M374.55,-15.5C366.1,-15.5 357.5,-15.5 349.04,-15.5"/>
<polygon fill="midnightblue" stroke="midnightblue" points="374.77,-19 384.77,-15.5 374.77,-12 374.77,-19"/>
</g>
<!-- Node3 -->
<g id="node3" class="node">
<title>Node3</title>
<g id="a_node3"><a xlink:href="classRobotCreator.html#a1a9bc9afc3c2e9aa6ca3555a11b99846" target="_top" xlink:title="Explicit constructor that requires a reference to the UnicicleWmr instance to configure.">
<polygon fill="white" stroke="black" points="0,-6 0,-25 152,-25 152,-6 0,-6"/>
<text text-anchor="middle" x="76" y="-13" font-family="Helvetica,sans-Serif" font-size="10.00">RobotCreator::RobotCreator</text>
</a>
</g>
</g>
<!-- Node2&#45;&gt;Node3 -->
<g id="edge2" class="edge">
<title>Node2&#45;&gt;Node3</title>
<path fill="none" stroke="midnightblue" d="M177.77,-15.5C169.18,-15.5 160.53,-15.5 152.1,-15.5"/>
<polygon fill="midnightblue" stroke="midnightblue" points="177.81,-19 187.81,-15.5 177.81,-12 177.81,-19"/>
</g>
</g>
</svg>
