<?xml version="1.0" encoding="UTF-8" standalone="no"?>
<!DOCTYPE svg PUBLIC "-//W3C//DTD SVG 1.1//EN"
 "http://www.w3.org/Graphics/SVG/1.1/DTD/svg11.dtd">
<!-- Generated by graphviz version 2.43.0 (0)
 -->
<!-- Title: LiveMap::drawLiveMap Pages: 1 -->
<svg width="317pt" height="127pt"
 viewBox="0.00 0.00 317.00 126.50" xmlns="http://www.w3.org/2000/svg" xmlns:xlink="http://www.w3.org/1999/xlink">
<g id="graph0" class="graph" transform="scale(1 1) rotate(0) translate(4 122.5)">
<title>LiveMap::drawLiveMap</title>
<polygon fill="white" stroke="transparent" points="-4,4 -4,-122.5 313,-122.5 313,4 -4,4"/>
<!-- Node1 -->
<g id="node1" class="node">
<title>Node1</title>
<g id="a_node1"><a xlink:title="Draws the live grid using the ViewController.">
<polygon fill="#bfbfbf" stroke="black" points="0,-44.5 0,-63.5 129,-63.5 129,-44.5 0,-44.5"/>
<text text-anchor="middle" x="64.5" y="-51.5" font-family="Helvetica,sans-Serif" font-size="10.00">LiveMap::drawLiveMap</text>
</a>
</g>
</g>
<!-- Node2 -->
<g id="node2" class="node">
<title>Node2</title>
<g id="a_node2"><a xlink:href="classViewController.html#ae16abf87a7514af7eda581ac04d23ec3" target="_top" xlink:title="Returns the size of each grid cell in meters.">
<polygon fill="white" stroke="black" points="165,-88 165,-118 309,-118 309,-88 165,-88"/>
<text text-anchor="start" x="173" y="-106" font-family="Helvetica,sans-Serif" font-size="10.00">ViewController::getMeters</text>
<text text-anchor="middle" x="237" y="-95" font-family="Helvetica,sans-Serif" font-size="10.00">PerCell</text>
</a>
</g>
</g>
<!-- Node1&#45;&gt;Node2 -->
<g id="edge1" class="edge">
<title>Node1&#45;&gt;Node2</title>
<path fill="none" stroke="midnightblue" d="M98.78,-63.56C120.08,-69.69 148.39,-77.82 173.75,-85.11"/>
<polygon fill="midnightblue" stroke="midnightblue" points="173.1,-88.56 183.68,-87.96 175.03,-81.84 173.1,-88.56"/>
</g>
<!-- Node3 -->
<g id="node3" class="node">
<title>Node3</title>
<g id="a_node3"><a xlink:href="classViewController.html#a4371bcfa79ff09f98c5f49914e2a854d" target="_top" xlink:title="Returns the pixels per meter scale factor.">
<polygon fill="white" stroke="black" points="167,-39 167,-69 307,-69 307,-39 167,-39"/>
<text text-anchor="start" x="175" y="-57" font-family="Helvetica,sans-Serif" font-size="10.00">ViewController::getPixels</text>
<text text-anchor="middle" x="237" y="-46" font-family="Helvetica,sans-Serif" font-size="10.00">PerMeter</text>
</a>
</g>
</g>
<!-- Node1&#45;&gt;Node3 -->
<g id="edge2" class="edge">
<title>Node1&#45;&gt;Node3</title>
<path fill="none" stroke="midnightblue" d="M129.47,-54C138.33,-54 147.51,-54 156.61,-54"/>
<polygon fill="midnightblue" stroke="midnightblue" points="156.82,-57.5 166.82,-54 156.82,-50.5 156.82,-57.5"/>
</g>
<!-- Node4 -->
<g id="node4" class="node">
<title>Node4</title>
<g id="a_node4"><a xlink:href="classViewController.html#ab3b39d154cf93e5eec28d2bbdead91e4" target="_top" xlink:title="Returns the current zoom level.">
<polygon fill="white" stroke="black" points="167.5,-0.5 167.5,-19.5 306.5,-19.5 306.5,-0.5 167.5,-0.5"/>
<text text-anchor="middle" x="237" y="-7.5" font-family="Helvetica,sans-Serif" font-size="10.00">ViewController::getZoom</text>
</a>
</g>
</g>
<!-- Node1&#45;&gt;Node4 -->
<g id="edge3" class="edge">
<title>Node1&#45;&gt;Node4</title>
<path fill="none" stroke="midnightblue" d="M102.5,-44.45C127.97,-37.88 162.01,-29.1 189.34,-22.04"/>
<polygon fill="midnightblue" stroke="midnightblue" points="190.27,-25.42 199.08,-19.53 188.52,-18.64 190.27,-25.42"/>
</g>
</g>
</svg>
