<?xml version="1.0" encoding="UTF-8" standalone="no"?>
<!DOCTYPE svg PUBLIC "-//W3C//DTD SVG 1.1//EN"
 "http://www.w3.org/Graphics/SVG/1.1/DTD/svg11.dtd">
<!-- Generated by graphviz version 2.43.0 (0)
 -->
<!-- Title: AStar::findPath Pages: 1 -->
<svg width="502pt" height="180pt"
 viewBox="0.00 0.00 502.00 180.00" xmlns="http://www.w3.org/2000/svg" xmlns:xlink="http://www.w3.org/1999/xlink">
<g id="graph0" class="graph" transform="scale(1 1) rotate(0) translate(4 176)">
<title>AStar::findPath</title>
<polygon fill="white" stroke="transparent" points="-4,4 -4,-176 498,-176 498,4 -4,4"/>
<!-- Node1 -->
<g id="node1" class="node">
<title>Node1</title>
<g id="a_node1"><a xlink:title="Executes the full A* algorithm from start to goal in one call.">
<polygon fill="#bfbfbf" stroke="black" points="0,-114.5 0,-133.5 89,-133.5 89,-114.5 0,-114.5"/>
<text text-anchor="middle" x="44.5" y="-121.5" font-family="Helvetica,sans-Serif" font-size="10.00">AStar::findPath</text>
</a>
</g>
</g>
<!-- Node2 -->
<g id="node2" class="node">
<title>Node2</title>
<g id="a_node2"><a xlink:href="classAStar.html#afbd7e300de5b7e171633d4be1982ce07" target="_top" xlink:title="Reconstructs the final path from the goal node by tracing the parent map.">
<polygon fill="white" stroke="black" points="232,-152.5 232,-171.5 357,-171.5 357,-152.5 232,-152.5"/>
<text text-anchor="middle" x="294.5" y="-159.5" font-family="Helvetica,sans-Serif" font-size="10.00">AStar::reconstructPath</text>
</a>
</g>
</g>
<!-- Node1&#45;&gt;Node2 -->
<g id="edge1" class="edge">
<title>Node1&#45;&gt;Node2</title>
<path fill="none" stroke="midnightblue" d="M81.32,-133.54C94.92,-136.91 110.6,-140.48 125,-143 156.52,-148.52 191.66,-152.78 221.65,-155.85"/>
<polygon fill="midnightblue" stroke="midnightblue" points="221.32,-159.34 231.62,-156.85 222.02,-152.37 221.32,-159.34"/>
</g>
<!-- Node3 -->
<g id="node3" class="node">
<title>Node3</title>
<g id="a_node3"><a xlink:href="classAStar.html#addce30fb4dd4735c1e0275b93324b2cc" target="_top" xlink:title="Initializes the A* algorithm.">
<polygon fill="white" stroke="black" points="125,-114.5 125,-133.5 196,-133.5 196,-114.5 125,-114.5"/>
<text text-anchor="middle" x="160.5" y="-121.5" font-family="Helvetica,sans-Serif" font-size="10.00">AStar::start</text>
</a>
</g>
</g>
<!-- Node1&#45;&gt;Node3 -->
<g id="edge2" class="edge">
<title>Node1&#45;&gt;Node3</title>
<path fill="none" stroke="midnightblue" d="M89.25,-124C97.64,-124 106.44,-124 114.86,-124"/>
<polygon fill="midnightblue" stroke="midnightblue" points="114.89,-127.5 124.89,-124 114.89,-120.5 114.89,-127.5"/>
</g>
<!-- Node5 -->
<g id="node5" class="node">
<title>Node5</title>
<g id="a_node5"><a xlink:href="classAStar.html#a0c3d34d32a97828112f6ee453e75121b" target="_top" xlink:title="Performs one step of the A* algorithm.">
<polygon fill="white" stroke="black" points="125.5,-76.5 125.5,-95.5 195.5,-95.5 195.5,-76.5 125.5,-76.5"/>
<text text-anchor="middle" x="160.5" y="-83.5" font-family="Helvetica,sans-Serif" font-size="10.00">AStar::step</text>
</a>
</g>
</g>
<!-- Node1&#45;&gt;Node5 -->
<g id="edge4" class="edge">
<title>Node1&#45;&gt;Node5</title>
<path fill="none" stroke="midnightblue" d="M74.27,-114.41C88.44,-109.69 105.74,-103.92 121.03,-98.82"/>
<polygon fill="midnightblue" stroke="midnightblue" points="122.36,-102.07 130.74,-95.59 120.15,-95.43 122.36,-102.07"/>
</g>
<!-- Node4 -->
<g id="node4" class="node">
<title>Node4</title>
<g id="a_node4"><a xlink:href="classAStar.html#aa9a1a3a53f000075f201cf6373e8c912" target="_top" xlink:title="Octile distance heuristic (better suited for 8&#45;connected grids).">
<polygon fill="white" stroke="black" points="235,-114.5 235,-133.5 354,-133.5 354,-114.5 235,-114.5"/>
<text text-anchor="middle" x="294.5" y="-121.5" font-family="Helvetica,sans-Serif" font-size="10.00">AStar::octileHeuristic</text>
</a>
</g>
</g>
<!-- Node3&#45;&gt;Node4 -->
<g id="edge3" class="edge">
<title>Node3&#45;&gt;Node4</title>
<path fill="none" stroke="midnightblue" d="M196.18,-124C204.97,-124 214.72,-124 224.56,-124"/>
<polygon fill="midnightblue" stroke="midnightblue" points="224.81,-127.5 234.81,-124 224.81,-120.5 224.81,-127.5"/>
</g>
<!-- Node5&#45;&gt;Node2 -->
<g id="edge10" class="edge">
<title>Node5&#45;&gt;Node2</title>
<path fill="none" stroke="midnightblue" d="M181.5,-95.65C186.43,-98.39 191.56,-101.57 196,-105 214.41,-119.23 212.24,-130.72 232,-143 235.37,-145.1 239,-146.98 242.73,-148.66"/>
<polygon fill="midnightblue" stroke="midnightblue" points="241.6,-151.98 252.18,-152.46 244.21,-145.48 241.6,-151.98"/>
</g>
<!-- Node5&#45;&gt;Node4 -->
<g id="edge9" class="edge">
<title>Node5&#45;&gt;Node4</title>
<path fill="none" stroke="midnightblue" d="M194.81,-95.59C211.69,-100.45 232.39,-106.41 250.47,-111.61"/>
<polygon fill="midnightblue" stroke="midnightblue" points="249.62,-115.01 260.2,-114.41 251.56,-108.28 249.62,-115.01"/>
</g>
<!-- Node6 -->
<g id="node6" class="node">
<title>Node6</title>
<g id="a_node6"><a xlink:href="classNode.html#ad4e8dcafa398a8613bc3ed8681f31933" target="_top" xlink:title="Returns the total estimated cost (f&#45;cost) of the node: f = g + h.">
<polygon fill="white" stroke="black" points="257.5,-76.5 257.5,-95.5 331.5,-95.5 331.5,-76.5 257.5,-76.5"/>
<text text-anchor="middle" x="294.5" y="-83.5" font-family="Helvetica,sans-Serif" font-size="10.00">Node::fCost</text>
</a>
</g>
</g>
<!-- Node5&#45;&gt;Node6 -->
<g id="edge5" class="edge">
<title>Node5&#45;&gt;Node6</title>
<path fill="none" stroke="midnightblue" d="M195.84,-86C211.53,-86 230.34,-86 247.25,-86"/>
<polygon fill="midnightblue" stroke="midnightblue" points="247.49,-89.5 257.49,-86 247.49,-82.5 247.49,-89.5"/>
</g>
<!-- Node7 -->
<g id="node7" class="node">
<title>Node7</title>
<g id="a_node7"><a xlink:href="classAStar.html#ad334648b94a68f85318faee06bdad851" target="_top" xlink:title="Returns the valid neighbor cells of a given node.">
<polygon fill="white" stroke="black" points="237.5,-38.5 237.5,-57.5 351.5,-57.5 351.5,-38.5 237.5,-38.5"/>
<text text-anchor="middle" x="294.5" y="-45.5" font-family="Helvetica,sans-Serif" font-size="10.00">AStar::getNeighbors</text>
</a>
</g>
</g>
<!-- Node5&#45;&gt;Node7 -->
<g id="edge6" class="edge">
<title>Node5&#45;&gt;Node7</title>
<path fill="none" stroke="midnightblue" d="M194.81,-76.41C211.69,-71.55 232.39,-65.59 250.47,-60.39"/>
<polygon fill="midnightblue" stroke="midnightblue" points="251.56,-63.72 260.2,-57.59 249.62,-56.99 251.56,-63.72"/>
</g>
<!-- Node9 -->
<g id="node9" class="node">
<title>Node9</title>
<g id="a_node9"><a xlink:href="classGridMap.html#a22d7a74bbf3b6a4663860f76e9cd4019" target="_top" xlink:title="Query cell status.">
<polygon fill="white" stroke="black" points="236,-0.5 236,-19.5 353,-19.5 353,-0.5 236,-0.5"/>
<text text-anchor="middle" x="294.5" y="-7.5" font-family="Helvetica,sans-Serif" font-size="10.00">GridMap::isOccupied</text>
</a>
</g>
</g>
<!-- Node5&#45;&gt;Node9 -->
<g id="edge8" class="edge">
<title>Node5&#45;&gt;Node9</title>
<path fill="none" stroke="midnightblue" d="M171.13,-76.17C183.95,-63.59 207.83,-41.88 232,-29 236.05,-26.84 240.38,-24.89 244.8,-23.13"/>
<polygon fill="midnightblue" stroke="midnightblue" points="246.34,-26.29 254.54,-19.58 243.94,-19.71 246.34,-26.29"/>
</g>
<!-- Node8 -->
<g id="node8" class="node">
<title>Node8</title>
<g id="a_node8"><a xlink:href="classAStar.html#a07010836e7ee9f2b37854031b872cc52" target="_top" xlink:title="Checks if the given cell coordinates are within the grid bounds.">
<polygon fill="white" stroke="black" points="393,-38.5 393,-57.5 494,-57.5 494,-38.5 393,-38.5"/>
<text text-anchor="middle" x="443.5" y="-45.5" font-family="Helvetica,sans-Serif" font-size="10.00">AStar::isValidCell</text>
</a>
</g>
</g>
<!-- Node7&#45;&gt;Node8 -->
<g id="edge7" class="edge">
<title>Node7&#45;&gt;Node8</title>
<path fill="none" stroke="midnightblue" d="M351.91,-48C361.99,-48 372.53,-48 382.7,-48"/>
<polygon fill="midnightblue" stroke="midnightblue" points="382.72,-51.5 392.72,-48 382.72,-44.5 382.72,-51.5"/>
</g>
</g>
</svg>
