<?xml version="1.0" encoding="UTF-8" standalone="no"?>
<!DOCTYPE svg PUBLIC "-//W3C//DTD SVG 1.1//EN"
 "http://www.w3.org/Graphics/SVG/1.1/DTD/svg11.dtd">
<!-- Generated by graphviz version 2.43.0 (0)
 -->
<!-- Title: RightClickMapMenu::show Pages: 1 -->
<svg width="566pt" height="56pt"
 viewBox="0.00 0.00 566.00 55.50" xmlns="http://www.w3.org/2000/svg" xmlns:xlink="http://www.w3.org/1999/xlink">
<g id="graph0" class="graph" transform="scale(1 1) rotate(0) translate(4 51.5)">
<title>RightClickMapMenu::show</title>
<polygon fill="white" stroke="transparent" points="-4,4 -4,-51.5 562,-51.5 562,4 -4,4"/>
<!-- Node1 -->
<g id="node1" class="node">
<title>Node1</title>
<g id="a_node1"><a xlink:title="Displays the context menu at the given screen coordinates.">
<polygon fill="#bfbfbf" stroke="black" points="412,-28 412,-47 558,-47 558,-28 412,-28"/>
<text text-anchor="middle" x="485" y="-35" font-family="Helvetica,sans-Serif" font-size="10.00">RightClickMapMenu::show</text>
</a>
</g>
</g>
<!-- Node2 -->
<g id="node2" class="node">
<title>Node2</title>
<g id="a_node2"><a xlink:href="classMapViewer.html#abcde24a9cc11f7e9ea3e6ef0d7ed6063" target="_top" xlink:title="Handles input events (mouse and keyboard)">
<polygon fill="white" stroke="black" points="77,-28 77,-47 220,-47 220,-28 77,-28"/>
<text text-anchor="middle" x="148.5" y="-35" font-family="Helvetica,sans-Serif" font-size="10.00">MapViewer::processEvent</text>
</a>
</g>
</g>
<!-- Node1&#45;&gt;Node2 -->
<g id="edge1" class="edge">
<title>Node1&#45;&gt;Node2</title>
<path fill="none" stroke="midnightblue" d="M401.78,-40.02C393.08,-40.22 384.36,-40.38 376,-40.5 322.67,-41.24 309.33,-41.25 256,-40.5 244.44,-40.34 232.18,-40.08 220.24,-39.77"/>
<polygon fill="midnightblue" stroke="midnightblue" points="402.06,-43.52 411.97,-39.78 401.89,-36.52 402.06,-43.52"/>
</g>
<!-- Node4 -->
<g id="node4" class="node">
<title>Node4</title>
<g id="a_node4"><a xlink:href="classRightClickMapMenu.html#a6c027dd38cb5355f667fb8447abbca1f" target="_top" xlink:title="Sets the visibility state of the menu.">
<polygon fill="white" stroke="black" points="256,-0.5 256,-30.5 376,-30.5 376,-0.5 256,-0.5"/>
<text text-anchor="start" x="264" y="-18.5" font-family="Helvetica,sans-Serif" font-size="10.00">RightClickMapMenu::</text>
<text text-anchor="middle" x="316" y="-7.5" font-family="Helvetica,sans-Serif" font-size="10.00">setVisible</text>
</a>
</g>
</g>
<!-- Node1&#45;&gt;Node4 -->
<g id="edge3" class="edge">
<title>Node1&#45;&gt;Node4</title>
<path fill="none" stroke="midnightblue" d="M401.63,-26.65C393.01,-25.51 384.37,-24.38 376.08,-23.28"/>
<polygon fill="midnightblue" stroke="midnightblue" points="401.35,-30.14 411.72,-27.98 402.27,-23.2 401.35,-30.14"/>
</g>
<!-- Node3 -->
<g id="node3" class="node">
<title>Node3</title>
<g id="a_node3"><a xlink:href="main_8cpp.html#a3c04138a5bfe5d72780bb7e82a18e627" target="_top" xlink:title="Main entry point for the ARTG SLAM visualization node.">
<polygon fill="white" stroke="black" points="0,-28 0,-47 41,-47 41,-28 0,-28"/>
<text text-anchor="middle" x="20.5" y="-35" font-family="Helvetica,sans-Serif" font-size="10.00">main</text>
</a>
</g>
</g>
<!-- Node2&#45;&gt;Node3 -->
<g id="edge2" class="edge">
<title>Node2&#45;&gt;Node3</title>
<path fill="none" stroke="midnightblue" d="M66.74,-37.5C57.29,-37.5 48.42,-37.5 41.08,-37.5"/>
<polygon fill="midnightblue" stroke="midnightblue" points="66.77,-41 76.77,-37.5 66.77,-34 66.77,-41"/>
</g>
<!-- Node4&#45;&gt;Node2 -->
<g id="edge4" class="edge">
<title>Node4&#45;&gt;Node2</title>
<path fill="none" stroke="midnightblue" d="M245.6,-24.72C237.21,-25.84 228.64,-26.98 220.23,-28.1"/>
<polygon fill="midnightblue" stroke="midnightblue" points="246.27,-28.17 255.72,-23.38 245.34,-21.23 246.27,-28.17"/>
</g>
</g>
</svg>
