<?xml version="1.0" encoding="UTF-8" standalone="no"?>
<!DOCTYPE svg PUBLIC "-//W3C//DTD SVG 1.1//EN"
 "http://www.w3.org/Graphics/SVG/1.1/DTD/svg11.dtd">
<!-- Generated by graphviz version 2.43.0 (0)
 -->
<!-- Title: RobotCreator::setupCallbacks Pages: 1 -->
<svg width="364pt" height="230pt"
 viewBox="0.00 0.00 364.00 230.00" xmlns="http://www.w3.org/2000/svg" xmlns:xlink="http://www.w3.org/1999/xlink">
<g id="graph0" class="graph" transform="scale(1 1) rotate(0) translate(4 226)">
<title>RobotCreator::setupCallbacks</title>
<polygon fill="white" stroke="transparent" points="-4,4 -4,-226 360,-226 360,4 -4,4"/>
<!-- Node1 -->
<g id="node1" class="node">
<title>Node1</title>
<g id="a_node1"><a xlink:title="Connects callbacks for button presses and other GUI events.">
<polygon fill="#bfbfbf" stroke="black" points="0,-98.5 0,-117.5 161,-117.5 161,-98.5 0,-98.5"/>
<text text-anchor="middle" x="80.5" y="-105.5" font-family="Helvetica,sans-Serif" font-size="10.00">RobotCreator::setupCallbacks</text>
</a>
</g>
</g>
<!-- Node2 -->
<g id="node2" class="node">
<title>Node2</title>
<g id="a_node2"><a xlink:href="classRobotCreator.html#afbf5db42204804796c234a32d1a9e4bd" target="_top" xlink:title="Converts a hexadecimal color string to an SFML Color object.">
<polygon fill="white" stroke="black" points="206,-202.5 206,-221.5 347,-221.5 347,-202.5 206,-202.5"/>
<text text-anchor="middle" x="276.5" y="-209.5" font-family="Helvetica,sans-Serif" font-size="10.00">RobotCreator::hexToColor</text>
</a>
</g>
</g>
<!-- Node1&#45;&gt;Node2 -->
<g id="edge1" class="edge">
<title>Node1&#45;&gt;Node2</title>
<path fill="none" stroke="midnightblue" d="M91.72,-117.77C110.82,-135.49 153.89,-172.92 197,-193 202.29,-195.47 207.94,-197.63 213.69,-199.53"/>
<polygon fill="midnightblue" stroke="midnightblue" points="212.82,-202.93 223.41,-202.48 214.86,-196.23 212.82,-202.93"/>
</g>
<!-- Node3 -->
<g id="node3" class="node">
<title>Node3</title>
<g id="a_node3"><a xlink:href="classRobotCreator.html#a4b0809b3fe7dd98ecc52697273cb473c" target="_top" xlink:title="Helper function to check if a string represents a valid floating&#45;point number.">
<polygon fill="white" stroke="black" points="204,-164.5 204,-183.5 349,-183.5 349,-164.5 204,-164.5"/>
<text text-anchor="middle" x="276.5" y="-171.5" font-family="Helvetica,sans-Serif" font-size="10.00">RobotCreator::isValidFloat</text>
</a>
</g>
</g>
<!-- Node1&#45;&gt;Node3 -->
<g id="edge2" class="edge">
<title>Node1&#45;&gt;Node3</title>
<path fill="none" stroke="midnightblue" d="M102.44,-117.63C125.31,-127.88 163.21,-144.1 197,-155 204.78,-157.51 213.09,-159.86 221.28,-162"/>
<polygon fill="midnightblue" stroke="midnightblue" points="220.62,-165.44 231.17,-164.49 222.33,-158.65 220.62,-165.44"/>
</g>
<!-- Node4 -->
<g id="node4" class="node">
<title>Node4</title>
<g id="a_node4"><a xlink:href="classRobotCreator.html#aa5bdc5e505359a51e82ce26aa1a8de37" target="_top" xlink:title="Helper function to validate if a string is a valid hexadecimal color code.">
<polygon fill="white" stroke="black" points="206.5,-115 206.5,-145 346.5,-145 346.5,-115 206.5,-115"/>
<text text-anchor="start" x="214.5" y="-133" font-family="Helvetica,sans-Serif" font-size="10.00">RobotCreator::isValidHex</text>
<text text-anchor="middle" x="276.5" y="-122" font-family="Helvetica,sans-Serif" font-size="10.00">Color</text>
</a>
</g>
</g>
<!-- Node1&#45;&gt;Node4 -->
<g id="edge3" class="edge">
<title>Node1&#45;&gt;Node4</title>
<path fill="none" stroke="midnightblue" d="M161.25,-117.04C172.81,-118.35 184.7,-119.7 196.25,-121.01"/>
<polygon fill="midnightblue" stroke="midnightblue" points="195.96,-124.5 206.29,-122.15 196.75,-117.55 195.96,-124.5"/>
</g>
<!-- Node5 -->
<g id="node5" class="node">
<title>Node5</title>
<g id="a_node5"><a xlink:href="classUnicicleWmr.html#a01d4d8ad0a8317e63f1a1eddd389069a" target="_top" xlink:title="Sets the color used for drawing the robot.">
<polygon fill="white" stroke="black" points="214,-76.5 214,-95.5 339,-95.5 339,-76.5 214,-76.5"/>
<text text-anchor="middle" x="276.5" y="-83.5" font-family="Helvetica,sans-Serif" font-size="10.00">UnicicleWmr::setColor</text>
</a>
</g>
</g>
<!-- Node1&#45;&gt;Node5 -->
<g id="edge4" class="edge">
<title>Node1&#45;&gt;Node5</title>
<path fill="none" stroke="midnightblue" d="M161.25,-98.96C175.38,-97.35 190.01,-95.69 203.89,-94.12"/>
<polygon fill="midnightblue" stroke="midnightblue" points="204.31,-97.6 213.85,-92.99 203.52,-90.64 204.31,-97.6"/>
</g>
<!-- Node6 -->
<g id="node6" class="node">
<title>Node6</title>
<g id="a_node6"><a xlink:href="classUnicicleWmr.html#abc29ba63976fdf56362558b301fd85f3" target="_top" xlink:title="Updates the robot&#39;s dimensions and resizes the SFML shape accordingly.">
<polygon fill="white" stroke="black" points="197.5,-38.5 197.5,-57.5 355.5,-57.5 355.5,-38.5 197.5,-38.5"/>
<text text-anchor="middle" x="276.5" y="-45.5" font-family="Helvetica,sans-Serif" font-size="10.00">UnicicleWmr::setDimensions</text>
</a>
</g>
</g>
<!-- Node1&#45;&gt;Node6 -->
<g id="edge5" class="edge">
<title>Node1&#45;&gt;Node6</title>
<path fill="none" stroke="midnightblue" d="M106.04,-98.45C129.26,-89.62 165.19,-76.47 197,-67 205.21,-64.56 213.97,-62.2 222.56,-60.02"/>
<polygon fill="midnightblue" stroke="midnightblue" points="223.64,-63.36 232.51,-57.56 221.96,-56.56 223.64,-63.36"/>
</g>
<!-- Node7 -->
<g id="node7" class="node">
<title>Node7</title>
<g id="a_node7"><a xlink:href="classUnicicleWmr.html#a67da598341ba850b0a1958cacb7031fa" target="_top" xlink:title=" ">
<polygon fill="white" stroke="black" points="197,-0.5 197,-19.5 356,-19.5 356,-0.5 197,-0.5"/>
<text text-anchor="middle" x="276.5" y="-7.5" font-family="Helvetica,sans-Serif" font-size="10.00">UnicicleWmr::setRobotActive</text>
</a>
</g>
</g>
<!-- Node1&#45;&gt;Node7 -->
<g id="edge6" class="edge">
<title>Node1&#45;&gt;Node7</title>
<path fill="none" stroke="midnightblue" d="M92.47,-98.43C112.09,-81.83 155.05,-47.67 197,-29 202.63,-26.49 208.65,-24.29 214.74,-22.35"/>
<polygon fill="midnightblue" stroke="midnightblue" points="215.74,-25.71 224.35,-19.53 213.77,-18.99 215.74,-25.71"/>
</g>
</g>
</svg>
