<?xml version="1.0" encoding="UTF-8" standalone="no"?>
<!DOCTYPE svg PUBLIC "-//W3C//DTD SVG 1.1//EN"
 "http://www.w3.org/Graphics/SVG/1.1/DTD/svg11.dtd">
<!-- Generated by graphviz version 2.43.0 (0)
 -->
<!-- Title: LiveMap::setGoal Pages: 1 -->
<svg width="433pt" height="78pt"
 viewBox="0.00 0.00 433.00 77.50" xmlns="http://www.w3.org/2000/svg" xmlns:xlink="http://www.w3.org/1999/xlink">
<g id="graph0" class="graph" transform="scale(1 1) rotate(0) translate(4 73.5)">
<title>LiveMap::setGoal</title>
<polygon fill="white" stroke="transparent" points="-4,4 -4,-73.5 429,-73.5 429,4 -4,4"/>
<!-- Node1 -->
<g id="node1" class="node">
<title>Node1</title>
<g id="a_node1"><a xlink:title="Sets a special goal cell in the grid (value = &#39;g&#39;)">
<polygon fill="#bfbfbf" stroke="black" points="324,-28 324,-47 425,-47 425,-28 324,-28"/>
<text text-anchor="middle" x="374.5" y="-35" font-family="Helvetica,sans-Serif" font-size="10.00">LiveMap::setGoal</text>
</a>
</g>
</g>
<!-- Node2 -->
<g id="node2" class="node">
<title>Node2</title>
<g id="a_node2"><a xlink:href="classRightClickMapMenu.html#add5bb68773931eb8ba5cd455e6847dba" target="_top" xlink:title="Connects internal widget signals to their callbacks (e.g., button clicks).">
<polygon fill="white" stroke="black" points="168,-22.5 168,-52.5 288,-52.5 288,-22.5 168,-22.5"/>
<text text-anchor="start" x="176" y="-40.5" font-family="Helvetica,sans-Serif" font-size="10.00">RightClickMapMenu::</text>
<text text-anchor="middle" x="228" y="-29.5" font-family="Helvetica,sans-Serif" font-size="10.00">connectSignals</text>
</a>
</g>
</g>
<!-- Node1&#45;&gt;Node2 -->
<g id="edge1" class="edge">
<title>Node1&#45;&gt;Node2</title>
<path fill="none" stroke="midnightblue" d="M313.61,-37.5C305.16,-37.5 296.47,-37.5 288.04,-37.5"/>
<polygon fill="midnightblue" stroke="midnightblue" points="313.77,-41 323.77,-37.5 313.77,-34 313.77,-41"/>
</g>
<!-- Node3 -->
<g id="node3" class="node">
<title>Node3</title>
<g id="a_node3"><a xlink:href="classMapViewer.html#a6690a879cd4af2058afccd2920c03c0d" target="_top" xlink:title="Constructor.">
<polygon fill="white" stroke="black" points="0,-50 0,-69 132,-69 132,-50 0,-50"/>
<text text-anchor="middle" x="66" y="-57" font-family="Helvetica,sans-Serif" font-size="10.00">MapViewer::MapViewer</text>
</a>
</g>
</g>
<!-- Node2&#45;&gt;Node3 -->
<g id="edge2" class="edge">
<title>Node2&#45;&gt;Node3</title>
<path fill="none" stroke="midnightblue" d="M157.91,-47C149.33,-48.18 140.59,-49.38 132.07,-50.55"/>
<polygon fill="midnightblue" stroke="midnightblue" points="158.45,-50.46 167.88,-45.63 157.49,-43.52 158.45,-50.46"/>
</g>
<!-- Node4 -->
<g id="node4" class="node">
<title>Node4</title>
<g id="a_node4"><a xlink:href="classRightClickMapMenu.html#a99fb3feef15efd62845960340c4ca0fa" target="_top" xlink:title="Constructor: initializes the menu with references to the TGUI GUI system and map instances.">
<polygon fill="white" stroke="black" points="6,-0.5 6,-30.5 126,-30.5 126,-0.5 6,-0.5"/>
<text text-anchor="start" x="14" y="-18.5" font-family="Helvetica,sans-Serif" font-size="10.00">RightClickMapMenu::</text>
<text text-anchor="middle" x="66" y="-7.5" font-family="Helvetica,sans-Serif" font-size="10.00">RightClickMapMenu</text>
</a>
</g>
</g>
<!-- Node2&#45;&gt;Node4 -->
<g id="edge3" class="edge">
<title>Node2&#45;&gt;Node4</title>
<path fill="none" stroke="midnightblue" d="M157.85,-27.99C147.29,-26.54 136.47,-25.05 126.15,-23.63"/>
<polygon fill="midnightblue" stroke="midnightblue" points="157.49,-31.48 167.88,-29.37 158.45,-24.54 157.49,-31.48"/>
</g>
</g>
</svg>
