<?xml version="1.0" encoding="UTF-8" standalone="no"?>
<!DOCTYPE svg PUBLIC "-//W3C//DTD SVG 1.1//EN"
 "http://www.w3.org/Graphics/SVG/1.1/DTD/svg11.dtd">
<!-- Generated by graphviz version 2.43.0 (0)
 -->
<!-- Title: RobotCreator::RobotCreator Pages: 1 -->
<!--zoomable 230 -->
<svg id="main" version="1.1" xmlns="http://www.w3.org/2000/svg" xmlns:xlink="http://www.w3.org/1999/xlink" xml:space="preserve" onload="init(evt)">
<style type="text/css"><![CDATA[
.edge:hover path { stroke: red; }
.edge:hover polygon { stroke: red; fill: red; }
]]></style>
<script type="text/javascript"><![CDATA[
var edges = document.getElementsByTagName('g');
if (edges && edges.length) {
  for (var i=0;i<edges.length;i++) {
    if (edges[i].id.substr(0,4)=='edge') {
      edges[i].setAttribute('class','edge');
    }
  }
}
]]></script>
        <defs>
                <circle id="rim" cx="0" cy="0" r="7"/>
                <circle id="rim2" cx="0" cy="0" r="3.5"/>
                <g id="zoomPlus">
                        <use xlink:href="#rim" fill="#404040">
                                <set attributeName="fill" to="#808080" begin="zoomplus.mouseover" end="zoomplus.mouseout"/>
                        </use>
                        <path d="M-4,0h8M0,-4v8" fill="none" stroke="white" stroke-width="1.5" pointer-events="none"/>
                </g>
                <g id="zoomMin">
                        <use xlink:href="#rim" fill="#404040">
                                <set attributeName="fill" to="#808080" begin="zoomminus.mouseover" end="zoomminus.mouseout"/>
                        </use>
                        <path d="M-4,0h8" fill="none" stroke="white" stroke-width="1.5" pointer-events="none"/>
                </g>
                <g id="dirArrow">
                        <path fill="none" stroke="white" stroke-width="1.5" d="M0,-3.0v7 M-2.5,-0.5L0,-3.0L2.5,-0.5"/>
                </g>
               <g id="resetDef">
                       <use xlink:href="#rim2" fill="#404040">
                               <set attributeName="fill" to="#808080" begin="reset.mouseover" end="reset.mouseout"/>
                       </use>
               </g>
        </defs>

<script type="text/javascript">
var viewWidth = 552;
var viewHeight = 230;
var sectionId = 'dynsection-1';
</script>
<script xlink:href="svgpan.js"/>
<svg id="graph" class="graph">
<g id="viewport">
<title>RobotCreator::RobotCreator</title>
<polygon fill="white" stroke="transparent" points="-4,4 -4,-226 548,-226 548,4 -4,4"/>
<!-- Node1 -->
<g id="node1" class="node">
<title>Node1</title>
<g id="a_node1"><a xlink:title="Explicit constructor that requires a reference to the UnicicleWmr instance to configure.">
<polygon fill="#bfbfbf" stroke="black" points="0,-79.5 0,-98.5 152,-98.5 152,-79.5 0,-79.5"/>
<text text-anchor="middle" x="76" y="-86.5" font-family="Helvetica,sans-Serif" font-size="10.00">RobotCreator::RobotCreator</text>
</a>
</g>
</g>
<!-- Node2 -->
<g id="node2" class="node">
<title>Node2</title>
<g id="a_node2"><a xlink:href="classRobotCreator.html#a22c9b7970700b0c482682aa4db5c13bd" target="_top" xlink:title="Connects callbacks for button presses and other GUI events.">
<polygon fill="white" stroke="black" points="188,-98.5 188,-117.5 349,-117.5 349,-98.5 188,-98.5"/>
<text text-anchor="middle" x="268.5" y="-105.5" font-family="Helvetica,sans-Serif" font-size="10.00">RobotCreator::setupCallbacks</text>
</a>
</g>
</g>
<!-- Node1&#45;&gt;Node2 -->
<g id="edge1" class="edge">
<title>Node1&#45;&gt;Node2</title>
<path fill="none" stroke="midnightblue" d="M152.02,-96.48C160.47,-97.33 169.15,-98.19 177.77,-99.05"/>
<polygon fill="midnightblue" stroke="midnightblue" points="177.55,-102.55 187.85,-100.06 178.24,-95.58 177.55,-102.55"/>
</g>
<!-- Node9 -->
<g id="node9" class="node">
<title>Node9</title>
<g id="a_node9"><a xlink:href="classRobotCreator.html#a09f323f248be0eb2dba7388050e81c6a" target="_top" xlink:title="Initializes and sets up all GUI widgets (EditBoxes, Buttons)">
<polygon fill="white" stroke="black" points="191.5,-60.5 191.5,-79.5 345.5,-79.5 345.5,-60.5 191.5,-60.5"/>
<text text-anchor="middle" x="268.5" y="-67.5" font-family="Helvetica,sans-Serif" font-size="10.00">RobotCreator::setupWidgets</text>
</a>
</g>
</g>
<!-- Node1&#45;&gt;Node9 -->
<g id="edge8" class="edge">
<title>Node1&#45;&gt;Node9</title>
<path fill="none" stroke="midnightblue" d="M152.02,-81.52C161.6,-80.56 171.47,-79.58 181.21,-78.61"/>
<polygon fill="midnightblue" stroke="midnightblue" points="181.7,-82.08 191.3,-77.6 181,-75.11 181.7,-82.08"/>
</g>
<!-- Node3 -->
<g id="node3" class="node">
<title>Node3</title>
<g id="a_node3"><a xlink:href="classRobotCreator.html#afbf5db42204804796c234a32d1a9e4bd" target="_top" xlink:title="Converts a hexadecimal color string to an SFML Color object.">
<polygon fill="white" stroke="black" points="394,-202.5 394,-221.5 535,-221.5 535,-202.5 394,-202.5"/>
<text text-anchor="middle" x="464.5" y="-209.5" font-family="Helvetica,sans-Serif" font-size="10.00">RobotCreator::hexToColor</text>
</a>
</g>
</g>
<!-- Node2&#45;&gt;Node3 -->
<g id="edge2" class="edge">
<title>Node2&#45;&gt;Node3</title>
<path fill="none" stroke="midnightblue" d="M279.72,-117.77C298.82,-135.49 341.89,-172.92 385,-193 390.29,-195.47 395.94,-197.63 401.69,-199.53"/>
<polygon fill="midnightblue" stroke="midnightblue" points="400.82,-202.93 411.41,-202.48 402.86,-196.23 400.82,-202.93"/>
</g>
<!-- Node4 -->
<g id="node4" class="node">
<title>Node4</title>
<g id="a_node4"><a xlink:href="classRobotCreator.html#a4b0809b3fe7dd98ecc52697273cb473c" target="_top" xlink:title="Helper function to check if a string represents a valid floating&#45;point number.">
<polygon fill="white" stroke="black" points="392,-164.5 392,-183.5 537,-183.5 537,-164.5 392,-164.5"/>
<text text-anchor="middle" x="464.5" y="-171.5" font-family="Helvetica,sans-Serif" font-size="10.00">RobotCreator::isValidFloat</text>
</a>
</g>
</g>
<!-- Node2&#45;&gt;Node4 -->
<g id="edge3" class="edge">
<title>Node2&#45;&gt;Node4</title>
<path fill="none" stroke="midnightblue" d="M290.44,-117.63C313.31,-127.88 351.21,-144.1 385,-155 392.78,-157.51 401.09,-159.86 409.28,-162"/>
<polygon fill="midnightblue" stroke="midnightblue" points="408.62,-165.44 419.17,-164.49 410.33,-158.65 408.62,-165.44"/>
</g>
<!-- Node5 -->
<g id="node5" class="node">
<title>Node5</title>
<g id="a_node5"><a xlink:href="classRobotCreator.html#aa5bdc5e505359a51e82ce26aa1a8de37" target="_top" xlink:title="Helper function to validate if a string is a valid hexadecimal color code.">
<polygon fill="white" stroke="black" points="394.5,-115 394.5,-145 534.5,-145 534.5,-115 394.5,-115"/>
<text text-anchor="start" x="402.5" y="-133" font-family="Helvetica,sans-Serif" font-size="10.00">RobotCreator::isValidHex</text>
<text text-anchor="middle" x="464.5" y="-122" font-family="Helvetica,sans-Serif" font-size="10.00">Color</text>
</a>
</g>
</g>
<!-- Node2&#45;&gt;Node5 -->
<g id="edge4" class="edge">
<title>Node2&#45;&gt;Node5</title>
<path fill="none" stroke="midnightblue" d="M349.25,-117.04C360.81,-118.35 372.7,-119.7 384.25,-121.01"/>
<polygon fill="midnightblue" stroke="midnightblue" points="383.96,-124.5 394.29,-122.15 384.75,-117.55 383.96,-124.5"/>
</g>
<!-- Node6 -->
<g id="node6" class="node">
<title>Node6</title>
<g id="a_node6"><a xlink:href="classUnicicleWmr.html#a01d4d8ad0a8317e63f1a1eddd389069a" target="_top" xlink:title="Sets the color used for drawing the robot.">
<polygon fill="white" stroke="black" points="402,-76.5 402,-95.5 527,-95.5 527,-76.5 402,-76.5"/>
<text text-anchor="middle" x="464.5" y="-83.5" font-family="Helvetica,sans-Serif" font-size="10.00">UnicicleWmr::setColor</text>
</a>
</g>
</g>
<!-- Node2&#45;&gt;Node6 -->
<g id="edge5" class="edge">
<title>Node2&#45;&gt;Node6</title>
<path fill="none" stroke="midnightblue" d="M349.25,-98.96C363.38,-97.35 378.01,-95.69 391.89,-94.12"/>
<polygon fill="midnightblue" stroke="midnightblue" points="392.31,-97.6 401.85,-92.99 391.52,-90.64 392.31,-97.6"/>
</g>
<!-- Node7 -->
<g id="node7" class="node">
<title>Node7</title>
<g id="a_node7"><a xlink:href="classUnicicleWmr.html#abc29ba63976fdf56362558b301fd85f3" target="_top" xlink:title="Updates the robot&#39;s dimensions and resizes the SFML shape accordingly.">
<polygon fill="white" stroke="black" points="385.5,-38.5 385.5,-57.5 543.5,-57.5 543.5,-38.5 385.5,-38.5"/>
<text text-anchor="middle" x="464.5" y="-45.5" font-family="Helvetica,sans-Serif" font-size="10.00">UnicicleWmr::setDimensions</text>
</a>
</g>
</g>
<!-- Node2&#45;&gt;Node7 -->
<g id="edge6" class="edge">
<title>Node2&#45;&gt;Node7</title>
<path fill="none" stroke="midnightblue" d="M319.88,-98.49C329.71,-95.93 339.82,-92.79 349,-89 366.33,-81.84 367.68,-74.18 385,-67 390.95,-64.53 397.29,-62.34 403.7,-60.4"/>
<polygon fill="midnightblue" stroke="midnightblue" points="405.08,-63.65 413.76,-57.56 403.18,-56.91 405.08,-63.65"/>
</g>
<!-- Node8 -->
<g id="node8" class="node">
<title>Node8</title>
<g id="a_node8"><a xlink:href="classUnicicleWmr.html#a67da598341ba850b0a1958cacb7031fa" target="_top" xlink:title=" ">
<polygon fill="white" stroke="black" points="385,-0.5 385,-19.5 544,-19.5 544,-0.5 385,-0.5"/>
<text text-anchor="middle" x="464.5" y="-7.5" font-family="Helvetica,sans-Serif" font-size="10.00">UnicicleWmr::setRobotActive</text>
</a>
</g>
</g>
<!-- Node2&#45;&gt;Node8 -->
<g id="edge7" class="edge">
<title>Node2&#45;&gt;Node8</title>
<path fill="none" stroke="midnightblue" d="M331.59,-98.41C337.8,-95.94 343.73,-92.86 349,-89 374.08,-70.62 359.94,-47.42 385,-29 387.65,-27.05 390.48,-25.29 393.43,-23.72"/>
<polygon fill="midnightblue" stroke="midnightblue" points="394.96,-26.87 402.58,-19.51 392.04,-20.51 394.96,-26.87"/>
</g>
</g>
</svg>
        <g id="navigator" transform="translate(0 0)" fill="#404254">
                <rect fill="#f2f5e9" fill-opacity="0.5" stroke="#606060" stroke-width=".5" x="0" y="0" width="60" height="60"/>
                <use id="zoomplus" xlink:href="#zoomPlus" x="17" y="9" onmousedown="handleZoom(evt,'in')"/>
                <use id="zoomminus" xlink:href="#zoomMin" x="42" y="9" onmousedown="handleZoom(evt,'out')"/>
                <use id="reset" xlink:href="#resetDef" x="30" y="36" onmousedown="handleReset()"/>
                <g id="arrowUp" xlink:href="#dirArrow" transform="translate(30 24)" onmousedown="handlePan(0,-1)">
                  <use xlink:href="#rim" fill="#404040">
                        <set attributeName="fill" to="#808080" begin="arrowUp.mouseover" end="arrowUp.mouseout"/>
                  </use>
                  <path fill="none" stroke="white" stroke-width="1.5" d="M0,-3.0v7 M-2.5,-0.5L0,-3.0L2.5,-0.5"/>
                </g>
                <g id="arrowRight" xlink:href="#dirArrow" transform="rotate(90) translate(36 -43)" onmousedown="handlePan(1,0)">
                  <use xlink:href="#rim" fill="#404040">
                        <set attributeName="fill" to="#808080" begin="arrowRight.mouseover" end="arrowRight.mouseout"/>
                  </use>
                  <path fill="none" stroke="white" stroke-width="1.5" d="M0,-3.0v7 M-2.5,-0.5L0,-3.0L2.5,-0.5"/>
                </g>
                <g id="arrowDown" xlink:href="#dirArrow" transform="rotate(180) translate(-30 -48)" onmousedown="handlePan(0,1)">
                  <use xlink:href="#rim" fill="#404040">
                        <set attributeName="fill" to="#808080" begin="arrowDown.mouseover" end="arrowDown.mouseout"/>
                  </use>
                  <path fill="none" stroke="white" stroke-width="1.5" d="M0,-3.0v7 M-2.5,-0.5L0,-3.0L2.5,-0.5"/>
                </g>
                <g id="arrowLeft" xlink:href="#dirArrow" transform="rotate(270) translate(-36 17)" onmousedown="handlePan(-1,0)">
                  <use xlink:href="#rim" fill="#404040">
                        <set attributeName="fill" to="#808080" begin="arrowLeft.mouseover" end="arrowLeft.mouseout"/>
                  </use>
                  <path fill="none" stroke="white" stroke-width="1.5" d="M0,-3.0v7 M-2.5,-0.5L0,-3.0L2.5,-0.5"/>
                </g>
        </g>
        <svg viewBox="0 0 15 15" width="100%" height="30px" preserveAspectRatio="xMaxYMin meet">
         <g id="arrow_out" transform="scale(0.3 0.3)">
          <a xlink:href="classRobotCreator_a1a9bc9afc3c2e9aa6ca3555a11b99846_cgraph_org.svg" target="_base">
           <rect id="button" ry="5" rx="5" y="6" x="6" height="38" width="38"
                fill="#f2f5e9" fill-opacity="0.5" stroke="#606060" stroke-width="1.0"/>
           <path id="arrow"
             d="M 11.500037,31.436501 C 11.940474,20.09759 22.043105,11.32322 32.158766,21.979434 L 37.068811,17.246167 C 37.068811,17.246167 37.088388,32 37.088388,32 L 22.160133,31.978069 C 22.160133,31.978069 26.997745,27.140456 26.997745,27.140456 C 18.528582,18.264221 13.291696,25.230495 11.500037,31.436501 z"
             style="fill:#404040;"/>
          </a>
         </g>
        </svg>
</svg>
