<?xml version="1.0" encoding="UTF-8" standalone="no"?>
<!DOCTYPE svg PUBLIC "-//W3C//DTD SVG 1.1//EN"
 "http://www.w3.org/Graphics/SVG/1.1/DTD/svg11.dtd">
<!-- Generated by graphviz version 2.43.0 (0)
 -->
<!-- Title: AStar::octileHeuristic Pages: 1 -->
<svg width="402pt" height="66pt"
 viewBox="0.00 0.00 402.00 66.00" xmlns="http://www.w3.org/2000/svg" xmlns:xlink="http://www.w3.org/1999/xlink">
<g id="graph0" class="graph" transform="scale(1 1) rotate(0) translate(4 62)">
<title>AStar::octileHeuristic</title>
<polygon fill="white" stroke="transparent" points="-4,4 -4,-62 398,-62 398,4 -4,4"/>
<!-- Node1 -->
<g id="node1" class="node">
<title>Node1</title>
<g id="a_node1"><a xlink:title="Octile distance heuristic (better suited for 8&#45;connected grids).">
<polygon fill="#bfbfbf" stroke="black" points="275,-19.5 275,-38.5 394,-38.5 394,-19.5 275,-19.5"/>
<text text-anchor="middle" x="334.5" y="-26.5" font-family="Helvetica,sans-Serif" font-size="10.00">AStar::octileHeuristic</text>
</a>
</g>
</g>
<!-- Node2 -->
<g id="node2" class="node">
<title>Node2</title>
<g id="a_node2"><a xlink:href="classAStar.html#addce30fb4dd4735c1e0275b93324b2cc" target="_top" xlink:title="Initializes the A* algorithm.">
<polygon fill="white" stroke="black" points="168,-19.5 168,-38.5 239,-38.5 239,-19.5 168,-19.5"/>
<text text-anchor="middle" x="203.5" y="-26.5" font-family="Helvetica,sans-Serif" font-size="10.00">AStar::start</text>
</a>
</g>
</g>
<!-- Node1&#45;&gt;Node2 -->
<g id="edge1" class="edge">
<title>Node1&#45;&gt;Node2</title>
<path fill="none" stroke="midnightblue" d="M264.43,-29C255.73,-29 247.14,-29 239.3,-29"/>
<polygon fill="midnightblue" stroke="midnightblue" points="264.66,-32.5 274.66,-29 264.66,-25.5 264.66,-32.5"/>
</g>
<!-- Node3 -->
<g id="node3" class="node">
<title>Node3</title>
<g id="a_node3"><a xlink:href="classAStar.html#ac1635080ee8fbca765f9bfd83ce2c4d2" target="_top" xlink:title="Executes the full A* algorithm from start to goal in one call.">
<polygon fill="white" stroke="black" points="21.5,-38.5 21.5,-57.5 110.5,-57.5 110.5,-38.5 21.5,-38.5"/>
<text text-anchor="middle" x="66" y="-45.5" font-family="Helvetica,sans-Serif" font-size="10.00">AStar::findPath</text>
</a>
</g>
</g>
<!-- Node2&#45;&gt;Node3 -->
<g id="edge2" class="edge">
<title>Node2&#45;&gt;Node3</title>
<path fill="none" stroke="midnightblue" d="M157.8,-35.27C142.66,-37.39 125.78,-39.76 110.72,-41.87"/>
<polygon fill="midnightblue" stroke="midnightblue" points="158.54,-38.7 167.96,-33.84 157.57,-31.77 158.54,-38.7"/>
</g>
<!-- Node4 -->
<g id="node4" class="node">
<title>Node4</title>
<g id="a_node4"><a xlink:href="classMapViewer.html#a6690a879cd4af2058afccd2920c03c0d" target="_top" xlink:title="Constructor.">
<polygon fill="white" stroke="black" points="0,-0.5 0,-19.5 132,-19.5 132,-0.5 0,-0.5"/>
<text text-anchor="middle" x="66" y="-7.5" font-family="Helvetica,sans-Serif" font-size="10.00">MapViewer::MapViewer</text>
</a>
</g>
</g>
<!-- Node2&#45;&gt;Node4 -->
<g id="edge3" class="edge">
<title>Node2&#45;&gt;Node4</title>
<path fill="none" stroke="midnightblue" d="M157.82,-22.73C149.56,-21.58 140.78,-20.34 132.06,-19.12"/>
<polygon fill="midnightblue" stroke="midnightblue" points="157.57,-26.23 167.96,-24.16 158.54,-19.3 157.57,-26.23"/>
</g>
</g>
</svg>
