<?xml version="1.0" encoding="UTF-8" standalone="no"?>
<!DOCTYPE svg PUBLIC "-//W3C//DTD SVG 1.1//EN"
 "http://www.w3.org/Graphics/SVG/1.1/DTD/svg11.dtd">
<!-- Generated by graphviz version 2.43.0 (0)
 -->
<!-- Title: RightClickMapMenu::connectSignals Pages: 1 -->
<svg width="305pt" height="180pt"
 viewBox="0.00 0.00 305.00 180.00" xmlns="http://www.w3.org/2000/svg" xmlns:xlink="http://www.w3.org/1999/xlink">
<g id="graph0" class="graph" transform="scale(1 1) rotate(0) translate(4 176)">
<title>RightClickMapMenu::connectSignals</title>
<polygon fill="white" stroke="transparent" points="-4,4 -4,-176 301,-176 301,4 -4,4"/>
<!-- Node1 -->
<g id="node1" class="node">
<title>Node1</title>
<g id="a_node1"><a xlink:title="Connects internal widget signals to their callbacks (e.g., button clicks).">
<polygon fill="#bfbfbf" stroke="black" points="0,-71 0,-101 120,-101 120,-71 0,-71"/>
<text text-anchor="start" x="8" y="-89" font-family="Helvetica,sans-Serif" font-size="10.00">RightClickMapMenu::</text>
<text text-anchor="middle" x="60" y="-78" font-family="Helvetica,sans-Serif" font-size="10.00">connectSignals</text>
</a>
</g>
</g>
<!-- Node2 -->
<g id="node2" class="node">
<title>Node2</title>
<g id="a_node2"><a xlink:href="classGridMap.html#a3d6043e9e2cd951f5df2958b9d13b3e9" target="_top" xlink:title="Clear start or goal markers from a cell.">
<polygon fill="white" stroke="black" points="159.5,-152.5 159.5,-171.5 293.5,-171.5 293.5,-152.5 159.5,-152.5"/>
<text text-anchor="middle" x="226.5" y="-159.5" font-family="Helvetica,sans-Serif" font-size="10.00">GridMap::clearSetPoints</text>
</a>
</g>
</g>
<!-- Node1&#45;&gt;Node2 -->
<g id="edge1" class="edge">
<title>Node1&#45;&gt;Node2</title>
<path fill="none" stroke="midnightblue" d="M82.36,-101.14C101.04,-113.81 129.29,-131.59 156,-143 161.53,-145.36 167.43,-147.5 173.37,-149.43"/>
<polygon fill="midnightblue" stroke="midnightblue" points="172.75,-152.9 183.34,-152.46 174.79,-146.2 172.75,-152.9"/>
</g>
<!-- Node3 -->
<g id="node3" class="node">
<title>Node3</title>
<g id="a_node3"><a xlink:href="classLiveMap.html#ae9af41b07f81f3dc2e021d5dd683093e" target="_top" xlink:title="Returns whether live mode is currently active.">
<polygon fill="white" stroke="black" points="167,-114.5 167,-133.5 286,-133.5 286,-114.5 167,-114.5"/>
<text text-anchor="middle" x="226.5" y="-121.5" font-family="Helvetica,sans-Serif" font-size="10.00">LiveMap::getIsActive</text>
</a>
</g>
</g>
<!-- Node1&#45;&gt;Node3 -->
<g id="edge2" class="edge">
<title>Node1&#45;&gt;Node3</title>
<path fill="none" stroke="midnightblue" d="M120.39,-99.72C138.08,-103.81 157.31,-108.25 174.42,-112.2"/>
<polygon fill="midnightblue" stroke="midnightblue" points="173.7,-115.63 184.23,-114.47 175.27,-108.81 173.7,-115.63"/>
</g>
<!-- Node4 -->
<g id="node4" class="node">
<title>Node4</title>
<g id="a_node4"><a xlink:href="classRightClickMapMenu.html#a2c5b4eeacd87606b754a6d190252acef" target="_top" xlink:title="Hides the context menu.">
<polygon fill="white" stroke="black" points="156,-76.5 156,-95.5 297,-95.5 297,-76.5 156,-76.5"/>
<text text-anchor="middle" x="226.5" y="-83.5" font-family="Helvetica,sans-Serif" font-size="10.00">RightClickMapMenu::hide</text>
</a>
</g>
</g>
<!-- Node1&#45;&gt;Node4 -->
<g id="edge3" class="edge">
<title>Node1&#45;&gt;Node4</title>
<path fill="none" stroke="midnightblue" d="M120.39,-86C128.66,-86 137.26,-86 145.83,-86"/>
<polygon fill="midnightblue" stroke="midnightblue" points="145.84,-89.5 155.84,-86 145.84,-82.5 145.84,-89.5"/>
</g>
<!-- Node5 -->
<g id="node5" class="node">
<title>Node5</title>
<g id="a_node5"><a xlink:href="classGridMap.html#a063197bc2b493578f0da0905a2e7dd90" target="_top" xlink:title="Set the goal point in the grid (stored as ASCII &#39;g&#39;).">
<polygon fill="white" stroke="black" points="176,-38.5 176,-57.5 277,-57.5 277,-38.5 176,-38.5"/>
<text text-anchor="middle" x="226.5" y="-45.5" font-family="Helvetica,sans-Serif" font-size="10.00">GridMap::setGoal</text>
</a>
</g>
</g>
<!-- Node1&#45;&gt;Node5 -->
<g id="edge4" class="edge">
<title>Node1&#45;&gt;Node5</title>
<path fill="none" stroke="midnightblue" d="M120.39,-72.28C138.08,-68.19 157.31,-63.75 174.42,-59.8"/>
<polygon fill="midnightblue" stroke="midnightblue" points="175.27,-63.19 184.23,-57.53 173.7,-56.37 175.27,-63.19"/>
</g>
<!-- Node6 -->
<g id="node6" class="node">
<title>Node6</title>
<g id="a_node6"><a xlink:href="classLiveMap.html#a347e694d1d773cd4b6dae3619ece738e" target="_top" xlink:title="Sets a special goal cell in the grid (value = &#39;g&#39;)">
<polygon fill="white" stroke="black" points="176,-0.5 176,-19.5 277,-19.5 277,-0.5 176,-0.5"/>
<text text-anchor="middle" x="226.5" y="-7.5" font-family="Helvetica,sans-Serif" font-size="10.00">LiveMap::setGoal</text>
</a>
</g>
</g>
<!-- Node1&#45;&gt;Node6 -->
<g id="edge5" class="edge">
<title>Node1&#45;&gt;Node6</title>
<path fill="none" stroke="midnightblue" d="M82.36,-70.86C101.04,-58.19 129.29,-40.41 156,-29 161.53,-26.64 167.43,-24.5 173.37,-22.57"/>
<polygon fill="midnightblue" stroke="midnightblue" points="174.79,-25.8 183.34,-19.54 172.75,-19.1 174.79,-25.8"/>
</g>
</g>
</svg>
