<?xml version="1.0" encoding="UTF-8" standalone="no"?>
<!DOCTYPE svg PUBLIC "-//W3C//DTD SVG 1.1//EN"
 "http://www.w3.org/Graphics/SVG/1.1/DTD/svg11.dtd">
<!-- Generated by graphviz version 2.43.0 (0)
 -->
<!-- Title: MapViewer::MapViewer Pages: 1 -->
<svg width="507pt" height="750pt"
 viewBox="0.00 0.00 507.00 750.00" xmlns="http://www.w3.org/2000/svg" xmlns:xlink="http://www.w3.org/1999/xlink">
<g id="graph0" class="graph" transform="scale(1 1) rotate(0) translate(4 746)">
<title>MapViewer::MapViewer</title>
<polygon fill="white" stroke="transparent" points="-4,4 -4,-746 503,-746 503,4 -4,4"/>
<!-- Node1 -->
<g id="node1" class="node">
<title>Node1</title>
<g id="a_node1"><a xlink:title="Constructor.">
<polygon fill="#bfbfbf" stroke="black" points="0,-218.5 0,-237.5 132,-237.5 132,-218.5 0,-218.5"/>
<text text-anchor="middle" x="66" y="-225.5" font-family="Helvetica,sans-Serif" font-size="10.00">MapViewer::MapViewer</text>
</a>
</g>
</g>
<!-- Node2 -->
<g id="node2" class="node">
<title>Node2</title>
<g id="a_node2"><a xlink:href="classGridMap.html#a3b0d08933b5ed6a07b081177ada50f01" target="_top" xlink:title="Clear the entire occupancy grid.">
<polygon fill="white" stroke="black" points="172,-652.5 172,-671.5 301,-671.5 301,-652.5 172,-652.5"/>
<text text-anchor="middle" x="236.5" y="-659.5" font-family="Helvetica,sans-Serif" font-size="10.00">GridMap::clearGridMap</text>
</a>
</g>
</g>
<!-- Node1&#45;&gt;Node2 -->
<g id="edge1" class="edge">
<title>Node1&#45;&gt;Node2</title>
<path fill="none" stroke="midnightblue" d="M68.04,-237.7C74.3,-294.31 108.66,-581.5 168,-643 169.39,-644.45 170.89,-645.78 172.47,-647.02"/>
<polygon fill="midnightblue" stroke="midnightblue" points="170.63,-650 180.95,-652.42 174.39,-644.1 170.63,-650"/>
</g>
<!-- Node3 -->
<g id="node3" class="node">
<title>Node3</title>
<g id="a_node3"><a xlink:href="classRightClickMapMenu.html#add5bb68773931eb8ba5cd455e6847dba" target="_top" xlink:title="Connects internal widget signals to their callbacks (e.g., button clicks).">
<polygon fill="white" stroke="black" points="176.5,-603 176.5,-633 296.5,-633 296.5,-603 176.5,-603"/>
<text text-anchor="start" x="184.5" y="-621" font-family="Helvetica,sans-Serif" font-size="10.00">RightClickMapMenu::</text>
<text text-anchor="middle" x="236.5" y="-610" font-family="Helvetica,sans-Serif" font-size="10.00">connectSignals</text>
</a>
</g>
</g>
<!-- Node1&#45;&gt;Node3 -->
<g id="edge2" class="edge">
<title>Node1&#45;&gt;Node3</title>
<path fill="none" stroke="midnightblue" d="M71.17,-237.64C92.75,-287.6 192.13,-517.61 224.95,-593.58"/>
<polygon fill="midnightblue" stroke="midnightblue" points="221.77,-595.05 228.95,-602.85 228.2,-592.28 221.77,-595.05"/>
</g>
<!-- Node9 -->
<g id="node9" class="node">
<title>Node9</title>
<g id="a_node9"><a xlink:href="classFileManager.html#ae8a61fd55c9a1b8ac7804420015f3385" target="_top" xlink:title="Opens a file dialog to select a file and loads its data into the map.">
<polygon fill="white" stroke="black" points="169.5,-399.5 169.5,-418.5 303.5,-418.5 303.5,-399.5 169.5,-399.5"/>
<text text-anchor="middle" x="236.5" y="-406.5" font-family="Helvetica,sans-Serif" font-size="10.00">FileManager::loadDialog</text>
</a>
</g>
</g>
<!-- Node1&#45;&gt;Node9 -->
<g id="edge8" class="edge">
<title>Node1&#45;&gt;Node9</title>
<path fill="none" stroke="midnightblue" d="M76.06,-237.73C103.26,-266.95 184.48,-354.2 219.33,-391.63"/>
<polygon fill="midnightblue" stroke="midnightblue" points="217.02,-394.29 226.4,-399.22 222.14,-389.52 217.02,-394.29"/>
</g>
<!-- Node17 -->
<g id="node17" class="node">
<title>Node17</title>
<g id="a_node17"><a xlink:href="classViewController.html#a3ef5b86c4b69837a4d90b3a16f84379f" target="_top" xlink:title="Resets the view to its default state.">
<polygon fill="white" stroke="black" points="177,-218.5 177,-237.5 296,-237.5 296,-218.5 177,-218.5"/>
<text text-anchor="middle" x="236.5" y="-225.5" font-family="Helvetica,sans-Serif" font-size="10.00">ViewController::reset</text>
</a>
</g>
</g>
<!-- Node1&#45;&gt;Node17 -->
<g id="edge16" class="edge">
<title>Node1&#45;&gt;Node17</title>
<path fill="none" stroke="midnightblue" d="M132.15,-228C143.42,-228 155.18,-228 166.55,-228"/>
<polygon fill="midnightblue" stroke="midnightblue" points="166.86,-231.5 176.86,-228 166.86,-224.5 166.86,-231.5"/>
</g>
<!-- Node18 -->
<g id="node18" class="node">
<title>Node18</title>
<g id="a_node18"><a xlink:href="classRobotCreator.html#a6aaa86f6cbd1426e862987d1f3d9f8fa" target="_top" xlink:title="Main loop entry point to run the creation window.">
<polygon fill="white" stroke="black" points="185,-161.5 185,-180.5 288,-180.5 288,-161.5 185,-161.5"/>
<text text-anchor="middle" x="236.5" y="-168.5" font-family="Helvetica,sans-Serif" font-size="10.00">RobotCreator::run</text>
</a>
</g>
</g>
<!-- Node1&#45;&gt;Node18 -->
<g id="edge17" class="edge">
<title>Node1&#45;&gt;Node18</title>
<path fill="none" stroke="midnightblue" d="M95.2,-218.46C123.27,-208.97 166.52,-194.33 197.58,-183.83"/>
<polygon fill="midnightblue" stroke="midnightblue" points="198.85,-187.09 207.2,-180.57 196.61,-180.46 198.85,-187.09"/>
</g>
<!-- Node23 -->
<g id="node23" class="node">
<title>Node23</title>
<g id="a_node23"><a xlink:href="classFileManager.html#aebbfa817fd1a8055c738128a22fe0f6f" target="_top" xlink:title="Opens a file dialog to save the current data (coordinates).">
<polygon fill="white" stroke="black" points="168,-266.5 168,-285.5 305,-285.5 305,-266.5 168,-266.5"/>
<text text-anchor="middle" x="236.5" y="-273.5" font-family="Helvetica,sans-Serif" font-size="10.00">FileManager::saveDialog</text>
</a>
</g>
</g>
<!-- Node1&#45;&gt;Node23 -->
<g id="edge22" class="edge">
<title>Node1&#45;&gt;Node23</title>
<path fill="none" stroke="midnightblue" d="M100.69,-237.6C126.98,-245.09 163.69,-255.54 192.17,-263.66"/>
<polygon fill="midnightblue" stroke="midnightblue" points="191.29,-267.04 201.86,-266.42 193.21,-260.31 191.29,-267.04"/>
</g>
<!-- Node26 -->
<g id="node26" class="node">
<title>Node26</title>
<g id="a_node26"><a xlink:href="classMenuBar.html#a431f81a34ec89382bfaf5054cf518109" target="_top" xlink:title="Sets the callback functions for each menu option:">
<polygon fill="white" stroke="black" points="172.5,-123.5 172.5,-142.5 300.5,-142.5 300.5,-123.5 172.5,-123.5"/>
<text text-anchor="middle" x="236.5" y="-130.5" font-family="Helvetica,sans-Serif" font-size="10.00">MenuBar::setCallbacks</text>
</a>
</g>
</g>
<!-- Node1&#45;&gt;Node26 -->
<g id="edge27" class="edge">
<title>Node1&#45;&gt;Node26</title>
<path fill="none" stroke="midnightblue" d="M77.04,-218.38C94.28,-202.37 131.22,-170.21 168,-152 172.65,-149.7 177.63,-147.63 182.69,-145.79"/>
<polygon fill="midnightblue" stroke="midnightblue" points="184.1,-149.01 192.48,-142.53 181.88,-142.37 184.1,-149.01"/>
</g>
<!-- Node27 -->
<g id="node27" class="node">
<title>Node27</title>
<g id="a_node27"><a xlink:href="classAStar.html#addce30fb4dd4735c1e0275b93324b2cc" target="_top" xlink:title="Initializes the A* algorithm.">
<polygon fill="white" stroke="black" points="201,-76.5 201,-95.5 272,-95.5 272,-76.5 201,-76.5"/>
<text text-anchor="middle" x="236.5" y="-83.5" font-family="Helvetica,sans-Serif" font-size="10.00">AStar::start</text>
</a>
</g>
</g>
<!-- Node1&#45;&gt;Node27 -->
<g id="edge28" class="edge">
<title>Node1&#45;&gt;Node27</title>
<path fill="none" stroke="midnightblue" d="M73.2,-218.43C87.52,-197.01 124.94,-144.71 168,-114 176.13,-108.2 185.63,-103.33 194.9,-99.35"/>
<polygon fill="midnightblue" stroke="midnightblue" points="196.44,-102.51 204.41,-95.53 193.83,-96.01 196.44,-102.51"/>
</g>
<!-- Node29 -->
<g id="node29" class="node">
<title>Node29</title>
<g id="a_node29"><a xlink:href="classAStar.html#afaaae98c48d75edf9479adf38d68affe" target="_top" xlink:title="Updates the internal state map based on the current GridMap.">
<polygon fill="white" stroke="black" points="184.5,-19.5 184.5,-38.5 288.5,-38.5 288.5,-19.5 184.5,-19.5"/>
<text text-anchor="middle" x="236.5" y="-26.5" font-family="Helvetica,sans-Serif" font-size="10.00">AStar::updatemap</text>
</a>
</g>
</g>
<!-- Node1&#45;&gt;Node29 -->
<g id="edge30" class="edge">
<title>Node1&#45;&gt;Node29</title>
<path fill="none" stroke="midnightblue" d="M71.08,-218.14C82.7,-191.05 118.33,-114.36 168,-67 178.06,-57.41 191,-49.37 202.86,-43.19"/>
<polygon fill="midnightblue" stroke="midnightblue" points="204.64,-46.21 212.06,-38.64 201.54,-39.93 204.64,-46.21"/>
</g>
<!-- Node4 -->
<g id="node4" class="node">
<title>Node4</title>
<g id="a_node4"><a xlink:href="classGridMap.html#a3d6043e9e2cd951f5df2958b9d13b3e9" target="_top" xlink:title="Clear start or goal markers from a cell.">
<polygon fill="white" stroke="black" points="353,-722.5 353,-741.5 487,-741.5 487,-722.5 353,-722.5"/>
<text text-anchor="middle" x="420" y="-729.5" font-family="Helvetica,sans-Serif" font-size="10.00">GridMap::clearSetPoints</text>
</a>
</g>
</g>
<!-- Node3&#45;&gt;Node4 -->
<g id="edge3" class="edge">
<title>Node3&#45;&gt;Node4</title>
<path fill="none" stroke="midnightblue" d="M290.56,-633.17C295.76,-635.94 300.7,-639.19 305,-643 331.18,-666.21 313.52,-691.35 341,-713 343.31,-714.82 345.77,-716.47 348.33,-717.96"/>
<polygon fill="midnightblue" stroke="midnightblue" points="346.91,-721.16 357.42,-722.47 350.02,-714.89 346.91,-721.16"/>
</g>
<!-- Node5 -->
<g id="node5" class="node">
<title>Node5</title>
<g id="a_node5"><a xlink:href="classLiveMap.html#ae9af41b07f81f3dc2e021d5dd683093e" target="_top" xlink:title="Returns whether live mode is currently active.">
<polygon fill="white" stroke="black" points="360.5,-684.5 360.5,-703.5 479.5,-703.5 479.5,-684.5 360.5,-684.5"/>
<text text-anchor="middle" x="420" y="-691.5" font-family="Helvetica,sans-Serif" font-size="10.00">LiveMap::getIsActive</text>
</a>
</g>
</g>
<!-- Node3&#45;&gt;Node5 -->
<g id="edge4" class="edge">
<title>Node3&#45;&gt;Node5</title>
<path fill="none" stroke="midnightblue" d="M285.02,-633.04C291.92,-635.95 298.79,-639.27 305,-643 323.35,-654.02 322.04,-665.06 341,-675 345.51,-677.37 350.33,-679.44 355.27,-681.27"/>
<polygon fill="midnightblue" stroke="midnightblue" points="354.28,-684.63 364.87,-684.47 356.49,-677.99 354.28,-684.63"/>
</g>
<!-- Node6 -->
<g id="node6" class="node">
<title>Node6</title>
<g id="a_node6"><a xlink:href="classRightClickMapMenu.html#a2c5b4eeacd87606b754a6d190252acef" target="_top" xlink:title="Hides the context menu.">
<polygon fill="white" stroke="black" points="349.5,-646.5 349.5,-665.5 490.5,-665.5 490.5,-646.5 349.5,-646.5"/>
<text text-anchor="middle" x="420" y="-653.5" font-family="Helvetica,sans-Serif" font-size="10.00">RightClickMapMenu::hide</text>
</a>
</g>
</g>
<!-- Node3&#45;&gt;Node6 -->
<g id="edge5" class="edge">
<title>Node3&#45;&gt;Node6</title>
<path fill="none" stroke="midnightblue" d="M296.68,-630.39C318.2,-634.9 342.43,-639.97 363.61,-644.4"/>
<polygon fill="midnightblue" stroke="midnightblue" points="362.92,-647.83 373.42,-646.46 364.35,-640.98 362.92,-647.83"/>
</g>
<!-- Node7 -->
<g id="node7" class="node">
<title>Node7</title>
<g id="a_node7"><a xlink:href="classGridMap.html#a063197bc2b493578f0da0905a2e7dd90" target="_top" xlink:title="Set the goal point in the grid (stored as ASCII &#39;g&#39;).">
<polygon fill="white" stroke="black" points="369.5,-608.5 369.5,-627.5 470.5,-627.5 470.5,-608.5 369.5,-608.5"/>
<text text-anchor="middle" x="420" y="-615.5" font-family="Helvetica,sans-Serif" font-size="10.00">GridMap::setGoal</text>
</a>
</g>
</g>
<!-- Node3&#45;&gt;Node7 -->
<g id="edge6" class="edge">
<title>Node3&#45;&gt;Node7</title>
<path fill="none" stroke="midnightblue" d="M296.68,-618C316.68,-618 339.01,-618 359.06,-618"/>
<polygon fill="midnightblue" stroke="midnightblue" points="359.32,-621.5 369.32,-618 359.32,-614.5 359.32,-621.5"/>
</g>
<!-- Node8 -->
<g id="node8" class="node">
<title>Node8</title>
<g id="a_node8"><a xlink:href="classLiveMap.html#a347e694d1d773cd4b6dae3619ece738e" target="_top" xlink:title="Sets a special goal cell in the grid (value = &#39;g&#39;)">
<polygon fill="white" stroke="black" points="369.5,-570.5 369.5,-589.5 470.5,-589.5 470.5,-570.5 369.5,-570.5"/>
<text text-anchor="middle" x="420" y="-577.5" font-family="Helvetica,sans-Serif" font-size="10.00">LiveMap::setGoal</text>
</a>
</g>
</g>
<!-- Node3&#45;&gt;Node8 -->
<g id="edge7" class="edge">
<title>Node3&#45;&gt;Node8</title>
<path fill="none" stroke="midnightblue" d="M296.68,-605.61C318.2,-601.1 342.43,-596.03 363.61,-591.6"/>
<polygon fill="midnightblue" stroke="midnightblue" points="364.35,-595.02 373.42,-589.54 362.92,-588.17 364.35,-595.02"/>
</g>
<!-- Node10 -->
<g id="node10" class="node">
<title>Node10</title>
<g id="a_node10"><a xlink:href="classFileManager.html#ad30d0502c151865459ba32f7f3880477" target="_top" xlink:title="Loads coordinate data from a file into x and y vectors.">
<polygon fill="white" stroke="black" points="356.5,-532.5 356.5,-551.5 483.5,-551.5 483.5,-532.5 356.5,-532.5"/>
<text text-anchor="middle" x="420" y="-539.5" font-family="Helvetica,sans-Serif" font-size="10.00">FileManager::dataLoad</text>
</a>
</g>
</g>
<!-- Node9&#45;&gt;Node10 -->
<g id="edge9" class="edge">
<title>Node9&#45;&gt;Node10</title>
<path fill="none" stroke="midnightblue" d="M243.38,-418.72C257.35,-440.93 294.81,-495.55 341,-523 344.71,-525.2 348.66,-527.15 352.74,-528.87"/>
<polygon fill="midnightblue" stroke="midnightblue" points="351.85,-532.28 362.44,-532.5 354.3,-525.72 351.85,-532.28"/>
</g>
<!-- Node11 -->
<g id="node11" class="node">
<title>Node11</title>
<g id="a_node11"><a xlink:href="classGridMap.html#ad404a1752c771bd142a46e579c47ec6d" target="_top" xlink:title="Fill the occupancy grid using grid index vectors.">
<polygon fill="white" stroke="black" points="371.5,-494.5 371.5,-513.5 468.5,-513.5 468.5,-494.5 371.5,-494.5"/>
<text text-anchor="middle" x="420" y="-501.5" font-family="Helvetica,sans-Serif" font-size="10.00">GridMap::fillGrid</text>
</a>
</g>
</g>
<!-- Node9&#45;&gt;Node11 -->
<g id="edge10" class="edge">
<title>Node9&#45;&gt;Node11</title>
<path fill="none" stroke="midnightblue" d="M247.77,-418.75C265.41,-434.95 303.22,-467.39 341,-485 347.51,-488.04 354.57,-490.62 361.68,-492.81"/>
<polygon fill="midnightblue" stroke="midnightblue" points="360.79,-496.2 371.37,-495.56 362.71,-489.46 360.79,-496.2"/>
</g>
<!-- Node12 -->
<g id="node12" class="node">
<title>Node12</title>
<g id="a_node12"><a xlink:href="classGridMap.html#ad20af94e5a3cc2872a274a732b5e3f72" target="_top" xlink:title="Getters for real&#45;world x coordinates.">
<polygon fill="white" stroke="black" points="366,-342.5 366,-361.5 474,-361.5 474,-342.5 366,-342.5"/>
<text text-anchor="middle" x="420" y="-349.5" font-family="Helvetica,sans-Serif" font-size="10.00">GridMap::getRealX</text>
</a>
</g>
</g>
<!-- Node9&#45;&gt;Node12 -->
<g id="edge11" class="edge">
<title>Node9&#45;&gt;Node12</title>
<path fill="none" stroke="midnightblue" d="M261.08,-399.47C281.9,-391.28 313.17,-379.47 341,-371 349.05,-368.55 357.64,-366.2 366.07,-364.04"/>
<polygon fill="midnightblue" stroke="midnightblue" points="367,-367.41 375.85,-361.59 365.3,-360.62 367,-367.41"/>
</g>
<!-- Node13 -->
<g id="node13" class="node">
<title>Node13</title>
<g id="a_node13"><a xlink:href="classGridMap.html#af4fe1dc74416535a7463b7e168a326d1" target="_top" xlink:title="Getters for real&#45;world y coordinates.">
<polygon fill="white" stroke="black" points="366.5,-304.5 366.5,-323.5 473.5,-323.5 473.5,-304.5 366.5,-304.5"/>
<text text-anchor="middle" x="420" y="-311.5" font-family="Helvetica,sans-Serif" font-size="10.00">GridMap::getRealY</text>
</a>
</g>
</g>
<!-- Node9&#45;&gt;Node13 -->
<g id="edge12" class="edge">
<title>Node9&#45;&gt;Node13</title>
<path fill="none" stroke="midnightblue" d="M247.77,-399.25C265.41,-383.05 303.22,-350.61 341,-333 346.26,-330.55 351.87,-328.39 357.58,-326.5"/>
<polygon fill="midnightblue" stroke="midnightblue" points="358.7,-329.82 367.24,-323.56 356.66,-323.12 358.7,-329.82"/>
</g>
<!-- Node14 -->
<g id="node14" class="node">
<title>Node14</title>
<g id="a_node14"><a xlink:href="classGridMap.html#a83c5f50b869d134d31a43e58a7757eac" target="_top" xlink:title="Replace all current points with new ones.">
<polygon fill="white" stroke="black" points="365.5,-456.5 365.5,-475.5 474.5,-475.5 474.5,-456.5 365.5,-456.5"/>
<text text-anchor="middle" x="420" y="-463.5" font-family="Helvetica,sans-Serif" font-size="10.00">GridMap::setPoints</text>
</a>
</g>
</g>
<!-- Node9&#45;&gt;Node14 -->
<g id="edge13" class="edge">
<title>Node9&#45;&gt;Node14</title>
<path fill="none" stroke="midnightblue" d="M261.08,-418.53C281.9,-426.72 313.17,-438.53 341,-447 349.05,-449.45 357.64,-451.8 366.07,-453.96"/>
<polygon fill="midnightblue" stroke="midnightblue" points="365.3,-457.38 375.85,-456.41 367,-450.59 365.3,-457.38"/>
</g>
<!-- Node15 -->
<g id="node15" class="node">
<title>Node15</title>
<g id="a_node15"><a xlink:href="tinyfiledialogs_8h.html#a8918e9f47e1532c1d055f563a32b215c" target="_top" xlink:title=" ">
<polygon fill="white" stroke="black" points="359,-418.5 359,-437.5 481,-437.5 481,-418.5 359,-418.5"/>
<text text-anchor="middle" x="420" y="-425.5" font-family="Helvetica,sans-Serif" font-size="10.00">tinyfd_openFileDialog</text>
</a>
</g>
</g>
<!-- Node9&#45;&gt;Node15 -->
<g id="edge14" class="edge">
<title>Node9&#45;&gt;Node15</title>
<path fill="none" stroke="midnightblue" d="M303.54,-415.91C318.2,-417.45 333.79,-419.08 348.61,-420.63"/>
<polygon fill="midnightblue" stroke="midnightblue" points="348.42,-424.13 358.73,-421.69 349.15,-417.17 348.42,-424.13"/>
</g>
<!-- Node16 -->
<g id="node16" class="node">
<title>Node16</title>
<g id="a_node16"><a xlink:href="classGridMap.html#a41f7d52629250938bd87dac7c8cfbb76" target="_top" xlink:title="Convert real&#45;world coordinates to grid indices.">
<polygon fill="white" stroke="black" points="369,-380.5 369,-399.5 471,-399.5 471,-380.5 369,-380.5"/>
<text text-anchor="middle" x="420" y="-387.5" font-family="Helvetica,sans-Serif" font-size="10.00">GridMap::xy2Grid</text>
</a>
</g>
</g>
<!-- Node9&#45;&gt;Node16 -->
<g id="edge15" class="edge">
<title>Node9&#45;&gt;Node16</title>
<path fill="none" stroke="midnightblue" d="M303.54,-402.09C321.59,-400.2 341.05,-398.16 358.75,-396.31"/>
<polygon fill="midnightblue" stroke="midnightblue" points="359.37,-399.76 368.95,-395.24 358.64,-392.8 359.37,-399.76"/>
</g>
<!-- Node19 -->
<g id="node19" class="node">
<title>Node19</title>
<g id="a_node19"><a xlink:href="classRobotCreator.html#a55c3f93cf65404a5c334c6a4be5ab67e" target="_top" xlink:title="Returns true if the creation window is currently open and running.">
<polygon fill="white" stroke="black" points="352.5,-190.5 352.5,-209.5 487.5,-209.5 487.5,-190.5 352.5,-190.5"/>
<text text-anchor="middle" x="420" y="-197.5" font-family="Helvetica,sans-Serif" font-size="10.00">RobotCreator::isRunning</text>
</a>
</g>
</g>
<!-- Node18&#45;&gt;Node19 -->
<g id="edge18" class="edge">
<title>Node18&#45;&gt;Node19</title>
<path fill="none" stroke="midnightblue" d="M288.06,-179.08C307.08,-182.12 329.05,-185.63 349.5,-188.89"/>
<polygon fill="midnightblue" stroke="midnightblue" points="348.96,-192.35 359.39,-190.48 350.07,-185.44 348.96,-192.35"/>
</g>
<!-- Node20 -->
<g id="node20" class="node">
<title>Node20</title>
<g id="a_node20"><a xlink:href="classRobotCreator.html#a296898214fd76575c63de36ae1c5481f" target="_top" xlink:title="Handles user input events like keyboard and mouse.">
<polygon fill="white" stroke="black" points="341,-152.5 341,-171.5 499,-171.5 499,-152.5 341,-152.5"/>
<text text-anchor="middle" x="420" y="-159.5" font-family="Helvetica,sans-Serif" font-size="10.00">RobotCreator::processEvents</text>
</a>
</g>
</g>
<!-- Node18&#45;&gt;Node20 -->
<g id="edge19" class="edge">
<title>Node18&#45;&gt;Node20</title>
<path fill="none" stroke="midnightblue" d="M288.06,-168.49C301.35,-167.83 316.09,-167.1 330.74,-166.38"/>
<polygon fill="midnightblue" stroke="midnightblue" points="331.04,-169.87 340.85,-165.88 330.69,-162.87 331.04,-169.87"/>
</g>
<!-- Node21 -->
<g id="node21" class="node">
<title>Node21</title>
<g id="a_node21"><a xlink:href="classRobotCreator.html#ad774a314cafeb9eee4187a295b5739d1" target="_top" xlink:title="Renders the GUI window and widgets.">
<polygon fill="white" stroke="black" points="360.5,-114.5 360.5,-133.5 479.5,-133.5 479.5,-114.5 360.5,-114.5"/>
<text text-anchor="middle" x="420" y="-121.5" font-family="Helvetica,sans-Serif" font-size="10.00">RobotCreator::render</text>
</a>
</g>
</g>
<!-- Node18&#45;&gt;Node21 -->
<g id="edge20" class="edge">
<title>Node18&#45;&gt;Node21</title>
<path fill="none" stroke="midnightblue" d="M271.94,-161.45C292.05,-155.93 317.92,-148.93 341,-143 350.02,-140.68 359.65,-138.28 368.95,-135.99"/>
<polygon fill="midnightblue" stroke="midnightblue" points="369.99,-139.34 378.87,-133.57 368.32,-132.54 369.99,-139.34"/>
</g>
<!-- Node22 -->
<g id="node22" class="node">
<title>Node22</title>
<g id="a_node22"><a xlink:href="classRobotCreator.html#a3b1852ea68b66abab751226c1cb6820f" target="_top" xlink:title="Updates internal state and GUI elements each frame.">
<polygon fill="white" stroke="black" points="359.5,-76.5 359.5,-95.5 480.5,-95.5 480.5,-76.5 359.5,-76.5"/>
<text text-anchor="middle" x="420" y="-83.5" font-family="Helvetica,sans-Serif" font-size="10.00">RobotCreator::update</text>
</a>
</g>
</g>
<!-- Node18&#45;&gt;Node22 -->
<g id="edge21" class="edge">
<title>Node18&#45;&gt;Node22</title>
<path fill="none" stroke="midnightblue" d="M286.04,-161.47C292.72,-159 299.26,-155.89 305,-152 326.78,-137.23 318.96,-119.38 341,-105 344.16,-102.94 347.53,-101.1 351.02,-99.46"/>
<polygon fill="midnightblue" stroke="midnightblue" points="352.58,-102.6 360.51,-95.57 349.93,-96.12 352.58,-102.6"/>
</g>
<!-- Node23&#45;&gt;Node12 -->
<g id="edge23" class="edge">
<title>Node23&#45;&gt;Node12</title>
<path fill="none" stroke="midnightblue" d="M251.98,-285.6C271.46,-298.12 307.55,-319.98 341,-333 347.37,-335.48 354.16,-337.71 360.98,-339.69"/>
<polygon fill="midnightblue" stroke="midnightblue" points="360.38,-343.15 370.95,-342.41 362.22,-336.4 360.38,-343.15"/>
</g>
<!-- Node23&#45;&gt;Node13 -->
<g id="edge24" class="edge">
<title>Node23&#45;&gt;Node13</title>
<path fill="none" stroke="midnightblue" d="M283.3,-285.59C307.68,-290.69 337.86,-297.01 363.56,-302.39"/>
<polygon fill="midnightblue" stroke="midnightblue" points="363.02,-305.86 373.53,-304.48 364.46,-299 363.02,-305.86"/>
</g>
<!-- Node24 -->
<g id="node24" class="node">
<title>Node24</title>
<g id="a_node24"><a xlink:href="classFileManager.html#ae4178789b8d0ae7653db505ba276640a" target="_top" xlink:title="Saves x and y coordinate data to a file.">
<polygon fill="white" stroke="black" points="356,-266.5 356,-285.5 484,-285.5 484,-266.5 356,-266.5"/>
<text text-anchor="middle" x="420" y="-273.5" font-family="Helvetica,sans-Serif" font-size="10.00">FileManager::saveData</text>
</a>
</g>
</g>
<!-- Node23&#45;&gt;Node24 -->
<g id="edge25" class="edge">
<title>Node23&#45;&gt;Node24</title>
<path fill="none" stroke="midnightblue" d="M305.08,-276C318.34,-276 332.29,-276 345.72,-276"/>
<polygon fill="midnightblue" stroke="midnightblue" points="345.87,-279.5 355.87,-276 345.87,-272.5 345.87,-279.5"/>
</g>
<!-- Node25 -->
<g id="node25" class="node">
<title>Node25</title>
<g id="a_node25"><a xlink:href="tinyfiledialogs_8h.html#a7a17e17150593bf3b04253ea819fc5bc" target="_top" xlink:title=" ">
<polygon fill="white" stroke="black" points="359,-228.5 359,-247.5 481,-247.5 481,-228.5 359,-228.5"/>
<text text-anchor="middle" x="420" y="-235.5" font-family="Helvetica,sans-Serif" font-size="10.00">tinyfd_saveFileDialog</text>
</a>
</g>
</g>
<!-- Node23&#45;&gt;Node25 -->
<g id="edge26" class="edge">
<title>Node23&#45;&gt;Node25</title>
<path fill="none" stroke="midnightblue" d="M283.3,-266.41C307.68,-261.31 337.86,-254.99 363.56,-249.61"/>
<polygon fill="midnightblue" stroke="midnightblue" points="364.46,-253 373.53,-247.52 363.02,-246.14 364.46,-253"/>
</g>
<!-- Node28 -->
<g id="node28" class="node">
<title>Node28</title>
<g id="a_node28"><a xlink:href="classAStar.html#aa9a1a3a53f000075f201cf6373e8c912" target="_top" xlink:title="Octile distance heuristic (better suited for 8&#45;connected grids).">
<polygon fill="white" stroke="black" points="360.5,-38.5 360.5,-57.5 479.5,-57.5 479.5,-38.5 360.5,-38.5"/>
<text text-anchor="middle" x="420" y="-45.5" font-family="Helvetica,sans-Serif" font-size="10.00">AStar::octileHeuristic</text>
</a>
</g>
</g>
<!-- Node27&#45;&gt;Node28 -->
<g id="edge29" class="edge">
<title>Node27&#45;&gt;Node28</title>
<path fill="none" stroke="midnightblue" d="M272.07,-78.76C297.94,-73.35 333.86,-65.83 363.71,-59.58"/>
<polygon fill="midnightblue" stroke="midnightblue" points="364.5,-62.99 373.57,-57.51 363.07,-56.13 364.5,-62.99"/>
</g>
<!-- Node30 -->
<g id="node30" class="node">
<title>Node30</title>
<g id="a_node30"><a xlink:href="classGridMap.html#abed9c97e44c2302a1586de01ed369c10" target="_top" xlink:title="Get a const reference to the occupancy grid.">
<polygon fill="white" stroke="black" points="370,-0.5 370,-19.5 470,-19.5 470,-0.5 370,-0.5"/>
<text text-anchor="middle" x="420" y="-7.5" font-family="Helvetica,sans-Serif" font-size="10.00">GridMap::getGrid</text>
</a>
</g>
</g>
<!-- Node29&#45;&gt;Node30 -->
<g id="edge31" class="edge">
<title>Node29&#45;&gt;Node30</title>
<path fill="none" stroke="midnightblue" d="M288.54,-23.66C310.74,-21.33 336.88,-18.6 359.91,-16.19"/>
<polygon fill="midnightblue" stroke="midnightblue" points="360.32,-19.66 369.9,-15.14 359.59,-12.7 360.32,-19.66"/>
</g>
</g>
</svg>
