<?xml version="1.0" encoding="UTF-8" standalone="no"?>
<!DOCTYPE svg PUBLIC "-//W3C//DTD SVG 1.1//EN"
 "http://www.w3.org/Graphics/SVG/1.1/DTD/svg11.dtd">
<!-- Generated by graphviz version 2.43.0 (0)
 -->
<!-- Title: MapViewer::processEvent Pages: 1 -->
<svg width="738pt" height="284pt"
 viewBox="0.00 0.00 738.00 284.13" xmlns="http://www.w3.org/2000/svg" xmlns:xlink="http://www.w3.org/1999/xlink">
<g id="graph0" class="graph" transform="scale(1 1) rotate(0) translate(4 280.13)">
<title>MapViewer::processEvent</title>
<polygon fill="white" stroke="transparent" points="-4,4 -4,-280.13 734,-280.13 734,4 -4,4"/>
<!-- Node1 -->
<g id="node1" class="node">
<title>Node1</title>
<g id="a_node1"><a xlink:title="Handles input events (mouse and keyboard)">
<polygon fill="#bfbfbf" stroke="black" points="0,-131.13 0,-150.13 143,-150.13 143,-131.13 0,-131.13"/>
<text text-anchor="middle" x="71.5" y="-138.13" font-family="Helvetica,sans-Serif" font-size="10.00">MapViewer::processEvent</text>
</a>
</g>
</g>
<!-- Node2 -->
<g id="node2" class="node">
<title>Node2</title>
<g id="a_node2"><a xlink:href="classRightClickMapMenu.html#a87f03273425aa850fb7552ed1d21ab21" target="_top" xlink:title="Checks if a world&#45;space point is inside the menu bounds.">
<polygon fill="white" stroke="black" points="204,-245.63 204,-275.63 324,-275.63 324,-245.63 204,-245.63"/>
<text text-anchor="start" x="212" y="-263.63" font-family="Helvetica,sans-Serif" font-size="10.00">RightClickMapMenu::</text>
<text text-anchor="middle" x="264" y="-252.63" font-family="Helvetica,sans-Serif" font-size="10.00">containsPoint</text>
</a>
</g>
</g>
<!-- Node1&#45;&gt;Node2 -->
<g id="edge1" class="edge">
<title>Node1&#45;&gt;Node2</title>
<path fill="none" stroke="midnightblue" d="M80.57,-150.23C97.1,-169.29 136.81,-212.09 179,-235.63 183.82,-238.32 188.95,-240.74 194.22,-242.93"/>
<polygon fill="midnightblue" stroke="midnightblue" points="193.22,-246.3 203.81,-246.61 195.73,-239.76 193.22,-246.3"/>
</g>
<!-- Node3 -->
<g id="node3" class="node">
<title>Node3</title>
<g id="a_node3"><a xlink:href="classViewController.html#a6a75b71784feee666c971a20b5785aec" target="_top" xlink:title="Returns the grid cell index hovered by the mouse.">
<polygon fill="white" stroke="black" points="179,-207.13 179,-226.13 349,-226.13 349,-207.13 179,-207.13"/>
<text text-anchor="middle" x="264" y="-214.13" font-family="Helvetica,sans-Serif" font-size="10.00">ViewController::getHoveredCell</text>
</a>
</g>
</g>
<!-- Node1&#45;&gt;Node3 -->
<g id="edge2" class="edge">
<title>Node1&#45;&gt;Node3</title>
<path fill="none" stroke="midnightblue" d="M87.41,-150.29C107.47,-162.88 144.61,-184.81 179,-197.63 186.01,-200.25 193.5,-202.57 201,-204.6"/>
<polygon fill="midnightblue" stroke="midnightblue" points="200.27,-208.03 210.83,-207.12 202.01,-201.25 200.27,-208.03"/>
</g>
<!-- Node4 -->
<g id="node4" class="node">
<title>Node4</title>
<g id="a_node4"><a xlink:href="classGridMap.html#a5dc821c5c3cb7883e62148573d75c57f" target="_top" xlink:title="Get the number of cells per side.">
<polygon fill="white" stroke="black" points="203.5,-169.13 203.5,-188.13 324.5,-188.13 324.5,-169.13 203.5,-169.13"/>
<text text-anchor="middle" x="264" y="-176.13" font-family="Helvetica,sans-Serif" font-size="10.00">GridMap::getMapSize</text>
</a>
</g>
</g>
<!-- Node1&#45;&gt;Node4 -->
<g id="edge3" class="edge">
<title>Node1&#45;&gt;Node4</title>
<path fill="none" stroke="midnightblue" d="M120.57,-150.22C146.28,-155.35 178.11,-161.7 205.16,-167.09"/>
<polygon fill="midnightblue" stroke="midnightblue" points="204.78,-170.59 215.27,-169.11 206.15,-163.72 204.78,-170.59"/>
</g>
<!-- Node5 -->
<g id="node5" class="node">
<title>Node5</title>
<g id="a_node5"><a xlink:href="classViewController.html#ac54a72b053247207a1ee00cd07e3cb0e" target="_top" xlink:title="Handles mouse movement events for panning and zooming.">
<polygon fill="white" stroke="black" points="186.5,-131.13 186.5,-150.13 341.5,-150.13 341.5,-131.13 186.5,-131.13"/>
<text text-anchor="middle" x="264" y="-138.13" font-family="Helvetica,sans-Serif" font-size="10.00">ViewController::handleEvent</text>
</a>
</g>
</g>
<!-- Node1&#45;&gt;Node5 -->
<g id="edge4" class="edge">
<title>Node1&#45;&gt;Node5</title>
<path fill="none" stroke="midnightblue" d="M143.16,-140.63C153.95,-140.63 165.18,-140.63 176.26,-140.63"/>
<polygon fill="midnightblue" stroke="midnightblue" points="176.37,-144.13 186.37,-140.63 176.37,-137.13 176.37,-144.13"/>
</g>
<!-- Node9 -->
<g id="node9" class="node">
<title>Node9</title>
<g id="a_node9"><a xlink:href="classRightClickMapMenu.html#a4ed94d4b642e38a5af97e05395565c6b" target="_top" xlink:title="Returns whether the menu is currently visible.">
<polygon fill="white" stroke="black" points="204,-81.63 204,-111.63 324,-111.63 324,-81.63 204,-81.63"/>
<text text-anchor="start" x="212" y="-99.63" font-family="Helvetica,sans-Serif" font-size="10.00">RightClickMapMenu::</text>
<text text-anchor="middle" x="264" y="-88.63" font-family="Helvetica,sans-Serif" font-size="10.00">isVisible</text>
</a>
</g>
</g>
<!-- Node1&#45;&gt;Node9 -->
<g id="edge8" class="edge">
<title>Node1&#45;&gt;Node9</title>
<path fill="none" stroke="midnightblue" d="M113.84,-131.08C137.12,-125.7 166.82,-118.84 193.58,-112.66"/>
<polygon fill="midnightblue" stroke="midnightblue" points="194.72,-115.99 203.67,-110.33 193.14,-109.17 194.72,-115.99"/>
</g>
<!-- Node10 -->
<g id="node10" class="node">
<title>Node10</title>
<g id="a_node10"><a xlink:href="classRightClickMapMenu.html#a6c027dd38cb5355f667fb8447abbca1f" target="_top" xlink:title="Sets the visibility state of the menu.">
<polygon fill="white" stroke="black" points="204,-32.63 204,-62.63 324,-62.63 324,-32.63 204,-32.63"/>
<text text-anchor="start" x="212" y="-50.63" font-family="Helvetica,sans-Serif" font-size="10.00">RightClickMapMenu::</text>
<text text-anchor="middle" x="264" y="-39.63" font-family="Helvetica,sans-Serif" font-size="10.00">setVisible</text>
</a>
</g>
</g>
<!-- Node1&#45;&gt;Node10 -->
<g id="edge9" class="edge">
<title>Node1&#45;&gt;Node10</title>
<path fill="none" stroke="midnightblue" d="M84.95,-131.03C104.18,-116.6 142.69,-89.23 179,-72.63 184.02,-70.34 189.3,-68.19 194.66,-66.2"/>
<polygon fill="midnightblue" stroke="midnightblue" points="196.11,-69.4 204.39,-62.78 193.79,-62.8 196.11,-69.4"/>
</g>
<!-- Node11 -->
<g id="node11" class="node">
<title>Node11</title>
<g id="a_node11"><a xlink:href="classRightClickMapMenu.html#a110c0ae970ef0e259c3102faae2f5afb" target="_top" xlink:title="Displays the context menu at the given screen coordinates.">
<polygon fill="white" stroke="black" points="397,-16.13 397,-35.13 543,-35.13 543,-16.13 397,-16.13"/>
<text text-anchor="middle" x="470" y="-23.13" font-family="Helvetica,sans-Serif" font-size="10.00">RightClickMapMenu::show</text>
</a>
</g>
</g>
<!-- Node1&#45;&gt;Node11 -->
<g id="edge11" class="edge">
<title>Node1&#45;&gt;Node11</title>
<path fill="none" stroke="midnightblue" d="M77.53,-130.83C90.47,-106.85 127.56,-45.5 179,-22.63 259.03,12.94 364.18,-1.21 423.38,-13.94"/>
<polygon fill="midnightblue" stroke="midnightblue" points="422.65,-17.36 433.17,-16.12 424.18,-10.53 422.65,-17.36"/>
</g>
<!-- Node6 -->
<g id="node6" class="node">
<title>Node6</title>
<g id="a_node6"><a xlink:href="classViewController.html#a3ef5b86c4b69837a4d90b3a16f84379f" target="_top" xlink:title="Resets the view to its default state.">
<polygon fill="white" stroke="black" points="410.5,-150.13 410.5,-169.13 529.5,-169.13 529.5,-150.13 410.5,-150.13"/>
<text text-anchor="middle" x="470" y="-157.13" font-family="Helvetica,sans-Serif" font-size="10.00">ViewController::reset</text>
</a>
</g>
</g>
<!-- Node5&#45;&gt;Node6 -->
<g id="edge5" class="edge">
<title>Node5&#45;&gt;Node6</title>
<path fill="none" stroke="midnightblue" d="M341.54,-147.76C360.81,-149.55 381.36,-151.47 400.22,-153.22"/>
<polygon fill="midnightblue" stroke="midnightblue" points="399.92,-156.71 410.2,-154.15 400.57,-149.74 399.92,-156.71"/>
</g>
<!-- Node7 -->
<g id="node7" class="node">
<title>Node7</title>
<g id="a_node7"><a xlink:href="classViewController.html#a0b015ef0ad0da78f94e932eda5ed2197" target="_top" xlink:title="Handles zoom in/out based on user input events.">
<polygon fill="white" stroke="black" points="385,-112.13 385,-131.13 555,-131.13 555,-112.13 385,-112.13"/>
<text text-anchor="middle" x="470" y="-119.13" font-family="Helvetica,sans-Serif" font-size="10.00">ViewController::zoomController</text>
</a>
</g>
</g>
<!-- Node5&#45;&gt;Node7 -->
<g id="edge6" class="edge">
<title>Node5&#45;&gt;Node7</title>
<path fill="none" stroke="midnightblue" d="M341.54,-133.5C352.36,-132.49 363.59,-131.45 374.7,-130.41"/>
<polygon fill="midnightblue" stroke="midnightblue" points="375.21,-133.88 384.85,-129.47 374.56,-126.91 375.21,-133.88"/>
</g>
<!-- Node8 -->
<g id="node8" class="node">
<title>Node8</title>
<g id="a_node8"><a xlink:href="classViewController.html#ab3b39d154cf93e5eec28d2bbdead91e4" target="_top" xlink:title="Returns the current zoom level.">
<polygon fill="white" stroke="black" points="591,-112.13 591,-131.13 730,-131.13 730,-112.13 591,-112.13"/>
<text text-anchor="middle" x="660.5" y="-119.13" font-family="Helvetica,sans-Serif" font-size="10.00">ViewController::getZoom</text>
</a>
</g>
</g>
<!-- Node7&#45;&gt;Node8 -->
<g id="edge7" class="edge">
<title>Node7&#45;&gt;Node8</title>
<path fill="none" stroke="midnightblue" d="M555.05,-121.63C563.57,-121.63 572.19,-121.63 580.65,-121.63"/>
<polygon fill="midnightblue" stroke="midnightblue" points="580.86,-125.13 590.86,-121.63 580.86,-118.13 580.86,-125.13"/>
</g>
<!-- Node10&#45;&gt;Node11 -->
<g id="edge10" class="edge">
<title>Node10&#45;&gt;Node11</title>
<path fill="none" stroke="midnightblue" d="M324.01,-41.27C343.52,-39.16 365.61,-36.78 386.56,-34.52"/>
<polygon fill="midnightblue" stroke="midnightblue" points="387.16,-37.98 396.73,-33.42 386.41,-31.02 387.16,-37.98"/>
</g>
</g>
</svg>
