<?xml version="1.0" encoding="UTF-8" standalone="no"?>
<!DOCTYPE svg PUBLIC "-//W3C//DTD SVG 1.1//EN"
 "http://www.w3.org/Graphics/SVG/1.1/DTD/svg11.dtd">
<!-- Generated by graphviz version 2.43.0 (0)
 -->
<!-- Title: AStar::findPath Pages: 1 -->
<!--zoomable 218 -->
<svg id="main" version="1.1" xmlns="http://www.w3.org/2000/svg" xmlns:xlink="http://www.w3.org/1999/xlink" xml:space="preserve" onload="init(evt)">
<style type="text/css"><![CDATA[
.edge:hover path { stroke: red; }
.edge:hover polygon { stroke: red; fill: red; }
]]></style>
<script type="text/javascript"><![CDATA[
var edges = document.getElementsByTagName('g');
if (edges && edges.length) {
  for (var i=0;i<edges.length;i++) {
    if (edges[i].id.substr(0,4)=='edge') {
      edges[i].setAttribute('class','edge');
    }
  }
}
]]></script>
        <defs>
                <circle id="rim" cx="0" cy="0" r="7"/>
                <circle id="rim2" cx="0" cy="0" r="3.5"/>
                <g id="zoomPlus">
                        <use xlink:href="#rim" fill="#404040">
                                <set attributeName="fill" to="#808080" begin="zoomplus.mouseover" end="zoomplus.mouseout"/>
                        </use>
                        <path d="M-4,0h8M0,-4v8" fill="none" stroke="white" stroke-width="1.5" pointer-events="none"/>
                </g>
                <g id="zoomMin">
                        <use xlink:href="#rim" fill="#404040">
                                <set attributeName="fill" to="#808080" begin="zoomminus.mouseover" end="zoomminus.mouseout"/>
                        </use>
                        <path d="M-4,0h8" fill="none" stroke="white" stroke-width="1.5" pointer-events="none"/>
                </g>
                <g id="dirArrow">
                        <path fill="none" stroke="white" stroke-width="1.5" d="M0,-3.0v7 M-2.5,-0.5L0,-3.0L2.5,-0.5"/>
                </g>
               <g id="resetDef">
                       <use xlink:href="#rim2" fill="#404040">
                               <set attributeName="fill" to="#808080" begin="reset.mouseover" end="reset.mouseout"/>
                       </use>
               </g>
        </defs>

<script type="text/javascript">
var viewWidth = 523;
var viewHeight = 218;
var sectionId = 'dynsection-4';
</script>
<script xlink:href="svgpan.js"/>
<svg id="graph" class="graph">
<g id="viewport">
<title>AStar::findPath</title>
<polygon fill="white" stroke="transparent" points="-4,4 -4,-214 519,-214 519,4 -4,4"/>
<!-- Node1 -->
<g id="node1" class="node">
<title>Node1</title>
<g id="a_node1"><a xlink:title="Executes the full A* algorithm from start to goal in one call.">
<polygon fill="#bfbfbf" stroke="black" points="0,-152.5 0,-171.5 89,-171.5 89,-152.5 0,-152.5"/>
<text text-anchor="middle" x="44.5" y="-159.5" font-family="Helvetica,sans-Serif" font-size="10.00">AStar::findPath</text>
</a>
</g>
</g>
<!-- Node2 -->
<g id="node2" class="node">
<title>Node2</title>
<g id="a_node2"><a xlink:href="classAStar.html#afbd7e300de5b7e171633d4be1982ce07" target="_top" xlink:title="Reconstructs the final path from the goal node by tracing the parent map.">
<polygon fill="white" stroke="black" points="242.5,-152.5 242.5,-171.5 367.5,-171.5 367.5,-152.5 242.5,-152.5"/>
<text text-anchor="middle" x="305" y="-159.5" font-family="Helvetica,sans-Serif" font-size="10.00">AStar::reconstructPath</text>
</a>
</g>
</g>
<!-- Node1&#45;&gt;Node2 -->
<g id="edge1" class="edge">
<title>Node1&#45;&gt;Node2</title>
<path fill="none" stroke="midnightblue" d="M89.06,-162C128.12,-162 186.18,-162 232.12,-162"/>
<polygon fill="midnightblue" stroke="midnightblue" points="232.32,-165.5 242.32,-162 232.32,-158.5 232.32,-165.5"/>
</g>
<!-- Node3 -->
<g id="node3" class="node">
<title>Node3</title>
<g id="a_node3"><a xlink:href="classAStar.html#addce30fb4dd4735c1e0275b93324b2cc" target="_top" xlink:title="Initializes the A* algorithm.">
<polygon fill="white" stroke="black" points="125,-190.5 125,-209.5 196,-209.5 196,-190.5 125,-190.5"/>
<text text-anchor="middle" x="160.5" y="-197.5" font-family="Helvetica,sans-Serif" font-size="10.00">AStar::start</text>
</a>
</g>
</g>
<!-- Node1&#45;&gt;Node3 -->
<g id="edge2" class="edge">
<title>Node1&#45;&gt;Node3</title>
<path fill="none" stroke="midnightblue" d="M74.27,-171.59C88.44,-176.31 105.74,-182.08 121.03,-187.18"/>
<polygon fill="midnightblue" stroke="midnightblue" points="120.15,-190.57 130.74,-190.41 122.36,-183.93 120.15,-190.57"/>
</g>
<!-- Node5 -->
<g id="node5" class="node">
<title>Node5</title>
<g id="a_node5"><a xlink:href="classAStar.html#a0c3d34d32a97828112f6ee453e75121b" target="_top" xlink:title="Performs one step of the A* algorithm.">
<polygon fill="white" stroke="black" points="125.5,-95.5 125.5,-114.5 195.5,-114.5 195.5,-95.5 125.5,-95.5"/>
<text text-anchor="middle" x="160.5" y="-102.5" font-family="Helvetica,sans-Serif" font-size="10.00">AStar::step</text>
</a>
</g>
</g>
<!-- Node1&#45;&gt;Node5 -->
<g id="edge4" class="edge">
<title>Node1&#45;&gt;Node5</title>
<path fill="none" stroke="midnightblue" d="M64.58,-152.46C82.83,-143.34 110.57,-129.47 131.35,-119.07"/>
<polygon fill="midnightblue" stroke="midnightblue" points="132.98,-122.17 140.36,-114.57 129.85,-115.91 132.98,-122.17"/>
</g>
<!-- Node4 -->
<g id="node4" class="node">
<title>Node4</title>
<g id="a_node4"><a xlink:href="classAStar.html#aa9a1a3a53f000075f201cf6373e8c912" target="_top" xlink:title="Octile distance heuristic (better suited for 8&#45;connected grids).">
<polygon fill="white" stroke="black" points="245.5,-190.5 245.5,-209.5 364.5,-209.5 364.5,-190.5 245.5,-190.5"/>
<text text-anchor="middle" x="305" y="-197.5" font-family="Helvetica,sans-Serif" font-size="10.00">AStar::octileHeuristic</text>
</a>
</g>
</g>
<!-- Node3&#45;&gt;Node4 -->
<g id="edge3" class="edge">
<title>Node3&#45;&gt;Node4</title>
<path fill="none" stroke="midnightblue" d="M196.36,-200C208.11,-200 221.67,-200 235.12,-200"/>
<polygon fill="midnightblue" stroke="midnightblue" points="235.35,-203.5 245.35,-200 235.35,-196.5 235.35,-203.5"/>
</g>
<!-- Node5&#45;&gt;Node2 -->
<g id="edge10" class="edge">
<title>Node5&#45;&gt;Node2</title>
<path fill="none" stroke="midnightblue" d="M176.67,-114.54C190.62,-122.98 212.08,-135.13 232,-143 238.22,-145.46 244.87,-147.7 251.51,-149.71"/>
<polygon fill="midnightblue" stroke="midnightblue" points="250.62,-153.09 261.2,-152.49 252.56,-146.36 250.62,-153.09"/>
</g>
<!-- Node6 -->
<g id="node6" class="node">
<title>Node6</title>
<g id="a_node6"><a xlink:href="classNode.html#ad4e8dcafa398a8613bc3ed8681f31933" target="_top" xlink:title="Returns the total estimated cost (f&#45;cost) of the node: f = g + h.">
<polygon fill="white" stroke="black" points="268,-38.5 268,-57.5 342,-57.5 342,-38.5 268,-38.5"/>
<text text-anchor="middle" x="305" y="-45.5" font-family="Helvetica,sans-Serif" font-size="10.00">Node::fCost</text>
</a>
</g>
</g>
<!-- Node5&#45;&gt;Node6 -->
<g id="edge5" class="edge">
<title>Node5&#45;&gt;Node6</title>
<path fill="none" stroke="midnightblue" d="M176.67,-95.46C190.62,-87.02 212.08,-74.87 232,-67 240.3,-63.72 249.36,-60.83 258.16,-58.35"/>
<polygon fill="midnightblue" stroke="midnightblue" points="259.18,-61.7 267.94,-55.74 257.38,-54.94 259.18,-61.7"/>
</g>
<!-- Node7 -->
<g id="node7" class="node">
<title>Node7</title>
<g id="a_node7"><a xlink:href="classAStar.html#ad334648b94a68f85318faee06bdad851" target="_top" xlink:title="Returns the valid neighbor cells of a given node.">
<polygon fill="white" stroke="black" points="248,-0.5 248,-19.5 362,-19.5 362,-0.5 248,-0.5"/>
<text text-anchor="middle" x="305" y="-7.5" font-family="Helvetica,sans-Serif" font-size="10.00">AStar::getNeighbors</text>
</a>
</g>
</g>
<!-- Node5&#45;&gt;Node7 -->
<g id="edge6" class="edge">
<title>Node5&#45;&gt;Node7</title>
<path fill="none" stroke="midnightblue" d="M167.64,-95.45C178.57,-79.24 202.99,-46.41 232,-29 235.62,-26.83 239.48,-24.9 243.47,-23.2"/>
<polygon fill="midnightblue" stroke="midnightblue" points="244.85,-26.42 252.95,-19.59 242.36,-19.87 244.85,-26.42"/>
</g>
<!-- Node9 -->
<g id="node9" class="node">
<title>Node9</title>
<g id="a_node9"><a xlink:href="classGridMap.html#a22d7a74bbf3b6a4663860f76e9cd4019" target="_top" xlink:title="Query cell status.">
<polygon fill="white" stroke="black" points="246.5,-114.5 246.5,-133.5 363.5,-133.5 363.5,-114.5 246.5,-114.5"/>
<text text-anchor="middle" x="305" y="-121.5" font-family="Helvetica,sans-Serif" font-size="10.00">GridMap::isOccupied</text>
</a>
</g>
</g>
<!-- Node5&#45;&gt;Node9 -->
<g id="edge8" class="edge">
<title>Node5&#45;&gt;Node9</title>
<path fill="none" stroke="midnightblue" d="M195.63,-109.55C207.89,-111.19 222.18,-113.09 236.29,-114.97"/>
<polygon fill="midnightblue" stroke="midnightblue" points="236.12,-118.48 246.49,-116.33 237.04,-111.54 236.12,-118.48"/>
</g>
<!-- Node10 -->
<g id="node10" class="node">
<title>Node10</title>
<g id="a_node10"><a xlink:href="classAStar.html#ab2c50db1e384318e1ae2f41aa48fe92f" target="_top" xlink:title=" ">
<polygon fill="white" stroke="black" points="232,-76.5 232,-95.5 378,-95.5 378,-76.5 232,-76.5"/>
<text text-anchor="middle" x="305" y="-83.5" font-family="Helvetica,sans-Serif" font-size="10.00">AStar::manhattanHeuristic</text>
</a>
</g>
</g>
<!-- Node5&#45;&gt;Node10 -->
<g id="edge9" class="edge">
<title>Node5&#45;&gt;Node10</title>
<path fill="none" stroke="midnightblue" d="M195.63,-100.45C203.94,-99.34 213.19,-98.11 222.68,-96.84"/>
<polygon fill="midnightblue" stroke="midnightblue" points="223.18,-100.31 232.63,-95.52 222.25,-93.37 223.18,-100.31"/>
</g>
<!-- Node8 -->
<g id="node8" class="node">
<title>Node8</title>
<g id="a_node8"><a xlink:href="classAStar.html#a07010836e7ee9f2b37854031b872cc52" target="_top" xlink:title="Checks if the given cell coordinates are within the grid bounds.">
<polygon fill="white" stroke="black" points="414,-0.5 414,-19.5 515,-19.5 515,-0.5 414,-0.5"/>
<text text-anchor="middle" x="464.5" y="-7.5" font-family="Helvetica,sans-Serif" font-size="10.00">AStar::isValidCell</text>
</a>
</g>
</g>
<!-- Node7&#45;&gt;Node8 -->
<g id="edge7" class="edge">
<title>Node7&#45;&gt;Node8</title>
<path fill="none" stroke="midnightblue" d="M362.42,-10C375.78,-10 390.08,-10 403.59,-10"/>
<polygon fill="midnightblue" stroke="midnightblue" points="403.75,-13.5 413.75,-10 403.75,-6.5 403.75,-13.5"/>
</g>
</g>
</svg>
        <g id="navigator" transform="translate(0 0)" fill="#404254">
                <rect fill="#f2f5e9" fill-opacity="0.5" stroke="#606060" stroke-width=".5" x="0" y="0" width="60" height="60"/>
                <use id="zoomplus" xlink:href="#zoomPlus" x="17" y="9" onmousedown="handleZoom(evt,'in')"/>
                <use id="zoomminus" xlink:href="#zoomMin" x="42" y="9" onmousedown="handleZoom(evt,'out')"/>
                <use id="reset" xlink:href="#resetDef" x="30" y="36" onmousedown="handleReset()"/>
                <g id="arrowUp" xlink:href="#dirArrow" transform="translate(30 24)" onmousedown="handlePan(0,-1)">
                  <use xlink:href="#rim" fill="#404040">
                        <set attributeName="fill" to="#808080" begin="arrowUp.mouseover" end="arrowUp.mouseout"/>
                  </use>
                  <path fill="none" stroke="white" stroke-width="1.5" d="M0,-3.0v7 M-2.5,-0.5L0,-3.0L2.5,-0.5"/>
                </g>
                <g id="arrowRight" xlink:href="#dirArrow" transform="rotate(90) translate(36 -43)" onmousedown="handlePan(1,0)">
                  <use xlink:href="#rim" fill="#404040">
                        <set attributeName="fill" to="#808080" begin="arrowRight.mouseover" end="arrowRight.mouseout"/>
                  </use>
                  <path fill="none" stroke="white" stroke-width="1.5" d="M0,-3.0v7 M-2.5,-0.5L0,-3.0L2.5,-0.5"/>
                </g>
                <g id="arrowDown" xlink:href="#dirArrow" transform="rotate(180) translate(-30 -48)" onmousedown="handlePan(0,1)">
                  <use xlink:href="#rim" fill="#404040">
                        <set attributeName="fill" to="#808080" begin="arrowDown.mouseover" end="arrowDown.mouseout"/>
                  </use>
                  <path fill="none" stroke="white" stroke-width="1.5" d="M0,-3.0v7 M-2.5,-0.5L0,-3.0L2.5,-0.5"/>
                </g>
                <g id="arrowLeft" xlink:href="#dirArrow" transform="rotate(270) translate(-36 17)" onmousedown="handlePan(-1,0)">
                  <use xlink:href="#rim" fill="#404040">
                        <set attributeName="fill" to="#808080" begin="arrowLeft.mouseover" end="arrowLeft.mouseout"/>
                  </use>
                  <path fill="none" stroke="white" stroke-width="1.5" d="M0,-3.0v7 M-2.5,-0.5L0,-3.0L2.5,-0.5"/>
                </g>
        </g>
        <svg viewBox="0 0 15 15" width="100%" height="30px" preserveAspectRatio="xMaxYMin meet">
         <g id="arrow_out" transform="scale(0.3 0.3)">
          <a xlink:href="classAStar_ac1635080ee8fbca765f9bfd83ce2c4d2_cgraph_org.svg" target="_base">
           <rect id="button" ry="5" rx="5" y="6" x="6" height="38" width="38"
                fill="#f2f5e9" fill-opacity="0.5" stroke="#606060" stroke-width="1.0"/>
           <path id="arrow"
             d="M 11.500037,31.436501 C 11.940474,20.09759 22.043105,11.32322 32.158766,21.979434 L 37.068811,17.246167 C 37.068811,17.246167 37.088388,32 37.088388,32 L 22.160133,31.978069 C 22.160133,31.978069 26.997745,27.140456 26.997745,27.140456 C 18.528582,18.264221 13.291696,25.230495 11.500037,31.436501 z"
             style="fill:#404040;"/>
          </a>
         </g>
        </svg>
</svg>
