<?xml version="1.0" encoding="UTF-8" standalone="no"?>
<!DOCTYPE svg PUBLIC "-//W3C//DTD SVG 1.1//EN"
 "http://www.w3.org/Graphics/SVG/1.1/DTD/svg11.dtd">
<!-- Generated by graphviz version 2.43.0 (0)
 -->
<!-- Title: UnicicleWmr::setRobotActive Pages: 1 -->
<svg width="552pt" height="28pt"
 viewBox="0.00 0.00 552.00 28.00" xmlns="http://www.w3.org/2000/svg" xmlns:xlink="http://www.w3.org/1999/xlink">
<g id="graph0" class="graph" transform="scale(1 1) rotate(0) translate(4 24)">
<title>UnicicleWmr::setRobotActive</title>
<polygon fill="white" stroke="transparent" points="-4,4 -4,-24 548,-24 548,4 -4,4"/>
<!-- Node1 -->
<g id="node1" class="node">
<title>Node1</title>
<g id="a_node1"><a xlink:title=" ">
<polygon fill="#bfbfbf" stroke="black" points="385,-0.5 385,-19.5 544,-19.5 544,-0.5 385,-0.5"/>
<text text-anchor="middle" x="464.5" y="-7.5" font-family="Helvetica,sans-Serif" font-size="10.00">UnicicleWmr::setRobotActive</text>
</a>
</g>
</g>
<!-- Node2 -->
<g id="node2" class="node">
<title>Node2</title>
<g id="a_node2"><a xlink:href="classRobotCreator.html#a22c9b7970700b0c482682aa4db5c13bd" target="_top" xlink:title="Connects callbacks for button presses and other GUI events.">
<polygon fill="white" stroke="black" points="188,-0.5 188,-19.5 349,-19.5 349,-0.5 188,-0.5"/>
<text text-anchor="middle" x="268.5" y="-7.5" font-family="Helvetica,sans-Serif" font-size="10.00">RobotCreator::setupCallbacks</text>
</a>
</g>
</g>
<!-- Node1&#45;&gt;Node2 -->
<g id="edge1" class="edge">
<title>Node1&#45;&gt;Node2</title>
<path fill="none" stroke="midnightblue" d="M374.59,-10C366.12,-10 357.56,-10 349.19,-10"/>
<polygon fill="midnightblue" stroke="midnightblue" points="374.87,-13.5 384.87,-10 374.87,-6.5 374.87,-13.5"/>
</g>
<!-- Node3 -->
<g id="node3" class="node">
<title>Node3</title>
<g id="a_node3"><a xlink:href="classRobotCreator.html#a1a9bc9afc3c2e9aa6ca3555a11b99846" target="_top" xlink:title="Explicit constructor that requires a reference to the UnicicleWmr instance to configure.">
<polygon fill="white" stroke="black" points="0,-0.5 0,-19.5 152,-19.5 152,-0.5 0,-0.5"/>
<text text-anchor="middle" x="76" y="-7.5" font-family="Helvetica,sans-Serif" font-size="10.00">RobotCreator::RobotCreator</text>
</a>
</g>
</g>
<!-- Node2&#45;&gt;Node3 -->
<g id="edge2" class="edge">
<title>Node2&#45;&gt;Node3</title>
<path fill="none" stroke="midnightblue" d="M177.77,-10C169.18,-10 160.53,-10 152.1,-10"/>
<polygon fill="midnightblue" stroke="midnightblue" points="177.81,-13.5 187.81,-10 177.81,-6.5 177.81,-13.5"/>
</g>
</g>
</svg>
