<?xml version="1.0" encoding="UTF-8" standalone="no"?>
<!DOCTYPE svg PUBLIC "-//W3C//DTD SVG 1.1//EN"
 "http://www.w3.org/Graphics/SVG/1.1/DTD/svg11.dtd">
<!-- Generated by graphviz version 2.43.0 (0)
 -->
<!-- Title: ViewController::getZoom Pages: 1 -->
<svg width="800pt" height="66pt"
 viewBox="0.00 0.00 800.00 66.00" xmlns="http://www.w3.org/2000/svg" xmlns:xlink="http://www.w3.org/1999/xlink">
<g id="graph0" class="graph" transform="scale(1 1) rotate(0) translate(4 62)">
<title>ViewController::getZoom</title>
<polygon fill="white" stroke="transparent" points="-4,4 -4,-62 796,-62 796,4 -4,4"/>
<!-- Node1 -->
<g id="node1" class="node">
<title>Node1</title>
<g id="a_node1"><a xlink:title="Returns the current zoom level.">
<polygon fill="#bfbfbf" stroke="black" points="653,-19.5 653,-38.5 792,-38.5 792,-19.5 653,-19.5"/>
<text text-anchor="middle" x="722.5" y="-26.5" font-family="Helvetica,sans-Serif" font-size="10.00">ViewController::getZoom</text>
</a>
</g>
</g>
<!-- Node2 -->
<g id="node2" class="node">
<title>Node2</title>
<g id="a_node2"><a xlink:href="classLiveMap.html#a0157071646700aba0cbb45a6767b7487" target="_top" xlink:title="Draws the live grid using the ViewController.">
<polygon fill="white" stroke="black" points="467.5,-38.5 467.5,-57.5 596.5,-57.5 596.5,-38.5 467.5,-38.5"/>
<text text-anchor="middle" x="532" y="-45.5" font-family="Helvetica,sans-Serif" font-size="10.00">LiveMap::drawLiveMap</text>
</a>
</g>
</g>
<!-- Node1&#45;&gt;Node2 -->
<g id="edge1" class="edge">
<title>Node1&#45;&gt;Node2</title>
<path fill="none" stroke="midnightblue" d="M642.86,-36.93C627.42,-38.48 611.4,-40.1 596.52,-41.6"/>
<polygon fill="midnightblue" stroke="midnightblue" points="643.32,-40.4 652.91,-35.91 642.61,-33.43 643.32,-40.4"/>
</g>
<!-- Node5 -->
<g id="node5" class="node">
<title>Node5</title>
<g id="a_node5"><a xlink:href="classViewController.html#a0b015ef0ad0da78f94e932eda5ed2197" target="_top" xlink:title="Handles zoom in/out based on user input events.">
<polygon fill="white" stroke="black" points="447,-0.5 447,-19.5 617,-19.5 617,-0.5 447,-0.5"/>
<text text-anchor="middle" x="532" y="-7.5" font-family="Helvetica,sans-Serif" font-size="10.00">ViewController::zoomController</text>
</a>
</g>
</g>
<!-- Node1&#45;&gt;Node5 -->
<g id="edge4" class="edge">
<title>Node1&#45;&gt;Node5</title>
<path fill="none" stroke="midnightblue" d="M642.75,-21.06C634.33,-20.21 625.75,-19.35 617.27,-18.49"/>
<polygon fill="midnightblue" stroke="midnightblue" points="642.61,-24.57 652.91,-22.09 643.32,-17.6 642.61,-24.57"/>
</g>
<!-- Node3 -->
<g id="node3" class="node">
<title>Node3</title>
<g id="a_node3"><a xlink:href="classMapViewer.html#a7eaeb9b44dd34c1865462914957a6aac" target="_top" xlink:title="Renders all visual components to the screen.">
<polygon fill="white" stroke="black" points="94,-38.5 94,-57.5 203,-57.5 203,-38.5 94,-38.5"/>
<text text-anchor="middle" x="148.5" y="-45.5" font-family="Helvetica,sans-Serif" font-size="10.00">MapViewer::render</text>
</a>
</g>
</g>
<!-- Node2&#45;&gt;Node3 -->
<g id="edge2" class="edge">
<title>Node2&#45;&gt;Node3</title>
<path fill="none" stroke="midnightblue" d="M456.9,-48C382.38,-48 269.31,-48 203.07,-48"/>
<polygon fill="midnightblue" stroke="midnightblue" points="457.15,-51.5 467.15,-48 457.15,-44.5 457.15,-51.5"/>
</g>
<!-- Node4 -->
<g id="node4" class="node">
<title>Node4</title>
<g id="a_node4"><a xlink:href="main_8cpp.html#a3c04138a5bfe5d72780bb7e82a18e627" target="_top" xlink:title="Main entry point for the ARTG SLAM visualization node.">
<polygon fill="white" stroke="black" points="0,-19.5 0,-38.5 41,-38.5 41,-19.5 0,-19.5"/>
<text text-anchor="middle" x="20.5" y="-26.5" font-family="Helvetica,sans-Serif" font-size="10.00">main</text>
</a>
</g>
</g>
<!-- Node3&#45;&gt;Node4 -->
<g id="edge3" class="edge">
<title>Node3&#45;&gt;Node4</title>
<path fill="none" stroke="midnightblue" d="M83.54,-38.35C68.03,-36.02 52.59,-33.69 41,-31.94"/>
<polygon fill="midnightblue" stroke="midnightblue" points="83.29,-41.86 93.7,-39.89 84.33,-34.94 83.29,-41.86"/>
</g>
<!-- Node6 -->
<g id="node6" class="node">
<title>Node6</title>
<g id="a_node6"><a xlink:href="classViewController.html#ac54a72b053247207a1ee00cd07e3cb0e" target="_top" xlink:title="Handles mouse movement events for panning and zooming.">
<polygon fill="white" stroke="black" points="256,-0.5 256,-19.5 411,-19.5 411,-0.5 256,-0.5"/>
<text text-anchor="middle" x="333.5" y="-7.5" font-family="Helvetica,sans-Serif" font-size="10.00">ViewController::handleEvent</text>
</a>
</g>
</g>
<!-- Node5&#45;&gt;Node6 -->
<g id="edge5" class="edge">
<title>Node5&#45;&gt;Node6</title>
<path fill="none" stroke="midnightblue" d="M436.74,-10C428.13,-10 419.48,-10 411.06,-10"/>
<polygon fill="midnightblue" stroke="midnightblue" points="436.81,-13.5 446.81,-10 436.81,-6.5 436.81,-13.5"/>
</g>
<!-- Node7 -->
<g id="node7" class="node">
<title>Node7</title>
<g id="a_node7"><a xlink:href="classMapViewer.html#abcde24a9cc11f7e9ea3e6ef0d7ed6063" target="_top" xlink:title="Handles input events (mouse and keyboard)">
<polygon fill="white" stroke="black" points="77,-0.5 77,-19.5 220,-19.5 220,-0.5 77,-0.5"/>
<text text-anchor="middle" x="148.5" y="-7.5" font-family="Helvetica,sans-Serif" font-size="10.00">MapViewer::processEvent</text>
</a>
</g>
</g>
<!-- Node6&#45;&gt;Node7 -->
<g id="edge6" class="edge">
<title>Node6&#45;&gt;Node7</title>
<path fill="none" stroke="midnightblue" d="M245.89,-10C237.28,-10 228.61,-10 220.19,-10"/>
<polygon fill="midnightblue" stroke="midnightblue" points="245.95,-13.5 255.95,-10 245.95,-6.5 245.95,-13.5"/>
</g>
<!-- Node7&#45;&gt;Node4 -->
<g id="edge7" class="edge">
<title>Node7&#45;&gt;Node4</title>
<path fill="none" stroke="midnightblue" d="M73.88,-21.1C61.78,-22.93 50.22,-24.67 41.05,-26.05"/>
<polygon fill="midnightblue" stroke="midnightblue" points="74.76,-24.51 84.13,-19.56 73.72,-17.59 74.76,-24.51"/>
</g>
</g>
</svg>
