<?xml version="1.0" encoding="UTF-8" standalone="no"?>
<!DOCTYPE svg PUBLIC "-//W3C//DTD SVG 1.1//EN"
 "http://www.w3.org/Graphics/SVG/1.1/DTD/svg11.dtd">
<!-- Generated by graphviz version 2.43.0 (0)
 -->
<!-- Title: ViewController::reset Pages: 1 -->
<svg width="574pt" height="66pt"
 viewBox="0.00 0.00 574.00 66.00" xmlns="http://www.w3.org/2000/svg" xmlns:xlink="http://www.w3.org/1999/xlink">
<g id="graph0" class="graph" transform="scale(1 1) rotate(0) translate(4 62)">
<title>ViewController::reset</title>
<polygon fill="white" stroke="transparent" points="-4,4 -4,-62 570,-62 570,4 -4,4"/>
<!-- Node1 -->
<g id="node1" class="node">
<title>Node1</title>
<g id="a_node1"><a xlink:title="Resets the view to its default state.">
<polygon fill="#bfbfbf" stroke="black" points="447,-19.5 447,-38.5 566,-38.5 566,-19.5 447,-19.5"/>
<text text-anchor="middle" x="506.5" y="-26.5" font-family="Helvetica,sans-Serif" font-size="10.00">ViewController::reset</text>
</a>
</g>
</g>
<!-- Node2 -->
<g id="node2" class="node">
<title>Node2</title>
<g id="a_node2"><a xlink:href="classViewController.html#ac54a72b053247207a1ee00cd07e3cb0e" target="_top" xlink:title="Handles mouse movement events for panning and zooming.">
<polygon fill="white" stroke="black" points="256,-38.5 256,-57.5 411,-57.5 411,-38.5 256,-38.5"/>
<text text-anchor="middle" x="333.5" y="-45.5" font-family="Helvetica,sans-Serif" font-size="10.00">ViewController::handleEvent</text>
</a>
</g>
</g>
<!-- Node1&#45;&gt;Node2 -->
<g id="edge1" class="edge">
<title>Node1&#45;&gt;Node2</title>
<path fill="none" stroke="midnightblue" d="M436.61,-36.65C428.27,-37.58 419.72,-38.53 411.27,-39.47"/>
<polygon fill="midnightblue" stroke="midnightblue" points="437.1,-40.12 446.65,-35.54 436.33,-33.16 437.1,-40.12"/>
</g>
<!-- Node5 -->
<g id="node5" class="node">
<title>Node5</title>
<g id="a_node5"><a xlink:href="classMapViewer.html#a6690a879cd4af2058afccd2920c03c0d" target="_top" xlink:title="Constructor.">
<polygon fill="white" stroke="black" points="267.5,-0.5 267.5,-19.5 399.5,-19.5 399.5,-0.5 267.5,-0.5"/>
<text text-anchor="middle" x="333.5" y="-7.5" font-family="Helvetica,sans-Serif" font-size="10.00">MapViewer::MapViewer</text>
</a>
</g>
</g>
<!-- Node1&#45;&gt;Node5 -->
<g id="edge4" class="edge">
<title>Node1&#45;&gt;Node5</title>
<path fill="none" stroke="midnightblue" d="M436.54,-21.34C424.35,-19.98 411.69,-18.58 399.61,-17.23"/>
<polygon fill="midnightblue" stroke="midnightblue" points="436.33,-24.84 446.65,-22.46 437.1,-17.88 436.33,-24.84"/>
</g>
<!-- Node3 -->
<g id="node3" class="node">
<title>Node3</title>
<g id="a_node3"><a xlink:href="classMapViewer.html#abcde24a9cc11f7e9ea3e6ef0d7ed6063" target="_top" xlink:title="Handles input events (mouse and keyboard)">
<polygon fill="white" stroke="black" points="77,-38.5 77,-57.5 220,-57.5 220,-38.5 77,-38.5"/>
<text text-anchor="middle" x="148.5" y="-45.5" font-family="Helvetica,sans-Serif" font-size="10.00">MapViewer::processEvent</text>
</a>
</g>
</g>
<!-- Node2&#45;&gt;Node3 -->
<g id="edge2" class="edge">
<title>Node2&#45;&gt;Node3</title>
<path fill="none" stroke="midnightblue" d="M245.89,-48C237.28,-48 228.61,-48 220.19,-48"/>
<polygon fill="midnightblue" stroke="midnightblue" points="245.95,-51.5 255.95,-48 245.95,-44.5 245.95,-51.5"/>
</g>
<!-- Node4 -->
<g id="node4" class="node">
<title>Node4</title>
<g id="a_node4"><a xlink:href="main_8cpp.html#a3c04138a5bfe5d72780bb7e82a18e627" target="_top" xlink:title="Main entry point for the ARTG SLAM visualization node.">
<polygon fill="white" stroke="black" points="0,-38.5 0,-57.5 41,-57.5 41,-38.5 0,-38.5"/>
<text text-anchor="middle" x="20.5" y="-45.5" font-family="Helvetica,sans-Serif" font-size="10.00">main</text>
</a>
</g>
</g>
<!-- Node3&#45;&gt;Node4 -->
<g id="edge3" class="edge">
<title>Node3&#45;&gt;Node4</title>
<path fill="none" stroke="midnightblue" d="M66.74,-48C57.29,-48 48.42,-48 41.08,-48"/>
<polygon fill="midnightblue" stroke="midnightblue" points="66.77,-51.5 76.77,-48 66.77,-44.5 66.77,-51.5"/>
</g>
</g>
</svg>
