<?xml version="1.0" encoding="UTF-8" standalone="no"?>
<!DOCTYPE svg PUBLIC "-//W3C//DTD SVG 1.1//EN"
 "http://www.w3.org/Graphics/SVG/1.1/DTD/svg11.dtd">
<!-- Generated by graphviz version 2.43.0 (0)
 -->
<!-- Title: MapViewer::MapViewer Pages: 1 -->
<svg width="507pt" height="826pt"
 viewBox="0.00 0.00 507.00 826.00" xmlns="http://www.w3.org/2000/svg" xmlns:xlink="http://www.w3.org/1999/xlink">
<g id="graph0" class="graph" transform="scale(1 1) rotate(0) translate(4 822)">
<title>MapViewer::MapViewer</title>
<polygon fill="white" stroke="transparent" points="-4,4 -4,-822 503,-822 503,4 -4,4"/>
<!-- Node1 -->
<g id="node1" class="node">
<title>Node1</title>
<g id="a_node1"><a xlink:title="Constructor.">
<polygon fill="#bfbfbf" stroke="black" points="0,-247.5 0,-266.5 132,-266.5 132,-247.5 0,-247.5"/>
<text text-anchor="middle" x="66" y="-254.5" font-family="Helvetica,sans-Serif" font-size="10.00">MapViewer::MapViewer</text>
</a>
</g>
</g>
<!-- Node2 -->
<g id="node2" class="node">
<title>Node2</title>
<g id="a_node2"><a xlink:href="classGridMap.html#a3b0d08933b5ed6a07b081177ada50f01" target="_top" xlink:title="Clear the entire occupancy grid.">
<polygon fill="white" stroke="black" points="172,-684.5 172,-703.5 301,-703.5 301,-684.5 172,-684.5"/>
<text text-anchor="middle" x="236.5" y="-691.5" font-family="Helvetica,sans-Serif" font-size="10.00">GridMap::clearGridMap</text>
</a>
</g>
</g>
<!-- Node1&#45;&gt;Node2 -->
<g id="edge1" class="edge">
<title>Node1&#45;&gt;Node2</title>
<path fill="none" stroke="midnightblue" d="M68.03,-266.77C74.23,-323.78 108.3,-613.03 168,-675 169.39,-676.45 170.89,-677.79 172.46,-679.03"/>
<polygon fill="midnightblue" stroke="midnightblue" points="170.63,-682.01 180.94,-684.43 174.39,-676.1 170.63,-682.01"/>
</g>
<!-- Node3 -->
<g id="node3" class="node">
<title>Node3</title>
<g id="a_node3"><a xlink:href="classRightClickMapMenu.html#add5bb68773931eb8ba5cd455e6847dba" target="_top" xlink:title="Connects internal widget signals to their callbacks (e.g., button clicks).">
<polygon fill="white" stroke="black" points="176.5,-432 176.5,-462 296.5,-462 296.5,-432 176.5,-432"/>
<text text-anchor="start" x="184.5" y="-450" font-family="Helvetica,sans-Serif" font-size="10.00">RightClickMapMenu::</text>
<text text-anchor="middle" x="236.5" y="-439" font-family="Helvetica,sans-Serif" font-size="10.00">connectSignals</text>
</a>
</g>
</g>
<!-- Node1&#45;&gt;Node3 -->
<g id="edge2" class="edge">
<title>Node1&#45;&gt;Node3</title>
<path fill="none" stroke="midnightblue" d="M75.59,-266.68C101.3,-295.68 178.19,-382.38 215.18,-424.09"/>
<polygon fill="midnightblue" stroke="midnightblue" points="212.77,-426.64 222.02,-431.8 218,-421.99 212.77,-426.64"/>
</g>
<!-- Node9 -->
<g id="node9" class="node">
<title>Node9</title>
<g id="a_node9"><a xlink:href="classFileManager.html#ae8a61fd55c9a1b8ac7804420015f3385" target="_top" xlink:title="Opens a file dialog to select a file and loads its data into the map.">
<polygon fill="white" stroke="black" points="169.5,-646.5 169.5,-665.5 303.5,-665.5 303.5,-646.5 169.5,-646.5"/>
<text text-anchor="middle" x="236.5" y="-653.5" font-family="Helvetica,sans-Serif" font-size="10.00">FileManager::loadDialog</text>
</a>
</g>
</g>
<!-- Node1&#45;&gt;Node9 -->
<g id="edge8" class="edge">
<title>Node1&#45;&gt;Node9</title>
<path fill="none" stroke="midnightblue" d="M71.17,-266.86C93.34,-319.37 197.63,-566.32 227.49,-637.03"/>
<polygon fill="midnightblue" stroke="midnightblue" points="224.37,-638.63 231.48,-646.48 230.81,-635.91 224.37,-638.63"/>
</g>
<!-- Node17 -->
<g id="node17" class="node">
<title>Node17</title>
<g id="a_node17"><a xlink:href="classViewController.html#a3ef5b86c4b69837a4d90b3a16f84379f" target="_top" xlink:title="Resets the view to its default state.">
<polygon fill="white" stroke="black" points="177,-247.5 177,-266.5 296,-266.5 296,-247.5 177,-247.5"/>
<text text-anchor="middle" x="236.5" y="-254.5" font-family="Helvetica,sans-Serif" font-size="10.00">ViewController::reset</text>
</a>
</g>
</g>
<!-- Node1&#45;&gt;Node17 -->
<g id="edge16" class="edge">
<title>Node1&#45;&gt;Node17</title>
<path fill="none" stroke="midnightblue" d="M132.15,-257C143.42,-257 155.18,-257 166.55,-257"/>
<polygon fill="midnightblue" stroke="midnightblue" points="166.86,-260.5 176.86,-257 166.86,-253.5 166.86,-260.5"/>
</g>
<!-- Node18 -->
<g id="node18" class="node">
<title>Node18</title>
<g id="a_node18"><a xlink:href="classRobotCreator.html#a6aaa86f6cbd1426e862987d1f3d9f8fa" target="_top" xlink:title="Main loop entry point to run the creation window.">
<polygon fill="white" stroke="black" points="185,-171.5 185,-190.5 288,-190.5 288,-171.5 185,-171.5"/>
<text text-anchor="middle" x="236.5" y="-178.5" font-family="Helvetica,sans-Serif" font-size="10.00">RobotCreator::run</text>
</a>
</g>
</g>
<!-- Node1&#45;&gt;Node18 -->
<g id="edge17" class="edge">
<title>Node1&#45;&gt;Node18</title>
<path fill="none" stroke="midnightblue" d="M88.34,-247.37C117.84,-234.07 171.25,-209.98 204.97,-194.77"/>
<polygon fill="midnightblue" stroke="midnightblue" points="206.66,-197.85 214.33,-190.55 203.78,-191.47 206.66,-197.85"/>
</g>
<!-- Node23 -->
<g id="node23" class="node">
<title>Node23</title>
<g id="a_node23"><a xlink:href="classFileManager.html#aebbfa817fd1a8055c738128a22fe0f6f" target="_top" xlink:title="Opens a file dialog to save the current data (coordinates).">
<polygon fill="white" stroke="black" points="168,-323.5 168,-342.5 305,-342.5 305,-323.5 168,-323.5"/>
<text text-anchor="middle" x="236.5" y="-330.5" font-family="Helvetica,sans-Serif" font-size="10.00">FileManager::saveDialog</text>
</a>
</g>
</g>
<!-- Node1&#45;&gt;Node23 -->
<g id="edge22" class="edge">
<title>Node1&#45;&gt;Node23</title>
<path fill="none" stroke="midnightblue" d="M88.34,-266.63C117.84,-279.93 171.25,-304.02 204.97,-319.23"/>
<polygon fill="midnightblue" stroke="midnightblue" points="203.78,-322.53 214.33,-323.45 206.66,-316.15 203.78,-322.53"/>
</g>
<!-- Node28 -->
<g id="node28" class="node">
<title>Node28</title>
<g id="a_node28"><a xlink:href="classMenuBar.html#a431f81a34ec89382bfaf5054cf518109" target="_top" xlink:title="Sets the callback functions for each menu option:">
<polygon fill="white" stroke="black" points="172.5,-133.5 172.5,-152.5 300.5,-152.5 300.5,-133.5 172.5,-133.5"/>
<text text-anchor="middle" x="236.5" y="-140.5" font-family="Helvetica,sans-Serif" font-size="10.00">MenuBar::setCallbacks</text>
</a>
</g>
</g>
<!-- Node1&#45;&gt;Node28 -->
<g id="edge30" class="edge">
<title>Node1&#45;&gt;Node28</title>
<path fill="none" stroke="midnightblue" d="M74.51,-247.32C89.92,-228.13 127.14,-185.1 168,-162 171.92,-159.78 176.12,-157.81 180.43,-156.06"/>
<polygon fill="midnightblue" stroke="midnightblue" points="181.8,-159.28 189.99,-152.56 179.4,-152.71 181.8,-159.28"/>
</g>
<!-- Node29 -->
<g id="node29" class="node">
<title>Node29</title>
<g id="a_node29"><a xlink:href="classAStar.html#addce30fb4dd4735c1e0275b93324b2cc" target="_top" xlink:title="Initializes the A* algorithm.">
<polygon fill="white" stroke="black" points="201,-86.5 201,-105.5 272,-105.5 272,-86.5 201,-86.5"/>
<text text-anchor="middle" x="236.5" y="-93.5" font-family="Helvetica,sans-Serif" font-size="10.00">AStar::start</text>
</a>
</g>
</g>
<!-- Node1&#45;&gt;Node29 -->
<g id="edge31" class="edge">
<title>Node1&#45;&gt;Node29</title>
<path fill="none" stroke="midnightblue" d="M72.01,-247.24C84.84,-223.14 121.18,-160.14 168,-124 175.52,-118.19 184.42,-113.39 193.25,-109.49"/>
<polygon fill="midnightblue" stroke="midnightblue" points="194.8,-112.64 202.73,-105.62 192.15,-106.16 194.8,-112.64"/>
</g>
<!-- Node31 -->
<g id="node31" class="node">
<title>Node31</title>
<g id="a_node31"><a xlink:href="classAStar.html#afaaae98c48d75edf9479adf38d68affe" target="_top" xlink:title="Updates the internal state map based on the current GridMap.">
<polygon fill="white" stroke="black" points="184.5,-29.5 184.5,-48.5 288.5,-48.5 288.5,-29.5 184.5,-29.5"/>
<text text-anchor="middle" x="236.5" y="-36.5" font-family="Helvetica,sans-Serif" font-size="10.00">AStar::updatemap</text>
</a>
</g>
</g>
<!-- Node1&#45;&gt;Node31 -->
<g id="edge33" class="edge">
<title>Node1&#45;&gt;Node31</title>
<path fill="none" stroke="midnightblue" d="M70.31,-247.23C80.6,-218.09 114.57,-130.5 168,-77 177.75,-67.24 190.52,-59.2 202.33,-53.07"/>
<polygon fill="midnightblue" stroke="midnightblue" points="204.08,-56.11 211.52,-48.56 201,-49.82 204.08,-56.11"/>
</g>
<!-- Node4 -->
<g id="node4" class="node">
<title>Node4</title>
<g id="a_node4"><a xlink:href="classGridMap.html#a3d6043e9e2cd951f5df2958b9d13b3e9" target="_top" xlink:title="Clear start or goal markers from a cell.">
<polygon fill="white" stroke="black" points="353,-494.5 353,-513.5 487,-513.5 487,-494.5 353,-494.5"/>
<text text-anchor="middle" x="420" y="-501.5" font-family="Helvetica,sans-Serif" font-size="10.00">GridMap::clearSetPoints</text>
</a>
</g>
</g>
<!-- Node3&#45;&gt;Node4 -->
<g id="edge3" class="edge">
<title>Node3&#45;&gt;Node4</title>
<path fill="none" stroke="midnightblue" d="M275.49,-462.12C294.91,-469.55 319.03,-478.31 341,-485 349.05,-487.45 357.64,-489.8 366.07,-491.96"/>
<polygon fill="midnightblue" stroke="midnightblue" points="365.3,-495.38 375.85,-494.41 367,-488.59 365.3,-495.38"/>
</g>
<!-- Node5 -->
<g id="node5" class="node">
<title>Node5</title>
<g id="a_node5"><a xlink:href="classLiveMap.html#ae9af41b07f81f3dc2e021d5dd683093e" target="_top" xlink:title="Returns whether live mode is currently active.">
<polygon fill="white" stroke="black" points="360.5,-380.5 360.5,-399.5 479.5,-399.5 479.5,-380.5 360.5,-380.5"/>
<text text-anchor="middle" x="420" y="-387.5" font-family="Helvetica,sans-Serif" font-size="10.00">LiveMap::getIsActive</text>
</a>
</g>
</g>
<!-- Node3&#45;&gt;Node5 -->
<g id="edge4" class="edge">
<title>Node3&#45;&gt;Node5</title>
<path fill="none" stroke="midnightblue" d="M275.49,-431.88C294.91,-424.45 319.03,-415.69 341,-409 349.05,-406.55 357.64,-404.2 366.07,-402.04"/>
<polygon fill="midnightblue" stroke="midnightblue" points="367,-405.41 375.85,-399.59 365.3,-398.62 367,-405.41"/>
</g>
<!-- Node6 -->
<g id="node6" class="node">
<title>Node6</title>
<g id="a_node6"><a xlink:href="classRightClickMapMenu.html#a2c5b4eeacd87606b754a6d190252acef" target="_top" xlink:title="Hides the context menu.">
<polygon fill="white" stroke="black" points="349.5,-456.5 349.5,-475.5 490.5,-475.5 490.5,-456.5 349.5,-456.5"/>
<text text-anchor="middle" x="420" y="-463.5" font-family="Helvetica,sans-Serif" font-size="10.00">RightClickMapMenu::hide</text>
</a>
</g>
</g>
<!-- Node3&#45;&gt;Node6 -->
<g id="edge5" class="edge">
<title>Node3&#45;&gt;Node6</title>
<path fill="none" stroke="midnightblue" d="M296.68,-453.2C310.25,-454.62 324.89,-456.15 339.17,-457.64"/>
<polygon fill="midnightblue" stroke="midnightblue" points="339.17,-461.16 349.48,-458.72 339.9,-454.2 339.17,-461.16"/>
</g>
<!-- Node7 -->
<g id="node7" class="node">
<title>Node7</title>
<g id="a_node7"><a xlink:href="classGridMap.html#a063197bc2b493578f0da0905a2e7dd90" target="_top" xlink:title="Set the goal point in the grid (stored as ASCII &#39;g&#39;).">
<polygon fill="white" stroke="black" points="369.5,-418.5 369.5,-437.5 470.5,-437.5 470.5,-418.5 369.5,-418.5"/>
<text text-anchor="middle" x="420" y="-425.5" font-family="Helvetica,sans-Serif" font-size="10.00">GridMap::setGoal</text>
</a>
</g>
</g>
<!-- Node3&#45;&gt;Node7 -->
<g id="edge6" class="edge">
<title>Node3&#45;&gt;Node7</title>
<path fill="none" stroke="midnightblue" d="M296.68,-440.8C316.77,-438.7 339.21,-436.35 359.34,-434.25"/>
<polygon fill="midnightblue" stroke="midnightblue" points="359.74,-437.72 369.32,-433.2 359.01,-430.76 359.74,-437.72"/>
</g>
<!-- Node8 -->
<g id="node8" class="node">
<title>Node8</title>
<g id="a_node8"><a xlink:href="classLiveMap.html#a347e694d1d773cd4b6dae3619ece738e" target="_top" xlink:title="Sets a special goal cell in the grid (value = &#39;g&#39;)">
<polygon fill="white" stroke="black" points="369.5,-608.5 369.5,-627.5 470.5,-627.5 470.5,-608.5 369.5,-608.5"/>
<text text-anchor="middle" x="420" y="-615.5" font-family="Helvetica,sans-Serif" font-size="10.00">LiveMap::setGoal</text>
</a>
</g>
</g>
<!-- Node3&#45;&gt;Node8 -->
<g id="edge7" class="edge">
<title>Node3&#45;&gt;Node8</title>
<path fill="none" stroke="midnightblue" d="M243.42,-462.26C256.22,-493.19 289.57,-563.36 341,-599 346.62,-602.89 352.95,-605.99 359.51,-608.46"/>
<polygon fill="midnightblue" stroke="midnightblue" points="358.64,-611.86 369.23,-611.64 360.81,-605.2 358.64,-611.86"/>
</g>
<!-- Node10 -->
<g id="node10" class="node">
<title>Node10</title>
<g id="a_node10"><a xlink:href="classFileManager.html#ad30d0502c151865459ba32f7f3880477" target="_top" xlink:title="Loads coordinate data from a file into x and y vectors.">
<polygon fill="white" stroke="black" points="356.5,-760.5 356.5,-779.5 483.5,-779.5 483.5,-760.5 356.5,-760.5"/>
<text text-anchor="middle" x="420" y="-767.5" font-family="Helvetica,sans-Serif" font-size="10.00">FileManager::dataLoad</text>
</a>
</g>
</g>
<!-- Node9&#45;&gt;Node10 -->
<g id="edge9" class="edge">
<title>Node9&#45;&gt;Node10</title>
<path fill="none" stroke="midnightblue" d="M289.59,-665.63C295.16,-668.08 300.44,-671.15 305,-675 333.55,-699.12 312.02,-727.39 341,-751 343.08,-752.69 345.29,-754.24 347.59,-755.65"/>
<polygon fill="midnightblue" stroke="midnightblue" points="346.41,-758.98 356.9,-760.46 349.62,-752.76 346.41,-758.98"/>
</g>
<!-- Node11 -->
<g id="node11" class="node">
<title>Node11</title>
<g id="a_node11"><a xlink:href="classGridMap.html#ad404a1752c771bd142a46e579c47ec6d" target="_top" xlink:title="Fill the occupancy grid using grid index vectors.">
<polygon fill="white" stroke="black" points="371.5,-722.5 371.5,-741.5 468.5,-741.5 468.5,-722.5 371.5,-722.5"/>
<text text-anchor="middle" x="420" y="-729.5" font-family="Helvetica,sans-Serif" font-size="10.00">GridMap::fillGrid</text>
</a>
</g>
</g>
<!-- Node9&#45;&gt;Node11 -->
<g id="edge10" class="edge">
<title>Node9&#45;&gt;Node11</title>
<path fill="none" stroke="midnightblue" d="M284.26,-665.59C291.48,-668.07 298.64,-671.16 305,-675 324.91,-687.03 320.88,-701.33 341,-713 347.3,-716.65 354.28,-719.61 361.39,-722"/>
<polygon fill="midnightblue" stroke="midnightblue" points="360.55,-725.4 371.13,-724.91 362.56,-718.69 360.55,-725.4"/>
</g>
<!-- Node12 -->
<g id="node12" class="node">
<title>Node12</title>
<g id="a_node12"><a xlink:href="classGridMap.html#ad20af94e5a3cc2872a274a732b5e3f72" target="_top" xlink:title="Getters for real&#45;world x coordinates.">
<polygon fill="white" stroke="black" points="366,-570.5 366,-589.5 474,-589.5 474,-570.5 366,-570.5"/>
<text text-anchor="middle" x="420" y="-577.5" font-family="Helvetica,sans-Serif" font-size="10.00">GridMap::getRealX</text>
</a>
</g>
</g>
<!-- Node9&#45;&gt;Node12 -->
<g id="edge11" class="edge">
<title>Node9&#45;&gt;Node12</title>
<path fill="none" stroke="midnightblue" d="M251.98,-646.4C271.46,-633.88 307.55,-612.02 341,-599 347.37,-596.52 354.16,-594.29 360.98,-592.31"/>
<polygon fill="midnightblue" stroke="midnightblue" points="362.22,-595.6 370.95,-589.59 360.38,-588.85 362.22,-595.6"/>
</g>
<!-- Node13 -->
<g id="node13" class="node">
<title>Node13</title>
<g id="a_node13"><a xlink:href="classGridMap.html#af4fe1dc74416535a7463b7e168a326d1" target="_top" xlink:title="Getters for real&#45;world y coordinates.">
<polygon fill="white" stroke="black" points="366.5,-532.5 366.5,-551.5 473.5,-551.5 473.5,-532.5 366.5,-532.5"/>
<text text-anchor="middle" x="420" y="-539.5" font-family="Helvetica,sans-Serif" font-size="10.00">GridMap::getRealY</text>
</a>
</g>
</g>
<!-- Node9&#45;&gt;Node13 -->
<g id="edge12" class="edge">
<title>Node9&#45;&gt;Node13</title>
<path fill="none" stroke="midnightblue" d="M245.18,-646.21C260.96,-626.8 299.05,-583.42 341,-561 345.92,-558.37 351.2,-556.1 356.62,-554.14"/>
<polygon fill="midnightblue" stroke="midnightblue" points="358.04,-557.36 366.46,-550.94 355.87,-550.7 358.04,-557.36"/>
</g>
<!-- Node14 -->
<g id="node14" class="node">
<title>Node14</title>
<g id="a_node14"><a xlink:href="classGridMap.html#a83c5f50b869d134d31a43e58a7757eac" target="_top" xlink:title="Replace all current points with new ones.">
<polygon fill="white" stroke="black" points="365.5,-684.5 365.5,-703.5 474.5,-703.5 474.5,-684.5 365.5,-684.5"/>
<text text-anchor="middle" x="420" y="-691.5" font-family="Helvetica,sans-Serif" font-size="10.00">GridMap::setPoints</text>
</a>
</g>
</g>
<!-- Node9&#45;&gt;Node14 -->
<g id="edge13" class="edge">
<title>Node9&#45;&gt;Node14</title>
<path fill="none" stroke="midnightblue" d="M283.3,-665.59C307.68,-670.69 337.86,-677.01 363.56,-682.39"/>
<polygon fill="midnightblue" stroke="midnightblue" points="363.02,-685.86 373.53,-684.48 364.46,-679 363.02,-685.86"/>
</g>
<!-- Node15 -->
<g id="node15" class="node">
<title>Node15</title>
<g id="a_node15"><a xlink:href="tinyfiledialogs_8h.html#a8918e9f47e1532c1d055f563a32b215c" target="_top" xlink:title=" ">
<polygon fill="white" stroke="black" points="359,-646.5 359,-665.5 481,-665.5 481,-646.5 359,-646.5"/>
<text text-anchor="middle" x="420" y="-653.5" font-family="Helvetica,sans-Serif" font-size="10.00">tinyfd_openFileDialog</text>
</a>
</g>
</g>
<!-- Node9&#45;&gt;Node15 -->
<g id="edge14" class="edge">
<title>Node9&#45;&gt;Node15</title>
<path fill="none" stroke="midnightblue" d="M303.54,-656C318.2,-656 333.79,-656 348.61,-656"/>
<polygon fill="midnightblue" stroke="midnightblue" points="348.73,-659.5 358.73,-656 348.73,-652.5 348.73,-659.5"/>
</g>
<!-- Node16 -->
<g id="node16" class="node">
<title>Node16</title>
<g id="a_node16"><a xlink:href="classGridMap.html#a41f7d52629250938bd87dac7c8cfbb76" target="_top" xlink:title="Convert real&#45;world coordinates to grid indices.">
<polygon fill="white" stroke="black" points="369,-798.5 369,-817.5 471,-817.5 471,-798.5 369,-798.5"/>
<text text-anchor="middle" x="420" y="-805.5" font-family="Helvetica,sans-Serif" font-size="10.00">GridMap::xy2Grid</text>
</a>
</g>
</g>
<!-- Node9&#45;&gt;Node16 -->
<g id="edge15" class="edge">
<title>Node9&#45;&gt;Node16</title>
<path fill="none" stroke="midnightblue" d="M291.13,-665.51C296.22,-667.99 300.98,-671.1 305,-675 343.16,-711.97 302.19,-752.71 341,-789 346.13,-793.8 352.26,-797.44 358.8,-800.2"/>
<polygon fill="midnightblue" stroke="midnightblue" points="358.02,-803.64 368.61,-803.64 360.33,-797.03 358.02,-803.64"/>
</g>
<!-- Node19 -->
<g id="node19" class="node">
<title>Node19</title>
<g id="a_node19"><a xlink:href="classRobotCreator.html#a55c3f93cf65404a5c334c6a4be5ab67e" target="_top" xlink:title="Returns true if the creation window is currently open and running.">
<polygon fill="white" stroke="black" points="352.5,-114.5 352.5,-133.5 487.5,-133.5 487.5,-114.5 352.5,-114.5"/>
<text text-anchor="middle" x="420" y="-121.5" font-family="Helvetica,sans-Serif" font-size="10.00">RobotCreator::isRunning</text>
</a>
</g>
</g>
<!-- Node18&#45;&gt;Node19 -->
<g id="edge18" class="edge">
<title>Node18&#45;&gt;Node19</title>
<path fill="none" stroke="midnightblue" d="M276.87,-171.43C286.22,-168.74 296.07,-165.57 305,-162 321.8,-155.29 324.08,-149.41 341,-143 347.72,-140.45 354.9,-138.16 362.08,-136.13"/>
<polygon fill="midnightblue" stroke="midnightblue" points="363.07,-139.48 371.82,-133.51 361.25,-132.72 363.07,-139.48"/>
</g>
<!-- Node20 -->
<g id="node20" class="node">
<title>Node20</title>
<g id="a_node20"><a xlink:href="classRobotCreator.html#a296898214fd76575c63de36ae1c5481f" target="_top" xlink:title="Handles user input events like keyboard and mouse.">
<polygon fill="white" stroke="black" points="341,-76.5 341,-95.5 499,-95.5 499,-76.5 341,-76.5"/>
<text text-anchor="middle" x="420" y="-83.5" font-family="Helvetica,sans-Serif" font-size="10.00">RobotCreator::processEvents</text>
</a>
</g>
</g>
<!-- Node18&#45;&gt;Node20 -->
<g id="edge19" class="edge">
<title>Node18&#45;&gt;Node20</title>
<path fill="none" stroke="midnightblue" d="M287.76,-171.38C293.9,-168.93 299.83,-165.86 305,-162 329.02,-144.08 316.67,-122.49 341,-105 343.72,-103.05 346.61,-101.29 349.62,-99.72"/>
<polygon fill="midnightblue" stroke="midnightblue" points="351.28,-102.81 358.96,-95.51 348.4,-96.43 351.28,-102.81"/>
</g>
<!-- Node21 -->
<g id="node21" class="node">
<title>Node21</title>
<g id="a_node21"><a xlink:href="classRobotCreator.html#ad774a314cafeb9eee4187a295b5739d1" target="_top" xlink:title="Renders the GUI window and widgets.">
<polygon fill="white" stroke="black" points="360.5,-190.5 360.5,-209.5 479.5,-209.5 479.5,-190.5 360.5,-190.5"/>
<text text-anchor="middle" x="420" y="-197.5" font-family="Helvetica,sans-Serif" font-size="10.00">RobotCreator::render</text>
</a>
</g>
</g>
<!-- Node18&#45;&gt;Node21 -->
<g id="edge20" class="edge">
<title>Node18&#45;&gt;Node21</title>
<path fill="none" stroke="midnightblue" d="M288.06,-186.29C307.35,-188.31 329.67,-190.65 350.37,-192.82"/>
<polygon fill="midnightblue" stroke="midnightblue" points="350.06,-196.3 360.37,-193.86 350.79,-189.34 350.06,-196.3"/>
</g>
<!-- Node22 -->
<g id="node22" class="node">
<title>Node22</title>
<g id="a_node22"><a xlink:href="classRobotCreator.html#a3b1852ea68b66abab751226c1cb6820f" target="_top" xlink:title="Updates internal state and GUI elements each frame.">
<polygon fill="white" stroke="black" points="359.5,-152.5 359.5,-171.5 480.5,-171.5 480.5,-152.5 359.5,-152.5"/>
<text text-anchor="middle" x="420" y="-159.5" font-family="Helvetica,sans-Serif" font-size="10.00">RobotCreator::update</text>
</a>
</g>
</g>
<!-- Node18&#45;&gt;Node22 -->
<g id="edge21" class="edge">
<title>Node18&#45;&gt;Node22</title>
<path fill="none" stroke="midnightblue" d="M288.06,-175.71C306.99,-173.73 328.85,-171.44 349.22,-169.31"/>
<polygon fill="midnightblue" stroke="midnightblue" points="349.81,-172.76 359.39,-168.24 349.08,-165.8 349.81,-172.76"/>
</g>
<!-- Node23&#45;&gt;Node5 -->
<g id="edge23" class="edge">
<title>Node23&#45;&gt;Node5</title>
<path fill="none" stroke="midnightblue" d="M261.08,-342.53C281.9,-350.72 313.17,-362.53 341,-371 349.05,-373.45 357.64,-375.8 366.07,-377.96"/>
<polygon fill="midnightblue" stroke="midnightblue" points="365.3,-381.38 375.85,-380.41 367,-374.59 365.3,-381.38"/>
</g>
<!-- Node23&#45;&gt;Node12 -->
<g id="edge24" class="edge">
<title>Node23&#45;&gt;Node12</title>
<path fill="none" stroke="midnightblue" d="M246.81,-342.67C261.35,-358.3 289.39,-390.63 305,-423 332.53,-480.09 295.82,-516.54 341,-561 345.39,-565.32 350.59,-568.72 356.19,-571.38"/>
<polygon fill="midnightblue" stroke="midnightblue" points="355.33,-574.8 365.92,-575.19 357.89,-568.28 355.33,-574.8"/>
</g>
<!-- Node23&#45;&gt;Node13 -->
<g id="edge26" class="edge">
<title>Node23&#45;&gt;Node13</title>
<path fill="none" stroke="midnightblue" d="M246.47,-342.85C260.54,-358.71 287.94,-391.37 305,-423 327.42,-464.58 305.87,-491.43 341,-523 345.69,-527.22 351.17,-530.54 357,-533.15"/>
<polygon fill="midnightblue" stroke="midnightblue" points="355.8,-536.44 366.39,-536.69 358.27,-529.89 355.8,-536.44"/>
</g>
<!-- Node24 -->
<g id="node24" class="node">
<title>Node24</title>
<g id="a_node24"><a xlink:href="classLiveMap.html#a67c0957dbfe3d3c375359b039cd3612a" target="_top" xlink:title="Getters for real&#45;world x coordinates.">
<polygon fill="white" stroke="black" points="366,-266.5 366,-285.5 474,-285.5 474,-266.5 366,-266.5"/>
<text text-anchor="middle" x="420" y="-273.5" font-family="Helvetica,sans-Serif" font-size="10.00">LiveMap::getRealX</text>
</a>
</g>
</g>
<!-- Node23&#45;&gt;Node24 -->
<g id="edge25" class="edge">
<title>Node23&#45;&gt;Node24</title>
<path fill="none" stroke="midnightblue" d="M261.08,-323.47C281.9,-315.28 313.17,-303.47 341,-295 349.05,-292.55 357.64,-290.2 366.07,-288.04"/>
<polygon fill="midnightblue" stroke="midnightblue" points="367,-291.41 375.85,-285.59 365.3,-284.62 367,-291.41"/>
</g>
<!-- Node25 -->
<g id="node25" class="node">
<title>Node25</title>
<g id="a_node25"><a xlink:href="classLiveMap.html#ac7ca767a14f0376869e63be6e246001e" target="_top" xlink:title="Getters for real&#45;world y coordinates.">
<polygon fill="white" stroke="black" points="366.5,-228.5 366.5,-247.5 473.5,-247.5 473.5,-228.5 366.5,-228.5"/>
<text text-anchor="middle" x="420" y="-235.5" font-family="Helvetica,sans-Serif" font-size="10.00">LiveMap::getRealY</text>
</a>
</g>
</g>
<!-- Node23&#45;&gt;Node25 -->
<g id="edge27" class="edge">
<title>Node23&#45;&gt;Node25</title>
<path fill="none" stroke="midnightblue" d="M247.77,-323.25C265.41,-307.05 303.22,-274.61 341,-257 346.26,-254.55 351.87,-252.39 357.58,-250.5"/>
<polygon fill="midnightblue" stroke="midnightblue" points="358.7,-253.82 367.24,-247.56 356.66,-247.12 358.7,-253.82"/>
</g>
<!-- Node26 -->
<g id="node26" class="node">
<title>Node26</title>
<g id="a_node26"><a xlink:href="classFileManager.html#ae4178789b8d0ae7653db505ba276640a" target="_top" xlink:title="Saves x and y coordinate data to a file.">
<polygon fill="white" stroke="black" points="356,-342.5 356,-361.5 484,-361.5 484,-342.5 356,-342.5"/>
<text text-anchor="middle" x="420" y="-349.5" font-family="Helvetica,sans-Serif" font-size="10.00">FileManager::saveData</text>
</a>
</g>
</g>
<!-- Node23&#45;&gt;Node26 -->
<g id="edge28" class="edge">
<title>Node23&#45;&gt;Node26</title>
<path fill="none" stroke="midnightblue" d="M305.08,-340.07C318.34,-341.46 332.29,-342.92 345.72,-344.33"/>
<polygon fill="midnightblue" stroke="midnightblue" points="345.56,-347.83 355.87,-345.39 346.29,-340.87 345.56,-347.83"/>
</g>
<!-- Node27 -->
<g id="node27" class="node">
<title>Node27</title>
<g id="a_node27"><a xlink:href="tinyfiledialogs_8h.html#a7a17e17150593bf3b04253ea819fc5bc" target="_top" xlink:title=" ">
<polygon fill="white" stroke="black" points="359,-304.5 359,-323.5 481,-323.5 481,-304.5 359,-304.5"/>
<text text-anchor="middle" x="420" y="-311.5" font-family="Helvetica,sans-Serif" font-size="10.00">tinyfd_saveFileDialog</text>
</a>
</g>
</g>
<!-- Node23&#45;&gt;Node27 -->
<g id="edge29" class="edge">
<title>Node23&#45;&gt;Node27</title>
<path fill="none" stroke="midnightblue" d="M305.08,-325.93C319.28,-324.44 334.28,-322.87 348.57,-321.37"/>
<polygon fill="midnightblue" stroke="midnightblue" points="349.25,-324.82 358.83,-320.3 348.52,-317.86 349.25,-324.82"/>
</g>
<!-- Node30 -->
<g id="node30" class="node">
<title>Node30</title>
<g id="a_node30"><a xlink:href="classAStar.html#aa9a1a3a53f000075f201cf6373e8c912" target="_top" xlink:title="Octile distance heuristic (better suited for 8&#45;connected grids).">
<polygon fill="white" stroke="black" points="360.5,-38.5 360.5,-57.5 479.5,-57.5 479.5,-38.5 360.5,-38.5"/>
<text text-anchor="middle" x="420" y="-45.5" font-family="Helvetica,sans-Serif" font-size="10.00">AStar::octileHeuristic</text>
</a>
</g>
</g>
<!-- Node29&#45;&gt;Node30 -->
<g id="edge32" class="edge">
<title>Node29&#45;&gt;Node30</title>
<path fill="none" stroke="midnightblue" d="M270.52,-86.44C290.8,-80.64 317.35,-73.19 341,-67 350.01,-64.64 359.63,-62.22 368.93,-59.93"/>
<polygon fill="midnightblue" stroke="midnightblue" points="369.97,-63.28 378.85,-57.5 368.31,-56.48 369.97,-63.28"/>
</g>
<!-- Node32 -->
<g id="node32" class="node">
<title>Node32</title>
<g id="a_node32"><a xlink:href="classGridMap.html#abed9c97e44c2302a1586de01ed369c10" target="_top" xlink:title="Get a const reference to the occupancy grid.">
<polygon fill="white" stroke="black" points="370,-0.5 370,-19.5 470,-19.5 470,-0.5 370,-0.5"/>
<text text-anchor="middle" x="420" y="-7.5" font-family="Helvetica,sans-Serif" font-size="10.00">GridMap::getGrid</text>
</a>
</g>
</g>
<!-- Node31&#45;&gt;Node32 -->
<g id="edge34" class="edge">
<title>Node31&#45;&gt;Node32</title>
<path fill="none" stroke="midnightblue" d="M288.54,-30.84C310.74,-27.3 336.88,-23.12 359.91,-19.44"/>
<polygon fill="midnightblue" stroke="midnightblue" points="360.58,-22.88 369.9,-17.84 359.48,-15.97 360.58,-22.88"/>
</g>
</g>
</svg>
