<?xml version="1.0" encoding="UTF-8" standalone="no"?>
<!DOCTYPE svg PUBLIC "-//W3C//DTD SVG 1.1//EN"
 "http://www.w3.org/Graphics/SVG/1.1/DTD/svg11.dtd">
<!-- Generated by graphviz version 2.43.0 (0)
 -->
<!-- Title: include/artgslam_vsc/GridMap.hpp Pages: 1 -->
<svg width="642pt" height="229pt"
 viewBox="0.00 0.00 641.50 229.00" xmlns="http://www.w3.org/2000/svg" xmlns:xlink="http://www.w3.org/1999/xlink">
<g id="graph0" class="graph" transform="scale(1 1) rotate(0) translate(4 225)">
<title>include/artgslam_vsc/GridMap.hpp</title>
<polygon fill="white" stroke="transparent" points="-4,4 -4,-225 637.5,-225 637.5,4 -4,4"/>
<!-- Node1 -->
<g id="node1" class="node">
<title>Node1</title>
<g id="a_node1"><a xlink:title=" ">
<polygon fill="#bfbfbf" stroke="black" points="181.5,-190.5 181.5,-220.5 301.5,-220.5 301.5,-190.5 181.5,-190.5"/>
<text text-anchor="start" x="189.5" y="-208.5" font-family="Helvetica,sans-Serif" font-size="10.00">include/artgslam_vsc</text>
<text text-anchor="middle" x="241.5" y="-197.5" font-family="Helvetica,sans-Serif" font-size="10.00">/GridMap.hpp</text>
</a>
</g>
</g>
<!-- Node2 -->
<g id="node2" class="node">
<title>Node2</title>
<g id="a_node2"><a xlink:href="GridMap_8cpp.html" target="_top" xlink:title=" ">
<polygon fill="white" stroke="black" points="0,-62 0,-81 95,-81 95,-62 0,-62"/>
<text text-anchor="middle" x="47.5" y="-69" font-family="Helvetica,sans-Serif" font-size="10.00">src/GridMap.cpp</text>
</a>
</g>
</g>
<!-- Node1&#45;&gt;Node2 -->
<g id="edge1" class="edge">
<title>Node1&#45;&gt;Node2</title>
<path fill="none" stroke="midnightblue" d="M171.32,-194.85C141.66,-187.74 108.51,-175.39 84.5,-154 62.11,-134.05 52.45,-97.86 49.05,-81.25"/>
<polygon fill="midnightblue" stroke="midnightblue" points="170.71,-198.3 181.23,-197.07 172.24,-191.47 170.71,-198.3"/>
</g>
<!-- Node3 -->
<g id="node3" class="node">
<title>Node3</title>
<g id="a_node3"><a xlink:href="AStar_8hpp.html" target="_top" xlink:title=" ">
<polygon fill="white" stroke="black" points="93.5,-123.5 93.5,-153.5 213.5,-153.5 213.5,-123.5 93.5,-123.5"/>
<text text-anchor="start" x="101.5" y="-141.5" font-family="Helvetica,sans-Serif" font-size="10.00">include/artgslam_vsc</text>
<text text-anchor="middle" x="153.5" y="-130.5" font-family="Helvetica,sans-Serif" font-size="10.00">/AStar.hpp</text>
</a>
</g>
</g>
<!-- Node1&#45;&gt;Node3 -->
<g id="edge2" class="edge">
<title>Node1&#45;&gt;Node3</title>
<path fill="none" stroke="midnightblue" d="M214.36,-184.45C200.82,-174.45 184.77,-162.6 172.56,-153.58"/>
<polygon fill="midnightblue" stroke="midnightblue" points="212.28,-187.27 222.41,-190.4 216.44,-181.64 212.28,-187.27"/>
</g>
<!-- Node5 -->
<g id="node5" class="node">
<title>Node5</title>
<g id="a_node5"><a xlink:href="MapViewer_8hpp.html" target="_top" xlink:title=" ">
<polygon fill="white" stroke="black" points="211.5,-56.5 211.5,-86.5 331.5,-86.5 331.5,-56.5 211.5,-56.5"/>
<text text-anchor="start" x="219.5" y="-74.5" font-family="Helvetica,sans-Serif" font-size="10.00">include/artgslam_vsc</text>
<text text-anchor="middle" x="271.5" y="-63.5" font-family="Helvetica,sans-Serif" font-size="10.00">/MapViewer.hpp</text>
</a>
</g>
</g>
<!-- Node1&#45;&gt;Node5 -->
<g id="edge11" class="edge">
<title>Node1&#45;&gt;Node5</title>
<path fill="none" stroke="midnightblue" d="M246.98,-180.39C253.23,-152.9 263.23,-108.89 268.31,-86.52"/>
<polygon fill="midnightblue" stroke="midnightblue" points="243.51,-179.85 244.71,-190.37 250.34,-181.4 243.51,-179.85"/>
</g>
<!-- Node8 -->
<g id="node8" class="node">
<title>Node8</title>
<g id="a_node8"><a xlink:href="FileManager_8hpp.html" target="_top" xlink:title=" ">
<polygon fill="white" stroke="black" points="269.5,-123.5 269.5,-153.5 389.5,-153.5 389.5,-123.5 269.5,-123.5"/>
<text text-anchor="start" x="277.5" y="-141.5" font-family="Helvetica,sans-Serif" font-size="10.00">include/artgslam_vsc</text>
<text text-anchor="middle" x="329.5" y="-130.5" font-family="Helvetica,sans-Serif" font-size="10.00">/FileManager.hpp</text>
</a>
</g>
</g>
<!-- Node1&#45;&gt;Node8 -->
<g id="edge8" class="edge">
<title>Node1&#45;&gt;Node8</title>
<path fill="none" stroke="midnightblue" d="M268.64,-184.45C282.18,-174.45 298.23,-162.6 310.44,-153.58"/>
<polygon fill="midnightblue" stroke="midnightblue" points="266.56,-181.64 260.59,-190.4 270.72,-187.27 266.56,-181.64"/>
</g>
<!-- Node10 -->
<g id="node10" class="node">
<title>Node10</title>
<g id="a_node10"><a xlink:href="RightClickMapMenu_8hpp.html" target="_top" xlink:title=" ">
<polygon fill="white" stroke="black" points="407.5,-123.5 407.5,-153.5 545.5,-153.5 545.5,-123.5 407.5,-123.5"/>
<text text-anchor="start" x="415.5" y="-141.5" font-family="Helvetica,sans-Serif" font-size="10.00">include/artgslam_vsc</text>
<text text-anchor="middle" x="476.5" y="-130.5" font-family="Helvetica,sans-Serif" font-size="10.00">/RightClickMapMenu.hpp</text>
</a>
</g>
</g>
<!-- Node1&#45;&gt;Node10 -->
<g id="edge12" class="edge">
<title>Node1&#45;&gt;Node10</title>
<path fill="none" stroke="midnightblue" d="M302.18,-187.71C340.43,-177.14 389.24,-163.63 425.48,-153.61"/>
<polygon fill="midnightblue" stroke="midnightblue" points="300.91,-184.44 292.2,-190.48 302.77,-191.18 300.91,-184.44"/>
</g>
<!-- Node3&#45;&gt;Node2 -->
<g id="edge4" class="edge">
<title>Node3&#45;&gt;Node2</title>
<path fill="none" stroke="midnightblue" d="M121.93,-118.14C101.78,-105.79 76.67,-90.39 61.37,-81.01"/>
<polygon fill="midnightblue" stroke="midnightblue" points="120.15,-121.15 130.5,-123.4 123.8,-115.18 120.15,-121.15"/>
</g>
<!-- Node4 -->
<g id="node4" class="node">
<title>Node4</title>
<g id="a_node4"><a xlink:href="Astar_8cpp.html" target="_top" xlink:title=" ">
<polygon fill="white" stroke="black" points="113.5,-62 113.5,-81 193.5,-81 193.5,-62 113.5,-62"/>
<text text-anchor="middle" x="153.5" y="-69" font-family="Helvetica,sans-Serif" font-size="10.00">src/Astar.cpp</text>
</a>
</g>
</g>
<!-- Node3&#45;&gt;Node4 -->
<g id="edge3" class="edge">
<title>Node3&#45;&gt;Node4</title>
<path fill="none" stroke="midnightblue" d="M153.5,-113.25C153.5,-102.02 153.5,-89.38 153.5,-81.19"/>
<polygon fill="midnightblue" stroke="midnightblue" points="150,-113.4 153.5,-123.4 157,-113.4 150,-113.4"/>
</g>
<!-- Node3&#45;&gt;Node5 -->
<g id="edge5" class="edge">
<title>Node3&#45;&gt;Node5</title>
<path fill="none" stroke="midnightblue" d="M188.11,-118.44C206.62,-108.24 229.02,-95.9 245.95,-86.58"/>
<polygon fill="midnightblue" stroke="midnightblue" points="186.17,-115.51 179.1,-123.4 189.55,-121.64 186.17,-115.51"/>
</g>
<!-- Node6 -->
<g id="node6" class="node">
<title>Node6</title>
<g id="a_node6"><a xlink:href="main_8cpp.html" target="_top" xlink:title=" ">
<polygon fill="white" stroke="black" points="176,-0.5 176,-19.5 255,-19.5 255,-0.5 176,-0.5"/>
<text text-anchor="middle" x="215.5" y="-7.5" font-family="Helvetica,sans-Serif" font-size="10.00">src/main.cpp</text>
</a>
</g>
</g>
<!-- Node5&#45;&gt;Node6 -->
<g id="edge6" class="edge">
<title>Node5&#45;&gt;Node6</title>
<path fill="none" stroke="midnightblue" d="M251.27,-49C241.72,-38.86 230.87,-27.33 223.65,-19.66"/>
<polygon fill="midnightblue" stroke="midnightblue" points="248.83,-51.52 258.23,-56.4 253.92,-46.72 248.83,-51.52"/>
</g>
<!-- Node7 -->
<g id="node7" class="node">
<title>Node7</title>
<g id="a_node7"><a xlink:href="MapViewer_8cpp.html" target="_top" xlink:title=" ">
<polygon fill="white" stroke="black" points="273,-0.5 273,-19.5 382,-19.5 382,-0.5 273,-0.5"/>
<text text-anchor="middle" x="327.5" y="-7.5" font-family="Helvetica,sans-Serif" font-size="10.00">src/MapViewer.cpp</text>
</a>
</g>
</g>
<!-- Node5&#45;&gt;Node7 -->
<g id="edge7" class="edge">
<title>Node5&#45;&gt;Node7</title>
<path fill="none" stroke="midnightblue" d="M291.73,-49C301.28,-38.86 312.13,-27.33 319.35,-19.66"/>
<polygon fill="midnightblue" stroke="midnightblue" points="289.08,-46.72 284.77,-56.4 294.17,-51.52 289.08,-46.72"/>
</g>
<!-- Node8&#45;&gt;Node5 -->
<g id="edge10" class="edge">
<title>Node8&#45;&gt;Node5</title>
<path fill="none" stroke="midnightblue" d="M310.08,-115.74C301.5,-106.12 291.66,-95.09 284.06,-86.58"/>
<polygon fill="midnightblue" stroke="midnightblue" points="307.65,-118.26 316.91,-123.4 312.87,-113.6 307.65,-118.26"/>
</g>
<!-- Node9 -->
<g id="node9" class="node">
<title>Node9</title>
<g id="a_node9"><a xlink:href="FileManager_8cpp.html" target="_top" xlink:title=" ">
<polygon fill="white" stroke="black" points="350,-62 350,-81 463,-81 463,-62 350,-62"/>
<text text-anchor="middle" x="406.5" y="-69" font-family="Helvetica,sans-Serif" font-size="10.00">src/FileManager.cpp</text>
</a>
</g>
</g>
<!-- Node8&#45;&gt;Node9 -->
<g id="edge9" class="edge">
<title>Node8&#45;&gt;Node9</title>
<path fill="none" stroke="midnightblue" d="M354.17,-116.67C368.39,-104.67 385.51,-90.22 396.2,-81.19"/>
<polygon fill="midnightblue" stroke="midnightblue" points="351.59,-114.27 346.21,-123.4 356.11,-119.62 351.59,-114.27"/>
</g>
<!-- Node10&#45;&gt;Node5 -->
<g id="edge14" class="edge">
<title>Node10&#45;&gt;Node5</title>
<path fill="none" stroke="midnightblue" d="M422.71,-120.44C389.48,-109.91 347.35,-96.55 316,-86.61"/>
<polygon fill="midnightblue" stroke="midnightblue" points="421.68,-123.79 432.27,-123.48 423.8,-117.12 421.68,-123.79"/>
</g>
<!-- Node11 -->
<g id="node11" class="node">
<title>Node11</title>
<g id="a_node11"><a xlink:href="RightClickMapMenu_8cpp.html" target="_top" xlink:title=" ">
<polygon fill="white" stroke="black" points="481.5,-62 481.5,-81 633.5,-81 633.5,-62 481.5,-62"/>
<text text-anchor="middle" x="557.5" y="-69" font-family="Helvetica,sans-Serif" font-size="10.00">src/RightClickMapMenu.cpp</text>
</a>
</g>
</g>
<!-- Node10&#45;&gt;Node11 -->
<g id="edge13" class="edge">
<title>Node10&#45;&gt;Node11</title>
<path fill="none" stroke="midnightblue" d="M502.04,-117.01C517.07,-104.94 535.31,-90.3 546.67,-81.19"/>
<polygon fill="midnightblue" stroke="midnightblue" points="499.68,-114.41 494.08,-123.4 504.07,-119.87 499.68,-114.41"/>
</g>
</g>
</svg>
