<?xml version="1.0" encoding="UTF-8" standalone="no"?>
<!DOCTYPE svg PUBLIC "-//W3C//DTD SVG 1.1//EN"
 "http://www.w3.org/Graphics/SVG/1.1/DTD/svg11.dtd">
<!-- Generated by graphviz version 2.43.0 (0)
 -->
<!-- Title: src/GridMap.cpp Pages: 1 -->
<svg width="604pt" height="252pt"
 viewBox="0.00 0.00 604.00 252.00" xmlns="http://www.w3.org/2000/svg" xmlns:xlink="http://www.w3.org/1999/xlink">
<g id="graph0" class="graph" transform="scale(1 1) rotate(0) translate(4 248)">
<title>src/GridMap.cpp</title>
<polygon fill="white" stroke="transparent" points="-4,4 -4,-248 600,-248 600,4 -4,4"/>
<!-- Node1 -->
<g id="node1" class="node">
<title>Node1</title>
<g id="a_node1"><a xlink:title=" ">
<polygon fill="#bfbfbf" stroke="black" points="301,-224.5 301,-243.5 396,-243.5 396,-224.5 301,-224.5"/>
<text text-anchor="middle" x="348.5" y="-231.5" font-family="Helvetica,sans-Serif" font-size="10.00">src/GridMap.cpp</text>
</a>
</g>
</g>
<!-- Node2 -->
<g id="node2" class="node">
<title>Node2</title>
<g id="a_node2"><a xlink:href="GridMap_8hpp.html" target="_top" xlink:title=" ">
<polygon fill="white" stroke="black" points="137,-112.5 137,-131.5 284,-131.5 284,-112.5 137,-112.5"/>
<text text-anchor="middle" x="210.5" y="-119.5" font-family="Helvetica,sans-Serif" font-size="10.00">artgslam_vsc/GridMap.hpp</text>
</a>
</g>
</g>
<!-- Node1&#45;&gt;Node2 -->
<g id="edge1" class="edge">
<title>Node1&#45;&gt;Node2</title>
<path fill="none" stroke="midnightblue" d="M331.3,-224.34C315.54,-216.04 291.94,-202.63 273.5,-188 254.94,-173.28 236.4,-153.36 224.29,-139.47"/>
<polygon fill="midnightblue" stroke="midnightblue" points="226.8,-137.02 217.63,-131.7 221.48,-141.57 226.8,-137.02"/>
</g>
<!-- Node7 -->
<g id="node7" class="node">
<title>Node7</title>
<g id="a_node7"><a xlink:href="AStar_8hpp.html" target="_top" xlink:title=" ">
<polygon fill="white" stroke="black" points="282.5,-168.5 282.5,-187.5 414.5,-187.5 414.5,-168.5 282.5,-168.5"/>
<text text-anchor="middle" x="348.5" y="-175.5" font-family="Helvetica,sans-Serif" font-size="10.00">artgslam_vsc/AStar.hpp</text>
</a>
</g>
</g>
<!-- Node1&#45;&gt;Node7 -->
<g id="edge7" class="edge">
<title>Node1&#45;&gt;Node7</title>
<path fill="none" stroke="midnightblue" d="M348.5,-224.08C348.5,-217.01 348.5,-206.86 348.5,-197.99"/>
<polygon fill="midnightblue" stroke="midnightblue" points="352,-197.75 348.5,-187.75 345,-197.75 352,-197.75"/>
</g>
<!-- Node10 -->
<g id="node10" class="node">
<title>Node10</title>
<g id="a_node10"><a xlink:title=" ">
<polygon fill="white" stroke="#bfbfbf" points="432.5,-168.5 432.5,-187.5 492.5,-187.5 492.5,-168.5 432.5,-168.5"/>
<text text-anchor="middle" x="462.5" y="-175.5" font-family="Helvetica,sans-Serif" font-size="10.00">iostream</text>
</a>
</g>
</g>
<!-- Node1&#45;&gt;Node10 -->
<g id="edge14" class="edge">
<title>Node1&#45;&gt;Node10</title>
<path fill="none" stroke="midnightblue" d="M366.56,-224.44C385.07,-215.68 414.08,-201.94 435.36,-191.86"/>
<polygon fill="midnightblue" stroke="midnightblue" points="436.98,-194.96 444.52,-187.52 433.99,-188.63 436.98,-194.96"/>
</g>
<!-- Node3 -->
<g id="node3" class="node">
<title>Node3</title>
<g id="a_node3"><a xlink:title=" ">
<polygon fill="white" stroke="#bfbfbf" points="0,-56.5 0,-75.5 47,-75.5 47,-56.5 0,-56.5"/>
<text text-anchor="middle" x="23.5" y="-63.5" font-family="Helvetica,sans-Serif" font-size="10.00">vector</text>
</a>
</g>
</g>
<!-- Node2&#45;&gt;Node3 -->
<g id="edge2" class="edge">
<title>Node2&#45;&gt;Node3</title>
<path fill="none" stroke="midnightblue" d="M180.87,-112.44C147.13,-102.7 92.12,-86.82 56.89,-76.64"/>
<polygon fill="midnightblue" stroke="midnightblue" points="57.65,-73.22 47.07,-73.81 55.71,-79.94 57.65,-73.22"/>
</g>
<!-- Node4 -->
<g id="node4" class="node">
<title>Node4</title>
<g id="a_node4"><a xlink:title=" ">
<polygon fill="white" stroke="#bfbfbf" points="300,-56.5 300,-75.5 347,-75.5 347,-56.5 300,-56.5"/>
<text text-anchor="middle" x="323.5" y="-63.5" font-family="Helvetica,sans-Serif" font-size="10.00">cmath</text>
</a>
</g>
</g>
<!-- Node2&#45;&gt;Node4 -->
<g id="edge3" class="edge">
<title>Node2&#45;&gt;Node4</title>
<path fill="none" stroke="midnightblue" d="M228.41,-112.44C246.75,-103.68 275.51,-89.94 296.59,-79.86"/>
<polygon fill="midnightblue" stroke="midnightblue" points="298.17,-82.99 305.68,-75.52 295.15,-76.67 298.17,-82.99"/>
</g>
<!-- Node5 -->
<g id="node5" class="node">
<title>Node5</title>
<g id="a_node5"><a xlink:title=" ">
<polygon fill="white" stroke="#bfbfbf" points="228.5,-0.5 228.5,-19.5 338.5,-19.5 338.5,-0.5 228.5,-0.5"/>
<text text-anchor="middle" x="283.5" y="-7.5" font-family="Helvetica,sans-Serif" font-size="10.00">SFML/Graphics.hpp</text>
</a>
</g>
</g>
<!-- Node2&#45;&gt;Node5 -->
<g id="edge4" class="edge">
<title>Node2&#45;&gt;Node5</title>
<path fill="none" stroke="midnightblue" d="M163.36,-112.48C122.01,-102.9 71.75,-84.8 94.5,-56 109.87,-36.54 169.94,-24.59 218.28,-17.94"/>
<polygon fill="midnightblue" stroke="midnightblue" points="218.95,-21.38 228.4,-16.6 218.03,-14.44 218.95,-21.38"/>
</g>
<!-- Node6 -->
<g id="node6" class="node">
<title>Node6</title>
<g id="a_node6"><a xlink:href="ViewController_8hpp.html" target="_top" xlink:title=" ">
<polygon fill="white" stroke="black" points="103.5,-56.5 103.5,-75.5 281.5,-75.5 281.5,-56.5 103.5,-56.5"/>
<text text-anchor="middle" x="192.5" y="-63.5" font-family="Helvetica,sans-Serif" font-size="10.00">artgslam_vsc/ViewController.hpp</text>
</a>
</g>
</g>
<!-- Node2&#45;&gt;Node6 -->
<g id="edge5" class="edge">
<title>Node2&#45;&gt;Node6</title>
<path fill="none" stroke="midnightblue" d="M207.53,-112.08C205.12,-104.85 201.64,-94.41 198.63,-85.4"/>
<polygon fill="midnightblue" stroke="midnightblue" points="201.9,-84.13 195.42,-75.75 195.26,-86.34 201.9,-84.13"/>
</g>
<!-- Node6&#45;&gt;Node5 -->
<g id="edge6" class="edge">
<title>Node6&#45;&gt;Node5</title>
<path fill="none" stroke="midnightblue" d="M207.12,-56.32C221.45,-47.82 243.51,-34.73 260.25,-24.8"/>
<polygon fill="midnightblue" stroke="midnightblue" points="262.1,-27.77 268.92,-19.65 258.53,-21.75 262.1,-27.77"/>
</g>
<!-- Node7&#45;&gt;Node2 -->
<g id="edge11" class="edge">
<title>Node7&#45;&gt;Node2</title>
<path fill="none" stroke="midnightblue" d="M326.63,-168.44C303.72,-159.48 267.52,-145.31 241.63,-135.18"/>
<polygon fill="midnightblue" stroke="midnightblue" points="242.85,-131.9 232.26,-131.52 240.3,-138.42 242.85,-131.9"/>
</g>
<!-- Node7&#45;&gt;Node4 -->
<g id="edge8" class="edge">
<title>Node7&#45;&gt;Node4</title>
<path fill="none" stroke="midnightblue" d="M346.54,-168.37C342.5,-150.62 333.2,-109.67 327.73,-85.6"/>
<polygon fill="midnightblue" stroke="midnightblue" points="331.08,-84.57 325.45,-75.59 324.26,-86.12 331.08,-84.57"/>
</g>
<!-- Node7&#45;&gt;Node5 -->
<g id="edge10" class="edge">
<title>Node7&#45;&gt;Node5</title>
<path fill="none" stroke="midnightblue" d="M352.07,-168.39C360.1,-147.54 377.33,-93.32 356.5,-56 348.34,-41.39 333.28,-30.94 318.95,-23.8"/>
<polygon fill="midnightblue" stroke="midnightblue" points="320.26,-20.56 309.71,-19.59 317.35,-26.92 320.26,-20.56"/>
</g>
<!-- Node8 -->
<g id="node8" class="node">
<title>Node8</title>
<g id="a_node8"><a xlink:title=" ">
<polygon fill="white" stroke="#bfbfbf" points="400,-112.5 400,-131.5 447,-131.5 447,-112.5 400,-112.5"/>
<text text-anchor="middle" x="423.5" y="-119.5" font-family="Helvetica,sans-Serif" font-size="10.00">queue</text>
</a>
</g>
</g>
<!-- Node7&#45;&gt;Node8 -->
<g id="edge9" class="edge">
<title>Node7&#45;&gt;Node8</title>
<path fill="none" stroke="midnightblue" d="M360.55,-168.32C371.96,-160.11 389.33,-147.6 402.93,-137.81"/>
<polygon fill="midnightblue" stroke="midnightblue" points="405.16,-140.52 411.23,-131.83 401.07,-134.84 405.16,-140.52"/>
</g>
<!-- Node9 -->
<g id="node9" class="node">
<title>Node9</title>
<g id="a_node9"><a xlink:href="Node_8hpp.html" target="_top" xlink:title=" ">
<polygon fill="white" stroke="black" points="465,-112.5 465,-131.5 596,-131.5 596,-112.5 465,-112.5"/>
<text text-anchor="middle" x="530.5" y="-119.5" font-family="Helvetica,sans-Serif" font-size="10.00">artgslam_vsc/Node.hpp</text>
</a>
</g>
</g>
<!-- Node7&#45;&gt;Node9 -->
<g id="edge12" class="edge">
<title>Node7&#45;&gt;Node9</title>
<path fill="none" stroke="midnightblue" d="M377.34,-168.44C408.36,-159.24 457.83,-144.56 492.12,-134.39"/>
<polygon fill="midnightblue" stroke="midnightblue" points="493.21,-137.72 501.8,-131.52 491.21,-131.01 493.21,-137.72"/>
</g>
<!-- Node9&#45;&gt;Node5 -->
<g id="edge13" class="edge">
<title>Node9&#45;&gt;Node5</title>
<path fill="none" stroke="midnightblue" d="M512.33,-112.41C485.55,-99.8 433.87,-75.64 389.5,-56 364.09,-44.75 335.03,-32.45 313.77,-23.56"/>
<polygon fill="midnightblue" stroke="midnightblue" points="314.87,-20.23 304.3,-19.61 312.18,-26.69 314.87,-20.23"/>
</g>
</g>
</svg>
