<?xml version="1.0" encoding="UTF-8" standalone="no"?>
<!DOCTYPE svg PUBLIC "-//W3C//DTD SVG 1.1//EN"
 "http://www.w3.org/Graphics/SVG/1.1/DTD/svg11.dtd">
<!-- Generated by graphviz version 2.43.0 (0)
 -->
<!-- Title: include/artgslam_vsc/LiveMap.hpp Pages: 1 -->
<svg width="500pt" height="229pt"
 viewBox="0.00 0.00 499.50 229.00" xmlns="http://www.w3.org/2000/svg" xmlns:xlink="http://www.w3.org/1999/xlink">
<g id="graph0" class="graph" transform="scale(1 1) rotate(0) translate(4 225)">
<title>include/artgslam_vsc/LiveMap.hpp</title>
<polygon fill="white" stroke="transparent" points="-4,4 -4,-225 495.5,-225 495.5,4 -4,4"/>
<!-- Node1 -->
<g id="node1" class="node">
<title>Node1</title>
<g id="a_node1"><a xlink:title=" ">
<polygon fill="#bfbfbf" stroke="black" points="157.5,-190.5 157.5,-220.5 277.5,-220.5 277.5,-190.5 157.5,-190.5"/>
<text text-anchor="start" x="165.5" y="-208.5" font-family="Helvetica,sans-Serif" font-size="10.00">include/artgslam_vsc</text>
<text text-anchor="middle" x="217.5" y="-197.5" font-family="Helvetica,sans-Serif" font-size="10.00">/LiveMap.hpp</text>
</a>
</g>
</g>
<!-- Node2 -->
<g id="node2" class="node">
<title>Node2</title>
<g id="a_node2"><a xlink:href="LiveMap_8cpp.html" target="_top" xlink:title=" ">
<polygon fill="white" stroke="black" points="0,-129 0,-148 95,-148 95,-129 0,-129"/>
<text text-anchor="middle" x="47.5" y="-136" font-family="Helvetica,sans-Serif" font-size="10.00">src/LiveMap.cpp</text>
</a>
</g>
</g>
<!-- Node1&#45;&gt;Node2 -->
<g id="edge1" class="edge">
<title>Node1&#45;&gt;Node2</title>
<path fill="none" stroke="midnightblue" d="M171.17,-186.78C138.2,-174.18 95.38,-157.81 69.75,-148.01"/>
<polygon fill="midnightblue" stroke="midnightblue" points="170.02,-190.09 180.61,-190.4 172.52,-183.56 170.02,-190.09"/>
</g>
<!-- Node3 -->
<g id="node3" class="node">
<title>Node3</title>
<g id="a_node3"><a xlink:href="FileManager_8hpp.html" target="_top" xlink:title=" ">
<polygon fill="white" stroke="black" points="113.5,-123.5 113.5,-153.5 233.5,-153.5 233.5,-123.5 113.5,-123.5"/>
<text text-anchor="start" x="121.5" y="-141.5" font-family="Helvetica,sans-Serif" font-size="10.00">include/artgslam_vsc</text>
<text text-anchor="middle" x="173.5" y="-130.5" font-family="Helvetica,sans-Serif" font-size="10.00">/FileManager.hpp</text>
</a>
</g>
</g>
<!-- Node1&#45;&gt;Node3 -->
<g id="edge2" class="edge">
<title>Node1&#45;&gt;Node3</title>
<path fill="none" stroke="midnightblue" d="M202.18,-181.87C195.81,-172.46 188.62,-161.83 183.03,-153.58"/>
<polygon fill="midnightblue" stroke="midnightblue" points="199.45,-184.08 207.95,-190.4 205.25,-180.15 199.45,-184.08"/>
</g>
<!-- Node5 -->
<g id="node5" class="node">
<title>Node5</title>
<g id="a_node5"><a xlink:href="MapViewer_8hpp.html" target="_top" xlink:title=" ">
<polygon fill="white" stroke="black" points="201.5,-56.5 201.5,-86.5 321.5,-86.5 321.5,-56.5 201.5,-56.5"/>
<text text-anchor="start" x="209.5" y="-74.5" font-family="Helvetica,sans-Serif" font-size="10.00">include/artgslam_vsc</text>
<text text-anchor="middle" x="261.5" y="-63.5" font-family="Helvetica,sans-Serif" font-size="10.00">/MapViewer.hpp</text>
</a>
</g>
</g>
<!-- Node1&#45;&gt;Node5 -->
<g id="edge7" class="edge">
<title>Node1&#45;&gt;Node5</title>
<path fill="none" stroke="midnightblue" d="M230.32,-181.42C234.64,-172.98 239.19,-163.23 242.5,-154 250.74,-131.02 256.35,-103.11 259.23,-86.63"/>
<polygon fill="midnightblue" stroke="midnightblue" points="227.21,-179.83 225.63,-190.3 233.4,-183.09 227.21,-179.83"/>
</g>
<!-- Node8 -->
<g id="node8" class="node">
<title>Node8</title>
<g id="a_node8"><a xlink:href="RightClickMapMenu_8hpp.html" target="_top" xlink:title=" ">
<polygon fill="white" stroke="black" points="289.5,-123.5 289.5,-153.5 427.5,-153.5 427.5,-123.5 289.5,-123.5"/>
<text text-anchor="start" x="297.5" y="-141.5" font-family="Helvetica,sans-Serif" font-size="10.00">include/artgslam_vsc</text>
<text text-anchor="middle" x="358.5" y="-130.5" font-family="Helvetica,sans-Serif" font-size="10.00">/RightClickMapMenu.hpp</text>
</a>
</g>
</g>
<!-- Node1&#45;&gt;Node8 -->
<g id="edge8" class="edge">
<title>Node1&#45;&gt;Node8</title>
<path fill="none" stroke="midnightblue" d="M257.35,-186.13C279.75,-175.8 307.28,-163.11 327.96,-153.58"/>
<polygon fill="midnightblue" stroke="midnightblue" points="255.71,-183.03 248.09,-190.4 258.64,-189.39 255.71,-183.03"/>
</g>
<!-- Node4 -->
<g id="node4" class="node">
<title>Node4</title>
<g id="a_node4"><a xlink:href="FileManager_8cpp.html" target="_top" xlink:title=" ">
<polygon fill="white" stroke="black" points="70,-62 70,-81 183,-81 183,-62 70,-62"/>
<text text-anchor="middle" x="126.5" y="-69" font-family="Helvetica,sans-Serif" font-size="10.00">src/FileManager.cpp</text>
</a>
</g>
</g>
<!-- Node3&#45;&gt;Node4 -->
<g id="edge3" class="edge">
<title>Node3&#45;&gt;Node4</title>
<path fill="none" stroke="midnightblue" d="M157.21,-114.97C148.79,-103.33 139.01,-89.8 132.79,-81.19"/>
<polygon fill="midnightblue" stroke="midnightblue" points="154.61,-117.34 163.3,-123.4 160.28,-113.24 154.61,-117.34"/>
</g>
<!-- Node3&#45;&gt;Node5 -->
<g id="edge4" class="edge">
<title>Node3&#45;&gt;Node5</title>
<path fill="none" stroke="midnightblue" d="M200.64,-117.45C214.18,-107.45 230.23,-95.6 242.44,-86.58"/>
<polygon fill="midnightblue" stroke="midnightblue" points="198.56,-114.64 192.59,-123.4 202.72,-120.27 198.56,-114.64"/>
</g>
<!-- Node6 -->
<g id="node6" class="node">
<title>Node6</title>
<g id="a_node6"><a xlink:href="main_8cpp.html" target="_top" xlink:title=" ">
<polygon fill="white" stroke="black" points="166,-0.5 166,-19.5 245,-19.5 245,-0.5 166,-0.5"/>
<text text-anchor="middle" x="205.5" y="-7.5" font-family="Helvetica,sans-Serif" font-size="10.00">src/main.cpp</text>
</a>
</g>
</g>
<!-- Node5&#45;&gt;Node6 -->
<g id="edge5" class="edge">
<title>Node5&#45;&gt;Node6</title>
<path fill="none" stroke="midnightblue" d="M241.27,-49C231.72,-38.86 220.87,-27.33 213.65,-19.66"/>
<polygon fill="midnightblue" stroke="midnightblue" points="238.83,-51.52 248.23,-56.4 243.92,-46.72 238.83,-51.52"/>
</g>
<!-- Node7 -->
<g id="node7" class="node">
<title>Node7</title>
<g id="a_node7"><a xlink:href="MapViewer_8cpp.html" target="_top" xlink:title=" ">
<polygon fill="white" stroke="black" points="263,-0.5 263,-19.5 372,-19.5 372,-0.5 263,-0.5"/>
<text text-anchor="middle" x="317.5" y="-7.5" font-family="Helvetica,sans-Serif" font-size="10.00">src/MapViewer.cpp</text>
</a>
</g>
</g>
<!-- Node5&#45;&gt;Node7 -->
<g id="edge6" class="edge">
<title>Node5&#45;&gt;Node7</title>
<path fill="none" stroke="midnightblue" d="M281.73,-49C291.28,-38.86 302.13,-27.33 309.35,-19.66"/>
<polygon fill="midnightblue" stroke="midnightblue" points="279.08,-46.72 274.77,-56.4 284.17,-51.52 279.08,-46.72"/>
</g>
<!-- Node8&#45;&gt;Node5 -->
<g id="edge10" class="edge">
<title>Node8&#45;&gt;Node5</title>
<path fill="none" stroke="midnightblue" d="M329,-117.73C313.99,-107.68 296.1,-95.68 282.51,-86.58"/>
<polygon fill="midnightblue" stroke="midnightblue" points="327.2,-120.74 337.45,-123.4 331.09,-114.92 327.2,-120.74"/>
</g>
<!-- Node9 -->
<g id="node9" class="node">
<title>Node9</title>
<g id="a_node9"><a xlink:href="RightClickMapMenu_8cpp.html" target="_top" xlink:title=" ">
<polygon fill="white" stroke="black" points="339.5,-62 339.5,-81 491.5,-81 491.5,-62 339.5,-62"/>
<text text-anchor="middle" x="415.5" y="-69" font-family="Helvetica,sans-Serif" font-size="10.00">src/RightClickMapMenu.cpp</text>
</a>
</g>
</g>
<!-- Node8&#45;&gt;Node9 -->
<g id="edge9" class="edge">
<title>Node8&#45;&gt;Node9</title>
<path fill="none" stroke="midnightblue" d="M377.65,-115.66C388,-103.86 400.18,-89.97 407.88,-81.19"/>
<polygon fill="midnightblue" stroke="midnightblue" points="374.83,-113.57 370.87,-123.4 380.09,-118.18 374.83,-113.57"/>
</g>
</g>
</svg>
