<?xml version="1.0" encoding="UTF-8" standalone="no"?>
<!DOCTYPE svg PUBLIC "-//W3C//DTD SVG 1.1//EN"
 "http://www.w3.org/Graphics/SVG/1.1/DTD/svg11.dtd">
<!-- Generated by graphviz version 2.43.0 (0)
 -->
<!-- Title: include/artgslam_vsc/LiveMap.hpp Pages: 1 -->
<svg width="359pt" height="151pt"
 viewBox="0.00 0.00 358.50 151.00" xmlns="http://www.w3.org/2000/svg" xmlns:xlink="http://www.w3.org/1999/xlink">
<g id="graph0" class="graph" transform="scale(1 1) rotate(0) translate(4 147)">
<title>include/artgslam_vsc/LiveMap.hpp</title>
<polygon fill="white" stroke="transparent" points="-4,4 -4,-147 354.5,-147 354.5,4 -4,4"/>
<!-- Node1 -->
<g id="node1" class="node">
<title>Node1</title>
<g id="a_node1"><a xlink:title=" ">
<polygon fill="#bfbfbf" stroke="black" points="57.5,-112.5 57.5,-142.5 177.5,-142.5 177.5,-112.5 57.5,-112.5"/>
<text text-anchor="start" x="65.5" y="-130.5" font-family="Helvetica,sans-Serif" font-size="10.00">include/artgslam_vsc</text>
<text text-anchor="middle" x="117.5" y="-119.5" font-family="Helvetica,sans-Serif" font-size="10.00">/LiveMap.hpp</text>
</a>
</g>
</g>
<!-- Node2 -->
<g id="node2" class="node">
<title>Node2</title>
<g id="a_node2"><a xlink:title=" ">
<polygon fill="white" stroke="#bfbfbf" points="0,-56.5 0,-75.5 47,-75.5 47,-56.5 0,-56.5"/>
<text text-anchor="middle" x="23.5" y="-63.5" font-family="Helvetica,sans-Serif" font-size="10.00">vector</text>
</a>
</g>
</g>
<!-- Node1&#45;&gt;Node2 -->
<g id="edge1" class="edge">
<title>Node1&#45;&gt;Node2</title>
<path fill="none" stroke="midnightblue" d="M95.22,-112.4C80.3,-102.95 60.72,-90.56 45.79,-81.11"/>
<polygon fill="midnightblue" stroke="midnightblue" points="47.5,-78.05 37.18,-75.66 43.76,-83.96 47.5,-78.05"/>
</g>
<!-- Node3 -->
<g id="node3" class="node">
<title>Node3</title>
<g id="a_node3"><a xlink:title=" ">
<polygon fill="white" stroke="#bfbfbf" points="65,-56.5 65,-75.5 116,-75.5 116,-56.5 65,-56.5"/>
<text text-anchor="middle" x="90.5" y="-63.5" font-family="Helvetica,sans-Serif" font-size="10.00">math.h</text>
</a>
</g>
</g>
<!-- Node1&#45;&gt;Node3 -->
<g id="edge2" class="edge">
<title>Node1&#45;&gt;Node3</title>
<path fill="none" stroke="midnightblue" d="M111.1,-112.4C107.38,-104.2 102.65,-93.78 98.67,-84.99"/>
<polygon fill="midnightblue" stroke="midnightblue" points="101.75,-83.32 94.43,-75.66 95.37,-86.21 101.75,-83.32"/>
</g>
<!-- Node4 -->
<g id="node4" class="node">
<title>Node4</title>
<g id="a_node4"><a xlink:title=" ">
<polygon fill="white" stroke="#bfbfbf" points="147.5,-0.5 147.5,-19.5 257.5,-19.5 257.5,-0.5 147.5,-0.5"/>
<text text-anchor="middle" x="202.5" y="-7.5" font-family="Helvetica,sans-Serif" font-size="10.00">SFML/Graphics.hpp</text>
</a>
</g>
</g>
<!-- Node1&#45;&gt;Node4 -->
<g id="edge3" class="edge">
<title>Node1&#45;&gt;Node4</title>
<path fill="none" stroke="midnightblue" d="M125.95,-112.34C134.79,-97.83 149.33,-74.79 163.5,-56 170.97,-46.09 180.01,-35.59 187.5,-27.22"/>
<polygon fill="midnightblue" stroke="midnightblue" points="190.23,-29.42 194.36,-19.67 185.05,-24.71 190.23,-29.42"/>
</g>
<!-- Node5 -->
<g id="node5" class="node">
<title>Node5</title>
<g id="a_node5"><a xlink:href="ViewController_8hpp.html" target="_top" xlink:title=" ">
<polygon fill="white" stroke="black" points="172.5,-56.5 172.5,-75.5 350.5,-75.5 350.5,-56.5 172.5,-56.5"/>
<text text-anchor="middle" x="261.5" y="-63.5" font-family="Helvetica,sans-Serif" font-size="10.00">artgslam_vsc/ViewController.hpp</text>
</a>
</g>
</g>
<!-- Node1&#45;&gt;Node5 -->
<g id="edge4" class="edge">
<title>Node1&#45;&gt;Node5</title>
<path fill="none" stroke="midnightblue" d="M151.63,-112.4C175.79,-102.42 207.9,-89.15 231.17,-79.53"/>
<polygon fill="midnightblue" stroke="midnightblue" points="232.64,-82.71 240.55,-75.66 229.97,-76.24 232.64,-82.71"/>
</g>
<!-- Node5&#45;&gt;Node4 -->
<g id="edge5" class="edge">
<title>Node5&#45;&gt;Node4</title>
<path fill="none" stroke="midnightblue" d="M252.02,-56.32C243.3,-48.34 230.16,-36.31 219.6,-26.65"/>
<polygon fill="midnightblue" stroke="midnightblue" points="221.89,-24 212.15,-19.83 217.17,-29.17 221.89,-24"/>
</g>
</g>
</svg>
