<?xml version="1.0" encoding="UTF-8" standalone="no"?>
<!DOCTYPE svg PUBLIC "-//W3C//DTD SVG 1.1//EN"
 "http://www.w3.org/Graphics/SVG/1.1/DTD/svg11.dtd">
<!-- Generated by graphviz version 2.43.0 (0)
 -->
<!-- Title: src/main.cpp Pages: 1 -->
<svg width="4286pt" height="319pt"
 viewBox="0.00 0.00 4285.50 319.00" xmlns="http://www.w3.org/2000/svg" xmlns:xlink="http://www.w3.org/1999/xlink">
<g id="graph0" class="graph" transform="scale(1 1) rotate(0) translate(4 315)">
<title>src/main.cpp</title>
<polygon fill="white" stroke="transparent" points="-4,4 -4,-315 4281.5,-315 4281.5,4 -4,4"/>
<!-- Node1 -->
<g id="node1" class="node">
<title>Node1</title>
<g id="a_node1"><a xlink:title=" ">
<polygon fill="#bfbfbf" stroke="black" points="0,-291.5 0,-310.5 79,-310.5 79,-291.5 0,-291.5"/>
<text text-anchor="middle" x="39.5" y="-298.5" font-family="Helvetica,sans-Serif" font-size="10.00">src/main.cpp</text>
</a>
</g>
</g>
<!-- Node2 -->
<g id="node2" class="node">
<title>Node2</title>
<g id="a_node2"><a xlink:title=" ">
<polygon fill="white" stroke="#bfbfbf" points="542,-112.5 542,-131.5 601,-131.5 601,-112.5 542,-112.5"/>
<text text-anchor="middle" x="571.5" y="-119.5" font-family="Helvetica,sans-Serif" font-size="10.00">ros/ros.h</text>
</a>
</g>
</g>
<!-- Node1&#45;&gt;Node2 -->
<g id="edge1" class="edge">
<title>Node1&#45;&gt;Node2</title>
<path fill="none" stroke="midnightblue" d="M46.8,-291.24C67.84,-266.72 131.54,-197.25 201.5,-168 334.96,-112.2 384.37,-154.68 531.47,-131.92"/>
<polygon fill="midnightblue" stroke="midnightblue" points="532.45,-135.3 541.76,-130.24 531.33,-128.39 532.45,-135.3"/>
</g>
<!-- Node3 -->
<g id="node3" class="node">
<title>Node3</title>
<g id="a_node3"><a xlink:title=" ">
<polygon fill="white" stroke="#bfbfbf" points="2882.5,-0.5 2882.5,-19.5 2992.5,-19.5 2992.5,-0.5 2882.5,-0.5"/>
<text text-anchor="middle" x="2937.5" y="-7.5" font-family="Helvetica,sans-Serif" font-size="10.00">SFML/Graphics.hpp</text>
</a>
</g>
</g>
<!-- Node1&#45;&gt;Node3 -->
<g id="edge2" class="edge">
<title>Node1&#45;&gt;Node3</title>
<path fill="none" stroke="midnightblue" d="M39.5,-291.31C39.5,-272.06 39.5,-224.4 39.5,-184.5 39.5,-184.5 39.5,-184.5 39.5,-121 39.5,-47.65 2442.36,-16.67 2872.12,-11.72"/>
<polygon fill="midnightblue" stroke="midnightblue" points="2872.24,-15.22 2882.2,-11.61 2872.16,-8.22 2872.24,-15.22"/>
</g>
<!-- Node4 -->
<g id="node4" class="node">
<title>Node4</title>
<g id="a_node4"><a xlink:href="MapViewer_8hpp.html" target="_top" xlink:title=" ">
<polygon fill="white" stroke="black" points="2489,-235.5 2489,-254.5 2650,-254.5 2650,-235.5 2489,-235.5"/>
<text text-anchor="middle" x="2569.5" y="-242.5" font-family="Helvetica,sans-Serif" font-size="10.00">artgslam_vsc/MapViewer.hpp</text>
</a>
</g>
</g>
<!-- Node1&#45;&gt;Node4 -->
<g id="edge3" class="edge">
<title>Node1&#45;&gt;Node4</title>
<path fill="none" stroke="midnightblue" d="M79.24,-299.15C361.58,-293.13 2064.71,-256.77 2478.81,-247.94"/>
<polygon fill="midnightblue" stroke="midnightblue" points="2479.01,-251.43 2488.93,-247.72 2478.86,-244.43 2479.01,-251.43"/>
</g>
<!-- Node4&#45;&gt;Node3 -->
<g id="edge77" class="edge">
<title>Node4&#45;&gt;Node3</title>
<path fill="none" stroke="midnightblue" d="M2650.17,-244.16C2859.63,-243.98 3409.49,-239.61 3480.5,-199 3534.54,-168.09 3535.45,-137.07 3547.5,-76 3549.22,-67.28 3553.55,-62.51 3547.5,-56 3511.04,-16.75 3153.08,-11.42 3003.09,-10.92"/>
<polygon fill="midnightblue" stroke="midnightblue" points="3002.66,-7.42 2992.66,-10.89 3002.65,-14.42 3002.66,-7.42"/>
</g>
<!-- Node5 -->
<g id="node5" class="node">
<title>Node5</title>
<g id="a_node5"><a xlink:href="MenuBar_8hpp.html" target="_top" xlink:title=" ">
<polygon fill="white" stroke="black" points="3754,-174 3754,-193 3903,-193 3903,-174 3754,-174"/>
<text text-anchor="middle" x="3828.5" y="-181" font-family="Helvetica,sans-Serif" font-size="10.00">artgslam_vsc/MenuBar.hpp</text>
</a>
</g>
</g>
<!-- Node4&#45;&gt;Node5 -->
<g id="edge4" class="edge">
<title>Node4&#45;&gt;Node5</title>
<path fill="none" stroke="midnightblue" d="M2650.12,-240.79C2821.43,-233.89 3234.4,-216.82 3580.5,-199 3634.89,-196.2 3695.96,-192.63 3743.88,-189.74"/>
<polygon fill="midnightblue" stroke="midnightblue" points="3744.14,-193.23 3753.91,-189.13 3743.71,-186.24 3744.14,-193.23"/>
</g>
<!-- Node9 -->
<g id="node9" class="node">
<title>Node9</title>
<g id="a_node9"><a xlink:title=" ">
<polygon fill="white" stroke="#bfbfbf" points="2733.5,-112.5 2733.5,-131.5 2915.5,-131.5 2915.5,-112.5 2733.5,-112.5"/>
<text text-anchor="middle" x="2824.5" y="-119.5" font-family="Helvetica,sans-Serif" font-size="10.00">TGUI/Backend/SFML&#45;Graphics.hpp</text>
</a>
</g>
</g>
<!-- Node4&#45;&gt;Node9 -->
<g id="edge78" class="edge">
<title>Node4&#45;&gt;Node9</title>
<path fill="none" stroke="midnightblue" d="M2587.43,-235.49C2631.4,-214.63 2744.8,-160.82 2797.2,-135.95"/>
<polygon fill="midnightblue" stroke="midnightblue" points="2798.71,-139.11 2806.25,-131.66 2795.71,-132.79 2798.71,-139.11"/>
</g>
<!-- Node12 -->
<g id="node12" class="node">
<title>Node12</title>
<g id="a_node12"><a xlink:href="FileManager_8hpp.html" target="_top" xlink:title=" ">
<polygon fill="white" stroke="black" points="211,-174 211,-193 376,-193 376,-174 211,-174"/>
<text text-anchor="middle" x="293.5" y="-181" font-family="Helvetica,sans-Serif" font-size="10.00">artgslam_vsc/FileManager.hpp</text>
</a>
</g>
</g>
<!-- Node4&#45;&gt;Node12 -->
<g id="edge11" class="edge">
<title>Node4&#45;&gt;Node12</title>
<path fill="none" stroke="midnightblue" d="M2488.87,-243.72C2146.3,-242.29 809.94,-234.53 390.5,-199 378.05,-197.95 364.77,-196.3 352.15,-194.5"/>
<polygon fill="midnightblue" stroke="midnightblue" points="352.61,-191.03 342.21,-193.02 351.58,-197.95 352.61,-191.03"/>
</g>
<!-- Node18 -->
<g id="node18" class="node">
<title>Node18</title>
<g id="a_node18"><a xlink:href="GridMap_8hpp.html" target="_top" xlink:title=" ">
<polygon fill="white" stroke="black" points="1961,-112.5 1961,-131.5 2040,-131.5 2040,-112.5 1961,-112.5"/>
<text text-anchor="middle" x="2000.5" y="-119.5" font-family="Helvetica,sans-Serif" font-size="10.00">GridMap.hpp</text>
</a>
</g>
</g>
<!-- Node4&#45;&gt;Node18 -->
<g id="edge25" class="edge">
<title>Node4&#45;&gt;Node18</title>
<path fill="none" stroke="midnightblue" d="M2506.99,-235.49C2450.85,-227.44 2366.3,-214.34 2293.5,-199 2201.77,-179.67 2095.6,-150.37 2039.66,-134.39"/>
<polygon fill="midnightblue" stroke="midnightblue" points="2040.39,-130.96 2029.82,-131.56 2038.46,-137.69 2040.39,-130.96"/>
</g>
<!-- Node21 -->
<g id="node21" class="node">
<title>Node21</title>
<g id="a_node21"><a xlink:href="ViewController_8hpp.html" target="_top" xlink:title=" ">
<polygon fill="white" stroke="black" points="1758.5,-56.5 1758.5,-75.5 1936.5,-75.5 1936.5,-56.5 1758.5,-56.5"/>
<text text-anchor="middle" x="1847.5" y="-63.5" font-family="Helvetica,sans-Serif" font-size="10.00">artgslam_vsc/ViewController.hpp</text>
</a>
</g>
</g>
<!-- Node4&#45;&gt;Node21 -->
<g id="edge41" class="edge">
<title>Node4&#45;&gt;Node21</title>
<path fill="none" stroke="midnightblue" d="M2488.98,-244.39C2252.62,-244.96 1540.36,-242.64 951.5,-199 703.72,-180.64 561.32,-317.92 396.5,-132 390.6,-125.35 390.31,-118.38 396.5,-112 420.04,-87.72 1424.4,-72.52 1748.09,-68.24"/>
<polygon fill="midnightblue" stroke="midnightblue" points="1748.44,-71.74 1758.39,-68.11 1748.34,-64.74 1748.44,-71.74"/>
</g>
<!-- Node23 -->
<g id="node23" class="node">
<title>Node23</title>
<g id="a_node23"><a xlink:href="RosHandler_8hpp.html" target="_top" xlink:title=" ">
<polygon fill="white" stroke="black" points="960.5,-174 960.5,-193 1122.5,-193 1122.5,-174 960.5,-174"/>
<text text-anchor="middle" x="1041.5" y="-181" font-family="Helvetica,sans-Serif" font-size="10.00">artgslam_vsc/RosHandler.hpp</text>
</a>
</g>
</g>
<!-- Node4&#45;&gt;Node23 -->
<g id="edge26" class="edge">
<title>Node4&#45;&gt;Node23</title>
<path fill="none" stroke="midnightblue" d="M2488.96,-240.86C2228.41,-230.72 1409.28,-198.82 1133.3,-188.07"/>
<polygon fill="midnightblue" stroke="midnightblue" points="1133.06,-184.56 1122.93,-187.67 1132.78,-191.56 1133.06,-184.56"/>
</g>
<!-- Node32 -->
<g id="node32" class="node">
<title>Node32</title>
<g id="a_node32"><a xlink:href="RobotCreator_8hpp.html" target="_top" xlink:title=" ">
<polygon fill="white" stroke="black" points="2302.5,-174 2302.5,-193 2472.5,-193 2472.5,-174 2302.5,-174"/>
<text text-anchor="middle" x="2387.5" y="-181" font-family="Helvetica,sans-Serif" font-size="10.00">artgslam_vsc/RobotCreator.hpp</text>
</a>
</g>
</g>
<!-- Node4&#45;&gt;Node32 -->
<g id="edge42" class="edge">
<title>Node4&#45;&gt;Node32</title>
<path fill="none" stroke="midnightblue" d="M2543.42,-235.48C2511.93,-225.18 2458.8,-207.81 2423.44,-196.25"/>
<polygon fill="midnightblue" stroke="midnightblue" points="2424.12,-192.79 2413.53,-193.01 2421.95,-199.44 2424.12,-192.79"/>
</g>
<!-- Node37 -->
<g id="node37" class="node">
<title>Node37</title>
<g id="a_node37"><a xlink:href="UnicicleWmr_8hpp.html" target="_top" xlink:title=" ">
<polygon fill="white" stroke="black" points="2485.5,-112.5 2485.5,-131.5 2653.5,-131.5 2653.5,-112.5 2485.5,-112.5"/>
<text text-anchor="middle" x="2569.5" y="-119.5" font-family="Helvetica,sans-Serif" font-size="10.00">artgslam_vsc/UnicicleWmr.hpp</text>
</a>
</g>
</g>
<!-- Node4&#45;&gt;Node37 -->
<g id="edge55" class="edge">
<title>Node4&#45;&gt;Node37</title>
<path fill="none" stroke="midnightblue" d="M2569.5,-235.3C2569.5,-215.85 2569.5,-168.49 2569.5,-141.9"/>
<polygon fill="midnightblue" stroke="midnightblue" points="2573,-141.62 2569.5,-131.62 2566,-141.62 2573,-141.62"/>
</g>
<!-- Node39 -->
<g id="node39" class="node">
<title>Node39</title>
<g id="a_node39"><a xlink:href="LiveMap_8hpp.html" target="_top" xlink:title=" ">
<polygon fill="white" stroke="black" points="3211,-112.5 3211,-131.5 3358,-131.5 3358,-112.5 3211,-112.5"/>
<text text-anchor="middle" x="3284.5" y="-119.5" font-family="Helvetica,sans-Serif" font-size="10.00">artgslam_vsc/LiveMap.hpp</text>
</a>
</g>
</g>
<!-- Node4&#45;&gt;Node39 -->
<g id="edge56" class="edge">
<title>Node4&#45;&gt;Node39</title>
<path fill="none" stroke="midnightblue" d="M2646.13,-235.48C2715.6,-227.38 2820.69,-214.21 2911.5,-199 3029.23,-179.29 3166.5,-149.56 3237.14,-133.76"/>
<polygon fill="midnightblue" stroke="midnightblue" points="3238.08,-137.14 3247.07,-131.53 3236.55,-130.31 3238.08,-137.14"/>
</g>
<!-- Node41 -->
<g id="node41" class="node">
<title>Node41</title>
<g id="a_node41"><a xlink:href="RightClickMapMenu_8hpp.html" target="_top" xlink:title=" ">
<polygon fill="white" stroke="black" points="2747,-168.5 2747,-198.5 2902,-198.5 2902,-168.5 2747,-168.5"/>
<text text-anchor="start" x="2755" y="-186.5" font-family="Helvetica,sans-Serif" font-size="10.00">artgslam_vsc/RightClickMap</text>
<text text-anchor="middle" x="2824.5" y="-175.5" font-family="Helvetica,sans-Serif" font-size="10.00">Menu.hpp</text>
</a>
</g>
</g>
<!-- Node4&#45;&gt;Node41 -->
<g id="edge61" class="edge">
<title>Node4&#45;&gt;Node41</title>
<path fill="none" stroke="midnightblue" d="M2606.04,-235.48C2644.61,-226.48 2706.35,-212.07 2754.38,-200.86"/>
<polygon fill="midnightblue" stroke="midnightblue" points="2755.46,-204.2 2764.4,-198.52 2753.87,-197.39 2755.46,-204.2"/>
</g>
<!-- Node44 -->
<g id="node44" class="node">
<title>Node44</title>
<g id="a_node44"><a xlink:href="AStar_8hpp.html" target="_top" xlink:title=" ">
<polygon fill="white" stroke="black" points="3339.5,-174 3339.5,-193 3471.5,-193 3471.5,-174 3339.5,-174"/>
<text text-anchor="middle" x="3405.5" y="-181" font-family="Helvetica,sans-Serif" font-size="10.00">artgslam_vsc/AStar.hpp</text>
</a>
</g>
</g>
<!-- Node4&#45;&gt;Node44 -->
<g id="edge70" class="edge">
<title>Node4&#45;&gt;Node44</title>
<path fill="none" stroke="midnightblue" d="M2650.04,-238.27C2811.21,-226.8 3171.46,-201.16 3329.13,-189.94"/>
<polygon fill="midnightblue" stroke="midnightblue" points="3329.49,-193.42 3339.22,-189.22 3329,-186.44 3329.49,-193.42"/>
</g>
<!-- Node6 -->
<g id="node6" class="node">
<title>Node6</title>
<g id="a_node6"><a xlink:title=" ">
<polygon fill="white" stroke="#bfbfbf" points="3974,-112.5 3974,-131.5 4125,-131.5 4125,-112.5 3974,-112.5"/>
<text text-anchor="middle" x="4049.5" y="-119.5" font-family="Helvetica,sans-Serif" font-size="10.00">TGUI/Widgets/MenuBar.hpp</text>
</a>
</g>
</g>
<!-- Node5&#45;&gt;Node6 -->
<g id="edge5" class="edge">
<title>Node5&#45;&gt;Node6</title>
<path fill="none" stroke="midnightblue" d="M3860.16,-173.98C3899.06,-163.5 3965.14,-145.71 4008.05,-134.16"/>
<polygon fill="midnightblue" stroke="midnightblue" points="4009.15,-137.49 4017.89,-131.51 4007.33,-130.73 4009.15,-137.49"/>
</g>
<!-- Node7 -->
<g id="node7" class="node">
<title>Node7</title>
<g id="a_node7"><a xlink:title=" ">
<polygon fill="white" stroke="#bfbfbf" points="4143.5,-112.5 4143.5,-131.5 4277.5,-131.5 4277.5,-112.5 4143.5,-112.5"/>
<text text-anchor="middle" x="4210.5" y="-119.5" font-family="Helvetica,sans-Serif" font-size="10.00">TGUI/Widgets/Label.hpp</text>
</a>
</g>
</g>
<!-- Node5&#45;&gt;Node7 -->
<g id="edge6" class="edge">
<title>Node5&#45;&gt;Node7</title>
<path fill="none" stroke="midnightblue" d="M3883.23,-173.98C3952.59,-163.17 4071.96,-144.58 4145.77,-133.08"/>
<polygon fill="midnightblue" stroke="midnightblue" points="4146.53,-136.51 4155.87,-131.51 4145.45,-129.59 4146.53,-136.51"/>
</g>
<!-- Node8 -->
<g id="node8" class="node">
<title>Node8</title>
<g id="a_node8"><a xlink:title=" ">
<polygon fill="white" stroke="#bfbfbf" points="3595,-112.5 3595,-131.5 3766,-131.5 3766,-112.5 3595,-112.5"/>
<text text-anchor="middle" x="3680.5" y="-119.5" font-family="Helvetica,sans-Serif" font-size="10.00">TGUI/Widgets/ToggleButton.hpp</text>
</a>
</g>
</g>
<!-- Node5&#45;&gt;Node8 -->
<g id="edge7" class="edge">
<title>Node5&#45;&gt;Node8</title>
<path fill="none" stroke="midnightblue" d="M3807.3,-173.98C3782.13,-163.86 3739.96,-146.9 3711.22,-135.35"/>
<polygon fill="midnightblue" stroke="midnightblue" points="3712.25,-131.99 3701.67,-131.51 3709.64,-138.49 3712.25,-131.99"/>
</g>
<!-- Node5&#45;&gt;Node9 -->
<g id="edge8" class="edge">
<title>Node5&#45;&gt;Node9</title>
<path fill="none" stroke="midnightblue" d="M3753.82,-179.16C3600.83,-172.13 3240.49,-154.65 2925.84,-132"/>
<polygon fill="midnightblue" stroke="midnightblue" points="2925.83,-128.49 2915.61,-131.26 2925.33,-135.47 2925.83,-128.49"/>
</g>
<!-- Node10 -->
<g id="node10" class="node">
<title>Node10</title>
<g id="a_node10"><a xlink:title=" ">
<polygon fill="white" stroke="#bfbfbf" points="3784,-112.5 3784,-131.5 3873,-131.5 3873,-112.5 3784,-112.5"/>
<text text-anchor="middle" x="3828.5" y="-119.5" font-family="Helvetica,sans-Serif" font-size="10.00">TGUI/TGUI.hpp</text>
</a>
</g>
</g>
<!-- Node5&#45;&gt;Node10 -->
<g id="edge9" class="edge">
<title>Node5&#45;&gt;Node10</title>
<path fill="none" stroke="midnightblue" d="M3828.5,-173.98C3828.5,-165.58 3828.5,-152.48 3828.5,-141.66"/>
<polygon fill="midnightblue" stroke="midnightblue" points="3832,-141.51 3828.5,-131.51 3825,-141.51 3832,-141.51"/>
</g>
<!-- Node11 -->
<g id="node11" class="node">
<title>Node11</title>
<g id="a_node11"><a xlink:title=" ">
<polygon fill="white" stroke="#bfbfbf" points="3891,-112.5 3891,-131.5 3956,-131.5 3956,-112.5 3891,-112.5"/>
<text text-anchor="middle" x="3923.5" y="-119.5" font-family="Helvetica,sans-Serif" font-size="10.00">functional</text>
</a>
</g>
</g>
<!-- Node5&#45;&gt;Node11 -->
<g id="edge10" class="edge">
<title>Node5&#45;&gt;Node11</title>
<path fill="none" stroke="midnightblue" d="M3842.11,-173.98C3857.56,-164.3 3882.99,-148.37 3901.32,-136.89"/>
<polygon fill="midnightblue" stroke="midnightblue" points="3903.3,-139.78 3909.91,-131.51 3899.58,-133.85 3903.3,-139.78"/>
</g>
<!-- Node13 -->
<g id="node13" class="node">
<title>Node13</title>
<g id="a_node13"><a xlink:title=" ">
<polygon fill="white" stroke="#bfbfbf" points="406,-112.5 406,-131.5 461,-131.5 461,-112.5 406,-112.5"/>
<text text-anchor="middle" x="433.5" y="-119.5" font-family="Helvetica,sans-Serif" font-size="10.00">fstream</text>
</a>
</g>
</g>
<!-- Node12&#45;&gt;Node13 -->
<g id="edge12" class="edge">
<title>Node12&#45;&gt;Node13</title>
<path fill="none" stroke="midnightblue" d="M313.56,-173.98C337.26,-163.9 376.91,-147.05 404.08,-135.5"/>
<polygon fill="midnightblue" stroke="midnightblue" points="405.64,-138.64 413.48,-131.51 402.91,-132.2 405.64,-138.64"/>
</g>
<!-- Node14 -->
<g id="node14" class="node">
<title>Node14</title>
<g id="a_node14"><a xlink:title=" ">
<polygon fill="white" stroke="#bfbfbf" points="219.5,-112.5 219.5,-131.5 275.5,-131.5 275.5,-112.5 219.5,-112.5"/>
<text text-anchor="middle" x="247.5" y="-119.5" font-family="Helvetica,sans-Serif" font-size="10.00">sstream</text>
</a>
</g>
</g>
<!-- Node12&#45;&gt;Node14 -->
<g id="edge13" class="edge">
<title>Node12&#45;&gt;Node14</title>
<path fill="none" stroke="midnightblue" d="M286.91,-173.98C280.01,-165.05 269,-150.81 260.37,-139.64"/>
<polygon fill="midnightblue" stroke="midnightblue" points="262.96,-137.28 254.08,-131.51 257.43,-141.56 262.96,-137.28"/>
</g>
<!-- Node15 -->
<g id="node15" class="node">
<title>Node15</title>
<g id="a_node15"><a xlink:title=" ">
<polygon fill="white" stroke="#bfbfbf" points="479.5,-112.5 479.5,-131.5 523.5,-131.5 523.5,-112.5 479.5,-112.5"/>
<text text-anchor="middle" x="501.5" y="-119.5" font-family="Helvetica,sans-Serif" font-size="10.00">string</text>
</a>
</g>
</g>
<!-- Node12&#45;&gt;Node15 -->
<g id="edge14" class="edge">
<title>Node12&#45;&gt;Node15</title>
<path fill="none" stroke="midnightblue" d="M323.3,-173.98C362.16,-162.86 429.84,-143.5 469.67,-132.11"/>
<polygon fill="midnightblue" stroke="midnightblue" points="470.75,-135.44 479.4,-129.32 468.82,-128.71 470.75,-135.44"/>
</g>
<!-- Node16 -->
<g id="node16" class="node">
<title>Node16</title>
<g id="a_node16"><a xlink:title=" ">
<polygon fill="white" stroke="#bfbfbf" points="1882.5,-112.5 1882.5,-131.5 1942.5,-131.5 1942.5,-112.5 1882.5,-112.5"/>
<text text-anchor="middle" x="1912.5" y="-119.5" font-family="Helvetica,sans-Serif" font-size="10.00">iostream</text>
</a>
</g>
</g>
<!-- Node12&#45;&gt;Node16 -->
<g id="edge15" class="edge">
<title>Node12&#45;&gt;Node16</title>
<path fill="none" stroke="midnightblue" d="M376.23,-180.8C674.34,-174.55 1685.4,-152.2 1872.42,-131.75"/>
<polygon fill="midnightblue" stroke="midnightblue" points="1872.86,-135.23 1882.37,-130.56 1872.03,-128.27 1872.86,-135.23"/>
</g>
<!-- Node17 -->
<g id="node17" class="node">
<title>Node17</title>
<g id="a_node17"><a xlink:title=" ">
<polygon fill="white" stroke="#bfbfbf" points="293.5,-112.5 293.5,-131.5 349.5,-131.5 349.5,-112.5 293.5,-112.5"/>
<text text-anchor="middle" x="321.5" y="-119.5" font-family="Helvetica,sans-Serif" font-size="10.00">iomanip</text>
</a>
</g>
</g>
<!-- Node12&#45;&gt;Node17 -->
<g id="edge16" class="edge">
<title>Node12&#45;&gt;Node17</title>
<path fill="none" stroke="midnightblue" d="M297.51,-173.98C301.59,-165.32 308.02,-151.65 313.2,-140.65"/>
<polygon fill="midnightblue" stroke="midnightblue" points="316.4,-142.05 317.5,-131.51 310.07,-139.07 316.4,-142.05"/>
</g>
<!-- Node12&#45;&gt;Node18 -->
<g id="edge17" class="edge">
<title>Node12&#45;&gt;Node18</title>
<path fill="none" stroke="midnightblue" d="M376.22,-180.72C683.85,-173.98 1753.77,-149.64 1950.77,-131.79"/>
<polygon fill="midnightblue" stroke="midnightblue" points="1951.38,-135.25 1960.99,-130.79 1950.7,-128.28 1951.38,-135.25"/>
</g>
<!-- Node12&#45;&gt;Node21 -->
<g id="edge23" class="edge">
<title>Node12&#45;&gt;Node21</title>
<path fill="none" stroke="midnightblue" d="M210.71,-177.42C140.34,-170.21 56.57,-152.97 96.5,-112 125.5,-82.24 1382.19,-70.49 1748.36,-67.69"/>
<polygon fill="midnightblue" stroke="midnightblue" points="1748.44,-71.19 1758.41,-67.62 1748.39,-64.19 1748.44,-71.19"/>
</g>
<!-- Node22 -->
<g id="node22" class="node">
<title>Node22</title>
<g id="a_node22"><a xlink:href="tinyfiledialogs_8h.html" target="_top" xlink:title=" ">
<polygon fill="white" stroke="black" points="106,-112.5 106,-131.5 201,-131.5 201,-112.5 106,-112.5"/>
<text text-anchor="middle" x="153.5" y="-119.5" font-family="Helvetica,sans-Serif" font-size="10.00">tinyfiledialogs.h</text>
</a>
</g>
</g>
<!-- Node12&#45;&gt;Node22 -->
<g id="edge24" class="edge">
<title>Node12&#45;&gt;Node22</title>
<path fill="none" stroke="midnightblue" d="M273.44,-173.98C249.74,-163.9 210.09,-147.05 182.92,-135.5"/>
<polygon fill="midnightblue" stroke="midnightblue" points="184.09,-132.2 173.52,-131.51 181.36,-138.64 184.09,-132.2"/>
</g>
<!-- Node18&#45;&gt;Node3 -->
<g id="edge20" class="edge">
<title>Node18&#45;&gt;Node3</title>
<path fill="none" stroke="midnightblue" d="M2004.69,-112.29C2012.28,-97.62 2029.84,-68.35 2054.5,-56 2126.94,-19.73 2680.41,-12.68 2872.27,-11.32"/>
<polygon fill="midnightblue" stroke="midnightblue" points="2872.51,-14.82 2882.48,-11.25 2872.46,-7.82 2872.51,-14.82"/>
</g>
<!-- Node19 -->
<g id="node19" class="node">
<title>Node19</title>
<g id="a_node19"><a xlink:title=" ">
<polygon fill="white" stroke="#bfbfbf" points="1955,-56.5 1955,-75.5 2002,-75.5 2002,-56.5 1955,-56.5"/>
<text text-anchor="middle" x="1978.5" y="-63.5" font-family="Helvetica,sans-Serif" font-size="10.00">vector</text>
</a>
</g>
</g>
<!-- Node18&#45;&gt;Node19 -->
<g id="edge18" class="edge">
<title>Node18&#45;&gt;Node19</title>
<path fill="none" stroke="midnightblue" d="M1996.87,-112.08C1993.89,-104.77 1989.57,-94.18 1985.88,-85.1"/>
<polygon fill="midnightblue" stroke="midnightblue" points="1989.08,-83.69 1982.07,-75.75 1982.6,-86.33 1989.08,-83.69"/>
</g>
<!-- Node20 -->
<g id="node20" class="node">
<title>Node20</title>
<g id="a_node20"><a xlink:title=" ">
<polygon fill="white" stroke="#bfbfbf" points="2276,-56.5 2276,-75.5 2323,-75.5 2323,-56.5 2276,-56.5"/>
<text text-anchor="middle" x="2299.5" y="-63.5" font-family="Helvetica,sans-Serif" font-size="10.00">cmath</text>
</a>
</g>
</g>
<!-- Node18&#45;&gt;Node20 -->
<g id="edge19" class="edge">
<title>Node18&#45;&gt;Node20</title>
<path fill="none" stroke="midnightblue" d="M2040.2,-113.83C2099.45,-103.13 2209.97,-83.17 2265.63,-73.12"/>
<polygon fill="midnightblue" stroke="midnightblue" points="2266.46,-76.52 2275.68,-71.3 2265.21,-69.64 2266.46,-76.52"/>
</g>
<!-- Node18&#45;&gt;Node21 -->
<g id="edge21" class="edge">
<title>Node18&#45;&gt;Node21</title>
<path fill="none" stroke="midnightblue" d="M1976.26,-112.44C1950.63,-103.4 1910.01,-89.06 1881.26,-78.92"/>
<polygon fill="midnightblue" stroke="midnightblue" points="1882.22,-75.54 1871.63,-75.52 1879.89,-82.15 1882.22,-75.54"/>
</g>
<!-- Node21&#45;&gt;Node3 -->
<g id="edge22" class="edge">
<title>Node21&#45;&gt;Node3</title>
<path fill="none" stroke="midnightblue" d="M1936.53,-56.71C1939.9,-56.46 1943.23,-56.22 1946.5,-56 2295.17,-32.25 2713.74,-17.88 2872.32,-12.94"/>
<polygon fill="midnightblue" stroke="midnightblue" points="2872.5,-16.43 2882.39,-12.63 2872.29,-9.44 2872.5,-16.43"/>
</g>
<!-- Node23&#45;&gt;Node2 -->
<g id="edge27" class="edge">
<title>Node23&#45;&gt;Node2</title>
<path fill="none" stroke="midnightblue" d="M960.34,-174.92C874.42,-166.42 734.98,-151.27 615.5,-132 614.06,-131.77 612.59,-131.52 611.11,-131.26"/>
<polygon fill="midnightblue" stroke="midnightblue" points="611.73,-127.82 601.26,-129.44 610.46,-134.7 611.73,-127.82"/>
</g>
<!-- Node23&#45;&gt;Node13 -->
<g id="edge38" class="edge">
<title>Node23&#45;&gt;Node13</title>
<path fill="none" stroke="midnightblue" d="M960.17,-179.16C850.99,-173.81 650.96,-161.01 471.19,-131.86"/>
<polygon fill="midnightblue" stroke="midnightblue" points="471.72,-128.4 461.29,-130.23 470.59,-135.31 471.72,-128.4"/>
</g>
<!-- Node23&#45;&gt;Node15 -->
<g id="edge36" class="edge">
<title>Node23&#45;&gt;Node15</title>
<path fill="none" stroke="midnightblue" d="M960.17,-179.04C861.31,-173.8 689.4,-161.38 533.95,-131.95"/>
<polygon fill="midnightblue" stroke="midnightblue" points="534.21,-128.43 523.73,-129.98 532.89,-135.31 534.21,-128.43"/>
</g>
<!-- Node23&#45;&gt;Node16 -->
<g id="edge39" class="edge">
<title>Node23&#45;&gt;Node16</title>
<path fill="none" stroke="midnightblue" d="M1122.56,-182.04C1270.13,-180.22 1592.46,-171.76 1872.42,-131.91"/>
<polygon fill="midnightblue" stroke="midnightblue" points="1872.96,-135.37 1882.36,-130.48 1871.96,-128.44 1872.96,-135.37"/>
</g>
<!-- Node23&#45;&gt;Node19 -->
<g id="edge37" class="edge">
<title>Node23&#45;&gt;Node19</title>
<path fill="none" stroke="midnightblue" d="M960.38,-179.81C834.05,-174.18 609.11,-157.65 653.5,-112 702.05,-62.08 1804.6,-85.02 1944.61,-75.19"/>
<polygon fill="midnightblue" stroke="midnightblue" points="1945.25,-78.65 1954.85,-74.17 1944.55,-71.68 1945.25,-78.65"/>
</g>
<!-- Node23&#45;&gt;Node20 -->
<g id="edge40" class="edge">
<title>Node23&#45;&gt;Node20</title>
<path fill="none" stroke="midnightblue" d="M960.14,-178.53C843.41,-171.37 646.57,-153.03 686.5,-112 712.18,-85.61 1974.7,-77.08 2011.5,-76 2103.42,-73.31 2211.84,-69.85 2265.66,-68.1"/>
<polygon fill="midnightblue" stroke="midnightblue" points="2266.1,-71.59 2275.98,-67.77 2265.87,-64.59 2266.1,-71.59"/>
</g>
<!-- Node24 -->
<g id="node24" class="node">
<title>Node24</title>
<g id="a_node24"><a xlink:title=" ">
<polygon fill="white" stroke="#bfbfbf" points="695.5,-112.5 695.5,-131.5 827.5,-131.5 827.5,-112.5 695.5,-112.5"/>
<text text-anchor="middle" x="761.5" y="-119.5" font-family="Helvetica,sans-Serif" font-size="10.00">geometry_msgs/Twist.h</text>
</a>
</g>
</g>
<!-- Node23&#45;&gt;Node24 -->
<g id="edge28" class="edge">
<title>Node23&#45;&gt;Node24</title>
<path fill="none" stroke="midnightblue" d="M1001.38,-173.98C951.38,-163.35 865.9,-145.18 811.63,-133.65"/>
<polygon fill="midnightblue" stroke="midnightblue" points="812.05,-130.16 801.54,-131.51 810.6,-137.01 812.05,-130.16"/>
</g>
<!-- Node25 -->
<g id="node25" class="node">
<title>Node25</title>
<g id="a_node25"><a xlink:title=" ">
<polygon fill="white" stroke="#bfbfbf" points="845.5,-112.5 845.5,-131.5 951.5,-131.5 951.5,-112.5 845.5,-112.5"/>
<text text-anchor="middle" x="898.5" y="-119.5" font-family="Helvetica,sans-Serif" font-size="10.00">sensor_msgs/Joy.h</text>
</a>
</g>
</g>
<!-- Node23&#45;&gt;Node25 -->
<g id="edge29" class="edge">
<title>Node23&#45;&gt;Node25</title>
<path fill="none" stroke="midnightblue" d="M1021.01,-173.98C996.69,-163.86 955.95,-146.9 928.18,-135.35"/>
<polygon fill="midnightblue" stroke="midnightblue" points="929.53,-132.12 918.95,-131.51 926.84,-138.58 929.53,-132.12"/>
</g>
<!-- Node26 -->
<g id="node26" class="node">
<title>Node26</title>
<g id="a_node26"><a xlink:title=" ">
<polygon fill="white" stroke="#bfbfbf" points="969.5,-112.5 969.5,-131.5 1113.5,-131.5 1113.5,-112.5 969.5,-112.5"/>
<text text-anchor="middle" x="1041.5" y="-119.5" font-family="Helvetica,sans-Serif" font-size="10.00">geometry_msgs/Point32.h</text>
</a>
</g>
</g>
<!-- Node23&#45;&gt;Node26 -->
<g id="edge30" class="edge">
<title>Node23&#45;&gt;Node26</title>
<path fill="none" stroke="midnightblue" d="M1041.5,-173.98C1041.5,-165.58 1041.5,-152.48 1041.5,-141.66"/>
<polygon fill="midnightblue" stroke="midnightblue" points="1045,-141.51 1041.5,-131.51 1038,-141.51 1045,-141.51"/>
</g>
<!-- Node27 -->
<g id="node27" class="node">
<title>Node27</title>
<g id="a_node27"><a xlink:title=" ">
<polygon fill="white" stroke="#bfbfbf" points="1132,-112.5 1132,-131.5 1277,-131.5 1277,-112.5 1132,-112.5"/>
<text text-anchor="middle" x="1204.5" y="-119.5" font-family="Helvetica,sans-Serif" font-size="10.00">sensor_msgs/PointCloud.h</text>
</a>
</g>
</g>
<!-- Node23&#45;&gt;Node27 -->
<g id="edge31" class="edge">
<title>Node23&#45;&gt;Node27</title>
<path fill="none" stroke="midnightblue" d="M1064.85,-173.98C1092.81,-163.77 1139.83,-146.61 1171.49,-135.05"/>
<polygon fill="midnightblue" stroke="midnightblue" points="1173,-138.23 1181.19,-131.51 1170.6,-131.65 1173,-138.23"/>
</g>
<!-- Node28 -->
<g id="node28" class="node">
<title>Node28</title>
<g id="a_node28"><a xlink:title=" ">
<polygon fill="white" stroke="#bfbfbf" points="1295,-112.5 1295,-131.5 1420,-131.5 1420,-112.5 1295,-112.5"/>
<text text-anchor="middle" x="1357.5" y="-119.5" font-family="Helvetica,sans-Serif" font-size="10.00">nav_msgs/Odometry.h</text>
</a>
</g>
</g>
<!-- Node23&#45;&gt;Node28 -->
<g id="edge32" class="edge">
<title>Node23&#45;&gt;Node28</title>
<path fill="none" stroke="midnightblue" d="M1086.78,-173.98C1143.68,-163.26 1241.29,-144.88 1302.45,-133.37"/>
<polygon fill="midnightblue" stroke="midnightblue" points="1303.13,-136.8 1312.31,-131.51 1301.83,-129.92 1303.13,-136.8"/>
</g>
<!-- Node29 -->
<g id="node29" class="node">
<title>Node29</title>
<g id="a_node29"><a xlink:title=" ">
<polygon fill="white" stroke="#bfbfbf" points="1438.5,-112.5 1438.5,-131.5 1590.5,-131.5 1590.5,-112.5 1438.5,-112.5"/>
<text text-anchor="middle" x="1514.5" y="-119.5" font-family="Helvetica,sans-Serif" font-size="10.00">nav_msgs/OccupancyGrid.h</text>
</a>
</g>
</g>
<!-- Node23&#45;&gt;Node29 -->
<g id="edge33" class="edge">
<title>Node23&#45;&gt;Node29</title>
<path fill="none" stroke="midnightblue" d="M1109.27,-173.98C1195.94,-163.07 1345.69,-144.24 1436.86,-132.77"/>
<polygon fill="midnightblue" stroke="midnightblue" points="1437.37,-136.23 1446.86,-131.51 1436.5,-129.28 1437.37,-136.23"/>
</g>
<!-- Node30 -->
<g id="node30" class="node">
<title>Node30</title>
<g id="a_node30"><a xlink:title=" ">
<polygon fill="white" stroke="#bfbfbf" points="1608.5,-112.5 1608.5,-131.5 1708.5,-131.5 1708.5,-112.5 1608.5,-112.5"/>
<text text-anchor="middle" x="1658.5" y="-119.5" font-family="Helvetica,sans-Serif" font-size="10.00">std_msgs/Int32.h</text>
</a>
</g>
</g>
<!-- Node23&#45;&gt;Node30 -->
<g id="edge34" class="edge">
<title>Node23&#45;&gt;Node30</title>
<path fill="none" stroke="midnightblue" d="M1122.52,-176.73C1229.23,-168.78 1422.92,-153.14 1598.39,-132.07"/>
<polygon fill="midnightblue" stroke="midnightblue" points="1598.81,-135.54 1608.32,-130.87 1597.97,-128.59 1598.81,-135.54"/>
</g>
<!-- Node31 -->
<g id="node31" class="node">
<title>Node31</title>
<g id="a_node31"><a xlink:title=" ">
<polygon fill="white" stroke="#bfbfbf" points="1726.5,-112.5 1726.5,-131.5 1864.5,-131.5 1864.5,-112.5 1726.5,-112.5"/>
<text text-anchor="middle" x="1795.5" y="-119.5" font-family="Helvetica,sans-Serif" font-size="10.00">tf/transform_datatypes.h</text>
</a>
</g>
</g>
<!-- Node23&#45;&gt;Node31 -->
<g id="edge35" class="edge">
<title>Node23&#45;&gt;Node31</title>
<path fill="none" stroke="midnightblue" d="M1122.75,-177.49C1247.86,-169.54 1495.46,-152.88 1716.04,-132.1"/>
<polygon fill="midnightblue" stroke="midnightblue" points="1716.57,-135.57 1726.19,-131.14 1715.91,-128.6 1716.57,-135.57"/>
</g>
<!-- Node32&#45;&gt;Node2 -->
<g id="edge48" class="edge">
<title>Node32&#45;&gt;Node2</title>
<path fill="none" stroke="midnightblue" d="M2302.48,-181.43C2053.77,-177.99 1306.03,-165.42 686.5,-132 661.47,-130.65 633.42,-128.47 611.29,-126.59"/>
<polygon fill="midnightblue" stroke="midnightblue" points="611.52,-123.1 601.26,-125.73 610.92,-130.07 611.52,-123.1"/>
</g>
<!-- Node32&#45;&gt;Node3 -->
<g id="edge44" class="edge">
<title>Node32&#45;&gt;Node3</title>
<path fill="none" stroke="midnightblue" d="M2304.42,-173.97C2220.86,-164.52 2102.41,-148.46 2088.5,-132 2082.76,-125.21 2083.24,-119.16 2088.5,-112 2137.87,-44.83 2185.57,-71.34 2267.5,-56 2486.29,-15.03 2751.42,-10.14 2872.06,-10.3"/>
<polygon fill="midnightblue" stroke="midnightblue" points="2872.23,-13.8 2882.23,-10.33 2872.24,-6.8 2872.23,-13.8"/>
</g>
<!-- Node32&#45;&gt;Node9 -->
<g id="edge45" class="edge">
<title>Node32&#45;&gt;Node9</title>
<path fill="none" stroke="midnightblue" d="M2450.11,-173.98C2529.94,-163.11 2667.69,-144.35 2752,-132.87"/>
<polygon fill="midnightblue" stroke="midnightblue" points="2752.57,-136.33 2762,-131.51 2751.62,-129.39 2752.57,-136.33"/>
</g>
<!-- Node32&#45;&gt;Node16 -->
<g id="edge43" class="edge">
<title>Node32&#45;&gt;Node16</title>
<path fill="none" stroke="midnightblue" d="M2302.1,-175.28C2214.11,-167.2 2073.17,-152.52 1952.5,-132 1952.4,-131.98 1952.3,-131.97 1952.2,-131.95"/>
<polygon fill="midnightblue" stroke="midnightblue" points="1953.05,-128.55 1942.57,-130.12 1951.75,-135.43 1953.05,-128.55"/>
</g>
<!-- Node33 -->
<g id="node33" class="node">
<title>Node33</title>
<g id="a_node33"><a xlink:title=" ">
<polygon fill="white" stroke="#bfbfbf" points="2097,-112.5 2097,-131.5 2242,-131.5 2242,-112.5 2097,-112.5"/>
<text text-anchor="middle" x="2169.5" y="-119.5" font-family="Helvetica,sans-Serif" font-size="10.00">TGUI/Widgets/EditBox.hpp</text>
</a>
</g>
</g>
<!-- Node32&#45;&gt;Node33 -->
<g id="edge46" class="edge">
<title>Node32&#45;&gt;Node33</title>
<path fill="none" stroke="midnightblue" d="M2356.27,-173.98C2317.9,-163.5 2252.71,-145.71 2210.39,-134.16"/>
<polygon fill="midnightblue" stroke="midnightblue" points="2211.24,-130.77 2200.68,-131.51 2209.4,-137.52 2211.24,-130.77"/>
</g>
<!-- Node34 -->
<g id="node34" class="node">
<title>Node34</title>
<g id="a_node34"><a xlink:title=" ">
<polygon fill="white" stroke="#bfbfbf" points="2260.5,-112.5 2260.5,-131.5 2400.5,-131.5 2400.5,-112.5 2260.5,-112.5"/>
<text text-anchor="middle" x="2330.5" y="-119.5" font-family="Helvetica,sans-Serif" font-size="10.00">TGUI/Widgets/Button.hpp</text>
</a>
</g>
</g>
<!-- Node32&#45;&gt;Node34 -->
<g id="edge47" class="edge">
<title>Node32&#45;&gt;Node34</title>
<path fill="none" stroke="midnightblue" d="M2379.33,-173.98C2370.61,-164.87 2356.6,-150.24 2345.81,-138.98"/>
<polygon fill="midnightblue" stroke="midnightblue" points="2348.1,-136.31 2338.65,-131.51 2343.04,-141.15 2348.1,-136.31"/>
</g>
<!-- Node35 -->
<g id="node35" class="node">
<title>Node35</title>
<g id="a_node35"><a xlink:title=" ">
<polygon fill="white" stroke="#bfbfbf" points="2671.5,-112.5 2671.5,-131.5 2715.5,-131.5 2715.5,-112.5 2671.5,-112.5"/>
<text text-anchor="middle" x="2693.5" y="-119.5" font-family="Helvetica,sans-Serif" font-size="10.00">regex</text>
</a>
</g>
</g>
<!-- Node32&#45;&gt;Node35 -->
<g id="edge49" class="edge">
<title>Node32&#45;&gt;Node35</title>
<path fill="none" stroke="midnightblue" d="M2443.15,-173.97C2496.76,-165.38 2580.31,-150.99 2661.35,-132.09"/>
<polygon fill="midnightblue" stroke="midnightblue" points="2662.29,-135.46 2671.22,-129.76 2660.68,-128.65 2662.29,-135.46"/>
</g>
<!-- Node36 -->
<g id="node36" class="node">
<title>Node36</title>
<g id="a_node36"><a xlink:title=" ">
<polygon fill="white" stroke="#bfbfbf" points="2419,-112.5 2419,-131.5 2468,-131.5 2468,-112.5 2419,-112.5"/>
<text text-anchor="middle" x="2443.5" y="-119.5" font-family="Helvetica,sans-Serif" font-size="10.00">cctype</text>
</a>
</g>
</g>
<!-- Node32&#45;&gt;Node36 -->
<g id="edge50" class="edge">
<title>Node32&#45;&gt;Node36</title>
<path fill="none" stroke="midnightblue" d="M2395.52,-173.98C2404.09,-164.87 2417.86,-150.24 2428.46,-138.98"/>
<polygon fill="midnightblue" stroke="midnightblue" points="2431.19,-141.19 2435.49,-131.51 2426.09,-136.39 2431.19,-141.19"/>
</g>
<!-- Node32&#45;&gt;Node37 -->
<g id="edge51" class="edge">
<title>Node32&#45;&gt;Node37</title>
<path fill="none" stroke="midnightblue" d="M2413.58,-173.98C2445.07,-163.68 2498.2,-146.31 2533.56,-134.75"/>
<polygon fill="midnightblue" stroke="midnightblue" points="2535.05,-137.94 2543.47,-131.51 2532.88,-131.29 2535.05,-137.94"/>
</g>
<!-- Node37&#45;&gt;Node3 -->
<g id="edge52" class="edge">
<title>Node37&#45;&gt;Node3</title>
<path fill="none" stroke="midnightblue" d="M2598.07,-112.46C2663.63,-92.86 2824.93,-44.65 2899.08,-22.48"/>
<polygon fill="midnightblue" stroke="midnightblue" points="2900.37,-25.75 2908.95,-19.53 2898.36,-19.05 2900.37,-25.75"/>
</g>
<!-- Node37&#45;&gt;Node20 -->
<g id="edge54" class="edge">
<title>Node37&#45;&gt;Node20</title>
<path fill="none" stroke="midnightblue" d="M2526.72,-112.44C2473.11,-101.72 2382.33,-83.57 2333.31,-73.76"/>
<polygon fill="midnightblue" stroke="midnightblue" points="2333.72,-70.27 2323.23,-71.75 2332.35,-77.14 2333.72,-70.27"/>
</g>
<!-- Node38 -->
<g id="node38" class="node">
<title>Node38</title>
<g id="a_node38"><a xlink:href="MyConstants_8hpp.html" target="_top" xlink:title=" ">
<polygon fill="white" stroke="black" points="2519,-56.5 2519,-75.5 2620,-75.5 2620,-56.5 2519,-56.5"/>
<text text-anchor="middle" x="2569.5" y="-63.5" font-family="Helvetica,sans-Serif" font-size="10.00">MyConstants.hpp</text>
</a>
</g>
</g>
<!-- Node37&#45;&gt;Node38 -->
<g id="edge53" class="edge">
<title>Node37&#45;&gt;Node38</title>
<path fill="none" stroke="midnightblue" d="M2569.5,-112.08C2569.5,-105.01 2569.5,-94.86 2569.5,-85.99"/>
<polygon fill="midnightblue" stroke="midnightblue" points="2573,-85.75 2569.5,-75.75 2566,-85.75 2573,-85.75"/>
</g>
<!-- Node39&#45;&gt;Node3 -->
<g id="edge59" class="edge">
<title>Node39&#45;&gt;Node3</title>
<path fill="none" stroke="midnightblue" d="M3284.73,-112.28C3284.59,-98.12 3282.06,-70.28 3265.5,-56 3227.26,-23.04 3087.05,-14.12 3002.82,-11.78"/>
<polygon fill="midnightblue" stroke="midnightblue" points="3002.67,-8.27 2992.58,-11.51 3002.49,-15.27 3002.67,-8.27"/>
</g>
<!-- Node39&#45;&gt;Node19 -->
<g id="edge57" class="edge">
<title>Node39&#45;&gt;Node19</title>
<path fill="none" stroke="midnightblue" d="M3210.77,-112.65C3207.98,-112.42 3205.21,-112.2 3202.5,-112 3081.05,-103.11 2196.98,-74.1 2012.27,-68.09"/>
<polygon fill="midnightblue" stroke="midnightblue" points="2012.19,-64.59 2002.08,-67.76 2011.96,-71.59 2012.19,-64.59"/>
</g>
<!-- Node39&#45;&gt;Node21 -->
<g id="edge60" class="edge">
<title>Node39&#45;&gt;Node21</title>
<path fill="none" stroke="midnightblue" d="M3210.77,-112.62C3207.98,-112.4 3205.21,-112.19 3202.5,-112 2648.78,-73.74 2505.7,-108.86 1946.87,-75.97"/>
<polygon fill="midnightblue" stroke="midnightblue" points="1946.72,-72.45 1936.53,-75.36 1946.3,-79.44 1946.72,-72.45"/>
</g>
<!-- Node40 -->
<g id="node40" class="node">
<title>Node40</title>
<g id="a_node40"><a xlink:title=" ">
<polygon fill="white" stroke="#bfbfbf" points="3205,-56.5 3205,-75.5 3256,-75.5 3256,-56.5 3205,-56.5"/>
<text text-anchor="middle" x="3230.5" y="-63.5" font-family="Helvetica,sans-Serif" font-size="10.00">math.h</text>
</a>
</g>
</g>
<!-- Node39&#45;&gt;Node40 -->
<g id="edge58" class="edge">
<title>Node39&#45;&gt;Node40</title>
<path fill="none" stroke="midnightblue" d="M3275.58,-112.08C3267.72,-104.22 3256.07,-92.57 3246.58,-83.08"/>
<polygon fill="midnightblue" stroke="midnightblue" points="3248.8,-80.35 3239.25,-75.75 3243.85,-85.3 3248.8,-80.35"/>
</g>
<!-- Node41&#45;&gt;Node3 -->
<g id="edge62" class="edge">
<title>Node41&#45;&gt;Node3</title>
<path fill="none" stroke="midnightblue" d="M2900.02,-168.46C2954.65,-157.54 3020.26,-142.52 3028.5,-132 3058.52,-93.65 2997.41,-47.42 2961.36,-24.81"/>
<polygon fill="midnightblue" stroke="midnightblue" points="2963.16,-21.82 2952.81,-19.59 2959.52,-27.79 2963.16,-21.82"/>
</g>
<!-- Node41&#45;&gt;Node9 -->
<g id="edge63" class="edge">
<title>Node41&#45;&gt;Node9</title>
<path fill="none" stroke="midnightblue" d="M2824.5,-168.4C2824.5,-160.47 2824.5,-150.46 2824.5,-141.86"/>
<polygon fill="midnightblue" stroke="midnightblue" points="2828,-141.66 2824.5,-131.66 2821,-141.66 2828,-141.66"/>
</g>
<!-- Node41&#45;&gt;Node16 -->
<g id="edge66" class="edge">
<title>Node41&#45;&gt;Node16</title>
<path fill="none" stroke="midnightblue" d="M2746.91,-178.73C2547.98,-168.98 2029.88,-142.87 1952.5,-132 1952.4,-131.99 1952.3,-131.97 1952.2,-131.96"/>
<polygon fill="midnightblue" stroke="midnightblue" points="1952.99,-128.54 1942.54,-130.31 1951.81,-135.44 1952.99,-128.54"/>
</g>
<!-- Node41&#45;&gt;Node18 -->
<g id="edge68" class="edge">
<title>Node41&#45;&gt;Node18</title>
<path fill="none" stroke="midnightblue" d="M2746.81,-178.03C2612.51,-170.1 2328.25,-152.48 2088.5,-132 2076.19,-130.95 2062.92,-129.67 2050.52,-128.41"/>
<polygon fill="midnightblue" stroke="midnightblue" points="2050.64,-124.9 2040.34,-127.36 2049.93,-131.87 2050.64,-124.9"/>
</g>
<!-- Node41&#45;&gt;Node35 -->
<g id="edge67" class="edge">
<title>Node41&#45;&gt;Node35</title>
<path fill="none" stroke="midnightblue" d="M2793.45,-168.4C2771.77,-158.55 2743.04,-145.5 2721.95,-135.92"/>
<polygon fill="midnightblue" stroke="midnightblue" points="2723.11,-132.61 2712.56,-131.66 2720.22,-138.98 2723.11,-132.61"/>
</g>
<!-- Node41&#45;&gt;Node39 -->
<g id="edge69" class="edge">
<title>Node41&#45;&gt;Node39</title>
<path fill="none" stroke="midnightblue" d="M2902.01,-172.47C2987.39,-161.43 3123.79,-143.79 3208.54,-132.82"/>
<polygon fill="midnightblue" stroke="midnightblue" points="3209.15,-136.28 3218.62,-131.52 3208.25,-129.33 3209.15,-136.28"/>
</g>
<!-- Node42 -->
<g id="node42" class="node">
<title>Node42</title>
<g id="a_node42"><a xlink:title=" ">
<polygon fill="white" stroke="#bfbfbf" points="3076,-112.5 3076,-131.5 3193,-131.5 3193,-112.5 3076,-112.5"/>
<text text-anchor="middle" x="3134.5" y="-119.5" font-family="Helvetica,sans-Serif" font-size="10.00">TGUI/AllWidgets.hpp</text>
</a>
</g>
</g>
<!-- Node41&#45;&gt;Node42 -->
<g id="edge64" class="edge">
<title>Node41&#45;&gt;Node42</title>
<path fill="none" stroke="midnightblue" d="M2897.57,-168.47C2953.51,-157.74 3029.41,-143.17 3080.08,-133.44"/>
<polygon fill="midnightblue" stroke="midnightblue" points="3081.02,-136.83 3090.18,-131.51 3079.7,-129.95 3081.02,-136.83"/>
</g>
<!-- Node43 -->
<g id="node43" class="node">
<title>Node43</title>
<g id="a_node43"><a xlink:title=" ">
<polygon fill="white" stroke="#bfbfbf" points="2934,-112.5 2934,-131.5 3019,-131.5 3019,-112.5 2934,-112.5"/>
<text text-anchor="middle" x="2976.5" y="-119.5" font-family="Helvetica,sans-Serif" font-size="10.00">ros/package.h</text>
</a>
</g>
</g>
<!-- Node41&#45;&gt;Node43 -->
<g id="edge65" class="edge">
<title>Node41&#45;&gt;Node43</title>
<path fill="none" stroke="midnightblue" d="M2860.52,-168.4C2886.14,-158.37 2920.23,-145.03 2944.81,-135.4"/>
<polygon fill="midnightblue" stroke="midnightblue" points="2946.35,-138.56 2954.38,-131.66 2943.79,-132.04 2946.35,-138.56"/>
</g>
<!-- Node44&#45;&gt;Node3 -->
<g id="edge73" class="edge">
<title>Node44&#45;&gt;Node3</title>
<path fill="none" stroke="midnightblue" d="M3405.89,-173.74C3406.07,-159.39 3404.5,-130.6 3390.5,-112 3358.69,-69.74 3335.88,-72.1 3285.5,-56 3190.23,-25.56 3074.03,-15.65 3002.93,-12.47"/>
<polygon fill="midnightblue" stroke="midnightblue" points="3002.91,-8.96 2992.77,-12.04 3002.62,-15.96 3002.91,-8.96"/>
</g>
<!-- Node44&#45;&gt;Node18 -->
<g id="edge74" class="edge">
<title>Node44&#45;&gt;Node18</title>
<path fill="none" stroke="midnightblue" d="M3339.16,-180.52C3107.58,-173.5 2335.72,-149.36 2088.5,-132 2076.17,-131.13 2062.9,-129.92 2050.49,-128.67"/>
<polygon fill="midnightblue" stroke="midnightblue" points="2050.63,-125.16 2040.32,-127.61 2049.9,-132.13 2050.63,-125.16"/>
</g>
<!-- Node44&#45;&gt;Node20 -->
<g id="edge71" class="edge">
<title>Node44&#45;&gt;Node20</title>
<path fill="none" stroke="midnightblue" d="M3403.69,-173.65C3399.98,-158.06 3389.89,-126.02 3367.5,-112 3327.11,-86.72 2558.11,-78.02 2510.5,-76 2447.99,-73.35 2375.06,-70.24 2333.38,-68.45"/>
<polygon fill="midnightblue" stroke="midnightblue" points="2333.37,-64.95 2323.23,-68.02 2333.07,-71.94 2333.37,-64.95"/>
</g>
<!-- Node45 -->
<g id="node45" class="node">
<title>Node45</title>
<g id="a_node45"><a xlink:title=" ">
<polygon fill="white" stroke="#bfbfbf" points="3453,-112.5 3453,-131.5 3500,-131.5 3500,-112.5 3453,-112.5"/>
<text text-anchor="middle" x="3476.5" y="-119.5" font-family="Helvetica,sans-Serif" font-size="10.00">queue</text>
</a>
</g>
</g>
<!-- Node44&#45;&gt;Node45 -->
<g id="edge72" class="edge">
<title>Node44&#45;&gt;Node45</title>
<path fill="none" stroke="midnightblue" d="M3415.67,-173.98C3426.85,-164.61 3445.02,-149.38 3458.59,-138.01"/>
<polygon fill="midnightblue" stroke="midnightblue" points="3460.93,-140.61 3466.35,-131.51 3456.43,-135.25 3460.93,-140.61"/>
</g>
<!-- Node46 -->
<g id="node46" class="node">
<title>Node46</title>
<g id="a_node46"><a xlink:href="Node_8hpp.html" target="_top" xlink:title=" ">
<polygon fill="white" stroke="black" points="3407,-56.5 3407,-75.5 3538,-75.5 3538,-56.5 3407,-56.5"/>
<text text-anchor="middle" x="3472.5" y="-63.5" font-family="Helvetica,sans-Serif" font-size="10.00">artgslam_vsc/Node.hpp</text>
</a>
</g>
</g>
<!-- Node44&#45;&gt;Node46 -->
<g id="edge75" class="edge">
<title>Node44&#45;&gt;Node46</title>
<path fill="none" stroke="midnightblue" d="M3445.96,-174C3468.85,-166.89 3495.6,-154.2 3509.5,-132 3519.97,-115.28 3504.99,-95.53 3491.08,-82.22"/>
<polygon fill="midnightblue" stroke="midnightblue" points="3493.41,-79.61 3483.63,-75.55 3488.74,-84.82 3493.41,-79.61"/>
</g>
<!-- Node46&#45;&gt;Node3 -->
<g id="edge76" class="edge">
<title>Node46&#45;&gt;Node3</title>
<path fill="none" stroke="midnightblue" d="M3406.59,-57.51C3401.82,-56.99 3397.09,-56.48 3392.5,-56 3253.73,-41.33 3091,-25.59 3002.64,-17.17"/>
<polygon fill="midnightblue" stroke="midnightblue" points="3002.79,-13.66 2992.5,-16.2 3002.13,-20.63 3002.79,-13.66"/>
</g>
</g>
</svg>
