<?xml version="1.0" encoding="UTF-8" standalone="no"?>
<!DOCTYPE svg PUBLIC "-//W3C//DTD SVG 1.1//EN"
 "http://www.w3.org/Graphics/SVG/1.1/DTD/svg11.dtd">
<!-- Generated by graphviz version 2.43.0 (0)
 -->
<!-- Title: src/main.cpp Pages: 1 -->
<svg width="4178pt" height="319pt"
 viewBox="0.00 0.00 4178.00 319.00" xmlns="http://www.w3.org/2000/svg" xmlns:xlink="http://www.w3.org/1999/xlink">
<g id="graph0" class="graph" transform="scale(1 1) rotate(0) translate(4 315)">
<title>src/main.cpp</title>
<polygon fill="white" stroke="transparent" points="-4,4 -4,-315 4174,-315 4174,4 -4,4"/>
<!-- Node1 -->
<g id="node1" class="node">
<title>Node1</title>
<g id="a_node1"><a xlink:title=" ">
<polygon fill="#bfbfbf" stroke="black" points="1049.5,-291.5 1049.5,-310.5 1128.5,-310.5 1128.5,-291.5 1049.5,-291.5"/>
<text text-anchor="middle" x="1089" y="-298.5" font-family="Helvetica,sans-Serif" font-size="10.00">src/main.cpp</text>
</a>
</g>
</g>
<!-- Node2 -->
<g id="node2" class="node">
<title>Node2</title>
<g id="a_node2"><a xlink:title=" ">
<polygon fill="white" stroke="#bfbfbf" points="2847.5,-112.5 2847.5,-131.5 2906.5,-131.5 2906.5,-112.5 2847.5,-112.5"/>
<text text-anchor="middle" x="2877" y="-119.5" font-family="Helvetica,sans-Serif" font-size="10.00">ros/ros.h</text>
</a>
</g>
</g>
<!-- Node1&#45;&gt;Node2 -->
<g id="edge1" class="edge">
<title>Node1&#45;&gt;Node2</title>
<path fill="none" stroke="midnightblue" d="M1128.79,-298.65C1339.74,-291.3 2329.07,-254.37 2630,-199 2709.55,-184.36 2799.54,-152.65 2845.83,-135.17"/>
<polygon fill="midnightblue" stroke="midnightblue" points="2847.19,-138.4 2855.29,-131.57 2844.7,-131.86 2847.19,-138.4"/>
</g>
<!-- Node3 -->
<g id="node3" class="node">
<title>Node3</title>
<g id="a_node3"><a xlink:title=" ">
<polygon fill="white" stroke="#bfbfbf" points="315,-0.5 315,-19.5 425,-19.5 425,-0.5 315,-0.5"/>
<text text-anchor="middle" x="370" y="-7.5" font-family="Helvetica,sans-Serif" font-size="10.00">SFML/Graphics.hpp</text>
</a>
</g>
</g>
<!-- Node1&#45;&gt;Node3 -->
<g id="edge2" class="edge">
<title>Node1&#45;&gt;Node3</title>
<path fill="none" stroke="midnightblue" d="M1049.28,-300.04C853.42,-299.73 0,-292.22 0,-184.5 0,-184.5 0,-184.5 0,-121 0,-86.84 12.28,-74.49 41,-56 83.4,-28.7 221.51,-17.7 304.7,-13.47"/>
<polygon fill="midnightblue" stroke="midnightblue" points="305,-16.96 314.82,-12.97 304.66,-9.97 305,-16.96"/>
</g>
<!-- Node4 -->
<g id="node4" class="node">
<title>Node4</title>
<g id="a_node4"><a xlink:href="MapViewer_8hpp.html" target="_top" xlink:title=" ">
<polygon fill="white" stroke="black" points="1008.5,-235.5 1008.5,-254.5 1169.5,-254.5 1169.5,-235.5 1008.5,-235.5"/>
<text text-anchor="middle" x="1089" y="-242.5" font-family="Helvetica,sans-Serif" font-size="10.00">artgslam_vsc/MapViewer.hpp</text>
</a>
</g>
</g>
<!-- Node1&#45;&gt;Node4 -->
<g id="edge3" class="edge">
<title>Node1&#45;&gt;Node4</title>
<path fill="none" stroke="midnightblue" d="M1089,-291.08C1089,-284.01 1089,-273.86 1089,-264.99"/>
<polygon fill="midnightblue" stroke="midnightblue" points="1092.5,-264.75 1089,-254.75 1085.5,-264.75 1092.5,-264.75"/>
</g>
<!-- Node4&#45;&gt;Node3 -->
<g id="edge78" class="edge">
<title>Node4&#45;&gt;Node3</title>
<path fill="none" stroke="midnightblue" d="M1008.45,-244.6C790.65,-245.62 201.38,-244.11 127,-199 66.5,-162.3 10.66,-109.48 57,-56 88.37,-19.79 222.46,-12.04 304.62,-10.77"/>
<polygon fill="midnightblue" stroke="midnightblue" points="304.91,-14.27 314.86,-10.64 304.82,-7.27 304.91,-14.27"/>
</g>
<!-- Node5 -->
<g id="node5" class="node">
<title>Node5</title>
<g id="a_node5"><a xlink:href="MenuBar_8hpp.html" target="_top" xlink:title=" ">
<polygon fill="white" stroke="black" points="2271.5,-174 2271.5,-193 2420.5,-193 2420.5,-174 2271.5,-174"/>
<text text-anchor="middle" x="2346" y="-181" font-family="Helvetica,sans-Serif" font-size="10.00">artgslam_vsc/MenuBar.hpp</text>
</a>
</g>
</g>
<!-- Node4&#45;&gt;Node5 -->
<g id="edge4" class="edge">
<title>Node4&#45;&gt;Node5</title>
<path fill="none" stroke="midnightblue" d="M1169.54,-240.19C1394.99,-229.52 2030.92,-199.41 2261.31,-188.51"/>
<polygon fill="midnightblue" stroke="midnightblue" points="2261.49,-192 2271.32,-188.04 2261.16,-185.01 2261.49,-192"/>
</g>
<!-- Node9 -->
<g id="node9" class="node">
<title>Node9</title>
<g id="a_node9"><a xlink:title=" ">
<polygon fill="white" stroke="#bfbfbf" points="1908,-112.5 1908,-131.5 2090,-131.5 2090,-112.5 1908,-112.5"/>
<text text-anchor="middle" x="1999" y="-119.5" font-family="Helvetica,sans-Serif" font-size="10.00">TGUI/Backend/SFML&#45;Graphics.hpp</text>
</a>
</g>
</g>
<!-- Node4&#45;&gt;Node9 -->
<g id="edge79" class="edge">
<title>Node4&#45;&gt;Node9</title>
<path fill="none" stroke="midnightblue" d="M1169.84,-240.46C1276.73,-235.08 1470.75,-222.82 1635,-199 1751.68,-182.08 1887.13,-150.62 1955.19,-133.98"/>
<polygon fill="midnightblue" stroke="midnightblue" points="1956.25,-137.32 1965.12,-131.54 1954.58,-130.53 1956.25,-137.32"/>
</g>
<!-- Node12 -->
<g id="node12" class="node">
<title>Node12</title>
<g id="a_node12"><a xlink:href="FileManager_8hpp.html" target="_top" xlink:title=" ">
<polygon fill="white" stroke="black" points="566.5,-174 566.5,-193 731.5,-193 731.5,-174 566.5,-174"/>
<text text-anchor="middle" x="649" y="-181" font-family="Helvetica,sans-Serif" font-size="10.00">artgslam_vsc/FileManager.hpp</text>
</a>
</g>
</g>
<!-- Node4&#45;&gt;Node12 -->
<g id="edge11" class="edge">
<title>Node4&#45;&gt;Node12</title>
<path fill="none" stroke="midnightblue" d="M1025.96,-235.48C945.58,-224.61 806.88,-205.85 722,-194.37"/>
<polygon fill="midnightblue" stroke="midnightblue" points="722.3,-190.88 711.92,-193.01 721.37,-197.82 722.3,-190.88"/>
</g>
<!-- Node18 -->
<g id="node18" class="node">
<title>Node18</title>
<g id="a_node18"><a xlink:href="GridMap_8hpp.html" target="_top" xlink:title=" ">
<polygon fill="white" stroke="black" points="246.5,-112.5 246.5,-131.5 325.5,-131.5 325.5,-112.5 246.5,-112.5"/>
<text text-anchor="middle" x="286" y="-119.5" font-family="Helvetica,sans-Serif" font-size="10.00">GridMap.hpp</text>
</a>
</g>
</g>
<!-- Node4&#45;&gt;Node18 -->
<g id="edge30" class="edge">
<title>Node4&#45;&gt;Node18</title>
<path fill="none" stroke="midnightblue" d="M1008.32,-241.87C903.72,-238.04 715.97,-227.5 558,-199 470.92,-183.29 371.44,-151.96 320.32,-134.84"/>
<polygon fill="midnightblue" stroke="midnightblue" points="321.35,-131.5 310.76,-131.62 319.12,-138.13 321.35,-131.5"/>
</g>
<!-- Node21 -->
<g id="node21" class="node">
<title>Node21</title>
<g id="a_node21"><a xlink:href="ViewController_8hpp.html" target="_top" xlink:title=" ">
<polygon fill="white" stroke="black" points="373,-56.5 373,-75.5 551,-75.5 551,-56.5 373,-56.5"/>
<text text-anchor="middle" x="462" y="-63.5" font-family="Helvetica,sans-Serif" font-size="10.00">artgslam_vsc/ViewController.hpp</text>
</a>
</g>
</g>
<!-- Node4&#45;&gt;Node21 -->
<g id="edge46" class="edge">
<title>Node4&#45;&gt;Node21</title>
<path fill="none" stroke="midnightblue" d="M1169.78,-243.9C1523.95,-242.75 2916.83,-230.72 2800,-112 2757.52,-68.84 735.26,-78.76 561.28,-75.76"/>
<polygon fill="midnightblue" stroke="midnightblue" points="561.27,-72.26 551.18,-75.48 561.08,-79.25 561.27,-72.26"/>
</g>
<!-- Node22 -->
<g id="node22" class="node">
<title>Node22</title>
<g id="a_node22"><a xlink:href="LiveMap_8hpp.html" target="_top" xlink:title=" ">
<polygon fill="white" stroke="black" points="643.5,-112.5 643.5,-131.5 722.5,-131.5 722.5,-112.5 643.5,-112.5"/>
<text text-anchor="middle" x="683" y="-119.5" font-family="Helvetica,sans-Serif" font-size="10.00">LiveMap.hpp</text>
</a>
</g>
</g>
<!-- Node4&#45;&gt;Node22 -->
<g id="edge61" class="edge">
<title>Node4&#45;&gt;Node22</title>
<path fill="none" stroke="midnightblue" d="M1034.12,-235.5C989.62,-227.93 925.56,-215.51 871,-199 812.33,-181.24 746.49,-152.48 710.38,-135.9"/>
<polygon fill="midnightblue" stroke="midnightblue" points="711.56,-132.59 701.02,-131.56 708.62,-138.94 711.56,-132.59"/>
</g>
<!-- Node25 -->
<g id="node25" class="node">
<title>Node25</title>
<g id="a_node25"><a xlink:href="RosHandler_8hpp.html" target="_top" xlink:title=" ">
<polygon fill="white" stroke="black" points="2986,-174 2986,-193 3148,-193 3148,-174 2986,-174"/>
<text text-anchor="middle" x="3067" y="-181" font-family="Helvetica,sans-Serif" font-size="10.00">artgslam_vsc/RosHandler.hpp</text>
</a>
</g>
</g>
<!-- Node4&#45;&gt;Node25 -->
<g id="edge31" class="edge">
<title>Node4&#45;&gt;Node25</title>
<path fill="none" stroke="midnightblue" d="M1169.88,-242.95C1418.3,-239.51 2192.27,-227.11 2833,-199 2880.06,-196.94 2932.39,-193.77 2975.61,-190.93"/>
<polygon fill="midnightblue" stroke="midnightblue" points="2976.07,-194.41 2985.82,-190.25 2975.61,-187.42 2976.07,-194.41"/>
</g>
<!-- Node34 -->
<g id="node34" class="node">
<title>Node34</title>
<g id="a_node34"><a xlink:href="RobotCreator_8hpp.html" target="_top" xlink:title=" ">
<polygon fill="white" stroke="black" points="1456,-174 1456,-193 1626,-193 1626,-174 1456,-174"/>
<text text-anchor="middle" x="1541" y="-181" font-family="Helvetica,sans-Serif" font-size="10.00">artgslam_vsc/RobotCreator.hpp</text>
</a>
</g>
</g>
<!-- Node4&#45;&gt;Node34 -->
<g id="edge47" class="edge">
<title>Node4&#45;&gt;Node34</title>
<path fill="none" stroke="midnightblue" d="M1153.76,-235.48C1236.41,-224.59 1379.1,-205.81 1466.27,-194.34"/>
<polygon fill="midnightblue" stroke="midnightblue" points="1466.9,-197.78 1476.36,-193.01 1465.99,-190.84 1466.9,-197.78"/>
</g>
<!-- Node39 -->
<g id="node39" class="node">
<title>Node39</title>
<g id="a_node39"><a xlink:href="UnicicleWmr_8hpp.html" target="_top" xlink:title=" ">
<polygon fill="white" stroke="black" points="1294,-112.5 1294,-131.5 1462,-131.5 1462,-112.5 1294,-112.5"/>
<text text-anchor="middle" x="1378" y="-119.5" font-family="Helvetica,sans-Serif" font-size="10.00">artgslam_vsc/UnicicleWmr.hpp</text>
</a>
</g>
</g>
<!-- Node4&#45;&gt;Node39 -->
<g id="edge60" class="edge">
<title>Node4&#45;&gt;Node39</title>
<path fill="none" stroke="midnightblue" d="M1109.32,-235.49C1159.36,-214.54 1288.74,-160.37 1347.8,-135.64"/>
<polygon fill="midnightblue" stroke="midnightblue" points="1349.44,-138.75 1357.31,-131.66 1346.74,-132.29 1349.44,-138.75"/>
</g>
<!-- Node41 -->
<g id="node41" class="node">
<title>Node41</title>
<g id="a_node41"><a xlink:href="RightClickMapMenu_8hpp.html" target="_top" xlink:title=" ">
<polygon fill="white" stroke="black" points="879.5,-168.5 879.5,-198.5 1034.5,-198.5 1034.5,-168.5 879.5,-168.5"/>
<text text-anchor="start" x="887.5" y="-186.5" font-family="Helvetica,sans-Serif" font-size="10.00">artgslam_vsc/RightClickMap</text>
<text text-anchor="middle" x="957" y="-175.5" font-family="Helvetica,sans-Serif" font-size="10.00">Menu.hpp</text>
</a>
</g>
</g>
<!-- Node4&#45;&gt;Node41 -->
<g id="edge62" class="edge">
<title>Node4&#45;&gt;Node41</title>
<path fill="none" stroke="midnightblue" d="M1070.09,-235.48C1051.21,-226.96 1021.6,-213.62 997.42,-202.72"/>
<polygon fill="midnightblue" stroke="midnightblue" points="998.66,-199.44 988.11,-198.52 995.79,-205.82 998.66,-199.44"/>
</g>
<!-- Node44 -->
<g id="node44" class="node">
<title>Node44</title>
<g id="a_node44"><a xlink:href="AStar_8hpp.html" target="_top" xlink:title=" ">
<polygon fill="white" stroke="black" points="136,-174 136,-193 268,-193 268,-174 136,-174"/>
<text text-anchor="middle" x="202" y="-181" font-family="Helvetica,sans-Serif" font-size="10.00">artgslam_vsc/AStar.hpp</text>
</a>
</g>
</g>
<!-- Node4&#45;&gt;Node44 -->
<g id="edge71" class="edge">
<title>Node4&#45;&gt;Node44</title>
<path fill="none" stroke="midnightblue" d="M1008.32,-242.42C863.59,-238.94 550.47,-228.41 288,-199 277.96,-197.87 267.3,-196.35 257.04,-194.71"/>
<polygon fill="midnightblue" stroke="midnightblue" points="257.38,-191.22 246.95,-193.05 256.24,-198.13 257.38,-191.22"/>
</g>
<!-- Node6 -->
<g id="node6" class="node">
<title>Node6</title>
<g id="a_node6"><a xlink:title=" ">
<polygon fill="white" stroke="#bfbfbf" points="2449.5,-112.5 2449.5,-131.5 2600.5,-131.5 2600.5,-112.5 2449.5,-112.5"/>
<text text-anchor="middle" x="2525" y="-119.5" font-family="Helvetica,sans-Serif" font-size="10.00">TGUI/Widgets/MenuBar.hpp</text>
</a>
</g>
</g>
<!-- Node5&#45;&gt;Node6 -->
<g id="edge5" class="edge">
<title>Node5&#45;&gt;Node6</title>
<path fill="none" stroke="midnightblue" d="M2371.65,-173.98C2402.62,-163.68 2454.87,-146.31 2489.65,-134.75"/>
<polygon fill="midnightblue" stroke="midnightblue" points="2491.02,-137.98 2499.4,-131.51 2488.81,-131.34 2491.02,-137.98"/>
</g>
<!-- Node7 -->
<g id="node7" class="node">
<title>Node7</title>
<g id="a_node7"><a xlink:title=" ">
<polygon fill="white" stroke="#bfbfbf" points="2108,-112.5 2108,-131.5 2242,-131.5 2242,-112.5 2108,-112.5"/>
<text text-anchor="middle" x="2175" y="-119.5" font-family="Helvetica,sans-Serif" font-size="10.00">TGUI/Widgets/Label.hpp</text>
</a>
</g>
</g>
<!-- Node5&#45;&gt;Node7 -->
<g id="edge6" class="edge">
<title>Node5&#45;&gt;Node7</title>
<path fill="none" stroke="midnightblue" d="M2321.5,-173.98C2292.04,-163.72 2242.42,-146.46 2209.2,-134.9"/>
<polygon fill="midnightblue" stroke="midnightblue" points="2210.05,-131.49 2199.45,-131.51 2207.75,-138.1 2210.05,-131.49"/>
</g>
<!-- Node8 -->
<g id="node8" class="node">
<title>Node8</title>
<g id="a_node8"><a xlink:title=" ">
<polygon fill="white" stroke="#bfbfbf" points="2260.5,-112.5 2260.5,-131.5 2431.5,-131.5 2431.5,-112.5 2260.5,-112.5"/>
<text text-anchor="middle" x="2346" y="-119.5" font-family="Helvetica,sans-Serif" font-size="10.00">TGUI/Widgets/ToggleButton.hpp</text>
</a>
</g>
</g>
<!-- Node5&#45;&gt;Node8 -->
<g id="edge7" class="edge">
<title>Node5&#45;&gt;Node8</title>
<path fill="none" stroke="midnightblue" d="M2346,-173.98C2346,-165.58 2346,-152.48 2346,-141.66"/>
<polygon fill="midnightblue" stroke="midnightblue" points="2349.5,-141.51 2346,-131.51 2342.5,-141.51 2349.5,-141.51"/>
</g>
<!-- Node5&#45;&gt;Node9 -->
<g id="edge8" class="edge">
<title>Node5&#45;&gt;Node9</title>
<path fill="none" stroke="midnightblue" d="M2296.28,-173.98C2233.54,-163.22 2125.73,-144.73 2058.63,-133.22"/>
<polygon fill="midnightblue" stroke="midnightblue" points="2059.07,-129.75 2048.62,-131.51 2057.89,-136.65 2059.07,-129.75"/>
</g>
<!-- Node10 -->
<g id="node10" class="node">
<title>Node10</title>
<g id="a_node10"><a xlink:title=" ">
<polygon fill="white" stroke="#bfbfbf" points="2618.5,-112.5 2618.5,-131.5 2707.5,-131.5 2707.5,-112.5 2618.5,-112.5"/>
<text text-anchor="middle" x="2663" y="-119.5" font-family="Helvetica,sans-Serif" font-size="10.00">TGUI/TGUI.hpp</text>
</a>
</g>
</g>
<!-- Node5&#45;&gt;Node10 -->
<g id="edge9" class="edge">
<title>Node5&#45;&gt;Node10</title>
<path fill="none" stroke="midnightblue" d="M2391.42,-173.98C2448.75,-163.21 2547.25,-144.73 2608.55,-133.22"/>
<polygon fill="midnightblue" stroke="midnightblue" points="2609.25,-136.65 2618.43,-131.37 2607.96,-129.77 2609.25,-136.65"/>
</g>
<!-- Node11 -->
<g id="node11" class="node">
<title>Node11</title>
<g id="a_node11"><a xlink:title=" ">
<polygon fill="white" stroke="#bfbfbf" points="2725.5,-112.5 2725.5,-131.5 2790.5,-131.5 2790.5,-112.5 2725.5,-112.5"/>
<text text-anchor="middle" x="2758" y="-119.5" font-family="Helvetica,sans-Serif" font-size="10.00">functional</text>
</a>
</g>
</g>
<!-- Node5&#45;&gt;Node11 -->
<g id="edge10" class="edge">
<title>Node5&#45;&gt;Node11</title>
<path fill="none" stroke="midnightblue" d="M2420.54,-174.15C2493.37,-165.58 2607.58,-151.06 2715.31,-132.19"/>
<polygon fill="midnightblue" stroke="midnightblue" points="2716.14,-135.6 2725.37,-130.41 2714.92,-128.71 2716.14,-135.6"/>
</g>
<!-- Node13 -->
<g id="node13" class="node">
<title>Node13</title>
<g id="a_node13"><a xlink:title=" ">
<polygon fill="white" stroke="#bfbfbf" points="1220.5,-112.5 1220.5,-131.5 1275.5,-131.5 1275.5,-112.5 1220.5,-112.5"/>
<text text-anchor="middle" x="1248" y="-119.5" font-family="Helvetica,sans-Serif" font-size="10.00">fstream</text>
</a>
</g>
</g>
<!-- Node12&#45;&gt;Node13 -->
<g id="edge12" class="edge">
<title>Node12&#45;&gt;Node13</title>
<path fill="none" stroke="midnightblue" d="M731.65,-176.6C860.53,-167.14 1104.67,-148.17 1210.15,-131.85"/>
<polygon fill="midnightblue" stroke="midnightblue" points="1210.89,-135.28 1220.21,-130.23 1209.78,-128.36 1210.89,-135.28"/>
</g>
<!-- Node14 -->
<g id="node14" class="node">
<title>Node14</title>
<g id="a_node14"><a xlink:title=" ">
<polygon fill="white" stroke="#bfbfbf" points="531,-112.5 531,-131.5 587,-131.5 587,-112.5 531,-112.5"/>
<text text-anchor="middle" x="559" y="-119.5" font-family="Helvetica,sans-Serif" font-size="10.00">sstream</text>
</a>
</g>
</g>
<!-- Node12&#45;&gt;Node14 -->
<g id="edge13" class="edge">
<title>Node12&#45;&gt;Node14</title>
<path fill="none" stroke="midnightblue" d="M636.11,-173.98C621.54,-164.34 597.6,-148.52 580.25,-137.05"/>
<polygon fill="midnightblue" stroke="midnightblue" points="582.14,-134.1 571.87,-131.51 578.28,-139.94 582.14,-134.1"/>
</g>
<!-- Node15 -->
<g id="node15" class="node">
<title>Node15</title>
<g id="a_node15"><a xlink:title=" ">
<polygon fill="white" stroke="#bfbfbf" points="1158,-112.5 1158,-131.5 1202,-131.5 1202,-112.5 1158,-112.5"/>
<text text-anchor="middle" x="1180" y="-119.5" font-family="Helvetica,sans-Serif" font-size="10.00">string</text>
</a>
</g>
</g>
<!-- Node12&#45;&gt;Node15 -->
<g id="edge14" class="edge">
<title>Node12&#45;&gt;Node15</title>
<path fill="none" stroke="midnightblue" d="M731.64,-175.99C848.07,-166.52 1055.59,-148.45 1147.88,-131.84"/>
<polygon fill="midnightblue" stroke="midnightblue" points="1148.59,-135.27 1157.77,-129.98 1147.29,-128.39 1148.59,-135.27"/>
</g>
<!-- Node16 -->
<g id="node16" class="node">
<title>Node16</title>
<g id="a_node16"><a xlink:title=" ">
<polygon fill="white" stroke="#bfbfbf" points="1018,-112.5 1018,-131.5 1078,-131.5 1078,-112.5 1018,-112.5"/>
<text text-anchor="middle" x="1048" y="-119.5" font-family="Helvetica,sans-Serif" font-size="10.00">iostream</text>
</a>
</g>
</g>
<!-- Node12&#45;&gt;Node16 -->
<g id="edge15" class="edge">
<title>Node12&#45;&gt;Node16</title>
<path fill="none" stroke="midnightblue" d="M723.42,-173.99C794.16,-165.46 903.69,-151.11 1007.77,-132.09"/>
<polygon fill="midnightblue" stroke="midnightblue" points="1008.62,-135.5 1017.82,-130.24 1007.35,-128.61 1008.62,-135.5"/>
</g>
<!-- Node17 -->
<g id="node17" class="node">
<title>Node17</title>
<g id="a_node17"><a xlink:title=" ">
<polygon fill="white" stroke="#bfbfbf" points="343,-112.5 343,-131.5 399,-131.5 399,-112.5 343,-112.5"/>
<text text-anchor="middle" x="371" y="-119.5" font-family="Helvetica,sans-Serif" font-size="10.00">iomanip</text>
</a>
</g>
</g>
<!-- Node12&#45;&gt;Node17 -->
<g id="edge16" class="edge">
<title>Node12&#45;&gt;Node17</title>
<path fill="none" stroke="midnightblue" d="M606.88,-173.97C558.9,-164.18 478.19,-147.47 409,-132 408.9,-131.98 408.8,-131.96 408.7,-131.93"/>
<polygon fill="midnightblue" stroke="midnightblue" points="409.73,-128.58 399.2,-129.76 408.17,-135.4 409.73,-128.58"/>
</g>
<!-- Node12&#45;&gt;Node18 -->
<g id="edge17" class="edge">
<title>Node12&#45;&gt;Node18</title>
<path fill="none" stroke="midnightblue" d="M592.88,-173.96C531.91,-164.58 431.4,-148.82 335.41,-132.21"/>
<polygon fill="midnightblue" stroke="midnightblue" points="335.99,-128.76 325.54,-130.5 334.79,-135.66 335.99,-128.76"/>
</g>
<!-- Node12&#45;&gt;Node21 -->
<g id="edge28" class="edge">
<title>Node12&#45;&gt;Node21</title>
<path fill="none" stroke="midnightblue" d="M644.71,-173.79C636.98,-158.97 619.34,-128.85 596,-112 573.34,-95.65 544.32,-84.94 519.09,-78.09"/>
<polygon fill="midnightblue" stroke="midnightblue" points="519.82,-74.66 509.26,-75.56 518.07,-81.44 519.82,-74.66"/>
</g>
<!-- Node12&#45;&gt;Node22 -->
<g id="edge23" class="edge">
<title>Node12&#45;&gt;Node22</title>
<path fill="none" stroke="midnightblue" d="M653.87,-173.98C658.87,-165.23 666.79,-151.37 673.11,-140.31"/>
<polygon fill="midnightblue" stroke="midnightblue" points="676.22,-141.93 678.14,-131.51 670.14,-138.46 676.22,-141.93"/>
</g>
<!-- Node24 -->
<g id="node24" class="node">
<title>Node24</title>
<g id="a_node24"><a xlink:href="tinyfiledialogs_8h.html" target="_top" xlink:title=" ">
<polygon fill="white" stroke="black" points="417.5,-112.5 417.5,-131.5 512.5,-131.5 512.5,-112.5 417.5,-112.5"/>
<text text-anchor="middle" x="465" y="-119.5" font-family="Helvetica,sans-Serif" font-size="10.00">tinyfiledialogs.h</text>
</a>
</g>
</g>
<!-- Node12&#45;&gt;Node24 -->
<g id="edge29" class="edge">
<title>Node12&#45;&gt;Node24</title>
<path fill="none" stroke="midnightblue" d="M622.64,-173.98C590.66,-163.64 536.62,-146.16 500.88,-134.6"/>
<polygon fill="midnightblue" stroke="midnightblue" points="501.91,-131.26 491.31,-131.51 499.75,-137.92 501.91,-131.26"/>
</g>
<!-- Node18&#45;&gt;Node3 -->
<g id="edge20" class="edge">
<title>Node18&#45;&gt;Node3</title>
<path fill="none" stroke="midnightblue" d="M285.66,-112.17C285.58,-98.84 287.15,-73.27 299,-56 308.69,-41.89 324.41,-31.26 338.59,-23.89"/>
<polygon fill="midnightblue" stroke="midnightblue" points="340.15,-27.02 347.62,-19.51 337.09,-20.72 340.15,-27.02"/>
</g>
<!-- Node19 -->
<g id="node19" class="node">
<title>Node19</title>
<g id="a_node19"><a xlink:title=" ">
<polygon fill="white" stroke="#bfbfbf" points="637.5,-56.5 637.5,-75.5 684.5,-75.5 684.5,-56.5 637.5,-56.5"/>
<text text-anchor="middle" x="661" y="-63.5" font-family="Helvetica,sans-Serif" font-size="10.00">vector</text>
</a>
</g>
</g>
<!-- Node18&#45;&gt;Node19 -->
<g id="edge18" class="edge">
<title>Node18&#45;&gt;Node19</title>
<path fill="none" stroke="midnightblue" d="M325.52,-113.38C328.39,-112.89 331.23,-112.43 334,-112 461.35,-92.31 497.73,-101.48 627.42,-76.07"/>
<polygon fill="midnightblue" stroke="midnightblue" points="628.21,-79.48 637.33,-74.09 626.84,-72.61 628.21,-79.48"/>
</g>
<!-- Node20 -->
<g id="node20" class="node">
<title>Node20</title>
<g id="a_node20"><a xlink:title=" ">
<polygon fill="white" stroke="#bfbfbf" points="307.5,-56.5 307.5,-75.5 354.5,-75.5 354.5,-56.5 307.5,-56.5"/>
<text text-anchor="middle" x="331" y="-63.5" font-family="Helvetica,sans-Serif" font-size="10.00">cmath</text>
</a>
</g>
</g>
<!-- Node18&#45;&gt;Node20 -->
<g id="edge19" class="edge">
<title>Node18&#45;&gt;Node20</title>
<path fill="none" stroke="midnightblue" d="M293.43,-112.08C299.85,-104.38 309.31,-93.03 317.12,-83.65"/>
<polygon fill="midnightblue" stroke="midnightblue" points="319.99,-85.67 323.71,-75.75 314.62,-81.19 319.99,-85.67"/>
</g>
<!-- Node18&#45;&gt;Node21 -->
<g id="edge21" class="edge">
<title>Node18&#45;&gt;Node21</title>
<path fill="none" stroke="midnightblue" d="M313.89,-112.44C343.75,-103.28 391.31,-88.69 424.46,-78.52"/>
<polygon fill="midnightblue" stroke="midnightblue" points="425.71,-81.8 434.24,-75.52 423.66,-75.1 425.71,-81.8"/>
</g>
<!-- Node21&#45;&gt;Node3 -->
<g id="edge22" class="edge">
<title>Node21&#45;&gt;Node3</title>
<path fill="none" stroke="midnightblue" d="M447.22,-56.32C432.73,-47.82 410.43,-34.73 393.51,-24.8"/>
<polygon fill="midnightblue" stroke="midnightblue" points="395.14,-21.7 384.74,-19.65 391.6,-27.74 395.14,-21.7"/>
</g>
<!-- Node22&#45;&gt;Node3 -->
<g id="edge26" class="edge">
<title>Node22&#45;&gt;Node3</title>
<path fill="none" stroke="midnightblue" d="M688.4,-112.24C696.1,-98.51 707.83,-71.88 694,-56 661.12,-18.24 519.82,-11.15 435.05,-10.39"/>
<polygon fill="midnightblue" stroke="midnightblue" points="435.03,-6.89 425.01,-10.33 434.98,-13.89 435.03,-6.89"/>
</g>
<!-- Node22&#45;&gt;Node19 -->
<g id="edge24" class="edge">
<title>Node22&#45;&gt;Node19</title>
<path fill="none" stroke="midnightblue" d="M679.37,-112.08C676.39,-104.77 672.07,-94.18 668.38,-85.1"/>
<polygon fill="midnightblue" stroke="midnightblue" points="671.58,-83.69 664.57,-75.75 665.1,-86.33 671.58,-83.69"/>
</g>
<!-- Node22&#45;&gt;Node21 -->
<g id="edge27" class="edge">
<title>Node22&#45;&gt;Node21</title>
<path fill="none" stroke="midnightblue" d="M647.98,-112.44C609.75,-103.1 548.43,-88.12 506.74,-77.93"/>
<polygon fill="midnightblue" stroke="midnightblue" points="507.4,-74.49 496.85,-75.52 505.74,-81.29 507.4,-74.49"/>
</g>
<!-- Node23 -->
<g id="node23" class="node">
<title>Node23</title>
<g id="a_node23"><a xlink:title=" ">
<polygon fill="white" stroke="#bfbfbf" points="568.5,-56.5 568.5,-75.5 619.5,-75.5 619.5,-56.5 568.5,-56.5"/>
<text text-anchor="middle" x="594" y="-63.5" font-family="Helvetica,sans-Serif" font-size="10.00">math.h</text>
</a>
</g>
</g>
<!-- Node22&#45;&gt;Node23 -->
<g id="edge25" class="edge">
<title>Node22&#45;&gt;Node23</title>
<path fill="none" stroke="midnightblue" d="M668.7,-112.32C654.82,-103.9 633.51,-90.97 617.2,-81.07"/>
<polygon fill="midnightblue" stroke="midnightblue" points="618.63,-77.85 608.26,-75.65 615,-83.83 618.63,-77.85"/>
</g>
<!-- Node25&#45;&gt;Node2 -->
<g id="edge32" class="edge">
<title>Node25&#45;&gt;Node2</title>
<path fill="none" stroke="midnightblue" d="M3039.78,-173.98C3006.76,-163.64 2950.96,-146.16 2914.05,-134.6"/>
<polygon fill="midnightblue" stroke="midnightblue" points="2914.76,-131.16 2904.17,-131.51 2912.67,-137.84 2914.76,-131.16"/>
</g>
<!-- Node25&#45;&gt;Node13 -->
<g id="edge43" class="edge">
<title>Node25&#45;&gt;Node13</title>
<path fill="none" stroke="midnightblue" d="M2985.84,-180.68C2657.65,-173.24 1439.35,-145.03 1286.12,-131.52"/>
<polygon fill="midnightblue" stroke="midnightblue" points="1286.08,-128 1275.76,-130.42 1285.33,-134.96 1286.08,-128"/>
</g>
<!-- Node25&#45;&gt;Node15 -->
<g id="edge41" class="edge">
<title>Node25&#45;&gt;Node15</title>
<path fill="none" stroke="midnightblue" d="M2985.87,-180.56C2646.13,-172.42 1349.42,-141 1212.33,-130.99"/>
<polygon fill="midnightblue" stroke="midnightblue" points="1212.52,-127.49 1202.23,-130.01 1211.84,-134.46 1212.52,-127.49"/>
</g>
<!-- Node25&#45;&gt;Node16 -->
<g id="edge44" class="edge">
<title>Node25&#45;&gt;Node16</title>
<path fill="none" stroke="midnightblue" d="M2985.7,-180.65C2631.18,-172.55 1232.15,-140.31 1088.4,-131.41"/>
<polygon fill="midnightblue" stroke="midnightblue" points="1088.38,-127.9 1078.13,-130.58 1087.81,-134.88 1088.38,-127.9"/>
</g>
<!-- Node25&#45;&gt;Node19 -->
<g id="edge42" class="edge">
<title>Node25&#45;&gt;Node19</title>
<path fill="none" stroke="midnightblue" d="M3054.3,-173.76C3028.71,-156.35 2971.48,-118.44 2949,-112 2920.66,-103.88 976.51,-72.11 694.86,-67.55"/>
<polygon fill="midnightblue" stroke="midnightblue" points="694.89,-64.05 684.83,-67.38 694.77,-71.05 694.89,-64.05"/>
</g>
<!-- Node25&#45;&gt;Node20 -->
<g id="edge45" class="edge">
<title>Node25&#45;&gt;Node20</title>
<path fill="none" stroke="midnightblue" d="M3044.39,-173.92C3020.31,-164.53 2981.31,-148.6 2949,-132 2933.75,-124.16 2932.48,-116.73 2916,-112 2646.35,-34.61 687.54,-113.88 364.58,-75.51"/>
<polygon fill="midnightblue" stroke="midnightblue" points="365.01,-72.03 354.64,-74.21 364.11,-78.98 365.01,-72.03"/>
</g>
<!-- Node26 -->
<g id="node26" class="node">
<title>Node26</title>
<g id="a_node26"><a xlink:title=" ">
<polygon fill="white" stroke="#bfbfbf" points="3001,-112.5 3001,-131.5 3133,-131.5 3133,-112.5 3001,-112.5"/>
<text text-anchor="middle" x="3067" y="-119.5" font-family="Helvetica,sans-Serif" font-size="10.00">geometry_msgs/Twist.h</text>
</a>
</g>
</g>
<!-- Node25&#45;&gt;Node26 -->
<g id="edge33" class="edge">
<title>Node25&#45;&gt;Node26</title>
<path fill="none" stroke="midnightblue" d="M3067,-173.98C3067,-165.58 3067,-152.48 3067,-141.66"/>
<polygon fill="midnightblue" stroke="midnightblue" points="3070.5,-141.51 3067,-131.51 3063.5,-141.51 3070.5,-141.51"/>
</g>
<!-- Node27 -->
<g id="node27" class="node">
<title>Node27</title>
<g id="a_node27"><a xlink:title=" ">
<polygon fill="white" stroke="#bfbfbf" points="3151,-112.5 3151,-131.5 3257,-131.5 3257,-112.5 3151,-112.5"/>
<text text-anchor="middle" x="3204" y="-119.5" font-family="Helvetica,sans-Serif" font-size="10.00">sensor_msgs/Joy.h</text>
</a>
</g>
</g>
<!-- Node25&#45;&gt;Node27 -->
<g id="edge34" class="edge">
<title>Node25&#45;&gt;Node27</title>
<path fill="none" stroke="midnightblue" d="M3086.63,-173.98C3109.82,-163.9 3148.62,-147.05 3175.21,-135.5"/>
<polygon fill="midnightblue" stroke="midnightblue" points="3176.63,-138.7 3184.41,-131.51 3173.84,-132.28 3176.63,-138.7"/>
</g>
<!-- Node28 -->
<g id="node28" class="node">
<title>Node28</title>
<g id="a_node28"><a xlink:title=" ">
<polygon fill="white" stroke="#bfbfbf" points="3275,-112.5 3275,-131.5 3419,-131.5 3419,-112.5 3275,-112.5"/>
<text text-anchor="middle" x="3347" y="-119.5" font-family="Helvetica,sans-Serif" font-size="10.00">geometry_msgs/Point32.h</text>
</a>
</g>
</g>
<!-- Node25&#45;&gt;Node28 -->
<g id="edge35" class="edge">
<title>Node25&#45;&gt;Node28</title>
<path fill="none" stroke="midnightblue" d="M3107.12,-173.98C3157.12,-163.35 3242.6,-145.18 3296.87,-133.65"/>
<polygon fill="midnightblue" stroke="midnightblue" points="3297.9,-137.01 3306.96,-131.51 3296.45,-130.16 3297.9,-137.01"/>
</g>
<!-- Node29 -->
<g id="node29" class="node">
<title>Node29</title>
<g id="a_node29"><a xlink:title=" ">
<polygon fill="white" stroke="#bfbfbf" points="3437.5,-112.5 3437.5,-131.5 3582.5,-131.5 3582.5,-112.5 3437.5,-112.5"/>
<text text-anchor="middle" x="3510" y="-119.5" font-family="Helvetica,sans-Serif" font-size="10.00">sensor_msgs/PointCloud.h</text>
</a>
</g>
</g>
<!-- Node25&#45;&gt;Node29 -->
<g id="edge36" class="edge">
<title>Node25&#45;&gt;Node29</title>
<path fill="none" stroke="midnightblue" d="M3130.47,-173.98C3211.4,-163.11 3351.04,-144.35 3436.5,-132.87"/>
<polygon fill="midnightblue" stroke="midnightblue" points="3437.2,-136.31 3446.65,-131.51 3436.27,-129.37 3437.2,-136.31"/>
</g>
<!-- Node30 -->
<g id="node30" class="node">
<title>Node30</title>
<g id="a_node30"><a xlink:title=" ">
<polygon fill="white" stroke="#bfbfbf" points="3600.5,-112.5 3600.5,-131.5 3725.5,-131.5 3725.5,-112.5 3600.5,-112.5"/>
<text text-anchor="middle" x="3663" y="-119.5" font-family="Helvetica,sans-Serif" font-size="10.00">nav_msgs/Odometry.h</text>
</a>
</g>
</g>
<!-- Node25&#45;&gt;Node30 -->
<g id="edge37" class="edge">
<title>Node25&#45;&gt;Node30</title>
<path fill="none" stroke="midnightblue" d="M3148.02,-175.47C3249.11,-166.53 3427.51,-150.18 3590.1,-132.19"/>
<polygon fill="midnightblue" stroke="midnightblue" points="3590.74,-135.64 3600.29,-131.05 3589.97,-128.68 3590.74,-135.64"/>
</g>
<!-- Node31 -->
<g id="node31" class="node">
<title>Node31</title>
<g id="a_node31"><a xlink:title=" ">
<polygon fill="white" stroke="#bfbfbf" points="3744,-112.5 3744,-131.5 3896,-131.5 3896,-112.5 3744,-112.5"/>
<text text-anchor="middle" x="3820" y="-119.5" font-family="Helvetica,sans-Serif" font-size="10.00">nav_msgs/OccupancyGrid.h</text>
</a>
</g>
</g>
<!-- Node25&#45;&gt;Node31 -->
<g id="edge38" class="edge">
<title>Node25&#45;&gt;Node31</title>
<path fill="none" stroke="midnightblue" d="M3148.04,-177.16C3271.89,-168.83 3515.94,-151.72 3733.54,-132.11"/>
<polygon fill="midnightblue" stroke="midnightblue" points="3733.91,-135.59 3743.56,-131.2 3733.28,-128.62 3733.91,-135.59"/>
</g>
<!-- Node32 -->
<g id="node32" class="node">
<title>Node32</title>
<g id="a_node32"><a xlink:title=" ">
<polygon fill="white" stroke="#bfbfbf" points="3914,-112.5 3914,-131.5 4014,-131.5 4014,-112.5 3914,-112.5"/>
<text text-anchor="middle" x="3964" y="-119.5" font-family="Helvetica,sans-Serif" font-size="10.00">std_msgs/Int32.h</text>
</a>
</g>
</g>
<!-- Node25&#45;&gt;Node32 -->
<g id="edge39" class="edge">
<title>Node25&#45;&gt;Node32</title>
<path fill="none" stroke="midnightblue" d="M3148.1,-180.07C3296.19,-175.1 3620.46,-161.71 3903.77,-132.03"/>
<polygon fill="midnightblue" stroke="midnightblue" points="3904.25,-135.5 3913.83,-130.97 3903.52,-128.54 3904.25,-135.5"/>
</g>
<!-- Node33 -->
<g id="node33" class="node">
<title>Node33</title>
<g id="a_node33"><a xlink:title=" ">
<polygon fill="white" stroke="#bfbfbf" points="4032,-112.5 4032,-131.5 4170,-131.5 4170,-112.5 4032,-112.5"/>
<text text-anchor="middle" x="4101" y="-119.5" font-family="Helvetica,sans-Serif" font-size="10.00">tf/transform_datatypes.h</text>
</a>
</g>
</g>
<!-- Node25&#45;&gt;Node33 -->
<g id="edge40" class="edge">
<title>Node25&#45;&gt;Node33</title>
<path fill="none" stroke="midnightblue" d="M3148.01,-179.92C3311.23,-174.35 3691.52,-159.5 4021.46,-132.08"/>
<polygon fill="midnightblue" stroke="midnightblue" points="4022.03,-135.54 4031.7,-131.22 4021.44,-128.57 4022.03,-135.54"/>
</g>
<!-- Node34&#45;&gt;Node2 -->
<g id="edge53" class="edge">
<title>Node34&#45;&gt;Node2</title>
<path fill="none" stroke="midnightblue" d="M1626.24,-181.32C1829.62,-178.02 2359.2,-166.55 2800,-132 2812.14,-131.05 2825.32,-129.64 2837.29,-128.23"/>
<polygon fill="midnightblue" stroke="midnightblue" points="2837.93,-131.68 2847.43,-126.99 2837.08,-124.73 2837.93,-131.68"/>
</g>
<!-- Node34&#45;&gt;Node3 -->
<g id="edge49" class="edge">
<title>Node34&#45;&gt;Node3</title>
<path fill="none" stroke="midnightblue" d="M1535.3,-173.77C1517.86,-147.38 1464.84,-69.46 1438,-56 1348.64,-11.2 653.2,-9.93 435.16,-10.66"/>
<polygon fill="midnightblue" stroke="midnightblue" points="435.13,-7.16 425.14,-10.69 435.15,-14.16 435.13,-7.16"/>
</g>
<!-- Node34&#45;&gt;Node9 -->
<g id="edge50" class="edge">
<title>Node34&#45;&gt;Node9</title>
<path fill="none" stroke="midnightblue" d="M1606.62,-173.98C1690.46,-163.08 1835.25,-144.27 1923.55,-132.8"/>
<polygon fill="midnightblue" stroke="midnightblue" points="1924.04,-136.27 1933.5,-131.51 1923.13,-129.33 1924.04,-136.27"/>
</g>
<!-- Node34&#45;&gt;Node16 -->
<g id="edge48" class="edge">
<title>Node34&#45;&gt;Node16</title>
<path fill="none" stroke="midnightblue" d="M1455.66,-175.98C1366.34,-168.48 1221.89,-154.46 1088.18,-132.02"/>
<polygon fill="midnightblue" stroke="midnightblue" points="1088.61,-128.55 1078.16,-130.32 1087.44,-135.45 1088.61,-128.55"/>
</g>
<!-- Node35 -->
<g id="node35" class="node">
<title>Node35</title>
<g id="a_node35"><a xlink:title=" ">
<polygon fill="white" stroke="#bfbfbf" points="1518.5,-112.5 1518.5,-131.5 1663.5,-131.5 1663.5,-112.5 1518.5,-112.5"/>
<text text-anchor="middle" x="1591" y="-119.5" font-family="Helvetica,sans-Serif" font-size="10.00">TGUI/Widgets/EditBox.hpp</text>
</a>
</g>
</g>
<!-- Node34&#45;&gt;Node35 -->
<g id="edge51" class="edge">
<title>Node34&#45;&gt;Node35</title>
<path fill="none" stroke="midnightblue" d="M1548.16,-173.98C1555.74,-164.96 1567.87,-150.52 1577.29,-139.31"/>
<polygon fill="midnightblue" stroke="midnightblue" points="1580.1,-141.42 1583.85,-131.51 1574.74,-136.91 1580.1,-141.42"/>
</g>
<!-- Node36 -->
<g id="node36" class="node">
<title>Node36</title>
<g id="a_node36"><a xlink:title=" ">
<polygon fill="white" stroke="#bfbfbf" points="1682,-112.5 1682,-131.5 1822,-131.5 1822,-112.5 1682,-112.5"/>
<text text-anchor="middle" x="1752" y="-119.5" font-family="Helvetica,sans-Serif" font-size="10.00">TGUI/Widgets/Button.hpp</text>
</a>
</g>
</g>
<!-- Node34&#45;&gt;Node36 -->
<g id="edge52" class="edge">
<title>Node34&#45;&gt;Node36</title>
<path fill="none" stroke="midnightblue" d="M1571.23,-173.98C1608.29,-163.53 1671.19,-145.79 1712.16,-134.23"/>
<polygon fill="midnightblue" stroke="midnightblue" points="1713.15,-137.59 1721.82,-131.51 1711.25,-130.85 1713.15,-137.59"/>
</g>
<!-- Node37 -->
<g id="node37" class="node">
<title>Node37</title>
<g id="a_node37"><a xlink:title=" ">
<polygon fill="white" stroke="#bfbfbf" points="1096,-112.5 1096,-131.5 1140,-131.5 1140,-112.5 1096,-112.5"/>
<text text-anchor="middle" x="1118" y="-119.5" font-family="Helvetica,sans-Serif" font-size="10.00">regex</text>
</a>
</g>
</g>
<!-- Node34&#45;&gt;Node37 -->
<g id="edge54" class="edge">
<title>Node34&#45;&gt;Node37</title>
<path fill="none" stroke="midnightblue" d="M1455.87,-175.36C1378.38,-167.98 1260.76,-154.6 1150.23,-131.98"/>
<polygon fill="midnightblue" stroke="midnightblue" points="1150.75,-128.51 1140.25,-129.9 1149.33,-135.37 1150.75,-128.51"/>
</g>
<!-- Node38 -->
<g id="node38" class="node">
<title>Node38</title>
<g id="a_node38"><a xlink:title=" ">
<polygon fill="white" stroke="#bfbfbf" points="1840.5,-112.5 1840.5,-131.5 1889.5,-131.5 1889.5,-112.5 1840.5,-112.5"/>
<text text-anchor="middle" x="1865" y="-119.5" font-family="Helvetica,sans-Serif" font-size="10.00">cctype</text>
</a>
</g>
</g>
<!-- Node34&#45;&gt;Node38 -->
<g id="edge55" class="edge">
<title>Node34&#45;&gt;Node38</title>
<path fill="none" stroke="midnightblue" d="M1598.51,-173.99C1655.05,-165.28 1743.97,-150.68 1830.22,-132.01"/>
<polygon fill="midnightblue" stroke="midnightblue" points="1831.16,-135.39 1840.18,-129.84 1829.66,-128.55 1831.16,-135.39"/>
</g>
<!-- Node34&#45;&gt;Node39 -->
<g id="edge56" class="edge">
<title>Node34&#45;&gt;Node39</title>
<path fill="none" stroke="midnightblue" d="M1517.65,-173.98C1489.69,-163.77 1442.67,-146.61 1411.01,-135.05"/>
<polygon fill="midnightblue" stroke="midnightblue" points="1411.9,-131.65 1401.31,-131.51 1409.5,-138.23 1411.9,-131.65"/>
</g>
<!-- Node39&#45;&gt;Node3 -->
<g id="edge57" class="edge">
<title>Node39&#45;&gt;Node3</title>
<path fill="none" stroke="midnightblue" d="M1299.74,-112.46C1107.24,-91.45 613.4,-37.56 435.29,-18.12"/>
<polygon fill="midnightblue" stroke="midnightblue" points="435.6,-14.64 425.28,-17.03 434.84,-21.6 435.6,-14.64"/>
</g>
<!-- Node39&#45;&gt;Node20 -->
<g id="edge59" class="edge">
<title>Node39&#45;&gt;Node20</title>
<path fill="none" stroke="midnightblue" d="M1293.87,-112.64C1290.88,-112.41 1287.91,-112.2 1285,-112 879.59,-84.48 770.63,-137.43 364.61,-75.67"/>
<polygon fill="midnightblue" stroke="midnightblue" points="365.07,-72.2 354.65,-74.14 364.01,-79.12 365.07,-72.2"/>
</g>
<!-- Node40 -->
<g id="node40" class="node">
<title>Node40</title>
<g id="a_node40"><a xlink:href="MyConstants_8hpp.html" target="_top" xlink:title=" ">
<polygon fill="white" stroke="black" points="1327.5,-56.5 1327.5,-75.5 1428.5,-75.5 1428.5,-56.5 1327.5,-56.5"/>
<text text-anchor="middle" x="1378" y="-63.5" font-family="Helvetica,sans-Serif" font-size="10.00">MyConstants.hpp</text>
</a>
</g>
</g>
<!-- Node39&#45;&gt;Node40 -->
<g id="edge58" class="edge">
<title>Node39&#45;&gt;Node40</title>
<path fill="none" stroke="midnightblue" d="M1378,-112.08C1378,-105.01 1378,-94.86 1378,-85.99"/>
<polygon fill="midnightblue" stroke="midnightblue" points="1381.5,-85.75 1378,-75.75 1374.5,-85.75 1381.5,-85.75"/>
</g>
<!-- Node41&#45;&gt;Node3 -->
<g id="edge63" class="edge">
<title>Node41&#45;&gt;Node3</title>
<path fill="none" stroke="midnightblue" d="M879.1,-172.72C843.9,-165.56 803.11,-153.21 771,-132 735.09,-108.28 748.41,-77.27 711,-56 665.23,-29.98 520.73,-18.46 435.22,-13.8"/>
<polygon fill="midnightblue" stroke="midnightblue" points="435.27,-10.3 425.1,-13.27 434.9,-17.29 435.27,-10.3"/>
</g>
<!-- Node41&#45;&gt;Node9 -->
<g id="edge64" class="edge">
<title>Node41&#45;&gt;Node9</title>
<path fill="none" stroke="midnightblue" d="M1034.6,-179.29C1194.11,-172.49 1570.59,-155.37 1897.84,-132.06"/>
<polygon fill="midnightblue" stroke="midnightblue" points="1898.27,-135.54 1907.99,-131.33 1897.77,-128.55 1898.27,-135.54"/>
</g>
<!-- Node41&#45;&gt;Node16 -->
<g id="edge67" class="edge">
<title>Node41&#45;&gt;Node16</title>
<path fill="none" stroke="midnightblue" d="M978.57,-168.4C992.88,-159.04 1011.61,-146.79 1026.01,-137.38"/>
<polygon fill="midnightblue" stroke="midnightblue" points="1028.3,-140.06 1034.76,-131.66 1024.47,-134.2 1028.3,-140.06"/>
</g>
<!-- Node41&#45;&gt;Node18 -->
<g id="edge69" class="edge">
<title>Node41&#45;&gt;Node18</title>
<path fill="none" stroke="midnightblue" d="M879.3,-177.22C740.5,-167.63 454.14,-147.04 335.68,-132.08"/>
<polygon fill="midnightblue" stroke="midnightblue" points="336.13,-128.61 325.76,-130.79 335.22,-135.55 336.13,-128.61"/>
</g>
<!-- Node41&#45;&gt;Node22 -->
<g id="edge70" class="edge">
<title>Node41&#45;&gt;Node22</title>
<path fill="none" stroke="midnightblue" d="M892.41,-168.47C843.39,-157.83 777,-143.41 732.22,-133.69"/>
<polygon fill="midnightblue" stroke="midnightblue" points="732.69,-130.21 722.17,-131.51 731.2,-137.05 732.69,-130.21"/>
</g>
<!-- Node41&#45;&gt;Node37 -->
<g id="edge68" class="edge">
<title>Node41&#45;&gt;Node37</title>
<path fill="none" stroke="midnightblue" d="M995.15,-168.4C1023.02,-158.1 1060.36,-144.3 1086.53,-134.63"/>
<polygon fill="midnightblue" stroke="midnightblue" points="1087.8,-137.89 1095.97,-131.14 1085.38,-131.33 1087.8,-137.89"/>
</g>
<!-- Node42 -->
<g id="node42" class="node">
<title>Node42</title>
<g id="a_node42"><a xlink:title=" ">
<polygon fill="white" stroke="#bfbfbf" points="779.5,-112.5 779.5,-131.5 896.5,-131.5 896.5,-112.5 779.5,-112.5"/>
<text text-anchor="middle" x="838" y="-119.5" font-family="Helvetica,sans-Serif" font-size="10.00">TGUI/AllWidgets.hpp</text>
</a>
</g>
</g>
<!-- Node41&#45;&gt;Node42 -->
<g id="edge65" class="edge">
<title>Node41&#45;&gt;Node42</title>
<path fill="none" stroke="midnightblue" d="M928.8,-168.4C909.28,-158.64 883.47,-145.74 864.37,-136.18"/>
<polygon fill="midnightblue" stroke="midnightblue" points="865.83,-133 855.32,-131.66 862.69,-139.26 865.83,-133"/>
</g>
<!-- Node43 -->
<g id="node43" class="node">
<title>Node43</title>
<g id="a_node43"><a xlink:title=" ">
<polygon fill="white" stroke="#bfbfbf" points="914.5,-112.5 914.5,-131.5 999.5,-131.5 999.5,-112.5 914.5,-112.5"/>
<text text-anchor="middle" x="957" y="-119.5" font-family="Helvetica,sans-Serif" font-size="10.00">ros/package.h</text>
</a>
</g>
</g>
<!-- Node41&#45;&gt;Node43 -->
<g id="edge66" class="edge">
<title>Node41&#45;&gt;Node43</title>
<path fill="none" stroke="midnightblue" d="M957,-168.4C957,-160.47 957,-150.46 957,-141.86"/>
<polygon fill="midnightblue" stroke="midnightblue" points="960.5,-141.66 957,-131.66 953.5,-141.66 960.5,-141.66"/>
</g>
<!-- Node44&#45;&gt;Node3 -->
<g id="edge74" class="edge">
<title>Node44&#45;&gt;Node3</title>
<path fill="none" stroke="midnightblue" d="M202.38,-173.58C203.34,-159.49 206.78,-131.68 219,-112 246.45,-67.79 301.23,-38.61 336.72,-23.46"/>
<polygon fill="midnightblue" stroke="midnightblue" points="338.27,-26.6 346.18,-19.55 335.6,-20.13 338.27,-26.6"/>
</g>
<!-- Node44&#45;&gt;Node18 -->
<g id="edge75" class="edge">
<title>Node44&#45;&gt;Node18</title>
<path fill="none" stroke="midnightblue" d="M214.04,-173.98C227.51,-164.43 249.57,-148.81 265.72,-137.37"/>
<polygon fill="midnightblue" stroke="midnightblue" points="267.85,-140.15 273.99,-131.51 263.8,-134.43 267.85,-140.15"/>
</g>
<!-- Node44&#45;&gt;Node20 -->
<g id="edge72" class="edge">
<title>Node44&#45;&gt;Node20</title>
<path fill="none" stroke="midnightblue" d="M204.51,-173.58C209.01,-158.99 219.73,-129.88 238,-112 254.7,-95.65 278.49,-84.29 297.83,-77.07"/>
<polygon fill="midnightblue" stroke="midnightblue" points="299.21,-80.3 307.47,-73.67 296.88,-73.69 299.21,-80.3"/>
</g>
<!-- Node45 -->
<g id="node45" class="node">
<title>Node45</title>
<g id="a_node45"><a xlink:title=" ">
<polygon fill="white" stroke="#bfbfbf" points="104.5,-112.5 104.5,-131.5 151.5,-131.5 151.5,-112.5 104.5,-112.5"/>
<text text-anchor="middle" x="128" y="-119.5" font-family="Helvetica,sans-Serif" font-size="10.00">queue</text>
</a>
</g>
</g>
<!-- Node44&#45;&gt;Node45 -->
<g id="edge73" class="edge">
<title>Node44&#45;&gt;Node45</title>
<path fill="none" stroke="midnightblue" d="M191.4,-173.98C179.75,-164.61 160.81,-149.38 146.67,-138.01"/>
<polygon fill="midnightblue" stroke="midnightblue" points="148.57,-135.05 138.58,-131.51 144.18,-140.5 148.57,-135.05"/>
</g>
<!-- Node46 -->
<g id="node46" class="node">
<title>Node46</title>
<g id="a_node46"><a xlink:href="Node_8hpp.html" target="_top" xlink:title=" ">
<polygon fill="white" stroke="black" points="66.5,-56.5 66.5,-75.5 197.5,-75.5 197.5,-56.5 66.5,-56.5"/>
<text text-anchor="middle" x="132" y="-63.5" font-family="Helvetica,sans-Serif" font-size="10.00">artgslam_vsc/Node.hpp</text>
</a>
</g>
</g>
<!-- Node44&#45;&gt;Node46 -->
<g id="edge76" class="edge">
<title>Node44&#45;&gt;Node46</title>
<path fill="none" stroke="midnightblue" d="M159.98,-173.96C136.84,-166.89 110.04,-154.24 96,-132 85.64,-115.59 99.89,-96.01 113.41,-82.66"/>
<polygon fill="midnightblue" stroke="midnightblue" points="116.1,-84.94 121.09,-75.59 111.36,-79.79 116.1,-84.94"/>
</g>
<!-- Node46&#45;&gt;Node3 -->
<g id="edge77" class="edge">
<title>Node46&#45;&gt;Node3</title>
<path fill="none" stroke="midnightblue" d="M169.71,-56.44C211.14,-47.04 277.76,-31.93 322.67,-21.74"/>
<polygon fill="midnightblue" stroke="midnightblue" points="323.49,-25.14 332.46,-19.52 321.94,-18.32 323.49,-25.14"/>
</g>
</g>
</svg>
