<?xml version="1.0" encoding="UTF-8" standalone="no"?>
<!DOCTYPE svg PUBLIC "-//W3C//DTD SVG 1.1//EN"
 "http://www.w3.org/Graphics/SVG/1.1/DTD/svg11.dtd">
<!-- Generated by graphviz version 2.43.0 (0)
 -->
<!-- Title: include/artgslam_vsc/MapViewer.hpp Pages: 1 -->
<!--zoomable 274 -->
<svg id="main" version="1.1" xmlns="http://www.w3.org/2000/svg" xmlns:xlink="http://www.w3.org/1999/xlink" xml:space="preserve" onload="init(evt)">
<style type="text/css"><![CDATA[
.edge:hover path { stroke: red; }
.edge:hover polygon { stroke: red; fill: red; }
]]></style>
<script type="text/javascript"><![CDATA[
var edges = document.getElementsByTagName('g');
if (edges && edges.length) {
  for (var i=0;i<edges.length;i++) {
    if (edges[i].id.substr(0,4)=='edge') {
      edges[i].setAttribute('class','edge');
    }
  }
}
]]></script>
        <defs>
                <circle id="rim" cx="0" cy="0" r="7"/>
                <circle id="rim2" cx="0" cy="0" r="3.5"/>
                <g id="zoomPlus">
                        <use xlink:href="#rim" fill="#404040">
                                <set attributeName="fill" to="#808080" begin="zoomplus.mouseover" end="zoomplus.mouseout"/>
                        </use>
                        <path d="M-4,0h8M0,-4v8" fill="none" stroke="white" stroke-width="1.5" pointer-events="none"/>
                </g>
                <g id="zoomMin">
                        <use xlink:href="#rim" fill="#404040">
                                <set attributeName="fill" to="#808080" begin="zoomminus.mouseover" end="zoomminus.mouseout"/>
                        </use>
                        <path d="M-4,0h8" fill="none" stroke="white" stroke-width="1.5" pointer-events="none"/>
                </g>
                <g id="dirArrow">
                        <path fill="none" stroke="white" stroke-width="1.5" d="M0,-3.0v7 M-2.5,-0.5L0,-3.0L2.5,-0.5"/>
                </g>
               <g id="resetDef">
                       <use xlink:href="#rim2" fill="#404040">
                               <set attributeName="fill" to="#808080" begin="reset.mouseover" end="reset.mouseout"/>
                       </use>
               </g>
        </defs>

<script type="text/javascript">
var viewWidth = 4192;
var viewHeight = 274;
var sectionId = 'dynsection-0';
</script>
<script xlink:href="svgpan.js"/>
<svg id="graph" class="graph">
<g id="viewport">
<title>include/artgslam_vsc/MapViewer.hpp</title>
<polygon fill="white" stroke="transparent" points="-4,4 -4,-270 4188.12,-270 4188.12,4 -4,4"/>
<!-- Node1 -->
<g id="node1" class="node">
<title>Node1</title>
<g id="a_node1"><a xlink:title=" ">
<polygon fill="#bfbfbf" stroke="black" points="1605.5,-235.5 1605.5,-265.5 1725.5,-265.5 1725.5,-235.5 1605.5,-235.5"/>
<text text-anchor="start" x="1613.5" y="-253.5" font-family="Helvetica,sans-Serif" font-size="10.00">include/artgslam_vsc</text>
<text text-anchor="middle" x="1665.5" y="-242.5" font-family="Helvetica,sans-Serif" font-size="10.00">/MapViewer.hpp</text>
</a>
</g>
</g>
<!-- Node2 -->
<g id="node2" class="node">
<title>Node2</title>
<g id="a_node2"><a xlink:href="MenuBar_8hpp.html" target="_top" xlink:title=" ">
<polygon fill="white" stroke="black" points="416,-174 416,-193 565,-193 565,-174 416,-174"/>
<text text-anchor="middle" x="490.5" y="-181" font-family="Helvetica,sans-Serif" font-size="10.00">artgslam_vsc/MenuBar.hpp</text>
</a>
</g>
</g>
<!-- Node1&#45;&gt;Node2 -->
<g id="edge1" class="edge">
<title>Node1&#45;&gt;Node2</title>
<path fill="none" stroke="midnightblue" d="M1605.44,-246.74C1453.41,-239.67 1041,-219.99 697.5,-199 657.4,-196.55 612.96,-193.48 575.56,-190.8"/>
<polygon fill="midnightblue" stroke="midnightblue" points="575.44,-187.28 565.21,-190.06 574.94,-194.27 575.44,-187.28"/>
</g>
<!-- Node6 -->
<g id="node6" class="node">
<title>Node6</title>
<g id="a_node6"><a xlink:title=" ">
<polygon fill="white" stroke="#bfbfbf" points="739.5,-112.5 739.5,-131.5 921.5,-131.5 921.5,-112.5 739.5,-112.5"/>
<text text-anchor="middle" x="830.5" y="-119.5" font-family="Helvetica,sans-Serif" font-size="10.00">TGUI/Backend/SFML&#45;Graphics.hpp</text>
</a>
</g>
</g>
<!-- Node1&#45;&gt;Node6 -->
<g id="edge75" class="edge">
<title>Node1&#45;&gt;Node6</title>
<path fill="none" stroke="midnightblue" d="M1605.46,-244.72C1517.11,-237.27 1347,-221.41 1203.5,-199 1084.79,-180.46 946.56,-149.92 876.41,-133.78"/>
<polygon fill="midnightblue" stroke="midnightblue" points="877.1,-130.34 866.57,-131.5 875.52,-137.16 877.1,-130.34"/>
</g>
<!-- Node9 -->
<g id="node9" class="node">
<title>Node9</title>
<g id="a_node9"><a xlink:href="FileManager_8hpp.html" target="_top" xlink:title=" ">
<polygon fill="white" stroke="black" points="2471,-174 2471,-193 2636,-193 2636,-174 2471,-174"/>
<text text-anchor="middle" x="2553.5" y="-181" font-family="Helvetica,sans-Serif" font-size="10.00">artgslam_vsc/FileManager.hpp</text>
</a>
</g>
</g>
<!-- Node1&#45;&gt;Node9 -->
<g id="edge8" class="edge">
<title>Node1&#45;&gt;Node9</title>
<path fill="none" stroke="midnightblue" d="M1725.84,-245.08C1878.03,-233.94 2278.36,-204.64 2460.68,-191.29"/>
<polygon fill="midnightblue" stroke="midnightblue" points="2461.06,-194.78 2470.78,-190.55 2460.55,-187.79 2461.06,-194.78"/>
</g>
<!-- Node15 -->
<g id="node15" class="node">
<title>Node15</title>
<g id="a_node15"><a xlink:href="GridMap_8hpp.html" target="_top" xlink:title=" ">
<polygon fill="white" stroke="black" points="2237,-112.5 2237,-131.5 2316,-131.5 2316,-112.5 2237,-112.5"/>
<text text-anchor="middle" x="2276.5" y="-119.5" font-family="Helvetica,sans-Serif" font-size="10.00">GridMap.hpp</text>
</a>
</g>
</g>
<!-- Node1&#45;&gt;Node15 -->
<g id="edge22" class="edge">
<title>Node1&#45;&gt;Node15</title>
<path fill="none" stroke="midnightblue" d="M1725.59,-241.22C1788.06,-232.25 1888.54,-216.81 1974.5,-199 2069.14,-179.39 2178.87,-150.11 2236.47,-134.22"/>
<polygon fill="midnightblue" stroke="midnightblue" points="2237.56,-137.55 2246.26,-131.51 2235.69,-130.81 2237.56,-137.55"/>
</g>
<!-- Node18 -->
<g id="node18" class="node">
<title>Node18</title>
<g id="a_node18"><a xlink:title=" ">
<polygon fill="white" stroke="#bfbfbf" points="1429.5,-0.5 1429.5,-19.5 1539.5,-19.5 1539.5,-0.5 1429.5,-0.5"/>
<text text-anchor="middle" x="1484.5" y="-7.5" font-family="Helvetica,sans-Serif" font-size="10.00">SFML/Graphics.hpp</text>
</a>
</g>
</g>
<!-- Node1&#45;&gt;Node18 -->
<g id="edge74" class="edge">
<title>Node1&#45;&gt;Node18</title>
<path fill="none" stroke="midnightblue" d="M1605.47,-246.7C1407.64,-236.83 785.61,-200.53 730.5,-132 642.15,-22.14 1220.99,-11.3 1419.44,-10.78"/>
<polygon fill="midnightblue" stroke="midnightblue" points="1419.44,-14.28 1429.44,-10.77 1419.43,-7.28 1419.44,-14.28"/>
</g>
<!-- Node19 -->
<g id="node19" class="node">
<title>Node19</title>
<g id="a_node19"><a xlink:href="ViewController_8hpp.html" target="_top" xlink:title=" ">
<polygon fill="white" stroke="black" points="2318.5,-56.5 2318.5,-75.5 2496.5,-75.5 2496.5,-56.5 2318.5,-56.5"/>
<text text-anchor="middle" x="2407.5" y="-63.5" font-family="Helvetica,sans-Serif" font-size="10.00">artgslam_vsc/ViewController.hpp</text>
</a>
</g>
</g>
<!-- Node1&#45;&gt;Node19 -->
<g id="edge38" class="edge">
<title>Node1&#45;&gt;Node19</title>
<path fill="none" stroke="midnightblue" d="M1725.66,-249.03C2099.61,-245.83 4092.91,-224.46 4179.5,-132 4185.58,-125.51 4185.71,-118.36 4179.5,-112 4150.12,-81.86 2876.23,-70.37 2506.88,-67.66"/>
<polygon fill="midnightblue" stroke="midnightblue" points="2506.77,-64.16 2496.75,-67.59 2506.72,-71.16 2506.77,-64.16"/>
</g>
<!-- Node21 -->
<g id="node21" class="node">
<title>Node21</title>
<g id="a_node21"><a xlink:href="RosHandler_8hpp.html" target="_top" xlink:title=" ">
<polygon fill="white" stroke="black" points="2986.5,-174 2986.5,-193 3148.5,-193 3148.5,-174 2986.5,-174"/>
<text text-anchor="middle" x="3067.5" y="-181" font-family="Helvetica,sans-Serif" font-size="10.00">artgslam_vsc/RosHandler.hpp</text>
</a>
</g>
</g>
<!-- Node1&#45;&gt;Node21 -->
<g id="edge23" class="edge">
<title>Node1&#45;&gt;Node21</title>
<path fill="none" stroke="midnightblue" d="M1725.74,-246.71C1946.33,-236.48 2710.92,-201.03 2976.09,-188.74"/>
<polygon fill="midnightblue" stroke="midnightblue" points="2976.62,-192.22 2986.45,-188.26 2976.3,-185.22 2976.62,-192.22"/>
</g>
<!-- Node31 -->
<g id="node31" class="node">
<title>Node31</title>
<g id="a_node31"><a xlink:href="RobotCreator_8hpp.html" target="_top" xlink:title=" ">
<polygon fill="white" stroke="black" points="1730.5,-174 1730.5,-193 1900.5,-193 1900.5,-174 1730.5,-174"/>
<text text-anchor="middle" x="1815.5" y="-181" font-family="Helvetica,sans-Serif" font-size="10.00">artgslam_vsc/RobotCreator.hpp</text>
</a>
</g>
</g>
<!-- Node1&#45;&gt;Node31 -->
<g id="edge39" class="edge">
<title>Node1&#45;&gt;Node31</title>
<path fill="none" stroke="midnightblue" d="M1698.05,-235.4C1724.37,-223.99 1761.09,-208.08 1786.43,-197.1"/>
<polygon fill="midnightblue" stroke="midnightblue" points="1788.08,-200.19 1795.87,-193.01 1785.3,-193.77 1788.08,-200.19"/>
</g>
<!-- Node36 -->
<g id="node36" class="node">
<title>Node36</title>
<g id="a_node36"><a xlink:href="UnicicleWmr_8hpp.html" target="_top" xlink:title=" ">
<polygon fill="white" stroke="black" points="2051.5,-112.5 2051.5,-131.5 2219.5,-131.5 2219.5,-112.5 2051.5,-112.5"/>
<text text-anchor="middle" x="2135.5" y="-119.5" font-family="Helvetica,sans-Serif" font-size="10.00">artgslam_vsc/UnicicleWmr.hpp</text>
</a>
</g>
</g>
<!-- Node1&#45;&gt;Node36 -->
<g id="edge52" class="edge">
<title>Node1&#45;&gt;Node36</title>
<path fill="none" stroke="midnightblue" d="M1725.64,-239.14C1775.32,-230.08 1847.49,-215.78 1909.5,-199 1979.75,-179.99 2060.1,-151.25 2103.54,-135.11"/>
<polygon fill="midnightblue" stroke="midnightblue" points="2104.86,-138.35 2113,-131.57 2102.41,-131.79 2104.86,-138.35"/>
</g>
<!-- Node38 -->
<g id="node38" class="node">
<title>Node38</title>
<g id="a_node38"><a xlink:href="LiveMap_8hpp.html" target="_top" xlink:title=" ">
<polygon fill="white" stroke="black" points="1217,-112.5 1217,-131.5 1364,-131.5 1364,-112.5 1217,-112.5"/>
<text text-anchor="middle" x="1290.5" y="-119.5" font-family="Helvetica,sans-Serif" font-size="10.00">artgslam_vsc/LiveMap.hpp</text>
</a>
</g>
</g>
<!-- Node1&#45;&gt;Node38 -->
<g id="edge53" class="edge">
<title>Node1&#45;&gt;Node38</title>
<path fill="none" stroke="midnightblue" d="M1615.02,-235.45C1581.05,-225.77 1535.37,-212.3 1495.5,-199 1433.26,-178.24 1361.61,-150.87 1321.63,-135.28"/>
<polygon fill="midnightblue" stroke="midnightblue" points="1322.76,-131.96 1312.18,-131.58 1320.21,-138.48 1322.76,-131.96"/>
</g>
<!-- Node40 -->
<g id="node40" class="node">
<title>Node40</title>
<g id="a_node40"><a xlink:href="RightClickMapMenu_8hpp.html" target="_top" xlink:title=" ">
<polygon fill="white" stroke="black" points="1213,-168.5 1213,-198.5 1368,-198.5 1368,-168.5 1213,-168.5"/>
<text text-anchor="start" x="1221" y="-186.5" font-family="Helvetica,sans-Serif" font-size="10.00">artgslam_vsc/RightClickMap</text>
<text text-anchor="middle" x="1290.5" y="-175.5" font-family="Helvetica,sans-Serif" font-size="10.00">Menu.hpp</text>
</a>
</g>
</g>
<!-- Node1&#45;&gt;Node40 -->
<g id="edge58" class="edge">
<title>Node1&#45;&gt;Node40</title>
<path fill="none" stroke="midnightblue" d="M1605.25,-239.06C1543.88,-228.42 1448.07,-211.81 1378.27,-199.71"/>
<polygon fill="midnightblue" stroke="midnightblue" points="1378.62,-196.22 1368.17,-197.96 1377.42,-203.12 1378.62,-196.22"/>
</g>
<!-- Node43 -->
<g id="node43" class="node">
<title>Node43</title>
<g id="a_node43"><a xlink:href="AStar_8hpp.html" target="_top" xlink:title=" ">
<polygon fill="white" stroke="black" points="1504.5,-174 1504.5,-193 1636.5,-193 1636.5,-174 1504.5,-174"/>
<text text-anchor="middle" x="1570.5" y="-181" font-family="Helvetica,sans-Serif" font-size="10.00">artgslam_vsc/AStar.hpp</text>
</a>
</g>
</g>
<!-- Node1&#45;&gt;Node43 -->
<g id="edge67" class="edge">
<title>Node1&#45;&gt;Node43</title>
<path fill="none" stroke="midnightblue" d="M1644.89,-235.4C1629.1,-224.6 1607.41,-209.76 1591.53,-198.89"/>
<polygon fill="midnightblue" stroke="midnightblue" points="1593.16,-195.77 1582.93,-193.01 1589.21,-201.54 1593.16,-195.77"/>
</g>
<!-- Node3 -->
<g id="node3" class="node">
<title>Node3</title>
<g id="a_node3"><a xlink:title=" ">
<polygon fill="white" stroke="#bfbfbf" points="83,-112.5 83,-131.5 234,-131.5 234,-112.5 83,-112.5"/>
<text text-anchor="middle" x="158.5" y="-119.5" font-family="Helvetica,sans-Serif" font-size="10.00">TGUI/Widgets/MenuBar.hpp</text>
</a>
</g>
</g>
<!-- Node2&#45;&gt;Node3 -->
<g id="edge2" class="edge">
<title>Node2&#45;&gt;Node3</title>
<path fill="none" stroke="midnightblue" d="M442.93,-173.98C383.02,-163.24 280.18,-144.81 215.94,-133.29"/>
<polygon fill="midnightblue" stroke="midnightblue" points="216.44,-129.83 205.98,-131.51 215.2,-136.72 216.44,-129.83"/>
</g>
<!-- Node4 -->
<g id="node4" class="node">
<title>Node4</title>
<g id="a_node4"><a xlink:title=" ">
<polygon fill="white" stroke="#bfbfbf" points="252.5,-112.5 252.5,-131.5 386.5,-131.5 386.5,-112.5 252.5,-112.5"/>
<text text-anchor="middle" x="319.5" y="-119.5" font-family="Helvetica,sans-Serif" font-size="10.00">TGUI/Widgets/Label.hpp</text>
</a>
</g>
</g>
<!-- Node2&#45;&gt;Node4 -->
<g id="edge3" class="edge">
<title>Node2&#45;&gt;Node4</title>
<path fill="none" stroke="midnightblue" d="M466,-173.98C436.54,-163.72 386.92,-146.46 353.7,-134.9"/>
<polygon fill="midnightblue" stroke="midnightblue" points="354.55,-131.49 343.95,-131.51 352.25,-138.1 354.55,-131.49"/>
</g>
<!-- Node5 -->
<g id="node5" class="node">
<title>Node5</title>
<g id="a_node5"><a xlink:title=" ">
<polygon fill="white" stroke="#bfbfbf" points="405,-112.5 405,-131.5 576,-131.5 576,-112.5 405,-112.5"/>
<text text-anchor="middle" x="490.5" y="-119.5" font-family="Helvetica,sans-Serif" font-size="10.00">TGUI/Widgets/ToggleButton.hpp</text>
</a>
</g>
</g>
<!-- Node2&#45;&gt;Node5 -->
<g id="edge4" class="edge">
<title>Node2&#45;&gt;Node5</title>
<path fill="none" stroke="midnightblue" d="M490.5,-173.98C490.5,-165.58 490.5,-152.48 490.5,-141.66"/>
<polygon fill="midnightblue" stroke="midnightblue" points="494,-141.51 490.5,-131.51 487,-141.51 494,-141.51"/>
</g>
<!-- Node2&#45;&gt;Node6 -->
<g id="edge5" class="edge">
<title>Node2&#45;&gt;Node6</title>
<path fill="none" stroke="midnightblue" d="M539.21,-173.98C600.57,-163.24 705.89,-144.81 771.67,-133.29"/>
<polygon fill="midnightblue" stroke="midnightblue" points="772.63,-136.68 781.88,-131.51 771.42,-129.79 772.63,-136.68"/>
</g>
<!-- Node7 -->
<g id="node7" class="node">
<title>Node7</title>
<g id="a_node7"><a xlink:title=" ">
<polygon fill="white" stroke="#bfbfbf" points="594,-112.5 594,-131.5 683,-131.5 683,-112.5 594,-112.5"/>
<text text-anchor="middle" x="638.5" y="-119.5" font-family="Helvetica,sans-Serif" font-size="10.00">TGUI/TGUI.hpp</text>
</a>
</g>
</g>
<!-- Node2&#45;&gt;Node7 -->
<g id="edge6" class="edge">
<title>Node2&#45;&gt;Node7</title>
<path fill="none" stroke="midnightblue" d="M511.7,-173.98C536.87,-163.86 579.04,-146.9 607.78,-135.35"/>
<polygon fill="midnightblue" stroke="midnightblue" points="609.36,-138.49 617.33,-131.51 606.75,-131.99 609.36,-138.49"/>
</g>
<!-- Node8 -->
<g id="node8" class="node">
<title>Node8</title>
<g id="a_node8"><a xlink:title=" ">
<polygon fill="white" stroke="#bfbfbf" points="0,-112.5 0,-131.5 65,-131.5 65,-112.5 0,-112.5"/>
<text text-anchor="middle" x="32.5" y="-119.5" font-family="Helvetica,sans-Serif" font-size="10.00">functional</text>
</a>
</g>
</g>
<!-- Node2&#45;&gt;Node8 -->
<g id="edge7" class="edge">
<title>Node2&#45;&gt;Node8</title>
<path fill="none" stroke="midnightblue" d="M415.99,-175.65C334.54,-167.66 199.99,-153.04 75.23,-132.16"/>
<polygon fill="midnightblue" stroke="midnightblue" points="75.56,-128.67 65.12,-130.45 74.4,-135.57 75.56,-128.67"/>
</g>
<!-- Node10 -->
<g id="node10" class="node">
<title>Node10</title>
<g id="a_node10"><a xlink:title=" ">
<polygon fill="white" stroke="#bfbfbf" points="2852,-112.5 2852,-131.5 2907,-131.5 2907,-112.5 2852,-112.5"/>
<text text-anchor="middle" x="2879.5" y="-119.5" font-family="Helvetica,sans-Serif" font-size="10.00">fstream</text>
</a>
</g>
</g>
<!-- Node9&#45;&gt;Node10 -->
<g id="edge9" class="edge">
<title>Node9&#45;&gt;Node10</title>
<path fill="none" stroke="midnightblue" d="M2608.57,-173.98C2664.76,-165.04 2754.69,-150.05 2841.87,-132.02"/>
<polygon fill="midnightblue" stroke="midnightblue" points="2842.59,-135.44 2851.66,-129.98 2841.16,-128.59 2842.59,-135.44"/>
</g>
<!-- Node11 -->
<g id="node11" class="node">
<title>Node11</title>
<g id="a_node11"><a xlink:title=" ">
<polygon fill="white" stroke="#bfbfbf" points="2525.5,-112.5 2525.5,-131.5 2581.5,-131.5 2581.5,-112.5 2525.5,-112.5"/>
<text text-anchor="middle" x="2553.5" y="-119.5" font-family="Helvetica,sans-Serif" font-size="10.00">sstream</text>
</a>
</g>
</g>
<!-- Node9&#45;&gt;Node11 -->
<g id="edge10" class="edge">
<title>Node9&#45;&gt;Node11</title>
<path fill="none" stroke="midnightblue" d="M2553.5,-173.98C2553.5,-165.58 2553.5,-152.48 2553.5,-141.66"/>
<polygon fill="midnightblue" stroke="midnightblue" points="2557,-141.51 2553.5,-131.51 2550,-141.51 2557,-141.51"/>
</g>
<!-- Node12 -->
<g id="node12" class="node">
<title>Node12</title>
<g id="a_node12"><a xlink:title=" ">
<polygon fill="white" stroke="#bfbfbf" points="2789.5,-112.5 2789.5,-131.5 2833.5,-131.5 2833.5,-112.5 2789.5,-112.5"/>
<text text-anchor="middle" x="2811.5" y="-119.5" font-family="Helvetica,sans-Serif" font-size="10.00">string</text>
</a>
</g>
</g>
<!-- Node9&#45;&gt;Node12 -->
<g id="edge11" class="edge">
<title>Node9&#45;&gt;Node12</title>
<path fill="none" stroke="midnightblue" d="M2592.06,-173.99C2636.38,-164.15 2711.3,-147.33 2775.5,-132 2776.77,-131.7 2778.06,-131.39 2779.37,-131.07"/>
<polygon fill="midnightblue" stroke="midnightblue" points="2780.56,-134.38 2789.43,-128.6 2778.89,-127.58 2780.56,-134.38"/>
</g>
<!-- Node13 -->
<g id="node13" class="node">
<title>Node13</title>
<g id="a_node13"><a xlink:title=" ">
<polygon fill="white" stroke="#bfbfbf" points="2333.5,-112.5 2333.5,-131.5 2393.5,-131.5 2393.5,-112.5 2333.5,-112.5"/>
<text text-anchor="middle" x="2363.5" y="-119.5" font-family="Helvetica,sans-Serif" font-size="10.00">iostream</text>
</a>
</g>
</g>
<!-- Node9&#45;&gt;Node13 -->
<g id="edge12" class="edge">
<title>Node9&#45;&gt;Node13</title>
<path fill="none" stroke="midnightblue" d="M2526.28,-173.98C2493.26,-163.64 2437.46,-146.16 2400.55,-134.6"/>
<polygon fill="midnightblue" stroke="midnightblue" points="2401.26,-131.16 2390.67,-131.51 2399.17,-137.84 2401.26,-131.16"/>
</g>
<!-- Node14 -->
<g id="node14" class="node">
<title>Node14</title>
<g id="a_node14"><a xlink:title=" ">
<polygon fill="white" stroke="#bfbfbf" points="2677.5,-112.5 2677.5,-131.5 2733.5,-131.5 2733.5,-112.5 2677.5,-112.5"/>
<text text-anchor="middle" x="2705.5" y="-119.5" font-family="Helvetica,sans-Serif" font-size="10.00">iomanip</text>
</a>
</g>
</g>
<!-- Node9&#45;&gt;Node14 -->
<g id="edge13" class="edge">
<title>Node9&#45;&gt;Node14</title>
<path fill="none" stroke="midnightblue" d="M2575.28,-173.98C2601.24,-163.81 2644.81,-146.76 2674.33,-135.2"/>
<polygon fill="midnightblue" stroke="midnightblue" points="2675.73,-138.41 2683.76,-131.51 2673.17,-131.9 2675.73,-138.41"/>
</g>
<!-- Node9&#45;&gt;Node15 -->
<g id="edge14" class="edge">
<title>Node9&#45;&gt;Node15</title>
<path fill="none" stroke="midnightblue" d="M2513.81,-173.98C2464.34,-163.35 2379.78,-145.18 2326.09,-133.65"/>
<polygon fill="midnightblue" stroke="midnightblue" points="2326.63,-130.19 2316.11,-131.51 2325.16,-137.03 2326.63,-130.19"/>
</g>
<!-- Node9&#45;&gt;Node19 -->
<g id="edge20" class="edge">
<title>Node9&#45;&gt;Node19</title>
<path fill="none" stroke="midnightblue" d="M2636.19,-177.21C2702.15,-169.92 2778.06,-152.66 2742.5,-112 2712.35,-77.53 2594.45,-68.37 2507,-66.46"/>
<polygon fill="midnightblue" stroke="midnightblue" points="2506.83,-62.96 2496.77,-66.27 2506.7,-69.96 2506.83,-62.96"/>
</g>
<!-- Node20 -->
<g id="node20" class="node">
<title>Node20</title>
<g id="a_node20"><a xlink:href="tinyfiledialogs_8h.html" target="_top" xlink:title=" ">
<polygon fill="white" stroke="black" points="2412,-112.5 2412,-131.5 2507,-131.5 2507,-112.5 2412,-112.5"/>
<text text-anchor="middle" x="2459.5" y="-119.5" font-family="Helvetica,sans-Serif" font-size="10.00">tinyfiledialogs.h</text>
</a>
</g>
</g>
<!-- Node9&#45;&gt;Node20 -->
<g id="edge21" class="edge">
<title>Node9&#45;&gt;Node20</title>
<path fill="none" stroke="midnightblue" d="M2540.03,-173.98C2524.82,-164.34 2499.81,-148.52 2481.7,-137.05"/>
<polygon fill="midnightblue" stroke="midnightblue" points="2483.26,-133.9 2472.94,-131.51 2479.52,-139.81 2483.26,-133.9"/>
</g>
<!-- Node16 -->
<g id="node16" class="node">
<title>Node16</title>
<g id="a_node16"><a xlink:title=" ">
<polygon fill="white" stroke="#bfbfbf" points="2253,-56.5 2253,-75.5 2300,-75.5 2300,-56.5 2253,-56.5"/>
<text text-anchor="middle" x="2276.5" y="-63.5" font-family="Helvetica,sans-Serif" font-size="10.00">vector</text>
</a>
</g>
</g>
<!-- Node15&#45;&gt;Node16 -->
<g id="edge15" class="edge">
<title>Node15&#45;&gt;Node16</title>
<path fill="none" stroke="midnightblue" d="M2276.5,-112.08C2276.5,-105.01 2276.5,-94.86 2276.5,-85.99"/>
<polygon fill="midnightblue" stroke="midnightblue" points="2280,-85.75 2276.5,-75.75 2273,-85.75 2280,-85.75"/>
</g>
<!-- Node17 -->
<g id="node17" class="node">
<title>Node17</title>
<g id="a_node17"><a xlink:title=" ">
<polygon fill="white" stroke="#bfbfbf" points="2149,-56.5 2149,-75.5 2196,-75.5 2196,-56.5 2149,-56.5"/>
<text text-anchor="middle" x="2172.5" y="-63.5" font-family="Helvetica,sans-Serif" font-size="10.00">cmath</text>
</a>
</g>
</g>
<!-- Node15&#45;&gt;Node17 -->
<g id="edge16" class="edge">
<title>Node15&#45;&gt;Node17</title>
<path fill="none" stroke="midnightblue" d="M2259.79,-112.32C2243.19,-103.7 2217.5,-90.36 2198.28,-80.39"/>
<polygon fill="midnightblue" stroke="midnightblue" points="2199.66,-77.16 2189.17,-75.65 2196.43,-83.37 2199.66,-77.16"/>
</g>
<!-- Node15&#45;&gt;Node18 -->
<g id="edge17" class="edge">
<title>Node15&#45;&gt;Node18</title>
<path fill="none" stroke="midnightblue" d="M2270.25,-112.28C2259.15,-97.58 2234.42,-68.29 2205.5,-56 2146.07,-30.75 1715.67,-17 1549.61,-12.59"/>
<polygon fill="midnightblue" stroke="midnightblue" points="1549.63,-9.09 1539.54,-12.33 1549.44,-16.09 1549.63,-9.09"/>
</g>
<!-- Node15&#45;&gt;Node19 -->
<g id="edge18" class="edge">
<title>Node15&#45;&gt;Node19</title>
<path fill="none" stroke="midnightblue" d="M2297.26,-112.44C2318.82,-103.56 2352.76,-89.56 2377.29,-79.45"/>
<polygon fill="midnightblue" stroke="midnightblue" points="2378.93,-82.56 2386.84,-75.52 2376.26,-76.09 2378.93,-82.56"/>
</g>
<!-- Node19&#45;&gt;Node18 -->
<g id="edge19" class="edge">
<title>Node19&#45;&gt;Node18</title>
<path fill="none" stroke="midnightblue" d="M2318.31,-56.67C2315.34,-56.44 2312.4,-56.21 2309.5,-56 2026.88,-35.32 1689.15,-19.76 1549.67,-13.73"/>
<polygon fill="midnightblue" stroke="midnightblue" points="1549.72,-10.23 1539.58,-13.3 1549.42,-17.22 1549.72,-10.23"/>
</g>
<!-- Node21&#45;&gt;Node10 -->
<g id="edge35" class="edge">
<title>Node21&#45;&gt;Node10</title>
<path fill="none" stroke="midnightblue" d="M3040.56,-173.98C3007.9,-163.64 2952.68,-146.16 2916.16,-134.6"/>
<polygon fill="midnightblue" stroke="midnightblue" points="2916.98,-131.19 2906.39,-131.51 2914.86,-137.86 2916.98,-131.19"/>
</g>
<!-- Node21&#45;&gt;Node12 -->
<g id="edge33" class="edge">
<title>Node21&#45;&gt;Node12</title>
<path fill="none" stroke="midnightblue" d="M3026.47,-173.93C2983.46,-164.79 2913.69,-149.54 2843.71,-131.94"/>
<polygon fill="midnightblue" stroke="midnightblue" points="2844.39,-128.5 2833.84,-129.44 2842.68,-135.29 2844.39,-128.5"/>
</g>
<!-- Node21&#45;&gt;Node13 -->
<g id="edge36" class="edge">
<title>Node21&#45;&gt;Node13</title>
<path fill="none" stroke="midnightblue" d="M2986.33,-180.13C2860.77,-175.6 2612.16,-163.24 2403.5,-132 2403.4,-131.98 2403.3,-131.97 2403.2,-131.95"/>
<polygon fill="midnightblue" stroke="midnightblue" points="2404.01,-128.54 2393.55,-130.25 2402.79,-135.44 2404.01,-128.54"/>
</g>
<!-- Node21&#45;&gt;Node16 -->
<g id="edge34" class="edge">
<title>Node21&#45;&gt;Node16</title>
<path fill="none" stroke="midnightblue" d="M3054.78,-173.83C3029.15,-156.54 2971.86,-118.85 2949.5,-112 2816.23,-71.16 2465.6,-97.67 2310.12,-75.62"/>
<polygon fill="midnightblue" stroke="midnightblue" points="2310.58,-72.15 2300.16,-74.09 2309.52,-79.07 2310.58,-72.15"/>
</g>
<!-- Node21&#45;&gt;Node17 -->
<g id="edge37" class="edge">
<title>Node21&#45;&gt;Node17</title>
<path fill="none" stroke="midnightblue" d="M3044.89,-173.92C3020.81,-164.53 2981.81,-148.6 2949.5,-132 2934.25,-124.16 2932.89,-117.05 2916.5,-112 2773.6,-67.92 2393.46,-89.28 2244.5,-76 2231.98,-74.88 2218.28,-73.27 2206.23,-71.72"/>
<polygon fill="midnightblue" stroke="midnightblue" points="2206.5,-68.22 2196.13,-70.38 2205.58,-75.16 2206.5,-68.22"/>
</g>
<!-- Node22 -->
<g id="node22" class="node">
<title>Node22</title>
<g id="a_node22"><a xlink:title=" ">
<polygon fill="white" stroke="#bfbfbf" points="2600,-112.5 2600,-131.5 2659,-131.5 2659,-112.5 2600,-112.5"/>
<text text-anchor="middle" x="2629.5" y="-119.5" font-family="Helvetica,sans-Serif" font-size="10.00">ros/ros.h</text>
</a>
</g>
</g>
<!-- Node21&#45;&gt;Node22 -->
<g id="edge24" class="edge">
<title>Node21&#45;&gt;Node22</title>
<path fill="none" stroke="midnightblue" d="M2986.13,-174.63C2907.54,-166.48 2784.98,-152.31 2669.34,-131.98"/>
<polygon fill="midnightblue" stroke="midnightblue" points="2669.7,-128.49 2659.25,-130.19 2668.48,-135.39 2669.7,-128.49"/>
</g>
<!-- Node23 -->
<g id="node23" class="node">
<title>Node23</title>
<g id="a_node23"><a xlink:title=" ">
<polygon fill="white" stroke="#bfbfbf" points="3001.5,-112.5 3001.5,-131.5 3133.5,-131.5 3133.5,-112.5 3001.5,-112.5"/>
<text text-anchor="middle" x="3067.5" y="-119.5" font-family="Helvetica,sans-Serif" font-size="10.00">geometry_msgs/Twist.h</text>
</a>
</g>
</g>
<!-- Node21&#45;&gt;Node23 -->
<g id="edge25" class="edge">
<title>Node21&#45;&gt;Node23</title>
<path fill="none" stroke="midnightblue" d="M3067.5,-173.98C3067.5,-165.58 3067.5,-152.48 3067.5,-141.66"/>
<polygon fill="midnightblue" stroke="midnightblue" points="3071,-141.51 3067.5,-131.51 3064,-141.51 3071,-141.51"/>
</g>
<!-- Node24 -->
<g id="node24" class="node">
<title>Node24</title>
<g id="a_node24"><a xlink:title=" ">
<polygon fill="white" stroke="#bfbfbf" points="3151.5,-112.5 3151.5,-131.5 3257.5,-131.5 3257.5,-112.5 3151.5,-112.5"/>
<text text-anchor="middle" x="3204.5" y="-119.5" font-family="Helvetica,sans-Serif" font-size="10.00">sensor_msgs/Joy.h</text>
</a>
</g>
</g>
<!-- Node21&#45;&gt;Node24 -->
<g id="edge26" class="edge">
<title>Node21&#45;&gt;Node24</title>
<path fill="none" stroke="midnightblue" d="M3087.13,-173.98C3110.32,-163.9 3149.12,-147.05 3175.71,-135.5"/>
<polygon fill="midnightblue" stroke="midnightblue" points="3177.13,-138.7 3184.91,-131.51 3174.34,-132.28 3177.13,-138.7"/>
</g>
<!-- Node25 -->
<g id="node25" class="node">
<title>Node25</title>
<g id="a_node25"><a xlink:title=" ">
<polygon fill="white" stroke="#bfbfbf" points="3275.5,-112.5 3275.5,-131.5 3419.5,-131.5 3419.5,-112.5 3275.5,-112.5"/>
<text text-anchor="middle" x="3347.5" y="-119.5" font-family="Helvetica,sans-Serif" font-size="10.00">geometry_msgs/Point32.h</text>
</a>
</g>
</g>
<!-- Node21&#45;&gt;Node25 -->
<g id="edge27" class="edge">
<title>Node21&#45;&gt;Node25</title>
<path fill="none" stroke="midnightblue" d="M3107.62,-173.98C3157.62,-163.35 3243.1,-145.18 3297.37,-133.65"/>
<polygon fill="midnightblue" stroke="midnightblue" points="3298.4,-137.01 3307.46,-131.51 3296.95,-130.16 3298.4,-137.01"/>
</g>
<!-- Node26 -->
<g id="node26" class="node">
<title>Node26</title>
<g id="a_node26"><a xlink:title=" ">
<polygon fill="white" stroke="#bfbfbf" points="3438,-112.5 3438,-131.5 3583,-131.5 3583,-112.5 3438,-112.5"/>
<text text-anchor="middle" x="3510.5" y="-119.5" font-family="Helvetica,sans-Serif" font-size="10.00">sensor_msgs/PointCloud.h</text>
</a>
</g>
</g>
<!-- Node21&#45;&gt;Node26 -->
<g id="edge28" class="edge">
<title>Node21&#45;&gt;Node26</title>
<path fill="none" stroke="midnightblue" d="M3130.97,-173.98C3211.9,-163.11 3351.54,-144.35 3437,-132.87"/>
<polygon fill="midnightblue" stroke="midnightblue" points="3437.7,-136.31 3447.15,-131.51 3436.77,-129.37 3437.7,-136.31"/>
</g>
<!-- Node27 -->
<g id="node27" class="node">
<title>Node27</title>
<g id="a_node27"><a xlink:title=" ">
<polygon fill="white" stroke="#bfbfbf" points="3601,-112.5 3601,-131.5 3726,-131.5 3726,-112.5 3601,-112.5"/>
<text text-anchor="middle" x="3663.5" y="-119.5" font-family="Helvetica,sans-Serif" font-size="10.00">nav_msgs/Odometry.h</text>
</a>
</g>
</g>
<!-- Node21&#45;&gt;Node27 -->
<g id="edge29" class="edge">
<title>Node21&#45;&gt;Node27</title>
<path fill="none" stroke="midnightblue" d="M3148.52,-175.47C3249.61,-166.53 3428.01,-150.18 3590.6,-132.19"/>
<polygon fill="midnightblue" stroke="midnightblue" points="3591.24,-135.64 3600.79,-131.05 3590.47,-128.68 3591.24,-135.64"/>
</g>
<!-- Node28 -->
<g id="node28" class="node">
<title>Node28</title>
<g id="a_node28"><a xlink:title=" ">
<polygon fill="white" stroke="#bfbfbf" points="3744.5,-112.5 3744.5,-131.5 3896.5,-131.5 3896.5,-112.5 3744.5,-112.5"/>
<text text-anchor="middle" x="3820.5" y="-119.5" font-family="Helvetica,sans-Serif" font-size="10.00">nav_msgs/OccupancyGrid.h</text>
</a>
</g>
</g>
<!-- Node21&#45;&gt;Node28 -->
<g id="edge30" class="edge">
<title>Node21&#45;&gt;Node28</title>
<path fill="none" stroke="midnightblue" d="M3148.54,-177.16C3272.39,-168.83 3516.44,-151.72 3734.04,-132.11"/>
<polygon fill="midnightblue" stroke="midnightblue" points="3734.41,-135.59 3744.06,-131.2 3733.78,-128.62 3734.41,-135.59"/>
</g>
<!-- Node29 -->
<g id="node29" class="node">
<title>Node29</title>
<g id="a_node29"><a xlink:title=" ">
<polygon fill="white" stroke="#bfbfbf" points="3914.5,-112.5 3914.5,-131.5 4014.5,-131.5 4014.5,-112.5 3914.5,-112.5"/>
<text text-anchor="middle" x="3964.5" y="-119.5" font-family="Helvetica,sans-Serif" font-size="10.00">std_msgs/Int32.h</text>
</a>
</g>
</g>
<!-- Node21&#45;&gt;Node29 -->
<g id="edge31" class="edge">
<title>Node21&#45;&gt;Node29</title>
<path fill="none" stroke="midnightblue" d="M3148.6,-180.07C3296.69,-175.1 3620.96,-161.71 3904.27,-132.03"/>
<polygon fill="midnightblue" stroke="midnightblue" points="3904.75,-135.5 3914.33,-130.97 3904.02,-128.54 3904.75,-135.5"/>
</g>
<!-- Node30 -->
<g id="node30" class="node">
<title>Node30</title>
<g id="a_node30"><a xlink:title=" ">
<polygon fill="white" stroke="#bfbfbf" points="4032.5,-112.5 4032.5,-131.5 4170.5,-131.5 4170.5,-112.5 4032.5,-112.5"/>
<text text-anchor="middle" x="4101.5" y="-119.5" font-family="Helvetica,sans-Serif" font-size="10.00">tf/transform_datatypes.h</text>
</a>
</g>
</g>
<!-- Node21&#45;&gt;Node30 -->
<g id="edge32" class="edge">
<title>Node21&#45;&gt;Node30</title>
<path fill="none" stroke="midnightblue" d="M3148.51,-179.92C3311.73,-174.35 3692.02,-159.5 4021.96,-132.08"/>
<polygon fill="midnightblue" stroke="midnightblue" points="4022.53,-135.54 4032.2,-131.22 4021.94,-128.57 4022.53,-135.54"/>
</g>
<!-- Node31&#45;&gt;Node6 -->
<g id="edge42" class="edge">
<title>Node31&#45;&gt;Node6</title>
<path fill="none" stroke="midnightblue" d="M1730.37,-174.65C1703.26,-172.31 1673.13,-169.87 1645.5,-168 1331.46,-146.71 1249.65,-154.1 931.94,-132.07"/>
<polygon fill="midnightblue" stroke="midnightblue" points="931.73,-128.55 921.51,-131.34 931.24,-135.53 931.73,-128.55"/>
</g>
<!-- Node31&#45;&gt;Node13 -->
<g id="edge40" class="edge">
<title>Node31&#45;&gt;Node13</title>
<path fill="none" stroke="midnightblue" d="M1900.78,-177.56C2000.25,-171 2169.72,-157.39 2323.21,-132.22"/>
<polygon fill="midnightblue" stroke="midnightblue" points="2324,-135.63 2333.29,-130.54 2322.85,-128.73 2324,-135.63"/>
</g>
<!-- Node31&#45;&gt;Node18 -->
<g id="edge41" class="edge">
<title>Node31&#45;&gt;Node18</title>
<path fill="none" stroke="midnightblue" d="M1776.2,-173.98C1742.53,-165.83 1693.33,-151.82 1653.5,-132 1593.22,-102 1531.04,-51.46 1501.74,-26.25"/>
<polygon fill="midnightblue" stroke="midnightblue" points="1503.91,-23.49 1494.06,-19.57 1499.31,-28.77 1503.91,-23.49"/>
</g>
<!-- Node31&#45;&gt;Node22 -->
<g id="edge45" class="edge">
<title>Node31&#45;&gt;Node22</title>
<path fill="none" stroke="midnightblue" d="M1900.55,-181.45C2041.81,-178.71 2333.71,-168.86 2589.55,-131.88"/>
<polygon fill="midnightblue" stroke="midnightblue" points="2590.4,-135.29 2599.78,-130.38 2589.38,-128.36 2590.4,-135.29"/>
</g>
<!-- Node32 -->
<g id="node32" class="node">
<title>Node32</title>
<g id="a_node32"><a xlink:title=" ">
<polygon fill="white" stroke="#bfbfbf" points="1663,-112.5 1663,-131.5 1808,-131.5 1808,-112.5 1663,-112.5"/>
<text text-anchor="middle" x="1735.5" y="-119.5" font-family="Helvetica,sans-Serif" font-size="10.00">TGUI/Widgets/EditBox.hpp</text>
</a>
</g>
</g>
<!-- Node31&#45;&gt;Node32 -->
<g id="edge43" class="edge">
<title>Node31&#45;&gt;Node32</title>
<path fill="none" stroke="midnightblue" d="M1804.04,-173.98C1791.33,-164.52 1770.59,-149.1 1755.25,-137.69"/>
<polygon fill="midnightblue" stroke="midnightblue" points="1757.05,-134.67 1746.94,-131.51 1752.88,-140.29 1757.05,-134.67"/>
</g>
<!-- Node33 -->
<g id="node33" class="node">
<title>Node33</title>
<g id="a_node33"><a xlink:title=" ">
<polygon fill="white" stroke="#bfbfbf" points="1826.5,-112.5 1826.5,-131.5 1966.5,-131.5 1966.5,-112.5 1826.5,-112.5"/>
<text text-anchor="middle" x="1896.5" y="-119.5" font-family="Helvetica,sans-Serif" font-size="10.00">TGUI/Widgets/Button.hpp</text>
</a>
</g>
</g>
<!-- Node31&#45;&gt;Node33 -->
<g id="edge44" class="edge">
<title>Node31&#45;&gt;Node33</title>
<path fill="none" stroke="midnightblue" d="M1827.11,-173.98C1839.98,-164.52 1860.97,-149.1 1876.51,-137.69"/>
<polygon fill="midnightblue" stroke="midnightblue" points="1878.93,-140.25 1884.92,-131.51 1874.78,-134.61 1878.93,-140.25"/>
</g>
<!-- Node34 -->
<g id="node34" class="node">
<title>Node34</title>
<g id="a_node34"><a xlink:title=" ">
<polygon fill="white" stroke="#bfbfbf" points="1458.5,-112.5 1458.5,-131.5 1502.5,-131.5 1502.5,-112.5 1458.5,-112.5"/>
<text text-anchor="middle" x="1480.5" y="-119.5" font-family="Helvetica,sans-Serif" font-size="10.00">regex</text>
</a>
</g>
</g>
<!-- Node31&#45;&gt;Node34 -->
<g id="edge46" class="edge">
<title>Node31&#45;&gt;Node34</title>
<path fill="none" stroke="midnightblue" d="M1750.72,-174C1691.12,-165.66 1600.14,-151.65 1512.6,-132.04"/>
<polygon fill="midnightblue" stroke="midnightblue" points="1513.3,-128.61 1502.77,-129.81 1511.75,-135.43 1513.3,-128.61"/>
</g>
<!-- Node35 -->
<g id="node35" class="node">
<title>Node35</title>
<g id="a_node35"><a xlink:title=" ">
<polygon fill="white" stroke="#bfbfbf" points="1985,-112.5 1985,-131.5 2034,-131.5 2034,-112.5 1985,-112.5"/>
<text text-anchor="middle" x="2009.5" y="-119.5" font-family="Helvetica,sans-Serif" font-size="10.00">cctype</text>
</a>
</g>
</g>
<!-- Node31&#45;&gt;Node35 -->
<g id="edge47" class="edge">
<title>Node31&#45;&gt;Node35</title>
<path fill="none" stroke="midnightblue" d="M1843.3,-173.98C1877.96,-163.34 1937.24,-145.16 1974.84,-133.63"/>
<polygon fill="midnightblue" stroke="midnightblue" points="1976.29,-136.85 1984.83,-130.57 1974.24,-130.15 1976.29,-136.85"/>
</g>
<!-- Node31&#45;&gt;Node36 -->
<g id="edge48" class="edge">
<title>Node31&#45;&gt;Node36</title>
<path fill="none" stroke="midnightblue" d="M1861.35,-173.98C1918.97,-163.26 2017.81,-144.88 2079.75,-133.37"/>
<polygon fill="midnightblue" stroke="midnightblue" points="2080.55,-136.78 2089.74,-131.51 2079.27,-129.9 2080.55,-136.78"/>
</g>
<!-- Node36&#45;&gt;Node17 -->
<g id="edge51" class="edge">
<title>Node36&#45;&gt;Node17</title>
<path fill="none" stroke="midnightblue" d="M2141.61,-112.08C2146.78,-104.53 2154.35,-93.49 2160.69,-84.23"/>
<polygon fill="midnightblue" stroke="midnightblue" points="2163.74,-85.98 2166.5,-75.75 2157.96,-82.02 2163.74,-85.98"/>
</g>
<!-- Node36&#45;&gt;Node18 -->
<g id="edge49" class="edge">
<title>Node36&#45;&gt;Node18</title>
<path fill="none" stroke="midnightblue" d="M2084.96,-112.46C1966.72,-92.48 1672.48,-42.76 1544.99,-21.22"/>
<polygon fill="midnightblue" stroke="midnightblue" points="1545.45,-17.75 1535.01,-19.53 1544.29,-24.65 1545.45,-17.75"/>
</g>
<!-- Node37 -->
<g id="node37" class="node">
<title>Node37</title>
<g id="a_node37"><a xlink:href="MyConstants_8hpp.html" target="_top" xlink:title=" ">
<polygon fill="white" stroke="black" points="2030,-56.5 2030,-75.5 2131,-75.5 2131,-56.5 2030,-56.5"/>
<text text-anchor="middle" x="2080.5" y="-63.5" font-family="Helvetica,sans-Serif" font-size="10.00">MyConstants.hpp</text>
</a>
</g>
</g>
<!-- Node36&#45;&gt;Node37 -->
<g id="edge50" class="edge">
<title>Node36&#45;&gt;Node37</title>
<path fill="none" stroke="midnightblue" d="M2126.42,-112.08C2118.33,-104.14 2106.3,-92.34 2096.59,-82.8"/>
<polygon fill="midnightblue" stroke="midnightblue" points="2099,-80.26 2089.41,-75.75 2094.1,-85.25 2099,-80.26"/>
</g>
<!-- Node38&#45;&gt;Node16 -->
<g id="edge54" class="edge">
<title>Node38&#45;&gt;Node16</title>
<path fill="none" stroke="midnightblue" d="M1364.11,-116.7C1390.98,-115.16 1421.61,-113.45 1449.5,-112 1785.42,-94.49 1870.39,-105.17 2205.5,-76 2217.75,-74.93 2231.15,-73.35 2242.97,-71.8"/>
<polygon fill="midnightblue" stroke="midnightblue" points="2243.44,-75.27 2252.88,-70.47 2242.51,-68.33 2243.44,-75.27"/>
</g>
<!-- Node38&#45;&gt;Node18 -->
<g id="edge56" class="edge">
<title>Node38&#45;&gt;Node18</title>
<path fill="none" stroke="midnightblue" d="M1291.33,-112.45C1293.15,-98.53 1298.77,-71.03 1315.5,-56 1343.77,-30.61 1384.78,-19.29 1419.33,-14.35"/>
<polygon fill="midnightblue" stroke="midnightblue" points="1419.88,-17.81 1429.35,-13.07 1418.99,-10.86 1419.88,-17.81"/>
</g>
<!-- Node38&#45;&gt;Node19 -->
<g id="edge57" class="edge">
<title>Node38&#45;&gt;Node19</title>
<path fill="none" stroke="midnightblue" d="M1364.11,-116.61C1390.98,-115.06 1421.61,-113.37 1449.5,-112 1828.24,-93.36 1926.08,-101.36 2308.09,-76.06"/>
<polygon fill="midnightblue" stroke="midnightblue" points="2308.57,-79.54 2318.32,-75.38 2308.11,-72.55 2308.57,-79.54"/>
</g>
<!-- Node39 -->
<g id="node39" class="node">
<title>Node39</title>
<g id="a_node39"><a xlink:title=" ">
<polygon fill="white" stroke="#bfbfbf" points="1217,-56.5 1217,-75.5 1268,-75.5 1268,-56.5 1217,-56.5"/>
<text text-anchor="middle" x="1242.5" y="-63.5" font-family="Helvetica,sans-Serif" font-size="10.00">math.h</text>
</a>
</g>
</g>
<!-- Node38&#45;&gt;Node39 -->
<g id="edge55" class="edge">
<title>Node38&#45;&gt;Node39</title>
<path fill="none" stroke="midnightblue" d="M1282.57,-112.08C1275.65,-104.3 1265.43,-92.8 1257.05,-83.37"/>
<polygon fill="midnightblue" stroke="midnightblue" points="1259.54,-80.9 1250.28,-75.75 1254.31,-85.55 1259.54,-80.9"/>
</g>
<!-- Node40&#45;&gt;Node6 -->
<g id="edge60" class="edge">
<title>Node40&#45;&gt;Node6</title>
<path fill="none" stroke="midnightblue" d="M1212.99,-172.47C1127.61,-161.43 991.21,-143.79 906.46,-132.82"/>
<polygon fill="midnightblue" stroke="midnightblue" points="906.75,-129.33 896.38,-131.52 905.85,-136.28 906.75,-129.33"/>
</g>
<!-- Node40&#45;&gt;Node13 -->
<g id="edge63" class="edge">
<title>Node40&#45;&gt;Node13</title>
<path fill="none" stroke="midnightblue" d="M1368.34,-176.49C1406.63,-173.67 1453.47,-170.4 1495.5,-168 1860.81,-147.16 1958.02,-182.13 2323.26,-132.08"/>
<polygon fill="midnightblue" stroke="midnightblue" points="2323.89,-135.53 2333.31,-130.69 2322.93,-128.6 2323.89,-135.53"/>
</g>
<!-- Node40&#45;&gt;Node15 -->
<g id="edge65" class="edge">
<title>Node40&#45;&gt;Node15</title>
<path fill="none" stroke="midnightblue" d="M1368.35,-176.6C1406.64,-173.8 1453.47,-170.52 1495.5,-168 1817.75,-148.69 1902.83,-169.7 2226.61,-132.07"/>
<polygon fill="midnightblue" stroke="midnightblue" points="2227.23,-135.52 2236.75,-130.88 2226.41,-128.57 2227.23,-135.52"/>
</g>
<!-- Node40&#45;&gt;Node18 -->
<g id="edge59" class="edge">
<title>Node40&#45;&gt;Node18</title>
<path fill="none" stroke="midnightblue" d="M1250.48,-168.38C1234.11,-160.4 1216.84,-148.62 1207.5,-132 1190.95,-102.56 1185.61,-81.73 1207.5,-56 1234.14,-24.68 1346.1,-15.1 1419.26,-12.2"/>
<polygon fill="midnightblue" stroke="midnightblue" points="1419.45,-15.7 1429.32,-11.84 1419.2,-8.7 1419.45,-15.7"/>
</g>
<!-- Node40&#45;&gt;Node34 -->
<g id="edge64" class="edge">
<title>Node40&#45;&gt;Node34</title>
<path fill="none" stroke="midnightblue" d="M1335.53,-168.4C1370.33,-157.5 1417.64,-142.68 1448.61,-132.99"/>
<polygon fill="midnightblue" stroke="midnightblue" points="1449.95,-136.23 1458.45,-129.91 1447.86,-129.55 1449.95,-136.23"/>
</g>
<!-- Node40&#45;&gt;Node38 -->
<g id="edge66" class="edge">
<title>Node40&#45;&gt;Node38</title>
<path fill="none" stroke="midnightblue" d="M1290.5,-168.4C1290.5,-160.47 1290.5,-150.46 1290.5,-141.86"/>
<polygon fill="midnightblue" stroke="midnightblue" points="1294,-141.66 1290.5,-131.66 1287,-141.66 1294,-141.66"/>
</g>
<!-- Node41 -->
<g id="node41" class="node">
<title>Node41</title>
<g id="a_node41"><a xlink:title=" ">
<polygon fill="white" stroke="#bfbfbf" points="1043,-112.5 1043,-131.5 1160,-131.5 1160,-112.5 1043,-112.5"/>
<text text-anchor="middle" x="1101.5" y="-119.5" font-family="Helvetica,sans-Serif" font-size="10.00">TGUI/AllWidgets.hpp</text>
</a>
</g>
</g>
<!-- Node40&#45;&gt;Node41 -->
<g id="edge61" class="edge">
<title>Node40&#45;&gt;Node41</title>
<path fill="none" stroke="midnightblue" d="M1245.71,-168.4C1213.05,-158.12 1169.32,-144.35 1138.61,-134.68"/>
<polygon fill="midnightblue" stroke="midnightblue" points="1139.31,-131.24 1128.73,-131.57 1137.21,-137.91 1139.31,-131.24"/>
</g>
<!-- Node42 -->
<g id="node42" class="node">
<title>Node42</title>
<g id="a_node42"><a xlink:title=" ">
<polygon fill="white" stroke="#bfbfbf" points="940,-112.5 940,-131.5 1025,-131.5 1025,-112.5 940,-112.5"/>
<text text-anchor="middle" x="982.5" y="-119.5" font-family="Helvetica,sans-Serif" font-size="10.00">ros/package.h</text>
</a>
</g>
</g>
<!-- Node40&#45;&gt;Node42 -->
<g id="edge62" class="edge">
<title>Node40&#45;&gt;Node42</title>
<path fill="none" stroke="midnightblue" d="M1217.9,-168.47C1161.83,-157.64 1085.55,-142.91 1035.22,-133.18"/>
<polygon fill="midnightblue" stroke="midnightblue" points="1035.68,-129.71 1025.2,-131.25 1034.35,-136.58 1035.68,-129.71"/>
</g>
<!-- Node43&#45;&gt;Node15 -->
<g id="edge71" class="edge">
<title>Node43&#45;&gt;Node15</title>
<path fill="none" stroke="midnightblue" d="M1636.62,-175.79C1663.01,-173.21 1693.68,-170.32 1721.5,-168 1943.32,-149.48 2002.72,-160.53 2226.65,-132.11"/>
<polygon fill="midnightblue" stroke="midnightblue" points="2227.27,-135.56 2236.74,-130.82 2226.38,-128.62 2227.27,-135.56"/>
</g>
<!-- Node43&#45;&gt;Node17 -->
<g id="edge68" class="edge">
<title>Node43&#45;&gt;Node17</title>
<path fill="none" stroke="midnightblue" d="M1577.37,-173.82C1590.33,-158.2 1620.09,-125.7 1653.5,-112 1750.96,-72.05 2017.64,-93.1 2138.95,-75.61"/>
<polygon fill="midnightblue" stroke="midnightblue" points="2139.5,-79.07 2148.83,-74.04 2138.4,-72.15 2139.5,-79.07"/>
</g>
<!-- Node43&#45;&gt;Node18 -->
<g id="edge70" class="edge">
<title>Node43&#45;&gt;Node18</title>
<path fill="none" stroke="midnightblue" d="M1516.53,-173.96C1491.72,-167.04 1464.52,-154.54 1449.5,-132 1444.57,-124.6 1447.76,-120.72 1449.5,-112 1452.9,-95 1458.61,-92.3 1464.5,-76 1470.08,-60.56 1475.5,-42.71 1479.28,-29.63"/>
<polygon fill="midnightblue" stroke="midnightblue" points="1482.68,-30.5 1482.05,-19.92 1475.95,-28.58 1482.68,-30.5"/>
</g>
<!-- Node44 -->
<g id="node44" class="node">
<title>Node44</title>
<g id="a_node44"><a xlink:title=" ">
<polygon fill="white" stroke="#bfbfbf" points="1521,-112.5 1521,-131.5 1568,-131.5 1568,-112.5 1521,-112.5"/>
<text text-anchor="middle" x="1544.5" y="-119.5" font-family="Helvetica,sans-Serif" font-size="10.00">queue</text>
</a>
</g>
</g>
<!-- Node43&#45;&gt;Node44 -->
<g id="edge69" class="edge">
<title>Node43&#45;&gt;Node44</title>
<path fill="none" stroke="midnightblue" d="M1566.77,-173.98C1563.03,-165.4 1557.14,-151.93 1552.36,-140.98"/>
<polygon fill="midnightblue" stroke="midnightblue" points="1555.43,-139.27 1548.22,-131.51 1549.02,-142.07 1555.43,-139.27"/>
</g>
<!-- Node45 -->
<g id="node45" class="node">
<title>Node45</title>
<g id="a_node45"><a xlink:href="Node_8hpp.html" target="_top" xlink:title=" ">
<polygon fill="white" stroke="black" points="1325,-56.5 1325,-75.5 1456,-75.5 1456,-56.5 1325,-56.5"/>
<text text-anchor="middle" x="1390.5" y="-63.5" font-family="Helvetica,sans-Serif" font-size="10.00">artgslam_vsc/Node.hpp</text>
</a>
</g>
</g>
<!-- Node43&#45;&gt;Node45 -->
<g id="edge72" class="edge">
<title>Node43&#45;&gt;Node45</title>
<path fill="none" stroke="midnightblue" d="M1504.83,-173.93C1474.74,-167.01 1440.51,-154.53 1416.5,-132 1403.5,-119.81 1396.87,-100.26 1393.57,-85.78"/>
<polygon fill="midnightblue" stroke="midnightblue" points="1396.99,-85.05 1391.64,-75.9 1390.12,-86.39 1396.99,-85.05"/>
</g>
<!-- Node45&#45;&gt;Node18 -->
<g id="edge73" class="edge">
<title>Node45&#45;&gt;Node18</title>
<path fill="none" stroke="midnightblue" d="M1405.6,-56.32C1420.4,-47.82 1443.19,-34.73 1460.48,-24.8"/>
<polygon fill="midnightblue" stroke="midnightblue" points="1462.51,-27.67 1469.43,-19.65 1459.02,-21.6 1462.51,-27.67"/>
</g>
</g>
</svg>
        <g id="navigator" transform="translate(0 0)" fill="#404254">
                <rect fill="#f2f5e9" fill-opacity="0.5" stroke="#606060" stroke-width=".5" x="0" y="0" width="60" height="60"/>
                <use id="zoomplus" xlink:href="#zoomPlus" x="17" y="9" onmousedown="handleZoom(evt,'in')"/>
                <use id="zoomminus" xlink:href="#zoomMin" x="42" y="9" onmousedown="handleZoom(evt,'out')"/>
                <use id="reset" xlink:href="#resetDef" x="30" y="36" onmousedown="handleReset()"/>
                <g id="arrowUp" xlink:href="#dirArrow" transform="translate(30 24)" onmousedown="handlePan(0,-1)">
                  <use xlink:href="#rim" fill="#404040">
                        <set attributeName="fill" to="#808080" begin="arrowUp.mouseover" end="arrowUp.mouseout"/>
                  </use>
                  <path fill="none" stroke="white" stroke-width="1.5" d="M0,-3.0v7 M-2.5,-0.5L0,-3.0L2.5,-0.5"/>
                </g>
                <g id="arrowRight" xlink:href="#dirArrow" transform="rotate(90) translate(36 -43)" onmousedown="handlePan(1,0)">
                  <use xlink:href="#rim" fill="#404040">
                        <set attributeName="fill" to="#808080" begin="arrowRight.mouseover" end="arrowRight.mouseout"/>
                  </use>
                  <path fill="none" stroke="white" stroke-width="1.5" d="M0,-3.0v7 M-2.5,-0.5L0,-3.0L2.5,-0.5"/>
                </g>
                <g id="arrowDown" xlink:href="#dirArrow" transform="rotate(180) translate(-30 -48)" onmousedown="handlePan(0,1)">
                  <use xlink:href="#rim" fill="#404040">
                        <set attributeName="fill" to="#808080" begin="arrowDown.mouseover" end="arrowDown.mouseout"/>
                  </use>
                  <path fill="none" stroke="white" stroke-width="1.5" d="M0,-3.0v7 M-2.5,-0.5L0,-3.0L2.5,-0.5"/>
                </g>
                <g id="arrowLeft" xlink:href="#dirArrow" transform="rotate(270) translate(-36 17)" onmousedown="handlePan(-1,0)">
                  <use xlink:href="#rim" fill="#404040">
                        <set attributeName="fill" to="#808080" begin="arrowLeft.mouseover" end="arrowLeft.mouseout"/>
                  </use>
                  <path fill="none" stroke="white" stroke-width="1.5" d="M0,-3.0v7 M-2.5,-0.5L0,-3.0L2.5,-0.5"/>
                </g>
        </g>
        <svg viewBox="0 0 15 15" width="100%" height="30px" preserveAspectRatio="xMaxYMin meet">
         <g id="arrow_out" transform="scale(0.3 0.3)">
          <a xlink:href="MapViewer_8hpp__incl_org.svg" target="_base">
           <rect id="button" ry="5" rx="5" y="6" x="6" height="38" width="38"
                fill="#f2f5e9" fill-opacity="0.5" stroke="#606060" stroke-width="1.0"/>
           <path id="arrow"
             d="M 11.500037,31.436501 C 11.940474,20.09759 22.043105,11.32322 32.158766,21.979434 L 37.068811,17.246167 C 37.068811,17.246167 37.088388,32 37.088388,32 L 22.160133,31.978069 C 22.160133,31.978069 26.997745,27.140456 26.997745,27.140456 C 18.528582,18.264221 13.291696,25.230495 11.500037,31.436501 z"
             style="fill:#404040;"/>
          </a>
         </g>
        </svg>
</svg>
