<?xml version="1.0" encoding="UTF-8" standalone="no"?>
<!DOCTYPE svg PUBLIC "-//W3C//DTD SVG 1.1//EN"
 "http://www.w3.org/Graphics/SVG/1.1/DTD/svg11.dtd">
<!-- Generated by graphviz version 2.43.0 (0)
 -->
<!-- Title: src/MapViewer.cpp Pages: 1 -->
<svg width="4196pt" height="319pt"
 viewBox="0.00 0.00 4195.65 319.00" xmlns="http://www.w3.org/2000/svg" xmlns:xlink="http://www.w3.org/1999/xlink">
<g id="graph0" class="graph" transform="scale(1 1) rotate(0) translate(4 315)">
<title>src/MapViewer.cpp</title>
<polygon fill="white" stroke="transparent" points="-4,4 -4,-315 4191.65,-315 4191.65,4 -4,4"/>
<!-- Node1 -->
<g id="node1" class="node">
<title>Node1</title>
<g id="a_node1"><a xlink:title=" ">
<polygon fill="#bfbfbf" stroke="black" points="412.15,-291.5 412.15,-310.5 521.15,-310.5 521.15,-291.5 412.15,-291.5"/>
<text text-anchor="middle" x="466.65" y="-298.5" font-family="Helvetica,sans-Serif" font-size="10.00">src/MapViewer.cpp</text>
</a>
</g>
</g>
<!-- Node2 -->
<g id="node2" class="node">
<title>Node2</title>
<g id="a_node2"><a xlink:href="MapViewer_8hpp.html" target="_top" xlink:title=" ">
<polygon fill="white" stroke="black" points="710.15,-235.5 710.15,-254.5 871.15,-254.5 871.15,-235.5 710.15,-235.5"/>
<text text-anchor="middle" x="790.65" y="-242.5" font-family="Helvetica,sans-Serif" font-size="10.00">artgslam_vsc/MapViewer.hpp</text>
</a>
</g>
</g>
<!-- Node1&#45;&gt;Node2 -->
<g id="edge1" class="edge">
<title>Node1&#45;&gt;Node2</title>
<path fill="none" stroke="midnightblue" d="M517.98,-291.44C575.45,-281.87 668.51,-266.36 729.65,-256.17"/>
<polygon fill="midnightblue" stroke="midnightblue" points="730.26,-259.61 739.55,-254.52 729.11,-252.71 730.26,-259.61"/>
</g>
<!-- Node12 -->
<g id="node12" class="node">
<title>Node12</title>
<g id="a_node12"><a xlink:title=" ">
<polygon fill="white" stroke="#bfbfbf" points="18.65,-112.5 18.65,-131.5 74.65,-131.5 74.65,-112.5 18.65,-112.5"/>
<text text-anchor="middle" x="46.65" y="-119.5" font-family="Helvetica,sans-Serif" font-size="10.00">sstream</text>
</a>
</g>
</g>
<!-- Node1&#45;&gt;Node12 -->
<g id="edge77" class="edge">
<title>Node1&#45;&gt;Node12</title>
<path fill="none" stroke="midnightblue" d="M440.88,-291.36C415.28,-282.64 374.99,-268.57 340.65,-255 240.43,-215.4 124.61,-160.68 73.38,-136"/>
<polygon fill="midnightblue" stroke="midnightblue" points="74.83,-132.81 64.3,-131.61 71.78,-139.11 74.83,-132.81"/>
</g>
<!-- Node15 -->
<g id="node15" class="node">
<title>Node15</title>
<g id="a_node15"><a xlink:title=" ">
<polygon fill="white" stroke="#bfbfbf" points="92.65,-112.5 92.65,-131.5 148.65,-131.5 148.65,-112.5 92.65,-112.5"/>
<text text-anchor="middle" x="120.65" y="-119.5" font-family="Helvetica,sans-Serif" font-size="10.00">iomanip</text>
</a>
</g>
</g>
<!-- Node1&#45;&gt;Node15 -->
<g id="edge78" class="edge">
<title>Node1&#45;&gt;Node15</title>
<path fill="none" stroke="midnightblue" d="M449.96,-291.46C394.25,-262.96 214.38,-170.95 146.71,-136.34"/>
<polygon fill="midnightblue" stroke="midnightblue" points="148.07,-133.1 137.57,-131.66 144.88,-139.33 148.07,-133.1"/>
</g>
<!-- Node47 -->
<g id="node47" class="node">
<title>Node47</title>
<g id="a_node47"><a xlink:title=" ">
<polygon fill="white" stroke="#bfbfbf" points="889.65,-235.5 889.65,-254.5 953.65,-254.5 953.65,-235.5 889.65,-235.5"/>
<text text-anchor="middle" x="921.65" y="-242.5" font-family="Helvetica,sans-Serif" font-size="10.00">algorithm</text>
</a>
</g>
</g>
<!-- Node1&#45;&gt;Node47 -->
<g id="edge79" class="edge">
<title>Node1&#45;&gt;Node47</title>
<path fill="none" stroke="midnightblue" d="M521.15,-295.96C598.62,-289.8 745.19,-276.62 879.43,-255.04"/>
<polygon fill="midnightblue" stroke="midnightblue" points="880.17,-258.46 889.48,-253.4 879.05,-251.56 880.17,-258.46"/>
</g>
<!-- Node3 -->
<g id="node3" class="node">
<title>Node3</title>
<g id="a_node3"><a xlink:href="MenuBar_8hpp.html" target="_top" xlink:title=" ">
<polygon fill="white" stroke="black" points="3664.15,-174 3664.15,-193 3813.15,-193 3813.15,-174 3664.15,-174"/>
<text text-anchor="middle" x="3738.65" y="-181" font-family="Helvetica,sans-Serif" font-size="10.00">artgslam_vsc/MenuBar.hpp</text>
</a>
</g>
</g>
<!-- Node2&#45;&gt;Node3 -->
<g id="edge2" class="edge">
<title>Node2&#45;&gt;Node3</title>
<path fill="none" stroke="midnightblue" d="M871.57,-235.58C874.64,-235.37 877.67,-235.17 880.65,-235 1919.49,-175.18 2181.32,-221.59 3221.65,-199 3373.75,-195.7 3550.98,-190.42 3653.45,-187.22"/>
<polygon fill="midnightblue" stroke="midnightblue" points="3653.85,-190.71 3663.74,-186.9 3653.63,-183.71 3653.85,-190.71"/>
</g>
<!-- Node7 -->
<g id="node7" class="node">
<title>Node7</title>
<g id="a_node7"><a xlink:title=" ">
<polygon fill="white" stroke="#bfbfbf" points="2691.65,-112.5 2691.65,-131.5 2873.65,-131.5 2873.65,-112.5 2691.65,-112.5"/>
<text text-anchor="middle" x="2782.65" y="-119.5" font-family="Helvetica,sans-Serif" font-size="10.00">TGUI/Backend/SFML&#45;Graphics.hpp</text>
</a>
</g>
</g>
<!-- Node2&#45;&gt;Node7 -->
<g id="edge76" class="edge">
<title>Node2&#45;&gt;Node7</title>
<path fill="none" stroke="midnightblue" d="M871.58,-235.67C874.64,-235.43 877.67,-235.21 880.65,-235 1290.64,-206.54 1394.35,-222.64 1804.65,-199 2192.02,-176.68 2290.95,-164.64 2681.47,-132.09"/>
<polygon fill="midnightblue" stroke="midnightblue" points="2681.96,-135.56 2691.63,-131.24 2681.38,-128.59 2681.96,-135.56"/>
</g>
<!-- Node10 -->
<g id="node10" class="node">
<title>Node10</title>
<g id="a_node10"><a xlink:href="FileManager_8hpp.html" target="_top" xlink:title=" ">
<polygon fill="white" stroke="black" points="378.15,-174 378.15,-193 543.15,-193 543.15,-174 378.15,-174"/>
<text text-anchor="middle" x="460.65" y="-181" font-family="Helvetica,sans-Serif" font-size="10.00">artgslam_vsc/FileManager.hpp</text>
</a>
</g>
</g>
<!-- Node2&#45;&gt;Node10 -->
<g id="edge9" class="edge">
<title>Node2&#45;&gt;Node10</title>
<path fill="none" stroke="midnightblue" d="M743.37,-235.48C683.82,-224.74 581.59,-206.31 517.74,-194.79"/>
<polygon fill="midnightblue" stroke="midnightblue" points="518.3,-191.34 507.84,-193.01 517.06,-198.23 518.3,-191.34"/>
</g>
<!-- Node16 -->
<g id="node16" class="node">
<title>Node16</title>
<g id="a_node16"><a xlink:href="GridMap_8hpp.html" target="_top" xlink:title=" ">
<polygon fill="white" stroke="black" points="798.15,-112.5 798.15,-131.5 877.15,-131.5 877.15,-112.5 798.15,-112.5"/>
<text text-anchor="middle" x="837.65" y="-119.5" font-family="Helvetica,sans-Serif" font-size="10.00">GridMap.hpp</text>
</a>
</g>
</g>
<!-- Node2&#45;&gt;Node16 -->
<g id="edge23" class="edge">
<title>Node2&#45;&gt;Node16</title>
<path fill="none" stroke="midnightblue" d="M799.38,-235.18C807.28,-226.66 818.58,-213.02 824.65,-199 832.6,-180.61 835.7,-157.75 836.9,-141.92"/>
<polygon fill="midnightblue" stroke="midnightblue" points="840.4,-142 837.48,-131.81 833.41,-141.6 840.4,-142"/>
</g>
<!-- Node19 -->
<g id="node19" class="node">
<title>Node19</title>
<g id="a_node19"><a xlink:title=" ">
<polygon fill="white" stroke="#bfbfbf" points="738.65,-0.5 738.65,-19.5 848.65,-19.5 848.65,-0.5 738.65,-0.5"/>
<text text-anchor="middle" x="793.65" y="-7.5" font-family="Helvetica,sans-Serif" font-size="10.00">SFML/Graphics.hpp</text>
</a>
</g>
</g>
<!-- Node2&#45;&gt;Node19 -->
<g id="edge75" class="edge">
<title>Node2&#45;&gt;Node19</title>
<path fill="none" stroke="midnightblue" d="M709.9,-243.58C492.99,-240.97 -80.09,-223.58 9.65,-112 54.57,-56.14 548.43,-24.18 728.47,-14.32"/>
<polygon fill="midnightblue" stroke="midnightblue" points="728.8,-17.81 738.59,-13.77 728.42,-10.82 728.8,-17.81"/>
</g>
<!-- Node20 -->
<g id="node20" class="node">
<title>Node20</title>
<g id="a_node20"><a xlink:href="ViewController_8hpp.html" target="_top" xlink:title=" ">
<polygon fill="white" stroke="black" points="381.65,-56.5 381.65,-75.5 559.65,-75.5 559.65,-56.5 381.65,-56.5"/>
<text text-anchor="middle" x="470.65" y="-63.5" font-family="Helvetica,sans-Serif" font-size="10.00">artgslam_vsc/ViewController.hpp</text>
</a>
</g>
</g>
<!-- Node2&#45;&gt;Node20 -->
<g id="edge39" class="edge">
<title>Node2&#45;&gt;Node20</title>
<path fill="none" stroke="midnightblue" d="M756.98,-235.45C728.31,-227.61 686.38,-214.85 651.65,-199 599.22,-175.08 586.67,-166.68 540.65,-132 520.49,-116.82 499.57,-96.72 485.91,-82.92"/>
<polygon fill="midnightblue" stroke="midnightblue" points="488.26,-80.31 478.77,-75.6 483.25,-85.2 488.26,-80.31"/>
</g>
<!-- Node22 -->
<g id="node22" class="node">
<title>Node22</title>
<g id="a_node22"><a xlink:href="RosHandler_8hpp.html" target="_top" xlink:title=" ">
<polygon fill="white" stroke="black" points="1633.65,-174 1633.65,-193 1795.65,-193 1795.65,-174 1633.65,-174"/>
<text text-anchor="middle" x="1714.65" y="-181" font-family="Helvetica,sans-Serif" font-size="10.00">artgslam_vsc/RosHandler.hpp</text>
</a>
</g>
</g>
<!-- Node2&#45;&gt;Node22 -->
<g id="edge24" class="edge">
<title>Node2&#45;&gt;Node22</title>
<path fill="none" stroke="midnightblue" d="M871.59,-235.75C874.64,-235.49 877.67,-235.24 880.65,-235 1150.26,-213.36 1469.58,-196.45 1623.16,-188.86"/>
<polygon fill="midnightblue" stroke="midnightblue" points="1623.66,-192.34 1633.48,-188.36 1623.32,-185.35 1623.66,-192.34"/>
</g>
<!-- Node32 -->
<g id="node32" class="node">
<title>Node32</title>
<g id="a_node32"><a xlink:href="RobotCreator_8hpp.html" target="_top" xlink:title=" ">
<polygon fill="white" stroke="black" points="2813.65,-174 2813.65,-193 2983.65,-193 2983.65,-174 2813.65,-174"/>
<text text-anchor="middle" x="2898.65" y="-181" font-family="Helvetica,sans-Serif" font-size="10.00">artgslam_vsc/RobotCreator.hpp</text>
</a>
</g>
</g>
<!-- Node2&#45;&gt;Node32 -->
<g id="edge40" class="edge">
<title>Node2&#45;&gt;Node32</title>
<path fill="none" stroke="midnightblue" d="M871.58,-235.62C874.64,-235.39 877.67,-235.19 880.65,-235 883.68,-234.81 2403.58,-196.86 2803.28,-186.88"/>
<polygon fill="midnightblue" stroke="midnightblue" points="2803.46,-190.38 2813.37,-186.63 2803.28,-183.38 2803.46,-190.38"/>
</g>
<!-- Node37 -->
<g id="node37" class="node">
<title>Node37</title>
<g id="a_node37"><a xlink:href="UnicicleWmr_8hpp.html" target="_top" xlink:title=" ">
<polygon fill="white" stroke="black" points="3318.65,-112.5 3318.65,-131.5 3486.65,-131.5 3486.65,-112.5 3318.65,-112.5"/>
<text text-anchor="middle" x="3402.65" y="-119.5" font-family="Helvetica,sans-Serif" font-size="10.00">artgslam_vsc/UnicicleWmr.hpp</text>
</a>
</g>
</g>
<!-- Node2&#45;&gt;Node37 -->
<g id="edge53" class="edge">
<title>Node2&#45;&gt;Node37</title>
<path fill="none" stroke="midnightblue" d="M871.57,-235.59C874.64,-235.37 877.67,-235.17 880.65,-235 1349.25,-207.62 2525.6,-245.94 2992.65,-199 3126.62,-185.54 3282.35,-151.52 3357.5,-133.92"/>
<polygon fill="midnightblue" stroke="midnightblue" points="3358.63,-137.25 3367.56,-131.55 3357.02,-130.44 3358.63,-137.25"/>
</g>
<!-- Node39 -->
<g id="node39" class="node">
<title>Node39</title>
<g id="a_node39"><a xlink:href="LiveMap_8hpp.html" target="_top" xlink:title=" ">
<polygon fill="white" stroke="black" points="280.15,-112.5 280.15,-131.5 427.15,-131.5 427.15,-112.5 280.15,-112.5"/>
<text text-anchor="middle" x="353.65" y="-119.5" font-family="Helvetica,sans-Serif" font-size="10.00">artgslam_vsc/LiveMap.hpp</text>
</a>
</g>
</g>
<!-- Node2&#45;&gt;Node39 -->
<g id="edge54" class="edge">
<title>Node2&#45;&gt;Node39</title>
<path fill="none" stroke="midnightblue" d="M709.77,-240.42C594.56,-234.56 394.32,-221.3 369.65,-199 353.89,-184.76 351.47,-159.28 351.93,-141.77"/>
<polygon fill="midnightblue" stroke="midnightblue" points="355.44,-141.81 352.54,-131.62 348.45,-141.39 355.44,-141.81"/>
</g>
<!-- Node41 -->
<g id="node41" class="node">
<title>Node41</title>
<g id="a_node41"><a xlink:href="RightClickMapMenu_8hpp.html" target="_top" xlink:title=" ">
<polygon fill="white" stroke="black" points="660.15,-168.5 660.15,-198.5 815.15,-198.5 815.15,-168.5 660.15,-168.5"/>
<text text-anchor="start" x="668.15" y="-186.5" font-family="Helvetica,sans-Serif" font-size="10.00">artgslam_vsc/RightClickMap</text>
<text text-anchor="middle" x="737.65" y="-175.5" font-family="Helvetica,sans-Serif" font-size="10.00">Menu.hpp</text>
</a>
</g>
</g>
<!-- Node2&#45;&gt;Node41 -->
<g id="edge59" class="edge">
<title>Node2&#45;&gt;Node41</title>
<path fill="none" stroke="midnightblue" d="M783.05,-235.48C776.28,-227.87 766.06,-216.4 757.03,-206.26"/>
<polygon fill="midnightblue" stroke="midnightblue" points="759.4,-203.66 750.14,-198.52 754.18,-208.32 759.4,-203.66"/>
</g>
<!-- Node44 -->
<g id="node44" class="node">
<title>Node44</title>
<g id="a_node44"><a xlink:href="AStar_8hpp.html" target="_top" xlink:title=" ">
<polygon fill="white" stroke="black" points="919.65,-174 919.65,-193 1051.65,-193 1051.65,-174 919.65,-174"/>
<text text-anchor="middle" x="985.65" y="-181" font-family="Helvetica,sans-Serif" font-size="10.00">artgslam_vsc/AStar.hpp</text>
</a>
</g>
</g>
<!-- Node2&#45;&gt;Node44 -->
<g id="edge68" class="edge">
<title>Node2&#45;&gt;Node44</title>
<path fill="none" stroke="midnightblue" d="M818.58,-235.48C852.61,-225.09 910.23,-207.51 948.11,-195.95"/>
<polygon fill="midnightblue" stroke="midnightblue" points="949.22,-199.28 957.76,-193.01 947.17,-192.58 949.22,-199.28"/>
</g>
<!-- Node4 -->
<g id="node4" class="node">
<title>Node4</title>
<g id="a_node4"><a xlink:title=" ">
<polygon fill="white" stroke="#bfbfbf" points="3884.15,-112.5 3884.15,-131.5 4035.15,-131.5 4035.15,-112.5 3884.15,-112.5"/>
<text text-anchor="middle" x="3959.65" y="-119.5" font-family="Helvetica,sans-Serif" font-size="10.00">TGUI/Widgets/MenuBar.hpp</text>
</a>
</g>
</g>
<!-- Node3&#45;&gt;Node4 -->
<g id="edge3" class="edge">
<title>Node3&#45;&gt;Node4</title>
<path fill="none" stroke="midnightblue" d="M3770.31,-173.98C3809.2,-163.5 3875.29,-145.71 3918.19,-134.16"/>
<polygon fill="midnightblue" stroke="midnightblue" points="3919.29,-137.49 3928.04,-131.51 3917.47,-130.73 3919.29,-137.49"/>
</g>
<!-- Node5 -->
<g id="node5" class="node">
<title>Node5</title>
<g id="a_node5"><a xlink:title=" ">
<polygon fill="white" stroke="#bfbfbf" points="4053.65,-112.5 4053.65,-131.5 4187.65,-131.5 4187.65,-112.5 4053.65,-112.5"/>
<text text-anchor="middle" x="4120.65" y="-119.5" font-family="Helvetica,sans-Serif" font-size="10.00">TGUI/Widgets/Label.hpp</text>
</a>
</g>
</g>
<!-- Node3&#45;&gt;Node5 -->
<g id="edge4" class="edge">
<title>Node3&#45;&gt;Node5</title>
<path fill="none" stroke="midnightblue" d="M3793.38,-173.98C3862.73,-163.17 3982.11,-144.58 4055.91,-133.08"/>
<polygon fill="midnightblue" stroke="midnightblue" points="4056.67,-136.51 4066.02,-131.51 4055.6,-129.59 4056.67,-136.51"/>
</g>
<!-- Node6 -->
<g id="node6" class="node">
<title>Node6</title>
<g id="a_node6"><a xlink:title=" ">
<polygon fill="white" stroke="#bfbfbf" points="3505.15,-112.5 3505.15,-131.5 3676.15,-131.5 3676.15,-112.5 3505.15,-112.5"/>
<text text-anchor="middle" x="3590.65" y="-119.5" font-family="Helvetica,sans-Serif" font-size="10.00">TGUI/Widgets/ToggleButton.hpp</text>
</a>
</g>
</g>
<!-- Node3&#45;&gt;Node6 -->
<g id="edge5" class="edge">
<title>Node3&#45;&gt;Node6</title>
<path fill="none" stroke="midnightblue" d="M3717.44,-173.98C3692.27,-163.86 3650.11,-146.9 3621.37,-135.35"/>
<polygon fill="midnightblue" stroke="midnightblue" points="3622.4,-131.99 3611.81,-131.51 3619.78,-138.49 3622.4,-131.99"/>
</g>
<!-- Node3&#45;&gt;Node7 -->
<g id="edge6" class="edge">
<title>Node3&#45;&gt;Node7</title>
<path fill="none" stroke="midnightblue" d="M3664.01,-177.96C3520.31,-169.2 3195.2,-149.31 2921.65,-132 2909.46,-131.23 2896.67,-130.41 2883.99,-129.6"/>
<polygon fill="midnightblue" stroke="midnightblue" points="2884.07,-126.09 2873.86,-128.94 2883.62,-133.08 2884.07,-126.09"/>
</g>
<!-- Node8 -->
<g id="node8" class="node">
<title>Node8</title>
<g id="a_node8"><a xlink:title=" ">
<polygon fill="white" stroke="#bfbfbf" points="3694.15,-112.5 3694.15,-131.5 3783.15,-131.5 3783.15,-112.5 3694.15,-112.5"/>
<text text-anchor="middle" x="3738.65" y="-119.5" font-family="Helvetica,sans-Serif" font-size="10.00">TGUI/TGUI.hpp</text>
</a>
</g>
</g>
<!-- Node3&#45;&gt;Node8 -->
<g id="edge7" class="edge">
<title>Node3&#45;&gt;Node8</title>
<path fill="none" stroke="midnightblue" d="M3738.65,-173.98C3738.65,-165.58 3738.65,-152.48 3738.65,-141.66"/>
<polygon fill="midnightblue" stroke="midnightblue" points="3742.15,-141.51 3738.65,-131.51 3735.15,-141.51 3742.15,-141.51"/>
</g>
<!-- Node9 -->
<g id="node9" class="node">
<title>Node9</title>
<g id="a_node9"><a xlink:title=" ">
<polygon fill="white" stroke="#bfbfbf" points="3801.15,-112.5 3801.15,-131.5 3866.15,-131.5 3866.15,-112.5 3801.15,-112.5"/>
<text text-anchor="middle" x="3833.65" y="-119.5" font-family="Helvetica,sans-Serif" font-size="10.00">functional</text>
</a>
</g>
</g>
<!-- Node3&#45;&gt;Node9 -->
<g id="edge8" class="edge">
<title>Node3&#45;&gt;Node9</title>
<path fill="none" stroke="midnightblue" d="M3752.26,-173.98C3767.71,-164.3 3793.14,-148.37 3811.46,-136.89"/>
<polygon fill="midnightblue" stroke="midnightblue" points="3813.44,-139.78 3820.06,-131.51 3809.73,-133.85 3813.44,-139.78"/>
</g>
<!-- Node11 -->
<g id="node11" class="node">
<title>Node11</title>
<g id="a_node11"><a xlink:title=" ">
<polygon fill="white" stroke="#bfbfbf" points="1099.15,-112.5 1099.15,-131.5 1154.15,-131.5 1154.15,-112.5 1099.15,-112.5"/>
<text text-anchor="middle" x="1126.65" y="-119.5" font-family="Helvetica,sans-Serif" font-size="10.00">fstream</text>
</a>
</g>
</g>
<!-- Node10&#45;&gt;Node11 -->
<g id="edge10" class="edge">
<title>Node10&#45;&gt;Node11</title>
<path fill="none" stroke="midnightblue" d="M543.31,-175.11C688.64,-162.13 984.41,-135.71 1088.98,-126.36"/>
<polygon fill="midnightblue" stroke="midnightblue" points="1089.42,-129.84 1099.07,-125.46 1088.8,-122.87 1089.42,-129.84"/>
</g>
<!-- Node10&#45;&gt;Node12 -->
<g id="edge11" class="edge">
<title>Node10&#45;&gt;Node12</title>
<path fill="none" stroke="midnightblue" d="M378.25,-174C303.92,-165.74 191.46,-151.82 84.83,-132.06"/>
<polygon fill="midnightblue" stroke="midnightblue" points="85.33,-128.59 74.86,-130.19 84.05,-135.47 85.33,-128.59"/>
</g>
<!-- Node13 -->
<g id="node13" class="node">
<title>Node13</title>
<g id="a_node13"><a xlink:title=" ">
<polygon fill="white" stroke="#bfbfbf" points="960.65,-112.5 960.65,-131.5 1004.65,-131.5 1004.65,-112.5 960.65,-112.5"/>
<text text-anchor="middle" x="982.65" y="-119.5" font-family="Helvetica,sans-Serif" font-size="10.00">string</text>
</a>
</g>
</g>
<!-- Node10&#45;&gt;Node13 -->
<g id="edge12" class="edge">
<title>Node10&#45;&gt;Node13</title>
<path fill="none" stroke="midnightblue" d="M543.27,-175.82C657.78,-166.25 859.92,-148.22 950.45,-131.86"/>
<polygon fill="midnightblue" stroke="midnightblue" points="951.24,-135.27 960.41,-129.97 949.94,-128.39 951.24,-135.27"/>
</g>
<!-- Node14 -->
<g id="node14" class="node">
<title>Node14</title>
<g id="a_node14"><a xlink:title=" ">
<polygon fill="white" stroke="#bfbfbf" points="1210.65,-112.5 1210.65,-131.5 1270.65,-131.5 1270.65,-112.5 1210.65,-112.5"/>
<text text-anchor="middle" x="1240.65" y="-119.5" font-family="Helvetica,sans-Serif" font-size="10.00">iostream</text>
</a>
</g>
</g>
<!-- Node10&#45;&gt;Node14 -->
<g id="edge13" class="edge">
<title>Node10&#45;&gt;Node14</title>
<path fill="none" stroke="midnightblue" d="M543.37,-176.12C576.97,-173.55 616.16,-170.59 651.65,-168 879.16,-151.37 936.52,-153.25 1163.65,-132 1175.57,-130.88 1188.5,-129.46 1200.3,-128.07"/>
<polygon fill="midnightblue" stroke="midnightblue" points="1200.81,-131.53 1210.33,-126.87 1199.98,-124.58 1200.81,-131.53"/>
</g>
<!-- Node10&#45;&gt;Node15 -->
<g id="edge14" class="edge">
<title>Node10&#45;&gt;Node15</title>
<path fill="none" stroke="midnightblue" d="M401.76,-174C342.68,-165.17 248.9,-150.36 158.72,-132.1"/>
<polygon fill="midnightblue" stroke="midnightblue" points="159.38,-128.66 148.88,-130.09 157.98,-135.52 159.38,-128.66"/>
</g>
<!-- Node10&#45;&gt;Node16 -->
<g id="edge15" class="edge">
<title>Node10&#45;&gt;Node16</title>
<path fill="none" stroke="midnightblue" d="M520.18,-173.97C584.02,-164.68 688.64,-149.07 788.19,-132.21"/>
<polygon fill="midnightblue" stroke="midnightblue" points="788.84,-135.65 798.11,-130.52 787.67,-128.75 788.84,-135.65"/>
</g>
<!-- Node10&#45;&gt;Node20 -->
<g id="edge21" class="edge">
<title>Node10&#45;&gt;Node20</title>
<path fill="none" stroke="midnightblue" d="M461.4,-173.82C463,-155.26 466.81,-111.34 469,-85.97"/>
<polygon fill="midnightblue" stroke="midnightblue" points="472.51,-86.05 469.89,-75.78 465.54,-85.44 472.51,-86.05"/>
</g>
<!-- Node21 -->
<g id="node21" class="node">
<title>Node21</title>
<g id="a_node21"><a xlink:href="tinyfiledialogs_8h.html" target="_top" xlink:title=" ">
<polygon fill="white" stroke="black" points="167.15,-112.5 167.15,-131.5 262.15,-131.5 262.15,-112.5 167.15,-112.5"/>
<text text-anchor="middle" x="214.65" y="-119.5" font-family="Helvetica,sans-Serif" font-size="10.00">tinyfiledialogs.h</text>
</a>
</g>
</g>
<!-- Node10&#45;&gt;Node21 -->
<g id="edge22" class="edge">
<title>Node10&#45;&gt;Node21</title>
<path fill="none" stroke="midnightblue" d="M425.4,-173.98C381.74,-163.42 307.3,-145.41 259.58,-133.87"/>
<polygon fill="midnightblue" stroke="midnightblue" points="260.37,-130.46 249.83,-131.51 258.72,-137.26 260.37,-130.46"/>
</g>
<!-- Node17 -->
<g id="node17" class="node">
<title>Node17</title>
<g id="a_node17"><a xlink:title=" ">
<polygon fill="white" stroke="#bfbfbf" points="822.15,-56.5 822.15,-75.5 869.15,-75.5 869.15,-56.5 822.15,-56.5"/>
<text text-anchor="middle" x="845.65" y="-63.5" font-family="Helvetica,sans-Serif" font-size="10.00">vector</text>
</a>
</g>
</g>
<!-- Node16&#45;&gt;Node17 -->
<g id="edge16" class="edge">
<title>Node16&#45;&gt;Node17</title>
<path fill="none" stroke="midnightblue" d="M838.97,-112.08C840.03,-104.93 841.55,-94.64 842.88,-85.69"/>
<polygon fill="midnightblue" stroke="midnightblue" points="846.35,-86.16 844.35,-75.75 839.42,-85.13 846.35,-86.16"/>
</g>
<!-- Node18 -->
<g id="node18" class="node">
<title>Node18</title>
<g id="a_node18"><a xlink:title=" ">
<polygon fill="white" stroke="#bfbfbf" points="1723.15,-56.5 1723.15,-75.5 1770.15,-75.5 1770.15,-56.5 1723.15,-56.5"/>
<text text-anchor="middle" x="1746.65" y="-63.5" font-family="Helvetica,sans-Serif" font-size="10.00">cmath</text>
</a>
</g>
</g>
<!-- Node16&#45;&gt;Node18 -->
<g id="edge17" class="edge">
<title>Node16&#45;&gt;Node18</title>
<path fill="none" stroke="midnightblue" d="M877.16,-113.29C880.36,-112.8 883.55,-112.36 886.65,-112 1206.67,-74.4 1597.39,-68.21 1712.95,-67.2"/>
<polygon fill="midnightblue" stroke="midnightblue" points="1712.98,-70.7 1722.95,-67.12 1712.92,-63.7 1712.98,-70.7"/>
</g>
<!-- Node16&#45;&gt;Node19 -->
<g id="edge18" class="edge">
<title>Node16&#45;&gt;Node19</title>
<path fill="none" stroke="midnightblue" d="M832.35,-112.28C827.1,-103.39 819.09,-89.08 813.65,-76 807.27,-60.67 801.86,-42.57 798.29,-29.37"/>
<polygon fill="midnightblue" stroke="midnightblue" points="801.65,-28.39 795.73,-19.6 794.87,-30.16 801.65,-28.39"/>
</g>
<!-- Node16&#45;&gt;Node20 -->
<g id="edge19" class="edge">
<title>Node16&#45;&gt;Node20</title>
<path fill="none" stroke="midnightblue" d="M798.12,-113.44C795.25,-112.94 792.41,-112.45 789.65,-112 707.13,-98.45 612.2,-85.38 547.49,-76.85"/>
<polygon fill="midnightblue" stroke="midnightblue" points="547.75,-73.35 537.38,-75.52 546.83,-80.29 547.75,-73.35"/>
</g>
<!-- Node20&#45;&gt;Node19 -->
<g id="edge20" class="edge">
<title>Node20&#45;&gt;Node19</title>
<path fill="none" stroke="midnightblue" d="M521.83,-56.44C579.12,-46.87 671.89,-31.36 732.83,-21.17"/>
<polygon fill="midnightblue" stroke="midnightblue" points="733.42,-24.62 742.71,-19.52 732.26,-17.71 733.42,-24.62"/>
</g>
<!-- Node22&#45;&gt;Node11 -->
<g id="edge36" class="edge">
<title>Node22&#45;&gt;Node11</title>
<path fill="none" stroke="midnightblue" d="M1633.29,-175.03C1532.08,-165.61 1354,-148.64 1201.65,-132 1189.55,-130.68 1176.36,-129.13 1164.47,-127.7"/>
<polygon fill="midnightblue" stroke="midnightblue" points="1164.76,-124.21 1154.41,-126.47 1163.92,-131.16 1164.76,-124.21"/>
</g>
<!-- Node22&#45;&gt;Node13 -->
<g id="edge34" class="edge">
<title>Node22&#45;&gt;Node13</title>
<path fill="none" stroke="midnightblue" d="M1633.37,-175.98C1514.28,-166.42 1285.36,-147.99 1090.65,-132 1065.3,-129.92 1036.61,-127.53 1015.18,-125.73"/>
<polygon fill="midnightblue" stroke="midnightblue" points="1015.24,-122.22 1004.98,-124.88 1014.66,-129.2 1015.24,-122.22"/>
</g>
<!-- Node22&#45;&gt;Node14 -->
<g id="edge37" class="edge">
<title>Node22&#45;&gt;Node14</title>
<path fill="none" stroke="midnightblue" d="M1633.53,-175.04C1546.86,-166.6 1405.61,-151.44 1284.65,-132 1283.39,-131.8 1282.12,-131.59 1280.83,-131.36"/>
<polygon fill="midnightblue" stroke="midnightblue" points="1281.35,-127.9 1270.88,-129.54 1280.08,-134.79 1281.35,-127.9"/>
</g>
<!-- Node22&#45;&gt;Node17 -->
<g id="edge35" class="edge">
<title>Node22&#45;&gt;Node17</title>
<path fill="none" stroke="midnightblue" d="M1633.38,-180.61C1551.84,-176.77 1423.5,-165.38 1317.65,-132 1299.44,-126.26 1297.95,-117.42 1279.65,-112 1111.47,-62.2 1059.98,-102.86 886.65,-76 884.28,-75.63 881.84,-75.21 879.39,-74.76"/>
<polygon fill="midnightblue" stroke="midnightblue" points="879.89,-71.29 869.4,-72.74 878.51,-78.15 879.89,-71.29"/>
</g>
<!-- Node22&#45;&gt;Node18 -->
<g id="edge38" class="edge">
<title>Node22&#45;&gt;Node18</title>
<path fill="none" stroke="midnightblue" d="M1795.88,-181.35C1947.16,-178.37 2259.77,-167.88 2292.65,-132 2298.65,-125.45 2298.67,-118.54 2292.65,-112 2257.92,-74.3 1894.6,-68.18 1780.64,-67.19"/>
<polygon fill="midnightblue" stroke="midnightblue" points="1780.43,-63.69 1770.41,-67.11 1780.38,-70.69 1780.43,-63.69"/>
</g>
<!-- Node23 -->
<g id="node23" class="node">
<title>Node23</title>
<g id="a_node23"><a xlink:title=" ">
<polygon fill="white" stroke="#bfbfbf" points="2614.15,-112.5 2614.15,-131.5 2673.15,-131.5 2673.15,-112.5 2614.15,-112.5"/>
<text text-anchor="middle" x="2643.65" y="-119.5" font-family="Helvetica,sans-Serif" font-size="10.00">ros/ros.h</text>
</a>
</g>
</g>
<!-- Node22&#45;&gt;Node23 -->
<g id="edge25" class="edge">
<title>Node22&#45;&gt;Node23</title>
<path fill="none" stroke="midnightblue" d="M1795.79,-182.5C1951.03,-181.49 2300.79,-174.38 2603.63,-131.87"/>
<polygon fill="midnightblue" stroke="midnightblue" points="2604.52,-135.28 2613.93,-130.41 2603.54,-128.35 2604.52,-135.28"/>
</g>
<!-- Node24 -->
<g id="node24" class="node">
<title>Node24</title>
<g id="a_node24"><a xlink:title=" ">
<polygon fill="white" stroke="#bfbfbf" points="2339.65,-112.5 2339.65,-131.5 2471.65,-131.5 2471.65,-112.5 2339.65,-112.5"/>
<text text-anchor="middle" x="2405.65" y="-119.5" font-family="Helvetica,sans-Serif" font-size="10.00">geometry_msgs/Twist.h</text>
</a>
</g>
</g>
<!-- Node22&#45;&gt;Node24 -->
<g id="edge26" class="edge">
<title>Node22&#45;&gt;Node24</title>
<path fill="none" stroke="midnightblue" d="M1795.76,-176.56C1912.85,-167.82 2136.02,-150.5 2325.65,-132 2326.76,-131.89 2327.88,-131.78 2329.01,-131.67"/>
<polygon fill="midnightblue" stroke="midnightblue" points="2329.72,-135.11 2339.31,-130.62 2329,-128.15 2329.72,-135.11"/>
</g>
<!-- Node25 -->
<g id="node25" class="node">
<title>Node25</title>
<g id="a_node25"><a xlink:title=" ">
<polygon fill="white" stroke="#bfbfbf" points="2489.65,-112.5 2489.65,-131.5 2595.65,-131.5 2595.65,-112.5 2489.65,-112.5"/>
<text text-anchor="middle" x="2542.65" y="-119.5" font-family="Helvetica,sans-Serif" font-size="10.00">sensor_msgs/Joy.h</text>
</a>
</g>
</g>
<!-- Node22&#45;&gt;Node25 -->
<g id="edge27" class="edge">
<title>Node22&#45;&gt;Node25</title>
<path fill="none" stroke="midnightblue" d="M1795.89,-179.24C1934.1,-173.23 2224.03,-158.62 2479.37,-132.05"/>
<polygon fill="midnightblue" stroke="midnightblue" points="2480,-135.51 2489.58,-130.98 2479.27,-128.54 2480,-135.51"/>
</g>
<!-- Node26 -->
<g id="node26" class="node">
<title>Node26</title>
<g id="a_node26"><a xlink:title=" ">
<polygon fill="white" stroke="#bfbfbf" points="1326.65,-112.5 1326.65,-131.5 1470.65,-131.5 1470.65,-112.5 1326.65,-112.5"/>
<text text-anchor="middle" x="1398.65" y="-119.5" font-family="Helvetica,sans-Serif" font-size="10.00">geometry_msgs/Point32.h</text>
</a>
</g>
</g>
<!-- Node22&#45;&gt;Node26 -->
<g id="edge28" class="edge">
<title>Node22&#45;&gt;Node26</title>
<path fill="none" stroke="midnightblue" d="M1669.37,-173.98C1612.47,-163.26 1514.86,-144.88 1453.7,-133.37"/>
<polygon fill="midnightblue" stroke="midnightblue" points="1454.31,-129.92 1443.84,-131.51 1453.02,-136.8 1454.31,-129.92"/>
</g>
<!-- Node27 -->
<g id="node27" class="node">
<title>Node27</title>
<g id="a_node27"><a xlink:title=" ">
<polygon fill="white" stroke="#bfbfbf" points="1489.15,-112.5 1489.15,-131.5 1634.15,-131.5 1634.15,-112.5 1489.15,-112.5"/>
<text text-anchor="middle" x="1561.65" y="-119.5" font-family="Helvetica,sans-Serif" font-size="10.00">sensor_msgs/PointCloud.h</text>
</a>
</g>
</g>
<!-- Node22&#45;&gt;Node27 -->
<g id="edge29" class="edge">
<title>Node22&#45;&gt;Node27</title>
<path fill="none" stroke="midnightblue" d="M1692.72,-173.98C1666.59,-163.81 1622.73,-146.76 1593.02,-135.2"/>
<polygon fill="midnightblue" stroke="midnightblue" points="1594.12,-131.87 1583.53,-131.51 1591.58,-138.4 1594.12,-131.87"/>
</g>
<!-- Node28 -->
<g id="node28" class="node">
<title>Node28</title>
<g id="a_node28"><a xlink:title=" ">
<polygon fill="white" stroke="#bfbfbf" points="1652.15,-112.5 1652.15,-131.5 1777.15,-131.5 1777.15,-112.5 1652.15,-112.5"/>
<text text-anchor="middle" x="1714.65" y="-119.5" font-family="Helvetica,sans-Serif" font-size="10.00">nav_msgs/Odometry.h</text>
</a>
</g>
</g>
<!-- Node22&#45;&gt;Node28 -->
<g id="edge30" class="edge">
<title>Node22&#45;&gt;Node28</title>
<path fill="none" stroke="midnightblue" d="M1714.65,-173.98C1714.65,-165.58 1714.65,-152.48 1714.65,-141.66"/>
<polygon fill="midnightblue" stroke="midnightblue" points="1718.15,-141.51 1714.65,-131.51 1711.15,-141.51 1718.15,-141.51"/>
</g>
<!-- Node29 -->
<g id="node29" class="node">
<title>Node29</title>
<g id="a_node29"><a xlink:title=" ">
<polygon fill="white" stroke="#bfbfbf" points="1795.65,-112.5 1795.65,-131.5 1947.65,-131.5 1947.65,-112.5 1795.65,-112.5"/>
<text text-anchor="middle" x="1871.65" y="-119.5" font-family="Helvetica,sans-Serif" font-size="10.00">nav_msgs/OccupancyGrid.h</text>
</a>
</g>
</g>
<!-- Node22&#45;&gt;Node29 -->
<g id="edge31" class="edge">
<title>Node22&#45;&gt;Node29</title>
<path fill="none" stroke="midnightblue" d="M1737.14,-173.98C1763.95,-163.81 1808.96,-146.76 1839.46,-135.2"/>
<polygon fill="midnightblue" stroke="midnightblue" points="1841.08,-138.33 1849.19,-131.51 1838.6,-131.78 1841.08,-138.33"/>
</g>
<!-- Node30 -->
<g id="node30" class="node">
<title>Node30</title>
<g id="a_node30"><a xlink:title=" ">
<polygon fill="white" stroke="#bfbfbf" points="2027.65,-112.5 2027.65,-131.5 2127.65,-131.5 2127.65,-112.5 2027.65,-112.5"/>
<text text-anchor="middle" x="2077.65" y="-119.5" font-family="Helvetica,sans-Serif" font-size="10.00">std_msgs/Int32.h</text>
</a>
</g>
</g>
<!-- Node22&#45;&gt;Node30 -->
<g id="edge32" class="edge">
<title>Node22&#45;&gt;Node30</title>
<path fill="none" stroke="midnightblue" d="M1766.66,-173.98C1832.99,-163.1 1947.47,-144.34 2017.49,-132.86"/>
<polygon fill="midnightblue" stroke="midnightblue" points="2018.18,-136.29 2027.49,-131.22 2017.05,-129.39 2018.18,-136.29"/>
</g>
<!-- Node31 -->
<g id="node31" class="node">
<title>Node31</title>
<g id="a_node31"><a xlink:title=" ">
<polygon fill="white" stroke="#bfbfbf" points="2145.65,-112.5 2145.65,-131.5 2283.65,-131.5 2283.65,-112.5 2145.65,-112.5"/>
<text text-anchor="middle" x="2214.65" y="-119.5" font-family="Helvetica,sans-Serif" font-size="10.00">tf/transform_datatypes.h</text>
</a>
</g>
</g>
<!-- Node22&#45;&gt;Node31 -->
<g id="edge33" class="edge">
<title>Node22&#45;&gt;Node31</title>
<path fill="none" stroke="midnightblue" d="M1786.28,-173.98C1878.87,-162.96 2039.55,-143.84 2135.6,-132.41"/>
<polygon fill="midnightblue" stroke="midnightblue" points="2136.04,-135.88 2145.55,-131.22 2135.21,-128.93 2136.04,-135.88"/>
</g>
<!-- Node32&#45;&gt;Node7 -->
<g id="edge43" class="edge">
<title>Node32&#45;&gt;Node7</title>
<path fill="none" stroke="midnightblue" d="M2882.03,-173.98C2862.73,-164.08 2830.69,-147.64 2808.21,-136.12"/>
<polygon fill="midnightblue" stroke="midnightblue" points="2809.73,-132.96 2799.24,-131.51 2806.54,-139.19 2809.73,-132.96"/>
</g>
<!-- Node32&#45;&gt;Node14 -->
<g id="edge41" class="edge">
<title>Node32&#45;&gt;Node14</title>
<path fill="none" stroke="midnightblue" d="M2813.25,-182.3C2575.79,-181.21 1887.63,-174.34 1317.65,-132 1305.71,-131.11 1292.77,-129.76 1280.97,-128.36"/>
<polygon fill="midnightblue" stroke="midnightblue" points="1281.29,-124.88 1270.94,-127.14 1280.45,-131.83 1281.29,-124.88"/>
</g>
<!-- Node32&#45;&gt;Node19 -->
<g id="edge42" class="edge">
<title>Node32&#45;&gt;Node19</title>
<path fill="none" stroke="midnightblue" d="M2899.64,-173.92C2900.87,-158.75 2900.9,-127.35 2882.65,-112 2694.8,45.95 2024.79,-67.82 1779.65,-56 1432.54,-39.27 1016.61,-20.81 858.73,-13.85"/>
<polygon fill="midnightblue" stroke="midnightblue" points="858.85,-10.36 848.7,-13.41 858.54,-17.35 858.85,-10.36"/>
</g>
<!-- Node32&#45;&gt;Node23 -->
<g id="edge46" class="edge">
<title>Node32&#45;&gt;Node23</title>
<path fill="none" stroke="midnightblue" d="M2862.11,-173.98C2814.67,-162.91 2732.17,-143.65 2683.26,-132.24"/>
<polygon fill="midnightblue" stroke="midnightblue" points="2683.89,-128.8 2673.36,-129.93 2682.3,-135.61 2683.89,-128.8"/>
</g>
<!-- Node33 -->
<g id="node33" class="node">
<title>Node33</title>
<g id="a_node33"><a xlink:title=" ">
<polygon fill="white" stroke="#bfbfbf" points="2930.15,-112.5 2930.15,-131.5 3075.15,-131.5 3075.15,-112.5 2930.15,-112.5"/>
<text text-anchor="middle" x="3002.65" y="-119.5" font-family="Helvetica,sans-Serif" font-size="10.00">TGUI/Widgets/EditBox.hpp</text>
</a>
</g>
</g>
<!-- Node32&#45;&gt;Node33 -->
<g id="edge44" class="edge">
<title>Node32&#45;&gt;Node33</title>
<path fill="none" stroke="midnightblue" d="M2913.55,-173.98C2930.61,-164.21 2958.81,-148.08 2978.91,-136.58"/>
<polygon fill="midnightblue" stroke="midnightblue" points="2980.83,-139.51 2987.77,-131.51 2977.36,-133.44 2980.83,-139.51"/>
</g>
<!-- Node34 -->
<g id="node34" class="node">
<title>Node34</title>
<g id="a_node34"><a xlink:title=" ">
<polygon fill="white" stroke="#bfbfbf" points="3093.65,-112.5 3093.65,-131.5 3233.65,-131.5 3233.65,-112.5 3093.65,-112.5"/>
<text text-anchor="middle" x="3163.65" y="-119.5" font-family="Helvetica,sans-Serif" font-size="10.00">TGUI/Widgets/Button.hpp</text>
</a>
</g>
</g>
<!-- Node32&#45;&gt;Node34 -->
<g id="edge45" class="edge">
<title>Node32&#45;&gt;Node34</title>
<path fill="none" stroke="midnightblue" d="M2936.61,-173.98C2983.84,-163.37 3064.5,-145.26 3115.88,-133.72"/>
<polygon fill="midnightblue" stroke="midnightblue" points="3116.76,-137.11 3125.75,-131.51 3115.22,-130.28 3116.76,-137.11"/>
</g>
<!-- Node35 -->
<g id="node35" class="node">
<title>Node35</title>
<g id="a_node35"><a xlink:title=" ">
<polygon fill="white" stroke="#bfbfbf" points="1965.65,-112.5 1965.65,-131.5 2009.65,-131.5 2009.65,-112.5 1965.65,-112.5"/>
<text text-anchor="middle" x="1987.65" y="-119.5" font-family="Helvetica,sans-Serif" font-size="10.00">regex</text>
</a>
</g>
</g>
<!-- Node32&#45;&gt;Node35 -->
<g id="edge47" class="edge">
<title>Node32&#45;&gt;Node35</title>
<path fill="none" stroke="midnightblue" d="M2813.46,-180.06C2627.24,-174.32 2187.81,-158.58 2019.81,-131.76"/>
<polygon fill="midnightblue" stroke="midnightblue" points="2020.3,-128.29 2009.86,-130.1 2019.15,-135.19 2020.3,-128.29"/>
</g>
<!-- Node36 -->
<g id="node36" class="node">
<title>Node36</title>
<g id="a_node36"><a xlink:title=" ">
<polygon fill="white" stroke="#bfbfbf" points="3252.15,-112.5 3252.15,-131.5 3301.15,-131.5 3301.15,-112.5 3252.15,-112.5"/>
<text text-anchor="middle" x="3276.65" y="-119.5" font-family="Helvetica,sans-Serif" font-size="10.00">cctype</text>
</a>
</g>
</g>
<!-- Node32&#45;&gt;Node36 -->
<g id="edge48" class="edge">
<title>Node32&#45;&gt;Node36</title>
<path fill="none" stroke="midnightblue" d="M2973.56,-173.98C3041.21,-165.72 3143.62,-151.82 3241.75,-131.98"/>
<polygon fill="midnightblue" stroke="midnightblue" points="3242.74,-135.35 3251.84,-129.91 3241.34,-128.49 3242.74,-135.35"/>
</g>
<!-- Node32&#45;&gt;Node37 -->
<g id="edge49" class="edge">
<title>Node32&#45;&gt;Node37</title>
<path fill="none" stroke="midnightblue" d="M2970.86,-173.98C3063.39,-163.05 3223.42,-144.16 3320.5,-132.7"/>
<polygon fill="midnightblue" stroke="midnightblue" points="3321.05,-136.16 3330.57,-131.51 3320.23,-129.21 3321.05,-136.16"/>
</g>
<!-- Node37&#45;&gt;Node18 -->
<g id="edge52" class="edge">
<title>Node37&#45;&gt;Node18</title>
<path fill="none" stroke="midnightblue" d="M3318.44,-112.53C3315.81,-112.34 3313.21,-112.16 3310.65,-112 2697.86,-73.26 1947.89,-67.85 1780.72,-67.11"/>
<polygon fill="midnightblue" stroke="midnightblue" points="1780.58,-63.61 1770.56,-67.07 1780.55,-70.61 1780.58,-63.61"/>
</g>
<!-- Node37&#45;&gt;Node19 -->
<g id="edge50" class="edge">
<title>Node37&#45;&gt;Node19</title>
<path fill="none" stroke="midnightblue" d="M3352.71,-112.46C3264.73,-97.84 3076.17,-68.38 2915.65,-56 2501.29,-24.05 1169.71,-13.47 858.93,-11.4"/>
<polygon fill="midnightblue" stroke="midnightblue" points="858.76,-7.9 848.74,-11.34 858.72,-14.9 858.76,-7.9"/>
</g>
<!-- Node38 -->
<g id="node38" class="node">
<title>Node38</title>
<g id="a_node38"><a xlink:href="MyConstants_8hpp.html" target="_top" xlink:title=" ">
<polygon fill="white" stroke="black" points="3352.15,-56.5 3352.15,-75.5 3453.15,-75.5 3453.15,-56.5 3352.15,-56.5"/>
<text text-anchor="middle" x="3402.65" y="-63.5" font-family="Helvetica,sans-Serif" font-size="10.00">MyConstants.hpp</text>
</a>
</g>
</g>
<!-- Node37&#45;&gt;Node38 -->
<g id="edge51" class="edge">
<title>Node37&#45;&gt;Node38</title>
<path fill="none" stroke="midnightblue" d="M3402.65,-112.08C3402.65,-105.01 3402.65,-94.86 3402.65,-85.99"/>
<polygon fill="midnightblue" stroke="midnightblue" points="3406.15,-85.75 3402.65,-75.75 3399.15,-85.75 3406.15,-85.75"/>
</g>
<!-- Node39&#45;&gt;Node17 -->
<g id="edge55" class="edge">
<title>Node39&#45;&gt;Node17</title>
<path fill="none" stroke="midnightblue" d="M427.3,-112.92C535.35,-101.06 732.52,-79.42 811.55,-70.74"/>
<polygon fill="midnightblue" stroke="midnightblue" points="812.34,-74.18 821.9,-69.61 811.58,-67.22 812.34,-74.18"/>
</g>
<!-- Node39&#45;&gt;Node19 -->
<g id="edge57" class="edge">
<title>Node39&#45;&gt;Node19</title>
<path fill="none" stroke="midnightblue" d="M353.37,-112.22C353.44,-97.98 355.87,-70.03 372.65,-56 399.34,-33.68 616.84,-19.76 728.3,-14.02"/>
<polygon fill="midnightblue" stroke="midnightblue" points="728.61,-17.51 738.42,-13.51 728.26,-10.52 728.61,-17.51"/>
</g>
<!-- Node39&#45;&gt;Node20 -->
<g id="edge58" class="edge">
<title>Node39&#45;&gt;Node20</title>
<path fill="none" stroke="midnightblue" d="M372.19,-112.44C391.27,-103.64 421.22,-89.81 443.08,-79.72"/>
<polygon fill="midnightblue" stroke="midnightblue" points="444.58,-82.88 452.19,-75.52 441.65,-76.53 444.58,-82.88"/>
</g>
<!-- Node40 -->
<g id="node40" class="node">
<title>Node40</title>
<g id="a_node40"><a xlink:title=" ">
<polygon fill="white" stroke="#bfbfbf" points="274.15,-56.5 274.15,-75.5 325.15,-75.5 325.15,-56.5 274.15,-56.5"/>
<text text-anchor="middle" x="299.65" y="-63.5" font-family="Helvetica,sans-Serif" font-size="10.00">math.h</text>
</a>
</g>
</g>
<!-- Node39&#45;&gt;Node40 -->
<g id="edge56" class="edge">
<title>Node39&#45;&gt;Node40</title>
<path fill="none" stroke="midnightblue" d="M344.73,-112.08C336.87,-104.22 325.21,-92.57 315.73,-83.08"/>
<polygon fill="midnightblue" stroke="midnightblue" points="317.94,-80.35 308.4,-75.75 312.99,-85.3 317.94,-80.35"/>
</g>
<!-- Node41&#45;&gt;Node7 -->
<g id="edge61" class="edge">
<title>Node41&#45;&gt;Node7</title>
<path fill="none" stroke="midnightblue" d="M815.51,-174.92C845.25,-172.3 879.49,-169.62 910.65,-168 1693.94,-127.26 1894.41,-174.92 2681.22,-132.03"/>
<polygon fill="midnightblue" stroke="midnightblue" points="2681.59,-135.52 2691.38,-131.48 2681.2,-128.53 2681.59,-135.52"/>
</g>
<!-- Node41&#45;&gt;Node14 -->
<g id="edge64" class="edge">
<title>Node41&#45;&gt;Node14</title>
<path fill="none" stroke="midnightblue" d="M815.41,-173.3C923.97,-160.46 1116.98,-137.63 1200.4,-127.76"/>
<polygon fill="midnightblue" stroke="midnightblue" points="1200.96,-131.22 1210.48,-126.57 1200.14,-124.27 1200.96,-131.22"/>
</g>
<!-- Node41&#45;&gt;Node16 -->
<g id="edge66" class="edge">
<title>Node41&#45;&gt;Node16</title>
<path fill="none" stroke="midnightblue" d="M761.34,-168.4C777.37,-158.86 798.44,-146.32 814.38,-136.84"/>
<polygon fill="midnightblue" stroke="midnightblue" points="816.29,-139.78 823.1,-131.66 812.71,-133.76 816.29,-139.78"/>
</g>
<!-- Node41&#45;&gt;Node19 -->
<g id="edge60" class="edge">
<title>Node41&#45;&gt;Node19</title>
<path fill="none" stroke="midnightblue" d="M660.08,-179.07C596.65,-173.05 521.92,-156.62 551.65,-112 590.7,-53.38 670.93,-28.73 728.31,-18.39"/>
<polygon fill="midnightblue" stroke="midnightblue" points="729.11,-21.81 738.39,-16.68 727.94,-14.91 729.11,-21.81"/>
</g>
<!-- Node41&#45;&gt;Node35 -->
<g id="edge65" class="edge">
<title>Node41&#45;&gt;Node35</title>
<path fill="none" stroke="midnightblue" d="M815.53,-175.15C845.27,-172.56 879.51,-169.84 910.65,-168 1139.65,-154.47 1711.07,-168.32 1955.47,-131.71"/>
<polygon fill="midnightblue" stroke="midnightblue" points="1956.1,-135.16 1965.45,-130.16 1955.03,-128.24 1956.1,-135.16"/>
</g>
<!-- Node41&#45;&gt;Node39 -->
<g id="edge67" class="edge">
<title>Node41&#45;&gt;Node39</title>
<path fill="none" stroke="midnightblue" d="M659.94,-170.46C588.96,-159.46 485.22,-143.39 418.57,-133.06"/>
<polygon fill="midnightblue" stroke="midnightblue" points="419.02,-129.59 408.6,-131.52 417.95,-136.51 419.02,-129.59"/>
</g>
<!-- Node42 -->
<g id="node42" class="node">
<title>Node42</title>
<g id="a_node42"><a xlink:title=" ">
<polygon fill="white" stroke="#bfbfbf" points="560.15,-112.5 560.15,-131.5 677.15,-131.5 677.15,-112.5 560.15,-112.5"/>
<text text-anchor="middle" x="618.65" y="-119.5" font-family="Helvetica,sans-Serif" font-size="10.00">TGUI/AllWidgets.hpp</text>
</a>
</g>
</g>
<!-- Node41&#45;&gt;Node42 -->
<g id="edge62" class="edge">
<title>Node41&#45;&gt;Node42</title>
<path fill="none" stroke="midnightblue" d="M709.44,-168.4C689.92,-158.64 664.12,-145.74 645.01,-136.18"/>
<polygon fill="midnightblue" stroke="midnightblue" points="646.47,-133 635.96,-131.66 643.34,-139.26 646.47,-133"/>
</g>
<!-- Node43 -->
<g id="node43" class="node">
<title>Node43</title>
<g id="a_node43"><a xlink:title=" ">
<polygon fill="white" stroke="#bfbfbf" points="695.15,-112.5 695.15,-131.5 780.15,-131.5 780.15,-112.5 695.15,-112.5"/>
<text text-anchor="middle" x="737.65" y="-119.5" font-family="Helvetica,sans-Serif" font-size="10.00">ros/package.h</text>
</a>
</g>
</g>
<!-- Node41&#45;&gt;Node43 -->
<g id="edge63" class="edge">
<title>Node41&#45;&gt;Node43</title>
<path fill="none" stroke="midnightblue" d="M737.65,-168.4C737.65,-160.47 737.65,-150.46 737.65,-141.86"/>
<polygon fill="midnightblue" stroke="midnightblue" points="741.15,-141.66 737.65,-131.66 734.15,-141.66 741.15,-141.66"/>
</g>
<!-- Node44&#45;&gt;Node16 -->
<g id="edge72" class="edge">
<title>Node44&#45;&gt;Node16</title>
<path fill="none" stroke="midnightblue" d="M964.44,-173.98C939.27,-163.86 897.11,-146.9 868.37,-135.35"/>
<polygon fill="midnightblue" stroke="midnightblue" points="869.4,-131.99 858.81,-131.51 866.78,-138.49 869.4,-131.99"/>
</g>
<!-- Node44&#45;&gt;Node18 -->
<g id="edge69" class="edge">
<title>Node44&#45;&gt;Node18</title>
<path fill="none" stroke="midnightblue" d="M1024.61,-173.92C1061.2,-165.29 1117.12,-150.61 1163.65,-132 1181.37,-124.91 1183.32,-117.34 1201.65,-112 1298.38,-83.83 1609.32,-71.44 1712.79,-68.03"/>
<polygon fill="midnightblue" stroke="midnightblue" points="1713.1,-71.52 1722.98,-67.7 1712.87,-64.52 1713.1,-71.52"/>
</g>
<!-- Node44&#45;&gt;Node19 -->
<g id="edge71" class="edge">
<title>Node44&#45;&gt;Node19</title>
<path fill="none" stroke="midnightblue" d="M995.74,-173.98C1005.91,-164.76 1021.13,-149.07 1028.65,-132 1042.32,-100.96 1057.33,-82.09 1035.65,-56 1013.54,-29.41 922.67,-18.45 858.81,-13.99"/>
<polygon fill="midnightblue" stroke="midnightblue" points="859.01,-10.5 848.8,-13.33 858.55,-17.48 859.01,-10.5"/>
</g>
<!-- Node45 -->
<g id="node45" class="node">
<title>Node45</title>
<g id="a_node45"><a xlink:title=" ">
<polygon fill="white" stroke="#bfbfbf" points="895.15,-112.5 895.15,-131.5 942.15,-131.5 942.15,-112.5 895.15,-112.5"/>
<text text-anchor="middle" x="918.65" y="-119.5" font-family="Helvetica,sans-Serif" font-size="10.00">queue</text>
</a>
</g>
</g>
<!-- Node44&#45;&gt;Node45 -->
<g id="edge70" class="edge">
<title>Node44&#45;&gt;Node45</title>
<path fill="none" stroke="midnightblue" d="M976.05,-173.98C965.6,-164.7 948.68,-149.67 935.91,-138.33"/>
<polygon fill="midnightblue" stroke="midnightblue" points="938.03,-135.53 928.23,-131.51 933.38,-140.77 938.03,-135.53"/>
</g>
<!-- Node46 -->
<g id="node46" class="node">
<title>Node46</title>
<g id="a_node46"><a xlink:href="Node_8hpp.html" target="_top" xlink:title=" ">
<polygon fill="white" stroke="black" points="895.15,-56.5 895.15,-75.5 1026.15,-75.5 1026.15,-56.5 895.15,-56.5"/>
<text text-anchor="middle" x="960.65" y="-63.5" font-family="Helvetica,sans-Serif" font-size="10.00">artgslam_vsc/Node.hpp</text>
</a>
</g>
</g>
<!-- Node44&#45;&gt;Node46 -->
<g id="edge73" class="edge">
<title>Node44&#45;&gt;Node46</title>
<path fill="none" stroke="midnightblue" d="M993.84,-173.69C1005.31,-160.21 1023.71,-133.75 1013.65,-112 1007.73,-99.21 996.18,-88.72 985.37,-81.1"/>
<polygon fill="midnightblue" stroke="midnightblue" points="987.26,-78.16 976.98,-75.61 983.43,-84.02 987.26,-78.16"/>
</g>
<!-- Node46&#45;&gt;Node19 -->
<g id="edge74" class="edge">
<title>Node46&#45;&gt;Node19</title>
<path fill="none" stroke="midnightblue" d="M934.18,-56.44C905.97,-47.32 861.11,-32.81 829.68,-22.65"/>
<polygon fill="midnightblue" stroke="midnightblue" points="830.58,-19.26 819.98,-19.52 828.42,-25.92 830.58,-19.26"/>
</g>
</g>
</svg>
