<?xml version="1.0" encoding="UTF-8" standalone="no"?>
<!DOCTYPE svg PUBLIC "-//W3C//DTD SVG 1.1//EN"
 "http://www.w3.org/Graphics/SVG/1.1/DTD/svg11.dtd">
<!-- Generated by graphviz version 2.43.0 (0)
 -->
<!-- Title: include/artgslam_vsc/MapViewer.hpp Pages: 1 -->
<svg width="4124pt" height="274pt"
 viewBox="0.00 0.00 4124.12 274.00" xmlns="http://www.w3.org/2000/svg" xmlns:xlink="http://www.w3.org/1999/xlink">
<g id="graph0" class="graph" transform="scale(1 1) rotate(0) translate(4 270)">
<title>include/artgslam_vsc/MapViewer.hpp</title>
<polygon fill="white" stroke="transparent" points="-4,4 -4,-270 4120.12,-270 4120.12,4 -4,4"/>
<!-- Node1 -->
<g id="node1" class="node">
<title>Node1</title>
<g id="a_node1"><a xlink:title=" ">
<polygon fill="#bfbfbf" stroke="black" points="1559.5,-235.5 1559.5,-265.5 1679.5,-265.5 1679.5,-235.5 1559.5,-235.5"/>
<text text-anchor="start" x="1567.5" y="-253.5" font-family="Helvetica,sans-Serif" font-size="10.00">include/artgslam_vsc</text>
<text text-anchor="middle" x="1619.5" y="-242.5" font-family="Helvetica,sans-Serif" font-size="10.00">/MapViewer.hpp</text>
</a>
</g>
</g>
<!-- Node2 -->
<g id="node2" class="node">
<title>Node2</title>
<g id="a_node2"><a xlink:href="MenuBar_8hpp.html" target="_top" xlink:title=" ">
<polygon fill="white" stroke="black" points="416,-174 416,-193 565,-193 565,-174 416,-174"/>
<text text-anchor="middle" x="490.5" y="-181" font-family="Helvetica,sans-Serif" font-size="10.00">artgslam_vsc/MenuBar.hpp</text>
</a>
</g>
</g>
<!-- Node1&#45;&gt;Node2 -->
<g id="edge1" class="edge">
<title>Node1&#45;&gt;Node2</title>
<path fill="none" stroke="midnightblue" d="M1559.34,-246.52C1412.22,-239.17 1022.5,-219.28 697.5,-199 657.4,-196.5 612.96,-193.42 575.57,-190.75"/>
<polygon fill="midnightblue" stroke="midnightblue" points="575.44,-187.23 565.22,-190.01 574.94,-194.22 575.44,-187.23"/>
</g>
<!-- Node6 -->
<g id="node6" class="node">
<title>Node6</title>
<g id="a_node6"><a xlink:title=" ">
<polygon fill="white" stroke="#bfbfbf" points="739.5,-112.5 739.5,-131.5 921.5,-131.5 921.5,-112.5 739.5,-112.5"/>
<text text-anchor="middle" x="830.5" y="-119.5" font-family="Helvetica,sans-Serif" font-size="10.00">TGUI/Backend/SFML&#45;Graphics.hpp</text>
</a>
</g>
</g>
<!-- Node1&#45;&gt;Node6 -->
<g id="edge76" class="edge">
<title>Node1&#45;&gt;Node6</title>
<path fill="none" stroke="midnightblue" d="M1559.37,-244.46C1474.72,-236.93 1315.73,-221.22 1181.5,-199 1070.27,-180.59 941.05,-150.27 874.75,-134.05"/>
<polygon fill="midnightblue" stroke="midnightblue" points="875.21,-130.56 864.66,-131.57 873.54,-137.36 875.21,-130.56"/>
</g>
<!-- Node9 -->
<g id="node9" class="node">
<title>Node9</title>
<g id="a_node9"><a xlink:href="FileManager_8hpp.html" target="_top" xlink:title=" ">
<polygon fill="white" stroke="black" points="2356,-174 2356,-193 2521,-193 2521,-174 2356,-174"/>
<text text-anchor="middle" x="2438.5" y="-181" font-family="Helvetica,sans-Serif" font-size="10.00">artgslam_vsc/FileManager.hpp</text>
</a>
</g>
</g>
<!-- Node1&#45;&gt;Node9 -->
<g id="edge8" class="edge">
<title>Node1&#45;&gt;Node9</title>
<path fill="none" stroke="midnightblue" d="M1679.72,-244.72C1821.36,-233.48 2176.38,-205.3 2345.77,-191.86"/>
<polygon fill="midnightblue" stroke="midnightblue" points="2346.22,-195.33 2355.91,-191.05 2345.67,-188.36 2346.22,-195.33"/>
</g>
<!-- Node15 -->
<g id="node15" class="node">
<title>Node15</title>
<g id="a_node15"><a xlink:href="GridMap_8hpp.html" target="_top" xlink:title=" ">
<polygon fill="white" stroke="black" points="1644,-112.5 1644,-131.5 1723,-131.5 1723,-112.5 1644,-112.5"/>
<text text-anchor="middle" x="1683.5" y="-119.5" font-family="Helvetica,sans-Serif" font-size="10.00">GridMap.hpp</text>
</a>
</g>
</g>
<!-- Node1&#45;&gt;Node15 -->
<g id="edge27" class="edge">
<title>Node1&#45;&gt;Node15</title>
<path fill="none" stroke="midnightblue" d="M1626.59,-235.48C1638.26,-212.41 1661.5,-166.48 1674.38,-141.03"/>
<polygon fill="midnightblue" stroke="midnightblue" points="1677.66,-142.29 1679.05,-131.79 1671.42,-139.13 1677.66,-142.29"/>
</g>
<!-- Node18 -->
<g id="node18" class="node">
<title>Node18</title>
<g id="a_node18"><a xlink:title=" ">
<polygon fill="white" stroke="#bfbfbf" points="1406.5,-0.5 1406.5,-19.5 1516.5,-19.5 1516.5,-0.5 1406.5,-0.5"/>
<text text-anchor="middle" x="1461.5" y="-7.5" font-family="Helvetica,sans-Serif" font-size="10.00">SFML/Graphics.hpp</text>
</a>
</g>
</g>
<!-- Node1&#45;&gt;Node18 -->
<g id="edge75" class="edge">
<title>Node1&#45;&gt;Node18</title>
<path fill="none" stroke="midnightblue" d="M1559.42,-246.29C1368.08,-235.43 782.39,-197.09 730.5,-132 645.57,-25.46 1201.73,-12.39 1396.15,-11.05"/>
<polygon fill="midnightblue" stroke="midnightblue" points="1396.26,-14.55 1406.24,-10.99 1396.21,-7.55 1396.26,-14.55"/>
</g>
<!-- Node19 -->
<g id="node19" class="node">
<title>Node19</title>
<g id="a_node19"><a xlink:href="ViewController_8hpp.html" target="_top" xlink:title=" ">
<polygon fill="white" stroke="black" points="2236.5,-56.5 2236.5,-75.5 2414.5,-75.5 2414.5,-56.5 2236.5,-56.5"/>
<text text-anchor="middle" x="2325.5" y="-63.5" font-family="Helvetica,sans-Serif" font-size="10.00">artgslam_vsc/ViewController.hpp</text>
</a>
</g>
</g>
<!-- Node1&#45;&gt;Node19 -->
<g id="edge43" class="edge">
<title>Node1&#45;&gt;Node19</title>
<path fill="none" stroke="midnightblue" d="M1679.74,-249C2051.94,-245.65 4025.71,-223.6 4111.5,-132 4117.58,-125.51 4117.71,-118.36 4111.5,-112 4081.86,-81.6 2795.75,-70.28 2424.72,-67.64"/>
<polygon fill="midnightblue" stroke="midnightblue" points="2424.57,-64.14 2414.54,-67.57 2424.52,-71.14 2424.57,-64.14"/>
</g>
<!-- Node20 -->
<g id="node20" class="node">
<title>Node20</title>
<g id="a_node20"><a xlink:href="LiveMap_8hpp.html" target="_top" xlink:title=" ">
<polygon fill="white" stroke="black" points="2169,-112.5 2169,-131.5 2248,-131.5 2248,-112.5 2169,-112.5"/>
<text text-anchor="middle" x="2208.5" y="-119.5" font-family="Helvetica,sans-Serif" font-size="10.00">LiveMap.hpp</text>
</a>
</g>
</g>
<!-- Node1&#45;&gt;Node20 -->
<g id="edge58" class="edge">
<title>Node1&#45;&gt;Node20</title>
<path fill="none" stroke="midnightblue" d="M1679.52,-238.46C1732.29,-228.61 1811.13,-213.53 1879.5,-199 1981.35,-177.35 2100.24,-149.16 2163.5,-133.92"/>
<polygon fill="midnightblue" stroke="midnightblue" points="2164.63,-137.25 2173.53,-131.5 2162.99,-130.45 2164.63,-137.25"/>
</g>
<!-- Node23 -->
<g id="node23" class="node">
<title>Node23</title>
<g id="a_node23"><a xlink:href="RosHandler_8hpp.html" target="_top" xlink:title=" ">
<polygon fill="white" stroke="black" points="2918.5,-174 2918.5,-193 3080.5,-193 3080.5,-174 2918.5,-174"/>
<text text-anchor="middle" x="2999.5" y="-181" font-family="Helvetica,sans-Serif" font-size="10.00">artgslam_vsc/RosHandler.hpp</text>
</a>
</g>
</g>
<!-- Node1&#45;&gt;Node23 -->
<g id="edge28" class="edge">
<title>Node1&#45;&gt;Node23</title>
<path fill="none" stroke="midnightblue" d="M1679.68,-246.67C1897.51,-236.41 2645.72,-201.16 2907.87,-188.82"/>
<polygon fill="midnightblue" stroke="midnightblue" points="2908.29,-192.3 2918.12,-188.33 2907.96,-185.31 2908.29,-192.3"/>
</g>
<!-- Node33 -->
<g id="node33" class="node">
<title>Node33</title>
<g id="a_node33"><a xlink:href="RobotCreator_8hpp.html" target="_top" xlink:title=" ">
<polygon fill="white" stroke="black" points="1700.5,-174 1700.5,-193 1870.5,-193 1870.5,-174 1700.5,-174"/>
<text text-anchor="middle" x="1785.5" y="-181" font-family="Helvetica,sans-Serif" font-size="10.00">artgslam_vsc/RobotCreator.hpp</text>
</a>
</g>
</g>
<!-- Node1&#45;&gt;Node33 -->
<g id="edge44" class="edge">
<title>Node1&#45;&gt;Node33</title>
<path fill="none" stroke="midnightblue" d="M1655.52,-235.4C1685.03,-223.84 1726.36,-207.66 1754.44,-196.66"/>
<polygon fill="midnightblue" stroke="midnightblue" points="1755.74,-199.91 1763.77,-193.01 1753.19,-193.39 1755.74,-199.91"/>
</g>
<!-- Node38 -->
<g id="node38" class="node">
<title>Node38</title>
<g id="a_node38"><a xlink:href="UnicicleWmr_8hpp.html" target="_top" xlink:title=" ">
<polygon fill="white" stroke="black" points="1458.5,-112.5 1458.5,-131.5 1626.5,-131.5 1626.5,-112.5 1458.5,-112.5"/>
<text text-anchor="middle" x="1542.5" y="-119.5" font-family="Helvetica,sans-Serif" font-size="10.00">artgslam_vsc/UnicicleWmr.hpp</text>
</a>
</g>
</g>
<!-- Node1&#45;&gt;Node38 -->
<g id="edge57" class="edge">
<title>Node1&#45;&gt;Node38</title>
<path fill="none" stroke="midnightblue" d="M1610.97,-235.48C1596.8,-212.21 1568.47,-165.66 1553.06,-140.36"/>
<polygon fill="midnightblue" stroke="midnightblue" points="1556.04,-138.51 1547.85,-131.79 1550.06,-142.15 1556.04,-138.51"/>
</g>
<!-- Node40 -->
<g id="node40" class="node">
<title>Node40</title>
<g id="a_node40"><a xlink:href="RightClickMapMenu_8hpp.html" target="_top" xlink:title=" ">
<polygon fill="white" stroke="black" points="1191,-168.5 1191,-198.5 1346,-198.5 1346,-168.5 1191,-168.5"/>
<text text-anchor="start" x="1199" y="-186.5" font-family="Helvetica,sans-Serif" font-size="10.00">artgslam_vsc/RightClickMap</text>
<text text-anchor="middle" x="1268.5" y="-175.5" font-family="Helvetica,sans-Serif" font-size="10.00">Menu.hpp</text>
</a>
</g>
</g>
<!-- Node1&#45;&gt;Node40 -->
<g id="edge59" class="edge">
<title>Node1&#45;&gt;Node40</title>
<path fill="none" stroke="midnightblue" d="M1559.16,-238.33C1502.69,-227.87 1417.75,-212.14 1354.25,-200.38"/>
<polygon fill="midnightblue" stroke="midnightblue" points="1354.72,-196.91 1344.25,-198.53 1353.45,-203.79 1354.72,-196.91"/>
</g>
<!-- Node43 -->
<g id="node43" class="node">
<title>Node43</title>
<g id="a_node43"><a xlink:href="AStar_8hpp.html" target="_top" xlink:title=" ">
<polygon fill="white" stroke="black" points="1364.5,-174 1364.5,-193 1496.5,-193 1496.5,-174 1364.5,-174"/>
<text text-anchor="middle" x="1430.5" y="-181" font-family="Helvetica,sans-Serif" font-size="10.00">artgslam_vsc/AStar.hpp</text>
</a>
</g>
</g>
<!-- Node1&#45;&gt;Node43 -->
<g id="edge68" class="edge">
<title>Node1&#45;&gt;Node43</title>
<path fill="none" stroke="midnightblue" d="M1578.49,-235.4C1544.59,-223.74 1497.01,-207.37 1465.03,-196.38"/>
<polygon fill="midnightblue" stroke="midnightblue" points="1465.83,-192.95 1455.24,-193.01 1463.55,-199.57 1465.83,-192.95"/>
</g>
<!-- Node3 -->
<g id="node3" class="node">
<title>Node3</title>
<g id="a_node3"><a xlink:title=" ">
<polygon fill="white" stroke="#bfbfbf" points="83,-112.5 83,-131.5 234,-131.5 234,-112.5 83,-112.5"/>
<text text-anchor="middle" x="158.5" y="-119.5" font-family="Helvetica,sans-Serif" font-size="10.00">TGUI/Widgets/MenuBar.hpp</text>
</a>
</g>
</g>
<!-- Node2&#45;&gt;Node3 -->
<g id="edge2" class="edge">
<title>Node2&#45;&gt;Node3</title>
<path fill="none" stroke="midnightblue" d="M442.93,-173.98C383.02,-163.24 280.18,-144.81 215.94,-133.29"/>
<polygon fill="midnightblue" stroke="midnightblue" points="216.44,-129.83 205.98,-131.51 215.2,-136.72 216.44,-129.83"/>
</g>
<!-- Node4 -->
<g id="node4" class="node">
<title>Node4</title>
<g id="a_node4"><a xlink:title=" ">
<polygon fill="white" stroke="#bfbfbf" points="252.5,-112.5 252.5,-131.5 386.5,-131.5 386.5,-112.5 252.5,-112.5"/>
<text text-anchor="middle" x="319.5" y="-119.5" font-family="Helvetica,sans-Serif" font-size="10.00">TGUI/Widgets/Label.hpp</text>
</a>
</g>
</g>
<!-- Node2&#45;&gt;Node4 -->
<g id="edge3" class="edge">
<title>Node2&#45;&gt;Node4</title>
<path fill="none" stroke="midnightblue" d="M466,-173.98C436.54,-163.72 386.92,-146.46 353.7,-134.9"/>
<polygon fill="midnightblue" stroke="midnightblue" points="354.55,-131.49 343.95,-131.51 352.25,-138.1 354.55,-131.49"/>
</g>
<!-- Node5 -->
<g id="node5" class="node">
<title>Node5</title>
<g id="a_node5"><a xlink:title=" ">
<polygon fill="white" stroke="#bfbfbf" points="405,-112.5 405,-131.5 576,-131.5 576,-112.5 405,-112.5"/>
<text text-anchor="middle" x="490.5" y="-119.5" font-family="Helvetica,sans-Serif" font-size="10.00">TGUI/Widgets/ToggleButton.hpp</text>
</a>
</g>
</g>
<!-- Node2&#45;&gt;Node5 -->
<g id="edge4" class="edge">
<title>Node2&#45;&gt;Node5</title>
<path fill="none" stroke="midnightblue" d="M490.5,-173.98C490.5,-165.58 490.5,-152.48 490.5,-141.66"/>
<polygon fill="midnightblue" stroke="midnightblue" points="494,-141.51 490.5,-131.51 487,-141.51 494,-141.51"/>
</g>
<!-- Node2&#45;&gt;Node6 -->
<g id="edge5" class="edge">
<title>Node2&#45;&gt;Node6</title>
<path fill="none" stroke="midnightblue" d="M539.21,-173.98C600.57,-163.24 705.89,-144.81 771.67,-133.29"/>
<polygon fill="midnightblue" stroke="midnightblue" points="772.63,-136.68 781.88,-131.51 771.42,-129.79 772.63,-136.68"/>
</g>
<!-- Node7 -->
<g id="node7" class="node">
<title>Node7</title>
<g id="a_node7"><a xlink:title=" ">
<polygon fill="white" stroke="#bfbfbf" points="594,-112.5 594,-131.5 683,-131.5 683,-112.5 594,-112.5"/>
<text text-anchor="middle" x="638.5" y="-119.5" font-family="Helvetica,sans-Serif" font-size="10.00">TGUI/TGUI.hpp</text>
</a>
</g>
</g>
<!-- Node2&#45;&gt;Node7 -->
<g id="edge6" class="edge">
<title>Node2&#45;&gt;Node7</title>
<path fill="none" stroke="midnightblue" d="M511.7,-173.98C536.87,-163.86 579.04,-146.9 607.78,-135.35"/>
<polygon fill="midnightblue" stroke="midnightblue" points="609.36,-138.49 617.33,-131.51 606.75,-131.99 609.36,-138.49"/>
</g>
<!-- Node8 -->
<g id="node8" class="node">
<title>Node8</title>
<g id="a_node8"><a xlink:title=" ">
<polygon fill="white" stroke="#bfbfbf" points="0,-112.5 0,-131.5 65,-131.5 65,-112.5 0,-112.5"/>
<text text-anchor="middle" x="32.5" y="-119.5" font-family="Helvetica,sans-Serif" font-size="10.00">functional</text>
</a>
</g>
</g>
<!-- Node2&#45;&gt;Node8 -->
<g id="edge7" class="edge">
<title>Node2&#45;&gt;Node8</title>
<path fill="none" stroke="midnightblue" d="M415.99,-175.65C334.54,-167.66 199.99,-153.04 75.23,-132.16"/>
<polygon fill="midnightblue" stroke="midnightblue" points="75.56,-128.67 65.12,-130.45 74.4,-135.57 75.56,-128.67"/>
</g>
<!-- Node10 -->
<g id="node10" class="node">
<title>Node10</title>
<g id="a_node10"><a xlink:title=" ">
<polygon fill="white" stroke="#bfbfbf" points="2784,-112.5 2784,-131.5 2839,-131.5 2839,-112.5 2784,-112.5"/>
<text text-anchor="middle" x="2811.5" y="-119.5" font-family="Helvetica,sans-Serif" font-size="10.00">fstream</text>
</a>
</g>
</g>
<!-- Node9&#45;&gt;Node10 -->
<g id="edge9" class="edge">
<title>Node9&#45;&gt;Node10</title>
<path fill="none" stroke="midnightblue" d="M2507.34,-173.99C2573.22,-165.42 2675.54,-151.04 2773.59,-132.03"/>
<polygon fill="midnightblue" stroke="midnightblue" points="2774.54,-135.41 2783.68,-130.05 2773.19,-128.54 2774.54,-135.41"/>
</g>
<!-- Node11 -->
<g id="node11" class="node">
<title>Node11</title>
<g id="a_node11"><a xlink:title=" ">
<polygon fill="white" stroke="#bfbfbf" points="2457.5,-112.5 2457.5,-131.5 2513.5,-131.5 2513.5,-112.5 2457.5,-112.5"/>
<text text-anchor="middle" x="2485.5" y="-119.5" font-family="Helvetica,sans-Serif" font-size="10.00">sstream</text>
</a>
</g>
</g>
<!-- Node9&#45;&gt;Node11 -->
<g id="edge10" class="edge">
<title>Node9&#45;&gt;Node11</title>
<path fill="none" stroke="midnightblue" d="M2445.23,-173.98C2452.28,-165.05 2463.53,-150.81 2472.35,-139.64"/>
<polygon fill="midnightblue" stroke="midnightblue" points="2475.33,-141.53 2478.78,-131.51 2469.83,-137.19 2475.33,-141.53"/>
</g>
<!-- Node12 -->
<g id="node12" class="node">
<title>Node12</title>
<g id="a_node12"><a xlink:title=" ">
<polygon fill="white" stroke="#bfbfbf" points="2721.5,-112.5 2721.5,-131.5 2765.5,-131.5 2765.5,-112.5 2721.5,-112.5"/>
<text text-anchor="middle" x="2743.5" y="-119.5" font-family="Helvetica,sans-Serif" font-size="10.00">string</text>
</a>
</g>
</g>
<!-- Node9&#45;&gt;Node12 -->
<g id="edge11" class="edge">
<title>Node9&#45;&gt;Node12</title>
<path fill="none" stroke="midnightblue" d="M2488.75,-173.99C2542.93,-164.59 2631.6,-148.6 2707.5,-132 2708.77,-131.72 2710.07,-131.43 2711.38,-131.13"/>
<polygon fill="midnightblue" stroke="midnightblue" points="2712.55,-134.45 2721.46,-128.73 2710.93,-127.64 2712.55,-134.45"/>
</g>
<!-- Node13 -->
<g id="node13" class="node">
<title>Node13</title>
<g id="a_node13"><a xlink:title=" ">
<polygon fill="white" stroke="#bfbfbf" points="2265.5,-112.5 2265.5,-131.5 2325.5,-131.5 2325.5,-112.5 2265.5,-112.5"/>
<text text-anchor="middle" x="2295.5" y="-119.5" font-family="Helvetica,sans-Serif" font-size="10.00">iostream</text>
</a>
</g>
</g>
<!-- Node9&#45;&gt;Node13 -->
<g id="edge12" class="edge">
<title>Node9&#45;&gt;Node13</title>
<path fill="none" stroke="midnightblue" d="M2418.01,-173.98C2393.69,-163.86 2352.95,-146.9 2325.18,-135.35"/>
<polygon fill="midnightblue" stroke="midnightblue" points="2326.53,-132.12 2315.95,-131.51 2323.84,-138.58 2326.53,-132.12"/>
</g>
<!-- Node14 -->
<g id="node14" class="node">
<title>Node14</title>
<g id="a_node14"><a xlink:title=" ">
<polygon fill="white" stroke="#bfbfbf" points="2531.5,-112.5 2531.5,-131.5 2587.5,-131.5 2587.5,-112.5 2531.5,-112.5"/>
<text text-anchor="middle" x="2559.5" y="-119.5" font-family="Helvetica,sans-Serif" font-size="10.00">iomanip</text>
</a>
</g>
</g>
<!-- Node9&#45;&gt;Node14 -->
<g id="edge13" class="edge">
<title>Node9&#45;&gt;Node14</title>
<path fill="none" stroke="midnightblue" d="M2455.84,-173.98C2476.05,-164.03 2509.69,-147.49 2533.14,-135.96"/>
<polygon fill="midnightblue" stroke="midnightblue" points="2534.77,-139.06 2542.2,-131.51 2531.68,-132.78 2534.77,-139.06"/>
</g>
<!-- Node9&#45;&gt;Node15 -->
<g id="edge14" class="edge">
<title>Node9&#45;&gt;Node15</title>
<path fill="none" stroke="midnightblue" d="M2355.78,-176.94C2229.65,-168.31 1981.74,-150.71 1771.5,-132 1759.19,-130.9 1745.92,-129.61 1733.52,-128.35"/>
<polygon fill="midnightblue" stroke="midnightblue" points="1733.65,-124.84 1723.34,-127.3 1732.93,-131.8 1733.65,-124.84"/>
</g>
<!-- Node9&#45;&gt;Node19 -->
<g id="edge25" class="edge">
<title>Node9&#45;&gt;Node19</title>
<path fill="none" stroke="midnightblue" d="M2521.34,-182.31C2606.86,-179.29 2721.66,-165.63 2674.5,-112 2658.14,-93.39 2522.31,-80.29 2425.04,-73.2"/>
<polygon fill="midnightblue" stroke="midnightblue" points="2425.08,-69.69 2414.86,-72.47 2424.58,-76.67 2425.08,-69.69"/>
</g>
<!-- Node9&#45;&gt;Node20 -->
<g id="edge20" class="edge">
<title>Node9&#45;&gt;Node20</title>
<path fill="none" stroke="midnightblue" d="M2405.55,-173.98C2364.9,-163.46 2295.71,-145.56 2251.08,-134.01"/>
<polygon fill="midnightblue" stroke="midnightblue" points="2251.95,-130.63 2241.39,-131.51 2250.2,-137.4 2251.95,-130.63"/>
</g>
<!-- Node22 -->
<g id="node22" class="node">
<title>Node22</title>
<g id="a_node22"><a xlink:href="tinyfiledialogs_8h.html" target="_top" xlink:title=" ">
<polygon fill="white" stroke="black" points="2344,-112.5 2344,-131.5 2439,-131.5 2439,-112.5 2344,-112.5"/>
<text text-anchor="middle" x="2391.5" y="-119.5" font-family="Helvetica,sans-Serif" font-size="10.00">tinyfiledialogs.h</text>
</a>
</g>
</g>
<!-- Node9&#45;&gt;Node22 -->
<g id="edge26" class="edge">
<title>Node9&#45;&gt;Node22</title>
<path fill="none" stroke="midnightblue" d="M2431.77,-173.98C2424.72,-165.05 2413.47,-150.81 2404.65,-139.64"/>
<polygon fill="midnightblue" stroke="midnightblue" points="2407.17,-137.19 2398.22,-131.51 2401.67,-141.53 2407.17,-137.19"/>
</g>
<!-- Node16 -->
<g id="node16" class="node">
<title>Node16</title>
<g id="a_node16"><a xlink:title=" ">
<polygon fill="white" stroke="#bfbfbf" points="2133,-56.5 2133,-75.5 2180,-75.5 2180,-56.5 2133,-56.5"/>
<text text-anchor="middle" x="2156.5" y="-63.5" font-family="Helvetica,sans-Serif" font-size="10.00">vector</text>
</a>
</g>
</g>
<!-- Node15&#45;&gt;Node16 -->
<g id="edge15" class="edge">
<title>Node15&#45;&gt;Node16</title>
<path fill="none" stroke="midnightblue" d="M1723.36,-116.92C1738.44,-115.38 1755.76,-113.61 1771.5,-112 1925.17,-96.31 1967.84,-105.08 2122.95,-76.02"/>
<polygon fill="midnightblue" stroke="midnightblue" points="2123.67,-79.45 2132.84,-74.14 2122.37,-72.57 2123.67,-79.45"/>
</g>
<!-- Node17 -->
<g id="node17" class="node">
<title>Node17</title>
<g id="a_node17"><a xlink:title=" ">
<polygon fill="white" stroke="#bfbfbf" points="1609,-56.5 1609,-75.5 1656,-75.5 1656,-56.5 1609,-56.5"/>
<text text-anchor="middle" x="1632.5" y="-63.5" font-family="Helvetica,sans-Serif" font-size="10.00">cmath</text>
</a>
</g>
</g>
<!-- Node15&#45;&gt;Node17 -->
<g id="edge16" class="edge">
<title>Node15&#45;&gt;Node17</title>
<path fill="none" stroke="midnightblue" d="M1675.08,-112.08C1667.65,-104.22 1656.65,-92.57 1647.69,-83.08"/>
<polygon fill="midnightblue" stroke="midnightblue" points="1650.18,-80.62 1640.76,-75.75 1645.09,-85.42 1650.18,-80.62"/>
</g>
<!-- Node15&#45;&gt;Node18 -->
<g id="edge17" class="edge">
<title>Node15&#45;&gt;Node18</title>
<path fill="none" stroke="midnightblue" d="M1683.74,-112.44C1683.64,-98.51 1681.3,-70.99 1665.5,-56 1645.7,-37.22 1578.7,-24.97 1526.83,-18.06"/>
<polygon fill="midnightblue" stroke="midnightblue" points="1527.04,-14.56 1516.67,-16.75 1526.14,-21.51 1527.04,-14.56"/>
</g>
<!-- Node15&#45;&gt;Node19 -->
<g id="edge18" class="edge">
<title>Node15&#45;&gt;Node19</title>
<path fill="none" stroke="midnightblue" d="M1723.35,-116.75C1738.43,-115.18 1755.75,-113.45 1771.5,-112 1930.38,-97.42 2115.12,-82.91 2226.05,-74.45"/>
<polygon fill="midnightblue" stroke="midnightblue" points="2226.51,-77.92 2236.22,-73.68 2225.98,-70.94 2226.51,-77.92"/>
</g>
<!-- Node19&#45;&gt;Node18 -->
<g id="edge19" class="edge">
<title>Node19&#45;&gt;Node18</title>
<path fill="none" stroke="midnightblue" d="M2236.46,-57.06C2231.74,-56.69 2227.07,-56.33 2222.5,-56 1965.47,-37.17 1659.15,-20.95 1527.25,-14.26"/>
<polygon fill="midnightblue" stroke="midnightblue" points="1527.08,-10.75 1516.92,-13.74 1526.73,-17.74 1527.08,-10.75"/>
</g>
<!-- Node20&#45;&gt;Node16 -->
<g id="edge21" class="edge">
<title>Node20&#45;&gt;Node16</title>
<path fill="none" stroke="midnightblue" d="M2199.91,-112.08C2192.34,-104.22 2181.12,-92.57 2171.99,-83.08"/>
<polygon fill="midnightblue" stroke="midnightblue" points="2174.38,-80.53 2164.93,-75.75 2169.34,-85.38 2174.38,-80.53"/>
</g>
<!-- Node20&#45;&gt;Node18 -->
<g id="edge23" class="edge">
<title>Node20&#45;&gt;Node18</title>
<path fill="none" stroke="midnightblue" d="M2208.85,-112.14C2208.87,-97.78 2206.59,-69.65 2189.5,-56 2138.39,-15.17 1695.4,-10.93 1526.52,-10.82"/>
<polygon fill="midnightblue" stroke="midnightblue" points="1526.52,-7.32 1516.52,-10.82 1526.52,-14.32 1526.52,-7.32"/>
</g>
<!-- Node20&#45;&gt;Node19 -->
<g id="edge24" class="edge">
<title>Node20&#45;&gt;Node19</title>
<path fill="none" stroke="midnightblue" d="M2227.04,-112.44C2246.12,-103.64 2276.07,-89.81 2297.94,-79.72"/>
<polygon fill="midnightblue" stroke="midnightblue" points="2299.43,-82.88 2307.05,-75.52 2296.5,-76.53 2299.43,-82.88"/>
</g>
<!-- Node21 -->
<g id="node21" class="node">
<title>Node21</title>
<g id="a_node21"><a xlink:title=" ">
<polygon fill="white" stroke="#bfbfbf" points="2064,-56.5 2064,-75.5 2115,-75.5 2115,-56.5 2064,-56.5"/>
<text text-anchor="middle" x="2089.5" y="-63.5" font-family="Helvetica,sans-Serif" font-size="10.00">math.h</text>
</a>
</g>
</g>
<!-- Node20&#45;&gt;Node21 -->
<g id="edge22" class="edge">
<title>Node20&#45;&gt;Node21</title>
<path fill="none" stroke="midnightblue" d="M2189.64,-112.44C2170.23,-103.64 2139.77,-89.81 2117.54,-79.72"/>
<polygon fill="midnightblue" stroke="midnightblue" points="2118.82,-76.46 2108.27,-75.52 2115.93,-82.84 2118.82,-76.46"/>
</g>
<!-- Node23&#45;&gt;Node10 -->
<g id="edge40" class="edge">
<title>Node23&#45;&gt;Node10</title>
<path fill="none" stroke="midnightblue" d="M2972.56,-173.98C2939.9,-163.64 2884.68,-146.16 2848.16,-134.6"/>
<polygon fill="midnightblue" stroke="midnightblue" points="2848.98,-131.19 2838.39,-131.51 2846.86,-137.86 2848.98,-131.19"/>
</g>
<!-- Node23&#45;&gt;Node12 -->
<g id="edge38" class="edge">
<title>Node23&#45;&gt;Node12</title>
<path fill="none" stroke="midnightblue" d="M2958.47,-173.93C2915.46,-164.79 2845.69,-149.54 2775.71,-131.94"/>
<polygon fill="midnightblue" stroke="midnightblue" points="2776.39,-128.5 2765.84,-129.44 2774.68,-135.29 2776.39,-128.5"/>
</g>
<!-- Node23&#45;&gt;Node13 -->
<g id="edge41" class="edge">
<title>Node23&#45;&gt;Node13</title>
<path fill="none" stroke="midnightblue" d="M2918.33,-180.13C2792.77,-175.6 2544.16,-163.24 2335.5,-132 2335.4,-131.98 2335.3,-131.97 2335.2,-131.95"/>
<polygon fill="midnightblue" stroke="midnightblue" points="2336.01,-128.54 2325.55,-130.25 2334.79,-135.44 2336.01,-128.54"/>
</g>
<!-- Node23&#45;&gt;Node16 -->
<g id="edge39" class="edge">
<title>Node23&#45;&gt;Node16</title>
<path fill="none" stroke="midnightblue" d="M2986.78,-173.82C2961.15,-156.53 2903.86,-118.84 2881.5,-112 2742.31,-69.44 2372.46,-89.16 2227.5,-76 2215.25,-74.89 2201.86,-73.29 2190.04,-71.75"/>
<polygon fill="midnightblue" stroke="midnightblue" points="2190.5,-68.28 2180.12,-70.42 2189.57,-75.22 2190.5,-68.28"/>
</g>
<!-- Node23&#45;&gt;Node17 -->
<g id="edge42" class="edge">
<title>Node23&#45;&gt;Node17</title>
<path fill="none" stroke="midnightblue" d="M2976.89,-173.92C2952.81,-164.53 2913.81,-148.6 2881.5,-132 2866.25,-124.16 2864.93,-116.92 2848.5,-112 2790.37,-94.59 1856.85,-72.18 1666.3,-67.77"/>
<polygon fill="midnightblue" stroke="midnightblue" points="1666.14,-64.27 1656.06,-67.54 1665.97,-71.26 1666.14,-64.27"/>
</g>
<!-- Node24 -->
<g id="node24" class="node">
<title>Node24</title>
<g id="a_node24"><a xlink:title=" ">
<polygon fill="white" stroke="#bfbfbf" points="2606,-112.5 2606,-131.5 2665,-131.5 2665,-112.5 2606,-112.5"/>
<text text-anchor="middle" x="2635.5" y="-119.5" font-family="Helvetica,sans-Serif" font-size="10.00">ros/ros.h</text>
</a>
</g>
</g>
<!-- Node23&#45;&gt;Node24 -->
<g id="edge29" class="edge">
<title>Node23&#45;&gt;Node24</title>
<path fill="none" stroke="midnightblue" d="M2947.35,-173.98C2873.83,-161.96 2741.32,-140.3 2675.23,-129.49"/>
<polygon fill="midnightblue" stroke="midnightblue" points="2675.65,-126.02 2665.22,-127.86 2674.52,-132.92 2675.65,-126.02"/>
</g>
<!-- Node25 -->
<g id="node25" class="node">
<title>Node25</title>
<g id="a_node25"><a xlink:title=" ">
<polygon fill="white" stroke="#bfbfbf" points="2933.5,-112.5 2933.5,-131.5 3065.5,-131.5 3065.5,-112.5 2933.5,-112.5"/>
<text text-anchor="middle" x="2999.5" y="-119.5" font-family="Helvetica,sans-Serif" font-size="10.00">geometry_msgs/Twist.h</text>
</a>
</g>
</g>
<!-- Node23&#45;&gt;Node25 -->
<g id="edge30" class="edge">
<title>Node23&#45;&gt;Node25</title>
<path fill="none" stroke="midnightblue" d="M2999.5,-173.98C2999.5,-165.58 2999.5,-152.48 2999.5,-141.66"/>
<polygon fill="midnightblue" stroke="midnightblue" points="3003,-141.51 2999.5,-131.51 2996,-141.51 3003,-141.51"/>
</g>
<!-- Node26 -->
<g id="node26" class="node">
<title>Node26</title>
<g id="a_node26"><a xlink:title=" ">
<polygon fill="white" stroke="#bfbfbf" points="3083.5,-112.5 3083.5,-131.5 3189.5,-131.5 3189.5,-112.5 3083.5,-112.5"/>
<text text-anchor="middle" x="3136.5" y="-119.5" font-family="Helvetica,sans-Serif" font-size="10.00">sensor_msgs/Joy.h</text>
</a>
</g>
</g>
<!-- Node23&#45;&gt;Node26 -->
<g id="edge31" class="edge">
<title>Node23&#45;&gt;Node26</title>
<path fill="none" stroke="midnightblue" d="M3019.13,-173.98C3042.32,-163.9 3081.12,-147.05 3107.71,-135.5"/>
<polygon fill="midnightblue" stroke="midnightblue" points="3109.13,-138.7 3116.91,-131.51 3106.34,-132.28 3109.13,-138.7"/>
</g>
<!-- Node27 -->
<g id="node27" class="node">
<title>Node27</title>
<g id="a_node27"><a xlink:title=" ">
<polygon fill="white" stroke="#bfbfbf" points="3207.5,-112.5 3207.5,-131.5 3351.5,-131.5 3351.5,-112.5 3207.5,-112.5"/>
<text text-anchor="middle" x="3279.5" y="-119.5" font-family="Helvetica,sans-Serif" font-size="10.00">geometry_msgs/Point32.h</text>
</a>
</g>
</g>
<!-- Node23&#45;&gt;Node27 -->
<g id="edge32" class="edge">
<title>Node23&#45;&gt;Node27</title>
<path fill="none" stroke="midnightblue" d="M3039.62,-173.98C3089.62,-163.35 3175.1,-145.18 3229.37,-133.65"/>
<polygon fill="midnightblue" stroke="midnightblue" points="3230.4,-137.01 3239.46,-131.51 3228.95,-130.16 3230.4,-137.01"/>
</g>
<!-- Node28 -->
<g id="node28" class="node">
<title>Node28</title>
<g id="a_node28"><a xlink:title=" ">
<polygon fill="white" stroke="#bfbfbf" points="3370,-112.5 3370,-131.5 3515,-131.5 3515,-112.5 3370,-112.5"/>
<text text-anchor="middle" x="3442.5" y="-119.5" font-family="Helvetica,sans-Serif" font-size="10.00">sensor_msgs/PointCloud.h</text>
</a>
</g>
</g>
<!-- Node23&#45;&gt;Node28 -->
<g id="edge33" class="edge">
<title>Node23&#45;&gt;Node28</title>
<path fill="none" stroke="midnightblue" d="M3062.97,-173.98C3143.9,-163.11 3283.54,-144.35 3369,-132.87"/>
<polygon fill="midnightblue" stroke="midnightblue" points="3369.7,-136.31 3379.15,-131.51 3368.77,-129.37 3369.7,-136.31"/>
</g>
<!-- Node29 -->
<g id="node29" class="node">
<title>Node29</title>
<g id="a_node29"><a xlink:title=" ">
<polygon fill="white" stroke="#bfbfbf" points="3533,-112.5 3533,-131.5 3658,-131.5 3658,-112.5 3533,-112.5"/>
<text text-anchor="middle" x="3595.5" y="-119.5" font-family="Helvetica,sans-Serif" font-size="10.00">nav_msgs/Odometry.h</text>
</a>
</g>
</g>
<!-- Node23&#45;&gt;Node29 -->
<g id="edge34" class="edge">
<title>Node23&#45;&gt;Node29</title>
<path fill="none" stroke="midnightblue" d="M3080.52,-175.47C3181.61,-166.53 3360.01,-150.18 3522.6,-132.19"/>
<polygon fill="midnightblue" stroke="midnightblue" points="3523.24,-135.64 3532.79,-131.05 3522.47,-128.68 3523.24,-135.64"/>
</g>
<!-- Node30 -->
<g id="node30" class="node">
<title>Node30</title>
<g id="a_node30"><a xlink:title=" ">
<polygon fill="white" stroke="#bfbfbf" points="3676.5,-112.5 3676.5,-131.5 3828.5,-131.5 3828.5,-112.5 3676.5,-112.5"/>
<text text-anchor="middle" x="3752.5" y="-119.5" font-family="Helvetica,sans-Serif" font-size="10.00">nav_msgs/OccupancyGrid.h</text>
</a>
</g>
</g>
<!-- Node23&#45;&gt;Node30 -->
<g id="edge35" class="edge">
<title>Node23&#45;&gt;Node30</title>
<path fill="none" stroke="midnightblue" d="M3080.54,-177.16C3204.39,-168.83 3448.44,-151.72 3666.04,-132.11"/>
<polygon fill="midnightblue" stroke="midnightblue" points="3666.41,-135.59 3676.06,-131.2 3665.78,-128.62 3666.41,-135.59"/>
</g>
<!-- Node31 -->
<g id="node31" class="node">
<title>Node31</title>
<g id="a_node31"><a xlink:title=" ">
<polygon fill="white" stroke="#bfbfbf" points="3846.5,-112.5 3846.5,-131.5 3946.5,-131.5 3946.5,-112.5 3846.5,-112.5"/>
<text text-anchor="middle" x="3896.5" y="-119.5" font-family="Helvetica,sans-Serif" font-size="10.00">std_msgs/Int32.h</text>
</a>
</g>
</g>
<!-- Node23&#45;&gt;Node31 -->
<g id="edge36" class="edge">
<title>Node23&#45;&gt;Node31</title>
<path fill="none" stroke="midnightblue" d="M3080.6,-180.07C3228.69,-175.1 3552.96,-161.71 3836.27,-132.03"/>
<polygon fill="midnightblue" stroke="midnightblue" points="3836.75,-135.5 3846.33,-130.97 3836.02,-128.54 3836.75,-135.5"/>
</g>
<!-- Node32 -->
<g id="node32" class="node">
<title>Node32</title>
<g id="a_node32"><a xlink:title=" ">
<polygon fill="white" stroke="#bfbfbf" points="3964.5,-112.5 3964.5,-131.5 4102.5,-131.5 4102.5,-112.5 3964.5,-112.5"/>
<text text-anchor="middle" x="4033.5" y="-119.5" font-family="Helvetica,sans-Serif" font-size="10.00">tf/transform_datatypes.h</text>
</a>
</g>
</g>
<!-- Node23&#45;&gt;Node32 -->
<g id="edge37" class="edge">
<title>Node23&#45;&gt;Node32</title>
<path fill="none" stroke="midnightblue" d="M3080.51,-179.92C3243.73,-174.35 3624.02,-159.5 3953.96,-132.08"/>
<polygon fill="midnightblue" stroke="midnightblue" points="3954.53,-135.54 3964.2,-131.22 3953.94,-128.57 3954.53,-135.54"/>
</g>
<!-- Node33&#45;&gt;Node6 -->
<g id="edge47" class="edge">
<title>Node33&#45;&gt;Node6</title>
<path fill="none" stroke="midnightblue" d="M1700.21,-177.8C1518.3,-167.71 1096.11,-144.01 931.5,-132.05"/>
<polygon fill="midnightblue" stroke="midnightblue" points="931.74,-128.55 921.51,-131.31 931.22,-135.54 931.74,-128.55"/>
</g>
<!-- Node33&#45;&gt;Node13 -->
<g id="edge45" class="edge">
<title>Node33&#45;&gt;Node13</title>
<path fill="none" stroke="midnightblue" d="M1870.78,-176.63C1963.43,-169.51 2115.91,-155.65 2255.28,-132.22"/>
<polygon fill="midnightblue" stroke="midnightblue" points="2256.02,-135.65 2265.29,-130.52 2254.84,-128.75 2256.02,-135.65"/>
</g>
<!-- Node33&#45;&gt;Node18 -->
<g id="edge46" class="edge">
<title>Node33&#45;&gt;Node18</title>
<path fill="none" stroke="midnightblue" d="M1781.55,-173.96C1770.3,-150.65 1735.58,-85.71 1685.5,-56 1637.19,-27.34 1573.79,-16.62 1526.77,-12.76"/>
<polygon fill="midnightblue" stroke="midnightblue" points="1526.93,-9.26 1516.69,-12.02 1526.41,-16.24 1526.93,-9.26"/>
</g>
<!-- Node33&#45;&gt;Node24 -->
<g id="edge50" class="edge">
<title>Node33&#45;&gt;Node24</title>
<path fill="none" stroke="midnightblue" d="M1870.62,-181.8C2017.05,-179.57 2326.04,-170.47 2595.8,-131.83"/>
<polygon fill="midnightblue" stroke="midnightblue" points="2596.39,-135.29 2605.79,-130.39 2595.39,-128.36 2596.39,-135.29"/>
</g>
<!-- Node34 -->
<g id="node34" class="node">
<title>Node34</title>
<g id="a_node34"><a xlink:title=" ">
<polygon fill="white" stroke="#bfbfbf" points="1780,-112.5 1780,-131.5 1925,-131.5 1925,-112.5 1780,-112.5"/>
<text text-anchor="middle" x="1852.5" y="-119.5" font-family="Helvetica,sans-Serif" font-size="10.00">TGUI/Widgets/EditBox.hpp</text>
</a>
</g>
</g>
<!-- Node33&#45;&gt;Node34 -->
<g id="edge48" class="edge">
<title>Node33&#45;&gt;Node34</title>
<path fill="none" stroke="midnightblue" d="M1795.1,-173.98C1805.55,-164.7 1822.47,-149.67 1835.24,-138.33"/>
<polygon fill="midnightblue" stroke="midnightblue" points="1837.77,-140.77 1842.92,-131.51 1833.12,-135.53 1837.77,-140.77"/>
</g>
<!-- Node35 -->
<g id="node35" class="node">
<title>Node35</title>
<g id="a_node35"><a xlink:title=" ">
<polygon fill="white" stroke="#bfbfbf" points="1943.5,-112.5 1943.5,-131.5 2083.5,-131.5 2083.5,-112.5 1943.5,-112.5"/>
<text text-anchor="middle" x="2013.5" y="-119.5" font-family="Helvetica,sans-Serif" font-size="10.00">TGUI/Widgets/Button.hpp</text>
</a>
</g>
</g>
<!-- Node33&#45;&gt;Node35 -->
<g id="edge49" class="edge">
<title>Node33&#45;&gt;Node35</title>
<path fill="none" stroke="midnightblue" d="M1818.17,-173.98C1858.38,-163.48 1926.76,-145.64 1971.02,-134.09"/>
<polygon fill="midnightblue" stroke="midnightblue" points="1972.1,-137.42 1980.89,-131.51 1970.33,-130.65 1972.1,-137.42"/>
</g>
<!-- Node36 -->
<g id="node36" class="node">
<title>Node36</title>
<g id="a_node36"><a xlink:title=" ">
<polygon fill="white" stroke="#bfbfbf" points="1254.5,-112.5 1254.5,-131.5 1298.5,-131.5 1298.5,-112.5 1254.5,-112.5"/>
<text text-anchor="middle" x="1276.5" y="-119.5" font-family="Helvetica,sans-Serif" font-size="10.00">regex</text>
</a>
</g>
</g>
<!-- Node33&#45;&gt;Node36 -->
<g id="edge51" class="edge">
<title>Node33&#45;&gt;Node36</title>
<path fill="none" stroke="midnightblue" d="M1707.96,-173.97C1620.03,-164.2 1472.38,-147.56 1345.5,-132 1333.47,-130.53 1320.28,-128.83 1308.68,-127.3"/>
<polygon fill="midnightblue" stroke="midnightblue" points="1308.92,-123.8 1298.55,-125.96 1308.01,-130.74 1308.92,-123.8"/>
</g>
<!-- Node37 -->
<g id="node37" class="node">
<title>Node37</title>
<g id="a_node37"><a xlink:title=" ">
<polygon fill="white" stroke="#bfbfbf" points="2102,-112.5 2102,-131.5 2151,-131.5 2151,-112.5 2102,-112.5"/>
<text text-anchor="middle" x="2126.5" y="-119.5" font-family="Helvetica,sans-Serif" font-size="10.00">cctype</text>
</a>
</g>
</g>
<!-- Node33&#45;&gt;Node37 -->
<g id="edge52" class="edge">
<title>Node33&#45;&gt;Node37</title>
<path fill="none" stroke="midnightblue" d="M1848.16,-173.99C1908.24,-165.42 2001.67,-151.04 2091.84,-131.97"/>
<polygon fill="midnightblue" stroke="midnightblue" points="2092.64,-135.38 2101.68,-129.86 2091.17,-128.53 2092.64,-135.38"/>
</g>
<!-- Node33&#45;&gt;Node38 -->
<g id="edge53" class="edge">
<title>Node33&#45;&gt;Node38</title>
<path fill="none" stroke="midnightblue" d="M1750.68,-173.98C1707.65,-163.44 1634.33,-145.49 1587.19,-133.94"/>
<polygon fill="midnightblue" stroke="midnightblue" points="1587.8,-130.49 1577.25,-131.51 1586.13,-137.29 1587.8,-130.49"/>
</g>
<!-- Node38&#45;&gt;Node17 -->
<g id="edge56" class="edge">
<title>Node38&#45;&gt;Node17</title>
<path fill="none" stroke="midnightblue" d="M1556.96,-112.32C1571,-103.9 1592.55,-90.97 1609.04,-81.07"/>
<polygon fill="midnightblue" stroke="midnightblue" points="1611.3,-83.8 1618.08,-75.65 1607.7,-77.8 1611.3,-83.8"/>
</g>
<!-- Node38&#45;&gt;Node18 -->
<g id="edge54" class="edge">
<title>Node38&#45;&gt;Node18</title>
<path fill="none" stroke="midnightblue" d="M1525.04,-112.48C1511.04,-104.79 1491.91,-92.2 1480.5,-76 1470.87,-62.33 1466.08,-43.8 1463.72,-30.01"/>
<polygon fill="midnightblue" stroke="midnightblue" points="1467.13,-29.17 1462.26,-19.77 1460.2,-30.16 1467.13,-29.17"/>
</g>
<!-- Node39 -->
<g id="node39" class="node">
<title>Node39</title>
<g id="a_node39"><a xlink:href="MyConstants_8hpp.html" target="_top" xlink:title=" ">
<polygon fill="white" stroke="black" points="1490,-56.5 1490,-75.5 1591,-75.5 1591,-56.5 1490,-56.5"/>
<text text-anchor="middle" x="1540.5" y="-63.5" font-family="Helvetica,sans-Serif" font-size="10.00">MyConstants.hpp</text>
</a>
</g>
</g>
<!-- Node38&#45;&gt;Node39 -->
<g id="edge55" class="edge">
<title>Node38&#45;&gt;Node39</title>
<path fill="none" stroke="midnightblue" d="M1542.17,-112.08C1541.91,-105.01 1541.53,-94.86 1541.2,-85.99"/>
<polygon fill="midnightblue" stroke="midnightblue" points="1544.69,-85.61 1540.82,-75.75 1537.7,-85.87 1544.69,-85.61"/>
</g>
<!-- Node40&#45;&gt;Node6 -->
<g id="edge61" class="edge">
<title>Node40&#45;&gt;Node6</title>
<path fill="none" stroke="midnightblue" d="M1190.95,-171.97C1109.54,-160.91 982.55,-143.66 903.06,-132.86"/>
<polygon fill="midnightblue" stroke="midnightblue" points="903.51,-129.39 893.13,-131.51 902.57,-136.32 903.51,-129.39"/>
</g>
<!-- Node40&#45;&gt;Node13 -->
<g id="edge64" class="edge">
<title>Node40&#45;&gt;Node13</title>
<path fill="none" stroke="midnightblue" d="M1346.22,-169.05C1349.35,-168.67 1352.45,-168.31 1355.5,-168 1751.29,-127.28 1858.24,-185.5 2255.28,-132.07"/>
<polygon fill="midnightblue" stroke="midnightblue" points="2255.88,-135.52 2265.32,-130.7 2254.94,-128.58 2255.88,-135.52"/>
</g>
<!-- Node40&#45;&gt;Node15 -->
<g id="edge66" class="edge">
<title>Node40&#45;&gt;Node15</title>
<path fill="none" stroke="midnightblue" d="M1346.27,-169.39C1349.38,-168.91 1352.47,-168.45 1355.5,-168 1476.47,-150.15 1509.89,-151.49 1634.08,-132.15"/>
<polygon fill="midnightblue" stroke="midnightblue" points="1634.64,-135.61 1643.98,-130.6 1633.56,-128.69 1634.64,-135.61"/>
</g>
<!-- Node40&#45;&gt;Node18 -->
<g id="edge60" class="edge">
<title>Node40&#45;&gt;Node18</title>
<path fill="none" stroke="midnightblue" d="M1257.69,-168.37C1251.01,-158.71 1243.04,-145.29 1239.5,-132 1230.69,-98.96 1227.32,-80.18 1251.5,-56 1271.62,-35.88 1342.43,-23.75 1396.31,-17.24"/>
<polygon fill="midnightblue" stroke="midnightblue" points="1396.97,-20.69 1406.5,-16.05 1396.16,-13.73 1396.97,-20.69"/>
</g>
<!-- Node40&#45;&gt;Node20 -->
<g id="edge67" class="edge">
<title>Node40&#45;&gt;Node20</title>
<path fill="none" stroke="midnightblue" d="M1346.22,-169.07C1349.35,-168.68 1352.45,-168.32 1355.5,-168 1708.36,-130.84 1802.98,-172.32 2158.69,-132.05"/>
<polygon fill="midnightblue" stroke="midnightblue" points="2159.22,-135.51 2168.75,-130.9 2158.42,-128.56 2159.22,-135.51"/>
</g>
<!-- Node40&#45;&gt;Node36 -->
<g id="edge65" class="edge">
<title>Node40&#45;&gt;Node36</title>
<path fill="none" stroke="midnightblue" d="M1270.4,-168.4C1271.47,-160.38 1272.84,-150.23 1274,-141.57"/>
<polygon fill="midnightblue" stroke="midnightblue" points="1277.47,-142.04 1275.34,-131.66 1270.53,-141.1 1277.47,-142.04"/>
</g>
<!-- Node41 -->
<g id="node41" class="node">
<title>Node41</title>
<g id="a_node41"><a xlink:title=" ">
<polygon fill="white" stroke="#bfbfbf" points="1043,-112.5 1043,-131.5 1160,-131.5 1160,-112.5 1043,-112.5"/>
<text text-anchor="middle" x="1101.5" y="-119.5" font-family="Helvetica,sans-Serif" font-size="10.00">TGUI/AllWidgets.hpp</text>
</a>
</g>
</g>
<!-- Node40&#45;&gt;Node41 -->
<g id="edge62" class="edge">
<title>Node40&#45;&gt;Node41</title>
<path fill="none" stroke="midnightblue" d="M1228.92,-168.4C1200.4,-158.24 1162.33,-144.67 1135.24,-135.02"/>
<polygon fill="midnightblue" stroke="midnightblue" points="1136.39,-131.72 1125.8,-131.66 1134.05,-138.31 1136.39,-131.72"/>
</g>
<!-- Node42 -->
<g id="node42" class="node">
<title>Node42</title>
<g id="a_node42"><a xlink:title=" ">
<polygon fill="white" stroke="#bfbfbf" points="940,-112.5 940,-131.5 1025,-131.5 1025,-112.5 940,-112.5"/>
<text text-anchor="middle" x="982.5" y="-119.5" font-family="Helvetica,sans-Serif" font-size="10.00">ros/package.h</text>
</a>
</g>
</g>
<!-- Node40&#45;&gt;Node42 -->
<g id="edge63" class="edge">
<title>Node40&#45;&gt;Node42</title>
<path fill="none" stroke="midnightblue" d="M1201.08,-168.47C1149.7,-157.78 1080.03,-143.29 1033.29,-133.57"/>
<polygon fill="midnightblue" stroke="midnightblue" points="1033.89,-130.12 1023.39,-131.51 1032.47,-136.97 1033.89,-130.12"/>
</g>
<!-- Node43&#45;&gt;Node15 -->
<g id="edge72" class="edge">
<title>Node43&#45;&gt;Node15</title>
<path fill="none" stroke="midnightblue" d="M1466.75,-173.98C1511.65,-163.42 1588.21,-145.41 1637.28,-133.87"/>
<polygon fill="midnightblue" stroke="midnightblue" points="1638.39,-137.21 1647.32,-131.51 1636.78,-130.39 1638.39,-137.21"/>
</g>
<!-- Node43&#45;&gt;Node17 -->
<g id="edge69" class="edge">
<title>Node43&#45;&gt;Node17</title>
<path fill="none" stroke="midnightblue" d="M1430.19,-173.74C1430.18,-158.85 1432.42,-128.62 1449.5,-112 1496.44,-66.34 1529.96,-90.59 1598.78,-75.92"/>
<polygon fill="midnightblue" stroke="midnightblue" points="1599.8,-79.27 1608.73,-73.58 1598.19,-72.46 1599.8,-79.27"/>
</g>
<!-- Node43&#45;&gt;Node18 -->
<g id="edge71" class="edge">
<title>Node43&#45;&gt;Node18</title>
<path fill="none" stroke="midnightblue" d="M1388.87,-173.91C1337.07,-162.81 1254.31,-143.54 1245.5,-132 1240.11,-124.94 1243.58,-120.68 1245.5,-112 1251.42,-85.2 1250.24,-73.35 1271.5,-56 1306.41,-27.51 1356.3,-16.48 1396.19,-12.45"/>
<polygon fill="midnightblue" stroke="midnightblue" points="1396.71,-15.92 1406.37,-11.55 1396.1,-8.95 1396.71,-15.92"/>
</g>
<!-- Node44 -->
<g id="node44" class="node">
<title>Node44</title>
<g id="a_node44"><a xlink:title=" ">
<polygon fill="white" stroke="#bfbfbf" points="1355,-112.5 1355,-131.5 1402,-131.5 1402,-112.5 1355,-112.5"/>
<text text-anchor="middle" x="1378.5" y="-119.5" font-family="Helvetica,sans-Serif" font-size="10.00">queue</text>
</a>
</g>
</g>
<!-- Node43&#45;&gt;Node44 -->
<g id="edge70" class="edge">
<title>Node43&#45;&gt;Node44</title>
<path fill="none" stroke="midnightblue" d="M1423.05,-173.98C1415.17,-164.96 1402.56,-150.52 1392.76,-139.31"/>
<polygon fill="midnightblue" stroke="midnightblue" points="1395.15,-136.74 1385.94,-131.51 1389.88,-141.34 1395.15,-136.74"/>
</g>
<!-- Node45 -->
<g id="node45" class="node">
<title>Node45</title>
<g id="a_node45"><a xlink:href="Node_8hpp.html" target="_top" xlink:title=" ">
<polygon fill="white" stroke="black" points="1281,-56.5 1281,-75.5 1412,-75.5 1412,-56.5 1281,-56.5"/>
<text text-anchor="middle" x="1346.5" y="-63.5" font-family="Helvetica,sans-Serif" font-size="10.00">artgslam_vsc/Node.hpp</text>
</a>
</g>
</g>
<!-- Node43&#45;&gt;Node45 -->
<g id="edge73" class="edge">
<title>Node43&#45;&gt;Node45</title>
<path fill="none" stroke="midnightblue" d="M1402.12,-173.98C1382.39,-166.41 1357.56,-153.18 1345.5,-132 1337.48,-117.91 1338.78,-99.18 1341.46,-85.44"/>
<polygon fill="midnightblue" stroke="midnightblue" points="1344.87,-86.21 1343.75,-75.68 1338.05,-84.61 1344.87,-86.21"/>
</g>
<!-- Node45&#45;&gt;Node18 -->
<g id="edge74" class="edge">
<title>Node45&#45;&gt;Node18</title>
<path fill="none" stroke="midnightblue" d="M1364.72,-56.44C1383.4,-47.68 1412.66,-33.94 1434.12,-23.86"/>
<polygon fill="midnightblue" stroke="midnightblue" points="1435.8,-26.93 1443.36,-19.52 1432.82,-20.6 1435.8,-26.93"/>
</g>
</g>
</svg>
