<?xml version="1.0" encoding="UTF-8" standalone="no"?>
<!DOCTYPE svg PUBLIC "-//W3C//DTD SVG 1.1//EN"
 "http://www.w3.org/Graphics/SVG/1.1/DTD/svg11.dtd">
<!-- Generated by graphviz version 2.43.0 (0)
 -->
<!-- Title: include/artgslam_vsc/MenuBar.hpp Pages: 1 -->
<svg width="892pt" height="95pt"
 viewBox="0.00 0.00 892.00 95.00" xmlns="http://www.w3.org/2000/svg" xmlns:xlink="http://www.w3.org/1999/xlink">
<g id="graph0" class="graph" transform="scale(1 1) rotate(0) translate(4 91)">
<title>include/artgslam_vsc/MenuBar.hpp</title>
<polygon fill="white" stroke="transparent" points="-4,4 -4,-91 888,-91 888,4 -4,4"/>
<!-- Node1 -->
<g id="node1" class="node">
<title>Node1</title>
<g id="a_node1"><a xlink:title=" ">
<polygon fill="#bfbfbf" stroke="black" points="444.5,-56.5 444.5,-86.5 564.5,-86.5 564.5,-56.5 444.5,-56.5"/>
<text text-anchor="start" x="452.5" y="-74.5" font-family="Helvetica,sans-Serif" font-size="10.00">include/artgslam_vsc</text>
<text text-anchor="middle" x="504.5" y="-63.5" font-family="Helvetica,sans-Serif" font-size="10.00">/MenuBar.hpp</text>
</a>
</g>
</g>
<!-- Node2 -->
<g id="node2" class="node">
<title>Node2</title>
<g id="a_node2"><a xlink:title=" ">
<polygon fill="white" stroke="#bfbfbf" points="0,-0.5 0,-19.5 151,-19.5 151,-0.5 0,-0.5"/>
<text text-anchor="middle" x="75.5" y="-7.5" font-family="Helvetica,sans-Serif" font-size="10.00">TGUI/Widgets/MenuBar.hpp</text>
</a>
</g>
</g>
<!-- Node1&#45;&gt;Node2 -->
<g id="edge1" class="edge">
<title>Node1&#45;&gt;Node2</title>
<path fill="none" stroke="midnightblue" d="M444.4,-62.16C366.37,-51.34 230.34,-32.48 147.07,-20.93"/>
<polygon fill="midnightblue" stroke="midnightblue" points="147.32,-17.43 136.93,-19.52 146.35,-24.36 147.32,-17.43"/>
</g>
<!-- Node3 -->
<g id="node3" class="node">
<title>Node3</title>
<g id="a_node3"><a xlink:title=" ">
<polygon fill="white" stroke="#bfbfbf" points="169.5,-0.5 169.5,-19.5 303.5,-19.5 303.5,-0.5 169.5,-0.5"/>
<text text-anchor="middle" x="236.5" y="-7.5" font-family="Helvetica,sans-Serif" font-size="10.00">TGUI/Widgets/Label.hpp</text>
</a>
</g>
</g>
<!-- Node1&#45;&gt;Node3 -->
<g id="edge2" class="edge">
<title>Node1&#45;&gt;Node3</title>
<path fill="none" stroke="midnightblue" d="M444.36,-57.15C396.25,-46.47 329.67,-31.69 284.95,-21.76"/>
<polygon fill="midnightblue" stroke="midnightblue" points="285.44,-18.28 274.92,-19.53 283.92,-25.11 285.44,-18.28"/>
</g>
<!-- Node4 -->
<g id="node4" class="node">
<title>Node4</title>
<g id="a_node4"><a xlink:title=" ">
<polygon fill="white" stroke="#bfbfbf" points="322,-0.5 322,-19.5 493,-19.5 493,-0.5 322,-0.5"/>
<text text-anchor="middle" x="407.5" y="-7.5" font-family="Helvetica,sans-Serif" font-size="10.00">TGUI/Widgets/ToggleButton.hpp</text>
</a>
</g>
</g>
<!-- Node1&#45;&gt;Node4 -->
<g id="edge3" class="edge">
<title>Node1&#45;&gt;Node4</title>
<path fill="none" stroke="midnightblue" d="M481.51,-56.4C466.11,-46.95 445.91,-34.56 430.5,-25.11"/>
<polygon fill="midnightblue" stroke="midnightblue" points="431.97,-21.9 421.61,-19.66 428.31,-27.87 431.97,-21.9"/>
</g>
<!-- Node5 -->
<g id="node5" class="node">
<title>Node5</title>
<g id="a_node5"><a xlink:title=" ">
<polygon fill="white" stroke="#bfbfbf" points="511.5,-0.5 511.5,-19.5 693.5,-19.5 693.5,-0.5 511.5,-0.5"/>
<text text-anchor="middle" x="602.5" y="-7.5" font-family="Helvetica,sans-Serif" font-size="10.00">TGUI/Backend/SFML&#45;Graphics.hpp</text>
</a>
</g>
</g>
<!-- Node1&#45;&gt;Node5 -->
<g id="edge4" class="edge">
<title>Node1&#45;&gt;Node5</title>
<path fill="none" stroke="midnightblue" d="M527.72,-56.4C543.29,-46.95 563.7,-34.56 579.26,-25.11"/>
<polygon fill="midnightblue" stroke="midnightblue" points="581.51,-27.84 588.24,-19.66 577.88,-21.86 581.51,-27.84"/>
</g>
<!-- Node6 -->
<g id="node6" class="node">
<title>Node6</title>
<g id="a_node6"><a xlink:title=" ">
<polygon fill="white" stroke="#bfbfbf" points="712,-0.5 712,-19.5 801,-19.5 801,-0.5 712,-0.5"/>
<text text-anchor="middle" x="756.5" y="-7.5" font-family="Helvetica,sans-Serif" font-size="10.00">TGUI/TGUI.hpp</text>
</a>
</g>
</g>
<!-- Node1&#45;&gt;Node6 -->
<g id="edge5" class="edge">
<title>Node1&#45;&gt;Node6</title>
<path fill="none" stroke="midnightblue" d="M563.9,-56.47C608.8,-45.87 669.53,-31.53 710.71,-21.81"/>
<polygon fill="midnightblue" stroke="midnightblue" points="711.54,-25.21 720.47,-19.51 709.94,-18.4 711.54,-25.21"/>
</g>
<!-- Node7 -->
<g id="node7" class="node">
<title>Node7</title>
<g id="a_node7"><a xlink:title=" ">
<polygon fill="white" stroke="#bfbfbf" points="819,-0.5 819,-19.5 884,-19.5 884,-0.5 819,-0.5"/>
<text text-anchor="middle" x="851.5" y="-7.5" font-family="Helvetica,sans-Serif" font-size="10.00">functional</text>
</a>
</g>
</g>
<!-- Node1&#45;&gt;Node7 -->
<g id="edge6" class="edge">
<title>Node1&#45;&gt;Node7</title>
<path fill="none" stroke="midnightblue" d="M564.76,-61.51C624.42,-52.4 718.59,-37.43 808.99,-20.22"/>
<polygon fill="midnightblue" stroke="midnightblue" points="809.7,-23.65 818.86,-18.33 808.38,-16.77 809.7,-23.65"/>
</g>
</g>
</svg>
