<?xml version="1.0" encoding="UTF-8" standalone="no"?>
<!DOCTYPE svg PUBLIC "-//W3C//DTD SVG 1.1//EN"
 "http://www.w3.org/Graphics/SVG/1.1/DTD/svg11.dtd">
<!-- Generated by graphviz version 2.43.0 (0)
 -->
<!-- Title: src/RightClickMapMenu.cpp Pages: 1 -->
<svg width="939pt" height="263pt"
 viewBox="0.00 0.00 938.50 263.00" xmlns="http://www.w3.org/2000/svg" xmlns:xlink="http://www.w3.org/1999/xlink">
<g id="graph0" class="graph" transform="scale(1 1) rotate(0) translate(4 259)">
<title>src/RightClickMapMenu.cpp</title>
<polygon fill="white" stroke="transparent" points="-4,4 -4,-259 934.5,-259 934.5,4 -4,4"/>
<!-- Node1 -->
<g id="node1" class="node">
<title>Node1</title>
<g id="a_node1"><a xlink:title=" ">
<polygon fill="#bfbfbf" stroke="black" points="500.5,-235.5 500.5,-254.5 652.5,-254.5 652.5,-235.5 500.5,-235.5"/>
<text text-anchor="middle" x="576.5" y="-242.5" font-family="Helvetica,sans-Serif" font-size="10.00">src/RightClickMapMenu.cpp</text>
</a>
</g>
</g>
<!-- Node2 -->
<g id="node2" class="node">
<title>Node2</title>
<g id="a_node2"><a xlink:href="RightClickMapMenu_8hpp.html" target="_top" xlink:title=" ">
<polygon fill="white" stroke="black" points="499,-168.5 499,-198.5 654,-198.5 654,-168.5 499,-168.5"/>
<text text-anchor="start" x="507" y="-186.5" font-family="Helvetica,sans-Serif" font-size="10.00">artgslam_vsc/RightClickMap</text>
<text text-anchor="middle" x="576.5" y="-175.5" font-family="Helvetica,sans-Serif" font-size="10.00">Menu.hpp</text>
</a>
</g>
</g>
<!-- Node1&#45;&gt;Node2 -->
<g id="edge1" class="edge">
<title>Node1&#45;&gt;Node2</title>
<path fill="none" stroke="midnightblue" d="M576.5,-235.48C576.5,-228.47 576.5,-218.19 576.5,-208.7"/>
<polygon fill="midnightblue" stroke="midnightblue" points="580,-208.52 576.5,-198.52 573,-208.52 580,-208.52"/>
</g>
<!-- Node6 -->
<g id="node6" class="node">
<title>Node6</title>
<g id="a_node6"><a xlink:title=" ">
<polygon fill="white" stroke="#bfbfbf" points="0,-112.5 0,-131.5 85,-131.5 85,-112.5 0,-112.5"/>
<text text-anchor="middle" x="42.5" y="-119.5" font-family="Helvetica,sans-Serif" font-size="10.00">ros/package.h</text>
</a>
</g>
</g>
<!-- Node1&#45;&gt;Node6 -->
<g id="edge19" class="edge">
<title>Node1&#45;&gt;Node6</title>
<path fill="none" stroke="midnightblue" d="M538.95,-235.49C444.18,-214.02 195.39,-157.64 90.37,-133.85"/>
<polygon fill="midnightblue" stroke="midnightblue" points="90.89,-130.38 80.37,-131.58 89.34,-137.2 90.89,-130.38"/>
</g>
<!-- Node7 -->
<g id="node7" class="node">
<title>Node7</title>
<g id="a_node7"><a xlink:title=" ">
<polygon fill="white" stroke="#bfbfbf" points="870.5,-112.5 870.5,-131.5 930.5,-131.5 930.5,-112.5 870.5,-112.5"/>
<text text-anchor="middle" x="900.5" y="-119.5" font-family="Helvetica,sans-Serif" font-size="10.00">iostream</text>
</a>
</g>
</g>
<!-- Node1&#45;&gt;Node7 -->
<g id="edge20" class="edge">
<title>Node1&#45;&gt;Node7</title>
<path fill="none" stroke="midnightblue" d="M599.28,-235.49C655.73,-214.41 802.23,-159.7 867.86,-135.19"/>
<polygon fill="midnightblue" stroke="midnightblue" points="869.16,-138.44 877.31,-131.66 866.72,-131.88 869.16,-138.44"/>
</g>
<!-- Node3 -->
<g id="node3" class="node">
<title>Node3</title>
<g id="a_node3"><a xlink:title=" ">
<polygon fill="white" stroke="#bfbfbf" points="599.5,-0.5 599.5,-19.5 709.5,-19.5 709.5,-0.5 599.5,-0.5"/>
<text text-anchor="middle" x="654.5" y="-7.5" font-family="Helvetica,sans-Serif" font-size="10.00">SFML/Graphics.hpp</text>
</a>
</g>
</g>
<!-- Node2&#45;&gt;Node3 -->
<g id="edge2" class="edge">
<title>Node2&#45;&gt;Node3</title>
<path fill="none" stroke="midnightblue" d="M654.2,-171.61C722.49,-161.24 812.65,-145.29 823.5,-132 841.3,-110.19 816.13,-71.68 798.5,-56 776.71,-36.62 746.64,-25.59 719.61,-19.3"/>
<polygon fill="midnightblue" stroke="midnightblue" points="720.32,-15.88 709.81,-17.2 718.85,-22.72 720.32,-15.88"/>
</g>
<!-- Node4 -->
<g id="node4" class="node">
<title>Node4</title>
<g id="a_node4"><a xlink:title=" ">
<polygon fill="white" stroke="#bfbfbf" points="268.5,-112.5 268.5,-131.5 450.5,-131.5 450.5,-112.5 268.5,-112.5"/>
<text text-anchor="middle" x="359.5" y="-119.5" font-family="Helvetica,sans-Serif" font-size="10.00">TGUI/Backend/SFML&#45;Graphics.hpp</text>
</a>
</g>
</g>
<!-- Node2&#45;&gt;Node4 -->
<g id="edge3" class="edge">
<title>Node2&#45;&gt;Node4</title>
<path fill="none" stroke="midnightblue" d="M525.35,-168.47C487.26,-158.03 435.93,-143.96 400.52,-134.25"/>
<polygon fill="midnightblue" stroke="midnightblue" points="401.09,-130.78 390.52,-131.51 399.24,-137.53 401.09,-130.78"/>
</g>
<!-- Node5 -->
<g id="node5" class="node">
<title>Node5</title>
<g id="a_node5"><a xlink:title=" ">
<polygon fill="white" stroke="#bfbfbf" points="469,-112.5 469,-131.5 586,-131.5 586,-112.5 469,-112.5"/>
<text text-anchor="middle" x="527.5" y="-119.5" font-family="Helvetica,sans-Serif" font-size="10.00">TGUI/AllWidgets.hpp</text>
</a>
</g>
</g>
<!-- Node2&#45;&gt;Node5 -->
<g id="edge4" class="edge">
<title>Node2&#45;&gt;Node5</title>
<path fill="none" stroke="midnightblue" d="M564.89,-168.4C557.77,-159.75 548.62,-148.64 541.15,-139.58"/>
<polygon fill="midnightblue" stroke="midnightblue" points="543.69,-137.15 534.63,-131.66 538.29,-141.6 543.69,-137.15"/>
</g>
<!-- Node2&#45;&gt;Node6 -->
<g id="edge5" class="edge">
<title>Node2&#45;&gt;Node6</title>
<path fill="none" stroke="midnightblue" d="M498.92,-176.09C405.47,-167.98 243.54,-152.71 95.24,-132.16"/>
<polygon fill="midnightblue" stroke="midnightblue" points="95.43,-128.66 85.04,-130.74 94.46,-135.59 95.43,-128.66"/>
</g>
<!-- Node2&#45;&gt;Node7 -->
<g id="edge6" class="edge">
<title>Node2&#45;&gt;Node7</title>
<path fill="none" stroke="midnightblue" d="M654.14,-169C710.39,-159.09 788.23,-145.14 856.5,-132 857.75,-131.76 859.02,-131.51 860.3,-131.26"/>
<polygon fill="midnightblue" stroke="midnightblue" points="861.1,-134.67 870.22,-129.29 859.73,-127.81 861.1,-134.67"/>
</g>
<!-- Node8 -->
<g id="node8" class="node">
<title>Node8</title>
<g id="a_node8"><a xlink:title=" ">
<polygon fill="white" stroke="#bfbfbf" points="604.5,-112.5 604.5,-131.5 648.5,-131.5 648.5,-112.5 604.5,-112.5"/>
<text text-anchor="middle" x="626.5" y="-119.5" font-family="Helvetica,sans-Serif" font-size="10.00">regex</text>
</a>
</g>
</g>
<!-- Node2&#45;&gt;Node8 -->
<g id="edge7" class="edge">
<title>Node2&#45;&gt;Node8</title>
<path fill="none" stroke="midnightblue" d="M588.35,-168.4C595.61,-159.75 604.95,-148.64 612.57,-139.58"/>
<polygon fill="midnightblue" stroke="midnightblue" points="615.47,-141.57 619.22,-131.66 610.11,-137.06 615.47,-141.57"/>
</g>
<!-- Node9 -->
<g id="node9" class="node">
<title>Node9</title>
<g id="a_node9"><a xlink:href="GridMap_8hpp.html" target="_top" xlink:title=" ">
<polygon fill="white" stroke="black" points="667,-112.5 667,-131.5 814,-131.5 814,-112.5 667,-112.5"/>
<text text-anchor="middle" x="740.5" y="-119.5" font-family="Helvetica,sans-Serif" font-size="10.00">artgslam_vsc/GridMap.hpp</text>
</a>
</g>
</g>
<!-- Node2&#45;&gt;Node9 -->
<g id="edge8" class="edge">
<title>Node2&#45;&gt;Node9</title>
<path fill="none" stroke="midnightblue" d="M615.37,-168.4C643.25,-158.28 680.44,-144.79 707.01,-135.15"/>
<polygon fill="midnightblue" stroke="midnightblue" points="708.43,-138.36 716.64,-131.66 706.04,-131.78 708.43,-138.36"/>
</g>
<!-- Node13 -->
<g id="node13" class="node">
<title>Node13</title>
<g id="a_node13"><a xlink:href="LiveMap_8hpp.html" target="_top" xlink:title=" ">
<polygon fill="white" stroke="black" points="103,-112.5 103,-131.5 250,-131.5 250,-112.5 103,-112.5"/>
<text text-anchor="middle" x="176.5" y="-119.5" font-family="Helvetica,sans-Serif" font-size="10.00">artgslam_vsc/LiveMap.hpp</text>
</a>
</g>
</g>
<!-- Node2&#45;&gt;Node13 -->
<g id="edge14" class="edge">
<title>Node2&#45;&gt;Node13</title>
<path fill="none" stroke="midnightblue" d="M498.9,-170.96C424.84,-159.94 314.41,-143.51 243.93,-133.03"/>
<polygon fill="midnightblue" stroke="midnightblue" points="244.23,-129.54 233.83,-131.53 243.2,-136.46 244.23,-129.54"/>
</g>
<!-- Node9&#45;&gt;Node3 -->
<g id="edge11" class="edge">
<title>Node9&#45;&gt;Node3</title>
<path fill="none" stroke="midnightblue" d="M734.84,-112.37C726.43,-99.7 709.98,-75.49 694.5,-56 686.7,-46.18 677.42,-35.68 669.77,-27.29"/>
<polygon fill="midnightblue" stroke="midnightblue" points="672.12,-24.68 662.77,-19.71 666.98,-29.43 672.12,-24.68"/>
</g>
<!-- Node10 -->
<g id="node10" class="node">
<title>Node10</title>
<g id="a_node10"><a xlink:title=" ">
<polygon fill="white" stroke="#bfbfbf" points="403,-56.5 403,-75.5 450,-75.5 450,-56.5 403,-56.5"/>
<text text-anchor="middle" x="426.5" y="-63.5" font-family="Helvetica,sans-Serif" font-size="10.00">vector</text>
</a>
</g>
</g>
<!-- Node9&#45;&gt;Node10 -->
<g id="edge9" class="edge">
<title>Node9&#45;&gt;Node10</title>
<path fill="none" stroke="midnightblue" d="M690.75,-112.44C626.25,-101.35 515.5,-82.31 460.11,-72.78"/>
<polygon fill="midnightblue" stroke="midnightblue" points="460.56,-69.31 450.11,-71.06 459.38,-76.21 460.56,-69.31"/>
</g>
<!-- Node11 -->
<g id="node11" class="node">
<title>Node11</title>
<g id="a_node11"><a xlink:title=" ">
<polygon fill="white" stroke="#bfbfbf" points="742,-56.5 742,-75.5 789,-75.5 789,-56.5 742,-56.5"/>
<text text-anchor="middle" x="765.5" y="-63.5" font-family="Helvetica,sans-Serif" font-size="10.00">cmath</text>
</a>
</g>
</g>
<!-- Node9&#45;&gt;Node11 -->
<g id="edge10" class="edge">
<title>Node9&#45;&gt;Node11</title>
<path fill="none" stroke="midnightblue" d="M744.63,-112.08C748.01,-104.77 752.92,-94.18 757.12,-85.1"/>
<polygon fill="midnightblue" stroke="midnightblue" points="760.42,-86.3 761.45,-75.75 754.07,-83.36 760.42,-86.3"/>
</g>
<!-- Node12 -->
<g id="node12" class="node">
<title>Node12</title>
<g id="a_node12"><a xlink:href="ViewController_8hpp.html" target="_top" xlink:title=" ">
<polygon fill="white" stroke="black" points="507.5,-56.5 507.5,-75.5 685.5,-75.5 685.5,-56.5 507.5,-56.5"/>
<text text-anchor="middle" x="596.5" y="-63.5" font-family="Helvetica,sans-Serif" font-size="10.00">artgslam_vsc/ViewController.hpp</text>
</a>
</g>
</g>
<!-- Node9&#45;&gt;Node12 -->
<g id="edge12" class="edge">
<title>Node9&#45;&gt;Node12</title>
<path fill="none" stroke="midnightblue" d="M717.68,-112.44C693.67,-103.44 655.67,-89.19 628.63,-79.05"/>
<polygon fill="midnightblue" stroke="midnightblue" points="629.8,-75.75 619.21,-75.52 627.34,-82.3 629.8,-75.75"/>
</g>
<!-- Node12&#45;&gt;Node3 -->
<g id="edge13" class="edge">
<title>Node12&#45;&gt;Node3</title>
<path fill="none" stroke="midnightblue" d="M605.82,-56.32C614.39,-48.34 627.31,-36.31 637.69,-26.65"/>
<polygon fill="midnightblue" stroke="midnightblue" points="640.08,-29.21 645.01,-19.83 635.31,-24.09 640.08,-29.21"/>
</g>
<!-- Node13&#45;&gt;Node3 -->
<g id="edge17" class="edge">
<title>Node13&#45;&gt;Node3</title>
<path fill="none" stroke="midnightblue" d="M201.62,-112.4C241.77,-98.89 323.06,-72.56 393.5,-56 459.62,-40.46 536.35,-27.87 589.42,-20"/>
<polygon fill="midnightblue" stroke="midnightblue" points="589.99,-23.45 599.37,-18.54 588.97,-16.53 589.99,-23.45"/>
</g>
<!-- Node13&#45;&gt;Node10 -->
<g id="edge15" class="edge">
<title>Node13&#45;&gt;Node10</title>
<path fill="none" stroke="midnightblue" d="M216.11,-112.44C264.91,-101.9 346.95,-84.18 392.84,-74.27"/>
<polygon fill="midnightblue" stroke="midnightblue" points="393.83,-77.64 402.87,-72.1 392.36,-70.79 393.83,-77.64"/>
</g>
<!-- Node13&#45;&gt;Node12 -->
<g id="edge18" class="edge">
<title>Node13&#45;&gt;Node12</title>
<path fill="none" stroke="midnightblue" d="M243.05,-112.44C318.32,-102.77 440.67,-87.04 519.86,-76.85"/>
<polygon fill="midnightblue" stroke="midnightblue" points="520.79,-80.26 530.26,-75.52 519.9,-73.32 520.79,-80.26"/>
</g>
<!-- Node14 -->
<g id="node14" class="node">
<title>Node14</title>
<g id="a_node14"><a xlink:title=" ">
<polygon fill="white" stroke="#bfbfbf" points="151,-56.5 151,-75.5 202,-75.5 202,-56.5 151,-56.5"/>
<text text-anchor="middle" x="176.5" y="-63.5" font-family="Helvetica,sans-Serif" font-size="10.00">math.h</text>
</a>
</g>
</g>
<!-- Node13&#45;&gt;Node14 -->
<g id="edge16" class="edge">
<title>Node13&#45;&gt;Node14</title>
<path fill="none" stroke="midnightblue" d="M176.5,-112.08C176.5,-105.01 176.5,-94.86 176.5,-85.99"/>
<polygon fill="midnightblue" stroke="midnightblue" points="180,-85.75 176.5,-75.75 173,-85.75 180,-85.75"/>
</g>
</g>
</svg>
