<?xml version="1.0" encoding="UTF-8" standalone="no"?>
<!DOCTYPE svg PUBLIC "-//W3C//DTD SVG 1.1//EN"
 "http://www.w3.org/Graphics/SVG/1.1/DTD/svg11.dtd">
<!-- Generated by graphviz version 2.43.0 (0)
 -->
<!-- Title: include/artgslam_vsc/RightClickMapMenu.hpp Pages: 1 -->
<svg width="940pt" height="207pt"
 viewBox="0.00 0.00 940.06 207.00" xmlns="http://www.w3.org/2000/svg" xmlns:xlink="http://www.w3.org/1999/xlink">
<g id="graph0" class="graph" transform="scale(1 1) rotate(0) translate(4 203)">
<title>include/artgslam_vsc/RightClickMapMenu.hpp</title>
<polygon fill="white" stroke="transparent" points="-4,4 -4,-203 936.06,-203 936.06,4 -4,4"/>
<!-- Node1 -->
<g id="node1" class="node">
<title>Node1</title>
<g id="a_node1"><a xlink:title=" ">
<polygon fill="#bfbfbf" stroke="black" points="477.06,-168.5 477.06,-198.5 615.06,-198.5 615.06,-168.5 477.06,-168.5"/>
<text text-anchor="start" x="485.06" y="-186.5" font-family="Helvetica,sans-Serif" font-size="10.00">include/artgslam_vsc</text>
<text text-anchor="middle" x="546.06" y="-175.5" font-family="Helvetica,sans-Serif" font-size="10.00">/RightClickMapMenu.hpp</text>
</a>
</g>
</g>
<!-- Node2 -->
<g id="node2" class="node">
<title>Node2</title>
<g id="a_node2"><a xlink:title=" ">
<polygon fill="white" stroke="#bfbfbf" points="132.06,-0.5 132.06,-19.5 242.06,-19.5 242.06,-0.5 132.06,-0.5"/>
<text text-anchor="middle" x="187.06" y="-7.5" font-family="Helvetica,sans-Serif" font-size="10.00">SFML/Graphics.hpp</text>
</a>
</g>
</g>
<!-- Node1&#45;&gt;Node2 -->
<g id="edge1" class="edge">
<title>Node1&#45;&gt;Node2</title>
<path fill="none" stroke="midnightblue" d="M476.89,-179.8C344.53,-174.05 65.48,-158.86 31.06,-132 3.53,-110.51 -10.36,-83.59 11.06,-56 24.79,-38.32 77.4,-26.41 121.56,-19.31"/>
<polygon fill="midnightblue" stroke="midnightblue" points="122.36,-22.73 131.7,-17.74 121.29,-15.81 122.36,-22.73"/>
</g>
<!-- Node3 -->
<g id="node3" class="node">
<title>Node3</title>
<g id="a_node3"><a xlink:title=" ">
<polygon fill="white" stroke="#bfbfbf" points="371.06,-112.5 371.06,-131.5 553.06,-131.5 553.06,-112.5 371.06,-112.5"/>
<text text-anchor="middle" x="462.06" y="-119.5" font-family="Helvetica,sans-Serif" font-size="10.00">TGUI/Backend/SFML&#45;Graphics.hpp</text>
</a>
</g>
</g>
<!-- Node1&#45;&gt;Node3 -->
<g id="edge2" class="edge">
<title>Node1&#45;&gt;Node3</title>
<path fill="none" stroke="midnightblue" d="M526.16,-168.4C513.07,-159.13 495.98,-147.03 482.74,-137.65"/>
<polygon fill="midnightblue" stroke="midnightblue" points="484.47,-134.58 474.29,-131.66 480.42,-140.29 484.47,-134.58"/>
</g>
<!-- Node4 -->
<g id="node4" class="node">
<title>Node4</title>
<g id="a_node4"><a xlink:title=" ">
<polygon fill="white" stroke="#bfbfbf" points="571.56,-112.5 571.56,-131.5 688.56,-131.5 688.56,-112.5 571.56,-112.5"/>
<text text-anchor="middle" x="630.06" y="-119.5" font-family="Helvetica,sans-Serif" font-size="10.00">TGUI/AllWidgets.hpp</text>
</a>
</g>
</g>
<!-- Node1&#45;&gt;Node4 -->
<g id="edge3" class="edge">
<title>Node1&#45;&gt;Node4</title>
<path fill="none" stroke="midnightblue" d="M565.97,-168.4C579.06,-159.13 596.15,-147.03 609.39,-137.65"/>
<polygon fill="midnightblue" stroke="midnightblue" points="611.7,-140.29 617.84,-131.66 607.66,-134.58 611.7,-140.29"/>
</g>
<!-- Node5 -->
<g id="node5" class="node">
<title>Node5</title>
<g id="a_node5"><a xlink:title=" ">
<polygon fill="white" stroke="#bfbfbf" points="706.56,-112.5 706.56,-131.5 791.56,-131.5 791.56,-112.5 706.56,-112.5"/>
<text text-anchor="middle" x="749.06" y="-119.5" font-family="Helvetica,sans-Serif" font-size="10.00">ros/package.h</text>
</a>
</g>
</g>
<!-- Node1&#45;&gt;Node5 -->
<g id="edge4" class="edge">
<title>Node1&#45;&gt;Node5</title>
<path fill="none" stroke="midnightblue" d="M593.92,-168.47C629.4,-158.08 677.15,-144.08 710.27,-134.37"/>
<polygon fill="midnightblue" stroke="midnightblue" points="711.43,-137.68 720.04,-131.51 709.46,-130.96 711.43,-137.68"/>
</g>
<!-- Node6 -->
<g id="node6" class="node">
<title>Node6</title>
<g id="a_node6"><a xlink:title=" ">
<polygon fill="white" stroke="#bfbfbf" points="810.06,-112.5 810.06,-131.5 870.06,-131.5 870.06,-112.5 810.06,-112.5"/>
<text text-anchor="middle" x="840.06" y="-119.5" font-family="Helvetica,sans-Serif" font-size="10.00">iostream</text>
</a>
</g>
</g>
<!-- Node1&#45;&gt;Node6 -->
<g id="edge5" class="edge">
<title>Node1&#45;&gt;Node6</title>
<path fill="none" stroke="midnightblue" d="M615.18,-169.42C664.14,-160.01 731.61,-146.77 799.79,-132.23"/>
<polygon fill="midnightblue" stroke="midnightblue" points="800.81,-135.59 809.85,-130.07 799.34,-128.74 800.81,-135.59"/>
</g>
<!-- Node7 -->
<g id="node7" class="node">
<title>Node7</title>
<g id="a_node7"><a xlink:title=" ">
<polygon fill="white" stroke="#bfbfbf" points="888.06,-112.5 888.06,-131.5 932.06,-131.5 932.06,-112.5 888.06,-112.5"/>
<text text-anchor="middle" x="910.06" y="-119.5" font-family="Helvetica,sans-Serif" font-size="10.00">regex</text>
</a>
</g>
</g>
<!-- Node1&#45;&gt;Node7 -->
<g id="edge6" class="edge">
<title>Node1&#45;&gt;Node7</title>
<path fill="none" stroke="midnightblue" d="M615.11,-174.73C680.55,-166.75 781.7,-152.84 877.91,-132.01"/>
<polygon fill="midnightblue" stroke="midnightblue" points="878.79,-135.41 887.8,-129.84 877.29,-128.57 878.79,-135.41"/>
</g>
<!-- Node8 -->
<g id="node8" class="node">
<title>Node8</title>
<g id="a_node8"><a xlink:href="GridMap_8hpp.html" target="_top" xlink:title=" ">
<polygon fill="white" stroke="black" points="40.56,-112.5 40.56,-131.5 187.56,-131.5 187.56,-112.5 40.56,-112.5"/>
<text text-anchor="middle" x="114.06" y="-119.5" font-family="Helvetica,sans-Serif" font-size="10.00">artgslam_vsc/GridMap.hpp</text>
</a>
</g>
</g>
<!-- Node1&#45;&gt;Node8 -->
<g id="edge7" class="edge">
<title>Node1&#45;&gt;Node8</title>
<path fill="none" stroke="midnightblue" d="M476.66,-172.94C396.94,-161.96 266.8,-144.04 186.03,-132.91"/>
<polygon fill="midnightblue" stroke="midnightblue" points="186.33,-129.42 175.95,-131.52 185.38,-136.35 186.33,-129.42"/>
</g>
<!-- Node12 -->
<g id="node12" class="node">
<title>Node12</title>
<g id="a_node12"><a xlink:href="LiveMap_8hpp.html" target="_top" xlink:title=" ">
<polygon fill="white" stroke="black" points="205.56,-112.5 205.56,-131.5 352.56,-131.5 352.56,-112.5 205.56,-112.5"/>
<text text-anchor="middle" x="279.06" y="-119.5" font-family="Helvetica,sans-Serif" font-size="10.00">artgslam_vsc/LiveMap.hpp</text>
</a>
</g>
</g>
<!-- Node1&#45;&gt;Node12 -->
<g id="edge13" class="edge">
<title>Node1&#45;&gt;Node12</title>
<path fill="none" stroke="midnightblue" d="M483.13,-168.47C435.35,-157.83 370.66,-143.41 327.03,-133.69"/>
<polygon fill="midnightblue" stroke="midnightblue" points="327.76,-130.27 317.24,-131.51 326.23,-137.1 327.76,-130.27"/>
</g>
<!-- Node8&#45;&gt;Node2 -->
<g id="edge10" class="edge">
<title>Node8&#45;&gt;Node2</title>
<path fill="none" stroke="midnightblue" d="M111.74,-112.33C108.72,-99.19 104.97,-73.89 115.06,-56 123.27,-41.47 138.29,-30.99 152.5,-23.82"/>
<polygon fill="midnightblue" stroke="midnightblue" points="154.05,-26.96 161.65,-19.58 151.1,-20.61 154.05,-26.96"/>
</g>
<!-- Node9 -->
<g id="node9" class="node">
<title>Node9</title>
<g id="a_node9"><a xlink:title=" ">
<polygon fill="white" stroke="#bfbfbf" points="124.56,-56.5 124.56,-75.5 171.56,-75.5 171.56,-56.5 124.56,-56.5"/>
<text text-anchor="middle" x="148.06" y="-63.5" font-family="Helvetica,sans-Serif" font-size="10.00">vector</text>
</a>
</g>
</g>
<!-- Node8&#45;&gt;Node9 -->
<g id="edge8" class="edge">
<title>Node8&#45;&gt;Node9</title>
<path fill="none" stroke="midnightblue" d="M119.68,-112.08C124.43,-104.53 131.38,-93.49 137.22,-84.23"/>
<polygon fill="midnightblue" stroke="midnightblue" points="140.19,-86.08 142.55,-75.75 134.26,-82.35 140.19,-86.08"/>
</g>
<!-- Node10 -->
<g id="node10" class="node">
<title>Node10</title>
<g id="a_node10"><a xlink:title=" ">
<polygon fill="white" stroke="#bfbfbf" points="20.56,-56.5 20.56,-75.5 67.56,-75.5 67.56,-56.5 20.56,-56.5"/>
<text text-anchor="middle" x="44.06" y="-63.5" font-family="Helvetica,sans-Serif" font-size="10.00">cmath</text>
</a>
</g>
</g>
<!-- Node8&#45;&gt;Node10 -->
<g id="edge9" class="edge">
<title>Node8&#45;&gt;Node10</title>
<path fill="none" stroke="midnightblue" d="M102.82,-112.32C92.27,-104.18 76.26,-91.84 63.62,-82.09"/>
<polygon fill="midnightblue" stroke="midnightblue" points="65.57,-79.17 55.52,-75.83 61.3,-84.71 65.57,-79.17"/>
</g>
<!-- Node11 -->
<g id="node11" class="node">
<title>Node11</title>
<g id="a_node11"><a xlink:href="ViewController_8hpp.html" target="_top" xlink:title=" ">
<polygon fill="white" stroke="black" points="190.06,-56.5 190.06,-75.5 368.06,-75.5 368.06,-56.5 190.06,-56.5"/>
<text text-anchor="middle" x="279.06" y="-63.5" font-family="Helvetica,sans-Serif" font-size="10.00">artgslam_vsc/ViewController.hpp</text>
</a>
</g>
</g>
<!-- Node8&#45;&gt;Node11 -->
<g id="edge11" class="edge">
<title>Node8&#45;&gt;Node11</title>
<path fill="none" stroke="midnightblue" d="M140.21,-112.44C168.09,-103.32 212.41,-88.81 243.46,-78.65"/>
<polygon fill="midnightblue" stroke="midnightblue" points="244.63,-81.95 253.04,-75.52 242.45,-75.3 244.63,-81.95"/>
</g>
<!-- Node11&#45;&gt;Node2 -->
<g id="edge12" class="edge">
<title>Node11&#45;&gt;Node2</title>
<path fill="none" stroke="midnightblue" d="M264.28,-56.32C249.8,-47.82 227.49,-34.73 210.57,-24.8"/>
<polygon fill="midnightblue" stroke="midnightblue" points="212.2,-21.7 201.81,-19.65 208.66,-27.74 212.2,-21.7"/>
</g>
<!-- Node12&#45;&gt;Node2 -->
<g id="edge16" class="edge">
<title>Node12&#45;&gt;Node2</title>
<path fill="none" stroke="midnightblue" d="M314.36,-112.5C350.35,-102.14 398.15,-82.66 377.06,-56 361.6,-36.45 301.22,-24.51 252.62,-17.89"/>
<polygon fill="midnightblue" stroke="midnightblue" points="252.82,-14.39 242.45,-16.56 251.91,-21.33 252.82,-14.39"/>
</g>
<!-- Node12&#45;&gt;Node9 -->
<g id="edge14" class="edge">
<title>Node12&#45;&gt;Node9</title>
<path fill="none" stroke="midnightblue" d="M258.31,-112.44C236.75,-103.56 202.8,-89.56 178.27,-79.45"/>
<polygon fill="midnightblue" stroke="midnightblue" points="179.3,-76.09 168.72,-75.52 176.64,-82.56 179.3,-76.09"/>
</g>
<!-- Node12&#45;&gt;Node11 -->
<g id="edge17" class="edge">
<title>Node12&#45;&gt;Node11</title>
<path fill="none" stroke="midnightblue" d="M279.06,-112.08C279.06,-105.01 279.06,-94.86 279.06,-85.99"/>
<polygon fill="midnightblue" stroke="midnightblue" points="282.56,-85.75 279.06,-75.75 275.56,-85.75 282.56,-85.75"/>
</g>
<!-- Node13 -->
<g id="node13" class="node">
<title>Node13</title>
<g id="a_node13"><a xlink:title=" ">
<polygon fill="white" stroke="#bfbfbf" points="424.56,-56.5 424.56,-75.5 475.56,-75.5 475.56,-56.5 424.56,-56.5"/>
<text text-anchor="middle" x="450.06" y="-63.5" font-family="Helvetica,sans-Serif" font-size="10.00">math.h</text>
</a>
</g>
</g>
<!-- Node12&#45;&gt;Node13 -->
<g id="edge15" class="edge">
<title>Node12&#45;&gt;Node13</title>
<path fill="none" stroke="midnightblue" d="M306.16,-112.44C335.48,-103.19 382.34,-88.39 414.58,-78.21"/>
<polygon fill="midnightblue" stroke="midnightblue" points="416.01,-81.42 424.49,-75.08 413.9,-74.75 416.01,-81.42"/>
</g>
</g>
</svg>
