<?xml version="1.0" encoding="UTF-8" standalone="no"?>
<!DOCTYPE svg PUBLIC "-//W3C//DTD SVG 1.1//EN"
 "http://www.w3.org/Graphics/SVG/1.1/DTD/svg11.dtd">
<!-- Generated by graphviz version 2.43.0 (0)
 -->
<!-- Title: include/artgslam_vsc/RobotCreator.hpp Pages: 1 -->
<svg width="316pt" height="162pt"
 viewBox="0.00 0.00 316.00 162.00" xmlns="http://www.w3.org/2000/svg" xmlns:xlink="http://www.w3.org/1999/xlink">
<g id="graph0" class="graph" transform="scale(1 1) rotate(0) translate(4 158)">
<title>include/artgslam_vsc/RobotCreator.hpp</title>
<polygon fill="white" stroke="transparent" points="-4,4 -4,-158 312,-158 312,4 -4,4"/>
<!-- Node1 -->
<g id="node1" class="node">
<title>Node1</title>
<g id="a_node1"><a xlink:title=" ">
<polygon fill="#bfbfbf" stroke="black" points="68.5,-123.5 68.5,-153.5 188.5,-153.5 188.5,-123.5 68.5,-123.5"/>
<text text-anchor="start" x="76.5" y="-141.5" font-family="Helvetica,sans-Serif" font-size="10.00">include/artgslam_vsc</text>
<text text-anchor="middle" x="128.5" y="-130.5" font-family="Helvetica,sans-Serif" font-size="10.00">/RobotCreator.hpp</text>
</a>
</g>
</g>
<!-- Node2 -->
<g id="node2" class="node">
<title>Node2</title>
<g id="a_node2"><a xlink:href="RobotCreator_8cpp.html" target="_top" xlink:title=" ">
<polygon fill="white" stroke="black" points="0,-62 0,-81 119,-81 119,-62 0,-62"/>
<text text-anchor="middle" x="59.5" y="-69" font-family="Helvetica,sans-Serif" font-size="10.00">src/RobotCreator.cpp</text>
</a>
</g>
</g>
<!-- Node1&#45;&gt;Node2 -->
<g id="edge1" class="edge">
<title>Node1&#45;&gt;Node2</title>
<path fill="none" stroke="midnightblue" d="M106.03,-116.34C93.36,-104.4 78.22,-90.14 68.73,-81.19"/>
<polygon fill="midnightblue" stroke="midnightblue" points="103.85,-119.09 113.53,-123.4 108.65,-113.99 103.85,-119.09"/>
</g>
<!-- Node3 -->
<g id="node3" class="node">
<title>Node3</title>
<g id="a_node3"><a xlink:href="MapViewer_8hpp.html" target="_top" xlink:title=" ">
<polygon fill="white" stroke="black" points="137.5,-56.5 137.5,-86.5 257.5,-86.5 257.5,-56.5 137.5,-56.5"/>
<text text-anchor="start" x="145.5" y="-74.5" font-family="Helvetica,sans-Serif" font-size="10.00">include/artgslam_vsc</text>
<text text-anchor="middle" x="197.5" y="-63.5" font-family="Helvetica,sans-Serif" font-size="10.00">/MapViewer.hpp</text>
</a>
</g>
</g>
<!-- Node1&#45;&gt;Node3 -->
<g id="edge2" class="edge">
<title>Node1&#45;&gt;Node3</title>
<path fill="none" stroke="midnightblue" d="M150.99,-116.31C161.34,-106.56 173.34,-95.26 182.56,-86.58"/>
<polygon fill="midnightblue" stroke="midnightblue" points="148.35,-113.99 143.47,-123.4 153.15,-119.09 148.35,-113.99"/>
</g>
<!-- Node4 -->
<g id="node4" class="node">
<title>Node4</title>
<g id="a_node4"><a xlink:href="main_8cpp.html" target="_top" xlink:title=" ">
<polygon fill="white" stroke="black" points="102,-0.5 102,-19.5 181,-19.5 181,-0.5 102,-0.5"/>
<text text-anchor="middle" x="141.5" y="-7.5" font-family="Helvetica,sans-Serif" font-size="10.00">src/main.cpp</text>
</a>
</g>
</g>
<!-- Node3&#45;&gt;Node4 -->
<g id="edge3" class="edge">
<title>Node3&#45;&gt;Node4</title>
<path fill="none" stroke="midnightblue" d="M177.27,-49C167.72,-38.86 156.87,-27.33 149.65,-19.66"/>
<polygon fill="midnightblue" stroke="midnightblue" points="174.83,-51.52 184.23,-56.4 179.92,-46.72 174.83,-51.52"/>
</g>
<!-- Node5 -->
<g id="node5" class="node">
<title>Node5</title>
<g id="a_node5"><a xlink:href="MapViewer_8cpp.html" target="_top" xlink:title=" ">
<polygon fill="white" stroke="black" points="199,-0.5 199,-19.5 308,-19.5 308,-0.5 199,-0.5"/>
<text text-anchor="middle" x="253.5" y="-7.5" font-family="Helvetica,sans-Serif" font-size="10.00">src/MapViewer.cpp</text>
</a>
</g>
</g>
<!-- Node3&#45;&gt;Node5 -->
<g id="edge4" class="edge">
<title>Node3&#45;&gt;Node5</title>
<path fill="none" stroke="midnightblue" d="M217.73,-49C227.28,-38.86 238.13,-27.33 245.35,-19.66"/>
<polygon fill="midnightblue" stroke="midnightblue" points="215.08,-46.72 210.77,-56.4 220.17,-51.52 215.08,-46.72"/>
</g>
</g>
</svg>
