<?xml version="1.0" encoding="UTF-8" standalone="no"?>
<!DOCTYPE svg PUBLIC "-//W3C//DTD SVG 1.1//EN"
 "http://www.w3.org/Graphics/SVG/1.1/DTD/svg11.dtd">
<!-- Generated by graphviz version 2.43.0 (0)
 -->
<!-- Title: include/artgslam_vsc/RobotCreator.hpp Pages: 1 -->
<svg width="1021pt" height="151pt"
 viewBox="0.00 0.00 1021.00 151.00" xmlns="http://www.w3.org/2000/svg" xmlns:xlink="http://www.w3.org/1999/xlink">
<g id="graph0" class="graph" transform="scale(1 1) rotate(0) translate(4 147)">
<title>include/artgslam_vsc/RobotCreator.hpp</title>
<polygon fill="white" stroke="transparent" points="-4,4 -4,-147 1017,-147 1017,4 -4,4"/>
<!-- Node1 -->
<g id="node1" class="node">
<title>Node1</title>
<g id="a_node1"><a xlink:title=" ">
<polygon fill="#bfbfbf" stroke="black" points="490,-112.5 490,-142.5 610,-142.5 610,-112.5 490,-112.5"/>
<text text-anchor="start" x="498" y="-130.5" font-family="Helvetica,sans-Serif" font-size="10.00">include/artgslam_vsc</text>
<text text-anchor="middle" x="550" y="-119.5" font-family="Helvetica,sans-Serif" font-size="10.00">/RobotCreator.hpp</text>
</a>
</g>
</g>
<!-- Node2 -->
<g id="node2" class="node">
<title>Node2</title>
<g id="a_node2"><a xlink:title=" ">
<polygon fill="white" stroke="#bfbfbf" points="0,-56.5 0,-75.5 60,-75.5 60,-56.5 0,-56.5"/>
<text text-anchor="middle" x="30" y="-63.5" font-family="Helvetica,sans-Serif" font-size="10.00">iostream</text>
</a>
</g>
</g>
<!-- Node1&#45;&gt;Node2 -->
<g id="edge1" class="edge">
<title>Node1&#45;&gt;Node2</title>
<path fill="none" stroke="midnightblue" d="M489.65,-121.97C399.04,-114.74 222.64,-99.03 74,-76 72.74,-75.81 71.47,-75.6 70.18,-75.38"/>
<polygon fill="midnightblue" stroke="midnightblue" points="70.69,-71.92 60.23,-73.58 69.44,-78.81 70.69,-71.92"/>
</g>
<!-- Node3 -->
<g id="node3" class="node">
<title>Node3</title>
<g id="a_node3"><a xlink:title=" ">
<polygon fill="white" stroke="#bfbfbf" points="392,-0.5 392,-19.5 502,-19.5 502,-0.5 392,-0.5"/>
<text text-anchor="middle" x="447" y="-7.5" font-family="Helvetica,sans-Serif" font-size="10.00">SFML/Graphics.hpp</text>
</a>
</g>
</g>
<!-- Node1&#45;&gt;Node3 -->
<g id="edge2" class="edge">
<title>Node1&#45;&gt;Node3</title>
<path fill="none" stroke="midnightblue" d="M489.92,-124.02C374.76,-118.64 132.06,-104.08 107,-76 101.08,-69.37 101.14,-62.69 107,-56 124.78,-35.71 287.74,-21.6 381.45,-15.08"/>
<polygon fill="midnightblue" stroke="midnightblue" points="381.94,-18.56 391.68,-14.38 381.46,-11.57 381.94,-18.56"/>
</g>
<!-- Node4 -->
<g id="node4" class="node">
<title>Node4</title>
<g id="a_node4"><a xlink:title=" ">
<polygon fill="white" stroke="#bfbfbf" points="116,-56.5 116,-75.5 298,-75.5 298,-56.5 116,-56.5"/>
<text text-anchor="middle" x="207" y="-63.5" font-family="Helvetica,sans-Serif" font-size="10.00">TGUI/Backend/SFML&#45;Graphics.hpp</text>
</a>
</g>
</g>
<!-- Node1&#45;&gt;Node4 -->
<g id="edge3" class="edge">
<title>Node1&#45;&gt;Node4</title>
<path fill="none" stroke="midnightblue" d="M489.86,-116.07C426.98,-105.16 328.91,-88.15 266.33,-77.29"/>
<polygon fill="midnightblue" stroke="midnightblue" points="266.68,-73.8 256.22,-75.54 265.48,-80.7 266.68,-73.8"/>
</g>
<!-- Node5 -->
<g id="node5" class="node">
<title>Node5</title>
<g id="a_node5"><a xlink:title=" ">
<polygon fill="white" stroke="#bfbfbf" points="316.5,-56.5 316.5,-75.5 461.5,-75.5 461.5,-56.5 316.5,-56.5"/>
<text text-anchor="middle" x="389" y="-63.5" font-family="Helvetica,sans-Serif" font-size="10.00">TGUI/Widgets/EditBox.hpp</text>
</a>
</g>
</g>
<!-- Node1&#45;&gt;Node5 -->
<g id="edge4" class="edge">
<title>Node1&#45;&gt;Node5</title>
<path fill="none" stroke="midnightblue" d="M511.85,-112.4C484.47,-102.28 447.96,-88.79 421.87,-79.15"/>
<polygon fill="midnightblue" stroke="midnightblue" points="423.02,-75.84 412.43,-75.66 420.59,-82.41 423.02,-75.84"/>
</g>
<!-- Node6 -->
<g id="node6" class="node">
<title>Node6</title>
<g id="a_node6"><a xlink:title=" ">
<polygon fill="white" stroke="#bfbfbf" points="480,-56.5 480,-75.5 620,-75.5 620,-56.5 480,-56.5"/>
<text text-anchor="middle" x="550" y="-63.5" font-family="Helvetica,sans-Serif" font-size="10.00">TGUI/Widgets/Button.hpp</text>
</a>
</g>
</g>
<!-- Node1&#45;&gt;Node6 -->
<g id="edge5" class="edge">
<title>Node1&#45;&gt;Node6</title>
<path fill="none" stroke="midnightblue" d="M550,-112.4C550,-104.47 550,-94.46 550,-85.86"/>
<polygon fill="midnightblue" stroke="midnightblue" points="553.5,-85.66 550,-75.66 546.5,-85.66 553.5,-85.66"/>
</g>
<!-- Node7 -->
<g id="node7" class="node">
<title>Node7</title>
<g id="a_node7"><a xlink:title=" ">
<polygon fill="white" stroke="#bfbfbf" points="638.5,-56.5 638.5,-75.5 697.5,-75.5 697.5,-56.5 638.5,-56.5"/>
<text text-anchor="middle" x="668" y="-63.5" font-family="Helvetica,sans-Serif" font-size="10.00">ros/ros.h</text>
</a>
</g>
</g>
<!-- Node1&#45;&gt;Node7 -->
<g id="edge6" class="edge">
<title>Node1&#45;&gt;Node7</title>
<path fill="none" stroke="midnightblue" d="M577.96,-112.4C597.32,-102.64 622.91,-89.74 641.86,-80.18"/>
<polygon fill="midnightblue" stroke="midnightblue" points="643.48,-83.29 650.83,-75.66 640.33,-77.04 643.48,-83.29"/>
</g>
<!-- Node8 -->
<g id="node8" class="node">
<title>Node8</title>
<g id="a_node8"><a xlink:title=" ">
<polygon fill="white" stroke="#bfbfbf" points="716,-56.5 716,-75.5 760,-75.5 760,-56.5 716,-56.5"/>
<text text-anchor="middle" x="738" y="-63.5" font-family="Helvetica,sans-Serif" font-size="10.00">regex</text>
</a>
</g>
</g>
<!-- Node1&#45;&gt;Node8 -->
<g id="edge7" class="edge">
<title>Node1&#45;&gt;Node8</title>
<path fill="none" stroke="midnightblue" d="M594.55,-112.4C628.89,-101.53 675.54,-86.77 706.19,-77.07"/>
<polygon fill="midnightblue" stroke="midnightblue" points="707.45,-80.34 715.93,-73.99 705.34,-73.67 707.45,-80.34"/>
</g>
<!-- Node9 -->
<g id="node9" class="node">
<title>Node9</title>
<g id="a_node9"><a xlink:title=" ">
<polygon fill="white" stroke="#bfbfbf" points="778.5,-56.5 778.5,-75.5 827.5,-75.5 827.5,-56.5 778.5,-56.5"/>
<text text-anchor="middle" x="803" y="-63.5" font-family="Helvetica,sans-Serif" font-size="10.00">cctype</text>
</a>
</g>
</g>
<!-- Node1&#45;&gt;Node9 -->
<g id="edge8" class="edge">
<title>Node1&#45;&gt;Node9</title>
<path fill="none" stroke="midnightblue" d="M610.08,-113.19C651.83,-103.82 708.99,-90.74 768.23,-76.13"/>
<polygon fill="midnightblue" stroke="midnightblue" points="769.28,-79.48 778.14,-73.68 767.59,-72.68 769.28,-79.48"/>
</g>
<!-- Node10 -->
<g id="node10" class="node">
<title>Node10</title>
<g id="a_node10"><a xlink:href="UnicicleWmr_8hpp.html" target="_top" xlink:title=" ">
<polygon fill="white" stroke="black" points="845,-56.5 845,-75.5 1013,-75.5 1013,-56.5 845,-56.5"/>
<text text-anchor="middle" x="929" y="-63.5" font-family="Helvetica,sans-Serif" font-size="10.00">artgslam_vsc/UnicicleWmr.hpp</text>
</a>
</g>
</g>
<!-- Node1&#45;&gt;Node10 -->
<g id="edge9" class="edge">
<title>Node1&#45;&gt;Node10</title>
<path fill="none" stroke="midnightblue" d="M610.05,-117.07C679.48,-106.17 793.32,-88.3 864.56,-77.12"/>
<polygon fill="midnightblue" stroke="midnightblue" points="865.42,-80.52 874.75,-75.52 864.33,-73.61 865.42,-80.52"/>
</g>
<!-- Node10&#45;&gt;Node3 -->
<g id="edge10" class="edge">
<title>Node10&#45;&gt;Node3</title>
<path fill="none" stroke="midnightblue" d="M852.89,-56.47C758.99,-45.95 600.91,-28.24 512.29,-18.31"/>
<polygon fill="midnightblue" stroke="midnightblue" points="512.42,-14.81 502.09,-17.17 511.64,-21.76 512.42,-14.81"/>
</g>
<!-- Node11 -->
<g id="node11" class="node">
<title>Node11</title>
<g id="a_node11"><a xlink:href="MyConstants_8hpp.html" target="_top" xlink:title=" ">
<polygon fill="white" stroke="black" points="832.5,-0.5 832.5,-19.5 933.5,-19.5 933.5,-0.5 832.5,-0.5"/>
<text text-anchor="middle" x="883" y="-7.5" font-family="Helvetica,sans-Serif" font-size="10.00">MyConstants.hpp</text>
</a>
</g>
</g>
<!-- Node10&#45;&gt;Node11 -->
<g id="edge11" class="edge">
<title>Node10&#45;&gt;Node11</title>
<path fill="none" stroke="midnightblue" d="M921.4,-56.08C914.77,-48.3 904.98,-36.8 896.94,-27.37"/>
<polygon fill="midnightblue" stroke="midnightblue" points="899.6,-25.09 890.45,-19.75 894.27,-29.63 899.6,-25.09"/>
</g>
<!-- Node12 -->
<g id="node12" class="node">
<title>Node12</title>
<g id="a_node12"><a xlink:title=" ">
<polygon fill="white" stroke="#bfbfbf" points="951.5,-0.5 951.5,-19.5 998.5,-19.5 998.5,-0.5 951.5,-0.5"/>
<text text-anchor="middle" x="975" y="-7.5" font-family="Helvetica,sans-Serif" font-size="10.00">cmath</text>
</a>
</g>
</g>
<!-- Node10&#45;&gt;Node12 -->
<g id="edge12" class="edge">
<title>Node10&#45;&gt;Node12</title>
<path fill="none" stroke="midnightblue" d="M936.6,-56.08C943.23,-48.3 953.02,-36.8 961.06,-27.37"/>
<polygon fill="midnightblue" stroke="midnightblue" points="963.73,-29.63 967.55,-19.75 958.4,-25.09 963.73,-29.63"/>
</g>
</g>
</svg>
