<?xml version="1.0" encoding="UTF-8" standalone="no"?>
<!DOCTYPE svg PUBLIC "-//W3C//DTD SVG 1.1//EN"
 "http://www.w3.org/Graphics/SVG/1.1/DTD/svg11.dtd">
<!-- Generated by graphviz version 2.43.0 (0)
 -->
<!-- Title: src/RobotCreator.cpp Pages: 1 -->
<svg width="1020pt" height="196pt"
 viewBox="0.00 0.00 1020.00 196.00" xmlns="http://www.w3.org/2000/svg" xmlns:xlink="http://www.w3.org/1999/xlink">
<g id="graph0" class="graph" transform="scale(1 1) rotate(0) translate(4 192)">
<title>src/RobotCreator.cpp</title>
<polygon fill="white" stroke="transparent" points="-4,4 -4,-192 1016,-192 1016,4 -4,4"/>
<!-- Node1 -->
<g id="node1" class="node">
<title>Node1</title>
<g id="a_node1"><a xlink:title=" ">
<polygon fill="#bfbfbf" stroke="black" points="546.5,-168.5 546.5,-187.5 665.5,-187.5 665.5,-168.5 546.5,-168.5"/>
<text text-anchor="middle" x="606" y="-175.5" font-family="Helvetica,sans-Serif" font-size="10.00">src/RobotCreator.cpp</text>
</a>
</g>
</g>
<!-- Node2 -->
<g id="node2" class="node">
<title>Node2</title>
<g id="a_node2"><a xlink:href="RobotCreator_8hpp.html" target="_top" xlink:title=" ">
<polygon fill="white" stroke="black" points="465,-112.5 465,-131.5 635,-131.5 635,-112.5 465,-112.5"/>
<text text-anchor="middle" x="550" y="-119.5" font-family="Helvetica,sans-Serif" font-size="10.00">artgslam_vsc/RobotCreator.hpp</text>
</a>
</g>
</g>
<!-- Node1&#45;&gt;Node2 -->
<g id="edge1" class="edge">
<title>Node1&#45;&gt;Node2</title>
<path fill="none" stroke="midnightblue" d="M597,-168.32C588.81,-160.42 576.49,-148.55 566.53,-138.94"/>
<polygon fill="midnightblue" stroke="midnightblue" points="568.79,-136.26 559.16,-131.83 563.93,-141.29 568.79,-136.26"/>
</g>
<!-- Node3 -->
<g id="node3" class="node">
<title>Node3</title>
<g id="a_node3"><a xlink:title=" ">
<polygon fill="white" stroke="#bfbfbf" points="0,-56.5 0,-75.5 60,-75.5 60,-56.5 0,-56.5"/>
<text text-anchor="middle" x="30" y="-63.5" font-family="Helvetica,sans-Serif" font-size="10.00">iostream</text>
</a>
</g>
</g>
<!-- Node1&#45;&gt;Node3 -->
<g id="edge15" class="edge">
<title>Node1&#45;&gt;Node3</title>
<path fill="none" stroke="midnightblue" d="M561.28,-168.46C452.29,-147.65 174.27,-94.55 70.16,-74.67"/>
<polygon fill="midnightblue" stroke="midnightblue" points="70.55,-71.18 60.07,-72.74 69.23,-78.06 70.55,-71.18"/>
</g>
<!-- Node9 -->
<g id="node9" class="node">
<title>Node9</title>
<g id="a_node9"><a xlink:title=" ">
<polygon fill="white" stroke="#bfbfbf" points="968,-56.5 968,-75.5 1012,-75.5 1012,-56.5 968,-56.5"/>
<text text-anchor="middle" x="990" y="-63.5" font-family="Helvetica,sans-Serif" font-size="10.00">regex</text>
</a>
</g>
</g>
<!-- Node1&#45;&gt;Node9 -->
<g id="edge16" class="edge">
<title>Node1&#45;&gt;Node9</title>
<path fill="none" stroke="midnightblue" d="M612.93,-168.48C625.17,-154.1 652.17,-125.26 682,-112 792.45,-62.89 835.21,-99.34 957.63,-75.94"/>
<polygon fill="midnightblue" stroke="midnightblue" points="958.64,-79.3 967.75,-73.9 957.26,-72.44 958.64,-79.3"/>
</g>
<!-- Node14 -->
<g id="node14" class="node">
<title>Node14</title>
<g id="a_node14"><a xlink:title=" ">
<polygon fill="white" stroke="#bfbfbf" points="691.5,-112.5 691.5,-131.5 776.5,-131.5 776.5,-112.5 691.5,-112.5"/>
<text text-anchor="middle" x="734" y="-119.5" font-family="Helvetica,sans-Serif" font-size="10.00">ros/package.h</text>
</a>
</g>
</g>
<!-- Node1&#45;&gt;Node14 -->
<g id="edge14" class="edge">
<title>Node1&#45;&gt;Node14</title>
<path fill="none" stroke="midnightblue" d="M626.28,-168.44C647.35,-159.56 680.52,-145.56 704.49,-135.45"/>
<polygon fill="midnightblue" stroke="midnightblue" points="705.96,-138.63 713.81,-131.52 703.24,-132.18 705.96,-138.63"/>
</g>
<!-- Node2&#45;&gt;Node3 -->
<g id="edge2" class="edge">
<title>Node2&#45;&gt;Node3</title>
<path fill="none" stroke="midnightblue" d="M464.97,-115.73C369.49,-109.17 210.08,-96.29 74,-76 72.74,-75.81 71.47,-75.61 70.18,-75.4"/>
<polygon fill="midnightblue" stroke="midnightblue" points="70.68,-71.94 60.22,-73.63 69.45,-78.83 70.68,-71.94"/>
</g>
<!-- Node4 -->
<g id="node4" class="node">
<title>Node4</title>
<g id="a_node4"><a xlink:title=" ">
<polygon fill="white" stroke="#bfbfbf" points="360,-0.5 360,-19.5 470,-19.5 470,-0.5 360,-0.5"/>
<text text-anchor="middle" x="415" y="-7.5" font-family="Helvetica,sans-Serif" font-size="10.00">SFML/Graphics.hpp</text>
</a>
</g>
</g>
<!-- Node2&#45;&gt;Node4 -->
<g id="edge3" class="edge">
<title>Node2&#45;&gt;Node4</title>
<path fill="none" stroke="midnightblue" d="M464.75,-118.38C342.78,-113.74 130.48,-101.99 107,-76 101.04,-69.4 101.19,-62.72 107,-56 137.72,-20.47 268.71,-12.44 349.65,-10.95"/>
<polygon fill="midnightblue" stroke="midnightblue" points="349.8,-14.45 359.75,-10.79 349.69,-7.45 349.8,-14.45"/>
</g>
<!-- Node5 -->
<g id="node5" class="node">
<title>Node5</title>
<g id="a_node5"><a xlink:title=" ">
<polygon fill="white" stroke="#bfbfbf" points="116,-56.5 116,-75.5 298,-75.5 298,-56.5 116,-56.5"/>
<text text-anchor="middle" x="207" y="-63.5" font-family="Helvetica,sans-Serif" font-size="10.00">TGUI/Backend/SFML&#45;Graphics.hpp</text>
</a>
</g>
</g>
<!-- Node2&#45;&gt;Node5 -->
<g id="edge4" class="edge">
<title>Node2&#45;&gt;Node5</title>
<path fill="none" stroke="midnightblue" d="M495.65,-112.44C434.69,-102.85 335.89,-87.29 271.18,-77.1"/>
<polygon fill="midnightblue" stroke="midnightblue" points="271.52,-73.61 261.1,-75.52 270.43,-80.53 271.52,-73.61"/>
</g>
<!-- Node6 -->
<g id="node6" class="node">
<title>Node6</title>
<g id="a_node6"><a xlink:title=" ">
<polygon fill="white" stroke="#bfbfbf" points="316.5,-56.5 316.5,-75.5 461.5,-75.5 461.5,-56.5 316.5,-56.5"/>
<text text-anchor="middle" x="389" y="-63.5" font-family="Helvetica,sans-Serif" font-size="10.00">TGUI/Widgets/EditBox.hpp</text>
</a>
</g>
</g>
<!-- Node2&#45;&gt;Node6 -->
<g id="edge5" class="edge">
<title>Node2&#45;&gt;Node6</title>
<path fill="none" stroke="midnightblue" d="M524.49,-112.44C497.4,-103.36 454.41,-88.94 424.13,-78.78"/>
<polygon fill="midnightblue" stroke="midnightblue" points="424.99,-75.38 414.39,-75.52 422.76,-82.01 424.99,-75.38"/>
</g>
<!-- Node7 -->
<g id="node7" class="node">
<title>Node7</title>
<g id="a_node7"><a xlink:title=" ">
<polygon fill="white" stroke="#bfbfbf" points="480,-56.5 480,-75.5 620,-75.5 620,-56.5 480,-56.5"/>
<text text-anchor="middle" x="550" y="-63.5" font-family="Helvetica,sans-Serif" font-size="10.00">TGUI/Widgets/Button.hpp</text>
</a>
</g>
</g>
<!-- Node2&#45;&gt;Node7 -->
<g id="edge6" class="edge">
<title>Node2&#45;&gt;Node7</title>
<path fill="none" stroke="midnightblue" d="M550,-112.08C550,-105.01 550,-94.86 550,-85.99"/>
<polygon fill="midnightblue" stroke="midnightblue" points="553.5,-85.75 550,-75.75 546.5,-85.75 553.5,-85.75"/>
</g>
<!-- Node8 -->
<g id="node8" class="node">
<title>Node8</title>
<g id="a_node8"><a xlink:title=" ">
<polygon fill="white" stroke="#bfbfbf" points="638.5,-56.5 638.5,-75.5 697.5,-75.5 697.5,-56.5 638.5,-56.5"/>
<text text-anchor="middle" x="668" y="-63.5" font-family="Helvetica,sans-Serif" font-size="10.00">ros/ros.h</text>
</a>
</g>
</g>
<!-- Node2&#45;&gt;Node8 -->
<g id="edge7" class="edge">
<title>Node2&#45;&gt;Node8</title>
<path fill="none" stroke="midnightblue" d="M568.7,-112.44C587.94,-103.64 618.15,-89.81 640.2,-79.72"/>
<polygon fill="midnightblue" stroke="midnightblue" points="641.75,-82.86 649.39,-75.52 638.84,-76.5 641.75,-82.86"/>
</g>
<!-- Node2&#45;&gt;Node9 -->
<g id="edge8" class="edge">
<title>Node2&#45;&gt;Node9</title>
<path fill="none" stroke="midnightblue" d="M634.89,-112.45C737.83,-101.97 903.44,-84.71 957.69,-75.78"/>
<polygon fill="midnightblue" stroke="midnightblue" points="958.55,-79.18 967.76,-73.96 957.3,-72.29 958.55,-79.18"/>
</g>
<!-- Node10 -->
<g id="node10" class="node">
<title>Node10</title>
<g id="a_node10"><a xlink:title=" ">
<polygon fill="white" stroke="#bfbfbf" points="715.5,-56.5 715.5,-75.5 764.5,-75.5 764.5,-56.5 715.5,-56.5"/>
<text text-anchor="middle" x="740" y="-63.5" font-family="Helvetica,sans-Serif" font-size="10.00">cctype</text>
</a>
</g>
</g>
<!-- Node2&#45;&gt;Node10 -->
<g id="edge9" class="edge">
<title>Node2&#45;&gt;Node10</title>
<path fill="none" stroke="midnightblue" d="M580.11,-112.44C614.2,-102.75 669.66,-86.99 705.48,-76.81"/>
<polygon fill="midnightblue" stroke="midnightblue" points="706.81,-80.07 715.47,-73.97 704.9,-73.34 706.81,-80.07"/>
</g>
<!-- Node11 -->
<g id="node11" class="node">
<title>Node11</title>
<g id="a_node11"><a xlink:href="UnicicleWmr_8hpp.html" target="_top" xlink:title=" ">
<polygon fill="white" stroke="black" points="782,-56.5 782,-75.5 950,-75.5 950,-56.5 782,-56.5"/>
<text text-anchor="middle" x="866" y="-63.5" font-family="Helvetica,sans-Serif" font-size="10.00">artgslam_vsc/UnicicleWmr.hpp</text>
</a>
</g>
</g>
<!-- Node2&#45;&gt;Node11 -->
<g id="edge10" class="edge">
<title>Node2&#45;&gt;Node11</title>
<path fill="none" stroke="midnightblue" d="M600.07,-112.44C656.01,-102.89 746.51,-87.42 806.14,-77.23"/>
<polygon fill="midnightblue" stroke="midnightblue" points="806.9,-80.65 816.16,-75.52 805.72,-73.75 806.9,-80.65"/>
</g>
<!-- Node11&#45;&gt;Node4 -->
<g id="edge11" class="edge">
<title>Node11&#45;&gt;Node4</title>
<path fill="none" stroke="midnightblue" d="M794.54,-56.44C708.11,-46.09 563.84,-28.82 480.28,-18.82"/>
<polygon fill="midnightblue" stroke="midnightblue" points="480.5,-15.32 470.15,-17.6 479.66,-22.27 480.5,-15.32"/>
</g>
<!-- Node12 -->
<g id="node12" class="node">
<title>Node12</title>
<g id="a_node12"><a xlink:href="MyConstants_8hpp.html" target="_top" xlink:title=" ">
<polygon fill="white" stroke="black" points="769.5,-0.5 769.5,-19.5 870.5,-19.5 870.5,-0.5 769.5,-0.5"/>
<text text-anchor="middle" x="820" y="-7.5" font-family="Helvetica,sans-Serif" font-size="10.00">MyConstants.hpp</text>
</a>
</g>
</g>
<!-- Node11&#45;&gt;Node12 -->
<g id="edge12" class="edge">
<title>Node11&#45;&gt;Node12</title>
<path fill="none" stroke="midnightblue" d="M858.4,-56.08C851.77,-48.3 841.98,-36.8 833.94,-27.37"/>
<polygon fill="midnightblue" stroke="midnightblue" points="836.6,-25.09 827.45,-19.75 831.27,-29.63 836.6,-25.09"/>
</g>
<!-- Node13 -->
<g id="node13" class="node">
<title>Node13</title>
<g id="a_node13"><a xlink:title=" ">
<polygon fill="white" stroke="#bfbfbf" points="888.5,-0.5 888.5,-19.5 935.5,-19.5 935.5,-0.5 888.5,-0.5"/>
<text text-anchor="middle" x="912" y="-7.5" font-family="Helvetica,sans-Serif" font-size="10.00">cmath</text>
</a>
</g>
</g>
<!-- Node11&#45;&gt;Node13 -->
<g id="edge13" class="edge">
<title>Node11&#45;&gt;Node13</title>
<path fill="none" stroke="midnightblue" d="M873.6,-56.08C880.23,-48.3 890.02,-36.8 898.06,-27.37"/>
<polygon fill="midnightblue" stroke="midnightblue" points="900.73,-29.63 904.55,-19.75 895.4,-25.09 900.73,-29.63"/>
</g>
</g>
</svg>
