<?xml version="1.0" encoding="UTF-8" standalone="no"?>
<!DOCTYPE svg PUBLIC "-//W3C//DTD SVG 1.1//EN"
 "http://www.w3.org/Graphics/SVG/1.1/DTD/svg11.dtd">
<!-- Generated by graphviz version 2.43.0 (0)
 -->
<!-- Title: include/artgslam_vsc/RosHandler.hpp Pages: 1 -->
<svg width="1599pt" height="95pt"
 viewBox="0.00 0.00 1599.00 95.00" xmlns="http://www.w3.org/2000/svg" xmlns:xlink="http://www.w3.org/1999/xlink">
<g id="graph0" class="graph" transform="scale(1 1) rotate(0) translate(4 91)">
<title>include/artgslam_vsc/RosHandler.hpp</title>
<polygon fill="white" stroke="transparent" points="-4,4 -4,-91 1595,-91 1595,4 -4,4"/>
<!-- Node1 -->
<g id="node1" class="node">
<title>Node1</title>
<g id="a_node1"><a xlink:title=" ">
<polygon fill="#bfbfbf" stroke="black" points="908.5,-56.5 908.5,-86.5 1028.5,-86.5 1028.5,-56.5 908.5,-56.5"/>
<text text-anchor="start" x="916.5" y="-74.5" font-family="Helvetica,sans-Serif" font-size="10.00">include/artgslam_vsc</text>
<text text-anchor="middle" x="968.5" y="-63.5" font-family="Helvetica,sans-Serif" font-size="10.00">/RosHandler.hpp</text>
</a>
</g>
</g>
<!-- Node2 -->
<g id="node2" class="node">
<title>Node2</title>
<g id="a_node2"><a xlink:title=" ">
<polygon fill="white" stroke="#bfbfbf" points="0,-0.5 0,-19.5 59,-19.5 59,-0.5 0,-0.5"/>
<text text-anchor="middle" x="29.5" y="-7.5" font-family="Helvetica,sans-Serif" font-size="10.00">ros/ros.h</text>
</a>
</g>
</g>
<!-- Node1&#45;&gt;Node2 -->
<g id="edge1" class="edge">
<title>Node1&#45;&gt;Node2</title>
<path fill="none" stroke="midnightblue" d="M908.38,-70.66C764.73,-70.28 390.22,-64.81 69.17,-19.82"/>
<polygon fill="midnightblue" stroke="midnightblue" points="69.6,-16.34 59.21,-18.41 68.62,-23.28 69.6,-16.34"/>
</g>
<!-- Node3 -->
<g id="node3" class="node">
<title>Node3</title>
<g id="a_node3"><a xlink:title=" ">
<polygon fill="white" stroke="#bfbfbf" points="77.5,-0.5 77.5,-19.5 209.5,-19.5 209.5,-0.5 77.5,-0.5"/>
<text text-anchor="middle" x="143.5" y="-7.5" font-family="Helvetica,sans-Serif" font-size="10.00">geometry_msgs/Twist.h</text>
</a>
</g>
</g>
<!-- Node1&#45;&gt;Node3 -->
<g id="edge2" class="edge">
<title>Node1&#45;&gt;Node3</title>
<path fill="none" stroke="midnightblue" d="M908.14,-67.51C782.24,-61.03 482.22,-44.39 219.84,-20.08"/>
<polygon fill="midnightblue" stroke="midnightblue" points="220.01,-16.58 209.73,-19.14 219.37,-23.55 220.01,-16.58"/>
</g>
<!-- Node4 -->
<g id="node4" class="node">
<title>Node4</title>
<g id="a_node4"><a xlink:title=" ">
<polygon fill="white" stroke="#bfbfbf" points="227.5,-0.5 227.5,-19.5 333.5,-19.5 333.5,-0.5 227.5,-0.5"/>
<text text-anchor="middle" x="280.5" y="-7.5" font-family="Helvetica,sans-Serif" font-size="10.00">sensor_msgs/Joy.h</text>
</a>
</g>
</g>
<!-- Node1&#45;&gt;Node4 -->
<g id="edge3" class="edge">
<title>Node1&#45;&gt;Node4</title>
<path fill="none" stroke="midnightblue" d="M908.38,-66.93C798.44,-60.12 557.4,-43.89 343.72,-20.07"/>
<polygon fill="midnightblue" stroke="midnightblue" points="343.9,-16.57 333.57,-18.93 343.12,-23.52 343.9,-16.57"/>
</g>
<!-- Node5 -->
<g id="node5" class="node">
<title>Node5</title>
<g id="a_node5"><a xlink:title=" ">
<polygon fill="white" stroke="#bfbfbf" points="351.5,-0.5 351.5,-19.5 495.5,-19.5 495.5,-0.5 351.5,-0.5"/>
<text text-anchor="middle" x="423.5" y="-7.5" font-family="Helvetica,sans-Serif" font-size="10.00">geometry_msgs/Point32.h</text>
</a>
</g>
</g>
<!-- Node1&#45;&gt;Node5 -->
<g id="edge4" class="edge">
<title>Node1&#45;&gt;Node5</title>
<path fill="none" stroke="midnightblue" d="M908.43,-64.01C821.96,-54.65 657.1,-36.77 506.29,-20.2"/>
<polygon fill="midnightblue" stroke="midnightblue" points="506.25,-16.67 495.92,-19.06 505.48,-23.63 506.25,-16.67"/>
</g>
<!-- Node6 -->
<g id="node6" class="node">
<title>Node6</title>
<g id="a_node6"><a xlink:title=" ">
<polygon fill="white" stroke="#bfbfbf" points="514,-0.5 514,-19.5 659,-19.5 659,-0.5 514,-0.5"/>
<text text-anchor="middle" x="586.5" y="-7.5" font-family="Helvetica,sans-Serif" font-size="10.00">sensor_msgs/PointCloud.h</text>
</a>
</g>
</g>
<!-- Node1&#45;&gt;Node6 -->
<g id="edge5" class="edge">
<title>Node1&#45;&gt;Node6</title>
<path fill="none" stroke="midnightblue" d="M908.39,-61.14C838.5,-50.25 723.56,-32.35 651.6,-21.14"/>
<polygon fill="midnightblue" stroke="midnightblue" points="651.72,-17.62 641.31,-19.54 650.65,-24.53 651.72,-17.62"/>
</g>
<!-- Node7 -->
<g id="node7" class="node">
<title>Node7</title>
<g id="a_node7"><a xlink:title=" ">
<polygon fill="white" stroke="#bfbfbf" points="677,-0.5 677,-19.5 802,-19.5 802,-0.5 677,-0.5"/>
<text text-anchor="middle" x="739.5" y="-7.5" font-family="Helvetica,sans-Serif" font-size="10.00">nav_msgs/Odometry.h</text>
</a>
</g>
</g>
<!-- Node1&#45;&gt;Node7 -->
<g id="edge6" class="edge">
<title>Node1&#45;&gt;Node7</title>
<path fill="none" stroke="midnightblue" d="M914.52,-56.47C874.15,-45.99 819.7,-31.84 782.31,-22.12"/>
<polygon fill="midnightblue" stroke="midnightblue" points="782.8,-18.63 772.24,-19.51 781.04,-25.41 782.8,-18.63"/>
</g>
<!-- Node8 -->
<g id="node8" class="node">
<title>Node8</title>
<g id="a_node8"><a xlink:title=" ">
<polygon fill="white" stroke="#bfbfbf" points="820.5,-0.5 820.5,-19.5 972.5,-19.5 972.5,-0.5 820.5,-0.5"/>
<text text-anchor="middle" x="896.5" y="-7.5" font-family="Helvetica,sans-Serif" font-size="10.00">nav_msgs/OccupancyGrid.h</text>
</a>
</g>
</g>
<!-- Node1&#45;&gt;Node8 -->
<g id="edge7" class="edge">
<title>Node1&#45;&gt;Node8</title>
<path fill="none" stroke="midnightblue" d="M951.44,-56.4C940.44,-47.31 926.13,-35.49 914.88,-26.19"/>
<polygon fill="midnightblue" stroke="midnightblue" points="916.91,-23.33 906.98,-19.66 912.46,-28.73 916.91,-23.33"/>
</g>
<!-- Node9 -->
<g id="node9" class="node">
<title>Node9</title>
<g id="a_node9"><a xlink:title=" ">
<polygon fill="white" stroke="#bfbfbf" points="990.5,-0.5 990.5,-19.5 1090.5,-19.5 1090.5,-0.5 990.5,-0.5"/>
<text text-anchor="middle" x="1040.5" y="-7.5" font-family="Helvetica,sans-Serif" font-size="10.00">std_msgs/Int32.h</text>
</a>
</g>
</g>
<!-- Node1&#45;&gt;Node9 -->
<g id="edge8" class="edge">
<title>Node1&#45;&gt;Node9</title>
<path fill="none" stroke="midnightblue" d="M985.56,-56.4C996.56,-47.31 1010.87,-35.49 1022.12,-26.19"/>
<polygon fill="midnightblue" stroke="midnightblue" points="1024.54,-28.73 1030.02,-19.66 1020.09,-23.33 1024.54,-28.73"/>
</g>
<!-- Node10 -->
<g id="node10" class="node">
<title>Node10</title>
<g id="a_node10"><a xlink:title=" ">
<polygon fill="white" stroke="#bfbfbf" points="1108.5,-0.5 1108.5,-19.5 1246.5,-19.5 1246.5,-0.5 1108.5,-0.5"/>
<text text-anchor="middle" x="1177.5" y="-7.5" font-family="Helvetica,sans-Serif" font-size="10.00">tf/transform_datatypes.h</text>
</a>
</g>
</g>
<!-- Node1&#45;&gt;Node10 -->
<g id="edge9" class="edge">
<title>Node1&#45;&gt;Node10</title>
<path fill="none" stroke="midnightblue" d="M1017.77,-56.47C1054.45,-46.03 1103.88,-31.96 1137.99,-22.25"/>
<polygon fill="midnightblue" stroke="midnightblue" points="1138.96,-25.61 1147.62,-19.51 1137.04,-18.88 1138.96,-25.61"/>
</g>
<!-- Node11 -->
<g id="node11" class="node">
<title>Node11</title>
<g id="a_node11"><a xlink:title=" ">
<polygon fill="white" stroke="#bfbfbf" points="1264.5,-0.5 1264.5,-19.5 1308.5,-19.5 1308.5,-0.5 1264.5,-0.5"/>
<text text-anchor="middle" x="1286.5" y="-7.5" font-family="Helvetica,sans-Serif" font-size="10.00">string</text>
</a>
</g>
</g>
<!-- Node1&#45;&gt;Node11 -->
<g id="edge10" class="edge">
<title>Node1&#45;&gt;Node11</title>
<path fill="none" stroke="midnightblue" d="M1028.52,-61.88C1084.63,-53.38 1170.89,-39.2 1254.33,-20.07"/>
<polygon fill="midnightblue" stroke="midnightblue" points="1255.27,-23.45 1264.22,-17.78 1253.69,-16.63 1255.27,-23.45"/>
</g>
<!-- Node12 -->
<g id="node12" class="node">
<title>Node12</title>
<g id="a_node12"><a xlink:title=" ">
<polygon fill="white" stroke="#bfbfbf" points="1327,-0.5 1327,-19.5 1374,-19.5 1374,-0.5 1327,-0.5"/>
<text text-anchor="middle" x="1350.5" y="-7.5" font-family="Helvetica,sans-Serif" font-size="10.00">vector</text>
</a>
</g>
</g>
<!-- Node1&#45;&gt;Node12 -->
<g id="edge11" class="edge">
<title>Node1&#45;&gt;Node12</title>
<path fill="none" stroke="midnightblue" d="M1028.79,-64.05C1096.56,-56.29 1209.98,-41.79 1316.81,-19.91"/>
<polygon fill="midnightblue" stroke="midnightblue" points="1317.71,-23.3 1326.79,-17.84 1316.29,-16.44 1317.71,-23.3"/>
</g>
<!-- Node13 -->
<g id="node13" class="node">
<title>Node13</title>
<g id="a_node13"><a xlink:title=" ">
<polygon fill="white" stroke="#bfbfbf" points="1392,-0.5 1392,-19.5 1447,-19.5 1447,-0.5 1392,-0.5"/>
<text text-anchor="middle" x="1419.5" y="-7.5" font-family="Helvetica,sans-Serif" font-size="10.00">fstream</text>
</a>
</g>
</g>
<!-- Node1&#45;&gt;Node13 -->
<g id="edge12" class="edge">
<title>Node1&#45;&gt;Node13</title>
<path fill="none" stroke="midnightblue" d="M1028.64,-65.54C1107.63,-58.5 1250.75,-43.95 1381.48,-20.2"/>
<polygon fill="midnightblue" stroke="midnightblue" points="1382.47,-23.57 1391.67,-18.32 1381.2,-16.69 1382.47,-23.57"/>
</g>
<!-- Node14 -->
<g id="node14" class="node">
<title>Node14</title>
<g id="a_node14"><a xlink:title=" ">
<polygon fill="white" stroke="#bfbfbf" points="1465.5,-0.5 1465.5,-19.5 1525.5,-19.5 1525.5,-0.5 1465.5,-0.5"/>
<text text-anchor="middle" x="1495.5" y="-7.5" font-family="Helvetica,sans-Serif" font-size="10.00">iostream</text>
</a>
</g>
</g>
<!-- Node1&#45;&gt;Node14 -->
<g id="edge13" class="edge">
<title>Node1&#45;&gt;Node14</title>
<path fill="none" stroke="midnightblue" d="M1028.54,-66.69C1119.05,-60.41 1295.93,-46.09 1455.35,-20"/>
<polygon fill="midnightblue" stroke="midnightblue" points="1456.05,-23.43 1465.34,-18.35 1454.9,-16.53 1456.05,-23.43"/>
</g>
<!-- Node15 -->
<g id="node15" class="node">
<title>Node15</title>
<g id="a_node15"><a xlink:title=" ">
<polygon fill="white" stroke="#bfbfbf" points="1544,-0.5 1544,-19.5 1591,-19.5 1591,-0.5 1544,-0.5"/>
<text text-anchor="middle" x="1567.5" y="-7.5" font-family="Helvetica,sans-Serif" font-size="10.00">cmath</text>
</a>
</g>
</g>
<!-- Node1&#45;&gt;Node15 -->
<g id="edge14" class="edge">
<title>Node1&#45;&gt;Node15</title>
<path fill="none" stroke="midnightblue" d="M1028.86,-68.62C1131.08,-64.68 1344.73,-53.13 1533.97,-19.76"/>
<polygon fill="midnightblue" stroke="midnightblue" points="1534.59,-23.2 1543.82,-18 1533.36,-16.31 1534.59,-23.2"/>
</g>
</g>
</svg>
