<?xml version="1.0" encoding="UTF-8" standalone="no"?>
<!DOCTYPE svg PUBLIC "-//W3C//DTD SVG 1.1//EN"
 "http://www.w3.org/Graphics/SVG/1.1/DTD/svg11.dtd">
<!-- Generated by graphviz version 2.43.0 (0)
 -->
<!-- Title: src/RosHandler.cpp Pages: 1 -->
<svg width="1599pt" height="140pt"
 viewBox="0.00 0.00 1599.00 140.00" xmlns="http://www.w3.org/2000/svg" xmlns:xlink="http://www.w3.org/1999/xlink">
<g id="graph0" class="graph" transform="scale(1 1) rotate(0) translate(4 136)">
<title>src/RosHandler.cpp</title>
<polygon fill="white" stroke="transparent" points="-4,4 -4,-136 1595,-136 1595,4 -4,4"/>
<!-- Node1 -->
<g id="node1" class="node">
<title>Node1</title>
<g id="a_node1"><a xlink:title=" ">
<polygon fill="#bfbfbf" stroke="black" points="913.5,-112.5 913.5,-131.5 1023.5,-131.5 1023.5,-112.5 913.5,-112.5"/>
<text text-anchor="middle" x="968.5" y="-119.5" font-family="Helvetica,sans-Serif" font-size="10.00">src/RosHandler.cpp</text>
</a>
</g>
</g>
<!-- Node2 -->
<g id="node2" class="node">
<title>Node2</title>
<g id="a_node2"><a xlink:href="RosHandler_8hpp.html" target="_top" xlink:title=" ">
<polygon fill="white" stroke="black" points="887.5,-56.5 887.5,-75.5 1049.5,-75.5 1049.5,-56.5 887.5,-56.5"/>
<text text-anchor="middle" x="968.5" y="-63.5" font-family="Helvetica,sans-Serif" font-size="10.00">artgslam_vsc/RosHandler.hpp</text>
</a>
</g>
</g>
<!-- Node1&#45;&gt;Node2 -->
<g id="edge1" class="edge">
<title>Node1&#45;&gt;Node2</title>
<path fill="none" stroke="midnightblue" d="M968.5,-112.08C968.5,-105.01 968.5,-94.86 968.5,-85.99"/>
<polygon fill="midnightblue" stroke="midnightblue" points="972,-85.75 968.5,-75.75 965,-85.75 972,-85.75"/>
</g>
<!-- Node3 -->
<g id="node3" class="node">
<title>Node3</title>
<g id="a_node3"><a xlink:title=" ">
<polygon fill="white" stroke="#bfbfbf" points="0,-0.5 0,-19.5 59,-19.5 59,-0.5 0,-0.5"/>
<text text-anchor="middle" x="29.5" y="-7.5" font-family="Helvetica,sans-Serif" font-size="10.00">ros/ros.h</text>
</a>
</g>
</g>
<!-- Node2&#45;&gt;Node3 -->
<g id="edge2" class="edge">
<title>Node2&#45;&gt;Node3</title>
<path fill="none" stroke="midnightblue" d="M887.37,-65.73C730.79,-66.09 376.06,-61.85 69.19,-19.81"/>
<polygon fill="midnightblue" stroke="midnightblue" points="69.6,-16.33 59.21,-18.43 68.63,-23.27 69.6,-16.33"/>
</g>
<!-- Node4 -->
<g id="node4" class="node">
<title>Node4</title>
<g id="a_node4"><a xlink:title=" ">
<polygon fill="white" stroke="#bfbfbf" points="77.5,-0.5 77.5,-19.5 209.5,-19.5 209.5,-0.5 77.5,-0.5"/>
<text text-anchor="middle" x="143.5" y="-7.5" font-family="Helvetica,sans-Serif" font-size="10.00">geometry_msgs/Twist.h</text>
</a>
</g>
</g>
<!-- Node2&#45;&gt;Node4 -->
<g id="edge3" class="edge">
<title>Node2&#45;&gt;Node4</title>
<path fill="none" stroke="midnightblue" d="M887.36,-61.72C751.47,-55.87 469.02,-42.21 219.71,-20.06"/>
<polygon fill="midnightblue" stroke="midnightblue" points="220,-16.57 209.73,-19.16 219.38,-23.54 220,-16.57"/>
</g>
<!-- Node5 -->
<g id="node5" class="node">
<title>Node5</title>
<g id="a_node5"><a xlink:title=" ">
<polygon fill="white" stroke="#bfbfbf" points="227.5,-0.5 227.5,-19.5 333.5,-19.5 333.5,-0.5 227.5,-0.5"/>
<text text-anchor="middle" x="280.5" y="-7.5" font-family="Helvetica,sans-Serif" font-size="10.00">sensor_msgs/Joy.h</text>
</a>
</g>
</g>
<!-- Node2&#45;&gt;Node5 -->
<g id="edge4" class="edge">
<title>Node2&#45;&gt;Node5</title>
<path fill="none" stroke="midnightblue" d="M887.3,-61.04C769.74,-54.9 545.1,-41.58 343.75,-20.06"/>
<polygon fill="midnightblue" stroke="midnightblue" points="343.89,-16.55 333.57,-18.96 343.13,-23.51 343.89,-16.55"/>
</g>
<!-- Node6 -->
<g id="node6" class="node">
<title>Node6</title>
<g id="a_node6"><a xlink:title=" ">
<polygon fill="white" stroke="#bfbfbf" points="351.5,-0.5 351.5,-19.5 495.5,-19.5 495.5,-0.5 351.5,-0.5"/>
<text text-anchor="middle" x="423.5" y="-7.5" font-family="Helvetica,sans-Serif" font-size="10.00">geometry_msgs/Point32.h</text>
</a>
</g>
</g>
<!-- Node2&#45;&gt;Node6 -->
<g id="edge5" class="edge">
<title>Node2&#45;&gt;Node6</title>
<path fill="none" stroke="midnightblue" d="M887.16,-57.46C796.66,-48.99 645.81,-34.64 505.97,-20.14"/>
<polygon fill="midnightblue" stroke="midnightblue" points="506.23,-16.65 495.92,-19.1 505.5,-23.61 506.23,-16.65"/>
</g>
<!-- Node7 -->
<g id="node7" class="node">
<title>Node7</title>
<g id="a_node7"><a xlink:title=" ">
<polygon fill="white" stroke="#bfbfbf" points="514,-0.5 514,-19.5 659,-19.5 659,-0.5 514,-0.5"/>
<text text-anchor="middle" x="586.5" y="-7.5" font-family="Helvetica,sans-Serif" font-size="10.00">sensor_msgs/PointCloud.h</text>
</a>
</g>
</g>
<!-- Node2&#45;&gt;Node7 -->
<g id="edge6" class="edge">
<title>Node2&#45;&gt;Node7</title>
<path fill="none" stroke="midnightblue" d="M907.97,-56.44C839.8,-46.81 729.14,-31.16 657.09,-20.98"/>
<polygon fill="midnightblue" stroke="midnightblue" points="657.14,-17.45 646.75,-19.52 656.16,-24.38 657.14,-17.45"/>
</g>
<!-- Node8 -->
<g id="node8" class="node">
<title>Node8</title>
<g id="a_node8"><a xlink:title=" ">
<polygon fill="white" stroke="#bfbfbf" points="677,-0.5 677,-19.5 802,-19.5 802,-0.5 677,-0.5"/>
<text text-anchor="middle" x="739.5" y="-7.5" font-family="Helvetica,sans-Serif" font-size="10.00">nav_msgs/Odometry.h</text>
</a>
</g>
</g>
<!-- Node2&#45;&gt;Node8 -->
<g id="edge7" class="edge">
<title>Node2&#45;&gt;Node8</title>
<path fill="none" stroke="midnightblue" d="M932.21,-56.44C892.52,-47.08 828.79,-32.06 785.59,-21.87"/>
<polygon fill="midnightblue" stroke="midnightblue" points="786.15,-18.41 775.62,-19.52 784.55,-25.22 786.15,-18.41"/>
</g>
<!-- Node9 -->
<g id="node9" class="node">
<title>Node9</title>
<g id="a_node9"><a xlink:title=" ">
<polygon fill="white" stroke="#bfbfbf" points="820.5,-0.5 820.5,-19.5 972.5,-19.5 972.5,-0.5 820.5,-0.5"/>
<text text-anchor="middle" x="896.5" y="-7.5" font-family="Helvetica,sans-Serif" font-size="10.00">nav_msgs/OccupancyGrid.h</text>
</a>
</g>
</g>
<!-- Node2&#45;&gt;Node9 -->
<g id="edge8" class="edge">
<title>Node2&#45;&gt;Node9</title>
<path fill="none" stroke="midnightblue" d="M956.93,-56.32C946.08,-48.18 929.62,-35.84 916.62,-26.09"/>
<polygon fill="midnightblue" stroke="midnightblue" points="918.38,-23.03 908.28,-19.83 914.18,-28.63 918.38,-23.03"/>
</g>
<!-- Node10 -->
<g id="node10" class="node">
<title>Node10</title>
<g id="a_node10"><a xlink:title=" ">
<polygon fill="white" stroke="#bfbfbf" points="990.5,-0.5 990.5,-19.5 1090.5,-19.5 1090.5,-0.5 990.5,-0.5"/>
<text text-anchor="middle" x="1040.5" y="-7.5" font-family="Helvetica,sans-Serif" font-size="10.00">std_msgs/Int32.h</text>
</a>
</g>
</g>
<!-- Node2&#45;&gt;Node10 -->
<g id="edge9" class="edge">
<title>Node2&#45;&gt;Node10</title>
<path fill="none" stroke="midnightblue" d="M980.07,-56.32C990.92,-48.18 1007.38,-35.84 1020.38,-26.09"/>
<polygon fill="midnightblue" stroke="midnightblue" points="1022.82,-28.63 1028.72,-19.83 1018.62,-23.03 1022.82,-28.63"/>
</g>
<!-- Node11 -->
<g id="node11" class="node">
<title>Node11</title>
<g id="a_node11"><a xlink:title=" ">
<polygon fill="white" stroke="#bfbfbf" points="1108.5,-0.5 1108.5,-19.5 1246.5,-19.5 1246.5,-0.5 1108.5,-0.5"/>
<text text-anchor="middle" x="1177.5" y="-7.5" font-family="Helvetica,sans-Serif" font-size="10.00">tf/transform_datatypes.h</text>
</a>
</g>
</g>
<!-- Node2&#45;&gt;Node11 -->
<g id="edge10" class="edge">
<title>Node2&#45;&gt;Node11</title>
<path fill="none" stroke="midnightblue" d="M1001.62,-56.44C1037.62,-47.14 1095.27,-32.25 1134.69,-22.06"/>
<polygon fill="midnightblue" stroke="midnightblue" points="1135.73,-25.41 1144.54,-19.52 1133.98,-18.63 1135.73,-25.41"/>
</g>
<!-- Node12 -->
<g id="node12" class="node">
<title>Node12</title>
<g id="a_node12"><a xlink:title=" ">
<polygon fill="white" stroke="#bfbfbf" points="1264.5,-0.5 1264.5,-19.5 1308.5,-19.5 1308.5,-0.5 1264.5,-0.5"/>
<text text-anchor="middle" x="1286.5" y="-7.5" font-family="Helvetica,sans-Serif" font-size="10.00">string</text>
</a>
</g>
</g>
<!-- Node2&#45;&gt;Node12 -->
<g id="edge11" class="edge">
<title>Node2&#45;&gt;Node12</title>
<path fill="none" stroke="midnightblue" d="M1039.15,-56.47C1095.13,-49.12 1175.48,-37.29 1254.15,-20.07"/>
<polygon fill="midnightblue" stroke="midnightblue" points="1255.23,-23.42 1264.24,-17.83 1253.72,-16.58 1255.23,-23.42"/>
</g>
<!-- Node13 -->
<g id="node13" class="node">
<title>Node13</title>
<g id="a_node13"><a xlink:title=" ">
<polygon fill="white" stroke="#bfbfbf" points="1327,-0.5 1327,-19.5 1374,-19.5 1374,-0.5 1327,-0.5"/>
<text text-anchor="middle" x="1350.5" y="-7.5" font-family="Helvetica,sans-Serif" font-size="10.00">vector</text>
</a>
</g>
</g>
<!-- Node2&#45;&gt;Node13 -->
<g id="edge12" class="edge">
<title>Node2&#45;&gt;Node13</title>
<path fill="none" stroke="midnightblue" d="M1049.76,-57.73C1118.47,-50.85 1219.61,-38.99 1316.8,-19.88"/>
<polygon fill="midnightblue" stroke="midnightblue" points="1317.68,-23.27 1326.8,-17.88 1316.31,-16.41 1317.68,-23.27"/>
</g>
<!-- Node14 -->
<g id="node14" class="node">
<title>Node14</title>
<g id="a_node14"><a xlink:title=" ">
<polygon fill="white" stroke="#bfbfbf" points="1392,-0.5 1392,-19.5 1447,-19.5 1447,-0.5 1392,-0.5"/>
<text text-anchor="middle" x="1419.5" y="-7.5" font-family="Helvetica,sans-Serif" font-size="10.00">fstream</text>
</a>
</g>
</g>
<!-- Node2&#45;&gt;Node14 -->
<g id="edge13" class="edge">
<title>Node2&#45;&gt;Node14</title>
<path fill="none" stroke="midnightblue" d="M1049.69,-59.5C1131.39,-53.22 1261.12,-41.2 1381.54,-20.15"/>
<polygon fill="midnightblue" stroke="midnightblue" points="1382.44,-23.55 1391.67,-18.36 1381.22,-16.66 1382.44,-23.55"/>
</g>
<!-- Node15 -->
<g id="node15" class="node">
<title>Node15</title>
<g id="a_node15"><a xlink:title=" ">
<polygon fill="white" stroke="#bfbfbf" points="1465.5,-0.5 1465.5,-19.5 1525.5,-19.5 1525.5,-0.5 1465.5,-0.5"/>
<text text-anchor="middle" x="1495.5" y="-7.5" font-family="Helvetica,sans-Serif" font-size="10.00">iostream</text>
</a>
</g>
</g>
<!-- Node2&#45;&gt;Node15 -->
<g id="edge14" class="edge">
<title>Node2&#45;&gt;Node15</title>
<path fill="none" stroke="midnightblue" d="M1049.66,-60.87C1144.66,-55.29 1306.84,-43.4 1455.15,-20.01"/>
<polygon fill="midnightblue" stroke="midnightblue" points="1456.02,-23.42 1465.35,-18.38 1454.92,-16.5 1456.02,-23.42"/>
</g>
<!-- Node16 -->
<g id="node16" class="node">
<title>Node16</title>
<g id="a_node16"><a xlink:title=" ">
<polygon fill="white" stroke="#bfbfbf" points="1544,-0.5 1544,-19.5 1591,-19.5 1591,-0.5 1544,-0.5"/>
<text text-anchor="middle" x="1567.5" y="-7.5" font-family="Helvetica,sans-Serif" font-size="10.00">cmath</text>
</a>
</g>
</g>
<!-- Node2&#45;&gt;Node16 -->
<g id="edge15" class="edge">
<title>Node2&#45;&gt;Node16</title>
<path fill="none" stroke="midnightblue" d="M1049.7,-63.3C1158.11,-59.98 1356.08,-50.2 1533.77,-19.77"/>
<polygon fill="midnightblue" stroke="midnightblue" points="1534.57,-23.19 1543.83,-18.03 1533.37,-16.29 1534.57,-23.19"/>
</g>
</g>
</svg>
