<?xml version="1.0" encoding="UTF-8" standalone="no"?>
<!DOCTYPE svg PUBLIC "-//W3C//DTD SVG 1.1//EN"
 "http://www.w3.org/Graphics/SVG/1.1/DTD/svg11.dtd">
<!-- Generated by graphviz version 2.43.0 (0)
 -->
<!-- Title: tinyfd_saveFileDialog Pages: 1 -->
<svg width="472pt" height="66pt"
 viewBox="0.00 0.00 472.00 66.00" xmlns="http://www.w3.org/2000/svg" xmlns:xlink="http://www.w3.org/1999/xlink">
<g id="graph0" class="graph" transform="scale(1 1) rotate(0) translate(4 62)">
<title>tinyfd_saveFileDialog</title>
<polygon fill="white" stroke="transparent" points="-4,4 -4,-62 468,-62 468,4 -4,4"/>
<!-- Node1 -->
<g id="node1" class="node">
<title>Node1</title>
<g id="a_node1"><a xlink:title=" ">
<polygon fill="#bfbfbf" stroke="black" points="342,-19.5 342,-38.5 464,-38.5 464,-19.5 342,-19.5"/>
<text text-anchor="middle" x="403" y="-26.5" font-family="Helvetica,sans-Serif" font-size="10.00">tinyfd_saveFileDialog</text>
</a>
</g>
</g>
<!-- Node2 -->
<g id="node2" class="node">
<title>Node2</title>
<g id="a_node2"><a xlink:href="classFileManager.html#aebbfa817fd1a8055c738128a22fe0f6f" target="_top" xlink:title="Opens a file dialog to save the current data (coordinates).">
<polygon fill="white" stroke="black" points="168.5,-38.5 168.5,-57.5 305.5,-57.5 305.5,-38.5 168.5,-38.5"/>
<text text-anchor="middle" x="237" y="-45.5" font-family="Helvetica,sans-Serif" font-size="10.00">FileManager::saveDialog</text>
</a>
</g>
</g>
<!-- Node1&#45;&gt;Node2 -->
<g id="edge1" class="edge">
<title>Node1&#45;&gt;Node2</title>
<path fill="none" stroke="midnightblue" d="M331.78,-37.13C323.11,-38.14 314.25,-39.17 305.61,-40.17"/>
<polygon fill="midnightblue" stroke="midnightblue" points="332.33,-40.59 341.86,-35.97 331.53,-33.64 332.33,-40.59"/>
</g>
<!-- Node4 -->
<g id="node4" class="node">
<title>Node4</title>
<g id="a_node4"><a xlink:href="classFileManager.html#ab506f83579b9ad8fe9542fd8197eaeb6" target="_top" xlink:title="Saves a screenshot of the current visualization to an image file.">
<polygon fill="white" stroke="black" points="168,-0.5 168,-19.5 306,-19.5 306,-0.5 168,-0.5"/>
<text text-anchor="middle" x="237" y="-7.5" font-family="Helvetica,sans-Serif" font-size="10.00">FileManager::saveScreen</text>
</a>
</g>
</g>
<!-- Node1&#45;&gt;Node4 -->
<g id="edge3" class="edge">
<title>Node1&#45;&gt;Node4</title>
<path fill="none" stroke="midnightblue" d="M331.66,-20.85C323.21,-19.87 314.59,-18.87 306.17,-17.9"/>
<polygon fill="midnightblue" stroke="midnightblue" points="331.53,-24.36 341.86,-22.03 332.33,-17.41 331.53,-24.36"/>
</g>
<!-- Node3 -->
<g id="node3" class="node">
<title>Node3</title>
<g id="a_node3"><a xlink:href="classMapViewer.html#a6690a879cd4af2058afccd2920c03c0d" target="_top" xlink:title="Constructor.">
<polygon fill="white" stroke="black" points="0,-38.5 0,-57.5 132,-57.5 132,-38.5 0,-38.5"/>
<text text-anchor="middle" x="66" y="-45.5" font-family="Helvetica,sans-Serif" font-size="10.00">MapViewer::MapViewer</text>
</a>
</g>
</g>
<!-- Node2&#45;&gt;Node3 -->
<g id="edge2" class="edge">
<title>Node2&#45;&gt;Node3</title>
<path fill="none" stroke="midnightblue" d="M158.07,-48C149.36,-48 140.56,-48 132.03,-48"/>
<polygon fill="midnightblue" stroke="midnightblue" points="158.24,-51.5 168.24,-48 158.23,-44.5 158.24,-51.5"/>
</g>
</g>
</svg>
