<?xml version="1.0" encoding="UTF-8" standalone="no"?>
<!DOCTYPE svg PUBLIC "-//W3C//DTD SVG 1.1//EN"
 "http://www.w3.org/Graphics/SVG/1.1/DTD/svg11.dtd">
<!-- Generated by graphviz version 2.43.0 (0)
 -->
<!-- Title: src/UnicicleWmr.cpp Pages: 1 -->
<svg width="303pt" height="140pt"
 viewBox="0.00 0.00 302.50 140.00" xmlns="http://www.w3.org/2000/svg" xmlns:xlink="http://www.w3.org/1999/xlink">
<g id="graph0" class="graph" transform="scale(1 1) rotate(0) translate(4 136)">
<title>src/UnicicleWmr.cpp</title>
<polygon fill="white" stroke="transparent" points="-4,4 -4,-136 298.5,-136 298.5,4 -4,4"/>
<!-- Node1 -->
<g id="node1" class="node">
<title>Node1</title>
<g id="a_node1"><a xlink:title=" ">
<polygon fill="#bfbfbf" stroke="black" points="121,-112.5 121,-131.5 237,-131.5 237,-112.5 121,-112.5"/>
<text text-anchor="middle" x="179" y="-119.5" font-family="Helvetica,sans-Serif" font-size="10.00">src/UnicicleWmr.cpp</text>
</a>
</g>
</g>
<!-- Node2 -->
<g id="node2" class="node">
<title>Node2</title>
<g id="a_node2"><a xlink:href="UnicicleWmr_8hpp.html" target="_top" xlink:title=" ">
<polygon fill="white" stroke="black" points="95,-56.5 95,-75.5 263,-75.5 263,-56.5 95,-56.5"/>
<text text-anchor="middle" x="179" y="-63.5" font-family="Helvetica,sans-Serif" font-size="10.00">artgslam_vsc/UnicicleWmr.hpp</text>
</a>
</g>
</g>
<!-- Node1&#45;&gt;Node2 -->
<g id="edge1" class="edge">
<title>Node1&#45;&gt;Node2</title>
<path fill="none" stroke="midnightblue" d="M179,-112.08C179,-105.01 179,-94.86 179,-85.99"/>
<polygon fill="midnightblue" stroke="midnightblue" points="182.5,-85.75 179,-75.75 175.5,-85.75 182.5,-85.75"/>
</g>
<!-- Node3 -->
<g id="node3" class="node">
<title>Node3</title>
<g id="a_node3"><a xlink:title=" ">
<polygon fill="white" stroke="#bfbfbf" points="0,-0.5 0,-19.5 110,-19.5 110,-0.5 0,-0.5"/>
<text text-anchor="middle" x="55" y="-7.5" font-family="Helvetica,sans-Serif" font-size="10.00">SFML/Graphics.hpp</text>
</a>
</g>
</g>
<!-- Node2&#45;&gt;Node3 -->
<g id="edge2" class="edge">
<title>Node2&#45;&gt;Node3</title>
<path fill="none" stroke="midnightblue" d="M159.35,-56.44C139.04,-47.6 107.1,-33.69 83.9,-23.59"/>
<polygon fill="midnightblue" stroke="midnightblue" points="85.12,-20.3 74.56,-19.52 82.33,-26.72 85.12,-20.3"/>
</g>
<!-- Node4 -->
<g id="node4" class="node">
<title>Node4</title>
<g id="a_node4"><a xlink:href="MyConstants_8hpp.html" target="_top" xlink:title=" ">
<polygon fill="white" stroke="black" points="128.5,-0.5 128.5,-19.5 229.5,-19.5 229.5,-0.5 128.5,-0.5"/>
<text text-anchor="middle" x="179" y="-7.5" font-family="Helvetica,sans-Serif" font-size="10.00">MyConstants.hpp</text>
</a>
</g>
</g>
<!-- Node2&#45;&gt;Node4 -->
<g id="edge3" class="edge">
<title>Node2&#45;&gt;Node4</title>
<path fill="none" stroke="midnightblue" d="M179,-56.08C179,-49.01 179,-38.86 179,-29.99"/>
<polygon fill="midnightblue" stroke="midnightblue" points="182.5,-29.75 179,-19.75 175.5,-29.75 182.5,-29.75"/>
</g>
<!-- Node5 -->
<g id="node5" class="node">
<title>Node5</title>
<g id="a_node5"><a xlink:title=" ">
<polygon fill="white" stroke="#bfbfbf" points="247.5,-0.5 247.5,-19.5 294.5,-19.5 294.5,-0.5 247.5,-0.5"/>
<text text-anchor="middle" x="271" y="-7.5" font-family="Helvetica,sans-Serif" font-size="10.00">cmath</text>
</a>
</g>
</g>
<!-- Node2&#45;&gt;Node5 -->
<g id="edge4" class="edge">
<title>Node2&#45;&gt;Node5</title>
<path fill="none" stroke="midnightblue" d="M193.78,-56.32C208.27,-47.82 230.57,-34.73 247.49,-24.8"/>
<polygon fill="midnightblue" stroke="midnightblue" points="249.4,-27.74 256.26,-19.65 245.86,-21.7 249.4,-27.74"/>
</g>
</g>
</svg>
