<?xml version="1.0" encoding="UTF-8" standalone="no"?>
<!DOCTYPE svg PUBLIC "-//W3C//DTD SVG 1.1//EN"
 "http://www.w3.org/Graphics/SVG/1.1/DTD/svg11.dtd">
<!-- Generated by graphviz version 2.43.0 (0)
 -->
<!-- Title: include/artgslam_vsc/UnicicleWmr.hpp Pages: 1 -->
<svg width="350pt" height="229pt"
 viewBox="0.00 0.00 349.50 229.00" xmlns="http://www.w3.org/2000/svg" xmlns:xlink="http://www.w3.org/1999/xlink">
<g id="graph0" class="graph" transform="scale(1 1) rotate(0) translate(4 225)">
<title>include/artgslam_vsc/UnicicleWmr.hpp</title>
<polygon fill="white" stroke="transparent" points="-4,4 -4,-225 345.5,-225 345.5,4 -4,4"/>
<!-- Node1 -->
<g id="node1" class="node">
<title>Node1</title>
<g id="a_node1"><a xlink:title=" ">
<polygon fill="#bfbfbf" stroke="black" points="84,-190.5 84,-220.5 204,-220.5 204,-190.5 84,-190.5"/>
<text text-anchor="start" x="92" y="-208.5" font-family="Helvetica,sans-Serif" font-size="10.00">include/artgslam_vsc</text>
<text text-anchor="middle" x="144" y="-197.5" font-family="Helvetica,sans-Serif" font-size="10.00">/UnicicleWmr.hpp</text>
</a>
</g>
</g>
<!-- Node2 -->
<g id="node2" class="node">
<title>Node2</title>
<g id="a_node2"><a xlink:href="UnicicleWmr_8cpp.html" target="_top" xlink:title=" ">
<polygon fill="white" stroke="black" points="0,-129 0,-148 116,-148 116,-129 0,-129"/>
<text text-anchor="middle" x="58" y="-136" font-family="Helvetica,sans-Serif" font-size="10.00">src/UnicicleWmr.cpp</text>
</a>
</g>
</g>
<!-- Node1&#45;&gt;Node2 -->
<g id="edge1" class="edge">
<title>Node1&#45;&gt;Node2</title>
<path fill="none" stroke="midnightblue" d="M117.33,-184.34C101.28,-172.21 81.67,-157.39 69.5,-148.19"/>
<polygon fill="midnightblue" stroke="midnightblue" points="115.25,-187.16 125.34,-190.4 119.47,-181.57 115.25,-187.16"/>
</g>
<!-- Node3 -->
<g id="node3" class="node">
<title>Node3</title>
<g id="a_node3"><a xlink:href="MapViewer_8hpp.html" target="_top" xlink:title=" ">
<polygon fill="white" stroke="black" points="84,-56.5 84,-86.5 204,-86.5 204,-56.5 84,-56.5"/>
<text text-anchor="start" x="92" y="-74.5" font-family="Helvetica,sans-Serif" font-size="10.00">include/artgslam_vsc</text>
<text text-anchor="middle" x="144" y="-63.5" font-family="Helvetica,sans-Serif" font-size="10.00">/MapViewer.hpp</text>
</a>
</g>
</g>
<!-- Node1&#45;&gt;Node3 -->
<g id="edge2" class="edge">
<title>Node1&#45;&gt;Node3</title>
<path fill="none" stroke="midnightblue" d="M144,-180.02C144,-152.51 144,-108.79 144,-86.52"/>
<polygon fill="midnightblue" stroke="midnightblue" points="140.5,-180.37 144,-190.37 147.5,-180.37 140.5,-180.37"/>
</g>
<!-- Node6 -->
<g id="node6" class="node">
<title>Node6</title>
<g id="a_node6"><a xlink:href="RobotCreator_8hpp.html" target="_top" xlink:title=" ">
<polygon fill="white" stroke="black" points="172,-123.5 172,-153.5 292,-153.5 292,-123.5 172,-123.5"/>
<text text-anchor="start" x="180" y="-141.5" font-family="Helvetica,sans-Serif" font-size="10.00">include/artgslam_vsc</text>
<text text-anchor="middle" x="232" y="-130.5" font-family="Helvetica,sans-Serif" font-size="10.00">/RobotCreator.hpp</text>
</a>
</g>
</g>
<!-- Node1&#45;&gt;Node6 -->
<g id="edge5" class="edge">
<title>Node1&#45;&gt;Node6</title>
<path fill="none" stroke="midnightblue" d="M171.14,-184.45C184.68,-174.45 200.73,-162.6 212.94,-153.58"/>
<polygon fill="midnightblue" stroke="midnightblue" points="169.06,-181.64 163.09,-190.4 173.22,-187.27 169.06,-181.64"/>
</g>
<!-- Node4 -->
<g id="node4" class="node">
<title>Node4</title>
<g id="a_node4"><a xlink:href="main_8cpp.html" target="_top" xlink:title=" ">
<polygon fill="white" stroke="black" points="48.5,-0.5 48.5,-19.5 127.5,-19.5 127.5,-0.5 48.5,-0.5"/>
<text text-anchor="middle" x="88" y="-7.5" font-family="Helvetica,sans-Serif" font-size="10.00">src/main.cpp</text>
</a>
</g>
</g>
<!-- Node3&#45;&gt;Node4 -->
<g id="edge3" class="edge">
<title>Node3&#45;&gt;Node4</title>
<path fill="none" stroke="midnightblue" d="M123.77,-49C114.22,-38.86 103.37,-27.33 96.15,-19.66"/>
<polygon fill="midnightblue" stroke="midnightblue" points="121.33,-51.52 130.73,-56.4 126.42,-46.72 121.33,-51.52"/>
</g>
<!-- Node5 -->
<g id="node5" class="node">
<title>Node5</title>
<g id="a_node5"><a xlink:href="MapViewer_8cpp.html" target="_top" xlink:title=" ">
<polygon fill="white" stroke="black" points="145.5,-0.5 145.5,-19.5 254.5,-19.5 254.5,-0.5 145.5,-0.5"/>
<text text-anchor="middle" x="200" y="-7.5" font-family="Helvetica,sans-Serif" font-size="10.00">src/MapViewer.cpp</text>
</a>
</g>
</g>
<!-- Node3&#45;&gt;Node5 -->
<g id="edge4" class="edge">
<title>Node3&#45;&gt;Node5</title>
<path fill="none" stroke="midnightblue" d="M164.23,-49C173.78,-38.86 184.63,-27.33 191.85,-19.66"/>
<polygon fill="midnightblue" stroke="midnightblue" points="161.58,-46.72 157.27,-56.4 166.67,-51.52 161.58,-46.72"/>
</g>
<!-- Node6&#45;&gt;Node3 -->
<g id="edge7" class="edge">
<title>Node6&#45;&gt;Node3</title>
<path fill="none" stroke="midnightblue" d="M204.86,-117.45C191.32,-107.45 175.27,-95.6 163.06,-86.58"/>
<polygon fill="midnightblue" stroke="midnightblue" points="202.78,-120.27 212.91,-123.4 206.94,-114.64 202.78,-120.27"/>
</g>
<!-- Node7 -->
<g id="node7" class="node">
<title>Node7</title>
<g id="a_node7"><a xlink:href="RobotCreator_8cpp.html" target="_top" xlink:title=" ">
<polygon fill="white" stroke="black" points="222.5,-62 222.5,-81 341.5,-81 341.5,-62 222.5,-62"/>
<text text-anchor="middle" x="282" y="-69" font-family="Helvetica,sans-Serif" font-size="10.00">src/RobotCreator.cpp</text>
</a>
</g>
</g>
<!-- Node6&#45;&gt;Node7 -->
<g id="edge6" class="edge">
<title>Node6&#45;&gt;Node7</title>
<path fill="none" stroke="midnightblue" d="M249.06,-115.32C258.08,-103.6 268.63,-89.88 275.31,-81.19"/>
<polygon fill="midnightblue" stroke="midnightblue" points="246.17,-113.34 242.85,-123.4 251.72,-117.6 246.17,-113.34"/>
</g>
</g>
</svg>
