<?xml version="1.0" encoding="UTF-8" standalone="no"?>
<!DOCTYPE svg PUBLIC "-//W3C//DTD SVG 1.1//EN"
 "http://www.w3.org/Graphics/SVG/1.1/DTD/svg11.dtd">
<!-- Generated by graphviz version 2.43.0 (0)
 -->
<!-- Title: include/artgslam_vsc/ViewController.hpp Pages: 1 -->
<!--zoomable 296 -->
<svg id="main" version="1.1" xmlns="http://www.w3.org/2000/svg" xmlns:xlink="http://www.w3.org/1999/xlink" xml:space="preserve" onload="init(evt)">
<style type="text/css"><![CDATA[
.edge:hover path { stroke: red; }
.edge:hover polygon { stroke: red; fill: red; }
]]></style>
<script type="text/javascript"><![CDATA[
var edges = document.getElementsByTagName('g');
if (edges && edges.length) {
  for (var i=0;i<edges.length;i++) {
    if (edges[i].id.substr(0,4)=='edge') {
      edges[i].setAttribute('class','edge');
    }
  }
}
]]></script>
        <defs>
                <circle id="rim" cx="0" cy="0" r="7"/>
                <circle id="rim2" cx="0" cy="0" r="3.5"/>
                <g id="zoomPlus">
                        <use xlink:href="#rim" fill="#404040">
                                <set attributeName="fill" to="#808080" begin="zoomplus.mouseover" end="zoomplus.mouseout"/>
                        </use>
                        <path d="M-4,0h8M0,-4v8" fill="none" stroke="white" stroke-width="1.5" pointer-events="none"/>
                </g>
                <g id="zoomMin">
                        <use xlink:href="#rim" fill="#404040">
                                <set attributeName="fill" to="#808080" begin="zoomminus.mouseover" end="zoomminus.mouseout"/>
                        </use>
                        <path d="M-4,0h8" fill="none" stroke="white" stroke-width="1.5" pointer-events="none"/>
                </g>
                <g id="dirArrow">
                        <path fill="none" stroke="white" stroke-width="1.5" d="M0,-3.0v7 M-2.5,-0.5L0,-3.0L2.5,-0.5"/>
                </g>
               <g id="resetDef">
                       <use xlink:href="#rim2" fill="#404040">
                               <set attributeName="fill" to="#808080" begin="reset.mouseover" end="reset.mouseout"/>
                       </use>
               </g>
        </defs>

<script type="text/javascript">
var viewWidth = 733;
var viewHeight = 296;
var sectionId = 'dynsection-1';
</script>
<script xlink:href="svgpan.js"/>
<svg id="graph" class="graph">
<g id="viewport">
<title>include/artgslam_vsc/ViewController.hpp</title>
<polygon fill="white" stroke="transparent" points="-4,4 -4,-292 728.5,-292 728.5,4 -4,4"/>
<!-- Node1 -->
<g id="node1" class="node">
<title>Node1</title>
<g id="a_node1"><a xlink:title=" ">
<polygon fill="#bfbfbf" stroke="black" points="258.5,-257.5 258.5,-287.5 378.5,-287.5 378.5,-257.5 258.5,-257.5"/>
<text text-anchor="start" x="266.5" y="-275.5" font-family="Helvetica,sans-Serif" font-size="10.00">include/artgslam_vsc</text>
<text text-anchor="middle" x="318.5" y="-264.5" font-family="Helvetica,sans-Serif" font-size="10.00">/ViewController.hpp</text>
</a>
</g>
</g>
<!-- Node2 -->
<g id="node2" class="node">
<title>Node2</title>
<g id="a_node2"><a xlink:href="ViewController_8cpp.html" target="_top" xlink:title=" ">
<polygon fill="white" stroke="black" points="76.5,-196 76.5,-215 202.5,-215 202.5,-196 76.5,-196"/>
<text text-anchor="middle" x="139.5" y="-203" font-family="Helvetica,sans-Serif" font-size="10.00">src/ViewController.cpp</text>
</a>
</g>
</g>
<!-- Node1&#45;&gt;Node2 -->
<g id="edge1" class="edge">
<title>Node1&#45;&gt;Node2</title>
<path fill="none" stroke="midnightblue" d="M270.16,-253.95C235.39,-241.32 190.03,-224.85 162.93,-215.01"/>
<polygon fill="midnightblue" stroke="midnightblue" points="269.07,-257.27 279.66,-257.4 271.45,-250.69 269.07,-257.27"/>
</g>
<!-- Node3 -->
<g id="node3" class="node">
<title>Node3</title>
<g id="a_node3"><a xlink:href="GridMap_8hpp.html" target="_top" xlink:title=" ">
<polygon fill="white" stroke="black" points="258.5,-190.5 258.5,-220.5 378.5,-220.5 378.5,-190.5 258.5,-190.5"/>
<text text-anchor="start" x="266.5" y="-208.5" font-family="Helvetica,sans-Serif" font-size="10.00">include/artgslam_vsc</text>
<text text-anchor="middle" x="318.5" y="-197.5" font-family="Helvetica,sans-Serif" font-size="10.00">/GridMap.hpp</text>
</a>
</g>
</g>
<!-- Node1&#45;&gt;Node3 -->
<g id="edge2" class="edge">
<title>Node1&#45;&gt;Node3</title>
<path fill="none" stroke="midnightblue" d="M318.5,-247.11C318.5,-238.15 318.5,-228.32 318.5,-220.58"/>
<polygon fill="midnightblue" stroke="midnightblue" points="315,-247.4 318.5,-257.4 322,-247.4 315,-247.4"/>
</g>
<!-- Node7 -->
<g id="node7" class="node">
<title>Node7</title>
<g id="a_node7"><a xlink:href="MapViewer_8hpp.html" target="_top" xlink:title=" ">
<polygon fill="white" stroke="black" points="211.5,-56.5 211.5,-86.5 331.5,-86.5 331.5,-56.5 211.5,-56.5"/>
<text text-anchor="start" x="219.5" y="-74.5" font-family="Helvetica,sans-Serif" font-size="10.00">include/artgslam_vsc</text>
<text text-anchor="middle" x="271.5" y="-63.5" font-family="Helvetica,sans-Serif" font-size="10.00">/MapViewer.hpp</text>
</a>
</g>
</g>
<!-- Node1&#45;&gt;Node7 -->
<g id="edge23" class="edge">
<title>Node1&#45;&gt;Node7</title>
<path fill="none" stroke="midnightblue" d="M279.09,-252.01C267.4,-244.11 255.99,-233.78 249.5,-221 226.74,-176.14 250.8,-114.52 264.02,-86.9"/>
<polygon fill="midnightblue" stroke="midnightblue" points="277.26,-254.99 287.59,-257.34 280.98,-249.06 277.26,-254.99"/>
</g>
<!-- Node10 -->
<g id="node10" class="node">
<title>Node10</title>
<g id="a_node10"><a xlink:href="FileManager_8hpp.html" target="_top" xlink:title=" ">
<polygon fill="white" stroke="black" points="604.5,-123.5 604.5,-153.5 724.5,-153.5 724.5,-123.5 604.5,-123.5"/>
<text text-anchor="start" x="612.5" y="-141.5" font-family="Helvetica,sans-Serif" font-size="10.00">include/artgslam_vsc</text>
<text text-anchor="middle" x="664.5" y="-130.5" font-family="Helvetica,sans-Serif" font-size="10.00">/FileManager.hpp</text>
</a>
</g>
</g>
<!-- Node1&#45;&gt;Node10 -->
<g id="edge22" class="edge">
<title>Node1&#45;&gt;Node10</title>
<path fill="none" stroke="midnightblue" d="M388.79,-260.63C431.17,-252.67 485.64,-239.92 531.5,-221 575.06,-203.03 620.85,-171.84 645.71,-153.7"/>
<polygon fill="midnightblue" stroke="midnightblue" points="388.05,-257.21 378.84,-262.46 389.31,-264.1 388.05,-257.21"/>
</g>
<!-- Node14 -->
<g id="node14" class="node">
<title>Node14</title>
<g id="a_node14"><a xlink:href="LiveMap_8hpp.html" target="_top" xlink:title=" ">
<polygon fill="white" stroke="black" points="402.5,-190.5 402.5,-220.5 522.5,-220.5 522.5,-190.5 402.5,-190.5"/>
<text text-anchor="start" x="410.5" y="-208.5" font-family="Helvetica,sans-Serif" font-size="10.00">include/artgslam_vsc</text>
<text text-anchor="middle" x="462.5" y="-197.5" font-family="Helvetica,sans-Serif" font-size="10.00">/LiveMap.hpp</text>
</a>
</g>
</g>
<!-- Node1&#45;&gt;Node14 -->
<g id="edge17" class="edge">
<title>Node1&#45;&gt;Node14</title>
<path fill="none" stroke="midnightblue" d="M358.89,-253.27C381.82,-242.92 410.1,-230.15 431.32,-220.58"/>
<polygon fill="midnightblue" stroke="midnightblue" points="357.42,-250.09 349.75,-257.4 360.3,-256.47 357.42,-250.09"/>
</g>
<!-- Node4 -->
<g id="node4" class="node">
<title>Node4</title>
<g id="a_node4"><a xlink:href="GridMap_8cpp.html" target="_top" xlink:title=" ">
<polygon fill="white" stroke="black" points="0,-62 0,-81 95,-81 95,-62 0,-62"/>
<text text-anchor="middle" x="47.5" y="-69" font-family="Helvetica,sans-Serif" font-size="10.00">src/GridMap.cpp</text>
</a>
</g>
</g>
<!-- Node3&#45;&gt;Node4 -->
<g id="edge3" class="edge">
<title>Node3&#45;&gt;Node4</title>
<path fill="none" stroke="midnightblue" d="M248.27,-193.72C180.58,-182.75 86.53,-165.72 73.5,-154 52.08,-134.73 48.19,-97.86 47.57,-81.13"/>
<polygon fill="midnightblue" stroke="midnightblue" points="248.05,-197.23 258.47,-195.36 249.16,-190.32 248.05,-197.23"/>
</g>
<!-- Node5 -->
<g id="node5" class="node">
<title>Node5</title>
<g id="a_node5"><a xlink:href="AStar_8hpp.html" target="_top" xlink:title=" ">
<polygon fill="white" stroke="black" points="82.5,-123.5 82.5,-153.5 202.5,-153.5 202.5,-123.5 82.5,-123.5"/>
<text text-anchor="start" x="90.5" y="-141.5" font-family="Helvetica,sans-Serif" font-size="10.00">include/artgslam_vsc</text>
<text text-anchor="middle" x="142.5" y="-130.5" font-family="Helvetica,sans-Serif" font-size="10.00">/AStar.hpp</text>
</a>
</g>
</g>
<!-- Node3&#45;&gt;Node5 -->
<g id="edge4" class="edge">
<title>Node3&#45;&gt;Node5</title>
<path fill="none" stroke="midnightblue" d="M270.62,-186.82C242.33,-176.37 207.01,-163.32 180.61,-153.58"/>
<polygon fill="midnightblue" stroke="midnightblue" points="269.72,-190.21 280.31,-190.4 272.14,-183.65 269.72,-190.21"/>
</g>
<!-- Node3&#45;&gt;Node7 -->
<g id="edge13" class="edge">
<title>Node3&#45;&gt;Node7</title>
<path fill="none" stroke="midnightblue" d="M302.14,-181.74C296.78,-173.36 291.24,-163.57 287.5,-154 278.69,-131.43 274.55,-103.39 272.75,-86.77"/>
<polygon fill="midnightblue" stroke="midnightblue" points="299.34,-183.84 307.81,-190.21 305.15,-179.95 299.34,-183.84"/>
</g>
<!-- Node3&#45;&gt;Node10 -->
<g id="edge10" class="edge">
<title>Node3&#45;&gt;Node10</title>
<path fill="none" stroke="midnightblue" d="M388.93,-190.85C390.47,-190.56 391.99,-190.28 393.5,-190 483.16,-173.34 505.98,-171.38 595.5,-154 598.38,-153.44 601.33,-152.86 604.31,-152.26"/>
<polygon fill="midnightblue" stroke="midnightblue" points="387.84,-187.5 378.66,-192.79 389.14,-194.38 387.84,-187.5"/>
</g>
<!-- Node12 -->
<g id="node12" class="node">
<title>Node12</title>
<g id="a_node12"><a xlink:href="RightClickMapMenu_8hpp.html" target="_top" xlink:title=" ">
<polygon fill="white" stroke="black" points="296.5,-123.5 296.5,-153.5 434.5,-153.5 434.5,-123.5 296.5,-123.5"/>
<text text-anchor="start" x="304.5" y="-141.5" font-family="Helvetica,sans-Serif" font-size="10.00">include/artgslam_vsc</text>
<text text-anchor="middle" x="365.5" y="-130.5" font-family="Helvetica,sans-Serif" font-size="10.00">/RightClickMapMenu.hpp</text>
</a>
</g>
</g>
<!-- Node3&#45;&gt;Node12 -->
<g id="edge14" class="edge">
<title>Node3&#45;&gt;Node12</title>
<path fill="none" stroke="midnightblue" d="M334.66,-182.16C341.51,-172.68 349.29,-161.92 355.32,-153.58"/>
<polygon fill="midnightblue" stroke="midnightblue" points="331.72,-180.24 328.7,-190.4 337.39,-184.34 331.72,-180.24"/>
</g>
<!-- Node5&#45;&gt;Node4 -->
<g id="edge6" class="edge">
<title>Node5&#45;&gt;Node4</title>
<path fill="none" stroke="midnightblue" d="M113.48,-117.64C95.55,-105.37 73.46,-90.26 59.93,-81.01"/>
<polygon fill="midnightblue" stroke="midnightblue" points="111.66,-120.64 121.89,-123.4 115.61,-114.86 111.66,-120.64"/>
</g>
<!-- Node6 -->
<g id="node6" class="node">
<title>Node6</title>
<g id="a_node6"><a xlink:href="Astar_8cpp.html" target="_top" xlink:title=" ">
<polygon fill="white" stroke="black" points="113.5,-62 113.5,-81 193.5,-81 193.5,-62 113.5,-62"/>
<text text-anchor="middle" x="153.5" y="-69" font-family="Helvetica,sans-Serif" font-size="10.00">src/Astar.cpp</text>
</a>
</g>
</g>
<!-- Node5&#45;&gt;Node6 -->
<g id="edge5" class="edge">
<title>Node5&#45;&gt;Node6</title>
<path fill="none" stroke="midnightblue" d="M146.6,-113.25C148.5,-102.02 150.64,-89.38 152.03,-81.19"/>
<polygon fill="midnightblue" stroke="midnightblue" points="143.1,-112.95 144.89,-123.4 150.01,-114.12 143.1,-112.95"/>
</g>
<!-- Node5&#45;&gt;Node7 -->
<g id="edge7" class="edge">
<title>Node5&#45;&gt;Node7</title>
<path fill="none" stroke="midnightblue" d="M179.51,-118.85C199.9,-108.58 224.81,-96.03 243.56,-86.58"/>
<polygon fill="midnightblue" stroke="midnightblue" points="177.85,-115.77 170.49,-123.4 181,-122.02 177.85,-115.77"/>
</g>
<!-- Node8 -->
<g id="node8" class="node">
<title>Node8</title>
<g id="a_node8"><a xlink:href="main_8cpp.html" target="_top" xlink:title=" ">
<polygon fill="white" stroke="black" points="176,-0.5 176,-19.5 255,-19.5 255,-0.5 176,-0.5"/>
<text text-anchor="middle" x="215.5" y="-7.5" font-family="Helvetica,sans-Serif" font-size="10.00">src/main.cpp</text>
</a>
</g>
</g>
<!-- Node7&#45;&gt;Node8 -->
<g id="edge8" class="edge">
<title>Node7&#45;&gt;Node8</title>
<path fill="none" stroke="midnightblue" d="M251.27,-49C241.72,-38.86 230.87,-27.33 223.65,-19.66"/>
<polygon fill="midnightblue" stroke="midnightblue" points="248.83,-51.52 258.23,-56.4 253.92,-46.72 248.83,-51.52"/>
</g>
<!-- Node9 -->
<g id="node9" class="node">
<title>Node9</title>
<g id="a_node9"><a xlink:href="MapViewer_8cpp.html" target="_top" xlink:title=" ">
<polygon fill="white" stroke="black" points="273,-0.5 273,-19.5 382,-19.5 382,-0.5 273,-0.5"/>
<text text-anchor="middle" x="327.5" y="-7.5" font-family="Helvetica,sans-Serif" font-size="10.00">src/MapViewer.cpp</text>
</a>
</g>
</g>
<!-- Node7&#45;&gt;Node9 -->
<g id="edge9" class="edge">
<title>Node7&#45;&gt;Node9</title>
<path fill="none" stroke="midnightblue" d="M291.73,-49C301.28,-38.86 312.13,-27.33 319.35,-19.66"/>
<polygon fill="midnightblue" stroke="midnightblue" points="289.08,-46.72 284.77,-56.4 294.17,-51.52 289.08,-46.72"/>
</g>
<!-- Node10&#45;&gt;Node7 -->
<g id="edge12" class="edge">
<title>Node10&#45;&gt;Node7</title>
<path fill="none" stroke="midnightblue" d="M594.22,-122.85C481.03,-103.4 450.04,-106.22 340.5,-87 337.61,-86.49 334.65,-85.95 331.66,-85.39"/>
<polygon fill="midnightblue" stroke="midnightblue" points="593.88,-126.34 604.34,-124.61 595.08,-119.45 593.88,-126.34"/>
</g>
<!-- Node11 -->
<g id="node11" class="node">
<title>Node11</title>
<g id="a_node11"><a xlink:href="FileManager_8cpp.html" target="_top" xlink:title=" ">
<polygon fill="white" stroke="black" points="608,-62 608,-81 721,-81 721,-62 608,-62"/>
<text text-anchor="middle" x="664.5" y="-69" font-family="Helvetica,sans-Serif" font-size="10.00">src/FileManager.cpp</text>
</a>
</g>
</g>
<!-- Node10&#45;&gt;Node11 -->
<g id="edge11" class="edge">
<title>Node10&#45;&gt;Node11</title>
<path fill="none" stroke="midnightblue" d="M664.5,-113.25C664.5,-102.02 664.5,-89.38 664.5,-81.19"/>
<polygon fill="midnightblue" stroke="midnightblue" points="661,-113.4 664.5,-123.4 668,-113.4 661,-113.4"/>
</g>
<!-- Node12&#45;&gt;Node7 -->
<g id="edge16" class="edge">
<title>Node12&#45;&gt;Node7</title>
<path fill="none" stroke="midnightblue" d="M336.51,-117.45C322.05,-107.45 304.91,-95.6 291.86,-86.58"/>
<polygon fill="midnightblue" stroke="midnightblue" points="334.89,-120.59 345.1,-123.4 338.87,-114.83 334.89,-120.59"/>
</g>
<!-- Node13 -->
<g id="node13" class="node">
<title>Node13</title>
<g id="a_node13"><a xlink:href="RightClickMapMenu_8cpp.html" target="_top" xlink:title=" ">
<polygon fill="white" stroke="black" points="349.5,-62 349.5,-81 501.5,-81 501.5,-62 349.5,-62"/>
<text text-anchor="middle" x="425.5" y="-69" font-family="Helvetica,sans-Serif" font-size="10.00">src/RightClickMapMenu.cpp</text>
</a>
</g>
</g>
<!-- Node12&#45;&gt;Node13 -->
<g id="edge15" class="edge">
<title>Node12&#45;&gt;Node13</title>
<path fill="none" stroke="midnightblue" d="M385.35,-116C396.3,-104.13 409.3,-90.05 417.47,-81.19"/>
<polygon fill="midnightblue" stroke="midnightblue" points="382.73,-113.67 378.52,-123.4 387.87,-118.42 382.73,-113.67"/>
</g>
<!-- Node14&#45;&gt;Node7 -->
<g id="edge20" class="edge">
<title>Node14&#45;&gt;Node7</title>
<path fill="none" stroke="midnightblue" d="M463.04,-180.37C462.13,-162.35 457.95,-138.29 443.5,-123 435.4,-114.43 376.65,-98.32 330.04,-86.59"/>
<polygon fill="midnightblue" stroke="midnightblue" points="459.54,-180.5 463.25,-190.43 466.54,-180.36 459.54,-180.5"/>
</g>
<!-- Node14&#45;&gt;Node10 -->
<g id="edge19" class="edge">
<title>Node14&#45;&gt;Node10</title>
<path fill="none" stroke="midnightblue" d="M516.18,-187.23C548.85,-176.71 590.07,-163.45 620.75,-153.58"/>
<polygon fill="midnightblue" stroke="midnightblue" points="514.78,-184 506.33,-190.4 516.92,-190.66 514.78,-184"/>
</g>
<!-- Node14&#45;&gt;Node12 -->
<g id="edge21" class="edge">
<title>Node14&#45;&gt;Node12</title>
<path fill="none" stroke="midnightblue" d="M433,-184.73C417.99,-174.68 400.1,-162.68 386.51,-153.58"/>
<polygon fill="midnightblue" stroke="midnightblue" points="431.2,-187.74 441.45,-190.4 435.09,-181.92 431.2,-187.74"/>
</g>
<!-- Node15 -->
<g id="node15" class="node">
<title>Node15</title>
<g id="a_node15"><a xlink:href="LiveMap_8cpp.html" target="_top" xlink:title=" ">
<polygon fill="white" stroke="black" points="491,-129 491,-148 586,-148 586,-129 491,-129"/>
<text text-anchor="middle" x="538.5" y="-136" font-family="Helvetica,sans-Serif" font-size="10.00">src/LiveMap.cpp</text>
</a>
</g>
</g>
<!-- Node14&#45;&gt;Node15 -->
<g id="edge18" class="edge">
<title>Node14&#45;&gt;Node15</title>
<path fill="none" stroke="midnightblue" d="M486.85,-183.67C500.89,-171.67 517.78,-157.22 528.33,-148.19"/>
<polygon fill="midnightblue" stroke="midnightblue" points="484.32,-181.24 478.99,-190.4 488.87,-186.56 484.32,-181.24"/>
</g>
</g>
</svg>
        <g id="navigator" transform="translate(0 0)" fill="#404254">
                <rect fill="#f2f5e9" fill-opacity="0.5" stroke="#606060" stroke-width=".5" x="0" y="0" width="60" height="60"/>
                <use id="zoomplus" xlink:href="#zoomPlus" x="17" y="9" onmousedown="handleZoom(evt,'in')"/>
                <use id="zoomminus" xlink:href="#zoomMin" x="42" y="9" onmousedown="handleZoom(evt,'out')"/>
                <use id="reset" xlink:href="#resetDef" x="30" y="36" onmousedown="handleReset()"/>
                <g id="arrowUp" xlink:href="#dirArrow" transform="translate(30 24)" onmousedown="handlePan(0,-1)">
                  <use xlink:href="#rim" fill="#404040">
                        <set attributeName="fill" to="#808080" begin="arrowUp.mouseover" end="arrowUp.mouseout"/>
                  </use>
                  <path fill="none" stroke="white" stroke-width="1.5" d="M0,-3.0v7 M-2.5,-0.5L0,-3.0L2.5,-0.5"/>
                </g>
                <g id="arrowRight" xlink:href="#dirArrow" transform="rotate(90) translate(36 -43)" onmousedown="handlePan(1,0)">
                  <use xlink:href="#rim" fill="#404040">
                        <set attributeName="fill" to="#808080" begin="arrowRight.mouseover" end="arrowRight.mouseout"/>
                  </use>
                  <path fill="none" stroke="white" stroke-width="1.5" d="M0,-3.0v7 M-2.5,-0.5L0,-3.0L2.5,-0.5"/>
                </g>
                <g id="arrowDown" xlink:href="#dirArrow" transform="rotate(180) translate(-30 -48)" onmousedown="handlePan(0,1)">
                  <use xlink:href="#rim" fill="#404040">
                        <set attributeName="fill" to="#808080" begin="arrowDown.mouseover" end="arrowDown.mouseout"/>
                  </use>
                  <path fill="none" stroke="white" stroke-width="1.5" d="M0,-3.0v7 M-2.5,-0.5L0,-3.0L2.5,-0.5"/>
                </g>
                <g id="arrowLeft" xlink:href="#dirArrow" transform="rotate(270) translate(-36 17)" onmousedown="handlePan(-1,0)">
                  <use xlink:href="#rim" fill="#404040">
                        <set attributeName="fill" to="#808080" begin="arrowLeft.mouseover" end="arrowLeft.mouseout"/>
                  </use>
                  <path fill="none" stroke="white" stroke-width="1.5" d="M0,-3.0v7 M-2.5,-0.5L0,-3.0L2.5,-0.5"/>
                </g>
        </g>
        <svg viewBox="0 0 15 15" width="100%" height="30px" preserveAspectRatio="xMaxYMin meet">
         <g id="arrow_out" transform="scale(0.3 0.3)">
          <a xlink:href="ViewController_8hpp__dep__incl_org.svg" target="_base">
           <rect id="button" ry="5" rx="5" y="6" x="6" height="38" width="38"
                fill="#f2f5e9" fill-opacity="0.5" stroke="#606060" stroke-width="1.0"/>
           <path id="arrow"
             d="M 11.500037,31.436501 C 11.940474,20.09759 22.043105,11.32322 32.158766,21.979434 L 37.068811,17.246167 C 37.068811,17.246167 37.088388,32 37.088388,32 L 22.160133,31.978069 C 22.160133,31.978069 26.997745,27.140456 26.997745,27.140456 C 18.528582,18.264221 13.291696,25.230495 11.500037,31.436501 z"
             style="fill:#404040;"/>
          </a>
         </g>
        </svg>
</svg>
