<?xml version="1.0" encoding="UTF-8" standalone="no"?>
<!DOCTYPE svg PUBLIC "-//W3C//DTD SVG 1.1//EN"
 "http://www.w3.org/Graphics/SVG/1.1/DTD/svg11.dtd">
<!-- Generated by graphviz version 2.43.0 (0)
 -->
<!-- Title: include/artgslam_vsc/ViewController.hpp Pages: 1 -->
<!--zoomable 296 -->
<svg id="main" version="1.1" xmlns="http://www.w3.org/2000/svg" xmlns:xlink="http://www.w3.org/1999/xlink" xml:space="preserve" onload="init(evt)">
<style type="text/css"><![CDATA[
.edge:hover path { stroke: red; }
.edge:hover polygon { stroke: red; fill: red; }
]]></style>
<script type="text/javascript"><![CDATA[
var edges = document.getElementsByTagName('g');
if (edges && edges.length) {
  for (var i=0;i<edges.length;i++) {
    if (edges[i].id.substr(0,4)=='edge') {
      edges[i].setAttribute('class','edge');
    }
  }
}
]]></script>
        <defs>
                <circle id="rim" cx="0" cy="0" r="7"/>
                <circle id="rim2" cx="0" cy="0" r="3.5"/>
                <g id="zoomPlus">
                        <use xlink:href="#rim" fill="#404040">
                                <set attributeName="fill" to="#808080" begin="zoomplus.mouseover" end="zoomplus.mouseout"/>
                        </use>
                        <path d="M-4,0h8M0,-4v8" fill="none" stroke="white" stroke-width="1.5" pointer-events="none"/>
                </g>
                <g id="zoomMin">
                        <use xlink:href="#rim" fill="#404040">
                                <set attributeName="fill" to="#808080" begin="zoomminus.mouseover" end="zoomminus.mouseout"/>
                        </use>
                        <path d="M-4,0h8" fill="none" stroke="white" stroke-width="1.5" pointer-events="none"/>
                </g>
                <g id="dirArrow">
                        <path fill="none" stroke="white" stroke-width="1.5" d="M0,-3.0v7 M-2.5,-0.5L0,-3.0L2.5,-0.5"/>
                </g>
               <g id="resetDef">
                       <use xlink:href="#rim2" fill="#404040">
                               <set attributeName="fill" to="#808080" begin="reset.mouseover" end="reset.mouseout"/>
                       </use>
               </g>
        </defs>

<script type="text/javascript">
var viewWidth = 728;
var viewHeight = 296;
var sectionId = 'dynsection-1';
</script>
<script xlink:href="svgpan.js"/>
<svg id="graph" class="graph">
<g id="viewport">
<title>include/artgslam_vsc/ViewController.hpp</title>
<polygon fill="white" stroke="transparent" points="-4,4 -4,-292 724,-292 724,4 -4,4"/>
<!-- Node1 -->
<g id="node1" class="node">
<title>Node1</title>
<g id="a_node1"><a xlink:title=" ">
<polygon fill="#bfbfbf" stroke="black" points="235.5,-257.5 235.5,-287.5 355.5,-287.5 355.5,-257.5 235.5,-257.5"/>
<text text-anchor="start" x="243.5" y="-275.5" font-family="Helvetica,sans-Serif" font-size="10.00">include/artgslam_vsc</text>
<text text-anchor="middle" x="295.5" y="-264.5" font-family="Helvetica,sans-Serif" font-size="10.00">/ViewController.hpp</text>
</a>
</g>
</g>
<!-- Node2 -->
<g id="node2" class="node">
<title>Node2</title>
<g id="a_node2"><a xlink:href="ViewController_8cpp.html" target="_top" xlink:title=" ">
<polygon fill="white" stroke="black" points="53.5,-196 53.5,-215 179.5,-215 179.5,-196 53.5,-196"/>
<text text-anchor="middle" x="116.5" y="-203" font-family="Helvetica,sans-Serif" font-size="10.00">src/ViewController.cpp</text>
</a>
</g>
</g>
<!-- Node1&#45;&gt;Node2 -->
<g id="edge1" class="edge">
<title>Node1&#45;&gt;Node2</title>
<path fill="none" stroke="midnightblue" d="M247.16,-253.95C212.39,-241.32 167.03,-224.85 139.93,-215.01"/>
<polygon fill="midnightblue" stroke="midnightblue" points="246.07,-257.27 256.66,-257.4 248.45,-250.69 246.07,-257.27"/>
</g>
<!-- Node3 -->
<g id="node3" class="node">
<title>Node3</title>
<g id="a_node3"><a xlink:href="GridMap_8hpp.html" target="_top" xlink:title=" ">
<polygon fill="white" stroke="black" points="235.5,-190.5 235.5,-220.5 355.5,-220.5 355.5,-190.5 235.5,-190.5"/>
<text text-anchor="start" x="243.5" y="-208.5" font-family="Helvetica,sans-Serif" font-size="10.00">include/artgslam_vsc</text>
<text text-anchor="middle" x="295.5" y="-197.5" font-family="Helvetica,sans-Serif" font-size="10.00">/GridMap.hpp</text>
</a>
</g>
</g>
<!-- Node1&#45;&gt;Node3 -->
<g id="edge2" class="edge">
<title>Node1&#45;&gt;Node3</title>
<path fill="none" stroke="midnightblue" d="M295.5,-247.11C295.5,-238.15 295.5,-228.32 295.5,-220.58"/>
<polygon fill="midnightblue" stroke="midnightblue" points="292,-247.4 295.5,-257.4 299,-247.4 292,-247.4"/>
</g>
<!-- Node7 -->
<g id="node7" class="node">
<title>Node7</title>
<g id="a_node7"><a xlink:href="MapViewer_8hpp.html" target="_top" xlink:title=" ">
<polygon fill="white" stroke="black" points="342.5,-56.5 342.5,-86.5 462.5,-86.5 462.5,-56.5 342.5,-56.5"/>
<text text-anchor="start" x="350.5" y="-74.5" font-family="Helvetica,sans-Serif" font-size="10.00">include/artgslam_vsc</text>
<text text-anchor="middle" x="402.5" y="-63.5" font-family="Helvetica,sans-Serif" font-size="10.00">/MapViewer.hpp</text>
</a>
</g>
</g>
<!-- Node1&#45;&gt;Node7 -->
<g id="edge22" class="edge">
<title>Node1&#45;&gt;Node7</title>
<path fill="none" stroke="midnightblue" d="M331.66,-251.94C343.69,-243.81 356.13,-233.37 364.5,-221 393.43,-178.24 400.33,-115.01 401.98,-86.89"/>
<polygon fill="midnightblue" stroke="midnightblue" points="329.59,-249.11 323.05,-257.44 333.36,-255.01 329.59,-249.11"/>
</g>
<!-- Node10 -->
<g id="node10" class="node">
<title>Node10</title>
<g id="a_node10"><a xlink:href="FileManager_8hpp.html" target="_top" xlink:title=" ">
<polygon fill="white" stroke="black" points="40.5,-123.5 40.5,-153.5 160.5,-153.5 160.5,-123.5 40.5,-123.5"/>
<text text-anchor="start" x="48.5" y="-141.5" font-family="Helvetica,sans-Serif" font-size="10.00">include/artgslam_vsc</text>
<text text-anchor="middle" x="100.5" y="-130.5" font-family="Helvetica,sans-Serif" font-size="10.00">/FileManager.hpp</text>
</a>
</g>
</g>
<!-- Node1&#45;&gt;Node10 -->
<g id="edge17" class="edge">
<title>Node1&#45;&gt;Node10</title>
<path fill="none" stroke="midnightblue" d="M267.37,-251.42C254.75,-242.29 239.76,-231.25 226.5,-221 209.26,-207.67 206.46,-202.35 188.5,-190 168.91,-176.52 145.51,-163.21 127.76,-153.65"/>
<polygon fill="midnightblue" stroke="midnightblue" points="265.51,-254.4 275.67,-257.4 269.6,-248.72 265.51,-254.4"/>
</g>
<!-- Node14 -->
<g id="node14" class="node">
<title>Node14</title>
<g id="a_node14"><a xlink:href="LiveMap_8hpp.html" target="_top" xlink:title=" ">
<polygon fill="white" stroke="black" points="453.5,-190.5 453.5,-220.5 573.5,-220.5 573.5,-190.5 453.5,-190.5"/>
<text text-anchor="start" x="461.5" y="-208.5" font-family="Helvetica,sans-Serif" font-size="10.00">include/artgslam_vsc</text>
<text text-anchor="middle" x="513.5" y="-197.5" font-family="Helvetica,sans-Serif" font-size="10.00">/LiveMap.hpp</text>
</a>
</g>
</g>
<!-- Node1&#45;&gt;Node14 -->
<g id="edge18" class="edge">
<title>Node1&#45;&gt;Node14</title>
<path fill="none" stroke="midnightblue" d="M352.25,-254.58C387.66,-244.02 432.7,-230.59 466.17,-220.61"/>
<polygon fill="midnightblue" stroke="midnightblue" points="351.12,-251.26 342.53,-257.48 353.12,-257.97 351.12,-251.26"/>
</g>
<!-- Node4 -->
<g id="node4" class="node">
<title>Node4</title>
<g id="a_node4"><a xlink:href="GridMap_8cpp.html" target="_top" xlink:title=" ">
<polygon fill="white" stroke="black" points="131,-62 131,-81 226,-81 226,-62 131,-62"/>
<text text-anchor="middle" x="178.5" y="-69" font-family="Helvetica,sans-Serif" font-size="10.00">src/GridMap.cpp</text>
</a>
</g>
</g>
<!-- Node3&#45;&gt;Node4 -->
<g id="edge3" class="edge">
<title>Node3&#45;&gt;Node4</title>
<path fill="none" stroke="midnightblue" d="M249.21,-185.81C234.23,-177.87 218.63,-167.32 207.5,-154 189.02,-131.87 181.95,-97.09 179.57,-81.08"/>
<polygon fill="midnightblue" stroke="midnightblue" points="247.9,-189.07 258.41,-190.41 251.04,-182.81 247.9,-189.07"/>
</g>
<!-- Node5 -->
<g id="node5" class="node">
<title>Node5</title>
<g id="a_node5"><a xlink:href="AStar_8hpp.html" target="_top" xlink:title=" ">
<polygon fill="white" stroke="black" points="216.5,-123.5 216.5,-153.5 336.5,-153.5 336.5,-123.5 216.5,-123.5"/>
<text text-anchor="start" x="224.5" y="-141.5" font-family="Helvetica,sans-Serif" font-size="10.00">include/artgslam_vsc</text>
<text text-anchor="middle" x="276.5" y="-130.5" font-family="Helvetica,sans-Serif" font-size="10.00">/AStar.hpp</text>
</a>
</g>
</g>
<!-- Node3&#45;&gt;Node5 -->
<g id="edge4" class="edge">
<title>Node3&#45;&gt;Node5</title>
<path fill="none" stroke="midnightblue" d="M288.54,-180.7C285.88,-171.59 282.93,-161.49 280.61,-153.58"/>
<polygon fill="midnightblue" stroke="midnightblue" points="285.21,-181.78 291.38,-190.4 291.93,-179.82 285.21,-181.78"/>
</g>
<!-- Node3&#45;&gt;Node7 -->
<g id="edge13" class="edge">
<title>Node3&#45;&gt;Node7</title>
<path fill="none" stroke="midnightblue" d="M318.46,-182.95C327.26,-174.27 337.19,-163.96 345.5,-154 364.19,-131.59 383.05,-103.25 393.7,-86.58"/>
<polygon fill="midnightblue" stroke="midnightblue" points="315.81,-180.63 311.07,-190.11 320.69,-185.66 315.81,-180.63"/>
</g>
<!-- Node3&#45;&gt;Node10 -->
<g id="edge10" class="edge">
<title>Node3&#45;&gt;Node10</title>
<path fill="none" stroke="midnightblue" d="M243.68,-187.23C212.14,-176.71 172.35,-163.45 142.73,-153.58"/>
<polygon fill="midnightblue" stroke="midnightblue" points="242.59,-190.55 253.19,-190.4 244.81,-183.91 242.59,-190.55"/>
</g>
<!-- Node12 -->
<g id="node12" class="node">
<title>Node12</title>
<g id="a_node12"><a xlink:href="RightClickMapMenu_8hpp.html" target="_top" xlink:title=" ">
<polygon fill="white" stroke="black" points="468.5,-123.5 468.5,-153.5 606.5,-153.5 606.5,-123.5 468.5,-123.5"/>
<text text-anchor="start" x="476.5" y="-141.5" font-family="Helvetica,sans-Serif" font-size="10.00">include/artgslam_vsc</text>
<text text-anchor="middle" x="537.5" y="-130.5" font-family="Helvetica,sans-Serif" font-size="10.00">/RightClickMapMenu.hpp</text>
</a>
</g>
</g>
<!-- Node3&#45;&gt;Node12 -->
<g id="edge14" class="edge">
<title>Node3&#45;&gt;Node12</title>
<path fill="none" stroke="midnightblue" d="M357.49,-187.85C396.95,-177.25 447.49,-163.68 484.96,-153.61"/>
<polygon fill="midnightblue" stroke="midnightblue" points="356.46,-184.5 347.71,-190.48 358.28,-191.26 356.46,-184.5"/>
</g>
<!-- Node5&#45;&gt;Node4 -->
<g id="edge6" class="edge">
<title>Node5&#45;&gt;Node4</title>
<path fill="none" stroke="midnightblue" d="M246.81,-117.81C228.27,-105.51 205.34,-90.3 191.33,-81.01"/>
<polygon fill="midnightblue" stroke="midnightblue" points="244.97,-120.79 255.24,-123.4 248.84,-114.95 244.97,-120.79"/>
</g>
<!-- Node6 -->
<g id="node6" class="node">
<title>Node6</title>
<g id="a_node6"><a xlink:href="Astar_8cpp.html" target="_top" xlink:title=" ">
<polygon fill="white" stroke="black" points="244.5,-62 244.5,-81 324.5,-81 324.5,-62 244.5,-62"/>
<text text-anchor="middle" x="284.5" y="-69" font-family="Helvetica,sans-Serif" font-size="10.00">src/Astar.cpp</text>
</a>
</g>
</g>
<!-- Node5&#45;&gt;Node6 -->
<g id="edge5" class="edge">
<title>Node5&#45;&gt;Node6</title>
<path fill="none" stroke="midnightblue" d="M279.48,-113.25C280.87,-102.02 282.42,-89.38 283.43,-81.19"/>
<polygon fill="midnightblue" stroke="midnightblue" points="275.98,-113.04 278.24,-123.4 282.93,-113.9 275.98,-113.04"/>
</g>
<!-- Node5&#45;&gt;Node7 -->
<g id="edge7" class="edge">
<title>Node5&#45;&gt;Node7</title>
<path fill="none" stroke="midnightblue" d="M312.92,-118.71C332.79,-108.46 356.98,-95.98 375.21,-86.58"/>
<polygon fill="midnightblue" stroke="midnightblue" points="311.12,-115.7 303.84,-123.4 314.33,-121.92 311.12,-115.7"/>
</g>
<!-- Node8 -->
<g id="node8" class="node">
<title>Node8</title>
<g id="a_node8"><a xlink:href="main_8cpp.html" target="_top" xlink:title=" ">
<polygon fill="white" stroke="black" points="307,-0.5 307,-19.5 386,-19.5 386,-0.5 307,-0.5"/>
<text text-anchor="middle" x="346.5" y="-7.5" font-family="Helvetica,sans-Serif" font-size="10.00">src/main.cpp</text>
</a>
</g>
</g>
<!-- Node7&#45;&gt;Node8 -->
<g id="edge8" class="edge">
<title>Node7&#45;&gt;Node8</title>
<path fill="none" stroke="midnightblue" d="M382.27,-49C372.72,-38.86 361.87,-27.33 354.65,-19.66"/>
<polygon fill="midnightblue" stroke="midnightblue" points="379.83,-51.52 389.23,-56.4 384.92,-46.72 379.83,-51.52"/>
</g>
<!-- Node9 -->
<g id="node9" class="node">
<title>Node9</title>
<g id="a_node9"><a xlink:href="MapViewer_8cpp.html" target="_top" xlink:title=" ">
<polygon fill="white" stroke="black" points="404,-0.5 404,-19.5 513,-19.5 513,-0.5 404,-0.5"/>
<text text-anchor="middle" x="458.5" y="-7.5" font-family="Helvetica,sans-Serif" font-size="10.00">src/MapViewer.cpp</text>
</a>
</g>
</g>
<!-- Node7&#45;&gt;Node9 -->
<g id="edge9" class="edge">
<title>Node7&#45;&gt;Node9</title>
<path fill="none" stroke="midnightblue" d="M422.73,-49C432.28,-38.86 443.13,-27.33 450.35,-19.66"/>
<polygon fill="midnightblue" stroke="midnightblue" points="420.08,-46.72 415.77,-56.4 425.17,-51.52 420.08,-46.72"/>
</g>
<!-- Node10&#45;&gt;Node7 -->
<g id="edge12" class="edge">
<title>Node10&#45;&gt;Node7</title>
<path fill="none" stroke="midnightblue" d="M170.35,-122.47C222.4,-111.26 292.76,-96.12 342.33,-85.45"/>
<polygon fill="midnightblue" stroke="midnightblue" points="169.57,-119.05 160.53,-124.58 171.04,-125.9 169.57,-119.05"/>
</g>
<!-- Node11 -->
<g id="node11" class="node">
<title>Node11</title>
<g id="a_node11"><a xlink:href="FileManager_8cpp.html" target="_top" xlink:title=" ">
<polygon fill="white" stroke="black" points="0,-62 0,-81 113,-81 113,-62 0,-62"/>
<text text-anchor="middle" x="56.5" y="-69" font-family="Helvetica,sans-Serif" font-size="10.00">src/FileManager.cpp</text>
</a>
</g>
</g>
<!-- Node10&#45;&gt;Node11 -->
<g id="edge11" class="edge">
<title>Node10&#45;&gt;Node11</title>
<path fill="none" stroke="midnightblue" d="M85.25,-114.97C77.37,-103.33 68.21,-89.8 62.39,-81.19"/>
<polygon fill="midnightblue" stroke="midnightblue" points="82.45,-117.08 90.95,-123.4 88.25,-113.15 82.45,-117.08"/>
</g>
<!-- Node12&#45;&gt;Node7 -->
<g id="edge16" class="edge">
<title>Node12&#45;&gt;Node7</title>
<path fill="none" stroke="midnightblue" d="M499.06,-118.99C477.66,-108.69 451.45,-96.07 431.74,-86.58"/>
<polygon fill="midnightblue" stroke="midnightblue" points="497.68,-122.21 508.21,-123.4 500.72,-115.9 497.68,-122.21"/>
</g>
<!-- Node13 -->
<g id="node13" class="node">
<title>Node13</title>
<g id="a_node13"><a xlink:href="RightClickMapMenu_8cpp.html" target="_top" xlink:title=" ">
<polygon fill="white" stroke="black" points="480.5,-62 480.5,-81 632.5,-81 632.5,-62 480.5,-62"/>
<text text-anchor="middle" x="556.5" y="-69" font-family="Helvetica,sans-Serif" font-size="10.00">src/RightClickMapMenu.cpp</text>
</a>
</g>
</g>
<!-- Node12&#45;&gt;Node13 -->
<g id="edge15" class="edge">
<title>Node12&#45;&gt;Node13</title>
<path fill="none" stroke="midnightblue" d="M544.49,-113.6C547.8,-102.28 551.54,-89.46 553.96,-81.19"/>
<polygon fill="midnightblue" stroke="midnightblue" points="541.07,-112.82 541.62,-123.4 547.79,-114.78 541.07,-112.82"/>
</g>
<!-- Node14&#45;&gt;Node7 -->
<g id="edge20" class="edge">
<title>Node14&#45;&gt;Node7</title>
<path fill="none" stroke="midnightblue" d="M488.86,-183.45C479.26,-174.75 468.44,-164.3 459.5,-154 440.38,-131.96 421.66,-103.5 411.15,-86.7"/>
<polygon fill="midnightblue" stroke="midnightblue" points="486.77,-186.28 496.57,-190.31 491.42,-181.05 486.77,-186.28"/>
</g>
<!-- Node14&#45;&gt;Node12 -->
<g id="edge21" class="edge">
<title>Node14&#45;&gt;Node12</title>
<path fill="none" stroke="midnightblue" d="M522.18,-180.99C525.57,-171.8 529.35,-161.58 532.3,-153.58"/>
<polygon fill="midnightblue" stroke="midnightblue" points="518.89,-179.8 518.71,-190.4 525.45,-182.23 518.89,-179.8"/>
</g>
<!-- Node15 -->
<g id="node15" class="node">
<title>Node15</title>
<g id="a_node15"><a xlink:href="LiveMap_8cpp.html" target="_top" xlink:title=" ">
<polygon fill="white" stroke="black" points="625,-129 625,-148 720,-148 720,-129 625,-129"/>
<text text-anchor="middle" x="672.5" y="-136" font-family="Helvetica,sans-Serif" font-size="10.00">src/LiveMap.cpp</text>
</a>
</g>
</g>
<!-- Node14&#45;&gt;Node15 -->
<g id="edge19" class="edge">
<title>Node14&#45;&gt;Node15</title>
<path fill="none" stroke="midnightblue" d="M557.63,-186.46C588.35,-173.9 627.92,-157.72 651.69,-148.01"/>
<polygon fill="midnightblue" stroke="midnightblue" points="555.93,-183.37 548,-190.4 558.58,-189.85 555.93,-183.37"/>
</g>
</g>
</svg>
        <g id="navigator" transform="translate(0 0)" fill="#404254">
                <rect fill="#f2f5e9" fill-opacity="0.5" stroke="#606060" stroke-width=".5" x="0" y="0" width="60" height="60"/>
                <use id="zoomplus" xlink:href="#zoomPlus" x="17" y="9" onmousedown="handleZoom(evt,'in')"/>
                <use id="zoomminus" xlink:href="#zoomMin" x="42" y="9" onmousedown="handleZoom(evt,'out')"/>
                <use id="reset" xlink:href="#resetDef" x="30" y="36" onmousedown="handleReset()"/>
                <g id="arrowUp" xlink:href="#dirArrow" transform="translate(30 24)" onmousedown="handlePan(0,-1)">
                  <use xlink:href="#rim" fill="#404040">
                        <set attributeName="fill" to="#808080" begin="arrowUp.mouseover" end="arrowUp.mouseout"/>
                  </use>
                  <path fill="none" stroke="white" stroke-width="1.5" d="M0,-3.0v7 M-2.5,-0.5L0,-3.0L2.5,-0.5"/>
                </g>
                <g id="arrowRight" xlink:href="#dirArrow" transform="rotate(90) translate(36 -43)" onmousedown="handlePan(1,0)">
                  <use xlink:href="#rim" fill="#404040">
                        <set attributeName="fill" to="#808080" begin="arrowRight.mouseover" end="arrowRight.mouseout"/>
                  </use>
                  <path fill="none" stroke="white" stroke-width="1.5" d="M0,-3.0v7 M-2.5,-0.5L0,-3.0L2.5,-0.5"/>
                </g>
                <g id="arrowDown" xlink:href="#dirArrow" transform="rotate(180) translate(-30 -48)" onmousedown="handlePan(0,1)">
                  <use xlink:href="#rim" fill="#404040">
                        <set attributeName="fill" to="#808080" begin="arrowDown.mouseover" end="arrowDown.mouseout"/>
                  </use>
                  <path fill="none" stroke="white" stroke-width="1.5" d="M0,-3.0v7 M-2.5,-0.5L0,-3.0L2.5,-0.5"/>
                </g>
                <g id="arrowLeft" xlink:href="#dirArrow" transform="rotate(270) translate(-36 17)" onmousedown="handlePan(-1,0)">
                  <use xlink:href="#rim" fill="#404040">
                        <set attributeName="fill" to="#808080" begin="arrowLeft.mouseover" end="arrowLeft.mouseout"/>
                  </use>
                  <path fill="none" stroke="white" stroke-width="1.5" d="M0,-3.0v7 M-2.5,-0.5L0,-3.0L2.5,-0.5"/>
                </g>
        </g>
        <svg viewBox="0 0 15 15" width="100%" height="30px" preserveAspectRatio="xMaxYMin meet">
         <g id="arrow_out" transform="scale(0.3 0.3)">
          <a xlink:href="ViewController_8hpp__dep__incl_org.svg" target="_base">
           <rect id="button" ry="5" rx="5" y="6" x="6" height="38" width="38"
                fill="#f2f5e9" fill-opacity="0.5" stroke="#606060" stroke-width="1.0"/>
           <path id="arrow"
             d="M 11.500037,31.436501 C 11.940474,20.09759 22.043105,11.32322 32.158766,21.979434 L 37.068811,17.246167 C 37.068811,17.246167 37.088388,32 37.088388,32 L 22.160133,31.978069 C 22.160133,31.978069 26.997745,27.140456 26.997745,27.140456 C 18.528582,18.264221 13.291696,25.230495 11.500037,31.436501 z"
             style="fill:#404040;"/>
          </a>
         </g>
        </svg>
</svg>
